<?xml version="1.0" encoding="utf-8"?>
<!-- Generator: Adobe Illustrator 19.0.0, SVG Export Plug-In . SVG Version: 6.00 Build 0)  -->
<svg version="1.1" id="图层_1" xmlns="http://www.w3.org/2000/svg" xmlns:xlink="http://www.w3.org/1999/xlink" x="0px" y="0px"
	 viewBox="0 0 40 40" style="enable-background:new 0 0 40 40;" xml:space="preserve">
<style type="text/css">
	.st0{fill:#214191;}
	.st1{fill:#4991FC;}
</style>
<g id="XMLID_2_">
	<circle class="st0" cx="20" cy="20" r="18.2"/>
</g>
<g id="XMLID_8_">
	<g id="XMLID_10_">
		<path id="XMLID_11_" class="st1" d="M15.1,26.4c-0.4,0-0.8-0.1-1.1-0.4c-0.6-0.6-0.6-1.5,0-2.1l9.8-9.8c0.6-0.6,1.5-0.6,2.1,0
			c0.6,0.6,0.6,1.5,0,2.1L16.2,26C15.9,26.2,15.5,26.4,15.1,26.4z"/>
	</g>
	<g id="XMLID_9_">
		<path id="XMLID_7_" class="st1" d="M24.9,26.4c-0.4,0-0.8-0.1-1.1-0.4L14,16.1c-0.6-0.6-0.6-1.5,0-2.1c0.6-0.6,1.5-0.6,2.1,0
			l9.8,9.8c0.6,0.6,0.6,1.5,0,2.1C25.7,26.2,25.3,26.4,24.9,26.4z"/>
	</g>
</g>
<g id="XMLID_1_">
	<path id="XMLID_4_" class="st1" d="M20,39.7C9.1,39.7,0.2,30.9,0.2,20C0.2,9.1,9.1,0.2,20,0.2c10.9,0,19.8,8.9,19.8,19.8
		C39.8,30.9,30.9,39.7,20,39.7z M20,3.2C10.8,3.2,3.2,10.8,3.2,20c0,9.2,7.5,16.8,16.8,16.8c9.2,0,16.8-7.5,16.8-16.8
		C36.8,10.8,29.2,3.2,20,3.2z"/>
</g>
</svg>
