<?xml version="1.0" encoding="utf-8"?>
<!-- Generator: Adobe Illustrator 19.0.0, SVG Export Plug-In . SVG Version: 6.00 Build 0)  -->
<svg version="1.1" id="图层_1" xmlns="http://www.w3.org/2000/svg" xmlns:xlink="http://www.w3.org/1999/xlink" x="0px" y="0px"
	 viewBox="0 0 28.8 45.9" style="enable-background:new 0 0 28.8 45.9;" xml:space="preserve">
<style type="text/css">
	.st0{fill:#EDB033;}
	.st1{opacity:0.35;}
	.st2{clip-path:url(#XMLID_13_);fill:#F8F5B0;}
	.st3{clip-path:url(#XMLID_13_);fill:#F7F5AE;}
	.st4{clip-path:url(#XMLID_13_);fill:#F7F4AB;}
	.st5{clip-path:url(#XMLID_13_);fill:#F6F4A8;}
	.st6{clip-path:url(#XMLID_13_);fill:#F6F4A7;}
	.st7{clip-path:url(#XMLID_13_);fill:#F6F3A4;}
	.st8{clip-path:url(#XMLID_13_);fill:#F6F3A1;}
	.st9{clip-path:url(#XMLID_13_);fill:#F6F39F;}
	.st10{clip-path:url(#XMLID_13_);fill:#F6F39C;}
	.st11{clip-path:url(#XMLID_13_);fill:#F6F29B;}
	.st12{clip-path:url(#XMLID_13_);fill:#F5F299;}
	.st13{clip-path:url(#XMLID_13_);fill:#F5F297;}
	.st14{clip-path:url(#XMLID_13_);fill:#F5F295;}
	.st15{clip-path:url(#XMLID_13_);fill:#F5F293;}
	.st16{clip-path:url(#XMLID_13_);fill:#F4F190;}
	.st17{clip-path:url(#XMLID_13_);fill:#F4F18F;}
	.st18{clip-path:url(#XMLID_13_);fill:#F4F18D;}
	.st19{clip-path:url(#XMLID_13_);fill:#F5F18B;}
	.st20{clip-path:url(#XMLID_13_);fill:#F4F089;}
	.st21{clip-path:url(#XMLID_13_);fill:#F4F088;}
	.st22{clip-path:url(#XMLID_13_);fill:#F4F086;}
	.st23{clip-path:url(#XMLID_13_);fill:#F4F085;}
	.st24{clip-path:url(#XMLID_13_);fill:#F4F084;}
	.st25{clip-path:url(#XMLID_13_);fill:#F3F083;}
	.st26{clip-path:url(#XMLID_13_);fill:#F3EF81;}
	.st27{clip-path:url(#XMLID_13_);fill:#F3EF7F;}
	.st28{clip-path:url(#XMLID_13_);fill:#F3EF7E;}
	.st29{clip-path:url(#XMLID_13_);fill:#F3EF7D;}
	.st30{clip-path:url(#XMLID_13_);fill:#F3EF7C;}
	.st31{clip-path:url(#XMLID_13_);fill:#F3EF7B;}
	.st32{clip-path:url(#XMLID_13_);fill:#F3EF7A;}
	.st33{clip-path:url(#XMLID_13_);fill:#F3EF79;}
	.st34{clip-path:url(#XMLID_13_);fill:#F3EF78;}
	.st35{clip-path:url(#XMLID_13_);fill:#F3EF77;}
	.st36{clip-path:url(#XMLID_13_);fill:#F3EE76;}
	.st37{clip-path:url(#XMLID_13_);fill:#F3EE75;}
	.st38{clip-path:url(#XMLID_13_);fill:#F3EE74;}
	.st39{clip-path:url(#XMLID_13_);fill:#F3EE73;}
	.st40{clip-path:url(#XMLID_13_);fill:#F3EE72;}
	.st41{clip-path:url(#XMLID_13_);fill:#F3EE70;}
	.st42{clip-path:url(#XMLID_13_);fill:#F3EE6F;}
	.st43{clip-path:url(#XMLID_13_);fill:#F2EE6E;}
	.st44{clip-path:url(#XMLID_13_);fill:#F2EE6D;}
	.st45{clip-path:url(#XMLID_13_);fill:#F2EE6C;}
	.st46{clip-path:url(#XMLID_13_);fill:#F2EE6B;}
	.st47{clip-path:url(#XMLID_13_);fill:#F2ED6A;}
	.st48{clip-path:url(#XMLID_13_);fill:#F2ED69;}
	.st49{clip-path:url(#XMLID_13_);fill:#F2ED68;}
	.st50{clip-path:url(#XMLID_13_);fill:#F2ED67;}
	.st51{clip-path:url(#XMLID_13_);fill:#F2ED65;}
	.st52{clip-path:url(#XMLID_13_);fill:#F2ED63;}
	.st53{clip-path:url(#XMLID_13_);fill:#F2ED62;}
	.st54{clip-path:url(#XMLID_13_);fill:#F3ED61;}
	.st55{clip-path:url(#XMLID_13_);fill:#F3ED60;}
	.st56{clip-path:url(#XMLID_13_);fill:#F3ED5D;}
	.st57{clip-path:url(#XMLID_13_);fill:#F3ED5C;}
	.st58{clip-path:url(#XMLID_13_);fill:#F3ED5B;}
	.st59{clip-path:url(#XMLID_13_);fill:#F4EC58;}
	.st60{clip-path:url(#XMLID_13_);fill:#F3EA57;}
	.st61{clip-path:url(#XMLID_13_);fill:#F3E955;}
	.st62{clip-path:url(#XMLID_13_);fill:#F2E854;}
	.st63{clip-path:url(#XMLID_13_);fill:#F2E754;}
	.st64{clip-path:url(#XMLID_13_);fill:#F1E653;}
	.st65{clip-path:url(#XMLID_13_);fill:#F1E352;}
	.st66{clip-path:url(#XMLID_13_);fill:#F2E351;}
	.st67{clip-path:url(#XMLID_13_);fill:#F2E250;}
	.st68{clip-path:url(#XMLID_13_);fill:#F1E150;}
	.st69{clip-path:url(#XMLID_13_);fill:#F1E050;}
	.st70{clip-path:url(#XMLID_13_);fill:#F0DF4E;}
	.st71{clip-path:url(#XMLID_13_);fill:#F0DD4D;}
	.st72{clip-path:url(#XMLID_13_);fill:#F1DD4C;}
	.st73{clip-path:url(#XMLID_13_);fill:#EFDB4B;}
	.st74{clip-path:url(#XMLID_13_);fill:#EFDA4A;}
	.st75{clip-path:url(#XMLID_13_);fill:#F0DA49;}
	.st76{clip-path:url(#XMLID_13_);fill:#EFD849;}
	.st77{clip-path:url(#XMLID_13_);fill:#EFD748;}
	.st78{clip-path:url(#XMLID_13_);fill:#EED747;}
	.st79{clip-path:url(#XMLID_13_);fill:#EED447;}
	.st80{clip-path:url(#XMLID_13_);fill:#EFD446;}
	.st81{clip-path:url(#XMLID_13_);fill:#EED245;}
	.st82{clip-path:url(#XMLID_13_);fill:#EED244;}
	.st83{clip-path:url(#XMLID_13_);fill:#EED144;}
	.st84{clip-path:url(#XMLID_13_);fill:#EDD044;}
	.st85{clip-path:url(#XMLID_13_);fill:#EDCF42;}
	.st86{clip-path:url(#XMLID_13_);fill:#ECCE41;}
	.st87{clip-path:url(#XMLID_13_);fill:#ECCD41;}
	.st88{clip-path:url(#XMLID_13_);fill:#ECCC40;}
	.st89{clip-path:url(#XMLID_13_);fill:#EDCB3E;}
	.st90{clip-path:url(#XMLID_13_);fill:#EDCA3E;}
	.st91{clip-path:url(#XMLID_13_);fill:#ECC93E;}
	.st92{clip-path:url(#XMLID_13_);fill:#ECC83D;}
	.st93{clip-path:url(#XMLID_13_);fill:#EBC73D;}
	.st94{clip-path:url(#XMLID_13_);fill:#EBC63C;}
	.st95{clip-path:url(#XMLID_13_);fill:#ECC63A;}
	.st96{clip-path:url(#XMLID_13_);fill:#EAC53B;}
	.st97{clip-path:url(#XMLID_13_);fill:#EBC439;}
	.st98{clip-path:url(#XMLID_13_);fill:#EBC339;}
	.st99{clip-path:url(#XMLID_13_);fill:#EBC238;}
	.st100{clip-path:url(#XMLID_13_);fill:#EBC138;}
	.st101{clip-path:url(#XMLID_13_);fill:#EAC037;}
	.st102{clip-path:url(#XMLID_13_);fill:#EABF37;}
	.st103{clip-path:url(#XMLID_13_);fill:#E9BF36;}
	.st104{clip-path:url(#XMLID_13_);fill:#E9BD36;}
	.st105{clip-path:url(#XMLID_13_);fill:#E9BC34;}
	.st106{clip-path:url(#XMLID_13_);fill:#E8BB33;}
	.st107{clip-path:url(#XMLID_13_);fill:#E8BA33;}
	.st108{clip-path:url(#XMLID_13_);fill:#E8B932;}
	.st109{opacity:6.000000e-02;}
	.st110{clip-path:url(#XMLID_26_);fill:#FFFFFF;}
	.st111{opacity:0.9;}
	.st112{fill:#FFFFFF;}
</style>
<g id="XMLID_1_">
	<g id="XMLID_190_">
		<g id="XMLID_24_">
			<path id="XMLID_196_" class="st0" d="M14.4,7L14.4,7c-0.7,0-1.2-0.5-1.2-1.2V2c0-0.7,0.5-1.2,1.2-1.2h0c0.7,0,1.2,0.5,1.2,1.2
				v3.9C15.6,6.5,15.1,7,14.4,7z"/>
		</g>
		<g id="XMLID_22_">
			<path id="XMLID_194_" class="st0" d="M23.4,8.8L23.4,8.8c-0.5-0.5-0.5-1.2,0-1.7l2.4-2.4c0.5-0.5,1.2-0.5,1.7,0l0,0
				c0.5,0.5,0.5,1.2,0,1.7l-2.4,2.4C24.7,9.3,23.9,9.3,23.4,8.8z"/>
		</g>
		<g id="XMLID_23_">
			<path id="XMLID_192_" class="st0" d="M5.4,8.8L5.4,8.8C5,9.3,4.2,9.3,3.7,8.8L1.3,6.4c-0.5-0.5-0.5-1.2,0-1.7l0,0
				c0.5-0.5,1.2-0.5,1.7,0l2.4,2.4C5.9,7.6,5.9,8.4,5.4,8.8z"/>
		</g>
	</g>
	<g id="XMLID_4_">
		<path id="XMLID_189_" class="st0" d="M14.4,45.2c-2,0-3.7-1.6-3.7-3.7h1.9c0,1,0.8,1.7,1.7,1.7c1,0,1.7-0.8,1.7-1.7h1.9
			C18.1,43.5,16.4,45.2,14.4,45.2z"/>
	</g>
	<g id="XMLID_7_">
		<path id="XMLID_185_" class="st0" d="M18.7,42.5h-8.5c-1.6,0-2.9-1.3-2.9-2.9c0-1.6,1.3-2.9,2.9-2.9h8.5c1.6,0,2.9,1.3,2.9,2.9
			C21.6,41.2,20.3,42.5,18.7,42.5z M10.2,38.6c-0.5,0-1,0.4-1,1c0,0.5,0.4,1,1,1h8.5c0.5,0,1-0.4,1-1c0-0.5-0.4-1-1-1H10.2z"/>
	</g>
	<g id="XMLID_6_" class="st1">
		<g id="XMLID_27_">
			<defs>
				<circle id="XMLID_28_" cx="14.5" cy="22.8" r="12.2"/>
			</defs>
			<clipPath id="XMLID_13_">
				<use xlink:href="#XMLID_28_"  style="overflow:visible;"/>
			</clipPath>
			<polygon id="XMLID_183_" class="st2" points="9.3,9 0.7,21.3 0.7,9 			"/>
			<polygon id="XMLID_182_" class="st2" points="9.5,9 0.7,21.5 0.7,21.3 9.3,9 			"/>
			<polygon id="XMLID_181_" class="st3" points="9.6,9 0.7,21.7 0.7,21.5 9.5,9 			"/>
			<polygon id="XMLID_180_" class="st4" points="9.8,9 0.7,21.9 0.7,21.7 9.6,9 			"/>
			<polygon id="XMLID_179_" class="st5" points="10,9 0.7,22.2 0.7,21.9 9.8,9 			"/>
			<polygon id="XMLID_178_" class="st6" points="10.1,9 0.7,22.4 0.7,22.2 10,9 			"/>
			<polygon id="XMLID_177_" class="st7" points="10.3,9 0.7,22.6 0.7,22.4 10.1,9 			"/>
			<polygon id="XMLID_176_" class="st8" points="10.4,9 0.7,22.8 0.7,22.6 10.3,9 			"/>
			<polygon id="XMLID_175_" class="st9" points="10.6,9 0.7,23 0.7,22.8 10.4,9 			"/>
			<polygon id="XMLID_174_" class="st10" points="10.7,9 0.7,23.2 0.7,23 10.6,9 			"/>
			<polygon id="XMLID_173_" class="st11" points="10.9,9 0.7,23.5 0.7,23.2 10.7,9 			"/>
			<polygon id="XMLID_172_" class="st12" points="11,9 0.7,23.7 0.7,23.5 10.9,9 			"/>
			<polygon id="XMLID_171_" class="st13" points="11.2,9 0.7,23.9 0.7,23.7 11,9 			"/>
			<polygon id="XMLID_170_" class="st14" points="11.3,9 0.7,24.1 0.7,23.9 11.2,9 			"/>
			<polygon id="XMLID_169_" class="st15" points="11.5,9 0.7,24.3 0.7,24.1 11.3,9 			"/>
			<polygon id="XMLID_168_" class="st16" points="11.6,9 0.7,24.5 0.7,24.3 11.5,9 			"/>
			<polygon id="XMLID_167_" class="st17" points="11.8,9 0.7,24.8 0.7,24.5 11.6,9 			"/>
			<polygon id="XMLID_166_" class="st18" points="11.9,9 0.7,25 0.7,24.8 11.8,9 			"/>
			<polygon id="XMLID_165_" class="st19" points="12.1,9 0.7,25.2 0.7,25 11.9,9 			"/>
			<polygon id="XMLID_164_" class="st20" points="12.2,9 0.7,25.4 0.7,25.2 12.1,9 			"/>
			<polygon id="XMLID_163_" class="st21" points="12.4,9 0.7,25.6 0.7,25.4 12.2,9 			"/>
			<polygon id="XMLID_162_" class="st22" points="12.6,9 0.7,25.8 0.7,25.6 12.4,9 			"/>
			<polygon id="XMLID_161_" class="st23" points="12.7,9 0.7,26.1 0.7,25.8 12.6,9 			"/>
			<polygon id="XMLID_160_" class="st24" points="12.9,9 0.7,26.3 0.7,26.1 12.7,9 			"/>
			<polygon id="XMLID_159_" class="st25" points="13,9 0.7,26.5 0.7,26.3 12.9,9 			"/>
			<polygon id="XMLID_158_" class="st26" points="13.2,9 0.7,26.7 0.7,26.5 13,9 			"/>
			<polygon id="XMLID_157_" class="st27" points="13.3,9 0.7,26.9 0.7,26.7 13.2,9 			"/>
			<polygon id="XMLID_156_" class="st28" points="13.5,9 0.7,27.1 0.7,26.9 13.3,9 			"/>
			<polygon id="XMLID_155_" class="st29" points="13.6,9 0.7,27.4 0.7,27.1 13.5,9 			"/>
			<polygon id="XMLID_154_" class="st30" points="13.8,9 0.7,27.6 0.7,27.4 13.6,9 			"/>
			<polygon id="XMLID_153_" class="st31" points="13.9,9 0.7,27.8 0.7,27.6 13.8,9 			"/>
			<polygon id="XMLID_152_" class="st32" points="14.1,9 0.7,28 0.7,27.8 13.9,9 			"/>
			<polygon id="XMLID_151_" class="st33" points="14.2,9 0.7,28.2 0.7,28 14.1,9 			"/>
			<polygon id="XMLID_150_" class="st34" points="14.4,9 0.7,28.4 0.7,28.2 14.2,9 			"/>
			<polygon id="XMLID_149_" class="st35" points="14.5,9 0.7,28.7 0.7,28.4 14.4,9 			"/>
			<polygon id="XMLID_148_" class="st36" points="14.7,9 0.7,28.9 0.7,28.7 14.5,9 			"/>
			<polygon id="XMLID_147_" class="st36" points="14.8,9 0.7,29.1 0.7,28.9 14.7,9 			"/>
			<polygon id="XMLID_146_" class="st37" points="15,9 0.7,29.3 0.7,29.1 14.8,9 			"/>
			<polygon id="XMLID_145_" class="st38" points="15.1,9 0.7,29.5 0.7,29.3 15,9 			"/>
			<polygon id="XMLID_144_" class="st38" points="15.3,9 0.7,29.7 0.7,29.5 15.1,9 			"/>
			<polygon id="XMLID_143_" class="st39" points="15.5,9 0.7,30 0.7,29.7 15.3,9 			"/>
			<polygon id="XMLID_142_" class="st40" points="15.6,9 0.7,30.2 0.7,30 15.5,9 			"/>
			<polygon id="XMLID_141_" class="st40" points="15.8,9 0.7,30.4 0.7,30.3 0.7,30.2 15.6,9 			"/>
			<polygon id="XMLID_140_" class="st41" points="15.9,9 0.8,30.4 0.7,30.4 15.8,9 			"/>
			<polygon id="XMLID_139_" class="st42" points="16.1,9 0.9,30.5 0.8,30.4 15.9,9 			"/>
			<polygon id="XMLID_138_" class="st42" points="16.2,9 1,30.6 0.9,30.5 16.1,9 			"/>
			<polygon id="XMLID_137_" class="st42" points="16.4,9 1.1,30.6 1,30.6 16.2,9 			"/>
			<polygon id="XMLID_136_" class="st43" points="16.5,9 1.2,30.7 1.1,30.6 16.4,9 			"/>
			<polygon id="XMLID_135_" class="st44" points="16.7,9 1.3,30.8 1.2,30.7 16.5,9 			"/>
			<polygon id="XMLID_134_" class="st44" points="16.8,9 1.4,30.9 1.3,30.8 16.7,9 			"/>
			<polygon id="XMLID_133_" class="st44" points="17,9 1.5,30.9 1.4,30.9 16.8,9 			"/>
			<polygon id="XMLID_132_" class="st44" points="17.1,9 1.6,31 1.5,30.9 17,9 			"/>
			<polygon id="XMLID_131_" class="st45" points="17.3,9 1.7,31.1 1.6,31 17.1,9 			"/>
			<polygon id="XMLID_130_" class="st46" points="17.4,9 1.8,31.1 1.7,31.1 17.3,9 			"/>
			<polygon id="XMLID_129_" class="st46" points="17.6,9 1.9,31.2 1.8,31.1 17.4,9 			"/>
			<polygon id="XMLID_128_" class="st46" points="17.7,9 2,31.3 1.9,31.2 17.6,9 			"/>
			<polygon id="XMLID_127_" class="st46" points="17.9,9 2.1,31.4 2,31.3 17.7,9 			"/>
			<polygon id="XMLID_126_" class="st46" points="18,9 2.2,31.4 2.1,31.4 17.9,9 			"/>
			<polygon id="XMLID_125_" class="st47" points="18.2,9 2.3,31.5 2.2,31.4 18,9 			"/>
			<polygon id="XMLID_124_" class="st47" points="18.4,9 2.4,31.6 2.3,31.5 18.2,9 			"/>
			<polygon id="XMLID_123_" class="st48" points="18.5,9 2.5,31.7 2.4,31.6 18.4,9 			"/>
			<polygon id="XMLID_122_" class="st48" points="18.7,9 2.6,31.7 2.5,31.7 18.5,9 			"/>
			<polygon id="XMLID_121_" class="st48" points="18.8,9 2.7,31.8 2.6,31.7 18.7,9 			"/>
			<polygon id="XMLID_120_" class="st49" points="19,9 2.8,31.9 2.7,31.8 18.8,9 			"/>
			<polygon id="XMLID_119_" class="st49" points="19.1,9 2.9,31.9 2.8,31.9 19,9 			"/>
			<polygon id="XMLID_118_" class="st49" points="19.3,9 3,32 2.9,31.9 19.1,9 			"/>
			<polygon id="XMLID_117_" class="st49" points="19.4,9 19.4,9 3.1,32.1 3,32 19.3,9 			"/>
			
				<rect id="XMLID_116_" x="11.3" y="6.4" transform="matrix(-0.8175 -0.576 0.576 -0.8175 8.7234 43.9073)" class="st49" width="0.1" height="28.3"/>
			
				<rect id="XMLID_115_" x="11.4" y="6.5" transform="matrix(-0.8175 -0.576 0.576 -0.8175 8.8674 44.0967)" class="st50" width="0.1" height="28.3"/>
			
				<rect id="XMLID_114_" x="11.5" y="6.6" transform="matrix(-0.8175 -0.576 0.576 -0.8175 9.0115 44.2862)" class="st50" width="0.1" height="28.3"/>
			
				<rect id="XMLID_113_" x="11.6" y="6.7" transform="matrix(-0.8175 -0.576 0.576 -0.8175 9.1555 44.4757)" class="st50" width="0.1" height="28.3"/>
			
				<rect id="XMLID_112_" x="11.7" y="6.7" transform="matrix(-0.8175 -0.576 0.576 -0.8175 9.2996 44.6651)" class="st50" width="0.1" height="28.3"/>
			
				<rect id="XMLID_111_" x="11.8" y="6.8" transform="matrix(-0.8175 -0.576 0.576 -0.8175 9.4436 44.8546)" class="st50" width="0.1" height="28.3"/>
			
				<rect id="XMLID_110_" x="11.9" y="6.9" transform="matrix(-0.8175 -0.576 0.576 -0.8175 9.5876 45.044)" class="st50" width="0.1" height="28.3"/>
			
				<rect id="XMLID_109_" x="12" y="6.9" transform="matrix(-0.8175 -0.576 0.576 -0.8175 9.7317 45.2335)" class="st50" width="0.1" height="28.3"/>
			
				<rect id="XMLID_108_" x="12.1" y="7" transform="matrix(-0.8175 -0.576 0.576 -0.8175 9.8757 45.4229)" class="st50" width="0.1" height="28.3"/>
			
				<rect id="XMLID_107_" x="12.2" y="7.1" transform="matrix(-0.8175 -0.576 0.576 -0.8175 10.0198 45.6124)" class="st50" width="0.1" height="28.3"/>
			
				<rect id="XMLID_106_" x="12.3" y="7.2" transform="matrix(-0.8175 -0.576 0.576 -0.8175 10.1638 45.8018)" class="st50" width="0.1" height="28.3"/>
			
				<rect id="XMLID_105_" x="12.4" y="7.2" transform="matrix(-0.8175 -0.576 0.576 -0.8175 10.3078 45.9913)" class="st50" width="0.1" height="28.3"/>
			
				<rect id="XMLID_104_" x="12.5" y="7.3" transform="matrix(-0.8175 -0.576 0.576 -0.8175 10.4519 46.1807)" class="st50" width="0.1" height="28.3"/>
			
				<rect id="XMLID_103_" x="12.6" y="7.4" transform="matrix(-0.8175 -0.576 0.576 -0.8175 10.5959 46.3702)" class="st50" width="0.1" height="28.3"/>
			
				<rect id="XMLID_102_" x="12.7" y="7.5" transform="matrix(-0.8175 -0.576 0.576 -0.8175 10.74 46.5596)" class="st50" width="0.1" height="28.3"/>
			
				<rect id="XMLID_101_" x="12.8" y="7.5" transform="matrix(-0.8175 -0.576 0.576 -0.8175 10.884 46.7491)" class="st50" width="0.1" height="28.3"/>
			
				<rect id="XMLID_100_" x="12.9" y="7.6" transform="matrix(-0.8175 -0.576 0.576 -0.8175 11.0281 46.9385)" class="st50" width="0.1" height="28.3"/>
			
				<rect id="XMLID_99_" x="13" y="7.7" transform="matrix(-0.8175 -0.576 0.576 -0.8175 11.1721 47.128)" class="st50" width="0.1" height="28.3"/>
			
				<rect id="XMLID_98_" x="13.1" y="7.7" transform="matrix(-0.8175 -0.576 0.576 -0.8175 11.3161 47.3174)" class="st50" width="0.1" height="28.3"/>
			
				<rect id="XMLID_97_" x="13.2" y="7.8" transform="matrix(-0.8175 -0.576 0.576 -0.8175 11.4602 47.5069)" class="st50" width="0.1" height="28.3"/>
			
				<rect id="XMLID_96_" x="13.3" y="7.9" transform="matrix(-0.8175 -0.576 0.576 -0.8175 11.6042 47.6963)" class="st50" width="0.1" height="28.3"/>
			
				<rect id="XMLID_95_" x="13.4" y="8" transform="matrix(-0.8175 -0.576 0.576 -0.8175 11.7483 47.8858)" class="st50" width="0.1" height="28.3"/>
			
				<rect id="XMLID_94_" x="13.5" y="8" transform="matrix(-0.8175 -0.576 0.576 -0.8175 11.8923 48.0752)" class="st50" width="0.1" height="28.3"/>
			
				<rect id="XMLID_93_" x="13.6" y="8.1" transform="matrix(-0.8175 -0.576 0.576 -0.8175 12.0841 48.3275)" class="st50" width="0.2" height="28.3"/>
			
				<rect id="XMLID_92_" x="13.8" y="8.2" transform="matrix(-0.8175 -0.576 0.576 -0.8175 12.3237 48.6427)" class="st51" width="0.2" height="28.3"/>
			
				<rect id="XMLID_91_" x="13.9" y="8.4" transform="matrix(-0.8175 -0.576 0.576 -0.8175 12.5633 48.9578)" class="st52" width="0.2" height="28.3"/>
			
				<rect id="XMLID_90_" x="14.1" y="8.5" transform="matrix(-0.8175 -0.576 0.576 -0.8175 12.8029 49.273)" class="st53" width="0.2" height="28.3"/>
			
				<rect id="XMLID_89_" x="14.3" y="8.6" transform="matrix(-0.8175 -0.576 0.576 -0.8175 13.0425 49.5881)" class="st54" width="0.2" height="28.3"/>
			
				<rect id="XMLID_88_" x="14.4" y="8.7" transform="matrix(-0.8175 -0.576 0.576 -0.8175 13.2821 49.9033)" class="st55" width="0.2" height="28.3"/>
			
				<rect id="XMLID_87_" x="14.6" y="8.8" transform="matrix(-0.8175 -0.576 0.576 -0.8175 13.5217 50.2184)" class="st56" width="0.2" height="28.3"/>
			
				<rect id="XMLID_86_" x="14.8" y="9" transform="matrix(-0.8175 -0.576 0.576 -0.8175 13.7613 50.5335)" class="st57" width="0.2" height="28.3"/>
			
				<rect id="XMLID_85_" x="15" y="9.1" transform="matrix(-0.8175 -0.576 0.576 -0.8175 14.001 50.8487)" class="st58" width="0.2" height="28.3"/>
			
				<rect id="XMLID_84_" x="15.1" y="9.2" transform="matrix(-0.8175 -0.576 0.576 -0.8175 14.2406 51.1638)" class="st59" width="0.2" height="28.3"/>
			
				<rect id="XMLID_83_" x="15.3" y="9.3" transform="matrix(-0.8175 -0.576 0.576 -0.8175 14.4802 51.479)" class="st60" width="0.2" height="28.3"/>
			
				<rect id="XMLID_82_" x="15.5" y="9.4" transform="matrix(-0.8175 -0.576 0.576 -0.8175 14.7198 51.7941)" class="st61" width="0.2" height="28.3"/>
			
				<rect id="XMLID_81_" x="15.6" y="9.6" transform="matrix(-0.8175 -0.576 0.576 -0.8175 14.9594 52.1092)" class="st62" width="0.2" height="28.3"/>
			
				<rect id="XMLID_80_" x="15.8" y="9.7" transform="matrix(-0.8175 -0.576 0.576 -0.8175 15.199 52.4244)" class="st63" width="0.2" height="28.3"/>
			
				<rect id="XMLID_79_" x="16" y="9.8" transform="matrix(-0.8175 -0.576 0.576 -0.8175 15.4386 52.7395)" class="st64" width="0.2" height="28.3"/>
			
				<rect id="XMLID_78_" x="16.1" y="9.9" transform="matrix(-0.8175 -0.576 0.576 -0.8175 15.6782 53.0547)" class="st65" width="0.2" height="28.3"/>
			
				<rect id="XMLID_77_" x="16.3" y="10" transform="matrix(-0.8175 -0.576 0.576 -0.8175 15.9178 53.3698)" class="st66" width="0.2" height="28.3"/>
			
				<rect id="XMLID_76_" x="16.5" y="10.2" transform="matrix(-0.8175 -0.576 0.576 -0.8175 16.1574 53.6849)" class="st67" width="0.2" height="28.3"/>
			
				<rect id="XMLID_75_" x="16.7" y="10.3" transform="matrix(-0.8175 -0.576 0.576 -0.8175 16.397 54.0001)" class="st68" width="0.2" height="28.3"/>
			
				<rect id="XMLID_74_" x="16.8" y="10.4" transform="matrix(-0.8175 -0.576 0.576 -0.8175 16.6366 54.3152)" class="st69" width="0.2" height="28.3"/>
			
				<rect id="XMLID_73_" x="17" y="10.5" transform="matrix(-0.8175 -0.576 0.576 -0.8175 16.8762 54.6304)" class="st70" width="0.2" height="28.3"/>
			
				<rect id="XMLID_72_" x="17.2" y="10.6" transform="matrix(-0.8175 -0.576 0.576 -0.8175 17.1158 54.9455)" class="st71" width="0.2" height="28.3"/>
			
				<rect id="XMLID_71_" x="17.3" y="10.8" transform="matrix(-0.8175 -0.576 0.576 -0.8175 17.3554 55.2606)" class="st72" width="0.2" height="28.3"/>
			
				<rect id="XMLID_70_" x="17.5" y="10.9" transform="matrix(-0.8175 -0.576 0.576 -0.8175 17.595 55.5758)" class="st73" width="0.2" height="28.3"/>
			<polygon id="XMLID_69_" class="st74" points="25.8,13.5 26,13.6 9.8,36.7 9.6,36.7 9.6,36.6 			"/>
			<polygon id="XMLID_68_" class="st75" points="26,13.6 26.2,13.8 10,36.7 9.8,36.7 			"/>
			<polygon id="XMLID_67_" class="st76" points="26.2,13.8 26.3,13.9 10.3,36.7 10,36.7 			"/>
			<polygon id="XMLID_66_" class="st77" points="26.3,13.9 26.5,14 10.5,36.7 10.3,36.7 			"/>
			<polygon id="XMLID_65_" class="st78" points="26.5,14 26.7,14.1 10.8,36.7 10.5,36.7 			"/>
			<polygon id="XMLID_64_" class="st79" points="26.7,14.1 26.8,14.2 11,36.7 10.8,36.7 			"/>
			<polygon id="XMLID_63_" class="st80" points="26.8,14.2 27,14.3 11.3,36.7 11,36.7 			"/>
			<polygon id="XMLID_62_" class="st81" points="27,14.3 27.2,14.5 11.5,36.7 11.3,36.7 			"/>
			<polygon id="XMLID_61_" class="st82" points="27.2,14.5 27.4,14.6 11.8,36.7 11.5,36.7 			"/>
			<polygon id="XMLID_60_" class="st83" points="27.4,14.6 27.5,14.7 12,36.7 11.8,36.7 			"/>
			<polygon id="XMLID_59_" class="st84" points="27.5,14.7 27.7,14.8 12.3,36.7 12,36.7 			"/>
			<polygon id="XMLID_58_" class="st85" points="27.7,14.8 27.9,14.9 12.6,36.7 12.3,36.7 			"/>
			<polygon id="XMLID_57_" class="st86" points="27.9,14.9 28,15.1 12.8,36.7 12.6,36.7 			"/>
			<polygon id="XMLID_56_" class="st87" points="28,15.1 28.2,15.2 13.1,36.7 12.8,36.7 			"/>
			<polygon id="XMLID_55_" class="st88" points="28.2,15.2 28.4,15.3 28.4,15.3 13.3,36.7 13.1,36.7 			"/>
			<polygon id="XMLID_54_" class="st89" points="28.4,15.7 13.6,36.7 13.3,36.7 28.4,15.3 			"/>
			<polygon id="XMLID_53_" class="st90" points="28.4,16 13.8,36.7 13.6,36.7 28.4,15.7 			"/>
			<polygon id="XMLID_52_" class="st91" points="28.4,16.4 14.1,36.7 13.8,36.7 28.4,16 			"/>
			<polygon id="XMLID_51_" class="st92" points="28.4,16.8 14.3,36.7 14.1,36.7 28.4,16.4 			"/>
			<polygon id="XMLID_50_" class="st93" points="28.4,17.1 14.6,36.7 14.3,36.7 28.4,16.8 			"/>
			<polygon id="XMLID_49_" class="st94" points="28.4,17.5 14.8,36.7 14.6,36.7 28.4,17.1 			"/>
			<polygon id="XMLID_48_" class="st95" points="28.4,17.8 15.1,36.7 14.8,36.7 28.4,17.5 			"/>
			<polygon id="XMLID_47_" class="st96" points="28.4,18.2 15.4,36.7 15.1,36.7 28.4,17.8 			"/>
			<polygon id="XMLID_46_" class="st97" points="28.4,18.6 15.6,36.7 15.4,36.7 28.4,18.2 			"/>
			<polygon id="XMLID_45_" class="st98" points="28.4,18.9 15.9,36.7 15.6,36.7 28.4,18.6 			"/>
			<polygon id="XMLID_44_" class="st98" points="28.4,19.3 16.1,36.7 15.9,36.7 28.4,18.9 			"/>
			<polygon id="XMLID_43_" class="st99" points="28.4,19.6 16.4,36.7 16.1,36.7 28.4,19.3 			"/>
			<polygon id="XMLID_42_" class="st100" points="28.4,20 16.6,36.7 16.4,36.7 28.4,19.6 			"/>
			<polygon id="XMLID_41_" class="st101" points="28.4,20.4 16.9,36.7 16.6,36.7 28.4,20 			"/>
			<polygon id="XMLID_40_" class="st102" points="28.4,20.7 17.1,36.7 16.9,36.7 28.4,20.4 			"/>
			<polygon id="XMLID_39_" class="st102" points="28.4,21.1 17.4,36.7 17.1,36.7 28.4,20.7 			"/>
			<polygon id="XMLID_38_" class="st103" points="28.4,21.5 17.6,36.7 17.4,36.7 28.4,21.1 			"/>
			<polygon id="XMLID_37_" class="st104" points="28.4,21.8 17.9,36.7 17.6,36.7 28.4,21.5 			"/>
			<polygon id="XMLID_36_" class="st105" points="28.4,22.2 18.1,36.7 17.9,36.7 28.4,21.8 			"/>
			<polygon id="XMLID_35_" class="st105" points="28.4,22.5 18.4,36.7 18.1,36.7 28.4,22.2 			"/>
			<polygon id="XMLID_34_" class="st106" points="28.4,22.9 18.7,36.7 18.4,36.7 28.4,22.5 			"/>
			<polygon id="XMLID_33_" class="st107" points="28.4,23.3 18.9,36.7 18.7,36.7 28.4,22.9 			"/>
			<polygon id="XMLID_32_" class="st107" points="28.4,23.6 19.2,36.7 18.9,36.7 28.4,23.3 			"/>
			<polygon id="XMLID_31_" class="st108" points="28.4,24 19.4,36.7 19.2,36.7 28.4,23.6 			"/>
			<polygon id="XMLID_30_" class="st108" points="28.4,24.3 19.7,36.7 19.4,36.7 28.4,24 			"/>
			<polygon id="XMLID_29_" class="st108" points="19.7,36.7 28.4,24.3 28.4,36.7 			"/>
		</g>
	</g>
	<g id="XMLID_17_" class="st109">
		<g id="XMLID_18_">
			<defs>
				<path id="XMLID_19_" d="M13.3,20.7c3.1-3.3,7.4-4.9,11.6-4.6c-0.5-0.8-1.1-1.5-1.8-2.2c-4.9-4.6-12.6-4.4-17.2,0.5
					C1.2,19.3,1.4,27,6.3,31.6c1,0.9,2.1,1.7,3.3,2.2C8.6,29.3,9.8,24.3,13.3,20.7z"/>
			</defs>
			<clipPath id="XMLID_26_">
				<use xlink:href="#XMLID_19_"  style="overflow:visible;"/>
			</clipPath>
			<polygon id="XMLID_25_" class="st110" points="4.3,9.3 1.2,31.1 1.2,9.3 			"/>
			<polygon id="XMLID_21_" class="st110" points="24.9,16.1 22.4,33.9 1.2,33.9 1.2,31.1 4.3,9.3 24.9,9.3 			"/>
			<polygon id="XMLID_20_" class="st110" points="22.4,33.9 24.9,16.1 24.9,33.9 			"/>
		</g>
	</g>
	<g id="XMLID_9_">
		<path id="XMLID_14_" class="st0" d="M18.7,38.6h-8.5c-1.6,0-2.9-1.3-2.9-2.9c0-1.6,1.3-2.9,2.9-2.9h8.5c1.6,0,2.9,1.3,2.9,2.9
			C21.6,37.3,20.3,38.6,18.7,38.6z M10.2,34.8c-0.5,0-1,0.4-1,1s0.4,1,1,1h8.5c0.5,0,1-0.4,1-1s-0.4-1-1-1H10.2z"/>
	</g>
	<g id="XMLID_8_">
		<path id="XMLID_10_" class="st0" d="M19.4,35l-0.4-0.2c-0.1-0.1-0.2-0.1-0.4-0.1h-8.5c-0.1,0-0.2,0-0.3,0.1L9.5,35l-0.4-0.2
			c-4.7-2.1-7.8-6.8-7.8-12c0-7.3,5.9-13.2,13.2-13.2s13.2,5.9,13.2,13.2c0,5.2-3.1,9.9-7.8,12L19.4,35z M10.2,32.8h8.5
			c0.2,0,0.5,0,0.7,0.1c3.9-1.9,6.4-5.8,6.4-10.1c0-6.2-5-11.2-11.2-11.2s-11.2,5-11.2,11.2c0,4.3,2.5,8.2,6.3,10.1
			C9.8,32.9,10,32.8,10.2,32.8z"/>
	</g>
	<g id="XMLID_3_" class="st111">
		
			<ellipse id="XMLID_5_" transform="matrix(0.8021 0.5972 -0.5972 0.8021 12.3198 -1.3826)" class="st112" cx="8.2" cy="17.9" rx="1.6" ry="4.1"/>
	</g>
</g>
</svg>
