<?xml version="1.0" encoding="utf-8"?>
<!-- Generator: Adobe Illustrator 19.0.0, SVG Export Plug-In . SVG Version: 6.00 Build 0)  -->
<svg version="1.1" id="图层_1" xmlns="http://www.w3.org/2000/svg" xmlns:xlink="http://www.w3.org/1999/xlink" x="0px" y="0px"
	 viewBox="0 0 28.8 45.9" style="enable-background:new 0 0 28.8 45.9;" xml:space="preserve">
<style type="text/css">
	.st0{fill:#FFFFFF;}
	.st1{opacity:0.35;}
	.st2{clip-path:url(#XMLID_3_);fill:#FFFFFF;}
	.st3{opacity:6.000000e-02;}
	.st4{clip-path:url(#XMLID_4_);fill:#FFFFFF;}
	.st5{opacity:0.9;}
</style>
<g>
	<g>
		<g id="XMLID_195_">
			<path id="XMLID_216_" class="st0" d="M14.4,7L14.4,7c-0.7,0-1.2-0.5-1.2-1.2V2c0-0.7,0.5-1.2,1.2-1.2h0c0.7,0,1.2,0.5,1.2,1.2
				v3.9C15.6,6.5,15.1,7,14.4,7z"/>
		</g>
		<g id="XMLID_193_">
			<path id="XMLID_215_" class="st0" d="M23.4,8.8L23.4,8.8c-0.5-0.5-0.5-1.2,0-1.7l2.4-2.4c0.5-0.5,1.2-0.5,1.7,0l0,0
				c0.5,0.5,0.5,1.2,0,1.7l-2.4,2.4C24.7,9.3,23.9,9.3,23.4,8.8z"/>
		</g>
		<g id="XMLID_191_">
			<path id="XMLID_214_" class="st0" d="M5.4,8.8L5.4,8.8C5,9.3,4.2,9.3,3.7,8.8L1.3,6.4c-0.5-0.5-0.5-1.2,0-1.7l0,0
				c0.5-0.5,1.2-0.5,1.7,0l2.4,2.4C5.9,7.6,5.9,8.4,5.4,8.8z"/>
		</g>
	</g>
	<g id="XMLID_188_">
		<path id="XMLID_213_" class="st0" d="M14.4,45.2c-2,0-3.7-1.6-3.7-3.7h1.9c0,1,0.8,1.7,1.7,1.7c1,0,1.7-0.8,1.7-1.7h1.9
			C18.1,43.5,16.4,45.2,14.4,45.2z"/>
	</g>
	<g id="XMLID_184_">
		<path class="st0" d="M18.7,42.5h-8.5c-1.6,0-2.9-1.3-2.9-2.9c0-1.6,1.3-2.9,2.9-2.9h8.5c1.6,0,2.9,1.3,2.9,2.9
			C21.6,41.2,20.3,42.5,18.7,42.5z M10.2,38.6c-0.5,0-1,0.4-1,1c0,0.5,0.4,1,1,1h8.5c0.5,0,1-0.4,1-1c0-0.5-0.4-1-1-1H10.2z"/>
	</g>
	<g id="XMLID_26_" class="st1">
		<g>
			<defs>
				<circle id="XMLID_206_" cx="14.5" cy="22.8" r="12.2"/>
			</defs>
			<clipPath id="XMLID_3_">
				<use xlink:href="#XMLID_206_"  style="overflow:visible;"/>
			</clipPath>
			<polygon id="XMLID_210_" class="st2" points="9.3,9 0.7,21.3 0.7,9 			"/>
			<polygon id="XMLID_209_" class="st2" points="19.4,9 21.8,10.7 5.5,33.8 0.7,30.3 0.7,21.3 9.3,9 			"/>
			<polygon id="XMLID_208_" class="st2" points="21.8,10.7 28.4,15.3 28.4,24.3 19.7,36.7 9.6,36.7 5.5,33.8 			"/>
			<polygon id="XMLID_207_" class="st2" points="19.7,36.7 28.4,24.3 28.4,36.7 			"/>
		</g>
	</g>
	<g class="st3">
		<g>
			<defs>
				<path id="XMLID_202_" d="M13.3,20.7c3.1-3.3,7.4-4.9,11.6-4.6c-0.5-0.8-1.1-1.5-1.8-2.2c-4.9-4.6-12.6-4.4-17.2,0.5
					C1.2,19.3,1.4,27,6.3,31.6c1,0.9,2.1,1.7,3.3,2.2C8.6,29.3,9.8,24.3,13.3,20.7z"/>
			</defs>
			<clipPath id="XMLID_4_">
				<use xlink:href="#XMLID_202_"  style="overflow:visible;"/>
			</clipPath>
			<polygon id="XMLID_205_" class="st4" points="4.3,9.3 1.2,31.1 1.2,9.3 			"/>
			<polygon id="XMLID_204_" class="st4" points="24.9,16.1 22.4,33.9 1.2,33.9 1.2,31.1 4.3,9.3 24.9,9.3 			"/>
			<polygon id="XMLID_203_" class="st4" points="22.4,33.9 24.9,16.1 24.9,33.9 			"/>
		</g>
	</g>
	<g id="XMLID_13_">
		<path class="st0" d="M18.7,38.6h-8.5c-1.6,0-2.9-1.3-2.9-2.9c0-1.6,1.3-2.9,2.9-2.9h8.5c1.6,0,2.9,1.3,2.9,2.9
			C21.6,37.3,20.3,38.6,18.7,38.6z M10.2,34.8c-0.5,0-1,0.4-1,1s0.4,1,1,1h8.5c0.5,0,1-0.4,1-1s-0.4-1-1-1H10.2z"/>
	</g>
	<g>
		<path class="st0" d="M19.4,35l-0.4-0.2c-0.1-0.1-0.2-0.1-0.4-0.1h-8.5c-0.1,0-0.2,0-0.3,0.1L9.5,35l-0.4-0.2
			c-4.7-2.1-7.8-6.8-7.8-12c0-7.3,5.9-13.2,13.2-13.2s13.2,5.9,13.2,13.2c0,5.2-3.1,9.9-7.8,12L19.4,35z M10.2,32.8h8.5
			c0.2,0,0.5,0,0.7,0.1c3.9-1.9,6.4-5.8,6.4-10.1c0-6.2-5-11.2-11.2-11.2s-11.2,5-11.2,11.2c0,4.3,2.5,8.2,6.3,10.1
			C9.8,32.9,10,32.8,10.2,32.8z"/>
	</g>
	<g id="XMLID_2_" class="st5">
		
			<ellipse id="XMLID_197_" transform="matrix(0.8021 0.5972 -0.5972 0.8021 12.3198 -1.3826)" class="st0" cx="8.2" cy="17.9" rx="1.6" ry="4.1"/>
	</g>
</g>
</svg>
