<?xml version="1.0" encoding="utf-8"?>
<!-- Generator: Adobe Illustrator 19.0.0, SVG Export Plug-In . SVG Version: 6.00 Build 0)  -->
<svg version="1.1" id="图层_1" xmlns="http://www.w3.org/2000/svg" xmlns:xlink="http://www.w3.org/1999/xlink" x="0px" y="0px"
	 viewBox="0 0 42 42" style="enable-background:new 0 0 42 42;" xml:space="preserve">
<style type="text/css">
	.st0{opacity:0.5;fill:#0084FF;}
	.st1{fill:#FFFFFF;}
</style>
<path id="XMLID_5_" class="st0" d="M4,0l34,0c2.2,0,4,1.8,4,4v34c0,2.2-1.8,4-4,4H4c-2.2,0-4-1.8-4-4L0,4C0,1.8,1.8,0,4,0z"/>
<g id="XMLID_2_">
	<path id="XMLID_4_" class="st1" d="M15.2,29.8l9.7-9.7c0.5-0.5,1.4-0.5,1.9,0h0c0.5,0.5,0.5,1.4,0,1.9l-9.7,9.7
		c-0.5,0.5-1.4,0.5-1.9,0l0,0C14.7,31.1,14.7,30.3,15.2,29.8z"/>
	<path id="XMLID_3_" class="st1" d="M17.1,10.4l9.7,9.7c0.5,0.5,0.5,1.4,0,1.9l0,0c-0.5,0.5-1.4,0.5-1.9,0l-9.7-9.7
		c-0.5-0.5-0.5-1.4,0-1.9l0,0C15.7,9.8,16.6,9.8,17.1,10.4z"/>
</g>
</svg>
