<?xml version="1.0" encoding="utf-8"?>
<!-- Generator: Adobe Illustrator 19.0.0, SVG Export Plug-In . SVG Version: 6.00 Build 0)  -->
<svg version="1.1" id="图层_1" xmlns="http://www.w3.org/2000/svg" xmlns:xlink="http://www.w3.org/1999/xlink" x="0px" y="0px"
	 viewBox="0 0 42 42" style="enable-background:new 0 0 42 42;" xml:space="preserve">
<style type="text/css">
	.st0{opacity:0.5;fill:#0084FF;}
	.st1{fill:#FFFFFF;}
</style>
<path id="XMLID_5_" class="st0" d="M38,42H4c-2.2,0-4-1.8-4-4V4c0-2.2,1.8-4,4-4h34c2.2,0,4,1.8,4,4v34C42,40.2,40.2,42,38,42z"/>
<g id="XMLID_2_">
	<path id="XMLID_4_" class="st1" d="M26.8,12.2l-9.7,9.7c-0.5,0.5-1.4,0.5-1.9,0l0,0c-0.5-0.5-0.5-1.4,0-1.9l9.7-9.7
		c0.5-0.5,1.4-0.5,1.9,0l0,0C27.3,10.9,27.3,11.7,26.8,12.2z"/>
	<path id="XMLID_3_" class="st1" d="M24.9,31.6l-9.7-9.7c-0.5-0.5-0.5-1.4,0-1.9l0,0c0.5-0.5,1.4-0.5,1.9,0l9.7,9.7
		c0.5,0.5,0.5,1.4,0,1.9l0,0C26.3,32.2,25.4,32.2,24.9,31.6z"/>
</g>
</svg>
