
<svg xmlns="http://www.w3.org/2000/svg" version="1.1" xmlns:xlink="http://www.w3.org/1999/xlink" preserveAspectRatio="none" x="0px" y="0px" width="1024px" height="768px" viewBox="0 0 1024 768">
<defs>
<linearGradient id="Gradient_1" gradientUnits="userSpaceOnUse" x1="-456.725" y1="-269" x2="-392.475" y2="-269" spreadMethod="pad">
<stop  offset="0%" stop-color="#180030"/>

<stop  offset="50.98039215686274%" stop-color="#392351"/>

<stop  offset="100%" stop-color="#180030"/>
</linearGradient>

<linearGradient id="Gradient_2" gradientUnits="userSpaceOnUse" x1="-839.225" y1="-331.6" x2="-774.975" y2="-331.6" spreadMethod="pad">
<stop  offset="0%" stop-color="#180030"/>

<stop  offset="50.98039215686274%" stop-color="#392351"/>

<stop  offset="100%" stop-color="#180030"/>
</linearGradient>

<linearGradient id="Gradient_3" gradientUnits="userSpaceOnUse" x1="326.16249999999997" y1="172.1875" x2="381.6375" y2="116.71249999999999" spreadMethod="pad">
<stop  offset="0%" stop-color="#180030"/>

<stop  offset="50.98039215686274%" stop-color="#392351"/>

<stop  offset="100%" stop-color="#180030"/>
</linearGradient>

<filter id="Filter_1" x="-68.16778833522412%" y="-68.26283374100063%" width="236.33557667044823%" height="236.52566748200127%" color-interpolation-filters="sRGB">
<feFlood flood-color="#660066" flood-opacity="0.4980392156862745" in="SourceGraphic" result="result1"/>

<feGaussianBlur in="SourceGraphic" stdDeviation="5,5" result="result2"/>

<feComposite in2="result2" in="result1" operator="in" result="result3"/>

<feComposite in2="result3" in="SourceGraphic" operator="over" result="result4"/>
</filter>

<filter id="Filter_2" x="-46.646304470187445%" y="-46.68400642951892%" width="193.2926089403749%" height="193.36801285903783%" color-interpolation-filters="sRGB">
<feFlood flood-color="#000066" flood-opacity="0.6" in="SourceGraphic" result="result1"/>

<feGaussianBlur in="SourceGraphic" stdDeviation="5,5" result="result2"/>

<feComposite in2="result2" in="result1" operator="in" result="result3"/>

<feComposite in2="result3" in="SourceGraphic" operator="over" result="result4"/>
</filter>

<filter id="Filter_3" x="-73.0389539299567%" y="-73.1942222893901%" width="246.0779078599134%" height="246.3884445787802%" color-interpolation-filters="sRGB">
<feFlood flood-color="#336633" flood-opacity="0.6980392156862745" in="SourceGraphic" result="result1"/>

<feGaussianBlur in="SourceGraphic" stdDeviation="3.3333333333333335,3.3333333333333335" result="result2"/>

<feComposite in2="result2" in="result1" operator="in" result="result3"/>

<feComposite in2="result3" in="SourceGraphic" operator="over" result="result4"/>
</filter>

<filter id="Filter_4" x="-90.89240431889868%" y="-90.89240431889868%" width="281.78480863779737%" height="281.78480863779737%" color-interpolation-filters="sRGB">
<feFlood flood-color="#996699" flood-opacity="0.4" in="SourceGraphic" result="result1"/>

<feGaussianBlur in="SourceGraphic" stdDeviation="2.3333333333333335,2.3333333333333335" result="result2"/>

<feComposite in2="result2" in="result1" operator="in" result="result3"/>

<feComposite in2="result3" in="SourceGraphic" operator="over" result="result4"/>
</filter>

<g id="Layer0_0_MEMBER_0_FILL">
<path fill="#12022E" stroke="none" d="
M -565.1 192.1
Q -591.95 165.25 -629.9 165.25 -667.85 165.25 -694.7 192.1 -721.55 218.95 -721.55 256.9 -721.55 294.85 -694.7 321.7 -667.85 348.55 -629.9 348.55 -591.95 348.55 -565.1 321.7 -538.25 294.85 -538.25 256.9 -538.25 218.95 -565.1 192.1 Z"/>
</g>

<g id="Layer0_0_MEMBER_1_FILL">
<path fill="#130032" stroke="none" d="
M -565.1 192.1
Q -591.95 165.25 -629.9 165.25 -667.85 165.25 -694.7 192.1 -721.55 218.95 -721.55 256.9 -721.55 294.85 -694.7 321.7 -667.85 348.55 -629.9 348.55 -591.95 348.55 -565.1 321.7 -538.25 294.85 -538.25 256.9 -538.25 218.95 -565.1 192.1 Z"/>
</g>

<g id="____1_0_Layer0_0_FILL">
<path fill="#180034" stroke="none" d="
M 41.5 41.45
Q 48.65 34.35 48.65 24.3 48.65 14.2 41.5 7.1 34.4 0 24.35 0 14.25 0 7.15 7.1 0 14.2 0 24.3 0 34.35 7.15 41.45 14.25 48.6 24.35 48.6 34.4 48.6 41.5 41.45 Z"/>
</g>

<g id="____2_0_Layer0_0_FILL">
<path fill="#100033" stroke="none" d="
M 41.5 41.45
Q 48.65 34.35 48.65 24.3 48.65 14.2 41.5 7.1 34.4 0 24.35 0 14.25 0 7.15 7.1 0 14.2 0 24.3 0 34.35 7.15 41.45 14.25 48.6 24.35 48.6 34.4 48.6 41.5 41.45 Z"/>
</g>

<g id="____3_0_Layer0_0_FILL">
<path fill="#13132D" stroke="none" d="
M 17.35 2.95
Q 14.35 0 10.2 0 5.95 0 3 2.95 0 5.95 0 10.15 0 14.35 3 17.3 5.95 20.3 10.2 20.3 14.35 20.3 17.35 17.3 20.35 14.35 20.35 10.15 20.35 5.95 17.35 2.95 Z"/>
</g>

<g id="____4_0_Layer0_0_FILL">
<path fill="#220A2C" stroke="none" d="
M 48.65 24.3
Q 48.65 14.2 41.5 7.1 34.4 0 24.35 0 14.25 0 7.15 7.1 0 14.2 0 24.3 0 34.35 7.15 41.45 14.25 48.6 24.35 48.6 34.4 48.6 41.5 41.45 48.65 34.35 48.65 24.3 Z"/>
</g>

<g id="Layer0_0_MEMBER_6_MEMBER_0_FILL">
<path fill="#331D4C" stroke="none" d="
M -62.05 -190.05
Q -61.2 -190.85 -61.2 -192 -61.2 -193.15 -62.05 -194 -62.85 -194.8 -64 -194.8 -65.15 -194.8 -66 -194 -66.8 -193.15 -66.8 -192 -66.8 -190.85 -66 -190.05 -65.15 -189.2 -64 -189.2 -62.85 -189.2 -62.05 -190.05 Z"/>
</g>

<g id="Layer0_0_MEMBER_6_MEMBER_1_FILL">
<path fill="#543C6C" stroke="none" d="
M -62.05 -190.05
Q -61.2 -190.85 -61.2 -192 -61.2 -193.15 -62.05 -194 -62.85 -194.8 -64 -194.8 -65.15 -194.8 -66 -194 -66.8 -193.15 -66.8 -192 -66.8 -190.85 -66 -190.05 -65.15 -189.2 -64 -189.2 -62.85 -189.2 -62.05 -190.05 Z"/>
</g>

<g id="Layer0_0_MEMBER_6_MEMBER_2_FILL">
<path fill="#331D4C" stroke="none" d="
M -62.05 -190.05
Q -61.2 -190.85 -61.2 -192 -61.2 -193.15 -62.05 -194 -62.85 -194.8 -64 -194.8 -65.15 -194.8 -66 -194 -66.8 -193.15 -66.8 -192 -66.8 -190.85 -66 -190.05 -65.15 -189.2 -64 -189.2 -62.85 -189.2 -62.05 -190.05 Z"/>
</g>

<g id="Layer0_0_MEMBER_6_MEMBER_3_FILL">
<path fill="#331D4C" stroke="none" d="
M -62.05 -190.05
Q -61.2 -190.85 -61.2 -192 -61.2 -193.15 -62.05 -194 -62.85 -194.8 -64 -194.8 -65.15 -194.8 -66 -194 -66.8 -193.15 -66.8 -192 -66.8 -190.85 -66 -190.05 -65.15 -189.2 -64 -189.2 -62.85 -189.2 -62.05 -190.05 Z"/>
</g>

<g id="Layer0_0_MEMBER_6_MEMBER_4_FILL">
<path fill="#543C6C" stroke="none" d="
M -62.05 -190.05
Q -61.2 -190.85 -61.2 -192 -61.2 -193.15 -62.05 -194 -62.85 -194.8 -64 -194.8 -65.15 -194.8 -66 -194 -66.8 -193.15 -66.8 -192 -66.8 -190.85 -66 -190.05 -65.15 -189.2 -64 -189.2 -62.85 -189.2 -62.05 -190.05 Z"/>
</g>

<g id="Layer0_0_MEMBER_6_MEMBER_5_FILL">
<path fill="#331D4C" stroke="none" d="
M -62.05 -190.05
Q -61.2 -190.85 -61.2 -192 -61.2 -193.15 -62.05 -194 -62.85 -194.8 -64 -194.8 -65.15 -194.8 -66 -194 -66.8 -193.15 -66.8 -192 -66.8 -190.85 -66 -190.05 -65.15 -189.2 -64 -189.2 -62.85 -189.2 -62.05 -190.05 Z"/>
</g>

<g id="Layer0_0_MEMBER_6_MEMBER_6_FILL">
<path fill="#331D4C" stroke="none" d="
M -62.05 -190.05
Q -61.2 -190.85 -61.2 -192 -61.2 -193.15 -62.05 -194 -62.85 -194.8 -64 -194.8 -65.15 -194.8 -66 -194 -66.8 -193.15 -66.8 -192 -66.8 -190.85 -66 -190.05 -65.15 -189.2 -64 -189.2 -62.85 -189.2 -62.05 -190.05 Z"/>
</g>

<g id="Layer0_0_MEMBER_6_MEMBER_7_FILL">
<path fill="#331D4C" stroke="none" d="
M -62.05 -190.05
Q -61.2 -190.85 -61.2 -192 -61.2 -193.15 -62.05 -194 -62.85 -194.8 -64 -194.8 -65.15 -194.8 -66 -194 -66.8 -193.15 -66.8 -192 -66.8 -190.85 -66 -190.05 -65.15 -189.2 -64 -189.2 -62.85 -189.2 -62.05 -190.05 Z"/>
</g>

<g id="Layer0_0_MEMBER_6_MEMBER_8_FILL">
<path fill="#331D4C" stroke="none" d="
M -62.05 -190.05
Q -61.2 -190.85 -61.2 -192 -61.2 -193.15 -62.05 -194 -62.85 -194.8 -64 -194.8 -65.15 -194.8 -66 -194 -66.8 -193.15 -66.8 -192 -66.8 -190.85 -66 -190.05 -65.15 -189.2 -64 -189.2 -62.85 -189.2 -62.05 -190.05 Z"/>
</g>

<g id="Layer0_0_MEMBER_6_MEMBER_9_FILL">
<path fill="#543C6C" stroke="none" d="
M -62.05 -190.05
Q -61.2 -190.85 -61.2 -192 -61.2 -193.15 -62.05 -194 -62.85 -194.8 -64 -194.8 -65.15 -194.8 -66 -194 -66.8 -193.15 -66.8 -192 -66.8 -190.85 -66 -190.05 -65.15 -189.2 -64 -189.2 -62.85 -189.2 -62.05 -190.05 Z"/>
</g>

<g id="Layer0_0_MEMBER_6_MEMBER_10_FILL">
<path fill="#331D4C" stroke="none" d="
M -62.05 -190.05
Q -61.2 -190.85 -61.2 -192 -61.2 -193.15 -62.05 -194 -62.85 -194.8 -64 -194.8 -65.15 -194.8 -66 -194 -66.8 -193.15 -66.8 -192 -66.8 -190.85 -66 -190.05 -65.15 -189.2 -64 -189.2 -62.85 -189.2 -62.05 -190.05 Z"/>
</g>

<g id="Layer0_0_MEMBER_6_MEMBER_11_FILL">
<path fill="url(#Gradient_1)" stroke="none" d="
M -456.7 -269.5
L -456.7 -268.5 -392.45 -268.5 -392.45 -269.5 -456.7 -269.5 Z"/>
</g>

<g id="Layer0_0_MEMBER_6_MEMBER_12_FILL">
<path fill="#331D4C" stroke="none" d="
M -62.05 -190.05
Q -61.2 -190.85 -61.2 -192 -61.2 -193.15 -62.05 -194 -62.85 -194.8 -64 -194.8 -65.15 -194.8 -66 -194 -66.8 -193.15 -66.8 -192 -66.8 -190.85 -66 -190.05 -65.15 -189.2 -64 -189.2 -62.85 -189.2 -62.05 -190.05 Z"/>
</g>

<g id="Layer0_0_MEMBER_6_MEMBER_13_FILL">
<path fill="#543C6C" stroke="none" d="
M -62.05 -190.05
Q -61.2 -190.85 -61.2 -192 -61.2 -193.15 -62.05 -194 -62.85 -194.8 -64 -194.8 -65.15 -194.8 -66 -194 -66.8 -193.15 -66.8 -192 -66.8 -190.85 -66 -190.05 -65.15 -189.2 -64 -189.2 -62.85 -189.2 -62.05 -190.05 Z"/>
</g>

<g id="Layer0_0_MEMBER_6_MEMBER_14_FILL">
<path fill="#331D4C" stroke="none" d="
M -62.05 -190.05
Q -61.2 -190.85 -61.2 -192 -61.2 -193.15 -62.05 -194 -62.85 -194.8 -64 -194.8 -65.15 -194.8 -66 -194 -66.8 -193.15 -66.8 -192 -66.8 -190.85 -66 -190.05 -65.15 -189.2 -64 -189.2 -62.85 -189.2 -62.05 -190.05 Z"/>
</g>

<g id="Layer0_0_MEMBER_6_MEMBER_15_FILL">
<path fill="#543C6C" stroke="none" d="
M -62.05 -190.05
Q -61.2 -190.85 -61.2 -192 -61.2 -193.15 -62.05 -194 -62.85 -194.8 -64 -194.8 -65.15 -194.8 -66 -194 -66.8 -193.15 -66.8 -192 -66.8 -190.85 -66 -190.05 -65.15 -189.2 -64 -189.2 -62.85 -189.2 -62.05 -190.05 Z"/>
</g>

<g id="Layer0_0_MEMBER_6_MEMBER_16_FILL">
<path fill="#331D4C" stroke="none" d="
M -62.05 -190.05
Q -61.2 -190.85 -61.2 -192 -61.2 -193.15 -62.05 -194 -62.85 -194.8 -64 -194.8 -65.15 -194.8 -66 -194 -66.8 -193.15 -66.8 -192 -66.8 -190.85 -66 -190.05 -65.15 -189.2 -64 -189.2 -62.85 -189.2 -62.05 -190.05 Z"/>
</g>

<g id="Layer0_0_MEMBER_6_MEMBER_17_FILL">
<path fill="#331D4C" stroke="none" d="
M -62.05 -190.05
Q -61.2 -190.85 -61.2 -192 -61.2 -193.15 -62.05 -194 -62.85 -194.8 -64 -194.8 -65.15 -194.8 -66 -194 -66.8 -193.15 -66.8 -192 -66.8 -190.85 -66 -190.05 -65.15 -189.2 -64 -189.2 -62.85 -189.2 -62.05 -190.05 Z"/>
</g>

<g id="Layer0_0_MEMBER_6_MEMBER_18_FILL">
<path fill="#331D4C" stroke="none" d="
M -62.05 -190.05
Q -61.2 -190.85 -61.2 -192 -61.2 -193.15 -62.05 -194 -62.85 -194.8 -64 -194.8 -65.15 -194.8 -66 -194 -66.8 -193.15 -66.8 -192 -66.8 -190.85 -66 -190.05 -65.15 -189.2 -64 -189.2 -62.85 -189.2 -62.05 -190.05 Z"/>
</g>

<g id="Layer0_0_MEMBER_6_MEMBER_19_FILL">
<path fill="url(#Gradient_2)" stroke="none" d="
M -774.95 -331.1
L -774.95 -332.1 -839.2 -332.1 -839.2 -331.1 -774.95 -331.1 Z"/>
</g>

<g id="Layer0_0_MEMBER_6_MEMBER_20_FILL">
<path fill="url(#Gradient_3)" stroke="none" d="
M 382 117.05
L 381.3 116.35 325.85 171.8 326.55 172.5 382 117.05 Z"/>
</g>

<g id="Layer0_0_MEMBER_6_MEMBER_21_FILL">
<path fill="url(#Gradient_1)" stroke="none" d="
M -456.7 -269.5
L -456.7 -268.5 -392.45 -268.5 -392.45 -269.5 -456.7 -269.5 Z"/>
</g>

<g id="Layer0_0_MEMBER_7_FILL">
<path fill="#1E0F38" stroke="none" d="
M -239.65 -642.4
Q -221.25 -672.4 -232.3 -687.2 -243.35 -702.05 -277.4 -693.05 -311.4 -684.05 -348.45 -656.45 -385.45 -628.8 -403.8 -598.8 -422.1 -568.8 -411.05 -553.95 -400 -539.15 -366.05 -548.15 -333.8966796875 -556.6486328125 -299.1 -581.8
L -298.7 -582.1
Q -297.2189453125 -583.1087890625 -295.75 -584.2 -294.6640625 -585.0099609375 -293.65 -585.85
L -292.55 -586.7
Q -257.329296875 -613.417578125 -239.65 -642.4
M -283.85 -665.25
Q -258.6 -671.7 -250.25 -660.5 -241.85 -649.25 -255.25 -626.9 -267.2546875 -606.771875 -290.65 -588.25 -293.1458984375 -586.23203125 -295.8 -584.25 -298.11640625 -582.5201171875 -300.45 -580.9 -325.196484375 -563.355859375 -348.3 -557.5 -373.45 -551.1 -381.85 -562.35 -390.2 -573.55 -376.9 -595.85 -363.55 -618.2 -336.3 -638.55 -309.05 -658.9 -283.85 -665.25 Z"/>

<path fill="#2A1B44" stroke="none" d="
M -288.8 -630.25
Q -303.1 -626.55 -318.65 -614.95 -334.2 -603.4 -341.85 -590.7 -349.45 -578 -344.7 -571.65 -339.95 -565.25 -325.65 -568.95 -313.466796875 -572.0912109375 -300.45 -580.9 -298.11640625 -582.5201171875 -295.8 -584.25 -293.1458984375 -586.23203125 -290.65 -588.25 -278.8896484375 -597.9896484375 -272.6 -608.5 -264.95 -621.2 -269.7 -627.6 -274.45 -633.95 -288.8 -630.25
M -306.45 -602.25
Q -298.3 -608.35 -290.8 -610.25 -283.2 -612.2 -280.7 -608.8 -278.2 -605.45 -282.25 -598.75 -286.2 -592.1 -294.35 -586 -302.5 -579.95 -310.05 -578 -317.55 -576.1 -320.05 -579.45 -322.55 -582.85 -318.6 -589.5 -314.6 -596.2 -306.45 -602.25 Z"/>

<path fill="#2E1F48" stroke="none" d="
M -290.8 -610.25
Q -298.3 -608.35 -306.45 -602.25 -314.6 -596.2 -318.6 -589.5 -322.55 -582.85 -320.05 -579.45 -317.55 -576.1 -310.05 -578 -302.5 -579.95 -294.35 -586 -286.2 -592.1 -282.25 -598.75 -278.2 -605.45 -280.7 -608.8 -283.2 -612.2 -290.8 -610.25 Z"/>

<path fill="#251641" stroke="none" d="
M -318.65 -614.95
Q -303.1 -626.55 -288.8 -630.25 -274.45 -633.95 -269.7 -627.6 -264.95 -621.2 -272.6 -608.5 -278.8896484375 -597.9896484375 -290.65 -588.25 -267.2546875 -606.771875 -255.25 -626.9 -241.85 -649.25 -250.25 -660.5 -258.6 -671.7 -283.85 -665.25 -309.05 -658.9 -336.3 -638.55 -363.55 -618.2 -376.9 -595.85 -390.2 -573.55 -381.85 -562.35 -373.45 -551.1 -348.3 -557.5 -325.196484375 -563.355859375 -300.45 -580.9 -313.466796875 -572.0912109375 -325.65 -568.95 -339.95 -565.25 -344.7 -571.65 -349.45 -578 -341.85 -590.7 -334.2 -603.4 -318.65 -614.95 Z"/>
</g>
</defs>

<g transform="matrix( 1.8138427734375, 0, 0, 1.8138427734375, 1654,-95.3) ">
<use xlink:href="#Layer0_0_MEMBER_0_FILL"/>
</g>

<g transform="matrix( 1.013641357421875, 0, 0, 1.013641357421875, 1149.95,110.25) ">
<use xlink:href="#Layer0_0_MEMBER_1_FILL"/>
</g>

<g filter="url(#Filter_1)" transform="matrix( 1, 0, 0, 1, 0,0) ">
<g transform="matrix( 0.6299896240234375, 0, 0, 0.6299896240234375, 429.2,234.4) ">
<g transform="matrix( 1, 0, 0, 1, 0,0) ">
<use xlink:href="#____1_0_Layer0_0_FILL"/>
</g>
</g>
</g>

<g filter="url(#Filter_2)" transform="matrix( 1, 0, 0, 1, 0,0) ">
<g transform="matrix( 1, 0, 0, 1, 360.8,415.35) ">
<g transform="matrix( 1, 0, 0, 1, 0,0) ">
<use xlink:href="#____2_0_Layer0_0_FILL"/>
</g>
</g>
</g>

<g filter="url(#Filter_3)" transform="matrix( 1, 0, 0, 1, 0,0) ">
<g transform="matrix( 1, 0, 0, 1, 504.7,71.15) ">
<g transform="matrix( 1, 0, 0, 1, 0,0) ">
<use xlink:href="#____3_0_Layer0_0_FILL"/>
</g>
</g>
</g>

<g filter="url(#Filter_4)" transform="matrix( 1, 0, 0, 1, 0,0) ">
<g transform="matrix( 1, 0, 0, 1, 729.1,256.1) ">
<g transform="matrix( 0.2501678466796875, 0, 0, 0.2501678466796875, 0,0) ">
<use xlink:href="#____4_0_Layer0_0_FILL"/>
</g>
</g>
</g>

<g transform="matrix( 1.03857421875, 0, 0, 1.03857421875, 1029.15,729.1) ">
<use xlink:href="#Layer0_0_MEMBER_6_MEMBER_0_FILL"/>
</g>

<g transform="matrix( 0.4451141357421875, 0, 0, 0.4451141357421875, 932.6,583.9) ">
<use xlink:href="#Layer0_0_MEMBER_6_MEMBER_1_FILL"/>
</g>

<g transform="matrix( 0.8531036376953125, 0, 0, 0.8531036376953125, 1033.75,564.1) ">
<use xlink:href="#Layer0_0_MEMBER_6_MEMBER_2_FILL"/>
</g>

<g transform="matrix( 0.8531036376953125, 0, 0, 0.8531036376953125, 847.15,497.4) ">
<use xlink:href="#Layer0_0_MEMBER_6_MEMBER_3_FILL"/>
</g>

<g transform="matrix( 0.8531036376953125, 0, 0, 0.8531036376953125, 737.75,731.25) ">
<use xlink:href="#Layer0_0_MEMBER_6_MEMBER_4_FILL"/>
</g>

<g transform="matrix( 0.8531036376953125, 0, 0, 0.8531036376953125, 576.15,628.45) ">
<use xlink:href="#Layer0_0_MEMBER_6_MEMBER_5_FILL"/>
</g>

<g transform="matrix( 0.630218505859375, 0, 0, 0.630218505859375, 536.7,690.55) ">
<use xlink:href="#Layer0_0_MEMBER_6_MEMBER_6_FILL"/>
</g>

<g transform="matrix( 0.8531036376953125, 0, 0, 0.8531036376953125, 365.15,787.6) ">
<use xlink:href="#Layer0_0_MEMBER_6_MEMBER_7_FILL"/>
</g>

<g transform="matrix( 0.8531036376953125, 0, 0, 0.8531036376953125, 422.7,533.6) ">
<use xlink:href="#Layer0_0_MEMBER_6_MEMBER_8_FILL"/>
</g>

<g transform="matrix( 0.8531036376953125, 0, 0, 0.8531036376953125, 667.35,481.6) ">
<use xlink:href="#Layer0_0_MEMBER_6_MEMBER_9_FILL"/>
</g>

<g transform="matrix( 0.8531036376953125, 0, 0, 0.8531036376953125, 454.45,371.8) ">
<use xlink:href="#Layer0_0_MEMBER_6_MEMBER_10_FILL"/>
</g>

<g transform="matrix( 1.0965576171875, -0.9195556640625, 0.92242431640625, 1.0999755859375, 1370.25,231.55) ">
<use xlink:href="#Layer0_0_MEMBER_6_MEMBER_11_FILL"/>
</g>

<g transform="matrix( 0.8531036376953125, 0, 0, 0.8531036376953125, 1029.8,211.5) ">
<use xlink:href="#Layer0_0_MEMBER_6_MEMBER_12_FILL"/>
</g>

<g transform="matrix( 0.7378082275390625, 0, 0, 0.7378082275390625, 875.7,224.85) ">
<use xlink:href="#Layer0_0_MEMBER_6_MEMBER_13_FILL"/>
</g>

<g transform="matrix( 0.8531036376953125, 0, 0, 0.8531036376953125, 750.15,231.3) ">
<use xlink:href="#Layer0_0_MEMBER_6_MEMBER_14_FILL"/>
</g>

<g transform="matrix( 0.8531036376953125, 0, 0, 0.8531036376953125, 281.75,545.05) ">
<use xlink:href="#Layer0_0_MEMBER_6_MEMBER_15_FILL"/>
</g>

<g transform="matrix( 0.8531036376953125, 0, 0, 0.8531036376953125, 148.5,627.45) ">
<use xlink:href="#Layer0_0_MEMBER_6_MEMBER_16_FILL"/>
</g>

<g transform="matrix( 0.63983154296875, 0, 0, 0.63983154296875, 115.35,454.2) ">
<use xlink:href="#Layer0_0_MEMBER_6_MEMBER_17_FILL"/>
</g>

<g transform="matrix( 0.63983154296875, 0, 0, 0.63983154296875, 218.7,409.1) ">
<use xlink:href="#Layer0_0_MEMBER_6_MEMBER_18_FILL"/>
</g>

<g transform="matrix( 0.8342437744140625, -0.7974395751953125, 0.9919586181640625, 1.0377197265625, 1101.25,-59.25) ">
<use xlink:href="#Layer0_0_MEMBER_6_MEMBER_19_FILL"/>
</g>

<g transform="matrix( 1.435577392578125, 0, 0, 1.435577392578125, -45.65,8.95) ">
<use xlink:href="#Layer0_0_MEMBER_6_MEMBER_20_FILL"/>
</g>

<g transform="matrix( 1.285980224609375, -1.28594970703125, 1.01507568359375, 1.015106201171875, 949.55,115.55) ">
<use xlink:href="#Layer0_0_MEMBER_6_MEMBER_21_FILL"/>
</g>

<g transform="matrix( -0.2136993408203125, 0.0572662353515625, -0.0572662353515625, -0.2136993408203125, 836.75,585.3) ">
<use xlink:href="#Layer0_0_MEMBER_7_FILL"/>
</g>
</svg>
