<?xml version="1.0" encoding="utf-8"?>
<!-- Generator: Adobe Illustrator 19.0.0, SVG Export Plug-In . SVG Version: 6.00 Build 0)  -->
<svg version="1.1" id="图层_1" xmlns="http://www.w3.org/2000/svg" xmlns:xlink="http://www.w3.org/1999/xlink" x="0px" y="0px"
	 viewBox="0 0 20 30" style="enable-background:new 0 0 20 30;" xml:space="preserve">
<style type="text/css">
	.st0{fill-rule:evenodd;clip-rule:evenodd;fill:#FFFF33;}
</style>
<g id="XMLID_12_">
	<path id="XMLID_27_" class="st0" d="M10.9,26.5l8.3-8.3c0.5-0.5,0.5-1.2,0-1.7c-0.5-0.5-1.2-0.5-1.7,0L10,24l-7.4-7.4
		c-0.5-0.5-1.2-0.5-1.7,0c-0.5,0.5-0.5,1.2,0,1.7l8.3,8.3c0.2,0.2,0.6,0.4,0.9,0.4C10.3,26.9,10.6,26.8,10.9,26.5z M19.1,5.2
		c0.5-0.5,0.5-1.2,0-1.7c-0.5-0.5-1.2-0.5-1.7,0L10,10.9L2.6,3.5C2.1,3,1.3,3,0.9,3.5C0.4,4,0.4,4.7,0.9,5.2l8.3,8.3
		c0.2,0.2,0.6,0.4,0.9,0.4c0.3,0,0.6-0.1,0.9-0.4L19.1,5.2z"/>
</g>
</svg>
