
<svg xmlns="http://www.w3.org/2000/svg" version="1.1" xmlns:xlink="http://www.w3.org/1999/xlink" preserveAspectRatio="none" x="0px" y="0px" width="27px" height="22px" viewBox="0 0 27 22">
<defs>
<g id="Layer0_0_FILL">
<path fill="#00FFFF" stroke="none" d="
M 234.05 337.45
L 241.85 345.3 234.05 353.1
Q 233.7 353.5 233.7 354 233.7 354.55 234.05 354.9 234.45 355.3 234.95 355.3 235.5 355.3 235.85 354.9
L 244.55 346.2
Q 244.9 345.85 244.9 345.3 244.9 344.7 244.55 344.35
L 235.85 335.65
Q 235.5 335.3 234.95 335.3 234.45 335.3 234.05 335.65 233.7 336.05 233.7 336.55 233.7 337.1 234.05 337.45
M 247.45 336.55
Q 247.45 337.1 247.8 337.45
L 255.6 345.3 247.8 353.1
Q 247.45 353.5 247.45 354 247.45 354.55 247.8 354.9 248.15 355.3 248.7 355.3 249.25 355.3 249.6 354.9
L 258.3 346.2
Q 258.65 345.85 258.65 345.3 258.65 344.7 258.3 344.35
L 249.6 335.65
Q 249.25 335.3 248.7 335.3 248.15 335.3 247.8 335.65 247.45 336.05 247.45 336.55 Z"/>
</g>
</defs>

<g transform="matrix( 1, 0, 0, 1, -232.7,-334.3) ">
<use xlink:href="#Layer0_0_FILL"/>
</g>
</svg>
