
<svg xmlns="http://www.w3.org/2000/svg" version="1.1" xmlns:xlink="http://www.w3.org/1999/xlink" preserveAspectRatio="none" x="0px" y="0px" width="45px" height="56px" viewBox="0 0 45 56">
<defs>
<filter id="Filter_1" x="-20%" y="-20%" width="140%" height="140%" color-interpolation-filters="sRGB">
<feColorMatrix in="SourceGraphic" type="matrix" values="1 0 0 0 0 0 1 0 0 0 0 0 1 0 0 0 0 0 0.2 0" result="result1"/>
</filter>

<g id="Layer2_0_MEMBER_0_FILL">
<path fill="#7FFFFE" fill-opacity="0" stroke="none" d="
M 45 0
L 0 0 0 56 45 56 45 0 Z"/>
</g>

<g id="flash0_ai_1____1__Group__0_Layer0_0_MEMBER_0_FILL">
<path fill="#1DF9FF" stroke="none" d="
M 20.1 46.4
Q 20.2 45.65 19.6 45.45
L 11.35 43
Q 10.65 42.9 10.55 43.7
L 9 52.65
Q 9 53.25 9.4 53.45
L 17.35 57.3
Q 17.75 57.5 18.05 57.3 18.3 57.15 18.35 56.8
L 20.1 46.4 Z"/>
</g>

<g id="flash0_ai_1____1__Group__0_Layer0_0_MEMBER_1_FILL">
<path fill="#03B9A2" stroke="none" d="
M 23.3 11
Q 23.5 10.35 24.05 10.5
L 29.1 11.9 29.1 11.85 29.8 12.05 31.6 1.5
Q 31.7 0.85 31.05 0.85
L 13.7 0
Q 13.05 0 12.95 0.65
L 11.9 7 13.55 7.2
Q 14.25 7.2 14.15 7.85
L 12.65 16.7 22.1 18.2 23.3 11 Z"/>
</g>

<g id="flash0_ai_1____1__Group__0_Layer0_0_MEMBER_2_FILL">
<path fill="#11FCFD" stroke="none" d="
M 38.4 15.2
Q 38.6 14.5 37.95 14.3
L 29.8 12.05 28.7 18.5
Q 28.65 18.75 28.45 18.95 28.25 19.1 28 19.05
L 22.1 18.2 20.9 25.55 29.05 26.95
Q 29.65 27.15 29.5 27.75
L 28.95 31.15 35.1 31.4
Q 35.7 31.4 35.8 30.75
L 38.4 15.2 Z"/>
</g>

<g id="flash0_ai_1____1__Group__0_Layer0_0_MEMBER_4_FILL">
<path fill="#11FCFD" stroke="none" d="
M 29.45 12
L 24.05 10.5
Q 23.5 10.35 23.3 11
L 22.1 18.2 28 19.05
Q 28.25 19.1 28.45 18.95 28.65 18.75 28.7 18.5
L 29.8 12.05 29.45 12 Z"/>
</g>

<g id="flash0_ai_1____1__Group__0_Layer0_0_MEMBER_6_FILL">
<path fill="#55DAEF" stroke="none" d="
M 17.3 24.95
Q 16.65 24.8 16.55 25.5
L 13.95 40.85
Q 13.9 41.15 14.1 41.35 14.25 41.55 14.45 41.55
L 26.7 40.9
Q 27.3 40.9 27.4 40.2
L 28.95 31.15 20.7 30.75
Q 20.4 30.7 20.25 30.45 20.1 30.2 20.15 29.95
L 20.9 25.55 17.3 24.95 Z"/>
</g>

<g id="flash0_ai_1____1__Group__0_Layer0_0_MEMBER_8_FILL">
<path fill="#11FCFD" stroke="none" d="
M 29.05 26.95
L 20.9 25.55 20.15 30
Q 20.1 30.2 20.25 30.45 20.4 30.65 20.65 30.7
L 28.95 31.15 29.5 27.75
Q 29.6 27.15 29.05 26.95 Z"/>
</g>

<g id="flash0_ai_1____1__Group__0_Layer0_0_MEMBER_10_FILL">
<path fill="#01DEFF" stroke="none" d="
M 13.55 7.2
L 3.25 6
Q 2.65 6 2.45 6.65
L 0 21.3
Q -0.15 22 0.5 22.25
L 10.55 25.3
Q 10.8 25.4 11 25.3 11.2 25.15 11.25 24.9
L 14.15 7.85
Q 14.25 7.2 13.55 7.2 Z"/>
</g>
</defs>

<g transform="matrix( 1, 0, 0, 1, 0,0) ">
<use xlink:href="#Layer2_0_MEMBER_0_FILL"/>
</g>

<g transform="matrix( 0.9753265380859375, 0, 0, 0.975616455078125, 7.5,0) ">
<g transform="matrix( 1, 0, 0, 1, 0,0) ">
<use filter="url(#Filter_1)" xlink:href="#flash0_ai_1____1__Group__0_Layer0_0_MEMBER_0_FILL"/>
</g>

<g transform="matrix( 1, 0, 0, 1, 0,0) ">
<use filter="url(#Filter_1)" xlink:href="#flash0_ai_1____1__Group__0_Layer0_0_MEMBER_1_FILL"/>
</g>

<g transform="matrix( 1, 0, 0, 1, 0,0) ">
<use filter="url(#Filter_1)" xlink:href="#flash0_ai_1____1__Group__0_Layer0_0_MEMBER_2_FILL"/>
</g>

<g transform="matrix( 1, 0, 0, 1, 0,0) ">
<use filter="url(#Filter_1)" xlink:href="#flash0_ai_1____1__Group__0_Layer0_0_MEMBER_4_FILL"/>
</g>

<g transform="matrix( 1, 0, 0, 1, 0,0) ">
<use filter="url(#Filter_1)" xlink:href="#flash0_ai_1____1__Group__0_Layer0_0_MEMBER_6_FILL"/>
</g>

<g transform="matrix( 1, 0, 0, 1, 0,0) ">
<use filter="url(#Filter_1)" xlink:href="#flash0_ai_1____1__Group__0_Layer0_0_MEMBER_8_FILL"/>
</g>

<g transform="matrix( 1, 0, 0, 1, 0,0) ">
<use filter="url(#Filter_1)" xlink:href="#flash0_ai_1____1__Group__0_Layer0_0_MEMBER_10_FILL"/>
</g>
</g>
</svg>
