
<svg xmlns="http://www.w3.org/2000/svg" version="1.1" xmlns:xlink="http://www.w3.org/1999/xlink" preserveAspectRatio="none" x="0px" y="0px" width="18px" height="19px" viewBox="0 0 18 19">
<defs>
<g id="Layer0_0_MEMBER_2_FILL">
<path fill="#FFF600" stroke="none" d="
M 73.15 57.65
Q 73.75 57.65 73.75 57.05 73.75 56.4 73.15 56.4
L 57.3 56.4
Q 56.7 56.4 56.7 57.05 56.7 57.65 57.3 57.65
L 73.15 57.65 Z"/>
</g>

<path id="Layer0_0_MEMBER_0_1_STROKES" stroke="#FFF600" stroke-width="1" stroke-linejoin="miter" stroke-linecap="butt" stroke-miterlimit="10" fill="none" d="
M 62.4 53.9
L 59.15 52.15
Q 58.4 51.5 59 50.75
L 67.85 39.1
Q 68.1 38.8 68.55 38.75 68.95 38.7 69.25 38.95
L 70.6 40.15
Q 71.35 40.8 70.75 41.55
L 63.8 53.7
Q 63.6 54.05 63.15 54.1 62.75 54.15 62.4 53.9 Z"/>

<path id="Layer0_0_MEMBER_1_1_STROKES" stroke="#FFF400" stroke-width="1" stroke-linejoin="miter" stroke-linecap="butt" stroke-miterlimit="10" fill="none" d="
M 60.5 55.35
L 58 55.35 59.65 52.75 62.05 53.85 60.5 55.35 Z"/>
</defs>

<g transform="matrix( 1, 0, 0, 1, -56.2,-38.7) ">
<use xlink:href="#Layer0_0_MEMBER_0_1_STROKES"/>
</g>

<g transform="matrix( 1, 0, 0, 1, -56.2,-38.7) ">
<use xlink:href="#Layer0_0_MEMBER_1_1_STROKES"/>
</g>

<g transform="matrix( 1, 0, 0, 1, -56.2,-38.7) ">
<use xlink:href="#Layer0_0_MEMBER_2_FILL"/>
</g>
</svg>
