<?xml version="1.0" encoding="utf-8"?>
<!-- Generator: Adobe Illustrator 18.0.0, SVG Export Plug-In . SVG Version: 6.00 Build 0)  -->
<!DOCTYPE svg PUBLIC "-//W3C//DTD SVG 1.1//EN" "http://www.w3.org/Graphics/SVG/1.1/DTD/svg11.dtd">
<svg version="1.1" id="图层_1" xmlns="http://www.w3.org/2000/svg" xmlns:xlink="http://www.w3.org/1999/xlink" x="0px" y="0px"
	 viewBox="0 0 40 40" enable-background="new 0 0 40 40" xml:space="preserve">
<circle fill="#002D6B" cx="20" cy="20" r="18.9"/>
<path fill="#00C1F9" d="M20,39.9C9,39.9,0.1,31,0.1,20S9,0.1,20,0.1S39.9,9,39.9,20S31,39.9,20,39.9z M20,2.1
	c-9.9,0-17.9,8-17.9,17.9s8,17.9,17.9,17.9s17.9-8,17.9-17.9S29.9,2.1,20,2.1z"/>
<path fill="#00C1F9" d="M14.4,25.1L14.4,25.1c-0.4-0.4-0.4-1,0-1.4l10-10c0.4-0.4,1-0.4,1.4,0l0,0c0.4,0.4,0.4,1,0,1.4l-10,10
	C15.4,25.5,14.7,25.5,14.4,25.1z"/>
<path fill="#00C1F9" d="M25.8,25.1L25.8,25.1c0.4-0.4,0.4-1,0-1.4l-10-10c-0.4-0.4-1-0.4-1.4,0l0,0c-0.4,0.4-0.4,1,0,1.4l10,10
	C24.8,25.5,25.4,25.5,25.8,25.1z"/>
</svg>
