<?xml version="1.0" encoding="utf-8"?>
<!-- Generator: Adobe Illustrator 19.0.0, SVG Export Plug-In . SVG Version: 6.00 Build 0)  -->
<svg version="1.1" id="图层_1" xmlns="http://www.w3.org/2000/svg" xmlns:xlink="http://www.w3.org/1999/xlink" x="0px" y="0px"
	 viewBox="392 71 1024 100" style="enable-background:new 392 71 1024 100;" xml:space="preserve">
<style type="text/css">
	.st0{fill:#081842;}
	.st1{fill-rule:evenodd;clip-rule:evenodd;fill:url(#SVGID_1_);}
	.st2{fill-rule:evenodd;clip-rule:evenodd;fill:url(#SVGID_2_);}
	.st3{fill-rule:evenodd;clip-rule:evenodd;fill:#183262;}
	.st4{fill-rule:evenodd;clip-rule:evenodd;fill:#0F2142;}
	.st5{fill-rule:evenodd;clip-rule:evenodd;fill:#726841;}
	.st6{fill-rule:evenodd;clip-rule:evenodd;fill:#8EBB42;}
	.st7{fill-rule:evenodd;clip-rule:evenodd;fill:#11264E;}
	.st8{fill-rule:evenodd;clip-rule:evenodd;fill:#0B1B33;}
	.st9{fill-rule:evenodd;clip-rule:evenodd;fill:#FFFFFF;}
	.st10{fill-rule:evenodd;clip-rule:evenodd;fill:#152E5B;}
	.st11{fill-rule:evenodd;clip-rule:evenodd;fill:#E17638;}
	.st12{fill-rule:evenodd;clip-rule:evenodd;fill:#EB9D3F;}
	.st13{fill-rule:evenodd;clip-rule:evenodd;fill:#5FAADB;}
	.st14{fill-rule:evenodd;clip-rule:evenodd;fill:#459A57;}
	.st15{fill-rule:evenodd;clip-rule:evenodd;fill:#7D848B;}
	.st16{fill-rule:evenodd;clip-rule:evenodd;fill:#802A7C;}
	.st17{fill-rule:evenodd;clip-rule:evenodd;fill:#DA423E;}
	.st18{fill-rule:evenodd;clip-rule:evenodd;fill:#FCB5A0;}
	.st19{fill-rule:evenodd;clip-rule:evenodd;fill:#F98E75;}
	.st20{fill-rule:evenodd;clip-rule:evenodd;fill:#E9DFDF;}
	.st21{fill-rule:evenodd;clip-rule:evenodd;fill:#351504;}
	.st22{fill-rule:evenodd;clip-rule:evenodd;fill:#1C1313;}
	.st23{fill-rule:evenodd;clip-rule:evenodd;fill:#432A2A;}
	.st24{fill-rule:evenodd;clip-rule:evenodd;fill:#4F2006;}
	.st25{fill-rule:evenodd;clip-rule:evenodd;fill:#5F2324;}
	.st26{fill-rule:evenodd;clip-rule:evenodd;fill:#BD4A4D;}
	.st27{fill-rule:evenodd;clip-rule:evenodd;fill:#51261B;}
	.st28{fill-rule:evenodd;clip-rule:evenodd;fill:#853825;}
	.st29{fill-rule:evenodd;clip-rule:evenodd;fill:#F08F31;}
	.st30{fill-rule:evenodd;clip-rule:evenodd;fill:#A66C35;}
	.st31{fill-rule:evenodd;clip-rule:evenodd;fill:#C7690E;}
	.st32{fill-rule:evenodd;clip-rule:evenodd;fill:#ECAC99;}
	.st33{fill-rule:evenodd;clip-rule:evenodd;fill:#E2846E;}
	.st34{fill-rule:evenodd;clip-rule:evenodd;fill:#E9E9E9;}
	.st35{fill-rule:evenodd;clip-rule:evenodd;fill:#744F2F;}
	.st36{fill-rule:evenodd;clip-rule:evenodd;fill:#D6D3D7;}
	.st37{fill-rule:evenodd;clip-rule:evenodd;fill:#BBAB9D;}
	.st38{fill-rule:evenodd;clip-rule:evenodd;fill:#0B658C;}
	.st39{fill-rule:evenodd;clip-rule:evenodd;fill:#CDCDCD;}
	.st40{fill-rule:evenodd;clip-rule:evenodd;fill:#37A6D7;}
	.st41{fill-rule:evenodd;clip-rule:evenodd;fill:#208CBB;}
	.st42{fill-rule:evenodd;clip-rule:evenodd;fill:#8DD2F0;}
	.st43{fill-rule:evenodd;clip-rule:evenodd;fill:#1B9ED7;}
	.st44{fill-rule:evenodd;clip-rule:evenodd;fill:#835934;}
	.st45{fill-rule:evenodd;clip-rule:evenodd;fill:#E6DFE7;}
	.st46{fill-rule:evenodd;clip-rule:evenodd;fill:#CBB8A8;}
	.st47{fill-rule:evenodd;clip-rule:evenodd;fill:#E2E2E2;}
	.st48{fill-rule:evenodd;clip-rule:evenodd;fill:url(#SVGID_3_);}
	.st49{fill-rule:evenodd;clip-rule:evenodd;fill:#FFCC01;}
	.st50{fill-rule:evenodd;clip-rule:evenodd;fill:#FFFF00;}
	.st51{fill-rule:evenodd;clip-rule:evenodd;fill:#2D2D2D;}
	.st52{fill-rule:evenodd;clip-rule:evenodd;fill:#ABE448;}
	.st53{fill-rule:evenodd;clip-rule:evenodd;fill:#9AD341;}
	.st54{fill-rule:evenodd;clip-rule:evenodd;fill:url(#SVGID_4_);}
	.st55{fill-rule:evenodd;clip-rule:evenodd;fill:url(#SVGID_5_);}
	.st56{fill-rule:evenodd;clip-rule:evenodd;fill:#050B0B;}
	.st57{fill-rule:evenodd;clip-rule:evenodd;fill:#030000;}
	.st58{fill-rule:evenodd;clip-rule:evenodd;fill:url(#SVGID_6_);}
	.st59{fill-rule:evenodd;clip-rule:evenodd;fill:url(#SVGID_7_);}
	.st60{fill-rule:evenodd;clip-rule:evenodd;fill:url(#SVGID_8_);}
	.st61{fill-rule:evenodd;clip-rule:evenodd;fill:url(#SVGID_9_);}
	.st62{fill-rule:evenodd;clip-rule:evenodd;fill:url(#SVGID_10_);}
	.st63{fill-rule:evenodd;clip-rule:evenodd;fill:url(#SVGID_11_);}
	.st64{fill-rule:evenodd;clip-rule:evenodd;fill:url(#SVGID_12_);}
	.st65{fill-rule:evenodd;clip-rule:evenodd;fill:#92BE3A;}
	.st66{fill-rule:evenodd;clip-rule:evenodd;fill:url(#SVGID_13_);}
	.st67{fill-rule:evenodd;clip-rule:evenodd;fill:#90B73B;}
	.st68{fill-rule:evenodd;clip-rule:evenodd;fill:#BCE549;}
	.st69{fill-rule:evenodd;clip-rule:evenodd;fill:#95BE3D;}
	.st70{fill-rule:evenodd;clip-rule:evenodd;fill:#C6C6C6;}
	.st71{fill-rule:evenodd;clip-rule:evenodd;fill:#CAFB50;}
	.st72{fill-rule:evenodd;clip-rule:evenodd;fill:#81A130;}
</style>
<rect id="XMLID_1_" x="391.7" y="71" class="st0" width="1024" height="100"/>
<g>
	
		<linearGradient id="SVGID_1_" gradientUnits="userSpaceOnUse" x1="4.3039" y1="-85.2185" x2="23.0218" y2="-85.2185" gradientTransform="matrix(1.000000e-04 -1 1 -1.000000e-03 655.3181 128.7366)">
		<stop  offset="0" style="stop-color:#183262"/>
		<stop  offset="4.705880e-02" style="stop-color:#323C56"/>
		<stop  offset="0.1059" style="stop-color:#4E464A"/>
		<stop  offset="0.1725" style="stop-color:#675041"/>
		<stop  offset="0.2471" style="stop-color:#7B573A"/>
		<stop  offset="0.3333" style="stop-color:#8B5D36"/>
		<stop  offset="0.4392" style="stop-color:#966233"/>
		<stop  offset="0.5922" style="stop-color:#9C6432"/>
		<stop  offset="1" style="stop-color:#9E6532"/>
	</linearGradient>
	<path class="st1" d="M588,124.5l-35.9-0.5c1.1-1.5,2.2-3,3.4-4.6c2.5-3.3,4.7-6.1,6.7-8.2c3.4-3.6,6.1-5.5,8.1-5.5
		c2.6,0,6.3,3.1,11.2,9.4C584,118.3,586.2,121.4,588,124.5z"/>
	
		<linearGradient id="SVGID_2_" gradientUnits="userSpaceOnUse" x1="4.6601" y1="-111.2873" x2="31.335" y2="-111.2873" gradientTransform="matrix(0 -1 1 -1.000000e-03 654.7121 128.7366)">
		<stop  offset="0" style="stop-color:#183262"/>
		<stop  offset="3.921570e-03" style="stop-color:#193262"/>
		<stop  offset="5.490200e-02" style="stop-color:#384053"/>
		<stop  offset="0.1137" style="stop-color:#544C48"/>
		<stop  offset="0.1804" style="stop-color:#6D573F"/>
		<stop  offset="0.251" style="stop-color:#826039"/>
		<stop  offset="0.3373" style="stop-color:#916735"/>
		<stop  offset="0.4471" style="stop-color:#9C6C33"/>
		<stop  offset="0.5922" style="stop-color:#A36E32"/>
		<stop  offset="1" style="stop-color:#A46F32"/>
	</linearGradient>
	<path class="st2" d="M543.8,97.5c3.7,0,9,4.5,16,13.3c3.5,4.5,6.6,8.9,9.3,13.4l-51.2-0.7c1.5-2.1,3.2-4.3,4.9-6.7
		c3.5-4.8,6.7-8.6,9.5-11.6C537.1,100.1,540.9,97.5,543.8,97.5z"/>
	<path class="st3" d="M1304,120.8c39.8,0.7,77,1.7,111.5,2.9v35.7l-258.4,7l-765.6-6.7v-38.7c109.4,1.7,222.8,3.1,340.3,4.1
		c235,1.9,372.6,1,413-2.8C1171.2,119.9,1224.3,119.4,1304,120.8z"/>
	<g>
		<path class="st4" d="M470.5,144.2c0,1.6-1.9,3-5.7,4.2c-3.8,1.2-8.4,1.8-13.7,1.8c-5.3,0-9.9-0.6-13.7-1.8
			c-3.8-1.1-5.7-2.5-5.7-4.2s1.9-3,5.7-4.2c3.8-1.2,8.3-1.8,13.7-1.8c5.4,0,9.9,0.6,13.7,1.8C468.6,141.2,470.5,142.6,470.5,144.2z"
			/>
		<g>
			<g>
				<path class="st5" d="M445.3,131.5c0.4,0.3,0.6,0.8,0.6,1.2v8c0,0.5-0.2,0.9-0.6,1.3c-0.4,0.3-0.8,0.5-1.3,0.5s-0.9-0.2-1.2-0.5
					c-0.4-0.4-0.5-0.8-0.5-1.3v-8c0-0.5,0.2-0.9,0.5-1.2c0.3-0.4,0.8-0.5,1.2-0.5S445,131.1,445.3,131.5z"/>
				<path class="st6" d="M452.2,127.4c0,2.3-0.8,4-2.3,5.2c-1.4,1.1-3.3,1.6-5.7,1.6c-2.4,0-4.2-0.5-5.7-1.6
					c-1.6-1.2-2.3-2.9-2.3-5.2c0-2.8,0.8-5.7,2.3-8.9c1.7-3.5,3.6-5.2,5.7-5.2s3.9,1.8,5.7,5.2C451.4,121.7,452.2,124.6,452.2,127.4
					z"/>
			</g>
			<g>
				<path class="st5" d="M456.5,144.3c0,0.3-0.1,0.5-0.3,0.7c-0.2,0.2-0.5,0.3-0.8,0.3c-0.3,0-0.5-0.1-0.7-0.3s-0.3-0.4-0.3-0.7
					v-4.5c0-0.3,0.1-0.5,0.3-0.7c0.2-0.2,0.4-0.3,0.7-0.3c0.3,0,0.5,0.1,0.8,0.3c0.2,0.2,0.3,0.4,0.3,0.7V144.3z"/>
				<path class="st6" d="M460,136.9c0,1.3-0.4,2.2-1.3,2.9c-0.8,0.6-1.8,0.9-3.2,0.9c-1.3,0-2.3-0.3-3.1-0.9
					c-0.9-0.6-1.3-1.6-1.3-2.9c0-1.5,0.4-3.2,1.3-5c0.9-1.9,2-2.9,3.1-2.9c1.1,0,2.2,1,3.2,2.9C459.5,133.7,460,135.4,460,136.9z"/>
			</g>
		</g>
	</g>
	<path class="st7" d="M523.7,145.7c0-1.9,4.5-3.6,13.6-4.9c9.1-1.4,20-2,32.9-2c12.9,0,23.8,0.7,32.9,2c9.1,1.3,13.6,3,13.6,4.9
		c0,1.9-4.5,3.5-13.6,4.9c-9.1,1.3-20.1,2-32.9,2c-12.8,0-23.8-0.7-32.9-2C528.2,149.2,523.7,147.5,523.7,145.7z"/>
	<path class="st7" d="M1058.2,163.2c0,1.1-0.8,2-2.3,2.8c-1.6,0.7-3.4,1.1-5.6,1.1c-2.2,0-4-0.4-5.6-1.1c-1.5-0.8-2.3-1.7-2.3-2.8
		s0.8-2,2.3-2.8c1.6-0.8,3.4-1.2,5.6-1.2c2.2,0,4.1,0.4,5.6,1.2C1057.4,161.3,1058.2,162.2,1058.2,163.2z"/>
	<path class="st4" d="M1346.7,153.8c39.1-3,62-5.5,68.7-7.4v23.9h-1024v-14.9c40.7-3.2,88.7-5.6,144.2-7.3
		c110.9-3.4,203.4-1.5,277.5,5.7c107.7,10.5,236.5,13.2,386.2,8C1252.7,159.9,1301.8,157.2,1346.7,153.8z"/>
	<path class="st8" d="M692.4,163.5c0,0.6-0.6,1.2-1.9,1.6c-1.3,0.4-2.8,0.7-4.6,0.7c-1.8,0-3.3-0.2-4.6-0.7c-1.3-0.4-1.9-1-1.9-1.6
		s0.6-1.2,1.9-1.6c1.3-0.4,2.8-0.7,4.6-0.7c1.8,0,3.3,0.2,4.6,0.7C691.8,162.3,692.4,162.9,692.4,163.5z"/>
	<path class="st9" d="M1348.9,112.1c0,1.3-0.6,2.4-1.8,3.4c-1.2,0.9-2.6,1.3-4.3,1.3c-1.7,0-3.1-0.5-4.3-1.3c-1.2-0.9-1.8-2-1.8-3.4
		c0-1.3,0.6-2.4,1.8-3.3c1.2-0.9,2.6-1.4,4.3-1.4c1.7,0,3.1,0.5,4.3,1.4C1348.3,109.7,1348.9,110.8,1348.9,112.1z"/>
	<path class="st9" d="M1353,108c0,1.3-0.6,2.4-1.8,3.4c-1.2,0.9-2.6,1.3-4.3,1.3c-1.7,0-3.1-0.5-4.3-1.3c-1.2-0.9-1.8-2.1-1.8-3.4
		c0-1.3,0.6-2.4,1.8-3.3c1.2-0.9,2.6-1.4,4.3-1.4c1.7,0,3.1,0.5,4.3,1.4C1352.4,105.7,1353,106.8,1353,108z"/>
	<path class="st9" d="M1354,114.1c0,1.3-0.6,2.4-1.8,3.4c-1.2,0.9-2.6,1.3-4.3,1.3c-1.7,0-3.1-0.5-4.3-1.3c-1.2-0.9-1.8-2-1.8-3.4
		c0-1.3,0.6-2.4,1.8-3.3c1.2-0.9,2.6-1.4,4.3-1.4c1.7,0,3.1,0.5,4.3,1.4C1353.4,111.7,1354,112.8,1354,114.1z"/>
	<path class="st9" d="M1359.3,110.4c0,1.3-0.6,2.4-1.8,3.3c-1.2,0.9-2.6,1.3-4.3,1.3s-3.1-0.4-4.3-1.3c-1.2-0.9-1.8-2-1.8-3.3
		c0-1.3,0.6-2.4,1.8-3.3c1.2-0.9,2.6-1.4,4.3-1.4s3.1,0.5,4.3,1.4C1358.8,108,1359.3,109.1,1359.3,110.4z"/>
	<path class="st9" d="M1362.7,113.8c0,1.3-0.6,2.4-1.8,3.4c-1.2,0.9-2.6,1.3-4.3,1.3c-1.7,0-3.1-0.5-4.3-1.3
		c-1.2-0.9-1.8-2.1-1.8-3.4c0-1.3,0.6-2.5,1.8-3.3c1.2-0.9,2.6-1.4,4.3-1.4c1.7,0,3.1,0.5,4.3,1.4
		C1362.1,111.3,1362.7,112.5,1362.7,113.8z"/>
	<path class="st9" d="M1317.3,123.2c0,1-0.4,1.8-1.3,2.5c-0.9,0.7-2,1-3.2,1c-1.2,0-2.3-0.4-3.1-1c-0.9-0.7-1.4-1.5-1.4-2.5
		c0-1,0.5-1.8,1.4-2.5c0.9-0.7,1.9-1,3.1-1c1.3,0,2.3,0.3,3.2,1C1316.9,121.4,1317.3,122.2,1317.3,123.2z"/>
	<path class="st9" d="M1320.3,120.2c0,1-0.4,1.8-1.3,2.5c-0.9,0.7-2,1-3.2,1c-1.2,0-2.3-0.4-3.1-1c-0.9-0.7-1.4-1.5-1.4-2.5
		c0-1,0.5-1.8,1.4-2.5c0.9-0.7,1.9-1,3.1-1c1.3,0,2.3,0.3,3.2,1C1319.9,118.4,1320.3,119.2,1320.3,120.2z"/>
	<path class="st9" d="M1321.1,124.7c0,1-0.4,1.8-1.3,2.5c-0.9,0.7-2,1-3.2,1c-1.2,0-2.3-0.4-3.1-1c-0.9-0.7-1.4-1.5-1.4-2.5
		c0-1,0.5-1.8,1.4-2.5c0.9-0.7,1.9-1,3.1-1c1.3,0,2.3,0.3,3.2,1C1320.7,122.9,1321.1,123.7,1321.1,124.7z"/>
	<path class="st9" d="M1325.1,122c0,1-0.4,1.8-1.3,2.5c-0.9,0.7-2,1-3.2,1c-1.2,0-2.3-0.4-3.1-1c-0.9-0.7-1.4-1.5-1.4-2.5
		c0-1,0.5-1.8,1.4-2.5c0.9-0.7,1.9-1,3.1-1c1.3,0,2.3,0.3,3.2,1C1324.7,120.2,1325.1,121,1325.1,122z"/>
	<path class="st9" d="M1327.6,124.5c0,1-0.4,1.8-1.3,2.5c-0.9,0.7-2,1-3.2,1c-1.2,0-2.3-0.4-3.1-1c-0.9-0.7-1.4-1.5-1.4-2.5
		c0-1,0.5-1.8,1.4-2.5c0.9-0.7,1.9-1,3.1-1c1.3,0,2.3,0.3,3.2,1C1327.2,122.7,1327.6,123.5,1327.6,124.5z"/>
	<path class="st9" d="M612.4,114.5c0,1-0.4,1.8-1.3,2.5c-0.9,0.7-2,1-3.2,1c-1.2,0-2.3-0.4-3.2-1c-0.9-0.7-1.3-1.5-1.3-2.5
		c0-1,0.4-1.8,1.3-2.5c0.9-0.7,2-1,3.2-1c1.3,0,2.3,0.3,3.2,1C612,112.7,612.4,113.5,612.4,114.5z"/>
	<path class="st9" d="M615.4,111.5c0,1-0.4,1.8-1.3,2.5c-0.9,0.7-2,1-3.2,1c-1.2,0-2.3-0.4-3.2-1c-0.9-0.7-1.3-1.5-1.3-2.5
		c0-1,0.4-1.8,1.3-2.5c0.9-0.7,2-1,3.2-1c1.3,0,2.3,0.3,3.2,1C615,109.7,615.4,110.5,615.4,111.5z"/>
	<path class="st9" d="M616.2,116c0,1-0.4,1.8-1.3,2.5c-0.9,0.7-2,1-3.2,1c-1.2,0-2.3-0.4-3.2-1c-0.9-0.7-1.3-1.5-1.3-2.5
		c0-1,0.4-1.8,1.3-2.5c0.9-0.7,2-1,3.2-1c1.3,0,2.3,0.3,3.2,1C615.7,114.2,616.2,115,616.2,116z"/>
	<path class="st9" d="M620.2,113.2c0,1-0.4,1.8-1.3,2.5c-0.9,0.7-2,1-3.2,1c-1.2,0-2.3-0.4-3.2-1c-0.9-0.7-1.3-1.5-1.3-2.5
		c0-1,0.4-1.8,1.3-2.5c0.9-0.7,2-1,3.2-1c1.3,0,2.3,0.3,3.2,1C619.7,111.4,620.2,112.2,620.2,113.2z"/>
	<path class="st9" d="M622.7,115.7c0,1-0.4,1.8-1.3,2.5c-0.9,0.7-2,1-3.2,1c-1.2,0-2.3-0.4-3.2-1c-0.9-0.7-1.3-1.5-1.3-2.5
		c0-1,0.4-1.8,1.3-2.5c0.9-0.7,2-1,3.2-1c1.3,0,2.3,0.3,3.2,1C622.2,113.9,622.7,114.7,622.7,115.7z"/>
	<path class="st4" d="M1301.8,134.3c0,0.6-0.6,1.2-1.9,1.6c-1.3,0.4-2.8,0.6-4.6,0.6s-3.3-0.2-4.6-0.6c-1.3-0.4-1.9-1-1.9-1.6
		c0-0.6,0.6-1.1,1.9-1.5c1.3-0.5,2.8-0.7,4.6-0.7s3.3,0.2,4.6,0.7C1301.2,133.2,1301.8,133.8,1301.8,134.3z"/>
	<g>
		<path class="st5" d="M1296.8,126.2v6.7c0,0.4-0.1,0.8-0.5,1.1c-0.3,0.3-0.6,0.4-1,0.4c-0.4,0-0.8-0.1-1.1-0.4
			c-0.3-0.3-0.5-0.6-0.5-1.1v-6.7c0-0.4,0.2-0.8,0.5-1.1c0.3-0.3,0.7-0.4,1.1-0.4c0.4,0,0.8,0.1,1,0.4
			C1296.7,125.4,1296.8,125.7,1296.8,126.2z"/>
		<path class="st6" d="M1302.1,121.7c0,1.9-0.6,3.4-1.9,4.4c-1.2,0.9-2.7,1.3-4.7,1.3c-2,0-3.6-0.4-4.8-1.3c-1.3-1-2-2.5-2-4.4
			c0-2.3,0.7-4.8,2-7.5c1.5-2.9,3-4.4,4.8-4.4s3.3,1.5,4.7,4.4C1301.5,116.9,1302.1,119.4,1302.1,121.7z"/>
	</g>
	<path class="st10" d="M1251.5,128.5c0,1.2-1.4,2.3-4.1,3.2c-2.8,0.9-6.1,1.3-9.9,1.3c-3.9,0-7.2-0.4-10-1.3c-2.8-0.9-4.2-2-4.2-3.2
		c0-1.3,1.4-2.3,4.2-3.2c2.7-0.9,6-1.3,10-1.3c3.9,0,7.2,0.5,9.9,1.3C1250.1,126.2,1251.5,127.2,1251.5,128.5z"/>
	<path class="st7" d="M714.7,127.7c2.9,0,5.4,0.3,7.4,1c2.1,0.7,3.1,1.5,3.1,2.4c0,0.9-1,1.7-3.1,2.4c-2.1,0.7-4.5,1-7.4,1
		c-2.9,0-5.4-0.3-7.5-1c-2.1-0.7-3.1-1.5-3.1-2.4c0-0.9,1-1.7,3.1-2.4C709.3,128,711.8,127.7,714.7,127.7z"/>
	<g>
		<path class="st11" d="M1131.8,112.2c-0.2-0.3-0.1-0.6,0.2-0.8l6-2c0.3-0.1,0.5,0,0.7,0.3l3,6.5c0.1,0.1,0.1,0.3,0,0.4
			c-0.1,0.2-0.2,0.3-0.4,0.3l-6.4,1c-0.2,0-0.4,0-0.5-0.2L1131.8,112.2z"/>
		<path class="st12" d="M1127.7,79.8c0.2-0.2,0.4-0.1,0.5,0.2l3,6.6l-4.1,1.5c-0.3,0.1-0.4,0.2-0.2,0.6l2,4.5l-6.4,3l-2.5-5.5
			c-0.1-0.3-0.3-0.3-0.6-0.2l-1.1,0.6l-1.8-4c-0.1-0.2-0.1-0.5,0.2-0.6L1127.7,79.8z"/>
		<path class="st13" d="M1137.2,84.5c0.3-0.1,0.5,0,0.6,0.3l4.5,9.8c0.1,0.3,0.1,0.5-0.2,0.6l-3.8,2.4l-1-2.2
			c-0.1-0.2-0.3-0.3-0.6-0.2l-5.6,2.5l-2.1-4.6l4-1.9c0.3-0.1,0.3-0.3,0.2-0.6l-1.9-4.1L1137.2,84.5z"/>
		<path class="st14" d="M1131.3,86.6l1.9,4.1c0.1,0.3,0,0.5-0.2,0.6l-4,1.9l-2-4.5c-0.1-0.3-0.1-0.5,0.2-0.6L1131.3,86.6z"/>
		<path class="st15" d="M1140.8,103.3c0.1,0.3,0.1,0.5-0.1,0.7l-7.3,5.4c-0.2,0.2-0.4,0.1-0.6-0.2l-4.4-9.7c-0.1-0.3,0-0.5,0.2-0.6
			l2.4-1.1l1.2,2.8c0.2,0.3,0.4,0.4,0.7,0.2l5.2-3.1L1140.8,103.3z"/>
		<path class="st16" d="M1136.7,95.3c0.3-0.1,0.5,0,0.6,0.2l1,2.2l-5.3,3.1c-0.2,0.1-0.4,0-0.6-0.2l-1.2-2.8L1136.7,95.3z"/>
		<path class="st17" d="M1112.3,94.7c-0.1-0.3,0-0.5,0.2-0.7l6.8-3.5c0.3-0.1,0.5-0.1,0.6,0.2l4.9,10.7c0.1,0.3,0,0.4-0.3,0.5
			l-7.3,2.4c-0.3,0.1-0.5,0-0.7-0.3L1112.3,94.7z"/>
	</g>
	<g>
		<path class="st4" d="M828.1,143.4c0,0.7-1.8,1.3-5.5,1.8c-3.6,0.5-8,0.7-13.2,0.7c-5.2,0-9.6-0.2-13.3-0.7
			c-3.6-0.5-5.4-1.1-5.4-1.8c0-0.7,1.8-1.3,5.4-1.8c3.6-0.5,8-0.7,13.3-0.7c5.2,0,9.5,0.2,13.2,0.7
			C826.2,142.1,828.1,142.7,828.1,143.4z"/>
		<g>
			<g>
				<g>
					<path class="st18" d="M813.5,111.2l-0.7,2.4c0.4,1,1.3,1.5,2.9,1.6c0-0.3,0.1-0.6,0.2-1c0.1-0.2,0.1-0.4,0.2-0.5
						c-0.6-0.2-1.1-0.5-1.5-0.9c-0.1-0.1-0.1-0.1-0.2-0.2C814.1,112.1,813.8,111.7,813.5,111.2z"/>
					<path class="st19" d="M813.5,111.2c0.3,0.5,0.6,0.9,1,1.3c0.1,0.1,0.1,0.1,0.2,0.2c0.4,0.4,0.9,0.7,1.5,0.9
						c0.3-0.5,0.7-1.1,1.2-1.8c0-0.4-0.1-0.8-0.2-1.1c-0.4-1.4-1.3-2.4-2.7-2.9L813.5,111.2z"/>
				</g>
				<g>
					<g>
						<path class="st18" d="M823.6,92.5l1.2,2.9l0.8,3.6c0-0.2,0.1-0.3,0.1-0.5c-0.2-2.2-0.8-4.3-1.8-6.1
							C823.8,92.5,823.7,92.5,823.6,92.5z M813,100l0.1,4.7c0.3,0.4,0.6,0.9,0.8,1.3c0.1,0.2,0.3,0.4,0.4,0.6c0,1.8,0.3,3.4,1,4.6
							c0.4,0.8,1,1.5,1.7,2.2c0.1,0.1,0.2,0.2,0.4,0.2c0.7,0.4,1.4,0.8,1.9,1l0.1,0.1c0.1,0,0.1,0,0.2,0.1c0.6,0.2,1.1,0.4,1.5,0.5
							c0.9,0.1,1.7-0.5,2.6-2c0.4-0.7,0.8-1.4,1.1-2c0.1-0.3,0.3-0.6,0.4-0.9c0.1-0.2,0.2-0.4,0.2-0.7c0.1-0.2,0.1-0.5,0.2-0.7
							l0.5-2c-0.3,0-0.5-0.2-0.7-0.4l1.7-0.8c-0.5-0.4-1-0.7-1.3-1.2c0,0-0.1-0.1-0.1-0.1c-0.1-0.1-0.1-0.2-0.2-0.3
							c-0.1-0.1-0.1-0.2-0.2-0.4c-0.2-0.5-0.3-1.1-0.2-2c0-0.2,0-0.5,0.1-0.7l-0.7-3.5L824,97v2.4c-1.3-0.6-2.4-1.6-3.2-2.9
							c-0.6,0.1-1.1,0.3-1.7,0.5C816.9,97.7,814.9,98.7,813,100C813,100,813,100,813,100z"/>
						<path class="st19" d="M825.5,99.1l-0.8-3.6l-1.2-2.9c-4,1.2-7.5,3.4-10.7,6.5l0,1c0,0,0.1,0,0.1-0.1c1.8-1.3,3.8-2.3,6-3.1
							c0.5-0.2,1.1-0.4,1.7-0.5c0.9,1.3,1.9,2.3,3.2,2.9V97l0.4,0.6l0.7,3.5c0.1-0.5,0.2-1.2,0.4-1.8
							C825.5,99.2,825.5,99.1,825.5,99.1z M827.1,105.8l-1.7,0.8c0.1,0.3,0.3,0.4,0.7,0.4C826.5,106.7,826.8,106.3,827.1,105.8z
							 M813.1,104.8l0.1,2.2c0.1,1,0.4,2,0.8,2.8c0.2,0.6,0.5,1.1,0.8,1.5c0.6,0.8,1.3,1.6,2.2,2.2c-0.7-0.6-1.2-1.3-1.7-2.2
							c-0.7-1.3-1-2.8-1-4.6c-0.1-0.2-0.2-0.4-0.4-0.6C813.6,105.6,813.4,105.2,813.1,104.8z"/>
					</g>
					<g>
						<g>
							<path class="st9" d="M820.7,101.8c1.3-0.1,2.5,0.1,3.5,0.6c0,0.5,0,1-0.1,1.5c0,0.5-0.1,0.9-0.2,1.4c-0.7-0.1-1.4-0.4-2-0.8
								c-0.2-0.2-0.5-0.4-0.7-0.6c-0.1-0.1-0.2-0.2-0.2-0.2c0,0,0,0,0,0c-0.2-0.3-0.3-0.8-0.3-1.3
								C820.8,102.1,820.7,102,820.7,101.8z"/>
							<path class="st20" d="M824.2,102.4c-1-0.4-2.2-0.6-3.5-0.6c0-0.3,0-0.6,0-0.9h0c1.1-0.3,2.3-0.3,3.5-0.2c0,0.2,0,0.5,0,0.7
								c0,0.3,0,0.5,0,0.8C824.2,102.3,824.2,102.4,824.2,102.4z"/>
							<path class="st21" d="M824.2,100.8c-1.2-0.1-2.4-0.1-3.5,0.2h0c0,0.3,0,0.6,0,0.9c0,0.2,0,0.3,0,0.4c0.1,0.5,0.2,1,0.3,1.3
								c-0.3-0.4-0.5-0.8-0.7-1.3c-0.1-0.5-0.2-1.1-0.2-1.8c1.4-0.4,2.7-0.5,4-0.3L824.2,100.8z"/>
						</g>
						<g>
							<path class="st22" d="M823.7,101.4c0-0.1,0-0.2,0.1-0.2c0.1,0,0.1,0,0.2,0.1c0.1,0.1,0.1,0.2,0.2,0.3c0,0.1,0,0.3,0,0.4
								c0,0.1-0.1,0.2-0.1,0.2s-0.1,0-0.2-0.1c-0.1-0.1-0.1-0.2-0.2-0.3C823.6,101.7,823.6,101.5,823.7,101.4z M823.7,100.9
								c-0.2,0-0.3,0.2-0.4,0.5c-0.1,0.4-0.2,0.8-0.2,1.4c0,0.5,0.1,1,0.2,1.4c0.1,0.4,0.2,0.6,0.4,0.6c0.2,0,0.3-0.2,0.5-0.6
								c0.1-0.4,0.2-0.8,0.2-1.4c0-0.5,0-1-0.1-1.4C824,101.1,823.9,100.9,823.7,100.9z M823.7,103.3c0.1,0.1,0.2,0.2,0.2,0.4
								c0,0.2,0.1,0.3,0,0.5c0,0.1-0.1,0.2-0.2,0.2c-0.1,0-0.2,0-0.3-0.1c-0.1-0.1-0.2-0.2-0.2-0.4c0-0.2,0-0.3,0-0.5
								c0-0.1,0.1-0.2,0.2-0.2C823.5,103.1,823.6,103.2,823.7,103.3z"/>
							<path class="st23" d="M823.7,103.3c-0.1-0.1-0.2-0.1-0.3-0.1c-0.1,0-0.2,0.1-0.2,0.2c0,0.2,0,0.3,0,0.5
								c0,0.2,0.1,0.3,0.2,0.4c0.1,0.1,0.2,0.2,0.3,0.1c0.1,0,0.2-0.1,0.2-0.2c0-0.1,0-0.3,0-0.5
								C823.8,103.5,823.8,103.4,823.7,103.3z"/>
							<path class="st9" d="M823.7,101.4c0,0.1,0,0.2,0,0.4c0,0.1,0.1,0.2,0.2,0.3c0.1,0.1,0.1,0.1,0.2,0.1s0.1-0.1,0.1-0.2
								c0-0.1,0-0.2,0-0.4c0-0.1-0.1-0.2-0.2-0.3c-0.1-0.1-0.1-0.1-0.2-0.1C823.7,101.2,823.7,101.3,823.7,101.4z"/>
						</g>
						<path class="st24" d="M823.6,99.1C823.6,99.1,823.6,99.1,823.6,99.1c-0.1-0.1-0.1-0.1-0.2-0.1c-0.1-0.1-0.2-0.2-0.4-0.3
							c0,0,0,0,0-0.1c-0.7-0.4-1.4-0.8-2.3-1.1c-0.1,0-0.2-0.1-0.2-0.1c-0.1,0-0.2-0.1-0.3-0.1c0,0-0.1,0.1-0.1,0.1
							c-0.5,0.5-0.8,1.1-1.2,1.8c0.2,0,0.4,0.1,0.6,0.2c1,0.2,2.1,0.6,3,1c0.2,0.1,0.4,0.2,0.6,0.3c0.3,0.2,0.7,0.4,1.1,0.6
							c0,0,0,0,0,0l0.9-1c-0.1-0.1-0.1-0.1-0.2-0.2c-0.1-0.1-0.2-0.2-0.3-0.3C824.3,99.7,824,99.4,823.6,99.1z"/>
						<g>
							<path class="st9" d="M825.3,109.3l-0.2,0.8c-0.8,0-1.7-0.4-2.8-1.1c0,0,0,0,0,0c0.3-0.5,0.7-0.8,0.9-0.8c0.1,0,0.2,0,0.2,0
								c0,0,0,0,0,0C824.1,108.7,824.7,109.1,825.3,109.3z M821.1,112c0.9,0.4,1.6,0.6,2.1,0.6c0.1,0,0.1,0,0.2,0c0,0,0.1,0,0.1,0
								c0.1,0,0.3,0,0.4-0.1l-0.4,0.7c-0.6,0.2-1.3,0.3-2,0.2c-0.3,0-0.5-0.2-0.5-0.5c0-0.1,0-0.1,0-0.2
								C821.1,112.4,821.1,112.2,821.1,112z"/>
							<path class="st25" d="M822.3,108.9c1.1,0.8,2,1.1,2.8,1.1l0.2-0.8c0.1,0,0.1,0,0.2,0c-0.4,1.4-0.9,2.7-1.7,3.8
								c-0.1,0-0.2,0.1-0.2,0.1l0.4-0.7c0,0,0-0.1-0.1-0.1c-0.5-0.9-1.2-1.6-2.2-2.1c0,0,0,0,0,0C821.8,109.7,822,109.3,822.3,108.9
								z"/>
							<path class="st26" d="M821.6,110.2C821.6,110.2,821.6,110.2,821.6,110.2c1,0.5,1.8,1.2,2.3,2.2c0.1,0.1,0.1,0.1,0.1,0.1
								c-0.1,0-0.3,0.1-0.4,0.1c0,0-0.1,0-0.1,0c-0.1,0-0.1,0-0.2,0c-0.6,0-1.3-0.2-2.1-0.6C821.2,111.4,821.4,110.8,821.6,110.2z"
								/>
						</g>
					</g>
					<g>
						<g>
							<g>
								<path class="st27" d="M806.8,109.7c0.1,0,0.1,0,0.2,0c0.3,0.5,0.8,0.8,1.4,1c-0.3,1.1-0.6,2-1.1,2.8c-1,1-2.7,1.8-5.1,2.5
									c0-0.1,0-0.1,0-0.2c0,0,0,0,0,0C805.2,115,806.8,113,806.8,109.7z"/>
								<path class="st28" d="M806.8,109.7c0,3.3-1.5,5.3-4.5,6c0.2-1.4,0.8-2.8,1.7-4.4C804.8,110.5,805.7,110,806.8,109.7z"/>
								<path class="st29" d="M807,109.7L807,109.7c0-0.1-0.1-0.2-0.1-0.3l-0.1-0.6c0.4,0.3,0.9,0.5,1.4,0.8l1.5,1.1l-1,0.1h-0.2
									c0,0-0.1,0-0.1,0C807.8,110.5,807.3,110.1,807,109.7z"/>
							</g>
						</g>
						<g>
							<g>
								<path class="st27" d="M813.9,79.2c1.2,2,2,4,2.3,5.9l-1.5-2.4h-0.1l-0.8-3.5C813.8,79.2,813.9,79.2,813.9,79.2z M799.2,77.1
									c-0.4,4.1,0,8.1,1,11.9l-1.1-1.8h-0.1v0c-0.4-2.2-0.5-4.4-0.3-6.8C798.8,79.4,799,78.3,799.2,77.1L799.2,77.1z M797,91.8
									c-0.8-1.9-1-4.1-0.5-6.4h0c0.1,3.1,0.6,5.7,1.5,7.8L797,91.8L797,91.8z M824.8,89.2c0.4,0.3,0.6,0.5,0.6,0.8
									c0,0.2,0,0.3,0,0.5l-3,1.6c0.5-0.1,1-0.2,1.5-0.3l0.9,2.4c-2.3,0.6-4,1.3-5.2,2.2c-1.2,0.6-2.3,1.2-3.4,1.9
									c-0.9,0.6-1.7,1.2-2.4,1.8c0.8,4.6,0.6,8.8-0.6,12.5l-0.7-0.2c-8.3-2.9-13.4-6.9-15.2-12c0,0,0,0,0,0v0
									c0-0.2-0.1-0.3-0.2-0.5l0,0c0.1,0.2,0.2,0.4,0.3,0.5v0c2,2.6,4.9,4.2,8.7,4.8v0c1.7-2.9,3.6-5.3,5.7-7.3l-0.5,0.3l0.8-1.4
									c-0.4-0.4-0.8-1.2-1-2.3c0.5,0.8,1.1,1.3,1.8,1.6l2.5-1.6c-0.9-1.1-1.6-2.3-2-3.7c1.2,1.4,2.4,2.3,3.5,2.8c0,0,0.1,0,0.1,0
									c0,0,0.1,0,0.1,0c2.3-1.3,4.3-2.2,5.8-2.7c0.3-0.7,0.8-1.3,1.5-1.8C824.5,88.9,824.7,89,824.8,89.2z M821.4,82.8
									c0.1,0.2,0.3,0.3,0.4,0.5c0.9,1.7,1.2,3.2,1.2,4.2l-0.9-1.8v-0.1l-0.8-2.9C821.3,82.7,821.4,82.8,821.4,82.8z M800.8,101.8
									l-1.3-0.9c0,0-0.1-0.1-0.1-0.1c-0.9-0.8-1.8-1.8-2.6-3c0-0.1-0.1-0.1-0.1-0.2c-0.7-1.9-1.1-4.3-1.1-7.1h0
									c0.4,2.6,1,4.9,1.8,6.7h0c0.1,0.1,0.1,0.3,0.2,0.4C798.5,99.4,799.6,100.8,800.8,101.8L800.8,101.8z"/>
								<path class="st30" d="M799.2,77c8,0.9,13.1,2.8,15.4,5.7h0.1l1.5,2.4C811.5,80.7,805.8,78,799.2,77L799.2,77z M796.5,85.3
									l2.6,1.9h0.1l1.1,1.8v0h0L796.5,85.3z M798,93.1l-2.4-2.5l1.4,1.2h0L798,93.1z M797,99.7l2.4,1.2l1.3,0.9l-3.4-1.6v0
									C797.2,100,797.2,99.8,797,99.7z M821.8,83.2c1.8,1.7,3,3.7,3.6,6c0,0.2,0,0.5,0,0.7c0-0.2-0.2-0.5-0.6-0.8
									C824.3,87,823.3,85,821.8,83.2L821.8,83.2z M823,87.5c-2.5-3.6-5.5-6.3-9-8.3c3.7,1.6,6.4,3.7,8.1,6.4h0v0.1L823,87.5z"/>
								<path class="st28" d="M824.8,94l-0.9-2.4c-0.5,0.1-1,0.2-1.5,0.3l3-1.6c0.1,1.2,0.2,2.3,0.2,3.4
									C825.5,93.9,825.2,94,824.8,94z M821.4,82.8c0.2,0.1,0.3,0.3,0.4,0.4l0,0c1.5,1.8,2.5,3.7,3,5.9c-0.2-0.1-0.4-0.3-0.6-0.4
									c-0.6,0.5-1.1,1.1-1.5,1.8c-1.5,0.5-3.5,1.4-5.8,2.7c0,0-0.1,0-0.1,0c0,0-0.1,0-0.1,0c-1.1-0.4-2.3-1.3-3.5-2.8
									c0.4,1.4,1,2.6,2,3.7l-2.5,1.6c-0.7-0.3-1.3-0.8-1.8-1.6c0.3,1.1,0.6,1.9,1,2.3l-0.8,1.4l0.5-0.3c-2.1,2-4,4.4-5.7,7.3v0
									c-3.8-0.6-6.7-2.2-8.7-4.8l3.4,1.6l0,0c-1.2-1-2.3-2.4-3.2-4.2c-0.1-0.1-0.1-0.3-0.2-0.4h0c-0.9-1.8-1.5-4.1-1.8-6.7l0.1,0
									l2.4,2.5c-0.8-2.1-1.3-4.7-1.5-7.8h0v0l0,0l3.7,3.7h0v0c-1.1-3.8-1.4-7.7-1-11.9h0v0h0v0c6.6,0.9,12.3,3.6,17,8
									c-0.3-1.9-1.1-3.9-2.3-5.9c3.5,2,6.5,4.7,9,8.3c0.1-1.1-0.3-2.5-1.2-4.2C821.7,83.1,821.5,83,821.4,82.8z M797,99.7
									L797,99.7L797,99.7L797,99.7z M819.6,96.3l-2.9,4.2l-0.2,4l-2.7-4.5c0.7-0.7,1.5-1.3,2.4-1.8
									C817.3,97.5,818.4,96.9,819.6,96.3z M795.5,90.5L795.5,90.5L795.5,90.5L795.5,90.5z"/>
							</g>
						</g>
					</g>
					<g>
						<g>
							<path class="st29" d="M804.7,108.1c3.5-6.7,8.6-11.2,15.5-13.5c0.1-1.2,0.4-2.2,0.9-3c-2.2,0.8-3.9,1.5-5,2.1
								c-1.2,0.6-2.1,1.2-2.8,1.7c-0.7,0.5-1.8,1.3-3.1,2.4l0,0c-3.1,3.1-5.2,6.3-6.5,9.7C803.9,107.7,804.3,107.9,804.7,108.1z"/>
							<path class="st31" d="M804.7,108.1c0.1,0,0.1,0,0.2,0.1c0.2,0.1,0.4,0.2,0.6,0.2c1.9-4.2,4.6-7.4,8.2-9.6
								c3.6-2.2,7.6-3.8,12-4.8c0.1-0.3,0.1-0.6,0.1-0.9c0-0.9-0.2-1.9-0.7-2.9c-1.3,0.4-2.6,0.8-4,1.3c-0.5,0.8-0.8,1.8-0.9,3
								C813.3,96.9,808.2,101.4,804.7,108.1z"/>
						</g>
						<g>
							<path class="st19" d="M814.4,104.9C814.4,104.9,814.4,104.9,814.4,104.9l-0.4-3.6c-0.7-0.7-1.3-0.9-1.9-0.8
								c-0.8,0.3-1.1,1-1,1.9c0.3-0.7,0.8-1,1.4-1c0.4,0,0.8,0.2,1.1,0.6c-0.7-0.1-1.2,0.1-1.5,0.6c-0.2,0.7-0.1,1.2,0.3,1.7
								C813,104.7,813.7,104.9,814.4,104.9z"/>
							<path class="st18" d="M814,101.2l-0.1-1c-0.9-0.8-1.8-0.9-2.6-0.1c-0.6,0.7-0.8,1.6-0.6,2.8c0,0.2,0.1,0.4,0.1,0.6
								c0.9,2.1,2.1,3.2,3.8,3.1l-0.2-1.8c-0.8,0.1-1.4-0.2-1.9-0.7c-0.4-0.4-0.6-1-0.3-1.7c0.3-0.5,0.8-0.7,1.5-0.6
								c-0.3-0.4-0.7-0.6-1.1-0.6c-0.6,0-1.1,0.3-1.4,1c-0.1-0.9,0.2-1.5,1-1.9C812.7,100.3,813.4,100.6,814,101.2z"/>
						</g>
						<g>
							<path class="st30" d="M830.7,94.5c0-0.5-0.1-1-0.1-1.4c-0.2-1.3-0.8-2.3-1.8-3.1c-1.1-0.8-2.5-1.1-4.2-1.1
								c-0.6,0.6-1.1,1.4-1.6,2.4c0.6-0.7,1.2-1.3,1.8-1.9C827.7,89.3,829.7,91,830.7,94.5z"/>
							<path class="st28" d="M821,94c0-0.2,0-0.3,0.1-0.4c0.5,1.9,1.1,3.6,2,5c0.2,0.2,0.4,0.3,0.6,0.5l-0.3-2.9
								c0,0,0.1,0.1,0.1,0.1l-0.2-1.6c2.1,2.1,3.2,4.3,3.3,6.6c1.5-1.5,2.2-2.9,2.1-4.2c0-1.2-0.3-2.1-0.6-2.8
								c0-0.1-0.1-0.1-0.1-0.2c0,0,0,0,0-0.1c0,0,0,0,0,0l-1-1.6c2.2,1.3,3.4,2.7,3.6,4.1c0.1-0.7,0.2-1.4,0.2-2
								c-1.1-3.6-3-5.2-5.9-5c-0.6,0.6-1.2,1.2-1.8,1.9l-1.3,0.1C821.2,92.2,821,93,821,94z"/>
							<path class="st27" d="M830.5,96.6c-0.2-1.4-1.4-2.8-3.6-4.1l1,1.6C829,94.6,829.9,95.4,830.5,96.6z M826.6,101.3
								c-0.1-2.4-1.2-4.6-3.3-6.6l0.2,1.6c1.3,1.8,2.3,3.5,3,5.1C826.5,101.4,826.6,101.4,826.6,101.3z M821,94
								c0,0.3,0.1,0.7,0.1,1.1c0.2,1.2,0.9,2.3,2,3.4c-0.9-1.4-1.6-3-2-5C821.1,93.7,821.1,93.8,821,94z"/>
						</g>
					</g>
				</g>
				<g>
					<g>
						<path class="st32" d="M808.6,129.9c0.4,0.7,0.9,1.2,1.5,1.5l-1.1,1.7c-0.8,0.2-1.2-0.1-1.5-0.8
							C807.8,131.5,808.2,130.7,808.6,129.9z"/>
						<path class="st33" d="M810.1,131.4c-0.6-0.3-1-0.8-1.5-1.5c0.1-0.2,0.2-0.3,0.3-0.5c0.3-0.5,0.6-1,0.9-1.5
							c0.9-0.1,1.6,0.3,2.1,1.1L810.1,131.4z"/>
					</g>
					<g>
						<path class="st32" d="M800.4,135.2c0.2,0.6,0.5,1.1,0.9,1.7c2.1-1.2,4.4-2.3,6.7-3.4c0,0,0,0,0.1,0c0,0-0.1-0.1-0.1-0.1
							c-0.1-0.3,0-0.5,0.5-0.8c-0.1,0.3-0.2,0.6-0.1,0.8l0,0c0.2-0.1,0.4-0.2,0.5-0.2c0.1-0.6-0.2-1.1-0.7-1.5
							c-0.9,0-1.8,0.3-2.7,0.6C803.8,133,802.1,134,800.4,135.2z"/>
						<path class="st33" d="M808.4,133.3c-0.1-0.2,0-0.5,0.1-0.8c-0.4,0.3-0.6,0.6-0.5,0.8c0,0,0,0.1,0.1,0.1L808.4,133.3z"/>
						<path class="st34" d="M801.3,136.9c-0.4-0.6-0.7-1.1-0.9-1.7l-2.3,1.2c0.1,0.8,0.5,1.4,1.1,1.9l1.4-1
							C800.9,137.2,801.1,137,801.3,136.9z"/>
					</g>
					<g>
						<path class="st35" d="M796.7,136.9l2.6,4.4c0.5,0.6,1.1,1.3,1.8,1.9l0.8,0c0.1-0.4,0.1-0.7,0.1-1.1c-0.7-0.7-1.1-1.2-1.2-1.5
							c-0.2-0.4-0.2-0.6-0.2-0.6c-0.2,0-0.4,0.1-0.6,0.2c-0.2-0.1-0.2-0.2-0.2-0.4c0.2-0.1,0.5-0.2,0.7-0.3c0-0.1,0-0.1,0-0.2
							c-0.3,0-0.6,0.1-0.8,0.2c-0.2-0.1-0.2-0.3-0.1-0.4c0.3-0.1,0.6-0.1,0.9-0.1c0-0.1,0-0.1,0-0.2c-0.3,0-0.6,0-0.9,0.1
							c-0.1-0.2-0.2-0.3-0.1-0.4c0.3-0.1,0.6-0.1,1-0.1c0-0.1,0-0.1,0-0.2c-0.4-0.1-0.7-0.1-1,0c-0.1-0.1-0.1-0.2,0-0.3
							c0.4-0.1,0.7-0.1,1.1,0c0-0.2,0.1-0.3,0.2-0.5c-0.4-0.2-0.8-0.2-1.2,0c0,0-0.1,0-0.1,0c-0.4,0.1-0.6,0.1-0.8-0.1
							c-0.1-0.2-0.2-0.4-0.1-0.6c0.1-0.3,0.3-0.5,0.5-0.7c0.1-0.1,0.2-0.2,0.2-0.4C798.1,136,797.3,136.3,796.7,136.9z"/>
						<path class="st36" d="M800.3,138.4c-0.3,0-0.7,0-1,0.1c-0.1,0.1-0.1,0.3,0.1,0.4c0.3-0.1,0.6-0.1,0.9-0.1
							C800.4,138.7,800.4,138.6,800.3,138.4z M800.4,138.2c0.1-0.1,0.1-0.2,0.1-0.3c-0.4-0.1-0.7-0.1-1.1,0c-0.1,0.1-0.1,0.2,0,0.3
							C799.7,138.1,800,138.1,800.4,138.2z M800.4,139.6c-0.3,0-0.5,0.1-0.7,0.3c0,0.2,0.1,0.3,0.2,0.4c0.3-0.1,0.5-0.2,0.6-0.2
							C800.6,139.8,800.6,139.7,800.4,139.6z M800.4,139.4c0.1-0.2,0-0.3-0.1-0.4c-0.3,0-0.6,0.1-0.9,0.1c-0.1,0.1,0,0.3,0.1,0.4
							C799.8,139.5,800.1,139.4,800.4,139.4z"/>
						<path class="st37" d="M796.7,136.9l-0.8,0.5l3.3,4.1c0.7,0.7,1.3,1.4,1.9,1.8l0.8,0c0-0.1,0.1-0.1,0.1-0.2l-0.8,0
							c-0.7-0.6-1.3-1.2-1.8-1.9L796.7,136.9z"/>
					</g>
					<path class="st38" d="M810.2,126.5c0.3,0.1,0.6,0.1,0.9,0.2c1.6,0.5,3,1.4,4.2,2.6l-1.6,3c-1-0.3-1.7-0.6-2.1-0.8
						c-0.4-0.2-0.7-0.3-1-0.5c-0.3-0.2-0.7-0.6-1.4-1.3c-0.2-0.3-0.4-0.5-0.5-0.6l1.2-3.2L810.2,126.5z"/>
					<g>
						<path class="st18" d="M819.3,128.6c0.2,0.8,0.2,1.6,0,2.4c1,0.4,2,0.7,3,0.9c0.7-0.3,0.9-0.8,0.6-1.6L819.3,128.6z"/>
						<path class="st19" d="M819.3,128.6l-0.9-0.4c-0.7,0.6-1,1.3-0.8,2.2c0.6,0.2,1.1,0.4,1.7,0.6
							C819.5,130.2,819.5,129.4,819.3,128.6z"/>
					</g>
					<g>
						<path class="st18" d="M817.9,138.3c0.5,0.3,1.1,0.5,1.8,0.7c0.9-2.3,1.8-4.6,2.9-7c0,0,0-0.1,0-0.1c0,0-0.1,0-0.1,0
							c-0.3-0.1-0.3-0.4-0.2-0.9c0.1,0.3,0.3,0.5,0.5,0.7l0,0c0.1-0.2,0.2-0.4,0.2-0.5c-0.3-0.5-0.8-0.7-1.5-0.7
							c-0.7,0.6-1.2,1.4-1.7,2.3C819.1,134.4,818.4,136.3,817.9,138.3z"/>
						<path class="st9" d="M819.7,139c-0.7-0.2-1.3-0.4-1.8-0.7l-1,2.4c0.6,0.5,1.3,0.8,2.1,0.7l0.4-1.7
							C819.5,139.4,819.6,139.2,819.7,139z"/>
						<path class="st19" d="M822.7,131.6c-0.2-0.1-0.3-0.3-0.5-0.7c-0.1,0.5,0,0.8,0.2,0.9c0,0,0.1,0,0.1,0L822.7,131.6z"/>
					</g>
					<g>
						<g>
							<path class="st19" d="M818.2,119.1l0.2-1.4l-1.6-0.4c-0.5,0.3-0.6,0.7-0.4,1.2C817,118.6,817.6,118.9,818.2,119.1z"/>
							<path class="st32" d="M818.4,117.7l-0.2,1.4c0.7,0.2,1.4,0.5,2.2,0.7c0.2-0.5,0.3-1,0.2-1.4L818.4,117.7z"/>
						</g>
						<g>
							<path class="st39" d="M817,116.3c-0.4,1.1-0.9,2-1.6,2.8l-2.9-1.5c-0.5-0.4-0.7-1-0.6-1.7c0.4-0.6,1-0.8,1.8-0.7L817,116.3z"
								/>
							<path class="st38" d="M815.4,119.1c0.7-0.8,1.2-1.7,1.6-2.8l0.6,0.2c-0.4,1.3-0.9,2.3-1.5,2.9L815.4,119.1z"/>
						</g>
						<path class="st32" d="M820.2,119.7c1.9,0.3,3.7,0.4,5.4,0.4c0.3-0.7,0.2-1.4-0.2-1.9c-1.6-0.1-3.2,0-4.9,0.2
							C820,118.7,819.9,119.2,820.2,119.7z"/>
						<g>
							<path class="st19" d="M827.1,120.4c-0.4,0.1-0.6,0-0.6-0.2c0-0.1,0-0.1,0-0.2c0-0.2,0-0.4,0-0.7c0-0.1,0-0.3-0.1-0.5
								c0,0,0,0,0,0c0-0.2-0.1-0.4-0.3-0.5c0,0,0,0,0,0l-0.1-0.1c0.7-0.2,1.2,0.2,1.4,1.1c0,0,0,0,0,0.1c0.1,0.2,0.2,0.4,0.4,0.6
								c0.1,0.1,0.2,0.2,0.3,0.3l0,0c0.1,0.2,0.2,0.4,0.4,0.6c0,0,0,0,0,0c0,0,0,0.1,0.1,0.1c0,0,0,0,0,0.1c0,0,0,0.1,0,0.1
								c-0.1,0.1-0.2,0.2-0.4,0.1c0,0-0.1,0-0.1,0c-0.3-0.1-0.5-0.3-0.6-0.7C827.4,120.6,827.3,120.5,827.1,120.4z M826.8,121.8
								l-0.1-0.2L826.8,121.8C826.8,121.8,826.8,121.8,826.8,121.8z M825,120.7l0.3,1l0.5,0.7c0,0.1,0.1,0.1,0.2,0.1h0.6
								c0.1,0,0.1,0,0.2-0.1l0,0l0.5-0.7c0.1-0.1,0.1-0.2,0.1-0.2c0,0,0,0,0.1,0l0,0c0,0,0,0,0,0c0,0.1,0.1,0.1,0.1,0.2c0,0,0,0,0,0
								c0,0,0,0.1,0,0.1c-0.2,0.2-0.3,0.4-0.4,0.6c-0.1,0.1-0.2,0.2-0.3,0.2H826c-0.1,0-0.2,0-0.2-0.1l-0.6-0.8
								c-0.1-0.2-0.1-0.4-0.1-0.6c0,0,0,0,0,0C825.1,120.9,825,120.8,825,120.7z M826.4,121.9l-0.1-0.3L826.4,121.9
								C826.5,121.9,826.5,121.9,826.4,121.9z M825.8,122.7l0.8,0.1c0.1,0,0.2,0,0.2,0l0.9-0.9c0,0,0,0,0,0c0.1-0.1,0-0.2-0.1-0.2
								c0,0,0.1,0,0.1,0.1c0,0,0,0.1,0,0.1c0,0,0,0.1-0.1,0.1l-0.9,1c-0.1,0.1-0.2,0.1-0.4,0l-0.2-0.1l0.5,0.2c0,0,0.1,0,0.1,0l1-1
								c0.1-0.1,0.1-0.2-0.1-0.2c0.1,0,0.1,0,0.1,0c0.1,0,0.1,0.1,0,0.2l-0.4,0.3l-0.6,0.6c0.1,0.1,0.3,0,0.5-0.1
								c0.2-0.1,0.4-0.2,0.7-0.3c0.2-0.1,0.2-0.1,0.2-0.3c0,0,0,0,0,0.1c0.1,0.1,0,0.2-0.1,0.2c0,0-0.1,0-0.1,0
								c-0.2,0.1-0.5,0.2-0.7,0.4c-0.2,0.1-0.3,0.1-0.5-0.1l0,0c-0.1,0.1-0.1,0.1-0.2,0l-0.4-0.2L825.8,122.7z"/>
							<path class="st33" d="M827,121.6c-0.1,0-0.1,0.1-0.2,0.2l-0.1-0.2l0.1,0.2c0,0-0.1,0.1-0.1,0.1c-0.1,0-0.1,0-0.2,0l-0.2-0.3
								l0.1,0.3c-0.1,0-0.2,0-0.2,0c0-0.1-0.1-0.3-0.2-0.4c0.1-0.2,0.1-0.5,0.1-0.8c0.2-0.1,0.3-0.3,0.4-0.5
								c0.1,0.2,0.3,0.3,0.6,0.2C827,120.7,827,121.1,827,121.6z"/>
							<path class="st32" d="M827.4,121.4c0.1,0,0,0.1-0.1,0.2l-0.5,0.7l0,0c-0.1,0-0.1,0.1-0.2,0.1H826c-0.1,0-0.1,0-0.2-0.1
								l-0.5-0.7l-0.3-1c0,0-0.1-0.1-0.1-0.1c-0.1-0.3-0.2-0.7-0.2-1c0-0.1,0-0.1,0-0.2c0-0.2,0-0.3,0.1-0.5
								c0.1-0.5,0.4-0.7,0.8-0.7c0.2,0,0.3,0,0.4,0.1l0.1,0.1c0,0,0,0,0,0c0.1,0.1,0.2,0.3,0.3,0.5c0,0,0,0,0,0c0,0.2,0,0.3,0.1,0.5
								c0,0.3,0,0.5,0,0.7c0,0.1,0,0.1,0,0.2c-0.1,0.3-0.2,0.4-0.4,0.5c0,0.3,0,0.6-0.1,0.8c0.1,0.1,0.2,0.2,0.2,0.4
								c0.1,0,0.2,0,0.2,0c0,0,0.1,0,0.1,0c0,0,0.1,0,0.2,0c0,0,0.1-0.1,0.1-0.1c0,0,0,0,0.1-0.1c0.1-0.1,0.1-0.1,0.2-0.2
								C827.2,121.5,827.3,121.4,827.4,121.4C827.4,121.4,827.4,121.4,827.4,121.4C827.4,121.4,827.4,121.4,827.4,121.4z
								 M825.8,122.7l-0.7-1l-0.1-0.7c0,0.2,0.1,0.4,0.1,0.6l0.6,0.8c0.1,0.1,0.1,0.1,0.2,0.1h0.7c0.1,0,0.2-0.1,0.3-0.2
								c0.1-0.2,0.3-0.4,0.4-0.6c0,0,0-0.1,0-0.1c0,0,0,0,0,0c0.1,0,0.2,0,0.2,0c0.1,0,0.1,0.1,0.1,0.2c0,0,0,0,0,0l-0.9,0.9
								c-0.1,0.1-0.2,0.1-0.2,0L825.8,122.7z M827.8,122.5c0.1-0.1,0.2-0.1,0.3-0.1c0.2,0,0.3,0,0.4,0.1c0.1,0.1,0,0.2-0.2,0.3
								c-0.2,0.1-0.4,0.2-0.7,0.3c-0.2,0.1-0.4,0.2-0.5,0.1L827.8,122.5z M828,121.9c0.2,0,0.2,0.1,0.1,0.2l-1,1c0,0-0.1,0-0.1,0
								l-0.5-0.2l0.2,0.1c0.1,0,0.3,0,0.4,0l0.9-1C827.9,122,828,121.9,828,121.9C828,121.9,828,121.9,828,121.9z"/>
						</g>
					</g>
					<g>
						<path class="st40" d="M812.3,125.1l3,0.5l0.1,0l3.4,2.5c0,0,0,0,0,0c-0.1,0.8-0.5,1.5-1,1.9l-4-1.5c-1.4-0.5-1.9-1.5-1.5-2.9
							C812.2,125.4,812.3,125.3,812.3,125.1z"/>
						<path class="st41" d="M818.8,128.1L818.8,128.1c-0.3,2.3-1.3,4-3,5l-2.9-1.6c-3.3-1.5-4.3-3.7-2.9-6.7l2.3,0.4
							c0,0.2-0.1,0.3-0.1,0.5c-0.4,1.4,0.1,2.4,1.5,2.9l4,1.5C818.3,129.6,818.6,128.9,818.8,128.1
							C818.8,128.1,818.8,128.1,818.8,128.1z"/>
					</g>
					<g>
						<g>
							<path class="st42" d="M815.8,115.3l-0.4,1c-0.4-0.5-0.9-0.9-1.4-1.2c-0.5-0.3-1-0.6-1.5-0.7l0.4-1c0.1,0.1,0.2,0.1,0.2,0.1
								c0.7,0.1,1.2,0.3,1.5,0.5c0.5,0.3,0.9,0.6,1.3,1L815.8,115.3z"/>
							<polygon class="st41" points="816.5,116.4 816.1,116.5 815.8,115.3 816,115 							"/>
							<path class="st9" d="M816.1,116.5l-0.5,1.5l0.4,0c-0.4,1.2-0.6,2.4-0.7,3.5c0,0.3,0,0.5,0,0.8c0,0.1,0,0.2,0,0.3
								c0,1,0.1,1.9,0.2,2.8c-2,0.9-4.1,1.1-6.3,0.6l0.7-1.2c-0.1-1-0.2-1.7-0.2-2.2c-0.1-0.7,0-1.5,0-2.3c0.6-3.3,1.6-5.3,3-6
								c0.6,0.1,1.1,0.4,1.5,0.7c0.5,0.3,0.9,0.7,1.4,1.2l0.4-1L816.1,116.5z"/>
							<path class="st43" d="M816,118l-0.4,0l0.5-1.5l0.4,0C816.3,117,816.1,117.5,816,118z"/>
						</g>
					</g>
					<g>
						<path class="st44" d="M816.5,142.1l5.1,1c0.8,0.1,1.7,0,2.6-0.1l0.6-0.6c-0.2-0.3-0.4-0.6-0.7-0.8c-0.9,0-1.6,0-2-0.1
							s-0.6-0.2-0.6-0.2c-0.1,0.1-0.2,0.3-0.3,0.6c-0.2,0-0.3,0-0.4-0.1c0-0.3,0.1-0.5,0.3-0.7c-0.1,0-0.1-0.1-0.2-0.1
							c-0.2,0.2-0.3,0.5-0.4,0.7c-0.2,0-0.3,0-0.4-0.2c0.1-0.3,0.3-0.5,0.5-0.7c-0.1,0-0.1-0.1-0.2-0.1c-0.2,0.2-0.4,0.5-0.5,0.8
							c-0.2,0-0.3-0.1-0.4-0.3c0.2-0.3,0.4-0.5,0.6-0.8c0-0.1-0.1-0.1-0.1-0.2c-0.3,0.2-0.5,0.5-0.7,0.8c-0.1,0-0.2-0.1-0.2-0.2
							c0.2-0.4,0.4-0.6,0.7-0.8c-0.1-0.1-0.2-0.3-0.2-0.4c-0.4,0.1-0.7,0.4-0.8,0.9c0,0,0,0.1,0,0.1c-0.2,0.3-0.4,0.5-0.6,0.5
							c-0.2,0-0.4-0.1-0.5-0.3c-0.1-0.3-0.2-0.5-0.2-0.8c0-0.2,0-0.3-0.2-0.4C816.8,140.4,816.5,141.2,816.5,142.1z"/>
						<path class="st45" d="M819.7,139.9c-0.3,0.2-0.6,0.5-0.7,0.8c0,0.2,0.1,0.2,0.2,0.2c0.1-0.3,0.4-0.6,0.7-0.8
							C819.9,140.1,819.9,140,819.7,139.9z M820.4,140.7c-0.1-0.1-0.2-0.2-0.3-0.3c-0.2,0.2-0.4,0.5-0.6,0.8c0,0.1,0.1,0.2,0.4,0.3
							C820,141.1,820.1,140.9,820.4,140.7z M821,141.1c-0.2,0.2-0.2,0.5-0.3,0.7c0.1,0.1,0.3,0.2,0.4,0.1c0.1-0.3,0.2-0.5,0.3-0.6
							C821.3,141.1,821.1,141.1,821,141.1z M820.8,141c-0.1-0.1-0.2-0.2-0.3-0.2c-0.2,0.2-0.4,0.5-0.5,0.7c0.1,0.1,0.2,0.2,0.4,0.2
							C820.5,141.5,820.6,141.2,820.8,141z"/>
						<path class="st46" d="M816.5,142.1l-0.2,1l5.3,0.3c1,0,1.9-0.1,2.7-0.2l0.6-0.6c0-0.1-0.1-0.1-0.1-0.2l-0.6,0.6
							c-0.9,0.1-1.8,0.2-2.6,0.1L816.5,142.1z"/>
					</g>
					<g>
						<g>
							<path class="st18" d="M817.8,115.9c0.1,0.4,0.2,0.9,0.1,1.4c0.8,0.1,1.5,0.2,2.2,0.2c0.1-0.5,0.1-1-0.1-1.4L817.8,115.9z"/>
							<path class="st19" d="M817.9,117.3c0.1-0.5,0-0.9-0.1-1.4l-1.7-0.1c-0.4,0.4-0.5,0.8-0.2,1.3
								C816.6,117.1,817.2,117.2,817.9,117.3z"/>
						</g>
						<g>
							<path class="st47" d="M815.6,118L815.6,118c0.4-0.9,0.6-2,0.6-3.1l-3.3,0c-0.8,0.1-1.4,0.5-1.5,1.2c0.1,0.7,0.4,1.2,1.1,1.4
								L815.6,118z"/>
							<path class="st41" d="M815.6,118l0.7,0.1c0.4-0.8,0.6-1.9,0.5-3.2l-0.6,0C816.2,116,816,117.1,815.6,118L815.6,118z"/>
						</g>
						<path class="st18" d="M819.7,117.4c1.9,0.3,3.7,0.4,5.4,0.4c0.3-0.7,0.2-1.4-0.2-2c-1.6-0.1-3.2,0-4.9,0.2
							C819.6,116.5,819.5,116.9,819.7,117.4z"/>
						<g>
							<path class="st18" d="M826.6,113.1c0,0,0,0.1,0,0.1c0,0,0,0,0,0c0,0.1,0.1,0.1,0.1,0.2c0,0,0,0,0,0c0,0.1,0,0.2,0,0.2
								c0,0,0,0,0,0c-0.1,0-0.2,0-0.3-0.1c0,0,0,0,0-0.1c-0.1-0.2-0.2-0.4-0.2-0.6c0,0,0,0,0,0c-0.1-0.2-0.2-0.4-0.4-0.3
								c0,0,0,0,0,0l0,0l-0.6,0.1c0,0,0,0,0,0l0.8,0.1c0,0,0,0,0.1,0c0.1,0.1,0.2,0.2,0.1,0.4c0,0,0,0,0,0c0,0,0,0,0,0.1
								c0,0,0,0.1,0,0.1c0,0.1,0,0.1,0,0.2c0,0.1,0,0.2,0,0.3c0,0,0,0,0,0c0,0.1-0.1,0.2-0.2,0.2c0,0,0,0,0,0
								c-0.2,0-0.3-0.1-0.3-0.3c0,0,0,0,0-0.1c0,0,0,0,0,0l0-0.6c0,0,0,0,0,0.1c0,0.1-0.1,0.1-0.1,0.2c0,0.1,0,0.1,0,0.1
								c-0.2,0-0.4-0.2-0.4-0.5c0,0.4,0.1,0.6,0.4,0.6c0,0.1,0,0.2,0,0.3c0,0.6,0.1,0.9,0.2,1.2c0,0,0,0,0,0c0,0,0,0,0,0
								c0,0,0,0,0,0c0,0,0.1,0.1,0.1,0.1c0,0,0,0.1,0.1,0.1c0.3,0.4,0.4,0.9,0.4,1.5c-0.1,0.3-0.2,0.6-0.3,0.8
								c-0.1,0.1-0.1,0.2-0.2,0.2c-0.1,0.1-0.3,0.1-0.5,0.2c-0.7-0.1-0.9-1-0.8-2.9c0-0.7,0.1-1.4,0.2-2.1c0-0.1,0.1-0.2,0.2-0.2
								c0,0,0.1-0.1,0.1-0.1l0.8-0.3c0.1,0,0.1,0,0.2,0c0.1,0,0.1,0,0.1,0.1c0,0,0,0,0,0c0,0,0,0.1,0,0.1c0,0.1,0.1,0.2,0.1,0.3
								C826.5,112.9,826.5,113,826.6,113.1z M827.3,113.3c-0.1,0-0.3,0-0.4-0.1c0,0,0,0,0,0c-0.2-0.2-0.4-0.5-0.5-0.9
								c0-0.1-0.1-0.1-0.2-0.1c0,0,0,0,0.1,0c0,0,0,0,0,0c0.1,0,0.2,0,0.2,0c0,0,0.1,0,0.1,0.1h0c0,0,0,0,0,0c0,0,0,0,0,0
								c0,0,0,0,0,0c0.1,0.2,0.2,0.3,0.3,0.4c0,0,0.1,0.1,0.1,0.1c0.1,0.1,0.2,0.2,0.4,0.3C827.4,113.1,827.4,113.2,827.3,113.3
								C827.4,113.2,827.4,113.3,827.3,113.3z M828.1,112.5c0,0.1-0.1,0.2-0.3,0.2c0,0-0.1,0-0.1,0c0,0,0,0-0.1,0c0,0,0,0-0.1,0
								c0,0,0,0-0.1,0c0,0-0.1,0-0.1,0c-0.3-0.1-0.5-0.3-0.6-0.5c-0.1-0.1-0.1-0.1-0.2,0c0,0,0,0,0,0c0,0,0,0,0.1-0.1c0,0,0,0,0,0
								c0.1-0.1,0.2-0.1,0.3,0c0,0,0,0,0,0c0.2,0.2,0.4,0.3,0.6,0.3c0.1,0,0.2,0.1,0.3,0.1C828,112.4,828.1,112.4,828.1,112.5z"/>
							<path class="st19" d="M828.1,112.5c0,0.1,0,0.1-0.1,0.2c0,0,0,0-0.1,0.1c-0.1,0.1-0.2,0.1-0.3,0.1c-0.2,0-0.4,0-0.6-0.1
								c0,0-0.1-0.1-0.1-0.1c-0.1-0.1-0.2-0.3-0.3-0.4c0,0,0,0,0,0c0,0,0,0,0,0c0,0,0,0,0,0h0c0,0,0,0-0.1-0.1c0,0,0,0,0,0
								c0.1,0,0.1,0,0.2,0c0.2,0.3,0.4,0.4,0.6,0.5c0,0,0.1,0,0.1,0c0,0,0,0,0.1,0c0,0,0,0,0.1,0c0,0,0,0,0.1,0c0,0,0.1,0,0.1,0
								C827.9,112.6,828,112.6,828.1,112.5z M826.6,113.1c0-0.1-0.1-0.2-0.1-0.3c0-0.1-0.1-0.2-0.1-0.3c0,0,0-0.1,0-0.1c0,0,0,0,0,0
								c0-0.1-0.1-0.1-0.1-0.1c0,0,0,0,0,0c0.1,0,0.1,0,0.2,0.1c0.2,0.5,0.4,0.8,0.5,0.9c0,0,0,0,0,0c0.1,0.1,0.3,0.1,0.4,0.1
								c0,0,0,0-0.1,0c-0.2,0.1-0.4,0-0.6-0.1C826.7,113.2,826.6,113.2,826.6,113.1C826.6,113.1,826.6,113.1,826.6,113.1z
								 M826.1,113.5c0-0.1,0-0.1,0-0.2c0,0,0-0.1,0-0.1c0,0,0,0,0-0.1c0,0,0,0,0,0c0-0.2,0-0.3-0.1-0.4c0,0,0,0-0.1,0l-0.8-0.1
								c0,0,0,0,0,0l0.6-0.1l0,0c0,0,0,0,0,0c0.2,0,0.3,0.1,0.4,0.3c0,0,0,0,0,0c0,0.2,0.1,0.4,0.2,0.6c0,0,0,0,0,0.1
								c0.1,0.1,0.2,0.1,0.3,0.1c0,0,0,0,0,0c0,0-0.1,0.1-0.1,0.1c0,0,0,0,0,0C826.4,113.7,826.3,113.6,826.1,113.5z M826.1,113.8
								c0,0.2-0.1,0.3-0.3,0.2c0,0-0.1,0-0.1,0c-0.1,0-0.2-0.1-0.2-0.2c0-0.1-0.1-0.2,0-0.3c-0.3,0-0.4-0.2-0.4-0.6
								c0,0.3,0.2,0.5,0.4,0.5c0,0,0-0.1,0-0.1c0-0.1,0-0.1,0.1-0.2c0,0,0,0,0-0.1l0,0.6c0,0,0,0,0,0c0,0,0,0,0,0.1
								c0,0.1,0.1,0.2,0.3,0.3c0,0,0,0,0,0C826,114,826.1,113.9,826.1,113.8z"/>
							<path class="st33" d="M825.5,113.8c0,0.1,0.1,0.1,0.2,0.2c0,0,0.1,0,0.1,0c0.2,0,0.3,0,0.3-0.2c0,0,0,0,0,0
								c0-0.1,0-0.2,0-0.3c0.1,0.1,0.3,0.2,0.4,0.2c0,0.3,0,0.5,0,0.7c0.1,0.2,0.1,0.4,0.1,0.6c0,0,0,0,0,0c0.1,0,0.2,0,0.3,0.1
								c0,0,0,0,0,0h0c0,0,0,0,0,0c0,0,0.1-0.1,0.1-0.1c0,0,0,0,0,0c0.1,0,0.1-0.1,0.2-0.1c0.1-0.1,0.1-0.1,0.2-0.2
								c0-0.1,0-0.3,0.1-0.4c0,0,0-0.1,0.1-0.1c0.2-0.4,0.4-0.5,0.6-0.4c0.1,0,0.1,0.2,0.1,0.4c0,0.1,0,0.2-0.1,0.3c0,0,0,0,0,0
								c0,0,0,0,0,0.1c-0.1,0.2-0.1,0.3-0.1,0.5c0,0.1-0.1,0.3-0.3,0.5c-0.1,0.1-0.1,0.1-0.2,0.2c-0.1,0.1-0.2,0.2-0.3,0.3
								c-0.1,0.6-0.4,1-0.7,1.3c0,0,0,0,0,0l0,0c0,0,0,0-0.1,0.1c-0.2,0.2-0.5,0.3-0.7,0.2c0.1-0.1,0.2-0.1,0.2-0.2
								c0.1-0.2,0.2-0.4,0.3-0.8c0.1-0.6,0-1.1-0.4-1.5c0,0,0-0.1-0.1-0.1c0,0-0.1-0.1-0.1-0.1c0,0,0,0,0,0c0,0,0,0,0,0c0,0,0,0,0,0
								C825.6,114.8,825.5,114.4,825.5,113.8z"/>
						</g>
					</g>
				</g>
			</g>
		</g>
		<path class="st7" d="M1034.8,144.2c0,1.1-2,2-6.1,2.8c-4.1,0.7-9.1,1.1-15,1.1c-5.7,0-10.7-0.4-14.8-1.1c-4.1-0.8-6.1-1.7-6.1-2.8
			c0-1.1,2-2,6.1-2.8c4.1-0.8,9.1-1.2,14.8-1.2c5.8,0,10.8,0.4,15,1.2C1032.8,142.2,1034.8,143.1,1034.8,144.2z"/>
		<g>
			<linearGradient id="SVGID_3_" gradientUnits="userSpaceOnUse" x1="944.329" y1="117.5752" x2="785.2002" y2="117.5752">
				<stop  offset="0" style="stop-color:#FF9A00"/>
				<stop  offset="0.7373" style="stop-color:#FF5400;stop-opacity:0"/>
			</linearGradient>
			<path class="st48" d="M785.2,112.5v-1h158.7c0.1,0.1,0.1,0.2-0.1,0.2c-0.4,0.2-1.6,0.5-3.4,0.8H785.2z M785.2,113.8v-1.1h156.1v0
				c-0.2,0.2-1.1,0.6-2.6,1H785.2z M785.2,118.2v-1.5h153.2c1.4,0.5,1.7,0.8,1,1c-0.8,0.2-1.5,0.4-2.2,0.5H785.2z M785.2,121.8v-1.3
				H939c1.3,0.4,1.4,0.9,0.2,1.3H785.2z M785.2,120.2v-1.6h153.2c1.6,0.6,1.5,1.1-0.5,1.6H785.2z M785.2,116.3v-2.2h154.2
				c1.5,0.8,0.8,1.5-2,2.2H785.2z M785.2,123.2v-1.2h155.1c0.7,0.1,1.5,0.3,2.4,0.5c1.6,0.4,1.2,0.6-1.3,0.7H785.2z M785.2,123.7
				v-0.4h159c0.2,0.1,0.1,0.2-0.2,0.4H785.2z"/>
			<path class="st49" d="M943.2,123.7c0,0-0.1,0-0.2,0h-0.4c-0.1,0-0.2,0-0.4,0c-0.1,0-0.1,0-0.2,0c2.1-0.3-0.8-0.4-8.9-0.5
				c0.8,0,1.6,0,2.3,0c2.1,0,3.8-0.1,4.9-0.2c2.9-0.3,0.2-0.7-8.2-1.1c2.5-0.2,4.2-0.4,5.2-0.7c1.5-0.4,0.5-0.7-3-0.8
				c-0.8,0-1.6-0.1-2.6-0.1c-0.4,0-0.7,0-1.1,0c2.4-0.2,4.3-0.4,5.5-0.7c2.5-0.5,0.7-0.9-5.5-1.2c2.7-0.1,4.8-0.2,6.1-0.4
				c2.8-0.4,0.7-0.9-6.2-1.6c2.9-0.3,5-0.6,6.4-1c2-0.6,0-1.1-6-1.4c2.4-0.2,4.3-0.4,5.7-0.7c2.1-0.4,1.2-0.6-2.7-0.7l-1.9,0
				c-0.2,0-0.4,0-0.6,0c3.1-0.1,5.6-0.2,7.4-0.4c2.5-0.3,1.8-0.5-2-0.6l6.5,0c1.8,0.1,3.3,0.6,4.6,1.8c1.4,1.2,2,2.6,2,4.3
				c0,1.7-0.7,3.1-2,4.3c-1.3,1.2-3,1.8-4.9,1.8C943.3,123.7,943.3,123.7,943.2,123.7C943.2,123.7,943.2,123.7,943.2,123.7
				L943.2,123.7z"/>
			<path class="st50" d="M940.8,122c-1.9-0.2-2.4-0.3-1.4-0.4l0.8-0.1c1.7-0.3,1.5-0.6-0.4-1c-0.1,0-0.2,0-0.4-0.1
				c-1.1-0.2-1.2-0.4-0.3-0.6c2.3-0.4,2.2-0.8-0.4-1.2c-1.4-0.3-1.4-0.5-0.1-0.6c0.8-0.2,1.3-0.3,1.5-0.5c0.2-0.1-0.3-0.4-1.5-0.7
				c-1.3-0.4-1.2-0.7,0.2-1c2.6-0.4,2.9-0.9,0.8-1.5c-1.3-0.4-1.5-0.6-0.4-0.8c0.5-0.1,1-0.3,1.6-0.4c1.8-0.3,2.2-0.5,1.1-0.6
				c0.7-0.3,1.5-0.5,2.4-0.5c1.6,0,2.9,0.5,4.1,1.6c1.1,1.1,1.7,2.4,1.7,3.9c0,1.5-0.6,2.8-1.7,3.9c-1.1,1.1-2.5,1.6-4.1,1.6
				c-0.4,0-0.8,0-1.2-0.1C944.5,122.5,943.7,122.2,940.8,122z"/>
			<path class="st9" d="M945.3,121.8c0-0.1-0.4-0.2-1.1-0.2c-1.7-0.1-2.1-0.3-1.2-0.6c0.4-0.1,0.5-0.3,0.2-0.4
				c-0.2-0.1-0.5-0.2-0.9-0.3c-1.1-0.2-1.4-0.4-0.7-0.8c0.5-0.3,0.5-0.6-0.2-0.9c-1-0.3-1.2-0.5-0.7-0.7c0.5-0.2,0.8-0.4,0.9-0.5
				c0.1-0.1-0.1-0.3-0.7-0.6c-0.6-0.3-0.3-0.6,0.6-1c0.9-0.2,1-0.6,0.5-1c-0.7-0.5-0.3-0.9,1.2-0.9c0.5,0,0.8-0.1,1-0.1
				c0.5-0.1,0.6-0.2,0.2-0.4c-0.1,0-0.1-0.1-0.2-0.1c-0.2-0.1-0.2-0.1-0.1-0.2c0.1,0,0.2,0,0.3,0c0.7,0,1.3,0.1,2.1,0.2
				c0,0,0.1,0,0.1,0c0,0,0.1,0,0.1,0l0,0c0.7,0.2,1.3,0.6,1.8,1.1c0.8,0.8,1.3,1.9,1.3,3.1c0,1.2-0.4,2.2-1.3,3.1
				c-0.2,0.2-0.4,0.4-0.6,0.5c0,0,0,0,0,0c-0.5,0.4-1.2,0.7-2.1,1C945.4,122.2,945.2,122.1,945.3,121.8
				C945.3,121.9,945.3,121.8,945.3,121.8z"/>
		</g>
		<g>
			<path class="st51" d="M1005.5,143.8c0.2,0,0.4,0,0.6,0c0.4,0,0.6,0.1,0.6,0.2l-1.3,0.8c-1.1,0.7-2,1.4-2.9,2.2
				c0.3-0.4,0.6-0.8,1-1.3C1004.2,144.8,1004.9,144.2,1005.5,143.8z"/>
			<path class="st51" d="M1019.1,143.9c0.7,0.4,1.4,1.1,2.2,2.1c0.7,0.9,1,1.4,1,1.4c-1-0.8-2.1-1.7-3.2-2.5c-0.6-0.4-1-0.7-1.4-1
				c0-0.1,0.3-0.1,0.7-0.1L1019.1,143.9z"/>
			<path class="st52" d="M1023.7,142.3c-0.1,0.3-0.3,0.6-0.5,0.9c-0.7,0.9-1.8,1.3-3.1,1.3c-1.2,0-2.2-0.5-3-1.4
				c-0.4-0.5-0.6-0.9-0.8-1.3l-0.6,0.3c-0.5,0.2-1.1,0.3-1.7,0.4c-1.8,0.3-3.6,0-5.4-0.8l-0.1,0.5c-0.1,0.4-0.3,0.7-0.6,1
				c-0.8,1-2.2,1.3-4.1,1.1c-0.9-0.1-1.6-0.4-2.1-0.9c-0.3-0.3-0.4-0.5-0.5-0.8c-0.8-2.7-1.7-6.1-2.6-10.1
				c-1.8-8.1-2.9-15.5-3.4-22.3c-0.6-9.4,0.1-16.9,2.3-22.3c2.7-6.7,7.5-10.1,14.4-10.1c6.9,0,11.7,3.3,14.5,10
				c2.2,5.3,3.1,12.7,2.7,22c-0.3,6.7-1.3,14-3,22c-0.8,4-1.6,7.3-2.4,10L1023.7,142.3z"/>
			<path class="st52" d="M1026.7,87.9c2.2,5.3,3.1,12.7,2.7,22c-0.3,6.7-1.4,14-3.1,22c-0.8,4-1.6,7.3-2.4,9.9l-0.1,0.5
				c-0.2,0.3-0.3,0.6-0.5,0.9c-0.7,0.9-1.8,1.3-3.2,1.3c-1.2,0-2.2-0.5-3-1.4c-0.4-0.5-0.7-0.9-0.8-1.3l-0.6,0.3
				c-0.5,0.2-1.1,0.3-1.7,0.4c-1.8,0.3-3.6,0-5.4-0.9l-0.1,0.5c-0.2,0.4-0.3,0.7-0.6,1c-0.9,1-2.2,1.3-4.1,1.1
				c-0.7-0.1-1.4-0.4-2-0.9c-0.3-0.3-0.5-0.5-0.6-0.8c-0.8-2.7-1.7-6.1-2.6-10.1c-1.8-8.1-2.9-15.6-3.4-22.3
				c-0.6-9.5,0.1-16.9,2.3-22.3c2.7-6.8,7.5-10.1,14.4-10C1019,77.8,1023.8,81.2,1026.7,87.9z"/>
			<path class="st53" d="M1023.2,116.2c0.2,0.2,0.3,0.5,0.4,0.8c0,0.3-0.1,0.6-0.3,0.8c-0.2,0.2-0.5,0.3-0.8,0.4
				c-0.3,0-0.6-0.1-0.8-0.3c-0.2-0.2-0.4-0.5-0.4-0.8c0-0.3,0.1-0.6,0.3-0.8c0.2-0.2,0.5-0.3,0.8-0.3
				C1022.7,115.9,1023,116,1023.2,116.2z"/>
			<path class="st53" d="M1021,133.4c0,0.4-0.1,0.8-0.4,1.1c-0.3,0.3-0.6,0.4-1.1,0.4c-0.4,0-0.8-0.1-1.1-0.4
				c-0.3-0.3-0.4-0.6-0.5-1c0-0.4,0.1-0.8,0.4-1.1c0.3-0.3,0.6-0.4,1.1-0.4c0.4,0,0.8,0.1,1.1,0.4C1020.9,132.7,1021,133,1021,133.4
				z"/>
			<path class="st53" d="M1001,117.7c0,0.2-0.1,0.3-0.2,0.4c-0.1,0.1-0.2,0.2-0.4,0.2c-0.1,0-0.3-0.1-0.4-0.2
				c-0.1-0.1-0.2-0.2-0.2-0.4c0-0.1,0.1-0.3,0.2-0.4c0.1-0.1,0.2-0.2,0.4-0.2c0.2,0,0.3,0.1,0.4,0.2
				C1001,117.4,1001,117.5,1001,117.7z"/>
			<path class="st53" d="M1014.9,115c0,0.1-0.1,0.3-0.2,0.4c-0.1,0.1-0.2,0.2-0.4,0.2c-0.2,0-0.3,0-0.4-0.2
				c-0.1-0.1-0.2-0.2-0.2-0.4c0-0.2,0.1-0.3,0.2-0.4c0.1-0.1,0.2-0.2,0.4-0.2c0.2,0,0.3,0.1,0.4,0.2
				C1014.8,114.7,1014.9,114.8,1014.9,115z"/>
			<path class="st53" d="M1005,122.2c0,0.4-0.1,0.7-0.4,1c-0.3,0.3-0.6,0.4-1,0.4c-0.4,0-0.7-0.1-1-0.4c-0.3-0.3-0.4-0.6-0.4-1
				c0-0.4,0.1-0.7,0.4-1c0.3-0.3,0.6-0.4,1-0.4c0.4,0,0.7,0.1,1,0.4C1004.9,121.5,1005,121.8,1005,122.2z"/>
			<path class="st53" d="M1024.3,100.2c0,0.2-0.1,0.3-0.2,0.5c-0.1,0.1-0.3,0.2-0.5,0.2c-0.2,0-0.4-0.1-0.5-0.2
				c-0.1-0.1-0.2-0.3-0.2-0.5c0-0.2,0.1-0.3,0.2-0.5c0.1-0.1,0.3-0.2,0.5-0.2c0.2,0,0.4,0.1,0.5,0.2
				C1024.2,99.9,1024.3,100,1024.3,100.2z"/>
			<g>
				
					<linearGradient id="SVGID_4_" gradientUnits="userSpaceOnUse" x1="-13719.1465" y1="-6335.561" x2="-13628.2148" y2="-6335.561" gradientTransform="matrix(0.1731 0 0 0.1731 3379.0625 1191.1465)">
					<stop  offset="0" style="stop-color:#CAFB50"/>
					<stop  offset="1" style="stop-color:#9AD341"/>
				</linearGradient>
				<path class="st54" d="M1006.6,88.9c1.5-1.5,3.4-2.3,5.6-2.3c2.2,0,4,0.8,5.6,2.3c1.5,1.5,2.3,3.4,2.3,5.6s-0.8,4-2.3,5.6
					c-1.5,1.5-3.4,2.3-5.6,2.3c-2.2,0-4-0.8-5.6-2.3c-1.5-1.5-2.3-3.4-2.3-5.6C1004.3,92.3,1005,90.4,1006.6,88.9z"/>
				
					<linearGradient id="SVGID_5_" gradientUnits="userSpaceOnUse" x1="15555.8945" y1="-2187.0269" x2="15602.6465" y2="-2187.0269" gradientTransform="matrix(-0.149 -8.800000e-02 8.800000e-02 -0.149 3528.1445 1140.8862)">
					<stop  offset="0" style="stop-color:#CAFB50"/>
					<stop  offset="1" style="stop-color:#9AD341"/>
				</linearGradient>
				<path class="st55" d="M1006.9,89.3c1.4-1.4,3.2-2.2,5.2-2.2c2,0,3.8,0.7,5.2,2.2c1.4,1.4,2.2,3.2,2.2,5.2c0,2-0.7,3.8-2.2,5.2
					c-1.4,1.4-3.2,2.2-5.2,2.2c-2,0-3.8-0.7-5.2-2.2c-1.4-1.4-2.2-3.2-2.2-5.2C1004.8,92.4,1005.5,90.7,1006.9,89.3z"/>
				<path class="st56" d="M1007.4,89.6c1.3-1.3,2.9-2,4.8-2s3.5,0.7,4.8,2c1.3,1.3,2,2.9,2,4.8s-0.7,3.5-2,4.8c-1.3,1.3-2.9,2-4.8,2
					s-3.5-0.7-4.8-2c-1.3-1.3-2-2.9-2-4.8S1006,90.9,1007.4,89.6z"/>
				<path class="st57" d="M1015.2,94.4c0,0.8-0.3,1.6-0.9,2.2c-0.6,0.6-1.3,0.9-2.2,0.9c-0.8,0-1.6-0.3-2.2-0.9
					c-0.6-0.6-0.9-1.3-0.9-2.2c0-0.8,0.3-1.6,0.9-2.2c0.6-0.6,1.3-0.9,2.2-0.9c0.8,0,1.6,0.3,2.2,0.9
					C1014.9,92.9,1015.2,93.6,1015.2,94.4z"/>
				
					<linearGradient id="SVGID_6_" gradientUnits="userSpaceOnUse" x1="-14170.2197" y1="4447.0093" x2="-14151.0684" y2="4447.0093" gradientTransform="matrix(0.1301 0.1141 -0.1141 0.1301 3365.3291 1134.6431)">
					<stop  offset="0" style="stop-color:#050B0B"/>
					<stop  offset="1" style="stop-color:#2A6319"/>
				</linearGradient>
				<path class="st58" d="M1018.1,91.1c0.6,1,0.8,2.1,0.8,3.3c0,1.9-0.7,3.5-2,4.8c-1.3,1.3-2.9,2-4.8,2c-1.4,0-2.6-0.4-3.7-1.1
					c-1.1-0.7-1.9-1.7-2.5-2.9c1.1,0.7,2.3,1.1,3.7,1.1c1.9,0,3.5-0.7,4.8-2c1.3-1.3,2-2.9,2-4.8c0-1-0.2-1.9-0.6-2.8
					C1016.8,89.3,1017.5,90.1,1018.1,91.1z"/>
				<path class="st9" d="M1009.2,91c0.1,0.2,0.2,0.4,0.1,0.7c-0.1,0.3-0.3,0.5-0.5,0.7c-0.3,0.2-0.5,0.3-0.8,0.3
					c-0.3,0-0.5-0.1-0.6-0.3c-0.1-0.2-0.2-0.4-0.1-0.7c0.1-0.3,0.3-0.5,0.5-0.7c0.3-0.2,0.5-0.3,0.8-0.3
					C1008.8,90.7,1009,90.8,1009.2,91z"/>
				<path class="st9" d="M1010.2,90c0,0.1,0,0.2-0.1,0.2c-0.1,0.1-0.1,0.1-0.2,0.1c-0.1,0-0.2,0-0.2-0.1c-0.1-0.1-0.1-0.1-0.1-0.2
					c0-0.1,0-0.2,0.1-0.2c0.1-0.1,0.1-0.1,0.2-0.1c0.1,0,0.2,0,0.2,0.1C1010.2,89.8,1010.2,89.9,1010.2,90z"/>
			</g>
			<g>
				
					<linearGradient id="SVGID_7_" gradientUnits="userSpaceOnUse" x1="-13744.7881" y1="-6259.6021" x2="-13680.9531" y2="-6259.6021" gradientTransform="matrix(0.1731 0 0 0.1731 3379.0625 1191.1465)">
					<stop  offset="0" style="stop-color:#CAFB50"/>
					<stop  offset="1" style="stop-color:#9AD341"/>
				</linearGradient>
				<path class="st59" d="M1009.3,111.5c-1.1,1.1-2.4,1.6-3.9,1.6c-1.5,0-2.8-0.5-3.9-1.6c-1.1-1.1-1.6-2.4-1.6-3.9
					c0-1.5,0.5-2.8,1.6-3.9c1.1-1.1,2.4-1.6,3.9-1.6c1.5,0,2.8,0.5,3.9,1.6c1.1,1.1,1.6,2.4,1.6,3.9
					C1010.9,109.1,1010.3,110.4,1009.3,111.5z"/>
				
					<linearGradient id="SVGID_8_" gradientUnits="userSpaceOnUse" x1="15565.7666" y1="-2275.668" x2="15598.6299" y2="-2275.668" gradientTransform="matrix(-0.149 -8.800000e-02 8.800000e-02 -0.149 3528.9316 1140.6908)">
					<stop  offset="0" style="stop-color:#CAFB50"/>
					<stop  offset="1" style="stop-color:#9AD341"/>
				</linearGradient>
				<path class="st60" d="M1009,104c1,1,1.5,2.2,1.5,3.7c0,1.4-0.5,2.7-1.5,3.7c-1,1-2.2,1.5-3.7,1.5c-1.4,0-2.6-0.5-3.7-1.5
					c-1-1-1.5-2.2-1.5-3.7s0.5-2.6,1.5-3.7c1-1,2.2-1.5,3.7-1.5C1006.8,102.4,1008,102.9,1009,104z"/>
				<path class="st56" d="M1008.7,104.2c0.9,0.9,1.4,2.1,1.4,3.4s-0.5,2.4-1.4,3.4c-0.9,0.9-2.1,1.4-3.4,1.4c-1.3,0-2.4-0.5-3.4-1.4
					c-0.9-0.9-1.4-2.1-1.4-3.4s0.5-2.4,1.4-3.4c0.9-0.9,2.1-1.4,3.4-1.4C1006.7,102.8,1007.8,103.3,1008.7,104.2z"/>
				<path class="st57" d="M1007.5,107.6c0,0.6-0.2,1.1-0.6,1.5c-0.4,0.4-0.9,0.6-1.5,0.6c-0.6,0-1.1-0.2-1.5-0.6
					c-0.4-0.4-0.6-0.9-0.6-1.5c0-0.6,0.2-1.1,0.6-1.5c0.4-0.4,0.9-0.6,1.5-0.6c0.6,0,1.1,0.2,1.5,0.6
					C1007.3,106.5,1007.5,107,1007.5,107.6z"/>
				
					<linearGradient id="SVGID_9_" gradientUnits="userSpaceOnUse" x1="-14153.4355" y1="4544.8872" x2="-14139.9873" y2="4544.8872" gradientTransform="matrix(0.13 0.1142 -0.1142 0.13 3365.9065 1134.4448)">
					<stop  offset="0" style="stop-color:#050B0B"/>
					<stop  offset="1" style="stop-color:#225213"/>
				</linearGradient>
				<path class="st61" d="M1009.5,105.3c0.4,0.7,0.6,1.5,0.6,2.3c0,1.3-0.5,2.4-1.4,3.4c-0.9,0.9-2.1,1.4-3.4,1.4
					c-1,0-1.8-0.3-2.6-0.8c-0.8-0.5-1.3-1.2-1.7-2c0.8,0.5,1.7,0.8,2.6,0.8c1.3,0,2.4-0.5,3.4-1.4c0.9-0.9,1.4-2.1,1.4-3.4
					c0-0.7-0.1-1.3-0.4-1.9C1008.6,104,1009.1,104.6,1009.5,105.3z"/>
				<path class="st9" d="M1003.3,105.2c0.1,0.1,0.1,0.3,0.1,0.5c-0.1,0.2-0.2,0.3-0.4,0.5c-0.2,0.1-0.4,0.2-0.6,0.2
					c-0.2,0-0.3-0.1-0.4-0.2c-0.1-0.1-0.1-0.3-0.1-0.5c0.1-0.2,0.2-0.3,0.4-0.5c0.2-0.1,0.4-0.2,0.6-0.2
					C1003,105,1003.2,105,1003.3,105.2z"/>
				<path class="st9" d="M1004,104.5c0,0.1,0,0.1-0.1,0.2c0,0-0.1,0.1-0.2,0.1c-0.1,0-0.1,0-0.2-0.1c0,0-0.1-0.1-0.1-0.2
					c0-0.1,0-0.1,0.1-0.2c0,0,0.1-0.1,0.2-0.1c0.1,0,0.1,0,0.2,0.1C1004,104.4,1004,104.4,1004,104.5z"/>
			</g>
			<g>
				
					<linearGradient id="SVGID_10_" gradientUnits="userSpaceOnUse" x1="-13667.3057" y1="-6259.6021" x2="-13603.4209" y2="-6259.6021" gradientTransform="matrix(0.1731 0 0 0.1731 3379.0625 1191.1465)">
					<stop  offset="0" style="stop-color:#CAFB50"/>
					<stop  offset="1" style="stop-color:#9AD341"/>
				</linearGradient>
				<path class="st62" d="M1022.7,103.7c1.1,1.1,1.6,2.4,1.6,3.9c0,1.5-0.5,2.8-1.6,3.9s-2.4,1.6-3.9,1.6c-1.5,0-2.8-0.5-3.9-1.6
					s-1.6-2.4-1.6-3.9c0-1.5,0.5-2.8,1.6-3.9c1.1-1.1,2.4-1.6,3.9-1.6C1020.3,102.1,1021.6,102.6,1022.7,103.7z"/>
				
					<linearGradient id="SVGID_11_" gradientUnits="userSpaceOnUse" x1="15498.9854" y1="-2236.2375" x2="15531.8496" y2="-2236.2375" gradientTransform="matrix(-0.149 -8.800000e-02 8.800000e-02 -0.149 3528.9316 1140.6908)">
					<stop  offset="0" style="stop-color:#CAFB50"/>
					<stop  offset="1" style="stop-color:#9AD341"/>
				</linearGradient>
				<path class="st63" d="M1022.4,104c1,1,1.5,2.2,1.5,3.7c0,1.4-0.5,2.7-1.5,3.7c-1,1-2.2,1.5-3.7,1.5c-1.4,0-2.6-0.5-3.7-1.5
					c-1-1-1.5-2.2-1.5-3.7c0-1.4,0.5-2.6,1.5-3.7c1-1,2.2-1.5,3.7-1.5C1020.2,102.4,1021.4,102.9,1022.4,104z"/>
				<path class="st56" d="M1022.2,104.2c0.9,0.9,1.4,2.1,1.4,3.4s-0.5,2.4-1.4,3.4c-0.9,0.9-2.1,1.4-3.4,1.4c-1.3,0-2.4-0.5-3.4-1.4
					c-0.9-0.9-1.4-2.1-1.4-3.4s0.5-2.4,1.4-3.4c0.9-0.9,2.1-1.4,3.4-1.4C1020.1,102.8,1021.2,103.3,1022.2,104.2z"/>
				<path class="st57" d="M1020.9,107.6c0,0.6-0.2,1.1-0.6,1.5c-0.4,0.4-0.9,0.6-1.5,0.6c-0.6,0-1.1-0.2-1.5-0.6
					c-0.4-0.4-0.6-0.9-0.6-1.5c0-0.6,0.2-1.1,0.6-1.5c0.4-0.4,0.9-0.6,1.5-0.6c0.6,0,1.1,0.2,1.5,0.6
					C1020.7,106.5,1020.9,107,1020.9,107.6z"/>
				
					<linearGradient id="SVGID_12_" gradientUnits="userSpaceOnUse" x1="-14095.2021" y1="4493.7202" x2="-14081.7529" y2="4493.7202" gradientTransform="matrix(0.13 0.1142 -0.1142 0.13 3365.9065 1134.4448)">
					<stop  offset="0" style="stop-color:#050B0B"/>
					<stop  offset="1" style="stop-color:#225213"/>
				</linearGradient>
				<path class="st64" d="M1021.4,103.6c0.7,0.4,1.2,1,1.6,1.7c0.4,0.7,0.6,1.5,0.6,2.3c0,1.3-0.5,2.4-1.4,3.4
					c-0.9,0.9-2.1,1.4-3.4,1.4c-1,0-1.8-0.3-2.6-0.8c-0.8-0.5-1.3-1.2-1.7-2c0.8,0.5,1.7,0.8,2.6,0.8c1.3,0,2.4-0.5,3.4-1.4
					c0.9-0.9,1.4-2.1,1.4-3.4C1021.8,104.8,1021.6,104.2,1021.4,103.6z"/>
				<path class="st9" d="M1016.7,105.2c0.1,0.1,0.1,0.3,0.1,0.5c-0.1,0.2-0.2,0.3-0.4,0.5c-0.2,0.1-0.4,0.2-0.6,0.2
					c-0.2,0-0.3-0.1-0.4-0.2c-0.1-0.1-0.1-0.3-0.1-0.5c0.1-0.2,0.2-0.3,0.4-0.5c0.2-0.1,0.4-0.2,0.6-0.2
					C1016.4,105,1016.6,105,1016.7,105.2z"/>
				<path class="st9" d="M1017.4,104.5c0,0.1,0,0.1-0.1,0.2c0,0-0.1,0.1-0.2,0.1c-0.1,0-0.1,0-0.2-0.1c0,0-0.1-0.1-0.1-0.2
					c0-0.1,0-0.1,0.1-0.2c0,0,0.1-0.1,0.2-0.1c0.1,0,0.1,0,0.2,0.1C1017.4,104.4,1017.4,104.4,1017.4,104.5z"/>
			</g>
			<path class="st53" d="M1016,141.9c-1,0.5-2.3,0.7-3.8,0.6c-1.8-0.1-3.5-0.6-4.9-1.6c-0.7-0.5-1.3-1-1.6-1.5
				c2.9,1.6,5.9,2.2,9.1,1.7c1-0.2,1.9-0.4,2.8-0.8l1-0.5C1017.7,140.9,1016.8,141.5,1016,141.9z"/>
			<path class="st65" d="M1008.6,141.7l-0.1,0.3c-0.1,0.2-0.2,0.5-0.3,0.7c-0.4,0.7-1,1.2-1.9,1.5c-1.2,0.3-2.2,0.3-3.1,0
				c-0.5-0.2-0.8-0.4-1-0.6c2.1,0,3.6-0.4,4.6-1.2c0.3-0.2,0.5-0.5,0.7-0.8l0.1-0.4L1008.6,141.7z"/>
			
				<linearGradient id="SVGID_13_" gradientUnits="userSpaceOnUse" x1="6531.1265" y1="-14330.6914" x2="6553.6216" y2="-14330.6914" gradientTransform="matrix(0 -0.1731 0.1731 -2.000000e-04 3492.3887 1212.674)">
				<stop  offset="0" style="stop-color:#ABE448"/>
				<stop  offset="1" style="stop-color:#CAFB50"/>
			</linearGradient>
			<path class="st66" d="M1010.1,86.5c-3.8,0-7.5-0.5-11.2-1.3c2.8-4.9,7.2-7.4,13.1-7.4c5.5,0,9.8,2.2,12.7,6.6
				C1020,85.8,1015.2,86.6,1010.1,86.5z"/>
			<path class="st53" d="M1010.5,79.4c0.1,0.4,0,0.9-0.5,1.4c-0.5,0.5-1.1,1-1.9,1.4c-0.8,0.4-1.6,0.6-2.3,0.6
				c-0.7,0-1.2-0.2-1.4-0.6c-0.2-0.4-0.1-0.9,0.3-1.3c0.4-0.5,1.1-0.9,2.1-1.4c0.9-0.4,1.7-0.7,2.4-0.7
				C1009.9,78.8,1010.4,79,1010.5,79.4z"/>
			<path class="st67" d="M1009.1,78.9c0.6-0.1,1,0,1.1,0.3l-0.4,0.6c-0.4,0.5-1.1,1-2,1.5c-0.7,0.4-1.4,0.6-2.2,0.7
				c-0.6,0.1-1,0.1-1.1-0.1c-0.2-0.2,0-0.6,0.5-1.1c0.5-0.5,1.2-0.9,2-1.3C1007.8,79.2,1008.5,79,1009.1,78.9z"/>
			<path class="st68" d="M1010.3,79.2c0,0.1,0,0.1-0.1,0.1c-0.2-0.1-0.4-0.1-0.5-0.1c-0.7-0.1-1.7,0.1-2.9,0.6c-1,0.5-1.8,1-2.2,1.6
				c-0.1,0.1-0.2,0.3-0.3,0.4c0,0.1-0.1,0-0.1-0.1c-0.1-0.3,0.1-0.8,0.6-1.3c0.6-0.5,1.2-0.9,1.9-1.2c0.9-0.3,1.6-0.5,2.2-0.5
				C1009.8,78.7,1010.2,78.8,1010.3,79.2z"/>
			<path class="st69" d="M1008.2,79.3l0.8,0.8l-0.5,0.4c-0.5-0.5-0.8-0.8-0.8-1L1008.2,79.3z"/>
			<g>
				<path class="st9" d="M1005.3,73.8c0.7,2.1,1.7,3.8,2.8,5.2c0.4,0.4,0.7,0.8,1.1,1.1l0.4,0.3l-0.3,0.4c-0.3,0.3-0.7,0.5-1.1,0.7
					c-0.4,0.2-0.9,0.2-1.3,0.2c-0.2,0-0.4,0-0.5-0.1c-1.1-1.3-1.6-3-1.5-5.1c0-0.7,0.1-1.3,0.3-1.9L1005.3,73.8z"/>
				<path class="st70" d="M1005.3,73.8c0.7,2,1.6,3.6,2.6,4.9c0.3,0.4,0.6,0.8,1,1.1l0.4,0.3l-0.4,0.4c-0.3,0.2-0.5,0.2-0.7,0.1
					c-1.1-1-2-2.4-2.5-4.3c-0.2-0.6-0.3-1.2-0.4-1.8C1005.3,73.9,1005.2,73.7,1005.3,73.8z"/>
			</g>
			<path class="st53" d="M1025.5,117.7c0.4-4.5,0.5-9,0.2-13.6c-0.2-4-0.6-7.4-1.2-10.1c-1.3-5.7-3.4-10.2-6.5-13.2
				c-1-1-2-1.7-3-2.3c-0.5-0.3-0.9-0.5-1.3-0.6c6.3,0.6,10.7,4.2,13.2,10.8c2,5.3,2.8,12.5,2.3,21.4c-0.4,6.5-1.3,13.6-2.9,21.4
				c-0.9,4.5-1.8,8.1-2.6,10.7c-0.2,0.7-0.6,1.2-1.1,1.6c-0.7,0.5-1.6,0.8-2.7,0.8c-0.7,0-1.4-0.2-2-0.7c-0.3-0.2-0.6-0.4-0.7-0.7
				c2.4-2.9,4.3-6.7,5.8-11.5C1024.2,127.6,1025,122.9,1025.5,117.7z"/>
			<path class="st71" d="M1002,83.9c-2.1,4.5-3.3,10.1-3.6,16.8c-0.2,4.5-0.1,8.9,0.2,13.3c0.3,4.5,1,9.1,1.9,13.8
				c0.8,4.4,1.5,7.7,2.1,9.8c0.8,3.1,1.6,5.1,2.4,5.9c0.2,0.2,0,0.4-0.5,0.4c-0.5,0-0.9,0-1.4-0.1c-0.8-0.2-1.4-0.5-1.8-1.1
				c-0.1-0.1-0.2-0.5-0.4-1.2c-1-3.4-2-7.5-3-12.3c-2-9.6-2.9-17.9-2.9-25c0.1-7.5,1-13.2,2.7-17.2c1.6-3.5,4-6.2,7.4-7.9l-1,1.1
				C1003.4,81.3,1002.7,82.5,1002,83.9z"/>
			<path class="st71" d="M1010.2,79.1c0.2,0.3,0,0.8-0.5,1.3c-0.5,0.5-1.1,1-1.9,1.3c-0.7,0.3-1.4,0.5-2.2,0.5
				c-0.8,0-1.2-0.1-1.4-0.5c0-0.1,0-0.2,0.1-0.2c0.1,0,0.3,0,0.6,0c0.8,0,1.6-0.2,2.3-0.5c0.8-0.3,1.5-0.8,2.2-1.5
				c0.3-0.3,0.5-0.5,0.5-0.5C1010.1,79,1010.2,79,1010.2,79.1z"/>
			<path class="st65" d="M1023.2,143.2c-0.5,0.6-1.1,1-1.9,1.1c-1,0.2-1.9,0.2-2.7-0.1c-1.1-0.4-1.9-1.2-2.4-2.5
				c0.5-0.3,0.8-0.4,0.9-0.5c0.4,0.7,0.9,1.3,1.7,1.7c1.5,0.9,3.1,0.7,4.8-0.5l-0.1,0.2C1023.5,142.9,1023.4,143.1,1023.2,143.2z"/>
			<path class="st72" d="M1021.4,143.4c-0.7,0-1.3,0.1-2,0.5c-0.3,0.2-0.6,0.3-0.8,0.5l-0.4-0.2c0.7-0.8,1.5-1.1,2.6-1
				c0.2,0,0.4,0.1,0.5,0.2L1021.4,143.4z"/>
			<path class="st51" d="M1023.7,145.3c-1-0.7-1.9-1.2-2.6-1.5c0,0,0.2-0.3,0.6-0.7c0.3,0.2,0.7,0.5,1.2,0.8
				c0.9,0.7,1.6,1.5,2.1,2.4L1023.7,145.3z"/>
			<g>
				<path class="st9" d="M1021.4,143.4l0.6,1.1c0.3,0.9,0.4,1.9,0.3,2.8l-0.8-0.8c-0.6-0.6-1-0.9-1.2-1.1c-0.3-0.2-0.8-0.6-1.7-1.1
					c0.1-0.2,0.3-0.4,0.6-0.6C1019.9,143.4,1020.6,143.3,1021.4,143.4z"/>
			</g>
			<path class="st72" d="M1023.7,142.4l-0.1,0.2c-0.7-0.1-1.3,0-1.7,0.3c-0.2,0.1-0.3,0.3-0.4,0.4l-0.3-0.1c0.3-0.6,0.8-0.9,1.5-0.9
				c0.2,0,0.5,0,0.7,0.1L1023.7,142.4z"/>
			<path class="st72" d="M1003.2,143.4c0-0.1,0-0.1,0-0.2c0-0.1,0.2-0.2,0.4-0.2c0.5,0,1,0,1.5,0.2c0.5,0.2,1,0.5,1.3,0.9l-0.5,0.1
				l-0.7-0.5C1004.5,143.5,1003.9,143.4,1003.2,143.4z"/>
			<path class="st72" d="M1001.1,142.3c0.3-0.1,0.6-0.1,1,0c0.7,0.1,1.2,0.4,1.5,1l-0.4,0.1l-0.1-0.1c-0.1-0.1-0.2-0.2-0.3-0.3
				c-0.4-0.3-0.9-0.4-1.6-0.3L1001.1,142.3z"/>
			<g>
				<path class="st9" d="M1023.4,144.6c-0.5-0.4-1.1-0.8-1.9-1.3c0.1-0.2,0.2-0.3,0.4-0.5c0.4-0.3,1-0.4,1.7-0.3
					c0.4,0.2,0.8,0.5,1.1,1c0.6,0.8,0.8,1.7,0.4,2.7l-0.6-0.7C1023.9,145.1,1023.6,144.8,1023.4,144.6z"/>
			</g>
			<path class="st51" d="M999.9,146.1c0.5-0.9,1.2-1.6,2-2.3l1.1-0.8c0.1,0.1,0.2,0.2,0.3,0.3c0.2,0.2,0.3,0.4,0.2,0.4
				c-0.7,0.2-1.5,0.7-2.4,1.4C1000.7,145.5,1000.2,145.8,999.9,146.1z"/>
			<g>
				<path class="st9" d="M1001.4,144.5c-0.3,0.2-0.8,0.8-1.6,1.6c-0.4-0.9-0.2-1.8,0.4-2.6c0.2-0.2,0.4-0.5,0.7-0.7l0.3-0.2
					c0.7-0.1,1.2,0,1.6,0.3l0.4,0.4l-0.7,0.4C1002.1,144,1001.7,144.3,1001.4,144.5z"/>
				<path class="st70" d="M1000.9,145.1c-0.4,0.4-0.8,0.8-1,1c0.2-0.8,0.7-1.6,1.6-2.4l1.2-1c0.2,0.1,0.4,0.2,0.5,0.3l0.1,0.2
					C1002.6,143.7,1001.8,144.3,1000.9,145.1z"/>
			</g>
			<g>
				<path class="st9" d="M1003.3,143.3c0.8-0.1,1.5,0,2,0.3c0.2,0.1,0.3,0.2,0.5,0.4l0.1,0.2l-0.6,0.4c-0.5,0.3-0.8,0.5-0.9,0.6
					c-0.3,0.3-0.9,0.9-1.9,1.8c-0.2-0.9-0.1-1.8,0.3-2.7L1003.3,143.3z"/>
				<path class="st70" d="M1005.9,144.2c-0.7,0.4-1.5,1-2.4,1.8c-0.4,0.4-0.8,0.7-1,1c0-0.2,0.4-0.8,1.1-1.9
					c0.7-1.1,1.2-1.7,1.4-1.6c0.2,0,0.4,0.2,0.7,0.4L1005.9,144.2z"/>
			</g>
			<path class="st52" d="M1002,137c0,0.3-0.1,0.5-0.3,0.7c-0.2,0.2-0.4,0.3-0.7,0.3c-0.3,0-0.5-0.1-0.7-0.3
				c-0.2-0.2-0.3-0.4-0.3-0.7c0-0.3,0.1-0.5,0.3-0.7c0.2-0.2,0.4-0.3,0.7-0.3c0.3,0,0.5,0.1,0.7,0.3
				C1001.9,136.5,1002,136.8,1002,137z"/>
			<path class="st70" d="M1020.4,143.4c0,0,0.1,0,0.5,0c0.3,0,0.5,0,0.5,0c0.5,0.8,0.8,1.6,0.9,2.6c0,0.3,0,0.6,0,0.9
				c0,0.2,0,0.4-0.1,0.4c0-0.5-0.1-1-0.3-1.6C1021.7,144.6,1021.1,143.8,1020.4,143.4z"/>
			<path class="st70" d="M1023.6,142.7c1.1,0.7,1.6,1.5,1.7,2.4c0,0.5,0,0.9-0.2,1.2c0.1-0.8-0.2-1.7-1-2.6
				c-0.4-0.5-0.8-0.8-1.3-1.1c0.1,0,0.2,0,0.4,0C1023.3,142.6,1023.5,142.6,1023.6,142.7z"/>
			<path class="st9" d="M1005.8,119.9c1.8-2,4-3.1,6.5-3.1c2.5,0,4.7,1,6.5,3.1c1.8,2,2.7,4.5,2.7,7.4c0,2.9-0.9,5.4-2.7,7.4
				c-1.8,2-4,3.1-6.5,3.1c-2.5,0-4.7-1-6.5-3.1c-1.8-2-2.7-4.5-2.7-7.4C1003.2,124.4,1004.1,121.9,1005.8,119.9z"/>
		</g>
		<g>
			<path class="st9" d="M1028.3,74.2c5,0.8,7.4,1.9,7.4,3.2c0.1,1.3-2.4,2.4-7.4,3.2c-4.7,0.8-10.4,1.2-17.1,1.2
				c-6.7,0-12.4-0.4-17.1-1.2c-5-0.8-7.4-1.9-7.4-3.2c-0.1-1.3,2.4-2.4,7.4-3.2c4.7-0.8,10.4-1.2,17.1-1.2
				C1017.9,73,1023.6,73.4,1028.3,74.2z M1034.9,77.4c-0.1-0.9-2.3-1.7-6.8-2.5c-4.7-0.8-10.3-1.2-17-1.2c-6.6,0-12.3,0.4-17,1.2
				c-4.4,0.7-6.7,1.6-6.7,2.5c0.1,0.9,2.3,1.7,6.7,2.5c4.7,0.8,10.4,1.2,17,1.2c6.6,0,12.3-0.4,17-1.2
				C1032.6,79.1,1034.9,78.3,1034.9,77.4z"/>
			<path class="st9" d="M1028.3,76.2c5,0.8,7.4,1.9,7.4,3.2c0.1,1.3-2.4,2.4-7.4,3.2c-4.7,0.8-10.4,1.2-17.1,1.2
				c-6.7,0-12.4-0.4-17.1-1.2c-5-0.8-7.4-1.9-7.4-3.2c-0.1-1.3,2.4-2.4,7.4-3.2c4.7-0.8,10.4-1.2,17.1-1.2
				C1017.9,75,1023.6,75.4,1028.3,76.2z M1034.9,79.4c-0.1-0.9-2.3-1.7-6.8-2.5c-4.7-0.8-10.3-1.2-17-1.2s-12.3,0.4-17,1.2
				c-4.4,0.7-6.7,1.6-6.7,2.5c0.1,0.9,2.3,1.7,6.7,2.5c4.7,0.8,10.4,1.2,17,1.2s12.3-0.4,17-1.2
				C1032.6,81.1,1034.9,80.3,1034.9,79.4z"/>
			<polygon class="st50" points="1005.9,74.8 1003.1,75.7 1003.1,78.7 1001.4,76.3 998.7,77.2 1000.4,74.8 998.7,72.5 1001.4,73.4 
				1003.1,71 1003.1,73.9 			"/>
			<polygon class="st50" points="1029.3,74 1027.9,74.5 1027.9,76 1027.1,74.8 1025.7,75.2 1026.6,74 1025.7,72.9 1027.1,73.3 
				1027.9,72.1 1027.9,73.6 			"/>
			<polygon class="st50" points="1026.2,83.3 1024.2,84 1024.2,86.1 1022.9,84.4 1020.8,85 1022.1,83.3 1020.8,81.5 1022.9,82.2 
				1024.2,80.4 1024.2,82.6 			"/>
			<polygon class="st50" points="993.1,81.4 992.1,81.8 992.1,82.9 991.4,82 990.4,82.3 991,81.4 990.4,80.6 991.4,80.9 992.1,80 
				992.1,81.1 			"/>
		</g>
	</g>
</g>
</svg>
