<?xml version="1.0" encoding="utf-8"?>
<!-- Generator: Adobe Illustrator 19.0.0, SVG Export Plug-In . SVG Version: 6.00 Build 0)  -->
<svg version="1.1" id="图层_1" xmlns="http://www.w3.org/2000/svg" xmlns:xlink="http://www.w3.org/1999/xlink" x="0px" y="0px"
	 viewBox="0 0 1024 100" style="enable-background:new 0 0 1024 100;" xml:space="preserve">
<style type="text/css">
	.st0{fill:#081842;}
	.st1{fill-rule:evenodd;clip-rule:evenodd;fill:#726841;}
	.st2{fill-rule:evenodd;clip-rule:evenodd;fill:#8EBB42;}
	.st3{fill-rule:evenodd;clip-rule:evenodd;fill:#0F2142;}
	.st4{fill-rule:evenodd;clip-rule:evenodd;fill:url(#XMLID_379_);}
	.st5{fill-rule:evenodd;clip-rule:evenodd;fill:url(#XMLID_380_);}
	.st6{fill-rule:evenodd;clip-rule:evenodd;fill:#183262;}
	.st7{fill-rule:evenodd;clip-rule:evenodd;fill:#152E5B;}
	.st8{fill-rule:evenodd;clip-rule:evenodd;fill:#11264E;}
	.st9{fill-rule:evenodd;clip-rule:evenodd;fill:#0B1B33;}
	.st10{fill-rule:evenodd;clip-rule:evenodd;fill:#FFFFFF;}
	.st11{fill-rule:evenodd;clip-rule:evenodd;fill:url(#XMLID_381_);}
	.st12{fill-rule:evenodd;clip-rule:evenodd;fill:#E17638;}
	.st13{fill-rule:evenodd;clip-rule:evenodd;fill:#EB9D3F;}
	.st14{fill-rule:evenodd;clip-rule:evenodd;fill:#5FAADB;}
	.st15{fill-rule:evenodd;clip-rule:evenodd;fill:#459A57;}
	.st16{fill-rule:evenodd;clip-rule:evenodd;fill:#7D848B;}
	.st17{fill-rule:evenodd;clip-rule:evenodd;fill:#802A7C;}
	.st18{fill-rule:evenodd;clip-rule:evenodd;fill:#DA423E;}
	.st19{fill-rule:evenodd;clip-rule:evenodd;fill:#FCB5A0;}
	.st20{fill-rule:evenodd;clip-rule:evenodd;fill:#F98E75;}
	.st21{fill-rule:evenodd;clip-rule:evenodd;fill:#E9DFDF;}
	.st22{fill-rule:evenodd;clip-rule:evenodd;fill:#351504;}
	.st23{fill-rule:evenodd;clip-rule:evenodd;fill:#1C1313;}
	.st24{fill-rule:evenodd;clip-rule:evenodd;fill:#432A2A;}
	.st25{fill-rule:evenodd;clip-rule:evenodd;fill:#4F2006;}
	.st26{fill-rule:evenodd;clip-rule:evenodd;fill:#B48866;}
	.st27{fill-rule:evenodd;clip-rule:evenodd;fill:#51261B;}
	.st28{fill-rule:evenodd;clip-rule:evenodd;fill:#F08F31;}
	.st29{fill-rule:evenodd;clip-rule:evenodd;fill:#853825;}
	.st30{fill-rule:evenodd;clip-rule:evenodd;fill:#A66C35;}
	.st31{fill-rule:evenodd;clip-rule:evenodd;fill:#C7690E;}
	.st32{fill-rule:evenodd;clip-rule:evenodd;fill:#ECAC99;}
	.st33{fill-rule:evenodd;clip-rule:evenodd;fill:#E2846E;}
	.st34{fill-rule:evenodd;clip-rule:evenodd;fill:#E9E9E9;}
	.st35{fill-rule:evenodd;clip-rule:evenodd;fill:#744F2F;}
	.st36{fill-rule:evenodd;clip-rule:evenodd;fill:#D6D3D7;}
	.st37{fill-rule:evenodd;clip-rule:evenodd;fill:#BBAB9D;}
	.st38{fill-rule:evenodd;clip-rule:evenodd;fill:#0B658C;}
	.st39{fill-rule:evenodd;clip-rule:evenodd;fill:#CDCDCD;}
	.st40{fill-rule:evenodd;clip-rule:evenodd;fill:#1B9ED7;}
	.st41{fill-rule:evenodd;clip-rule:evenodd;fill:#37A6D7;}
	.st42{fill-rule:evenodd;clip-rule:evenodd;fill:#208CBB;}
	.st43{fill-rule:evenodd;clip-rule:evenodd;fill:#8DD2F0;}
	.st44{fill-rule:evenodd;clip-rule:evenodd;fill:#E2E2E2;}
	.st45{fill-rule:evenodd;clip-rule:evenodd;fill:#835934;}
	.st46{fill-rule:evenodd;clip-rule:evenodd;fill:#E6DFE7;}
	.st47{fill-rule:evenodd;clip-rule:evenodd;fill:#CBB8A8;}
	.st48{fill-rule:evenodd;clip-rule:evenodd;fill:#E95A5A;}
	.st49{fill-rule:evenodd;clip-rule:evenodd;fill:url(#XMLID_382_);}
	.st50{fill-rule:evenodd;clip-rule:evenodd;fill:#EC5535;}
	.st51{fill-rule:evenodd;clip-rule:evenodd;fill:#E5A379;}
	.st52{fill-rule:evenodd;clip-rule:evenodd;fill:#FFCDAF;}
	.st53{fill-rule:evenodd;clip-rule:evenodd;fill:#BD8D5F;}
	.st54{fill-rule:evenodd;clip-rule:evenodd;fill:#3BBF81;}
	.st55{fill-rule:evenodd;clip-rule:evenodd;fill:#75ECB3;}
	.st56{fill-rule:evenodd;clip-rule:evenodd;fill:#188A54;}
	.st57{fill-rule:evenodd;clip-rule:evenodd;fill:#F0D680;}
	.st58{fill-rule:evenodd;clip-rule:evenodd;fill:#EEBE76;}
</style>
<rect id="XMLID_1_" x="-0.3" y="0" class="st0" width="1024" height="100"/>
<g id="XMLID_3_">
	<g id="XMLID_374_">
		<g id="XMLID_376_">
			<path id="XMLID_378_" class="st1" d="M66.1,58.2v6.7c0,0.4-0.1,0.8-0.4,1c-0.3,0.3-0.7,0.5-1.1,0.5c-0.4,0-0.8-0.2-1-0.5
				c-0.3-0.3-0.5-0.7-0.5-1v-6.7c0-0.4,0.2-0.8,0.5-1.1c0.3-0.3,0.6-0.4,1-0.4c0.4,0,0.8,0.1,1.1,0.4C66,57.4,66.1,57.8,66.1,58.2z"
				/>
			<path id="XMLID_377_" class="st2" d="M71.5,53.8c0,1.9-0.7,3.4-2,4.3c-1.2,0.9-2.8,1.4-4.8,1.4S61.2,59,60,58.1
				c-1.3-1-2-2.4-2-4.3c0-2.3,0.7-4.8,2-7.5c1.5-2.9,3-4.4,4.8-4.4c1.7,0,3.3,1.5,4.8,4.4C70.8,48.9,71.5,51.4,71.5,53.8z"/>
		</g>
		<path id="XMLID_375_" class="st3" d="M71.1,66.4c0,0.6-0.6,1.2-1.9,1.6c-1.3,0.4-2.8,0.7-4.6,0.7c-1.8,0-3.3-0.2-4.6-0.7
			c-1.3-0.4-1.9-1-1.9-1.6c0-0.6,0.6-1.2,1.9-1.6c1.3-0.4,2.8-0.6,4.6-0.6c1.8,0,3.3,0.2,4.6,0.6C70.5,65.2,71.1,65.8,71.1,66.4z"/>
	</g>
	
		<linearGradient id="XMLID_379_" gradientUnits="userSpaceOnUse" x1="-384.4683" y1="-84.269" x2="-365.7504" y2="-84.269" gradientTransform="matrix(1.000000e-04 -1 1 -1.000000e-03 335.3572 -333.3344)">
		<stop  offset="0" style="stop-color:#183262"/>
		<stop  offset="4.705880e-02" style="stop-color:#323C56"/>
		<stop  offset="0.1059" style="stop-color:#4E464A"/>
		<stop  offset="0.1725" style="stop-color:#675041"/>
		<stop  offset="0.2471" style="stop-color:#7B573A"/>
		<stop  offset="0.3333" style="stop-color:#8B5D36"/>
		<stop  offset="0.4392" style="stop-color:#966233"/>
		<stop  offset="0.5922" style="stop-color:#9C6432"/>
		<stop  offset="1" style="stop-color:#9E6532"/>
	</linearGradient>
	<path id="XMLID_373_" class="st4" d="M243.2,38c3.5-3.6,6.2-5.5,8.1-5.5c2.6,0,6.3,3.1,11.2,9.3c2.4,3.1,4.6,6.2,6.5,9.4l-35.9-0.5
		c0.2-0.2,1.4-1.7,3.5-4.7C239,42.7,241.2,40,243.2,38z"/>
	
		<linearGradient id="XMLID_380_" gradientUnits="userSpaceOnUse" x1="-384.112" y1="-110.3371" x2="-357.4371" y2="-110.3371" gradientTransform="matrix(0 -1 1 -1.000000e-03 334.7121 -333.3344)">
		<stop  offset="0" style="stop-color:#183262"/>
		<stop  offset="3.921570e-03" style="stop-color:#193262"/>
		<stop  offset="5.490200e-02" style="stop-color:#384053"/>
		<stop  offset="0.1137" style="stop-color:#544C48"/>
		<stop  offset="0.1804" style="stop-color:#6D573F"/>
		<stop  offset="0.251" style="stop-color:#826039"/>
		<stop  offset="0.3373" style="stop-color:#916735"/>
		<stop  offset="0.4471" style="stop-color:#9C6C33"/>
		<stop  offset="0.5922" style="stop-color:#A36E32"/>
		<stop  offset="1" style="stop-color:#A46F32"/>
	</linearGradient>
	<path id="XMLID_372_" class="st5" d="M240.7,37.5c3.5,4.5,6.6,8.9,9.3,13.4l-51.2-0.7c0.3-0.3,1.9-2.5,4.9-6.7
		c3.5-4.8,6.7-8.6,9.6-11.6c4.9-5.2,8.7-7.8,11.5-7.8C228.5,24.2,233.8,28.7,240.7,37.5z"/>
	<path id="XMLID_371_" class="st6" d="M1024,86.1l-258.3,7L0,86.5V47.8l104.1,1.5c84.2,1.1,162.9,2,236.2,2.6
		c235,1.9,372.6,1,413-2.8c26.5-2.5,79.6-3,159.2-1.5c39.8,0.7,77,1.7,111.5,2.9V86.1z"/>
	<g id="XMLID_366_">
		<g id="XMLID_368_">
			<path id="XMLID_370_" class="st1" d="M79.2,54.8v6.7c0,0.4-0.2,0.8-0.5,1c-0.3,0.3-0.7,0.5-1.1,0.5c-0.4,0-0.8-0.1-1.1-0.5
				c-0.3-0.3-0.4-0.6-0.4-1v-6.7c0-0.4,0.1-0.8,0.4-1.1c0.3-0.3,0.6-0.5,1.1-0.5c0.4,0,0.8,0.2,1.1,0.5S79.2,54.4,79.2,54.8z"/>
			<path id="XMLID_369_" class="st2" d="M84.5,50.4c0,1.9-0.7,3.4-2,4.3c-1.2,0.9-2.8,1.3-4.8,1.3s-3.6-0.4-4.8-1.3
				c-1.3-1-2-2.4-2-4.3c0-2.3,0.7-4.8,2-7.5c1.5-2.9,3-4.4,4.8-4.4c1.7,0,3.3,1.5,4.8,4.4C83.8,45.6,84.5,48.1,84.5,50.4z"/>
		</g>
		<path id="XMLID_367_" class="st3" d="M84.1,63c0,0.6-0.6,1.2-1.9,1.6c-1.3,0.4-2.8,0.6-4.6,0.6s-3.3-0.2-4.6-0.6
			c-1.3-0.4-1.9-1-1.9-1.6c0-0.6,0.6-1.2,1.9-1.6c1.3-0.4,2.8-0.7,4.6-0.7s3.3,0.2,4.6,0.7C83.5,61.9,84.1,62.4,84.1,63z"/>
	</g>
	<path id="XMLID_365_" class="st7" d="M856,52c2.7,0.9,4.1,1.9,4.1,3.2c0,1.2-1.4,2.3-4.1,3.2c-2.8,0.9-6.1,1.3-10,1.3
		c-3.9,0-7.2-0.4-10-1.3c-2.8-0.9-4.1-2-4.1-3.2c0-1.3,1.4-2.3,4.1-3.2c2.7-0.9,6.1-1.3,10-1.3C849.9,50.7,853.2,51.1,856,52z"/>
	<path id="XMLID_364_" class="st8" d="M132.2,72.3c0-1.9,4.5-3.6,13.6-4.9c9.1-1.4,20-2,32.9-2c12.9,0,23.8,0.7,32.9,2
		c9.1,1.3,13.6,3,13.6,4.9c0,1.9-4.5,3.5-13.6,4.9c-9.1,1.3-20.1,2-32.9,2c-12.8,0-23.8-0.7-32.9-2
		C136.8,75.9,132.2,74.2,132.2,72.3z"/>
	<path id="XMLID_363_" class="st8" d="M323.3,54.3c2.9,0,5.4,0.3,7.5,1c2.1,0.7,3.1,1.5,3.1,2.4s-1,1.7-3.1,2.4
		c-2.1,0.7-4.5,1-7.5,1c-2.9,0-5.4-0.3-7.5-1c-2.1-0.7-3.1-1.5-3.1-2.4s1-1.7,3.1-2.4C317.9,54.7,320.4,54.3,323.3,54.3z"/>
	<path id="XMLID_362_" class="st3" d="M629.7,67.7c0,0.9-1,1.7-3.1,2.4c-2,0.7-4.5,1-7.4,1c-2.9,0-5.4-0.3-7.4-1
		c-2.1-0.7-3.1-1.5-3.1-2.4c0-0.9,1-1.7,3.1-2.4c2-0.7,4.5-1,7.4-1c2.9,0,5.4,0.3,7.4,1S629.7,66.7,629.7,67.7z"/>
	<path id="XMLID_361_" class="st8" d="M729.2,89.1c0,1.1-0.8,2-2.3,2.8c-1.6,0.7-3.4,1.1-5.6,1.1c-2.2,0-4.1-0.4-5.6-1.1
		c-1.6-0.8-2.4-1.7-2.4-2.8c0-1.1,0.8-2,2.4-2.8c1.5-0.8,3.4-1.1,5.6-1.1c2.2,0,4,0.4,5.6,1.1C728.4,87.1,729.2,88,729.2,89.1z"/>
	<g id="XMLID_352_">
		<path id="XMLID_360_" class="st3" d="M943.2,66.5c0-1.6,1.9-3,5.7-4.2c3.8-1.2,8.4-1.8,13.7-1.8c5.3,0,9.9,0.6,13.7,1.8
			c3.8,1.1,5.7,2.5,5.7,4.2s-1.9,3-5.7,4.2c-3.8,1.2-8.3,1.8-13.7,1.8c-5.4,0-9.9-0.6-13.7-1.8C945.1,69.5,943.2,68.1,943.2,66.5z"
			/>
		<g id="XMLID_353_">
			<g id="XMLID_357_">
				<path id="XMLID_359_" class="st1" d="M968.3,53.7c0.4-0.4,0.8-0.5,1.3-0.5s0.9,0.2,1.3,0.5c0.3,0.4,0.5,0.8,0.5,1.3v8
					c0,0.5-0.2,0.9-0.5,1.3c-0.4,0.4-0.8,0.5-1.3,0.5s-0.9-0.2-1.3-0.5c-0.4-0.4-0.5-0.8-0.5-1.3v-8C967.8,54.5,968,54.1,968.3,53.7
					z"/>
				<path id="XMLID_358_" class="st2" d="M961.5,49.7c0-2.8,0.8-5.7,2.3-8.9c1.7-3.5,3.6-5.2,5.6-5.2c2,0,3.9,1.7,5.6,5.2
					c1.6,3.2,2.4,6.1,2.4,8.9c0,2.3-0.8,4-2.4,5.2c-1.4,1.1-3.3,1.6-5.6,1.6c-2.3,0-4.2-0.5-5.6-1.6C962.3,53.7,961.5,52,961.5,49.7
					z"/>
			</g>
			<g id="XMLID_354_">
				<path id="XMLID_356_" class="st1" d="M957.2,62.2c0-0.3,0.1-0.5,0.3-0.8c0.2-0.2,0.5-0.3,0.8-0.3c0.3,0,0.5,0.1,0.7,0.3
					c0.2,0.2,0.3,0.5,0.3,0.8v4.4c0,0.3-0.1,0.5-0.3,0.8c-0.2,0.2-0.4,0.3-0.7,0.3c-0.3,0-0.5-0.1-0.8-0.3c-0.2-0.2-0.3-0.5-0.3-0.8
					V62.2z"/>
				<path id="XMLID_355_" class="st2" d="M953.8,59.2c0-1.6,0.4-3.2,1.3-5c1-1.9,2-2.9,3.2-2.9c1.1,0,2.2,1,3.1,2.9
					c0.9,1.7,1.3,3.4,1.3,5c0,1.3-0.4,2.2-1.3,2.9c-0.8,0.6-1.8,0.9-3.1,0.9c-1.3,0-2.4-0.3-3.2-0.9
					C954.2,61.4,953.8,60.5,953.8,59.2z"/>
			</g>
		</g>
	</g>
	<path id="XMLID_351_" class="st3" d="M1024,97H0V82.1l40.9-2.7c34.2-2,68.6-3.5,103.4-4.6c110.9-3.4,203.4-1.5,277.5,5.7
		c107.7,10.5,236.5,13.1,386.1,8c53.5-1.8,102.6-4.5,147.5-7.9c39.1-3,62-5.5,68.7-7.4V97z"/>
	<path id="XMLID_350_" class="st9" d="M301,90.2c0,0.6-0.6,1.2-1.9,1.6c-1.3,0.4-2.8,0.7-4.6,0.7c-1.8,0-3.3-0.2-4.6-0.7
		c-1.3-0.4-1.9-1-1.9-1.6c0-0.6,0.6-1.2,1.9-1.6c1.3-0.4,2.8-0.6,4.6-0.6c1.8,0,3.3,0.2,4.6,0.6C300.4,89,301,89.6,301,90.2z"/>
	<path id="XMLID_349_" class="st10" d="M999.8,33.5c0,1.3-0.6,2.4-1.8,3.3c-1.2,0.9-2.6,1.4-4.3,1.4c-1.7,0-3.1-0.5-4.3-1.4
		c-1.2-0.9-1.8-2-1.8-3.3s0.6-2.4,1.8-3.3c1.2-0.9,2.6-1.4,4.3-1.4c1.7,0,3.1,0.5,4.3,1.4C999.2,31.1,999.8,32.2,999.8,33.5z"/>
	<path id="XMLID_348_" class="st10" d="M1003.8,29.5c0,1.3-0.6,2.4-1.8,3.3c-1.2,0.9-2.6,1.4-4.3,1.4c-1.7,0-3.1-0.5-4.3-1.4
		c-1.2-0.9-1.8-2-1.8-3.3c0-1.3,0.6-2.4,1.8-3.3c1.2-0.9,2.6-1.4,4.3-1.4c1.7,0,3.1,0.5,4.3,1.4C1003.2,27,1003.8,28.2,1003.8,29.5z
		"/>
	<path id="XMLID_347_" class="st10" d="M1004.8,35.5c0,1.3-0.6,2.4-1.8,3.3c-1.2,0.9-2.6,1.4-4.3,1.4c-1.7,0-3.1-0.5-4.3-1.4
		c-1.2-0.9-1.8-2-1.8-3.3s0.6-2.4,1.8-3.3c1.2-0.9,2.6-1.4,4.3-1.4c1.7,0,3.1,0.5,4.3,1.4C1004.2,33.1,1004.8,34.2,1004.8,35.5z"/>
	<path id="XMLID_346_" class="st10" d="M1010.2,31.8c0,1.3-0.6,2.4-1.8,3.4c-1.2,0.9-2.6,1.3-4.3,1.3c-1.7,0-3.1-0.5-4.3-1.3
		c-1.2-0.9-1.8-2.1-1.8-3.4s0.6-2.4,1.8-3.3c1.2-0.9,2.6-1.4,4.3-1.4c1.7,0,3.1,0.5,4.3,1.4C1009.6,29.4,1010.2,30.5,1010.2,31.8z"
		/>
	<path id="XMLID_345_" class="st10" d="M1013.5,35.2c0,1.3-0.6,2.4-1.8,3.3c-1.2,0.9-2.6,1.4-4.3,1.4c-1.7,0-3.1-0.5-4.3-1.4
		c-1.2-0.9-1.8-2-1.8-3.3c0-1.3,0.6-2.5,1.8-3.4c1.2-0.9,2.6-1.4,4.3-1.4c1.7,0,3.1,0.5,4.3,1.4C1013,32.8,1013.5,33.9,1013.5,35.2z
		"/>
	<path id="XMLID_344_" class="st10" d="M926,49.9c0,1-0.4,1.8-1.3,2.4c-0.9,0.7-2,1.1-3.2,1.1s-2.3-0.4-3.2-1.1
		c-0.9-0.7-1.3-1.5-1.3-2.4c0-1,0.4-1.8,1.3-2.5c0.9-0.7,2-1,3.2-1c1.3,0,2.3,0.3,3.2,1C925.6,48.1,926,48.9,926,49.9z"/>
	<path id="XMLID_343_" class="st10" d="M929,46.9c0,1-0.4,1.8-1.3,2.4c-0.9,0.7-2,1.1-3.2,1.1s-2.3-0.4-3.2-1.1
		c-0.9-0.7-1.3-1.5-1.3-2.4c0-1,0.4-1.8,1.3-2.5c0.9-0.7,2-1,3.2-1c1.3,0,2.3,0.3,3.2,1C928.6,45.1,929,45.9,929,46.9z"/>
	<path id="XMLID_342_" class="st10" d="M929.8,51.4c0,1-0.4,1.8-1.3,2.4c-0.9,0.7-2,1.1-3.2,1.1s-2.3-0.4-3.2-1.1
		c-0.9-0.7-1.3-1.5-1.3-2.4c0-1,0.4-1.8,1.3-2.5c0.9-0.7,2-1,3.2-1c1.3,0,2.3,0.3,3.2,1C929.3,49.6,929.8,50.4,929.8,51.4z"/>
	<path id="XMLID_341_" class="st10" d="M933.8,48.7c0,1-0.4,1.8-1.3,2.4c-0.9,0.7-2,1.1-3.2,1.1s-2.3-0.4-3.2-1.1
		c-0.9-0.7-1.3-1.5-1.3-2.4c0-1,0.4-1.8,1.3-2.5c0.9-0.7,2-1,3.2-1c1.3,0,2.3,0.3,3.2,1C933.3,46.8,933.8,47.7,933.8,48.7z"/>
	<path id="XMLID_340_" class="st10" d="M936.2,51.2c0,1-0.4,1.8-1.3,2.4c-0.9,0.7-2,1.1-3.2,1.1s-2.3-0.4-3.2-1.1
		c-0.9-0.7-1.3-1.5-1.3-2.4c0-1,0.4-1.8,1.3-2.5c0.9-0.7,2-1,3.2-1c1.3,0,2.3,0.3,3.2,1C935.8,49.3,936.2,50.2,936.2,51.2z"/>
	<g id="XMLID_334_">
		<path id="XMLID_339_" class="st10" d="M181.8,30c0,1-0.4,1.8-1.3,2.5c-0.9,0.7-2,1-3.2,1s-2.3-0.3-3.1-1c-0.9-0.7-1.4-1.5-1.4-2.5
			s0.5-1.8,1.4-2.5c0.9-0.7,1.9-1,3.1-1c1.3,0,2.3,0.3,3.2,1C181.4,28.2,181.8,29,181.8,30z"/>
		<path id="XMLID_338_" class="st10" d="M184.8,27c0,1-0.4,1.8-1.3,2.5c-0.9,0.7-2,1-3.2,1s-2.3-0.3-3.1-1c-0.9-0.7-1.4-1.5-1.4-2.5
			s0.5-1.8,1.4-2.5c0.9-0.7,1.9-1,3.1-1c1.3,0,2.3,0.3,3.2,1C184.4,25.2,184.8,26,184.8,27z"/>
		<path id="XMLID_337_" class="st10" d="M185.6,31.5c0,1-0.4,1.8-1.3,2.5c-0.9,0.7-2,1-3.2,1s-2.3-0.3-3.1-1
			c-0.9-0.7-1.4-1.5-1.4-2.5s0.5-1.8,1.4-2.5c0.9-0.7,1.9-1,3.1-1c1.3,0,2.3,0.3,3.2,1C185.2,29.7,185.6,30.5,185.6,31.5z"/>
		<path id="XMLID_336_" class="st10" d="M189.6,28.8c0,1-0.4,1.8-1.3,2.5c-0.9,0.7-2,1-3.2,1s-2.3-0.3-3.1-1
			c-0.9-0.7-1.4-1.5-1.4-2.5s0.5-1.8,1.4-2.5c0.9-0.7,1.9-1,3.1-1c1.3,0,2.3,0.3,3.2,1C189.2,27,189.6,27.8,189.6,28.8z"/>
		<path id="XMLID_335_" class="st10" d="M192.1,31.2c0,1-0.4,1.8-1.3,2.5c-0.9,0.7-2,1-3.2,1s-2.3-0.3-3.1-1
			c-0.9-0.7-1.4-1.5-1.4-2.5s0.5-1.8,1.4-2.5c0.9-0.7,1.9-1,3.1-1c1.3,0,2.3,0.3,3.2,1C191.7,29.5,192.1,30.3,192.1,31.2z"/>
	</g>
	<linearGradient id="XMLID_381_" gradientUnits="userSpaceOnUse" x1="434.8865" y1="60.7095" x2="599.8798" y2="60.7095">
		<stop  offset="0" style="stop-color:#FFFFFF;stop-opacity:0"/>
		<stop  offset="1" style="stop-color:#FFFFFF"/>
	</linearGradient>
	<path id="XMLID_333_" class="st11" d="M437.3,85.9c-0.6,0-1.1-0.2-1.5-0.6c-0.5-0.4-0.8-1-0.9-1.6c-0.1-0.7,0.1-1.3,0.6-1.9
		c10.3-12.8,23.9-23,40.9-30.7c17-7.7,36.8-12.5,59.3-14.5c14.1-1.3,28.6-1.4,43.6-0.3c7.5,0.5,13.7,1.2,18.5,2
		c0.7,0.1,1.2,0.4,1.6,1c0.4,0.6,0.5,1.2,0.4,1.8c-0.1,0.7-0.5,1.2-1,1.7s-1.2,0.5-1.8,0.4c-4.7-0.8-10.8-1.4-18.2-1.9
		c-14.8-1-29-0.9-42.8,0.3c-18.7,1.7-35.5,5.4-50.4,11.1C466,60.2,450.6,71,439.3,85C438.8,85.6,438.2,85.9,437.3,85.9z"/>
	<g id="XMLID_325_">
		<path id="XMLID_332_" class="st12" d="M678,26.4c0.2,0.1,0.3,0.3,0.2,0.5l-1.8,5.3c-0.1,0.3-0.3,0.4-0.6,0.2l-4.2-2.9
			c-0.2-0.1-0.2-0.2-0.1-0.5l1.6-4.5c0.1-0.3,0.2-0.4,0.5-0.3L678,26.4z"/>
		<path id="XMLID_331_" class="st13" d="M678.2,6c0.1-0.2,0-0.4-0.2-0.5l-1-0.2l1.2-3.2c0.1-0.2,0.2-0.3,0.4-0.2l9.8,2.3
			c0.2,0.1,0.3,0.2,0.2,0.4l-1.9,5.3l-3.2-1.4c-0.2-0.1-0.3,0-0.5,0.2l-1.2,3.6l-5.2-1.8L678.2,6z"/>
		<path id="XMLID_330_" class="st14" d="M691.1,12c0.3,0.1,0.3,0.2,0.2,0.5l-2.8,7.9c0,0.2-0.2,0.3-0.5,0.3l-3.5-0.8l0.6-1.8
			c0.1-0.2,0-0.4-0.2-0.4l-4.5-1.6l1.3-3.8l3.2,1c0.2,0.1,0.4,0.1,0.5-0.2l1.2-3.2h0V9.8L691.1,12z"/>
		<path id="XMLID_329_" class="st15" d="M686.5,9.8l0.2,0l-1.2,3.3c-0.1,0.3-0.2,0.3-0.5,0.2l-3.2-1l1.2-3.6
			c0.1-0.2,0.3-0.3,0.5-0.2L686.5,9.8z"/>
		<path id="XMLID_328_" class="st16" d="M678,15.5c0.1-0.2,0.2-0.3,0.5-0.2l2,0.8l-0.8,2.2c-0.1,0.3,0,0.4,0.2,0.5l4.6,1.1l-1.6,4.6
			c-0.1,0.2-0.3,0.3-0.5,0.3l-7-1c-0.2,0-0.3-0.1-0.2-0.4L678,15.5z"/>
		<path id="XMLID_327_" class="st17" d="M685,17.7c0.2,0.1,0.3,0.2,0.2,0.4l-0.6,1.8l-4.7-1.1c-0.2-0.1-0.3-0.2-0.2-0.4l0.8-2.2
			L685,17.7z"/>
		<path id="XMLID_326_" class="st18" d="M678,5.5c0.2,0.1,0.3,0.2,0.2,0.5l-3.1,8.7c-0.1,0.2-0.2,0.3-0.4,0.1l-5.4-2.7
			c-0.2-0.2-0.3-0.3-0.2-0.5l2.7-7.5c0.1-0.2,0.2-0.3,0.5-0.2L678,5.5z"/>
	</g>
	<path id="XMLID_324_" class="st9" d="M428.7,88.2c0,0.5-0.5,0.9-1.6,1.2c-1.1,0.3-2.3,0.5-3.8,0.5s-2.8-0.2-3.9-0.5
		c-1.1-0.4-1.6-0.8-1.6-1.2c0-0.5,0.5-0.9,1.6-1.2c1.1-0.3,2.4-0.5,3.9-0.5s2.8,0.2,3.8,0.5C428.2,87.2,428.7,87.7,428.7,88.2z"/>
	<path id="XMLID_323_" class="st3" d="M629.7,67.7c0,0.9-1,1.7-3.1,2.4c-2,0.7-4.5,1-7.4,1c-2.9,0-5.4-0.3-7.4-1
		c-2.1-0.7-3.1-1.5-3.1-2.4c0-0.9,1-1.7,3.1-2.4c2-0.7,4.5-1,7.4-1c2.9,0,5.4,0.3,7.4,1S629.7,66.7,629.7,67.7z"/>
	<path id="XMLID_322_" class="st9" d="M408.4,85.3c0,0.3-0.2,0.6-0.6,0.8c-0.4,0.2-0.8,0.4-1.3,0.4c-0.5,0-0.9-0.1-1.3-0.4
		c-0.4-0.2-0.6-0.5-0.6-0.8s0.2-0.6,0.6-0.8c0.4-0.2,0.8-0.3,1.3-0.3c0.5,0,1,0.1,1.3,0.3C408.2,84.7,408.4,85,408.4,85.3z"/>
	<g id="XMLID_186_">
		<g id="XMLID_254_">
			<g id="XMLID_319_">
				<path id="XMLID_321_" class="st19" d="M445.5,41.9l-1.5,2c0,1,0.7,1.9,2.1,2.5c0.1-0.3,0.3-0.5,0.5-0.8c0.1-0.1,0.3-0.3,0.4-0.4
					c-0.4-0.4-0.8-0.9-1-1.4c0-0.1-0.1-0.2-0.1-0.3C445.7,43,445.6,42.5,445.5,41.9z"/>
				<path id="XMLID_320_" class="st20" d="M445.5,41.9c0.1,0.6,0.2,1.1,0.4,1.6c0,0.1,0.1,0.2,0.1,0.3c0.3,0.5,0.6,1,1,1.4
					c0.4-0.4,1-0.8,1.8-1.2c0.1-0.4,0.2-0.7,0.2-1.1c0.1-1.4-0.3-2.7-1.4-3.7L445.5,41.9z"/>
			</g>
			<g id="XMLID_311_">
				<path id="XMLID_316_" class="st19" d="M462.8,28.9l0,3.2l-0.7,3.6c0.1-0.1,0.2-0.3,0.3-0.4c0.7-2.1,0.9-4.3,0.7-6.4
					C463,28.9,462.9,28.9,462.8,28.9z M450.1,31.9l-1.7,4.4c0.1,0.5,0.2,1,0.3,1.5c0,0.2,0.1,0.5,0.1,0.7c-0.7,1.7-0.9,3.2-0.8,4.7
					c0.1,0.9,0.3,1.8,0.7,2.6c0.1,0.1,0.2,0.2,0.3,0.4c0.5,0.7,1,1.2,1.4,1.7l0.1,0.1c0.1,0,0.1,0.1,0.1,0.1c0.5,0.5,0.9,0.8,1.2,1
					c0.7,0.4,1.8,0.1,3.2-0.9c0.6-0.5,1.2-1,1.8-1.5c0.2-0.2,0.5-0.5,0.7-0.7c0.2-0.2,0.3-0.3,0.5-0.5c0.2-0.2,0.3-0.4,0.5-0.6
					l1.2-1.7c-0.3-0.1-0.4-0.3-0.4-0.6l1.9-0.2c-0.4-0.5-0.6-1.1-0.8-1.6c0-0.1,0-0.1,0-0.2c0-0.1-0.1-0.2-0.1-0.4
					c0-0.1,0-0.3,0-0.4c0-0.5,0.2-1.2,0.5-1.9c0.1-0.2,0.2-0.4,0.3-0.6l0.7-3.6l-0.1-0.7l-0.9,2.2c-1-1.1-1.6-2.4-1.9-4
					c-0.6-0.1-1.2-0.1-1.7-0.2c-2.3-0.1-4.5,0.1-6.7,0.6C450.2,31.8,450.2,31.9,450.1,31.9z"/>
				<path id="XMLID_312_" class="st20" d="M462.1,35.7l0.7-3.6l0-3.2c-4.1-0.4-8.2,0.3-12.3,2.1l-0.3,0.9c0,0,0.1,0,0.1,0
					c2.2-0.5,4.4-0.7,6.7-0.6c0.6,0,1.2,0.1,1.7,0.2c0.3,1.5,0.9,2.9,1.9,4l0.9-2.2l0.1,0.7l-0.7,3.6c0.3-0.5,0.6-1,1.1-1.5
					C462,35.8,462.1,35.7,462.1,35.7z M461,42.4l-1.9,0.2c0,0.3,0.2,0.5,0.4,0.6C460.1,43.1,460.6,42.8,461,42.4z M448.5,36.3
					l-0.8,2.1c-0.3,1-0.4,2-0.4,2.9c0,0.6,0.1,1.2,0.2,1.7c0.2,1,0.6,1.9,1.2,2.8c-0.4-0.8-0.6-1.7-0.7-2.6c-0.1-1.5,0.1-3,0.8-4.7
					c0-0.2-0.1-0.5-0.1-0.7C448.6,37.3,448.6,36.8,448.5,36.3z"/>
			</g>
			<g id="XMLID_303_">
				<path id="XMLID_308_" class="st10" d="M456.4,38.1C456.4,38.2,456.4,38.2,456.4,38.1c0.2,0.5,0.3,0.8,0.5,1.2
					c0.4,0.6,0.9,1.1,1.5,1.5c0.9-1.5,1.6-3.1,2.2-4.9c-0.1,0-0.1,0-0.2-0.1c0,0,0,0-0.1,0c-0.8-0.1-1.7-0.1-2.7,0.2
					c-0.3,0.1-0.6,0.2-0.9,0.3C456.4,37.1,456.3,37.7,456.4,38.1z M456.8,37.1L456.8,37.1L456.8,37.1L456.8,37.1z"/>
				<path id="XMLID_305_" class="st21" d="M460.6,35.9c0.1-0.2,0.1-0.3,0.2-0.5c-0.7-0.5-1.7-0.5-3-0.2c-0.2,0.1-0.4,0.1-0.7,0.2
					c-0.1,0.3-0.3,0.6-0.4,0.9c0.3-0.1,0.6-0.2,0.9-0.3c1-0.3,1.9-0.4,2.7-0.2c0,0,0,0,0.1,0C460.4,35.9,460.5,35.9,460.6,35.9z
					 M456.8,37.1L456.8,37.1L456.8,37.1L456.8,37.1z"/>
				<path id="XMLID_304_" class="st22" d="M460.7,35.4C460.7,35.4,460.8,35.4,460.7,35.4l0.6-0.4c-0.5-0.3-0.9-0.4-1.4-0.5
					c-0.8-0.1-1.6-0.1-2.5,0.2c-0.2,0.1-0.5,0.1-0.7,0.2c-0.5,1.2-0.6,2.3-0.3,3.2c0-0.5,0.1-1.1,0.3-1.8c0.1-0.3,0.2-0.6,0.4-0.9
					c0.2-0.1,0.5-0.2,0.7-0.2C459,34.9,460,34.9,460.7,35.4z"/>
			</g>
			<g id="XMLID_296_">
				<path id="XMLID_299_" class="st23" d="M459.2,35.7c0.3-0.4,0.6-0.6,0.8-0.5c0.2,0.1,0.3,0.4,0.3,0.9c-0.1,0.5-0.3,1.1-0.5,1.8
					c-0.3,0.7-0.6,1.2-0.9,1.6c-0.4,0.4-0.6,0.6-0.9,0.5c-0.2-0.1-0.3-0.4-0.2-1c0.1-0.5,0.2-1.1,0.5-1.8
					C458.6,36.7,458.9,36.1,459.2,35.7z M460.2,36c-0.1-0.2-0.1-0.2-0.2-0.2c-0.1,0-0.1,0-0.2,0.2c-0.1,0.1-0.1,0.3-0.2,0.5
					c0,0.2,0,0.4,0,0.5c0,0.1,0.1,0.2,0.2,0.2c0.1,0,0.2,0,0.2-0.2c0.1-0.1,0.2-0.3,0.2-0.5C460.2,36.2,460.2,36.1,460.2,36z
					 M458.8,38.2c-0.1-0.2-0.2-0.3-0.3-0.3c-0.1,0-0.2,0-0.4,0.2c-0.1,0.2-0.2,0.4-0.2,0.6c0,0.2,0,0.4,0.1,0.6
					c0,0.2,0.1,0.3,0.2,0.3c0.1,0,0.3,0,0.4-0.2c0.1-0.1,0.2-0.3,0.2-0.6C458.9,38.5,458.9,38.3,458.8,38.2z"/>
				<path id="XMLID_298_" class="st24" d="M458.8,38.2c0.1,0.2,0.1,0.4,0.1,0.6c0,0.2-0.1,0.4-0.2,0.6c-0.1,0.2-0.3,0.2-0.4,0.2
					c-0.1,0-0.2-0.1-0.2-0.3c-0.1-0.2-0.1-0.4-0.1-0.6c0-0.2,0.1-0.4,0.2-0.6c0.1-0.1,0.2-0.2,0.4-0.2
					C458.7,37.9,458.8,38,458.8,38.2z"/>
				<path id="XMLID_297_" class="st10" d="M460.2,36c0,0.1,0,0.3,0,0.5c0,0.2-0.1,0.4-0.2,0.5c-0.1,0.1-0.2,0.2-0.2,0.2
					c-0.1,0-0.1-0.1-0.2-0.2c0-0.1,0-0.3,0-0.5c0-0.2,0.1-0.3,0.2-0.5c0.1-0.1,0.2-0.2,0.2-0.2C460.1,35.7,460.1,35.8,460.2,36z"/>
			</g>
			<path id="XMLID_295_" class="st25" d="M458.8,31.8c0.7,0.6,1.2,1.2,1.7,1.8c0,0,0,0,0,0.1c0.1,0.1,0.2,0.3,0.3,0.4
				c0,0,0.1,0.1,0.1,0.1c0,0,0,0,0,0c0.3,0.4,0.5,0.8,0.7,1.2c0.1,0.1,0.2,0.3,0.2,0.4c0,0.1,0.1,0.2,0.1,0.3l-1.2,0.6c0,0,0,0,0,0
				c-0.3-0.3-0.5-0.7-0.8-0.9c-0.1-0.2-0.3-0.3-0.4-0.5c-0.8-0.8-1.6-1.5-2.5-2.1c-0.1-0.1-0.3-0.2-0.5-0.4c0.6-0.6,1.1-1,1.7-1.3
				c0.1,0,0.1-0.1,0.2-0.1c0.1,0.1,0.2,0.1,0.2,0.2C458.7,31.7,458.7,31.7,458.8,31.8z"/>
			<path id="XMLID_294_" class="st26" d="M457.1,46.4l0.4-0.2c-0.7-0.8-1.5-1.3-2.4-1.3l-0.2,0.3C456,45.3,456.8,45.7,457.1,46.4z"
				/>
			<g id="XMLID_289_">
				<g id="XMLID_290_">
					<path id="XMLID_293_" class="st27" d="M434.4,42.3c3,0.5,5.2-0.8,6.4-3.9c0.1,0,0.2,0,0.2,0c0.1,0.5,0.4,1,0.9,1.5
						c-0.7,0.9-1.3,1.7-2,2.2c-1.3,0.6-3.2,0.7-5.7,0.4C434.2,42.5,434.3,42.4,434.4,42.3L434.4,42.3z"/>
					<path id="XMLID_292_" class="st28" d="M441,38.5C441,38.5,441,38.5,441,38.5c0-0.2,0-0.2,0-0.3l0.1-0.6c0.3,0.4,0.6,0.8,1,1.2
						l1,1.6l-1-0.2L442,40c0,0,0,0,0,0h-0.1C441.4,39.5,441.1,39,441,38.5z"/>
					<path id="XMLID_291_" class="st29" d="M434.4,42.3c0.7-1.2,1.8-2.3,3.1-3.4c1.1-0.5,2.2-0.6,3.3-0.5
						C439.5,41.5,437.4,42.8,434.4,42.3z"/>
				</g>
			</g>
			<g id="XMLID_268_">
				<g id="XMLID_269_">
					<path id="XMLID_282_" class="st27" d="M438.8,19.8l-0.4-1.6c0-2.1,0.6-4.2,1.9-6.2l0.1,0C439.4,14.9,438.8,17.5,438.8,19.8z
						 M446,5.4c-1.9,3.7-3,7.5-3.5,11.4l-0.4-2v0c0.4-2.2,1.1-4.4,2.2-6.5C444.8,7.4,445.3,6.5,446,5.4z M458.7,19.2l-0.5-2.8
						c0,0,0-0.1-0.1-0.1l0.6-3.6c0,0,0.1,0.1,0.1,0.1h-0.1C459.2,15.2,459.1,17.2,458.7,19.2z M435.6,26.1c0.8,3.2,2.9,5.8,6.2,7.7
						c0,0,0.1,0,0.1,0c2.6-2,5.4-3.6,8.1-4.6l-0.7,0l1.2-1c-0.2-0.6-0.3-1.4-0.1-2.5c0.2,0.9,0.5,1.7,1.1,2.2l3-0.6
						c-0.5-1.3-0.6-2.7-0.5-4.2c0.6,1.7,1.3,3,2.2,3.9c0.1,0,0.1,0.1,0.1,0.1c0.1,0,0.1,0,0.1,0c2.6-0.3,4.8-0.4,6.4-0.3
						c0.6-0.5,1.2-0.9,2.1-1.2c0.1,0.2,0.2,0.4,0.4,0.6c0.3,0.4,0.4,0.7,0.3,0.9c0,0.2-0.1,0.3-0.1,0.5l-3.4,0.4
						c0.5,0.1,1,0.1,1.4,0.2v2.5c-2.3-0.3-4.2-0.2-5.7,0.1c-1.3,0.1-2.6,0.2-3.9,0.5c-1,0.2-2,0.5-2.9,0.8l-0.4,0.1
						c-0.1,0.3-0.1,0.5-0.2,0.8c-1,4.3-2.7,7.7-5.1,10c-6.6-5.8-9.9-11.4-9.7-16.9l0.1,0l-0.1,0c0-0.2,0.1-0.3,0.1-0.5h0
						C435.5,25.7,435.6,25.9,435.6,26.1z M464.1,24l-0.1-2l0.4-3.1c0,0.1,0,0.1,0,0.2c0.1,0.2,0.1,0.4,0.2,0.6
						C464.8,21.5,464.6,23,464.1,24z M438.1,28.9l-0.9-1.4c0,0-0.1-0.1-0.1-0.1c-0.6-1.1-1-2.4-1.4-3.7c0-0.1,0-0.2,0-0.3
						c0.1-2,0.7-4.4,1.7-7c-0.6,2.6-0.9,4.9-0.8,6.9v0c0,0.1,0,0.3,0,0.5C437,25.8,437.5,27.5,438.1,28.9L438.1,28.9z"/>
					<path id="XMLID_277_" class="st29" d="M440.4,12l2.1,4.8l0,0v0c0.4-3.9,1.6-7.7,3.5-11.4V5.3h0l0,0.1c5.8,3.3,10,7.9,12.8,13.8
						c0.4-1.9,0.5-4,0.1-6.3c2.5,3.1,4.3,6.8,5.3,11.1c0.5-1,0.7-2.5,0.5-4.4c-0.1-0.2-0.2-0.4-0.2-0.6c0.1,0.2,0.2,0.3,0.3,0.5
						l-0.1,0c0.7,2.2,0.9,4.4,0.6,6.6c-0.1-0.2-0.2-0.4-0.4-0.6c-0.8,0.3-1.5,0.7-2.1,1.2c-1.6-0.1-3.8,0-6.4,0.3c0,0,0,0-0.1,0
						c0,0,0-0.1-0.1-0.1c-0.9-0.8-1.6-2.1-2.2-3.9c-0.2,1.4,0,2.8,0.5,4.2l-3,0.6c-0.6-0.5-0.9-1.3-1.1-2.2c-0.2,1.1-0.1,2,0.1,2.5
						l-1.2,1l0.7,0c-2.8,1-5.5,2.6-8.1,4.6c0,0,0,0-0.1,0c-3.3-1.9-5.4-4.5-6.2-7.7l2.5,2.8l0.1-0.1c-0.7-1.4-1.2-3.1-1.5-5
						c0-0.2,0-0.3,0-0.5v0c-0.1-2,0.1-4.3,0.8-6.9l0,0.1l1.3,3.2C438.8,17.5,439.4,14.9,440.4,12L440.4,12L440.4,12L440.4,12z
						 M465.4,27.5c-0.3,1.2-0.7,2.3-1.1,3.3c-0.3-0.1-0.6-0.1-0.9-0.1v-2.5c-0.5-0.1-0.9-0.2-1.4-0.2L465.4,27.5z M450.9,32.2
						c0.9-0.3,1.9-0.6,2.9-0.8c1.3-0.3,2.6-0.4,3.9-0.5l-4.3,2.8l-1.8,3.6L450.9,32.2z M435.5,25.5L435.5,25.5L435.5,25.5
						L435.5,25.5z"/>
					<path id="XMLID_270_" class="st30" d="M442.1,14.8l0.4,2v0l0,0l-2.1-4.8L442.1,14.8z M437.5,16.5l0.9,1.7l0.4,1.6L437.5,16.5z
						 M458.1,16.3C458.2,16.3,458.2,16.4,458.1,16.3l0.6,2.8c-2.7-5.9-7-10.5-12.8-13.8l0-0.1C453.1,9.2,457.1,12.8,458.1,16.3z
						 M464,21.9l0.1,2c-1-4.3-2.8-8-5.3-11.1h0.1C461.6,15.7,463.4,18.7,464,21.9C464,21.8,464,21.9,464,21.9z M465.5,27.1
						c0.1-0.2,0-0.5-0.3-0.9c0.4-2.2,0.2-4.4-0.6-6.6l0.1,0c1.1,2.2,1.4,4.5,1,7C465.6,26.7,465.6,26.9,465.5,27.1z M437.1,27.4
						c0,0,0.1,0.1,0.1,0.1l0.9,1.4l-2.5-2.8c0-0.2-0.1-0.4-0.1-0.6L437.1,27.4z"/>
				</g>
			</g>
			<g id="XMLID_265_">
				<path id="XMLID_267_" class="st28" d="M439.4,36.2c5.7-5,12.2-7.2,19.4-6.7c0.5-1.1,1.2-1.9,2-2.5c-2.3-0.1-4.1-0.1-5.4,0
					c-1.3,0.1-2.4,0.3-3.3,0.5c-0.9,0.2-2.1,0.5-3.8,1.1l0,0c-4,1.7-7.2,3.9-9.6,6.5C438.8,35.5,439.1,35.8,439.4,36.2z"/>
				<path id="XMLID_266_" class="st31" d="M439.4,36.2c0.1,0,0.1,0.1,0.2,0.1c0.2,0.2,0.3,0.3,0.4,0.4c3.3-3.2,7-5.2,11.2-5.8
					c4.2-0.7,8.5-0.7,12.9,0.1c0.2-0.3,0.3-0.5,0.4-0.8c0.4-0.9,0.5-1.8,0.4-2.9c-1.4-0.2-2.8-0.2-4.2-0.3c-0.8,0.6-1.4,1.4-2,2.5
					C451.6,29,445.2,31.2,439.4,36.2z"/>
			</g>
			<g id="XMLID_262_">
				<path id="XMLID_264_" class="st20" d="M449.5,36.8c0.3-1.1,0.6-2.3,1.1-3.5c-0.3-0.8-0.8-1.3-1.4-1.4c-0.9,0-1.4,0.5-1.6,1.4
					c0.6-0.5,1.1-0.7,1.6-0.4c0.4,0.1,0.6,0.5,0.8,0.9c-0.6-0.4-1.2-0.3-1.6,0c-0.5,0.6-0.6,1.1-0.3,1.7
					C448.4,36.2,448.9,36.6,449.5,36.8z"/>
				<path id="XMLID_263_" class="st19" d="M450.6,33.3c0.1-0.3,0.2-0.6,0.3-0.9c-0.5-1.1-1.3-1.5-2.4-1.1c-0.8,0.4-1.4,1.2-1.6,2.4
					c0,0.2-0.1,0.4-0.1,0.6c0,2.3,0.8,3.7,2.3,4.3c0.1-0.6,0.2-1.2,0.4-1.7c-0.6-0.2-1.1-0.6-1.4-1.3c-0.2-0.6-0.1-1.2,0.3-1.7
					c0.5-0.4,1-0.4,1.6,0c-0.2-0.5-0.4-0.8-0.8-0.9c-0.5-0.3-1.1-0.1-1.6,0.4c0.2-0.9,0.8-1.4,1.6-1.4
					C449.8,32,450.3,32.5,450.6,33.3z"/>
			</g>
			<g id="XMLID_255_">
				<path id="XMLID_261_" class="st30" d="M468.7,33.4c0.2-0.5,0.3-0.9,0.4-1.3c0.3-1.3,0.1-2.5-0.5-3.6c-0.8-1.2-1.9-2-3.5-2.6
					c-0.8,0.3-1.6,0.9-2.4,1.6c0.8-0.4,1.6-0.8,2.3-1.1C467.8,27.4,469,29.7,468.7,33.4z"/>
				<path id="XMLID_260_" class="st29" d="M459.9,29.2c0.1-0.1,0.2-0.3,0.2-0.4c-0.3,2-0.3,3.8,0,5.4c0.1,0.2,0.2,0.5,0.3,0.7
					l0.8-2.8c0,0,0,0.1,0,0.1l0.4-1.6c1.2,2.7,1.4,5.2,0.6,7.4c1.9-0.8,3.1-1.9,3.6-3.1c0.4-1.1,0.5-2,0.4-2.8c0-0.1,0-0.1,0-0.2
					c0,0,0-0.1,0-0.1c0,0,0,0,0,0l-0.3-1.9c1.5,2,2.1,3.7,1.8,5.1c0.4-0.6,0.7-1.2,1-1.8c0.4-3.7-0.9-6-3.6-6.9
					c-0.8,0.3-1.6,0.6-2.3,1.1l-1.3-0.5C460.7,27.6,460.2,28.3,459.9,29.2z"/>
				<path id="XMLID_256_" class="st27" d="M467.7,35.2c0.4-1.4-0.2-3.1-1.8-5.1l0.3,1.9C467,32.7,467.5,33.8,467.7,35.2z
					 M462.3,38.1c0.8-2.2,0.6-4.7-0.6-7.4l-0.4,1.6c0.6,2.2,0.9,4.1,0.8,5.9C462.2,38.2,462.2,38.1,462.3,38.1z M459.9,29.2
					c-0.1,0.3-0.2,0.7-0.3,1.1c-0.2,1.2-0.1,2.5,0.6,3.9c-0.3-1.6-0.3-3.4,0-5.4C460,29,459.9,29.1,459.9,29.2z"/>
			</g>
		</g>
		<g id="XMLID_187_">
			<g id="XMLID_251_">
				<path id="XMLID_253_" class="st32" d="M435.2,62.2c-0.8-0.3-1.5-0.7-2-1.3c-0.9,0.7-1.7,1.4-2.4,2.1c-0.1,0.8,0.2,1.2,1,1.4
					L435.2,62.2z"/>
				<path id="XMLID_252_" class="st33" d="M435.2,62.2l0.9-0.5c-0.1-0.9-0.6-1.5-1.5-1.8c-0.5,0.4-0.9,0.7-1.4,1.1
					C433.7,61.5,434.4,61.9,435.2,62.2z"/>
			</g>
			<g id="XMLID_247_">
				<path id="XMLID_250_" class="st32" d="M424,68.3c0.3,0.5,0.7,1,1.3,1.4c1.8-1.7,3.7-3.3,5.8-4.9c0,0,0,0,0.1-0.1
					c0,0-0.1,0-0.1-0.1c-0.2-0.2-0.1-0.5,0.2-0.9c0,0.3,0,0.6,0.1,0.8l0,0c0.2-0.1,0.3-0.2,0.5-0.4c-0.1-0.6-0.4-1-1-1.3
					c-0.9,0.3-1.7,0.7-2.5,1.2C426.9,65.4,425.5,66.8,424,68.3z"/>
				<path id="XMLID_249_" class="st33" d="M431.4,64.6c-0.1-0.2-0.1-0.5-0.1-0.8c-0.3,0.4-0.4,0.7-0.2,0.9c0,0,0.1,0.1,0.1,0.1
					L431.4,64.6z"/>
				<path id="XMLID_248_" class="st34" d="M425.3,69.8c-0.5-0.4-1-0.9-1.3-1.4l-1.9,1.7c0.3,0.7,0.8,1.3,1.5,1.6l1.1-1.3
					C425,70.1,425.2,69.9,425.3,69.8z"/>
			</g>
			<g id="XMLID_239_">
				<path id="XMLID_246_" class="st35" d="M420.8,69.2l0.9,5.1c0.2,0.8,0.6,1.6,1,2.4l0.8,0.3c0.2-0.3,0.4-0.6,0.5-1
					c-0.4-0.8-0.6-1.5-0.6-1.9c0-0.4,0-0.6,0-0.7c-0.2-0.1-0.4-0.1-0.7,0c-0.1-0.1-0.1-0.3-0.1-0.4c0.3-0.1,0.5,0,0.8,0
					c0-0.1,0-0.1,0-0.2c-0.3-0.1-0.6-0.1-0.8-0.1c-0.1-0.2-0.1-0.3,0-0.4c0.3,0,0.6,0.1,0.9,0.2c0-0.1,0-0.1,0.1-0.2
					c-0.3-0.1-0.6-0.2-0.9-0.2c-0.1-0.2,0-0.4,0.1-0.4c0.3,0.1,0.6,0.2,0.9,0.3c0-0.1,0.1-0.1,0.1-0.2c-0.3-0.2-0.6-0.3-1-0.3
					c-0.1-0.1,0-0.2,0.1-0.3c0.4,0,0.7,0.1,1,0.4c0.1-0.1,0.2-0.2,0.3-0.4c-0.3-0.3-0.7-0.5-1.2-0.4c0,0-0.1,0-0.1,0
					c-0.4,0-0.6-0.1-0.7-0.3c-0.1-0.2,0-0.4,0.1-0.6c0.2-0.2,0.4-0.4,0.7-0.5c0.2,0,0.3-0.1,0.3-0.3
					C422.5,68.8,421.6,68.9,420.8,69.2z"/>
				<path id="XMLID_241_" class="st36" d="M423.7,71.9c-0.3-0.1-0.6-0.2-0.9-0.3c-0.1,0.1-0.2,0.2-0.1,0.4c0.3,0,0.6,0.1,0.9,0.2
					C423.6,72.2,423.7,72.1,423.7,71.9z M423.8,71.7c0.1,0,0.2-0.1,0.2-0.3c-0.3-0.2-0.6-0.3-1-0.4c-0.1,0.1-0.2,0.2-0.1,0.3
					C423.1,71.4,423.5,71.5,423.8,71.7z M423.4,73c-0.3-0.1-0.5-0.1-0.8,0c-0.1,0.2,0,0.3,0.1,0.4c0.3,0,0.5,0,0.7,0
					C423.4,73.3,423.4,73.1,423.4,73z M423.4,72.8c0.1-0.1,0.1-0.2,0.1-0.4c-0.3-0.1-0.6-0.2-0.9-0.2c-0.1,0.1-0.1,0.3,0,0.4
					C422.8,72.7,423.1,72.8,423.4,72.8z"/>
				<path id="XMLID_240_" class="st37" d="M420.8,69.2l-1,0.2l1.6,5c0.4,0.9,0.7,1.7,1.2,2.4l0.8,0.3c0.1-0.1,0.1-0.1,0.1-0.1
					l-0.8-0.3c-0.5-0.8-0.8-1.6-1-2.4L420.8,69.2z"/>
			</g>
			<path id="XMLID_238_" class="st38" d="M439.4,57.5c1.2,0.1,1.7,1.2,1.3,3.3l-1.6,3c-1-0.3-1.7-0.6-2.1-0.8
				c-0.4-0.2-0.7-0.4-1-0.5c-0.2-0.2-0.7-0.6-1.4-1.3c-0.2-0.3-0.5-0.6-0.7-0.9c0.8-1.2,1.5-2.7,2.2-4.4
				C437.1,56.8,438.2,57.3,439.4,57.5z"/>
			<g id="XMLID_235_">
				<path id="XMLID_237_" class="st19" d="M447.2,64c-0.6-0.3-1.1-0.7-1.7-1.1c0.4-0.6,0.6-1.4,0.6-2.3l3.1,2.6
					c0.1,0.8-0.2,1.2-1,1.3L447.2,64z"/>
				<path id="XMLID_236_" class="st20" d="M446.1,60.7c0,0.9-0.2,1.6-0.6,2.3c0.6,0.4,1.1,0.7,1.7,1.1c-1.7-1-3.4-2-5.1-3.1l1.5-2.3
					l2.3,1.9c0,0,0,0,0,0L446.1,60.7z"/>
			</g>
			<g id="XMLID_231_">
				<path id="XMLID_234_" class="st19" d="M441.1,69c0.4,0.5,0.8,0.9,1.4,1.4c1.7-1.8,3.5-3.5,5.4-5.2c0,0,0,0,0.1-0.1
					c0,0-0.1,0-0.1-0.1c-0.2-0.2-0.1-0.5,0.2-0.9c0,0.3,0,0.6,0.1,0.8l0,0c0.1-0.1,0.3-0.3,0.4-0.4c-0.1-0.6-0.5-1-1.1-1.3
					c-0.9,0.3-1.7,0.8-2.4,1.4C443.7,65.9,442.4,67.4,441.1,69z"/>
				<path id="XMLID_233_" class="st10" d="M442.5,70.4c-0.6-0.4-1-0.9-1.4-1.4l-1.8,1.8c0.3,0.7,0.9,1.2,1.6,1.5l1.1-1.3
					C442.1,70.7,442.3,70.5,442.5,70.4z"/>
				<path id="XMLID_232_" class="st20" d="M448.2,64.9c-0.1-0.2-0.2-0.5-0.1-0.8c-0.3,0.4-0.4,0.7-0.2,0.9c0,0,0.1,0.1,0.1,0.1
					L448.2,64.9z"/>
			</g>
			<g id="XMLID_218_">
				<g id="XMLID_228_">
					<path id="XMLID_230_" class="st20" d="M446.5,51.5l1.1-0.8l-0.7-1.5c-0.5-0.1-0.9,0-1.2,0.5C446,50.3,446.3,50.9,446.5,51.5z"
						/>
					<path id="XMLID_229_" class="st32" d="M447.7,50.7l-1.1,0.8c0.3,0.7,0.6,1.4,1,2c0.5-0.1,0.9-0.4,1.2-0.8L447.7,50.7z"/>
				</g>
				<g id="XMLID_225_">
					<path id="XMLID_227_" class="st39" d="M445,50.6L445,50.6c1-0.1,2-0.5,3-1l-1.7-2.9c-0.5-0.7-1.1-0.9-1.8-0.7
						c-0.6,0.4-0.8,1-0.6,1.6L445,50.6z"/>
					<path id="XMLID_226_" class="st40" d="M445,50.6l0.3,0.7c0.9,0,1.9-0.4,3-1.2l-0.3-0.5C447,50.1,446,50.4,445,50.6L445,50.6z"
						/>
				</g>
				<path id="XMLID_224_" class="st32" d="M447.4,53.5c0-0.5,0.3-0.9,0.9-1c0.9,0.4,1.8,0.8,2.7,1.3c0.6,0.3,1.1,0.6,1.6,0.9
					c0.1,0.8-0.1,1.4-0.8,1.8c-0.3-0.2-0.6-0.3-0.9-0.5C449.8,55.3,448.6,54.4,447.4,53.5z"/>
				<g id="XMLID_219_">
					<path id="XMLID_223_" class="st32" d="M454.8,58.3c0.1,0,0.1-0.1,0.2-0.2c0-0.1-0.1-0.2-0.2-0.2c-0.4,0-0.7,0-1-0.2
						c0,0-0.1,0-0.1-0.1c0,0,0,0,0,0c0.1-0.4-0.1-1-0.8-1.5c0,0,0,0,0,0c0,0,0,0,0,0c-0.5-0.4-0.5-0.8-0.2-1.2c0,0,0,0-0.1,0
						c-0.1,0.1-0.2,0.2-0.3,0.3c-0.1,0-0.1,0.1-0.1,0.1c-0.3,0.3-0.4,0.7-0.3,1.2c0.5,0.6,0.8,1,1,1.3c0.2,0.2,0.4,0.4,0.6,0.5
						c0.2,0.1,0.4,0.1,0.5,0.2C454.3,58.3,454.6,58.3,454.8,58.3C454.8,58.3,454.8,58.3,454.8,58.3z"/>
					<path id="XMLID_222_" class="st19" d="M452.8,56c0.5,0.3,1.1,0.3,1.6,0c0.1,0,0.2-0.1,0.2-0.2c0,0,0.1,0,0.2,0.1
						c0,0,0.1,0,0.2,0.1c0.1,0,0.3,0.1,0.6,0.3c0.3,0.1,0.5,0.1,0.6-0.2c0,0,0,0,0,0c0,0,0-0.1-0.1-0.1c0,0,0,0,0,0
						c-0.2,0-0.4-0.1-0.5-0.2l-0.9-0.6c0,0,0,0,0,0c-0.5-0.3-1.2-0.4-2.1-0.2C452.3,55.2,452.3,55.6,452.8,56z"/>
					<path id="XMLID_221_" class="st33" d="M454.8,55.9c-0.1,0-0.1-0.1-0.2-0.1c-0.1,0.1-0.2,0.1-0.2,0.2c-0.5,0.3-1.1,0.3-1.6,0
						c0,0,0,0,0,0c0,0,0,0,0,0c0.6,0.6,0.9,1.1,0.8,1.5c0,0,0,0,0,0c0.1-0.5,0.4-1,0.9-1.5c0,0,0.1-0.1,0.1-0.1
						C454.7,55.9,454.7,55.9,454.8,55.9z"/>
					<path id="XMLID_220_" class="st20" d="M454.7,56c0,0-0.1,0.1-0.1,0.1c-0.5,0.5-0.8,1-0.9,1.5c0,0,0.1,0,0.1,0.1
						c0.3,0.2,0.6,0.3,1,0.2c0.1,0,0.2,0.1,0.2,0.2c0,0.1-0.1,0.2-0.2,0.2c0,0,0,0,0.1,0c0.2,0,0.3-0.1,0.4-0.2
						c0.2,0,0.4-0.1,0.5-0.2c0,0,0,0,0,0c0.2,0,0.4-0.1,0.5-0.2l0.1,0c0.2,0,0.3-0.1,0.3-0.2c0-0.1-0.1-0.2-0.3-0.2h0
						c-0.5-0.1-0.9-0.2-1.2-0.5c-0.3-0.3-0.5-0.4-0.5-0.4C454.6,56.1,454.6,56.1,454.7,56z"/>
				</g>
			</g>
			<g id="XMLID_215_">
				<path id="XMLID_217_" class="st41" d="M444.7,59.2L444.7,59.2c-0.4,0.5-0.8,1-1.4,1.5l-3.5-2.5c-1.1-0.8-1.4-1.9-0.8-3.2
					c0.2-0.3,0.3-0.7,0.4-1l5.9,3.9c-0.1,0.3-0.3,0.5-0.4,0.8c0,0,0,0,0,0C444.8,59,444.7,59.1,444.7,59.2z"/>
				<path id="XMLID_216_" class="st42" d="M444.7,59.2c-0.1,0.3-0.2,0.5-0.3,0.7c-0.2,0.3-0.4,0.6-0.6,0.9c-0.2,0.2-0.7,0.7-1.5,1.2
					c-0.3,0.2-0.7,0.4-1,0.6l-2-1.8l-0.8-0.5c0,0,0,0-0.1,0c-0.6-0.4-1.2-0.9-1.6-1.6c-0.1-0.2-0.3-0.4-0.4-0.6
					c-1-2.2-0.5-4.1,1.4-5.5l0.9,0.8l0.8,0.5c-0.1,0.3-0.3,0.7-0.4,1c-0.6,1.3-0.3,2.4,0.8,3.2l3.5,2.5
					C443.9,60.2,444.3,59.8,444.7,59.2L444.7,59.2z"/>
			</g>
			<g id="XMLID_209_">
				<g id="XMLID_210_">
					<polygon id="XMLID_214_" class="st42" points="445.8,46.5 446.1,46.4 446,48 445.6,47.8 					"/>
					<path id="XMLID_213_" class="st43" d="M445.8,46.5l-1,0.5c0-0.7-0.1-1.3-0.3-1.8s-0.5-1-0.9-1.5l0.9-0.6
						c0.1,0.1,0.2,0.2,0.2,0.2c0.4,0.5,0.7,1,0.9,1.4c0.2,0.5,0.4,1,0.5,1.6L445.8,46.5z"/>
					<path id="XMLID_212_" class="st10" d="M445.6,47.8l-0.6,1.5l0.3,0.2l-4,5.9c-1.2-0.3-2.1-0.7-2.8-1.3c-0.7-0.6-1.2-1.2-1.5-1.8
						l1.7-1.2l3.1-6.3c0.1-0.2,0.3-0.3,0.6-0.5c0.2-0.1,0.5-0.2,0.9-0.3c0.1,0,0.2-0.1,0.4-0.1c0.4,0.4,0.7,0.9,0.9,1.5
						s0.3,1.1,0.3,1.8l1-0.5L445.6,47.8z"/>
					<polygon id="XMLID_211_" class="st40" points="445.4,49.4 445,49.2 445.6,47.8 446,48 445.4,49.4 					"/>
				</g>
			</g>
			<g id="XMLID_206_">
				<path id="XMLID_208_" class="st19" d="M439,43.9c-0.7-0.3-1.4-0.6-2.1-0.8c-0.3,0.5-0.4,0.9-0.3,1.4l2.1,0.8L439,43.9z"/>
				<path id="XMLID_207_" class="st20" d="M438.8,45.3l1.6,0.6c0.5-0.3,0.7-0.7,0.5-1.2c-0.6-0.3-1.2-0.5-1.8-0.8L438.8,45.3z"/>
			</g>
			<g id="XMLID_203_">
				<path id="XMLID_205_" class="st44" d="M440.7,43.7L440.7,43.7c-0.7,0.8-1.2,1.7-1.5,2.8l3.2,0.9c0.8,0.1,1.4-0.1,1.8-0.7
					c0.1-0.7-0.1-1.2-0.7-1.6L440.7,43.7z"/>
				<path id="XMLID_204_" class="st42" d="M440.7,43.7l-0.6-0.3c-0.6,0.6-1.1,1.6-1.4,2.9l0.6,0.2C439.6,45.4,440.1,44.5,440.7,43.7
					L440.7,43.7z"/>
			</g>
			<path id="XMLID_202_" class="st19" d="M436.9,43.1c-1.9,0.2-3.7,0.5-5.3,0.9c-0.1,0.8,0.1,1.4,0.7,1.8c1.6-0.3,3.1-0.8,4.7-1.3
				C437.3,44,437.3,43.5,436.9,43.1z"/>
			<g id="XMLID_196_">
				<path id="XMLID_201_" class="st19" d="M428.3,45.6c-0.2,0.1-0.4,0.2-0.6,0.3c-0.1,0-0.1,0.1-0.2,0.2c-0.1,0.1-0.2,0.2-0.3,0.3
					c-0.1,0.2,0,0.2,0.1,0.3c0.1,0,0.3,0,0.5-0.1l0,0c0.4-0.3,0.8-0.4,1.3-0.5c0.4,0,0.7,0,0.7,0c0.1,0,0.1,0,0.2,0
					c0.2,0,0.3,0,0.4,0.1c0,0.1-0.1,0.1-0.1,0.2c0,0-0.1,0.1-0.3,0.1c0,0-0.1,0-0.2,0c-0.1,0-0.3,0.1-0.7,0.2
					c-0.3,0.1-0.5,0.3-0.4,0.6c0,0.1,0.1,0.1,0.2,0c0.2-0.1,0.4-0.2,0.5-0.2l1.2-0.2c0,0,0,0,0,0c0.6-0.1,1.2-0.6,1.8-1.3
					c0.2-0.7,0-1.3-0.6-1.6c-0.8-0.1-1.6-0.2-2.3-0.3c0,0,0,0,0,0c-0.2,0.7-0.3,1.2-0.3,1.6C429,45.4,428.6,45.5,428.3,45.6z"/>
				<path id="XMLID_198_" class="st33" d="M429.8,46c0.2,0.1,0.3,0.2,0.2,0.4c0.2-0.1,0.3-0.1,0.3-0.1c0,0,0.1-0.1,0.1-0.2
					c-0.1,0-0.2-0.1-0.4-0.1C429.9,46,429.9,46,429.8,46z M427.6,46.1c0.1-0.1,0.1-0.1,0.2-0.2c0.2-0.1,0.4-0.2,0.6-0.3
					c0-0.3,0-0.8,0.3-1.4l-0.4,0.4c-0.1,0.1-0.2,0.3-0.2,0.4c-0.1,0.2-0.2,0.3-0.2,0.5c0,0,0,0,0,0
					C427.6,45.7,427.5,45.9,427.6,46.1z"/>
				<path id="XMLID_197_" class="st20" d="M428.6,44.3c-0.2,0.6-0.3,1-0.3,1.4c0.3-0.1,0.7-0.2,1-0.3c0-0.4,0.1-1,0.3-1.6
					C429.2,43.9,428.9,44.1,428.6,44.3z"/>
			</g>
			<g id="XMLID_188_">
				<path id="XMLID_195_" class="st45" d="M438.7,71.9l4.5,2.6c0.8,0.3,1.6,0.6,2.5,0.7l0.7-0.4c-0.1-0.4-0.2-0.7-0.4-1
					c-0.9-0.3-1.5-0.5-1.8-0.7c-0.3-0.2-0.5-0.4-0.5-0.4c-0.1,0.1-0.3,0.2-0.5,0.5c-0.2,0-0.3-0.1-0.4-0.2c0.1-0.2,0.3-0.4,0.5-0.6
					c0,0-0.1-0.1-0.1-0.1c-0.2,0.2-0.4,0.4-0.6,0.6c-0.2,0-0.3-0.1-0.3-0.3c0.2-0.2,0.4-0.4,0.7-0.6c0-0.1-0.1-0.1-0.1-0.2
					c-0.3,0.1-0.5,0.3-0.7,0.5c-0.2-0.1-0.3-0.2-0.3-0.4c0.2-0.2,0.5-0.4,0.8-0.5c0-0.1-0.1-0.1-0.1-0.2c-0.3,0.1-0.6,0.3-0.9,0.5
					c-0.1,0-0.2-0.1-0.2-0.3c0.3-0.3,0.6-0.5,0.9-0.6c0-0.2-0.1-0.3-0.1-0.5c-0.4,0-0.8,0.2-1.1,0.6c0,0,0,0,0,0.1
					c-0.3,0.3-0.5,0.4-0.7,0.3c-0.2-0.1-0.3-0.2-0.4-0.5c0-0.3,0-0.6,0.1-0.8c0.1-0.2,0.1-0.3,0-0.4C439.5,70.4,439,71.1,438.7,71.9
					z"/>
				<path id="XMLID_190_" class="st46" d="M442.5,70.9c-0.4,0.1-0.7,0.3-0.9,0.6c0,0.2,0,0.3,0.2,0.3c0.2-0.2,0.5-0.4,0.9-0.5
					C442.6,71.1,442.6,71,442.5,70.9z M442.8,71.8c0-0.1-0.1-0.2-0.2-0.3c-0.3,0.1-0.6,0.3-0.8,0.5c0,0.1,0.1,0.3,0.3,0.4
					C442.3,72.1,442.5,71.9,442.8,71.8z M443.3,72.4c-0.2,0.2-0.4,0.3-0.5,0.6c0.1,0.1,0.2,0.2,0.4,0.2c0.2-0.2,0.3-0.4,0.5-0.5
					C443.5,72.5,443.4,72.4,443.3,72.4z M443.2,72.2c0-0.2-0.1-0.3-0.2-0.3c-0.3,0.2-0.5,0.3-0.7,0.6c0,0.2,0.1,0.3,0.3,0.3
					C442.7,72.6,442.9,72.4,443.2,72.2z"/>
				<path id="XMLID_189_" class="st47" d="M438.7,71.9l-0.5,0.9l4.9,2c0.9,0.3,1.8,0.5,2.6,0.6l0.7-0.4c0-0.1,0-0.1,0-0.2l-0.7,0.4
					c-0.9-0.2-1.8-0.4-2.5-0.7L438.7,71.9z"/>
			</g>
		</g>
	</g>
	<g id="XMLID_164_">
		<path id="XMLID_185_" class="st10" d="M619.1,47.9c-2.4,0-4.4-0.8-6.1-2.5c-1.7-1.7-2.5-3.7-2.5-6.1c0-2.4,0.8-4.4,2.5-6.1
			c1.7-1.7,3.7-2.5,6.1-2.5c2.4,0,4.4,0.8,6.1,2.5c1.7,1.7,2.5,3.7,2.5,6.1c0,2.4-0.8,4.4-2.5,6.1C623.5,47,621.5,47.9,619.1,47.9z"
			/>
		<g id="XMLID_165_">
			<path id="XMLID_184_" class="st48" d="M616.6,30.9c1.3-0.4,2.6-0.5,4-0.2c0.7,0.1,1.2,0.2,1.6,0.4l-1,1c-0.7-0.2-1.6-0.2-2.5-0.2
				l-1.1,0c-0.2-0.1-0.3-0.3-0.5-0.5C616.7,31.1,616.6,31,616.6,30.9z"/>
			<path id="XMLID_183_" class="st48" d="M612.6,33.5L612.6,33.5l-0.4,1.3l-0.9,0.9h-0.1l0.6-1.1C612,34.3,612.3,33.9,612.6,33.5z"
				/>
			<path id="XMLID_182_" class="st48" d="M622.9,34.4l1.3,0.8c0.9,0.6,1.4,1,1.5,1.2c0.3,0.7,0.3,1.9-0.2,3.5l-2.9,0.3L621,37
				L622.9,34.4z"/>
			<path id="XMLID_181_" class="st48" d="M615.8,34.2l1.8,2.6l-1.9,3c-0.5-0.1-0.9-0.2-1.4-0.2c-0.9-0.2-1.4-0.3-1.5-0.5
				c-0.1-0.2-0.1-0.6-0.1-1.3c0.1-0.9,0.2-1.5,0.4-2c0.1-0.3,0.6-0.6,1.5-1C614.9,34.5,615.3,34.3,615.8,34.2z"/>
			<path id="XMLID_180_" class="st48" d="M617.1,42.8c0.1,0,0.8,0.1,1.9,0.1c0.6,0,1.2,0,1.8,0.1l1,2.6c-1.5,1-2.5,1.5-3,1.5
				c-0.4,0-0.9-0.2-1.7-0.8c-0.8-0.5-1.2-0.9-1.2-1c0-0.1,0.2-0.6,0.6-1.4L617.1,42.8z"/>
			<path id="XMLID_179_" class="st48" d="M610.6,40.5c0,0,0.1,0.1,0.3,0.3c0.3,0.3,0.5,0.4,0.6,0.4l0.8,1.5c0.5,1,0.8,1.6,1,1.7
				l0,0.1l-0.1,0.9c-0.3-0.3-0.7-0.7-1.1-1.3C611.3,43.1,610.8,41.9,610.6,40.5z"/>
			<path id="XMLID_178_" class="st48" d="M627.4,41.7c-0.3,1.2-0.9,2.2-1.7,3.1l-1,1c0-0.1-0.1-0.2-0.2-0.3
				c-0.1-0.2-0.1-0.3-0.1-0.4c0.8-0.7,1.4-1.5,1.7-2.2c0.2-0.4,0.3-0.7,0.3-1L627.4,41.7z"/>
			<path id="XMLID_177_" class="st48" d="M616.9,32.6c-0.6,0.7-1,1.2-1.2,1.7l-0.2-0.1c0.2-0.5,0.6-1.1,1.1-1.8
				c0.3-0.3,0.6-0.6,0.8-0.9l0.1,0.1C617.4,32,617.2,32.3,616.9,32.6z"/>
			<path id="XMLID_176_" class="st48" d="M623,34.7c-0.2-0.8-0.8-1.7-2-2.7l-0.1,0l0.1-0.1l0.1,0.1c1.2,1,1.8,2,2,2.8L623,34.7z"/>
			<polygon id="XMLID_175_" class="st48" points="621.3,37.1 617.1,36.8 617.2,36.7 621.3,37 			"/>
			<path id="XMLID_174_" class="st48" d="M613.1,35.8c-0.1-0.2-0.4-0.5-1-0.9l0.1-0.2c0,0,0.2,0.1,0.6,0.4c0.3,0.3,0.5,0.5,0.5,0.6
				L613.1,35.8z"/>
			<path id="XMLID_173_" class="st48" d="M611.6,41.6h-0.2c0.1-0.7,0.3-1.4,0.7-2c0.2-0.3,0.4-0.6,0.6-0.8l0.1,0.1
				c-0.2,0.2-0.4,0.4-0.6,0.7C611.9,40.3,611.7,40.9,611.6,41.6z"/>
			<path id="XMLID_172_" class="st48" d="M617.2,43.2c-0.3-0.5-0.7-1.2-1.2-2.2c-0.4-0.9-0.6-1.4-0.7-1.4l0.1-0.1
				c0,0,0.2,0.5,0.7,1.4c0.5,1,0.9,1.8,1.2,2.2L617.2,43.2z"/>
			<path id="XMLID_171_" class="st48" d="M616.1,45.3h-0.2c-1,0-2-0.3-2.9-0.8l0.1-0.1c0.6,0.4,1.3,0.7,2.1,0.8c0.4,0,0.7,0,0.9,0
				V45.3z"/>
			<path id="XMLID_170_" class="st48" d="M622.5,45.6c-0.3,0-0.5,0-0.8-0.1l-0.2-0.1l0.1-0.2c0,0,0.3,0,0.8,0.2
				c0.7,0,1.4-0.1,2.3-0.5l0.1,0.1C623.9,45.5,623.1,45.6,622.5,45.6z"/>
			<polygon id="XMLID_169_" class="st48" points="618.7,47.9 618.7,46.7 618.8,46.7 618.9,47.9 			"/>
			<path id="XMLID_168_" class="st48" d="M626.6,42.1c-0.1-0.5-0.3-1.1-0.7-1.7l-0.5-0.8l0.2-0.1c0,0,0.2,0.3,0.5,0.9
				c0.4,0.7,0.6,1.2,0.7,1.8L626.6,42.1z"/>
			<path id="XMLID_167_" class="st48" d="M620.7,43.2l-0.1-0.1c0.5-0.3,0.9-1,1.4-2c0.4-0.9,0.6-1.4,0.6-1.4l0.2,0.1
				C622.1,41.5,621.4,42.7,620.7,43.2z"/>
			<path id="XMLID_166_" class="st48" d="M625.5,36.4l-0.1-0.2L626,36c0.4-0.3,0.7-0.5,0.8-0.8l0.1,0.2c-0.2,0.3-0.4,0.5-0.8,0.8
				C625.8,36.3,625.6,36.4,625.5,36.4z"/>
		</g>
	</g>
	
		<linearGradient id="XMLID_382_" gradientUnits="userSpaceOnUse" x1="391.4575" y1="-713.1373" x2="504.9853" y2="-707.1515" gradientTransform="matrix(0.9972 -7.400000e-02 7.400000e-02 0.9972 -19.9025 804.6646)">
		<stop  offset="0" style="stop-color:#FFFFFF;stop-opacity:0"/>
		<stop  offset="1" style="stop-color:#FFFFFF"/>
	</linearGradient>
	<path id="XMLID_163_" class="st49" d="M318,74c-0.6,0.3-1.2,0.3-1.9,0.1c-0.7-0.2-1.2-0.6-1.4-1.2c-0.3-0.6-0.4-1.2-0.1-1.9
		c0.2-0.7,0.6-1.2,1.2-1.4c40.2-19.9,79.5-21.2,117.7-3.9c0.6,0.3,1.1,0.8,1.3,1.4c0.2,0.7,0.2,1.3-0.1,1.9
		c-0.3,0.6-0.8,1.1-1.4,1.3c-0.7,0.2-1.3,0.2-1.9-0.1C394.5,53.6,356.8,54.9,318,74z"/>
	<g id="XMLID_110_">
		<polygon id="XMLID_162_" class="st3" points="733,68.8 730,65.5 748.2,62.7 802.5,67.5 783.2,74.4 779.5,71.5 784.3,69.3 
			747,65.8 		"/>
		<g id="XMLID_111_">
			<g id="XMLID_112_">
				<polygon id="XMLID_161_" class="st10" points="781.6,16 744.9,25.6 733,24.8 733.1,24.2 744.8,25 781.5,15.3 				"/>
				<polygon id="XMLID_160_" class="st10" points="744.8,29.2 733,28.5 733.1,27.8 744.9,28.5 				"/>
				<polygon id="XMLID_159_" class="st10" points="744.8,32.8 733,32 733.1,31.3 744.9,32.1 				"/>
				<polygon id="XMLID_158_" class="st10" points="781.1,29 745.4,36.5 733,35.6 733.1,35 745.3,35.8 781,28.3 				"/>
				<polygon id="XMLID_157_" class="st10" points="780.8,33.8 745.7,39.8 733.2,39.8 733.2,39.1 745.7,39.1 780.7,33.1 				"/>
				<polygon id="XMLID_156_" class="st10" points="780.9,38.6 745.8,43.5 733.2,43.6 733.2,43 745.7,42.8 780.8,38 				"/>
				<polygon id="XMLID_155_" class="st10" points="732.9,47.7 732.9,47 745.8,46.2 745.8,46.8 				"/>
				<polygon id="XMLID_154_" class="st10" points="780.8,50.1 746.2,50.8 733.1,51.8 733,51.1 746.1,50.1 780.8,49.5 				"/>
				<path id="XMLID_153_" class="st10" d="M781.3,55.8c0.8-0.1,5.3-0.6,13.5-1.4l0,0.7l-13.5,1.4l-35-1.8l-13.6,1.6l0-0.7l13.6-1.6
					L781.3,55.8z"/>
				<polygon id="XMLID_152_" class="st10" points="746.5,58 781,61.3 781,62 746.5,58.7 732.6,60.3 732.5,59.7 746.5,58 				"/>
				<path id="XMLID_151_" class="st10" d="M781,11c0.8,0.1,4.7,1,11.8,2.7l-0.2,0.6l-11.7-2.6L781,11z"/>
				<path id="XMLID_150_" class="st10" d="M781,15c0.8,0.1,4.7,1,11.8,2.7l-0.2,0.6c-0.1,0-4-0.9-11.7-2.6L781,15z"/>
				<path id="XMLID_149_" class="st10" d="M781.7,28.3c0.8,0.1,4.7,1,11.8,2.7l-0.2,0.6c-7-1.7-10.9-2.5-11.7-2.6L781.7,28.3z"/>
				<path id="XMLID_148_" class="st10" d="M782.2,33.1c0.8,0.1,4.7,0.5,11.8,1.1l0,0.6c-7.1-0.6-11.1-1-11.9-1.1L782.2,33.1z"/>
				<path id="XMLID_147_" class="st10" d="M782,37.8c0.8,0.1,4.7,0.2,11.8,0.4v0.6c-7.1-0.1-11.1-0.2-11.9-0.3L782,37.8z"/>
				<path id="XMLID_146_" class="st10" d="M781.9,43.1c1.2-0.1,5.1-0.1,11.9-0.1v0.6L782,43.8L781.9,43.1z"/>
				<polygon id="XMLID_145_" class="st10" points="781.7,49.5 794.3,48.8 794.3,49.5 781.7,50.2 				"/>
				<path id="XMLID_144_" class="st10" d="M781.5,61.2L795,60l0.1,0.7c-8,0.8-12.5,1.2-13.5,1.2L781.5,61.2z"/>
				<polygon id="XMLID_143_" class="st10" points="737.5,22 737.8,63.8 737.2,63.8 736.9,22 				"/>
				<polygon id="XMLID_142_" class="st10" points="780,12 741,22.2 742.2,62.8 741.5,62.8 740.4,21.7 779.8,11.3 				"/>
				<polygon id="XMLID_141_" class="st10" points="785.2,8.4 787.2,68.9 786.6,68.9 784.6,8.4 				"/>
				<polygon id="XMLID_140_" class="st10" points="788.7,9 792.1,67.7 791.4,67.7 788,9 				"/>
				<path id="XMLID_139_" class="st10" d="M781.3,19c0.8,0.1,4.7,1,11.8,2.7l-0.2,0.6c-6.8-1.6-10.7-2.5-11.6-2.6L745,29.2l-0.2-0.7
					L781.3,19L781.3,19z"/>
				<path id="XMLID_138_" class="st10" d="M781.5,23.7c0.8,0.1,4.7,1,11.8,2.7l-0.2,0.6c-6.8-1.6-10.7-2.5-11.6-2.6L745,32.8
					l-0.2-0.7L781.5,23.7L781.5,23.7z"/>
				<polygon id="XMLID_137_" class="st10" points="781.3,43.8 745.8,46.8 745.8,46.2 781.2,43.2 				"/>
				<path id="XMLID_136_" class="st10" d="M749.2,23.8c1.5,25.4,2.2,38.3,2.2,38.5l-0.7,0.1c0-0.2-0.8-13.1-2.2-38.5
					c-0.1-1.3-0.4-2.2-0.8-2.9c-0.5-0.4-0.7-0.6-0.8-0.6c-2.8-0.6-4.3-0.9-4.5-0.9l-0.2-0.6c0.4-0.1,2,0.2,4.9,0.9
					c0,0,0.3,0.2,0.9,0.7C748.7,21.2,749.1,22.3,749.2,23.8z"/>
				<path id="XMLID_135_" class="st10" d="M754,22.8c0.9,26.4,1.3,39.7,1.4,40h-0.7c0-0.2-0.4-13.5-1.3-40c-0.1-1.6-0.4-2.7-0.9-3.4
					l-0.8-0.6c-2.5-0.6-4-0.8-4.5-0.8l-0.2-0.7c0.3-0.1,1.9,0.2,4.8,0.9c0.4,0,0.7,0.2,1.1,0.7C753.6,19.7,754,21,754,22.8z"/>
				<path id="XMLID_134_" class="st10" d="M759.5,21.8l0.6,41.7h-0.6l-0.7-41.7c0-2-0.4-3.3-1-3.8l-0.5-0.2h-0.1
					c-2.5-0.6-4.1-0.8-4.6-0.8l-0.1-0.7c0.3-0.1,1.9,0.2,4.7,0.8c0.4,0,0.7,0.1,1,0.3C759,18,759.4,19.4,759.5,21.8z"/>
				<path id="XMLID_133_" class="st10" d="M762.6,16.3h-0.1l0,0.1l-0.1-0.1c-2.8-0.6-4.3-0.8-4.5-0.8l-0.1-0.6
					c0.3-0.1,1.9,0.2,4.8,0.8c0.3,0,0.6,0.1,0.9,0.3c0.8,0.6,1.2,2.1,1.2,4.3l0.8,43.1h-0.7l-0.7-43c0-2.1-0.4-3.4-1-3.9
					C762.8,16.5,762.7,16.4,762.6,16.3z"/>
				<path id="XMLID_132_" class="st10" d="M770,18.8c0.6,30.1,1,45.3,1,45.5l-0.7,0.1c0-0.3-0.4-15.5-1-45.6c0-1.9-0.3-3.2-0.9-3.8
					c-0.2-0.2-0.4-0.2-0.6-0.2h-0.1c-2.5-0.6-4-0.8-4.5-0.8l-0.1-0.7c0.3-0.1,1.9,0.2,4.8,0.9c0.3-0.1,0.7,0.1,1,0.4
					C769.7,15.2,770,16.7,770,18.8z"/>
				<path id="XMLID_131_" class="st10" d="M775.5,17.3l0.6,47.2h-0.6l-0.6-47.2c0-1.9-0.3-3.2-0.9-3.8l-0.6-0.2h-0.1
					c-2.5-0.6-4-0.8-4.5-0.8l-0.1-0.7c0.3-0.1,1.9,0.2,4.8,0.9c0.3-0.1,0.7,0.1,1,0.4C775.1,13.8,775.5,15.2,775.5,17.3z"/>
				<g id="XMLID_113_">
					<path id="XMLID_130_" class="st10" d="M791,9.7c0.9,0.7,1.5,1.7,1.8,3c0.4,2.3,1.4,20.4,3,54.3l-0.7,0
						c-0.4-8.6-0.9-17.3-1.3-26c-0.9-17.4-1.5-26.8-1.7-28.2c-0.2-1.1-0.7-2-1.5-2.5l-1.1-0.5l-8.9-1.8l0.1-0.7l8.9,1.8
						C789.9,9,790.4,9.2,791,9.7z"/>
					<path id="XMLID_129_" class="st10" d="M744.2,22.2c0.6,0.5,0.9,1.5,1,2.8l2,37.8l-0.7,0l-2-37.9c0-1.1-0.3-1.9-0.7-2.2
						c-0.1-0.1-0.3-0.2-0.5-0.2h0l-10.9-0.7l0.1-0.6c0.5,0.1,2.3,0.2,5.5,0.3c3.2,0.2,4.9,0.3,5.2,0.3
						C743.6,21.8,743.9,22,744.2,22.2z"/>
					<path id="XMLID_128_" class="st10" d="M740.8,62.3l5.9-1c0.4-0.1,16.8,1.3,49.3,4.1c0.5,0.1,0.8,0.4,0.9,0.9
						c0.1,0.6-0.2,1-0.7,1L780.5,72l-0.2,0c-0.5,0-0.8-0.2-1-0.8c-0.1-0.3,0-0.5,0.1-0.8s0.3-0.4,0.6-0.5l10.6-3.1
						c-28.2-2.4-42.7-3.7-43.5-3.7l-5.8,1.1c-5,0.9-8.4,1.5-10,1.9c-0.3,0.1-0.5,0-0.8-0.1c-0.3-0.1-0.4-0.3-0.5-0.6
						c-0.1-0.3,0-0.5,0-0.8c0.1-0.2,0.3-0.4,0.6-0.5C730.8,64.2,734.2,63.6,740.8,62.3z"/>
					<polygon id="XMLID_127_" class="st10" points="782.2,6.8 782.2,70.2 779.7,71 779.2,9 734.2,22.3 733.2,64.9 730.9,65.2 
						731.8,20.7 780,6 					"/>
					<polygon id="XMLID_126_" class="st50" points="731.6,31 734,30.9 733.8,35.2 731.5,35.2 					"/>
					<polygon id="XMLID_125_" class="st50" points="779.5,33.8 782.2,33.8 782.2,40 779.5,40 					"/>
					<polygon id="XMLID_124_" class="st50" points="779.3,21.4 782.2,21.3 782.2,27.6 779.5,27.7 					"/>
					<polygon id="XMLID_123_" class="st50" points="779.5,46.3 782.2,46.2 782.2,52.5 779.6,52.6 					"/>
					<polygon id="XMLID_122_" class="st50" points="782.2,58.8 782.2,65 779.7,65.2 779.6,59 					"/>
					<polygon id="XMLID_121_" class="st50" points="731.5,39.5 733.8,39.5 733.7,43.8 731.3,43.8 					"/>
					<polygon id="XMLID_120_" class="st50" points="731.2,48.3 733.6,48.2 733.5,52.5 731.2,52.5 					"/>
					<polygon id="XMLID_119_" class="st50" points="733.3,56.9 733.2,61.1 731,61.2 731.1,56.9 					"/>
					<polygon id="XMLID_118_" class="st50" points="731.7,26.7 731.8,20.7 734.6,19.8 734.5,21.8 735,22.1 734.2,22.3 734,26.7 
						732.3,26.3 					"/>
					<polygon id="XMLID_117_" class="st50" points="774.1,7.8 780,6 782.2,6.8 782.2,15.2 780.5,14.9 779.2,15.5 779.2,9 
						774.7,10.5 774.2,10.1 					"/>
					<polygon id="XMLID_116_" class="st50" points="740,18.2 745.8,16.3 746,18.4 746.4,18.7 740.5,20.5 740,20.3 					"/>
					<polygon id="XMLID_115_" class="st50" points="751.2,14.8 757.1,13 757.2,15 757.8,15.5 751.7,17.2 751.2,17 					"/>
					<polygon id="XMLID_114_" class="st50" points="768.5,11.8 769.2,12 763.2,13.8 762.5,13.6 762.4,11.3 768.3,9.5 					"/>
				</g>
			</g>
		</g>
	</g>
	<g id="XMLID_4_">
		<path id="XMLID_109_" class="st9" d="M305.7,86.2c0,0.5-0.5,0.9-1.6,1.2c-1.1,0.3-2.3,0.5-3.8,0.5s-2.8-0.2-3.9-0.5
			c-1.1-0.4-1.6-0.8-1.6-1.2c0-0.5,0.5-0.9,1.6-1.2s2.4-0.5,3.9-0.5s2.8,0.2,3.8,0.5C305.2,85.3,305.7,85.7,305.7,86.2z"/>
		<path id="XMLID_108_" class="st9" d="M283.8,83.8c0,0.3-0.2,0.6-0.5,0.8c-0.4,0.2-0.8,0.3-1.3,0.3c-0.5,0-1-0.1-1.4-0.3
			c-0.4-0.2-0.5-0.5-0.5-0.8c0-0.3,0.2-0.6,0.5-0.8c0.4-0.2,0.8-0.3,1.4-0.3c0.5,0,0.9,0.1,1.3,0.3
			C283.6,83.2,283.8,83.5,283.8,83.8z"/>
		<g id="XMLID_5_">
			<g id="XMLID_73_">
				<g id="XMLID_105_">
					<path id="XMLID_107_" class="st51" d="M296.8,46l0.9-3.3c1.4,0.6,2.3,1.5,2.7,2.9c0.1,0.3,0.2,0.7,0.2,1.1
						c-0.5,0.7-0.9,1.2-1.2,1.8c-0.6-0.2-1.1-0.6-1.5-1c-0.1-0.1-0.1-0.1-0.2-0.2C297.4,47,297.1,46.5,296.8,46z"/>
					<path id="XMLID_106_" class="st52" d="M299.5,48.5c-0.1,0.2-0.2,0.4-0.2,0.5c-0.1,0.4-0.3,0.9-0.6,1.7
						c-1.2-0.6-2.1-1.3-2.5-2.3l0.7-2.4c0.3,0.5,0.6,0.9,0.9,1.3c0.1,0.1,0.1,0.1,0.2,0.2C298.4,48,298.9,48.3,299.5,48.5z"/>
				</g>
				<g id="XMLID_74_">
					<g id="XMLID_100_">
						<path id="XMLID_104_" class="st52" d="M310.7,36.1c0.2-1.6-0.1-3.2-0.7-4.8c-0.7,1-1.5,1.9-2.3,2.8c-1.9,1.9-4.1,3.4-6.6,4.6
							l0.4-1.2c-1.2,0.5-2.1,1.2-2.8,2l-0.3,1.8c-0.2,1.1-0.3,2.2-0.2,3.2c0.1,0.6,0.2,1.1,0.3,1.6c0.3,0.9,0.7,1.7,1.2,2.4
							c0.1,0.1,0.2,0.2,0.3,0.3c0.6,0.5,1.2,1,1.7,1.3l0.1,0.1c0.1,0,0.1,0.1,0.2,0.1c0.5,0.4,1,0.6,1.4,0.7
							c0.8,0.3,1.8-0.2,2.9-1.5c0.5-0.6,1-1.2,1.4-1.8c0.2-0.3,0.4-0.5,0.5-0.8c0.1-0.2,0.2-0.4,0.3-0.6c0.1-0.2,0.2-0.5,0.3-0.7
							l0.8-1.9c-0.3-0.1-0.5-0.2-0.6-0.5l1.8-0.5c-0.5-0.4-0.9-0.9-1.1-1.4c0-0.1,0-0.1-0.1-0.2c0-0.1-0.1-0.2-0.1-0.3
							c-0.1-0.1-0.1-0.3-0.1-0.4c-0.1-0.4-0.1-0.8,0-1.3c0-0.2,0.1-0.4,0.1-0.7c0.1-0.2,0.1-0.4,0.2-0.7
							C310.2,37.2,310.4,36.7,310.7,36.1z"/>
						<path id="XMLID_101_" class="st51" d="M299.8,48.4c-0.6-0.7-1-1.5-1.2-2.4c-0.1-0.5-0.3-1-0.3-1.6c-0.1-1,0-2,0.2-3.2l0.3-1.8
							c0.7-0.8,1.6-1.5,2.8-2l-0.4,1.2c2.5-1.1,4.7-2.7,6.6-4.6c0.8-0.9,1.6-1.8,2.3-2.8c0.6,1.6,0.8,3.2,0.7,4.8
							c0-0.1,0.1-0.1,0.1-0.2c0-0.1,0.1-0.1,0.1-0.2c0.1-0.2,0.1-0.3,0.2-0.4c0.2-2.2,0-4.4-0.6-6.4c-0.3-0.8-0.7-1.5-1.2-2.2
							c-1.8-2.6-4.2-4.1-7.3-4.7c-3.1-0.6-5.9,0.1-8.5,1.9c-2.6,1.8-4.1,4.2-4.7,7.3c-0.5,2.9,0,5.5,1.5,7.9
							c0.1,0.2,0.2,0.3,0.3,0.5c1.9,2.8,4.3,4.8,7.4,6.2c0,0,0,0,0,0.1C298.5,46.8,299.1,47.7,299.8,48.4z M309.9,43.7
							c0.5-0.2,0.9-0.6,1.2-1.1l-1.8,0.5C309.4,43.4,309.6,43.6,309.9,43.7z"/>
					</g>
					<g id="XMLID_92_">
						<path id="XMLID_97_" class="st10" d="M305.7,39.4C305.7,39.4,305.7,39.4,305.7,39.4c0.2,0.4,0.5,0.7,0.8,1
							c0.5,0.5,1.1,0.9,1.8,1.1c0.6-1.7,0.9-3.4,1.1-5.2c-0.1,0-0.1,0-0.2,0c0,0-0.1,0-0.1,0c-0.8,0-1.7,0.3-2.6,0.8
							c-0.3,0.1-0.5,0.3-0.8,0.5C305.5,38.3,305.5,38.9,305.7,39.4z M305.9,38.3L305.9,38.3L305.9,38.3L305.9,38.3z"/>
						<path id="XMLID_94_" class="st21" d="M309.3,36.4c0-0.2,0.1-0.3,0.1-0.5c-0.8-0.3-1.8-0.2-3,0.4c-0.2,0.1-0.4,0.2-0.6,0.3
							c-0.1,0.3-0.1,0.7-0.2,1c0.3-0.2,0.5-0.3,0.8-0.5c0.9-0.5,1.8-0.8,2.6-0.8c0,0,0.1,0,0.1,0C309.2,36.3,309.3,36.3,309.3,36.4z
							 M305.9,38.3L305.9,38.3L305.9,38.3L305.9,38.3z"/>
						<path id="XMLID_93_" class="st22" d="M309.4,35.8C309.4,35.9,309.4,35.9,309.4,35.8l0.5-0.5c-0.5-0.2-1-0.2-1.4-0.2
							c-0.8,0-1.6,0.3-2.4,0.7c-0.2,0.1-0.4,0.2-0.7,0.4c-0.2,1.3-0.1,2.3,0.3,3.2c-0.1-0.4-0.2-1-0.1-1.8c0-0.3,0.1-0.6,0.2-1
							c0.2-0.1,0.4-0.2,0.6-0.3C307.6,35.7,308.6,35.5,309.4,35.8z"/>
					</g>
					<path id="XMLID_91_" class="st10" d="M308.4,37.4c0.1,0.1,0.1,0.2,0.2,0.2c0.1,0,0.2-0.1,0.2-0.2c0-0.1,0.1-0.3,0.1-0.5
						c0-0.2-0.1-0.3-0.1-0.5c-0.1-0.1-0.2-0.2-0.2-0.2c-0.1,0-0.2,0.1-0.2,0.2c-0.1,0.1-0.1,0.3-0.1,0.5
						C308.3,37.1,308.4,37.3,308.4,37.4z"/>
					<path id="XMLID_90_" class="st53" d="M308.9,35.4c0.2,0.1,0.4,0.2,0.6,0.3c0.3,0.2,0.7,0.4,1,0.6c0,0,0,0,0,0l0.9-1
						c-1.5-1.4-3.1-2.4-4.9-3.1c0,0-0.1,0.1-0.1,0.1c-0.5,0.5-0.9,1.1-1.2,1.8c0.2,0,0.4,0.1,0.6,0.2
						C306.9,34.5,307.9,34.9,308.9,35.4z"/>
					<path id="XMLID_89_" class="st26" d="M305.8,45.4l-0.4,0.2c0.6,0.9,1.4,1.3,2.4,1.4l0.3-0.3C306.9,46.5,306.1,46.1,305.8,45.4z
						"/>
					<g id="XMLID_82_">
						<path id="XMLID_88_" class="st10" d="M308.4,37.6c0.1,0.1,0.2,0.1,0.3,0.1c0.1,0,0.2-0.1,0.2-0.2c0,0,0,0,0,0
							c0.1-0.1,0.1-0.3,0.1-0.4c0-0.2,0-0.3-0.1-0.5c-0.1-0.1-0.2-0.1-0.3-0.1c-0.1,0-0.2,0.1-0.2,0.2c-0.1,0.1-0.1,0.3-0.1,0.5
							C308.3,37.3,308.4,37.5,308.4,37.6C308.4,37.6,308.4,37.6,308.4,37.6z"/>
						<path id="XMLID_85_" class="st54" d="M308.9,37.6c0,0.1,0,0.2,0.1,0.3c0,0.3,0,0.6-0.1,1c-0.1,0.4-0.2,0.7-0.3,1
							c-0.1,0.3-0.3,0.4-0.4,0.4c0,0,0,0-0.1,0c0,0.1,0,0.3-0.1,0.4c-0.1,0.2-0.2,0.3-0.3,0.3c-0.1,0-0.2-0.1-0.3-0.2
							c-0.1-0.1-0.1-0.3-0.1-0.5c0-0.2,0-0.4,0.1-0.6c0.1-0.2,0.2-0.3,0.3-0.3c0.1,0,0.2,0,0.2,0.1c0-0.2,0-0.4,0.1-0.7
							c0.1-0.4,0.2-0.7,0.3-1c0,0,0-0.1,0-0.1c0,0,0,0,0,0c-0.1-0.1-0.1-0.2-0.1-0.4c0-0.2,0-0.3,0.1-0.5c0.1-0.1,0.2-0.2,0.2-0.2
							c0.1,0,0.2,0,0.3,0.1c0.1,0.1,0.1,0.3,0.1,0.5C309.1,37.3,309,37.4,308.9,37.6C309,37.5,308.9,37.5,308.9,37.6z M308,36.8
							c-0.3,0.5-0.4,1.1-0.6,1.8c-0.1,0.7-0.2,1.4-0.1,1.9c0.1,0.5,0.2,0.8,0.4,0.9c0.2,0,0.4-0.2,0.7-0.7c0.2-0.5,0.4-1.1,0.5-1.8
							c0.1-0.7,0.2-1.4,0.1-1.9c-0.1-0.6-0.2-0.8-0.4-0.9C308.5,36.1,308.3,36.3,308,36.8z"/>
						<path id="XMLID_84_" class="st55" d="M308.2,40.2c0,0,0-0.1,0-0.1c0-0.2,0-0.4-0.1-0.6c0,0-0.1-0.1-0.1-0.1
							c-0.1-0.1-0.2-0.1-0.2-0.1c-0.1,0-0.2,0.1-0.3,0.3c-0.1,0.2-0.2,0.4-0.1,0.6c0,0.2,0,0.4,0.1,0.5c0.1,0.1,0.2,0.2,0.3,0.2
							c0.1,0,0.2-0.1,0.3-0.3C308.2,40.5,308.2,40.3,308.2,40.2z"/>
						<path id="XMLID_83_" class="st56" d="M308,39.4C308,39.4,308.1,39.5,308,39.4c0.2,0.2,0.2,0.4,0.2,0.6c0,0,0,0.1,0,0.1
							c0,0,0,0,0.1,0c0.1,0,0.2-0.1,0.4-0.4c0.1-0.3,0.2-0.6,0.3-1c0.1-0.4,0.1-0.7,0.1-1c0-0.1,0-0.2-0.1-0.3
							c-0.1,0.1-0.2,0.2-0.2,0.2c-0.1,0-0.2,0-0.3-0.1c0,0,0,0.1,0,0.1c-0.1,0.3-0.2,0.6-0.3,1C308.1,39,308,39.2,308,39.4z"/>
					</g>
					<g id="XMLID_79_">
						<path id="XMLID_81_" class="st57" d="M288.3,25.7c-0.3,0.8-0.5,1.5-0.4,2.2c0.2,1.4,1.3,2.5,3.4,3.1c0.1,0,0.3,0.1,0.4,0.1
							c0,0,0.1,0,0.1,0c0.8,0.2,1.7,0.4,2.5,0.5c6.3,1.1,11.4,0.2,15.5-2.8c1.8,2.5,2.7,4.6,2.7,6.1c1.3-1.4,2.1-3.3,2.5-5.6
							c-0.3-1.7-1-3.2-2.1-4.4c1.4,0.9,3.1,1,5.1,0.2c-1.9,0.1-3.8-0.3-5.6-1.3c-0.1-0.1-0.2-0.1-0.3-0.2c-3.1-3.3-7.2-5-12.4-5.1
							c-0.1,0-0.2,0-0.3,0c-0.3,0-0.6,0-0.9,0c-1.3,0.1-2.4,0.3-3.5,0.7c-0.2,0.1-0.4,0.1-0.5,0.2c-0.1,0-0.2,0.1-0.3,0.2
							c-0.6,0.3-1.1,0.6-1.6,0.9c-1.7,1.1-3,2.7-4,4.7c0,0,0,0.1,0,0.1C288.4,25.5,288.4,25.6,288.3,25.7z"/>
						<path id="XMLID_80_" class="st58" d="M315,29.4c-0.4,2.3-1.2,4.2-2.5,5.6c0-1.5-0.9-3.5-2.7-6.1c-4,2.9-9.2,3.9-15.5,2.8
							c-0.8-0.1-1.7-0.3-2.5-0.5c0,0-0.1,0-0.1,0c-0.1,0-0.3-0.1-0.4-0.1c-2.1-0.7-3.2-1.7-3.4-3.1c-0.1-0.7,0.1-1.4,0.4-2.2
							c-0.3,0.7-0.5,1.4-0.8,2.1c-0.1,0.2-0.1,0.4-0.2,0.6c-0.3,1.4-0.3,2.7-0.2,4c0.2,1.5,0.6,2.9,1.4,4.3c0.4,0.8,1,1.6,1.6,2.3
							l0,0c0.3,0.4,0.5,0.9,0.6,1.4c0.4,1.2,0.5,2.6,0.2,4.1c0.5-0.5,0.9-1.2,1.1-1.9c0-0.1,0.1-0.1,0.1-0.2c0.8,1.8,2.1,3.2,4,4.2
							c0.2,0.1,0.4,0.2,0.6,0.3c0-0.7,0.1-1.5,0.3-2.3c0.1-0.2,0.1-0.5,0.2-0.7c0.2,0.5,0.4,0.9,0.7,1.3c-0.6-2.9-0.2-5.3,1.3-7
							c0.8-0.4,1.6-0.8,2.3-1.3c0.3-0.2,0.5-0.4,0.8-0.5l-0.8,1.8c1.1-0.8,2.2-1.5,3.1-2.3c2.1-1.7,3.9-3.5,5.4-5.5
							c1.2,2.6,1.5,5.2,0.9,7.5c0,0.1,0,0.1,0,0.2c0.4-0.3,0.8-0.8,1-1.5c-0.1,1.3-0.4,2.5-0.9,3.5c1.3-1.1,2.2-2.7,2.9-4.8
							c-0.2,1.2,0,2.1,0.6,2.8c-0.2-0.5-0.2-1-0.1-1.7c0-0.1,0-0.2,0.1-0.3l0,0C315.2,33.5,315.4,31.3,315,29.4z"/>
					</g>
					<g id="XMLID_76_">
						<path id="XMLID_78_" class="st52" d="M299.1,35.7c0-0.3,0.1-0.6,0.1-0.9c-0.7-1-1.6-1.2-2.6-0.6c-0.7,0.6-1.1,1.4-1.1,2.6
							c0,0.2,0,0.4,0,0.6c0.5,2.3,1.5,3.5,3.1,3.7c0-0.6,0-1.2,0-1.8c-0.7,0-1.2-0.4-1.6-1c-0.4-0.5-0.4-1.1,0-1.7
							c0.4-0.5,0.9-0.6,1.6-0.3c-0.3-0.4-0.6-0.7-1-0.8c-0.6-0.1-1.1,0.1-1.5,0.7c0-0.9,0.5-1.5,1.3-1.7
							C298,34.7,298.6,35,299.1,35.7z"/>
						<path id="XMLID_77_" class="st51" d="M298.7,39.4c0-1.2,0.1-2.4,0.4-3.7c-0.5-0.7-1.1-1.1-1.7-1c-0.8,0.2-1.3,0.7-1.3,1.7
							c0.4-0.6,0.9-0.9,1.5-0.7c0.4,0.1,0.7,0.3,1,0.8c-0.7-0.2-1.2-0.1-1.6,0.3c-0.3,0.6-0.3,1.2,0,1.7
							C297.5,39.1,298.1,39.4,298.7,39.4z"/>
					</g>
					<path id="XMLID_75_" class="st10" d="M293.8,22.5c17.6,5.7,23.1,5.6,16.6-0.4C313.2,25.5,307.7,25.6,293.8,22.5z"/>
				</g>
			</g>
			<g id="XMLID_6_">
				<g id="XMLID_70_">
					<path id="XMLID_72_" class="st32" d="M296.5,68.8c0.7-0.1,1.3-0.4,1.8-0.8l0.6,2.1c-0.3,0.7-0.9,0.9-1.6,0.6
						C297.1,70.1,296.8,69.5,296.5,68.8z"/>
					<path id="XMLID_71_" class="st33" d="M298.4,68c-0.5,0.4-1.1,0.7-1.8,0.8c-0.1-0.3-0.3-0.6-0.4-1c-0.2-0.5-0.5-1.1-0.7-1.7
						c0.5-0.8,1.2-1.1,2.1-0.9L298.4,68z"/>
				</g>
				<g id="XMLID_66_">
					<path id="XMLID_69_" class="st32" d="M300.9,78.6c0.6-0.2,1.2-0.5,1.7-0.9c-1.1-2.2-2.2-4.5-3.2-6.8c0,0,0-0.1,0-0.1
						c0,0-0.1,0.1-0.1,0.1c-0.3,0.1-0.5-0.1-0.8-0.5c0.3,0.1,0.6,0.2,0.8,0.1l0,0c-0.1-0.2-0.2-0.4-0.2-0.5
						c-0.6-0.1-1.1,0.1-1.6,0.7c0,0.9,0.2,1.8,0.6,2.8C298.8,75.1,299.8,76.9,300.9,78.6z"/>
					<path id="XMLID_68_" class="st33" d="M299.2,70.6c-0.2,0.1-0.5,0-0.8-0.1c0.3,0.4,0.6,0.6,0.8,0.5c0,0,0.1,0,0.1-0.1
						L299.2,70.6z"/>
					<path id="XMLID_67_" class="st34" d="M302.6,77.7c-0.6,0.4-1.1,0.7-1.7,0.9l1.1,2.3c0.8-0.1,1.4-0.5,1.9-1.1l-0.9-1.4
						C302.9,78.2,302.7,77.9,302.6,77.7z"/>
				</g>
				<g id="XMLID_58_">
					<path id="XMLID_65_" class="st35" d="M301.2,82.2l5.1-0.2c0.8-0.1,1.6-0.4,2.5-0.7l0.4-0.7c-0.3-0.3-0.6-0.5-0.9-0.6
						c-0.9,0.3-1.5,0.4-1.9,0.3c-0.4,0-0.6-0.1-0.7-0.1c-0.1,0.1-0.1,0.4-0.1,0.7c-0.2,0.1-0.3,0.1-0.5,0c0-0.3,0-0.5,0.1-0.8
						c-0.1,0-0.1,0-0.2,0c-0.1,0.3-0.2,0.5-0.2,0.8c-0.2,0.1-0.3,0-0.4-0.1c0.1-0.3,0.1-0.6,0.3-0.8c-0.1,0-0.1-0.1-0.2-0.1
						c-0.2,0.3-0.3,0.5-0.3,0.9c-0.2,0-0.4,0-0.4-0.2c0.1-0.3,0.2-0.6,0.4-0.9c-0.1,0-0.1-0.1-0.2-0.1c-0.2,0.3-0.4,0.6-0.5,0.9
						c-0.1,0.1-0.2,0-0.3-0.2c0.1-0.4,0.2-0.7,0.5-1c-0.1-0.1-0.2-0.2-0.3-0.4c-0.4,0.2-0.6,0.6-0.6,1.1c0,0,0,0.1,0,0.1
						c-0.1,0.4-0.2,0.6-0.4,0.7c-0.2,0-0.4,0-0.6-0.2c-0.2-0.2-0.3-0.5-0.4-0.8c0-0.2-0.1-0.3-0.3-0.3
						C301.1,80.5,301,81.4,301.2,82.2z"/>
					<path id="XMLID_60_" class="st36" d="M303.9,79.4c-0.3,0.3-0.4,0.6-0.5,1c0.1,0.2,0.2,0.2,0.3,0.2c0.1-0.3,0.2-0.6,0.5-0.9
						C304.1,79.5,304,79.4,303.9,79.4z M304.6,79.9c-0.1-0.1-0.2-0.2-0.3-0.2c-0.2,0.3-0.3,0.6-0.4,0.9c0,0.1,0.2,0.2,0.4,0.2
						C304.3,80.4,304.5,80.2,304.6,79.9z M305.3,80.2c-0.1,0.2-0.1,0.5-0.1,0.8c0.1,0.1,0.3,0.1,0.5,0c0-0.3,0.1-0.5,0.1-0.7
						C305.6,80.1,305.5,80.1,305.3,80.2z M305.2,80.1c-0.1-0.1-0.2-0.2-0.3-0.1c-0.1,0.3-0.2,0.5-0.3,0.8c0.1,0.1,0.3,0.1,0.4,0.1
						C305,80.6,305,80.4,305.2,80.1z"/>
					<path id="XMLID_59_" class="st37" d="M301.2,82.2l0,1l5.2-1c1-0.2,1.8-0.5,2.5-0.8l0.4-0.7c0-0.1-0.1-0.1-0.1-0.1l-0.4,0.7
						c-0.9,0.4-1.7,0.6-2.5,0.7L301.2,82.2z"/>
				</g>
				<g id="XMLID_45_">
					<g id="XMLID_55_">
						<path id="XMLID_57_" class="st20" d="M293.3,53.7l1.3-1.1c0-0.6-0.3-0.9-0.8-1c-0.5,0.4-1,0.8-1.5,1.2L293.3,53.7z"/>
						<path id="XMLID_56_" class="st32" d="M292.2,52.8c-0.6,0.5-1.2,1-1.7,1.5c0.3,0.5,0.6,0.8,1.1,0.9l1.7-1.5L292.2,52.8z"/>
					</g>
					<g id="XMLID_52_">
						<path id="XMLID_54_" class="st39" d="M292.7,51.1L292.7,51.1c0.4,1,1,1.8,1.8,2.6l2.3-2.4c0.5-0.7,0.6-1.3,0.2-1.9
							c-0.6-0.4-1.1-0.5-1.7-0.2L292.7,51.1z"/>
						<path id="XMLID_53_" class="st40" d="M292.7,51.1l-0.6,0.4c0.3,0.8,0.9,1.7,1.9,2.6l0.4-0.4C293.7,52.9,293.1,52.1,292.7,51.1
							L292.7,51.1z"/>
					</g>
					<path id="XMLID_51_" class="st32" d="M290.4,54.3c0.4-0.4,0.9-0.4,1.4,0c0.3,1,0.6,1.9,0.8,2.9c0.1,0.6,0.3,1.2,0.4,1.9
						c-0.5,0.6-1.1,0.8-1.9,0.6c-0.1-0.3-0.1-0.7-0.2-1C290.7,57.3,290.5,55.8,290.4,54.3z"/>
					<g id="XMLID_46_">
						<path id="XMLID_50_" class="st32" d="M292.1,60c0-0.6,0.3-0.9,0.8-0.9c0,0,0,0,0,0c-0.1,0-0.3-0.1-0.4-0.1c-0.1,0-0.1,0-0.2,0
							c-0.4,0-0.8,0.2-1,0.6c-0.1,0.7-0.2,1.3-0.3,1.6c0,0.3,0,0.6,0,0.8c0.1,0.2,0.1,0.4,0.2,0.5c0.2,0.2,0.3,0.4,0.5,0.5
							c0,0,0,0,0,0c0.1,0,0.2,0,0.3,0c0.1-0.1,0.1-0.2,0-0.3c-0.3-0.3-0.5-0.6-0.5-0.9c0,0,0-0.1,0-0.1c0,0,0,0,0,0
							C291.9,61.5,292.1,60.9,292.1,60C292.1,60.1,292.1,60,292.1,60C292.1,60,292.1,60,292.1,60z"/>
						<path id="XMLID_49_" class="st19" d="M292.1,60c0.1,0.6,0.5,1,1.1,1.2c0.1,0,0.2,0.1,0.3,0.1c0,0,0,0.1,0,0.2
							c0,0,0,0.1,0.1,0.2c0,0.1,0.1,0.3,0.2,0.6c0.1,0.3,0.3,0.4,0.6,0.3c0,0,0,0,0,0c0,0,0-0.1,0-0.1c0,0,0,0,0,0
							c-0.1-0.2-0.2-0.4-0.2-0.5l-0.1-1.1c0,0,0,0,0,0c-0.1-0.6-0.5-1.1-1.2-1.7C292.4,59.1,292.1,59.4,292.1,60z"/>
						<path id="XMLID_48_" class="st33" d="M291.5,61.7c0.4-0.2,1-0.3,1.7-0.3c0.1,0,0.1,0,0.2,0c0.1,0,0.1,0,0.2,0
							c0-0.1,0-0.1,0-0.2c-0.1,0-0.2,0-0.3-0.1c-0.6-0.2-0.9-0.6-1.1-1.2c0,0,0,0,0,0c0,0,0,0,0,0.1
							C292.1,60.9,291.9,61.5,291.5,61.7C291.5,61.7,291.5,61.7,291.5,61.7z"/>
						<path id="XMLID_47_" class="st20" d="M293.3,61.4c-0.1,0-0.1,0-0.2,0c-0.7,0-1.3,0.1-1.7,0.3c0,0,0,0.1,0,0.1
							c0,0.3,0.2,0.6,0.5,0.9c0.1,0.1,0.1,0.2,0,0.3c-0.1,0-0.2,0-0.3,0c0,0,0,0,0,0c0.1,0.1,0.3,0.2,0.4,0.2
							c0.2,0.1,0.3,0.2,0.5,0.2c0,0,0,0,0,0c0.1,0.2,0.3,0.2,0.5,0.2l0,0c0.2,0.2,0.3,0.2,0.4,0.1c0.1-0.1,0.1-0.2,0-0.4l0,0
							c-0.3-0.4-0.4-0.8-0.4-1.2c0-0.4,0-0.6,0-0.7C293.2,61.5,293.3,61.4,293.3,61.4z"/>
					</g>
				</g>
				<path id="XMLID_44_" class="st38" d="M291.7,63.3l4.6-3.1l2.2,6.5c-0.1,0.1-0.2,0.2-0.3,0.2c-0.2,0.2-0.7,0.6-1.6,1
					c-0.4,0.2-1,0.4-1.8,0.6L291.7,63.3z"/>
				<g id="XMLID_41_">
					<path id="XMLID_43_" class="st19" d="M291.7,72.6c0-0.7,0-1.3,0.1-2c0.8,0,1.5-0.2,2.3-0.6l-0.7,4c-0.6,0.5-1.2,0.4-1.7-0.2
						L291.7,72.6z"/>
					<path id="XMLID_42_" class="st20" d="M294,70c-0.7,0.4-1.5,0.7-2.3,0.6c0,0.7-0.1,1.3-0.1,2c0-1.9,0-3.9,0.2-5.9l2.7,0.2
						l-0.5,2.9c0,0,0,0,0,0L294,70z"/>
				</g>
				<g id="XMLID_37_">
					<path id="XMLID_40_" class="st19" d="M284.4,71.3c-0.2,0.6-0.2,1.2-0.2,1.9c2.4,0.2,4.9,0.5,7.5,0.9c0,0,0.1,0,0.1,0
						c0,0,0-0.1,0-0.1c0-0.3,0.3-0.4,0.8-0.4c-0.3,0.2-0.5,0.4-0.5,0.6l0,0c0.2,0,0.4,0.1,0.6,0.1c0.4-0.5,0.5-1,0.3-1.7
						c-0.8-0.5-1.7-0.8-2.6-1C288.5,71.4,286.5,71.2,284.4,71.3z"/>
					<path id="XMLID_39_" class="st10" d="M284.2,73.2c0-0.7,0-1.3,0.2-1.9l-2.5-0.3c-0.3,0.7-0.4,1.5-0.1,2.2l1.7,0
						C283.7,73.2,284,73.2,284.2,73.2z"/>
					<path id="XMLID_38_" class="st20" d="M292.1,74.2c0.1-0.2,0.2-0.4,0.5-0.6c-0.5,0-0.8,0.2-0.8,0.4c0,0,0,0.1,0,0.1L292.1,74.2z
						"/>
				</g>
				<g id="XMLID_34_">
					<path id="XMLID_36_" class="st41" d="M296.5,60.8l-0.5,7c-0.3,0-0.6,0-0.9,0.1c0,0-0.1,0-0.1,0c-0.2,0-0.4,0-0.6,0v0
						c-0.6,0-1.3-0.2-1.9-0.4l0.4-4.3c0.2-1.4,1-2.1,2.4-2.3C295.7,60.9,296.1,60.8,296.5,60.8z"/>
					<path id="XMLID_35_" class="st42" d="M294.5,67.9c-0.3,0-0.6,0-0.8,0c-0.4,0-0.8,0-1.1-0.1c-0.3,0-0.9-0.2-1.8-0.6
						c-0.4-0.2-0.7-0.4-1-0.6l0.5-2.6c-0.1-3,0.6-5.1,2.2-6.4l4,1.6l-0.1,0.6l0,0.9c-0.4,0-0.8,0.1-1.1,0.1
						c-1.4,0.2-2.2,0.9-2.4,2.3l-0.4,4.3C293.3,67.7,293.9,67.9,294.5,67.9L294.5,67.9z"/>
				</g>
				<g id="XMLID_28_">
					<g id="XMLID_29_">
						<polygon id="XMLID_33_" class="st42" points="298.5,50.2 298.8,50 299,51.5 298.8,51.3 						"/>
						<polygon id="XMLID_32_" class="st40" points="298.9,53.1 298.5,53 298.8,51.3 299,51.5 298.9,53 						"/>
						<path id="XMLID_31_" class="st43" d="M298.8,50l-0.2,0.2l-0.8,0.8c-0.2-0.6-0.5-1.1-0.8-1.6c-0.3-0.5-0.7-0.9-1.2-1.2l0.7-0.8
							c0.1,0.1,0.2,0.2,0.2,0.2c0.6,0.4,1,0.8,1.2,1.1C298.3,49,298.6,49.5,298.8,50z"/>
						<path id="XMLID_30_" class="st10" d="M298.5,50.2l0.2,1.2l-0.2,1.7l0.4,0.1l-2.4,6.7c-1.2,0.1-2.2-0.1-3-0.6
							c-0.8-0.4-1.4-0.9-1.9-1.3l1.3-1.6l1.4-6.8c0.1-0.2,0.2-0.5,0.5-0.7c0.2-0.1,0.5-0.3,0.8-0.5c0.1-0.1,0.2-0.1,0.3-0.2
							c0.5,0.3,0.9,0.7,1.2,1.2c0.3,0.5,0.5,1,0.8,1.6L298.5,50.2z"/>
					</g>
				</g>
				<g id="XMLID_25_">
					<path id="XMLID_27_" class="st19" d="M297.6,54.3l-1.2,0.6c0.2,0.7,0.4,1.5,0.6,2.2c0.5-0.1,1-0.3,1.3-0.6L297.6,54.3z"/>
					<path id="XMLID_26_" class="st20" d="M296.3,54.9l1.2-0.6l-0.5-1.6c-0.5-0.2-0.9-0.1-1.2,0.3C296,53.6,296.1,54.2,296.3,54.9z"
						/>
				</g>
				<g id="XMLID_22_">
					<path id="XMLID_24_" class="st44" d="M295,53.6L295,53.6c1,0,2.1-0.1,3.1-0.6l-1.3-3.1c-0.4-0.8-1-1.1-1.7-1
						c-0.6,0.3-0.9,0.8-0.9,1.5L295,53.6z"/>
					<path id="XMLID_23_" class="st42" d="M295,53.6l0.2,0.7c0.9,0.1,1.9-0.1,3.2-0.7l-0.2-0.6C297.1,53.5,296.1,53.7,295,53.6
						L295,53.6z"/>
				</g>
				<path id="XMLID_21_" class="st19" d="M297,57.1c1.7,0.8,3.4,1.4,5.1,1.9c0.5-0.6,0.6-1.3,0.3-1.9c-1.5-0.5-3.1-0.9-4.7-1.1
					C297.1,56.1,296.9,56.5,297,57.1z"/>
				<g id="XMLID_15_">
					<path id="XMLID_20_" class="st19" d="M305.7,59c0.2,0,0.4,0,0.6,0c0.1,0,0.2,0,0.3,0c0.1,0,0.3,0,0.4-0.1
						c0.1-0.1,0.1-0.2,0-0.3c-0.1-0.1-0.3-0.1-0.5-0.1l0,0c-0.5,0.1-0.9,0-1.3-0.2c-0.4-0.2-0.6-0.3-0.6-0.3c-0.1,0-0.1-0.1-0.2-0.1
						c-0.2-0.1-0.3-0.2-0.3-0.3c0.1,0,0.1-0.1,0.2-0.1c0,0,0.1,0,0.3,0c0,0,0.1,0,0.2,0c0.1,0,0.3,0.1,0.7,0.1
						c0.4,0.1,0.6-0.1,0.6-0.3c0-0.1-0.1-0.1-0.1-0.1c-0.2,0-0.4,0-0.6-0.1l-1.1-0.4c0,0,0,0,0,0c-0.6-0.2-1.3-0.1-2.2,0.2
						c-0.5,0.5-0.6,1.1-0.3,1.7c0.6,0.5,1.3,1,1.9,1.4c0,0,0,0,0,0c0.5-0.5,0.8-0.9,1-1.3C305,58.9,305.4,58.9,305.7,59z"/>
					<path id="XMLID_17_" class="st33" d="M304.6,57.9c-0.1-0.2-0.1-0.3,0.1-0.4c-0.2,0-0.3,0-0.3,0c0,0-0.1,0-0.2,0.1
						c0,0.1,0.1,0.2,0.3,0.3C304.5,57.9,304.6,57.9,304.6,57.9z M306.6,59c-0.1,0-0.2,0-0.3,0c-0.2,0-0.4,0-0.6,0
						c-0.1,0.3-0.4,0.6-0.9,1l0.5-0.1c0.2-0.1,0.3-0.2,0.4-0.3c0.2-0.1,0.3-0.2,0.4-0.3c0,0,0,0,0,0C306.4,59.3,306.5,59.2,306.6,59
						z"/>
					<path id="XMLID_16_" class="st20" d="M304.8,60c0.5-0.4,0.8-0.8,0.9-1c-0.4,0-0.7-0.1-1.1-0.2c-0.2,0.4-0.6,0.8-1,1.3
						C304.1,60.1,304.5,60.1,304.8,60z"/>
				</g>
				<g id="XMLID_7_">
					<path id="XMLID_14_" class="st45" d="M281.3,69.8l-2.1,4.7c-0.2,0.8-0.4,1.6-0.5,2.6l0.4,0.7c0.4-0.1,0.7-0.3,0.9-0.5
						c0.2-0.9,0.3-1.5,0.6-1.9c0.2-0.3,0.3-0.5,0.4-0.5c-0.1-0.1-0.3-0.3-0.5-0.4c0-0.2,0.1-0.3,0.2-0.4c0.2,0.1,0.4,0.2,0.6,0.4
						c0,0,0.1-0.1,0.1-0.1c-0.2-0.2-0.4-0.4-0.6-0.5c0-0.2,0.1-0.3,0.3-0.4c0.2,0.2,0.4,0.4,0.6,0.6c0.1,0,0.1-0.1,0.2-0.1
						c-0.2-0.3-0.4-0.5-0.6-0.7c0.1-0.2,0.2-0.3,0.3-0.3c0.2,0.2,0.4,0.5,0.6,0.8c0.1,0,0.1-0.1,0.2-0.1c-0.1-0.3-0.3-0.6-0.6-0.8
						c0-0.1,0.1-0.2,0.3-0.2c0.3,0.2,0.5,0.5,0.7,0.9c0.2,0,0.3-0.1,0.5-0.1c0-0.4-0.3-0.8-0.7-1c0,0-0.1,0-0.1,0
						c-0.3-0.2-0.4-0.5-0.4-0.7c0.1-0.2,0.2-0.3,0.4-0.4c0.3-0.1,0.6-0.1,0.8,0c0.2,0.1,0.3,0,0.4-0.1
						C282.9,70.5,282.1,70,281.3,69.8z"/>
					<path id="XMLID_9_" class="st46" d="M282.1,73.7c-0.2-0.3-0.4-0.5-0.6-0.8c-0.1,0-0.3,0.1-0.3,0.3c0.2,0.2,0.5,0.4,0.6,0.7
						C281.9,73.9,282.1,73.8,282.1,73.7z M282.3,73.6c0.1,0,0.2,0,0.3-0.1c-0.1-0.4-0.3-0.6-0.7-0.9c-0.2,0-0.3,0.1-0.3,0.2
						C282,73,282.2,73.3,282.3,73.6z M281.3,74.4c-0.2-0.2-0.4-0.3-0.6-0.4c-0.1,0.1-0.2,0.2-0.2,0.4c0.3,0.1,0.4,0.3,0.5,0.4
						C281.2,74.7,281.3,74.6,281.3,74.4z M281.4,74.3c0.2,0,0.2-0.1,0.3-0.3c-0.2-0.2-0.4-0.5-0.6-0.6c-0.2,0-0.2,0.2-0.3,0.4
						C281,73.9,281.2,74.1,281.4,74.3z"/>
					<path id="XMLID_8_" class="st47" d="M281.3,69.8l-0.9-0.4l-1.5,5.1c-0.2,1-0.4,1.9-0.4,2.6l0.4,0.7c0.1,0,0.1,0,0.2,0l-0.4-0.7
						c0.1-0.9,0.2-1.8,0.5-2.6L281.3,69.8z"/>
				</g>
			</g>
		</g>
	</g>
</g>
</svg>
