<?xml version="1.0" encoding="utf-8"?>
<!-- Generator: Adobe Illustrator 19.0.0, SVG Export Plug-In . SVG Version: 6.00 Build 0)  -->
<svg version="1.1" id="图层_1" xmlns="http://www.w3.org/2000/svg" xmlns:xlink="http://www.w3.org/1999/xlink" x="0px" y="0px"
	 viewBox="392 71 1024 100" style="enable-background:new 392 71 1024 100;" xml:space="preserve">
<style type="text/css">
	.st0{fill:#081842;}
	.st1{fill-rule:evenodd;clip-rule:evenodd;fill:url(#SVGID_1_);}
	.st2{fill-rule:evenodd;clip-rule:evenodd;fill:url(#SVGID_2_);}
	.st3{fill-rule:evenodd;clip-rule:evenodd;fill:#183262;}
	.st4{fill-rule:evenodd;clip-rule:evenodd;fill:#0F2142;}
	.st5{fill-rule:evenodd;clip-rule:evenodd;fill:#726841;}
	.st6{fill-rule:evenodd;clip-rule:evenodd;fill:#8EBB42;}
	.st7{fill-rule:evenodd;clip-rule:evenodd;fill:#11264E;}
	.st8{fill-rule:evenodd;clip-rule:evenodd;fill:#0B1B33;}
	.st9{fill-rule:evenodd;clip-rule:evenodd;fill:#FFFFFF;}
	.st10{fill-rule:evenodd;clip-rule:evenodd;fill:#152E5B;}
	.st11{fill-rule:evenodd;clip-rule:evenodd;fill:#E17638;}
	.st12{fill-rule:evenodd;clip-rule:evenodd;fill:#EB9D3F;}
	.st13{fill-rule:evenodd;clip-rule:evenodd;fill:#5FAADB;}
	.st14{fill-rule:evenodd;clip-rule:evenodd;fill:#459A57;}
	.st15{fill-rule:evenodd;clip-rule:evenodd;fill:#7D848B;}
	.st16{fill-rule:evenodd;clip-rule:evenodd;fill:#802A7C;}
	.st17{fill-rule:evenodd;clip-rule:evenodd;fill:#DA423E;}
	.st18{fill-rule:evenodd;clip-rule:evenodd;fill:#FCB5A0;}
	.st19{fill-rule:evenodd;clip-rule:evenodd;fill:#F98E75;}
	.st20{fill-rule:evenodd;clip-rule:evenodd;fill:#E9DFDF;}
	.st21{fill-rule:evenodd;clip-rule:evenodd;fill:#351504;}
	.st22{fill-rule:evenodd;clip-rule:evenodd;fill:#1C1313;}
	.st23{fill-rule:evenodd;clip-rule:evenodd;fill:#432A2A;}
	.st24{fill-rule:evenodd;clip-rule:evenodd;fill:#4F2006;}
	.st25{fill-rule:evenodd;clip-rule:evenodd;fill:#5F2324;}
	.st26{fill-rule:evenodd;clip-rule:evenodd;fill:#BD4A4D;}
	.st27{fill-rule:evenodd;clip-rule:evenodd;fill:#51261B;}
	.st28{fill-rule:evenodd;clip-rule:evenodd;fill:#853825;}
	.st29{fill-rule:evenodd;clip-rule:evenodd;fill:#F08F31;}
	.st30{fill-rule:evenodd;clip-rule:evenodd;fill:#A66C35;}
	.st31{fill-rule:evenodd;clip-rule:evenodd;fill:#C7690E;}
	.st32{fill-rule:evenodd;clip-rule:evenodd;fill:#ECAC99;}
	.st33{fill-rule:evenodd;clip-rule:evenodd;fill:#E2846E;}
	.st34{fill-rule:evenodd;clip-rule:evenodd;fill:#E9E9E9;}
	.st35{fill-rule:evenodd;clip-rule:evenodd;fill:#744F2F;}
	.st36{fill-rule:evenodd;clip-rule:evenodd;fill:#D6D3D7;}
	.st37{fill-rule:evenodd;clip-rule:evenodd;fill:#BBAB9D;}
	.st38{fill-rule:evenodd;clip-rule:evenodd;fill:#0B658C;}
	.st39{fill-rule:evenodd;clip-rule:evenodd;fill:#CDCDCD;}
	.st40{fill-rule:evenodd;clip-rule:evenodd;fill:#37A6D7;}
	.st41{fill-rule:evenodd;clip-rule:evenodd;fill:#208CBB;}
	.st42{fill-rule:evenodd;clip-rule:evenodd;fill:#8DD2F0;}
	.st43{fill-rule:evenodd;clip-rule:evenodd;fill:#1B9ED7;}
	.st44{fill-rule:evenodd;clip-rule:evenodd;fill:#835934;}
	.st45{fill-rule:evenodd;clip-rule:evenodd;fill:#E6DFE7;}
	.st46{fill-rule:evenodd;clip-rule:evenodd;fill:#CBB8A8;}
	.st47{fill-rule:evenodd;clip-rule:evenodd;fill:#E2E2E2;}
	.st48{fill-rule:evenodd;clip-rule:evenodd;fill:url(#SVGID_3_);}
	.st49{fill-rule:evenodd;clip-rule:evenodd;fill:#FFCC01;}
	.st50{fill-rule:evenodd;clip-rule:evenodd;fill:#FFFF00;}
	.st51{fill-rule:evenodd;clip-rule:evenodd;fill:#ED70BA;}
	.st52{fill-rule:evenodd;clip-rule:evenodd;fill:#F7CDE9;}
	.st53{fill-rule:evenodd;clip-rule:evenodd;fill:#F091CA;}
	.st54{fill-rule:evenodd;clip-rule:evenodd;fill:url(#SVGID_4_);}
	.st55{fill-rule:evenodd;clip-rule:evenodd;fill:url(#SVGID_5_);}
	.st56{fill-rule:evenodd;clip-rule:evenodd;fill:#973D6D;}
	.st57{fill-rule:evenodd;clip-rule:evenodd;fill:#C4538F;}
	.st58{fill-rule:evenodd;clip-rule:evenodd;fill:#EE78B7;}
	.st59{fill-rule:evenodd;clip-rule:evenodd;fill:url(#SVGID_6_);}
	.st60{fill-rule:evenodd;clip-rule:evenodd;fill:#833663;}
	.st61{fill-rule:evenodd;clip-rule:evenodd;fill:#FAE2F6;}
	.st62{fill-rule:evenodd;clip-rule:evenodd;fill:#C893B6;}
	.st63{fill-rule:evenodd;clip-rule:evenodd;fill:#C98C71;}
	.st64{fill-rule:evenodd;clip-rule:evenodd;fill:#050B0B;}
	.st65{fill-rule:evenodd;clip-rule:evenodd;fill:#030000;}
	.st66{fill-rule:evenodd;clip-rule:evenodd;fill:url(#SVGID_7_);}
	.st67{fill-rule:evenodd;clip-rule:evenodd;fill:url(#SVGID_8_);}
	.st68{fill-rule:evenodd;clip-rule:evenodd;fill:#64264D;}
	.st69{fill-rule:evenodd;clip-rule:evenodd;fill:#FDF2C1;}
	.st70{fill-rule:evenodd;clip-rule:evenodd;fill:#E7D895;}
	.st71{fill-rule:evenodd;clip-rule:evenodd;fill:#FFFDF6;}
	.st72{fill-rule:evenodd;clip-rule:evenodd;fill:url(#SVGID_9_);}
	.st73{fill-rule:evenodd;clip-rule:evenodd;fill:url(#SVGID_10_);}
</style>
<rect id="XMLID_1_" x="391.7" y="71" class="st0" width="1024" height="100"/>
<g>
	
		<linearGradient id="SVGID_1_" gradientUnits="userSpaceOnUse" x1="1.9222" y1="-84.9186" x2="20.6401" y2="-84.9186" gradientTransform="matrix(1.000000e-04 -1 1 -1.000000e-03 655.3181 128.7366)">
		<stop  offset="0" style="stop-color:#183262"/>
		<stop  offset="4.705880e-02" style="stop-color:#323C56"/>
		<stop  offset="0.1059" style="stop-color:#4E464A"/>
		<stop  offset="0.1725" style="stop-color:#675041"/>
		<stop  offset="0.2471" style="stop-color:#7B573A"/>
		<stop  offset="0.3333" style="stop-color:#8B5D36"/>
		<stop  offset="0.4392" style="stop-color:#966233"/>
		<stop  offset="0.5922" style="stop-color:#9C6432"/>
		<stop  offset="1" style="stop-color:#9E6532"/>
	</linearGradient>
	<path class="st1" d="M588.3,126.9l-35.9-0.5c1.1-1.5,2.2-3,3.4-4.7c2.5-3.3,4.7-6,6.7-8.1c3.4-3.6,6.1-5.5,8.1-5.5
		c2.6,0,6.3,3.1,11.2,9.3C584.3,120.7,586.5,123.8,588.3,126.9z"/>
	
		<linearGradient id="SVGID_2_" gradientUnits="userSpaceOnUse" x1="2.2595" y1="-110.9877" x2="28.9343" y2="-110.9877" gradientTransform="matrix(0 -1 1 -1.000000e-03 654.7121 128.7366)">
		<stop  offset="0" style="stop-color:#183262"/>
		<stop  offset="3.921570e-03" style="stop-color:#193262"/>
		<stop  offset="5.490200e-02" style="stop-color:#384053"/>
		<stop  offset="0.1137" style="stop-color:#544C48"/>
		<stop  offset="0.1804" style="stop-color:#6D573F"/>
		<stop  offset="0.251" style="stop-color:#826039"/>
		<stop  offset="0.3373" style="stop-color:#916735"/>
		<stop  offset="0.4471" style="stop-color:#9C6C33"/>
		<stop  offset="0.5922" style="stop-color:#A36E32"/>
		<stop  offset="1" style="stop-color:#A46F32"/>
	</linearGradient>
	<path class="st2" d="M544.1,99.9c3.7,0,9,4.4,16,13.3c3.5,4.5,6.6,8.9,9.3,13.3l-51.2-0.6c1.5-2.1,3.2-4.3,4.9-6.7
		c3.5-4.8,6.7-8.6,9.5-11.6C537.4,102.5,541.2,99.9,544.1,99.9z"/>
	<path class="st3" d="M1304.2,123.2c39.8,0.7,77,1.7,111.5,2.9v35.6l-258.4,7l-765.6-6.6v-38.7c109.4,1.7,222.8,3.1,340.3,4.1
		c235,1.9,372.6,1,413-2.8C1171.5,122.3,1224.6,121.8,1304.2,123.2z"/>
	<g>
		<path class="st4" d="M470.8,146.7c0,1.6-1.9,3-5.7,4.1c-3.8,1.2-8.4,1.8-13.7,1.8c-5.3,0-9.9-0.6-13.7-1.8
			c-3.8-1.1-5.7-2.5-5.7-4.1c0-1.6,1.9-3,5.7-4.2c3.8-1.2,8.3-1.8,13.7-1.8c5.4,0,9.9,0.6,13.7,1.8
			C468.9,143.6,470.8,145,470.8,146.7z"/>
		<g>
			<g>
				<path class="st5" d="M445.7,133.8c0.4,0.3,0.5,0.8,0.5,1.2v8c0,0.5-0.2,0.9-0.5,1.3c-0.4,0.3-0.8,0.5-1.3,0.5s-0.9-0.2-1.2-0.5
					c-0.4-0.4-0.5-0.8-0.5-1.3v-8c0-0.5,0.2-0.9,0.5-1.2c0.3-0.4,0.8-0.5,1.2-0.5S445.3,133.5,445.7,133.8z"/>
				<path class="st6" d="M452.5,129.8c0,2.3-0.8,4-2.3,5.2c-1.4,1.1-3.3,1.6-5.7,1.6c-2.4,0-4.2-0.5-5.6-1.6
					c-1.6-1.2-2.4-2.9-2.4-5.2c0-2.8,0.8-5.7,2.4-8.8c1.7-3.5,3.6-5.2,5.6-5.2s3.9,1.8,5.7,5.2C451.7,124.1,452.5,127,452.5,129.8z"
					/>
			</g>
			<g>
				<path class="st5" d="M456.7,146.7c0,0.3-0.1,0.5-0.3,0.7c-0.2,0.2-0.5,0.3-0.8,0.3c-0.3,0-0.5-0.1-0.7-0.3
					c-0.2-0.2-0.3-0.4-0.3-0.7v-4.5c0-0.3,0.1-0.5,0.3-0.7c0.2-0.2,0.4-0.3,0.7-0.3c0.3,0,0.5,0.1,0.8,0.3c0.2,0.2,0.3,0.4,0.3,0.7
					V146.7z"/>
				<path class="st6" d="M460.2,139.3c0,1.3-0.4,2.2-1.3,2.9c-0.8,0.6-1.8,0.9-3.2,0.9c-1.3,0-2.3-0.3-3.1-0.9
					c-0.9-0.6-1.3-1.6-1.3-2.9c0-1.5,0.4-3.2,1.3-5c0.9-1.9,2-2.9,3.1-2.9c1.1,0,2.2,1,3.2,2.9C459.8,136.1,460.2,137.8,460.2,139.3
					z"/>
			</g>
		</g>
	</g>
	<path class="st7" d="M524,148c0-1.9,4.5-3.6,13.6-4.9c9.1-1.4,20-2.1,32.9-2.1s23.8,0.7,32.9,2.1c9.1,1.3,13.6,3,13.6,4.9
		c0,1.9-4.5,3.5-13.6,4.9c-9.1,1.3-20.1,2-32.9,2c-12.8,0-23.8-0.7-32.9-2C528.5,151.6,524,150,524,148z"/>
	<path class="st7" d="M1058.4,165.7c0,1.1-0.8,2-2.3,2.8c-1.6,0.7-3.5,1.1-5.7,1.1c-2.2,0-4-0.4-5.6-1.1c-1.5-0.8-2.3-1.7-2.3-2.8
		c0-1.1,0.8-2,2.3-2.8c1.6-0.8,3.4-1.2,5.6-1.2c2.2,0,4.1,0.4,5.7,1.2C1057.7,163.7,1058.4,164.6,1058.4,165.7z"/>
	<path class="st4" d="M1347,156.2c39.1-3,62-5.5,68.7-7.4v23.9h-1024v-14.9c40.7-3.2,88.7-5.6,144.2-7.3
		c110.9-3.4,203.4-1.5,277.4,5.7c107.7,10.5,236.5,13.1,386.2,7.9C1253,162.3,1302.1,159.6,1347,156.2z"/>
	<path class="st8" d="M692.7,165.9c0,0.6-0.6,1.2-1.9,1.6c-1.3,0.4-2.8,0.7-4.6,0.7c-1.8,0-3.3-0.2-4.6-0.7c-1.3-0.4-1.9-1-1.9-1.6
		c0-0.6,0.6-1.2,1.9-1.6c1.3-0.4,2.8-0.6,4.6-0.6c1.8,0,3.3,0.2,4.6,0.6C692.1,164.7,692.7,165.3,692.7,165.9z"/>
	<path class="st9" d="M1349.2,114.5c0,1.3-0.6,2.4-1.8,3.3c-1.2,0.9-2.6,1.4-4.3,1.4c-1.7,0-3.1-0.5-4.3-1.4c-1.2-0.9-1.8-2-1.8-3.3
		s0.6-2.4,1.8-3.3c1.2-0.9,2.6-1.4,4.3-1.4c1.7,0,3.1,0.5,4.3,1.4C1348.6,112.1,1349.2,113.2,1349.2,114.5z"/>
	<path class="st9" d="M1353.2,110.5c0,1.3-0.6,2.4-1.8,3.3c-1.2,0.9-2.6,1.4-4.3,1.4c-1.7,0-3.1-0.5-4.3-1.4c-1.2-0.9-1.8-2-1.8-3.3
		c0-1.3,0.6-2.4,1.8-3.3c1.2-0.9,2.6-1.4,4.3-1.4c1.7,0,3.1,0.5,4.3,1.4C1352.7,108,1353.2,109.2,1353.2,110.5z"/>
	<path class="st9" d="M1354.2,116.5c0,1.3-0.6,2.4-1.8,3.3c-1.2,0.9-2.6,1.4-4.3,1.4c-1.7,0-3.1-0.5-4.3-1.4c-1.2-0.9-1.8-2-1.8-3.3
		s0.6-2.4,1.8-3.3c1.2-0.9,2.6-1.4,4.3-1.4c1.7,0,3.1,0.5,4.3,1.4C1353.7,114.1,1354.2,115.2,1354.2,116.5z"/>
	<path class="st9" d="M1359.7,112.8c0,1.3-0.6,2.4-1.8,3.4c-1.2,0.9-2.6,1.3-4.3,1.3c-1.7,0-3.1-0.5-4.3-1.3
		c-1.2-0.9-1.8-2.1-1.8-3.4c0-1.3,0.6-2.4,1.8-3.3c1.2-0.9,2.6-1.4,4.3-1.4c1.7,0,3.1,0.5,4.3,1.4
		C1359.1,110.4,1359.7,111.5,1359.7,112.8z"/>
	<path class="st9" d="M1363,116.2c0,1.3-0.6,2.4-1.8,3.3c-1.2,0.9-2.6,1.4-4.3,1.4c-1.7,0-3.1-0.5-4.3-1.4c-1.2-0.9-1.8-2-1.8-3.3
		c0-1.3,0.6-2.5,1.8-3.4c1.2-0.9,2.6-1.4,4.3-1.4c1.7,0,3.1,0.5,4.3,1.4C1362.4,113.8,1363,114.9,1363,116.2z"/>
	<path class="st9" d="M1317.7,125.6c0,1-0.4,1.8-1.3,2.5c-0.9,0.7-2,1-3.2,1c-1.2,0-2.3-0.3-3.2-1c-0.9-0.7-1.3-1.5-1.3-2.5
		c0-1,0.4-1.8,1.3-2.5c0.9-0.7,1.9-1,3.2-1c1.3,0,2.3,0.3,3.2,1C1317.2,123.8,1317.7,124.6,1317.7,125.6z"/>
	<path class="st9" d="M1320.7,122.6c0,1-0.4,1.8-1.3,2.5c-0.9,0.7-2,1-3.2,1c-1.2,0-2.3-0.3-3.2-1c-0.9-0.7-1.3-1.5-1.3-2.5
		c0-1,0.4-1.8,1.3-2.5c0.9-0.7,1.9-1,3.2-1c1.3,0,2.3,0.3,3.2,1C1320.2,120.8,1320.7,121.6,1320.7,122.6z"/>
	<path class="st9" d="M1321.4,127.1c0,1-0.4,1.8-1.3,2.5c-0.9,0.7-2,1-3.2,1c-1.2,0-2.3-0.3-3.2-1c-0.9-0.7-1.3-1.5-1.3-2.5
		s0.4-1.8,1.3-2.5c0.9-0.7,1.9-1,3.2-1c1.3,0,2.3,0.3,3.2,1C1321,125.3,1321.4,126.1,1321.4,127.1z"/>
	<path class="st9" d="M1325.4,124.3c0,1-0.4,1.8-1.3,2.5c-0.9,0.7-2,1-3.2,1c-1.2,0-2.3-0.3-3.2-1c-0.9-0.7-1.3-1.5-1.3-2.5
		c0-1,0.4-1.8,1.3-2.5c0.9-0.7,1.9-1,3.2-1c1.3,0,2.3,0.3,3.2,1C1325,122.5,1325.4,123.4,1325.4,124.3z"/>
	<path class="st9" d="M1327.9,126.8c0,1-0.4,1.8-1.3,2.5c-0.9,0.7-2,1-3.2,1c-1.2,0-2.3-0.3-3.2-1c-0.9-0.7-1.3-1.5-1.3-2.5
		c0-1,0.4-1.8,1.3-2.5c0.9-0.7,1.9-1,3.2-1c1.3,0,2.3,0.3,3.2,1C1327.5,125,1327.9,125.9,1327.9,126.8z"/>
	<path class="st9" d="M612.7,116.8c0,1-0.4,1.8-1.3,2.5c-0.9,0.7-2,1-3.2,1s-2.3-0.3-3.2-1c-0.9-0.7-1.3-1.5-1.3-2.5
		c0-1,0.4-1.8,1.3-2.5c0.9-0.7,2-1,3.2-1c1.3,0,2.3,0.3,3.2,1C612.3,115,612.7,115.9,612.7,116.8z"/>
	<path class="st9" d="M615.7,113.8c0,1-0.4,1.8-1.3,2.5c-0.9,0.7-2,1-3.2,1s-2.3-0.3-3.2-1c-0.9-0.7-1.3-1.5-1.3-2.5
		c0-1,0.4-1.8,1.3-2.5c0.9-0.7,2-1,3.2-1c1.3,0,2.3,0.3,3.2,1C615.3,112,615.7,112.9,615.7,113.8z"/>
	<path class="st9" d="M616.5,118.3c0,1-0.4,1.8-1.3,2.5c-0.9,0.7-2,1-3.2,1s-2.3-0.3-3.2-1c-0.9-0.7-1.3-1.5-1.3-2.5
		c0-1,0.4-1.8,1.3-2.5c0.9-0.7,2-1,3.2-1c1.3,0,2.3,0.3,3.2,1C616,116.5,616.5,117.4,616.5,118.3z"/>
	<path class="st9" d="M620.5,115.6c0,1-0.4,1.8-1.3,2.5c-0.9,0.7-2,1-3.2,1s-2.3-0.3-3.2-1c-0.9-0.7-1.3-1.5-1.3-2.5
		c0-1,0.4-1.8,1.3-2.5c0.9-0.7,2-1,3.2-1c1.3,0,2.3,0.3,3.2,1C620,113.8,620.5,114.6,620.5,115.6z"/>
	<path class="st9" d="M623,118.1c0,1-0.4,1.8-1.3,2.5c-0.9,0.7-2,1-3.2,1s-2.3-0.3-3.2-1c-0.9-0.7-1.3-1.5-1.3-2.5
		c0-1,0.4-1.8,1.3-2.5c0.9-0.7,2-1,3.2-1c1.3,0,2.3,0.3,3.2,1C622.5,116.3,623,117.1,623,118.1z"/>
	<path class="st4" d="M1302.1,136.8c0,0.6-0.6,1.2-1.9,1.6c-1.3,0.4-2.8,0.7-4.6,0.7c-1.8,0-3.3-0.2-4.6-0.7c-1.3-0.4-1.9-1-1.9-1.6
		c0-0.6,0.6-1.1,1.9-1.5c1.3-0.5,2.8-0.7,4.6-0.7c1.8,0,3.3,0.2,4.6,0.7C1301.5,135.6,1302.1,136.2,1302.1,136.8z"/>
	<g>
		<path class="st5" d="M1297.1,128.5v6.7c0,0.4-0.1,0.8-0.4,1c-0.3,0.3-0.6,0.5-1.1,0.5s-0.8-0.2-1.1-0.5c-0.3-0.3-0.5-0.6-0.5-1
			v-6.7c0-0.4,0.2-0.8,0.5-1c0.3-0.3,0.7-0.5,1.1-0.5s0.8,0.2,1.1,0.5C1296.9,127.8,1297.1,128.1,1297.1,128.5z"/>
		<path class="st6" d="M1302.4,124.1c0,1.9-0.7,3.4-2,4.4c-1.2,0.9-2.7,1.3-4.7,1.3c-2,0-3.6-0.4-4.8-1.3c-1.3-1-2-2.5-2-4.4
			c0-2.3,0.7-4.8,2-7.4c1.5-2.9,3-4.4,4.8-4.4s3.3,1.5,4.7,4.4C1301.7,119.3,1302.4,121.8,1302.4,124.1z"/>
	</g>
	<path class="st10" d="M1251.7,130.9c0,1.2-1.4,2.3-4.1,3.2c-2.8,0.9-6.1,1.3-10,1.3c-3.9,0-7.2-0.4-10-1.3c-2.8-0.9-4.2-2-4.2-3.2
		c0-1.3,1.4-2.3,4.2-3.2c2.7-0.9,6-1.4,10-1.4c3.9,0,7.2,0.5,10,1.4C1250.4,128.6,1251.7,129.6,1251.7,130.9z"/>
	<path class="st7" d="M715,130c2.9,0,5.4,0.3,7.5,1c2.1,0.7,3.1,1.5,3.1,2.4c0,0.9-1,1.7-3.1,2.4c-2.1,0.7-4.6,1-7.5,1
		c-2.9,0-5.4-0.3-7.5-1c-2.1-0.7-3.1-1.5-3.1-2.4c0-0.9,1-1.7,3.1-2.4C709.6,130.4,712,130,715,130z"/>
	<g>
		<path class="st11" d="M1134.7,120.2l-2.5-5.7c-0.2-0.3-0.1-0.6,0.2-0.8l6.1-1.9c0.3-0.1,0.5,0,0.6,0.3l3,6.5
			c0.1,0.1,0.1,0.3,0,0.4c-0.1,0.2-0.2,0.3-0.4,0.3l-6.4,1C1135,120.5,1134.8,120.5,1134.7,120.2z"/>
		<path class="st12" d="M1128,82.2c0.2-0.2,0.4-0.1,0.5,0.1l3,6.7l-4.1,1.5c-0.3,0.1-0.4,0.2-0.2,0.5l2,4.5l-6.4,3l-2.5-5.5
			c-0.1-0.3-0.3-0.3-0.6-0.2l-1.1,0.6l-1.8-4c-0.1-0.2-0.1-0.5,0.2-0.7L1128,82.2z"/>
		<path class="st13" d="M1137.5,87c0.3-0.1,0.5,0,0.7,0.3l4.4,9.8c0.1,0.3,0.1,0.5-0.2,0.7l-3.9,2.3l-1-2.1
			c-0.1-0.2-0.3-0.3-0.6-0.2l-5.5,2.5l-2.2-4.7l4-1.9c0.3-0.1,0.3-0.3,0.2-0.6l-1.9-4L1137.5,87z"/>
		<path class="st14" d="M1131.6,89l1.9,4c0.1,0.3,0,0.5-0.2,0.6l-4,1.9l-2-4.5c-0.1-0.3,0-0.5,0.2-0.5L1131.6,89z"/>
		<path class="st15" d="M1141.2,105.8c0.1,0.3,0.1,0.5-0.2,0.7l-7.3,5.3c-0.2,0.2-0.4,0.1-0.6-0.2l-4.4-9.6c-0.1-0.3,0-0.5,0.2-0.7
			l2.5-1.1l1.2,2.8c0.2,0.3,0.4,0.4,0.6,0.2l5.2-3.2L1141.2,105.8z"/>
		<path class="st16" d="M1136.9,97.7c0.3-0.1,0.5,0,0.6,0.2l1,2.1l-5.3,3.2c-0.2,0.1-0.4,0-0.6-0.2l-1.2-2.8L1136.9,97.7z"/>
		<path class="st17" d="M1112.7,97.1c-0.1-0.3-0.1-0.5,0.2-0.7l6.8-3.6c0.3-0.1,0.5-0.1,0.6,0.2l4.9,10.7c0.1,0.3,0,0.4-0.3,0.5
			l-7.4,2.3c-0.3,0.1-0.5,0-0.7-0.3L1112.7,97.1z"/>
	</g>
	<g>
		<path class="st4" d="M828.4,145.8c0,0.7-1.8,1.3-5.5,1.8c-3.6,0.5-8,0.7-13.2,0.7s-9.6-0.2-13.3-0.7c-3.6-0.5-5.4-1.1-5.4-1.8
			c0-0.7,1.8-1.3,5.4-1.8c3.6-0.5,8-0.7,13.3-0.7c5.2,0,9.5,0.2,13.2,0.7C826.5,144.5,828.4,145.1,828.4,145.8z"/>
		<g>
			<g>
				<g>
					<path class="st18" d="M813.8,113.6l-0.6,2.4c0.4,1,1.3,1.5,2.9,1.6c0-0.3,0.1-0.6,0.2-1c0.1-0.2,0.1-0.4,0.2-0.5
						c-0.6-0.2-1.1-0.5-1.5-0.9c-0.1-0.1-0.1-0.1-0.2-0.2C814.4,114.5,814.1,114.1,813.8,113.6z"/>
					<path class="st19" d="M813.8,113.6c0.3,0.5,0.6,0.9,1,1.3c0.1,0.1,0.1,0.1,0.2,0.2c0.4,0.4,0.9,0.7,1.5,0.9
						c0.3-0.5,0.7-1.1,1.2-1.8c0-0.4-0.1-0.8-0.2-1.1c-0.4-1.4-1.3-2.4-2.7-2.9L813.8,113.6z"/>
				</g>
				<g>
					<g>
						<path class="st18" d="M823.9,94.9l1.2,2.9l0.8,3.6c0-0.2,0.1-0.3,0.1-0.5c-0.2-2.2-0.8-4.3-1.8-6.2
							C824.1,94.9,824,94.9,823.9,94.9z M813.3,102.4l0.1,4.7c0.3,0.4,0.6,0.9,0.8,1.3c0.1,0.2,0.3,0.4,0.4,0.6c0,1.8,0.3,3.4,1,4.7
							c0.4,0.8,1,1.5,1.6,2.2c0.1,0.1,0.2,0.2,0.4,0.2c0.7,0.4,1.4,0.8,1.9,1l0.2,0.1c0.1,0,0.1,0,0.2,0.1c0.6,0.2,1.1,0.4,1.5,0.5
							c0.8,0.1,1.7-0.6,2.6-2c0.4-0.7,0.8-1.4,1.1-2c0.1-0.3,0.3-0.6,0.4-0.9c0.1-0.2,0.2-0.4,0.2-0.7c0.1-0.2,0.1-0.5,0.2-0.7
							l0.4-2c-0.3,0-0.5-0.2-0.6-0.4l1.7-0.9c-0.5-0.4-1-0.7-1.3-1.2c0,0-0.1-0.1-0.1-0.2c-0.1-0.1-0.1-0.2-0.2-0.3
							c-0.1-0.1-0.1-0.2-0.2-0.4c-0.2-0.5-0.3-1.1-0.2-2c0-0.2,0-0.5,0.1-0.7l-0.7-3.6l-0.4-0.6v2.4c-1.3-0.7-2.4-1.6-3.2-3
							c-0.6,0.1-1.1,0.3-1.7,0.5C817.2,100,815.2,101.1,813.3,102.4C813.3,102.4,813.3,102.4,813.3,102.4z"/>
						<path class="st19" d="M825.8,101.5l-0.8-3.6l-1.2-2.9c-4,1.2-7.5,3.4-10.7,6.5l0,1c0,0,0.1,0,0.1-0.1c1.8-1.3,3.8-2.3,6-3.1
							c0.6-0.2,1.1-0.4,1.7-0.5c0.8,1.3,1.9,2.3,3.2,3v-2.4l0.4,0.6l0.7,3.6c0.1-0.6,0.2-1.2,0.4-1.8
							C825.8,101.6,825.8,101.5,825.8,101.5z M827.4,108.2l-1.7,0.9c0.1,0.3,0.3,0.4,0.6,0.4C826.7,109.1,827.1,108.7,827.4,108.2z
							 M813.4,107.2l0.1,2.2c0.1,1,0.4,2,0.8,2.8c0.2,0.5,0.5,1.1,0.9,1.5c0.6,0.8,1.3,1.6,2.2,2.2c-0.7-0.6-1.2-1.3-1.6-2.2
							c-0.7-1.3-1-2.8-1-4.7c-0.1-0.2-0.2-0.4-0.4-0.6C813.9,108,813.7,107.6,813.4,107.2z"/>
					</g>
					<g>
						<g>
							<path class="st9" d="M821,104.2c1.3-0.1,2.5,0.1,3.5,0.6c0,0.5,0,1-0.1,1.5c0,0.5-0.1,0.9-0.2,1.4c-0.7-0.1-1.4-0.4-2-0.8
								c-0.2-0.2-0.5-0.4-0.7-0.6c-0.1-0.1-0.2-0.2-0.2-0.2c0,0,0,0,0-0.1c-0.2-0.3-0.3-0.8-0.3-1.3
								C821.1,104.5,821,104.4,821,104.2z"/>
							<path class="st20" d="M824.5,104.8c-1-0.4-2.2-0.6-3.5-0.6c0-0.3,0-0.6,0-0.9h0c1.1-0.3,2.3-0.3,3.5-0.2c0,0.2,0,0.5,0,0.7
								c0,0.3,0,0.5,0,0.8C824.5,104.7,824.5,104.8,824.5,104.8z"/>
							<path class="st21" d="M821,104.2c0,0.2,0,0.3,0,0.5c0.1,0.5,0.2,1,0.3,1.3c-0.3-0.4-0.5-0.8-0.7-1.3
								c-0.1-0.5-0.2-1.1-0.2-1.8c1.4-0.4,2.7-0.5,4-0.3l0,0.6c-1.2-0.1-2.4-0.1-3.5,0.2h0C821,103.7,821,104,821,104.2z"/>
						</g>
						<g>
							<path class="st22" d="M824,103.3c-0.2,0-0.3,0.2-0.4,0.5c-0.1,0.4-0.2,0.8-0.2,1.4c0,0.5,0.1,1,0.2,1.4
								c0.1,0.4,0.2,0.6,0.4,0.6c0.2,0,0.3-0.2,0.5-0.6c0.1-0.4,0.2-0.8,0.2-1.4c0-0.5,0-1-0.1-1.4
								C824.3,103.5,824.2,103.3,824,103.3z M824,104.2c0-0.1,0-0.3,0-0.4c0-0.1,0-0.2,0.1-0.2c0.1,0,0.1,0,0.2,0.1
								c0.1,0.1,0.1,0.2,0.2,0.3c0,0.1,0,0.3,0,0.4c0,0.1-0.1,0.2-0.1,0.2c-0.1,0-0.1,0-0.2-0.1C824.1,104.5,824,104.3,824,104.2z
								 M824,105.7c0.1,0.1,0.2,0.2,0.2,0.4c0,0.2,0.1,0.3,0,0.5c0,0.1-0.1,0.2-0.2,0.2c-0.1,0-0.2,0-0.3-0.1
								c-0.1-0.1-0.2-0.2-0.2-0.4c0-0.2,0-0.3,0-0.5c0-0.1,0.1-0.2,0.2-0.2C823.8,105.5,823.9,105.6,824,105.7z"/>
							<path class="st23" d="M824,105.7c-0.1-0.1-0.2-0.1-0.3-0.1c-0.1,0-0.2,0.1-0.2,0.2c0,0.2,0,0.3,0,0.5c0,0.2,0.1,0.3,0.2,0.4
								c0.1,0.1,0.2,0.2,0.3,0.1c0.1,0,0.2-0.1,0.2-0.2c0-0.1,0-0.3,0-0.5C824.1,105.9,824.1,105.8,824,105.7z"/>
							<path class="st9" d="M824,104.2c0,0.1,0.1,0.2,0.2,0.3c0.1,0.1,0.1,0.1,0.2,0.1c0.1,0,0.1-0.1,0.1-0.2c0-0.1,0-0.2,0-0.4
								c0-0.1-0.1-0.2-0.2-0.3c-0.1-0.1-0.1-0.1-0.2-0.1c-0.1,0-0.1,0.1-0.1,0.2C823.9,103.9,823.9,104.1,824,104.2z"/>
						</g>
						<path class="st24" d="M823.9,101.5C823.9,101.5,823.9,101.5,823.9,101.5c-0.1-0.1-0.1-0.1-0.2-0.1c-0.1-0.1-0.2-0.2-0.4-0.3
							c0,0,0,0,0-0.1c-0.7-0.4-1.4-0.8-2.3-1.1c-0.1,0-0.2-0.1-0.2-0.1c-0.1,0-0.2-0.1-0.3-0.1c0,0-0.1,0.1-0.1,0.1
							c-0.5,0.5-0.8,1.1-1.2,1.8c0.2,0,0.4,0.1,0.6,0.2c1,0.2,2.1,0.6,3,1c0.2,0.1,0.4,0.2,0.6,0.3c0.3,0.2,0.7,0.4,1.1,0.6
							c0,0,0,0,0,0l0.9-1c-0.1-0.1-0.1-0.1-0.2-0.2c-0.1-0.1-0.2-0.2-0.3-0.3C824.6,102.1,824.3,101.8,823.9,101.5z"/>
						<g>
							<path class="st9" d="M825.6,111.7l-0.2,0.8c-0.8,0-1.7-0.4-2.8-1.1c0,0,0,0,0,0c0.3-0.5,0.7-0.8,0.9-0.8c0.1,0,0.2,0,0.2,0
								c0,0,0,0,0,0C824.4,111.1,825,111.5,825.6,111.7z M823.9,115.6c-0.6,0.2-1.3,0.3-2,0.2c-0.3,0-0.5-0.2-0.5-0.5
								c0-0.1,0-0.1,0-0.2c0-0.2,0-0.4,0.1-0.6c0.9,0.4,1.6,0.6,2.1,0.6c0.1,0,0.1,0,0.2,0c0,0,0.1,0,0.1,0c0.1,0,0.3,0,0.4-0.1
								L823.9,115.6z"/>
							<path class="st25" d="M821.9,112.6c0.2-0.4,0.4-0.9,0.7-1.3c1.1,0.8,2,1.1,2.8,1.1l0.2-0.8c0.1,0,0.1,0,0.2,0
								c-0.4,1.4-0.9,2.7-1.7,3.8c-0.1,0-0.1,0.1-0.2,0.1l0.4-0.7c0,0,0-0.1-0.1-0.2C823.7,113.8,822.9,113.1,821.9,112.6
								C821.9,112.6,821.9,112.6,821.9,112.6z"/>
							<path class="st26" d="M824.2,114.9c-0.1,0-0.3,0.1-0.4,0.1c0,0-0.1,0-0.1,0c-0.1,0-0.1,0-0.2,0c-0.6,0-1.3-0.2-2.1-0.6
								c0.1-0.6,0.2-1.2,0.5-1.8c0,0,0,0,0,0c1,0.5,1.7,1.2,2.2,2.1C824.2,114.8,824.2,114.8,824.2,114.9z"/>
						</g>
					</g>
					<g>
						<g>
							<g>
								<path class="st27" d="M807.1,112.1c0.1,0,0.1,0,0.2,0c0.3,0.5,0.8,0.8,1.4,1c-0.3,1.1-0.6,2.1-1,2.8c-1,1-2.7,1.8-5.2,2.5
									c0-0.1,0-0.1,0-0.2c0,0,0,0,0-0.1C805.5,117.4,807.1,115.4,807.1,112.1z"/>
								<path class="st28" d="M807.1,112.1c0,3.3-1.5,5.3-4.5,6c0.2-1.4,0.8-2.8,1.7-4.3C805.1,112.9,806,112.4,807.1,112.1z"/>
								<path class="st29" d="M807.3,112L807.3,112c0-0.1-0.1-0.2-0.1-0.3l-0.1-0.6c0.4,0.3,0.9,0.5,1.4,0.8l1.5,1l-1,0.1h-0.2
									c0,0-0.1,0-0.1-0.1C808.1,112.9,807.6,112.5,807.3,112z"/>
							</g>
						</g>
						<g>
							<g>
								<path class="st27" d="M799.5,79.5L799.5,79.5c-0.3,4.1,0,8.1,1.1,11.8l-1.1-1.8h0v0c-0.4-2.2-0.6-4.4-0.4-6.8
									C799.2,81.8,799.3,80.7,799.5,79.5z M814.9,85.1l-0.8-3.5c0,0,0.1,0,0.1,0c1.2,2,2,4,2.3,5.9L814.9,85.1L814.9,85.1z
									 M797.2,94.2c-0.8-1.9-1-4.1-0.5-6.4h0c0.1,3.1,0.6,5.7,1.5,7.8L797.2,94.2L797.2,94.2z M825.2,91.5
									c0.4,0.3,0.6,0.5,0.6,0.8c0,0.2,0,0.3,0,0.5l-3,1.6c0.5-0.1,1-0.2,1.5-0.4l1,2.4c-2.3,0.6-4.1,1.3-5.2,2.2
									c-1.2,0.6-2.3,1.2-3.4,1.9c-0.9,0.6-1.7,1.2-2.4,1.9c0.8,4.6,0.6,8.8-0.6,12.5l-0.7-0.2c-8.3-2.9-13.4-6.9-15.2-12
									c0,0,0,0,0-0.1v0c0-0.2-0.1-0.3-0.2-0.5l0,0c0.1,0.2,0.2,0.4,0.3,0.5v0c2,2.6,4.8,4.2,8.6,4.8v-0.1c1.7-2.9,3.6-5.3,5.7-7.3
									l-0.5,0.3l0.8-1.4c-0.4-0.4-0.8-1.2-1-2.3c0.5,0.8,1.1,1.3,1.8,1.6l2.5-1.7c-0.9-1.1-1.6-2.3-2-3.7c1.2,1.4,2.4,2.3,3.5,2.8
									c0,0,0.1,0,0.1,0c0,0,0.1,0,0.1,0c2.3-1.3,4.3-2.2,5.8-2.7c0.3-0.7,0.8-1.3,1.5-1.8C824.8,91.3,825,91.4,825.2,91.5z
									 M821.7,85.2c0.1,0.2,0.3,0.3,0.4,0.5c0.9,1.7,1.2,3.1,1.2,4.2l-0.8-1.9v0l-0.8-2.9C821.6,85.1,821.7,85.2,821.7,85.2z
									 M801,104.2l-1.3-0.9c0,0-0.1-0.1-0.1-0.1c-0.9-0.8-1.8-1.8-2.6-3c0-0.1-0.1-0.2-0.1-0.2c-0.7-1.9-1.1-4.3-1.1-7.1h0
									c0.4,2.6,1,4.9,1.8,6.7h0.1c0.1,0.1,0.1,0.3,0.2,0.4C798.8,101.8,799.9,103.2,801,104.2L801,104.2z"/>
								<path class="st30" d="M799.5,79.5c8,0.9,13.1,2.8,15.4,5.6h0l1.5,2.4C811.8,83.1,806.1,80.4,799.5,79.5L799.5,79.5z
									 M796.8,87.8l2.6,1.8h0l1.1,1.8v0.1h0L796.8,87.8z M798.2,95.5l-2.4-2.5l1.4,1.2h0L798.2,95.5z M797.3,102l2.4,1.2l1.3,0.9
									l-3.4-1.6v0C797.5,102.4,797.5,102.2,797.3,102z M822.2,85.6c1.8,1.7,3,3.7,3.5,6.1c0,0.2,0,0.4,0,0.6
									c0-0.2-0.2-0.5-0.6-0.8C824.7,89.4,823.6,87.4,822.2,85.6L822.2,85.6z M823.2,89.9c-2.5-3.6-5.5-6.3-9-8.3
									c3.7,1.6,6.4,3.7,8.1,6.4h0.1v0L823.2,89.9z"/>
								<path class="st28" d="M825.2,96.5l-1-2.4c-0.5,0.1-1,0.2-1.5,0.4l3-1.6c0.1,1.2,0.2,2.4,0.2,3.5
									C825.7,96.3,825.5,96.4,825.2,96.5z M821.7,85.2c0.2,0.1,0.3,0.3,0.5,0.4l-0.1,0.1c1.5,1.8,2.6,3.7,3.1,5.9
									c-0.2-0.1-0.4-0.3-0.6-0.4c-0.6,0.5-1.1,1.1-1.5,1.8c-1.5,0.5-3.5,1.4-5.8,2.7c0,0-0.1,0-0.1,0c0,0-0.1,0-0.1,0
									c-1.1-0.4-2.3-1.4-3.5-2.8c0.4,1.4,1,2.6,2,3.7l-2.5,1.7c-0.7-0.3-1.3-0.8-1.8-1.6c0.3,1.1,0.6,1.9,1,2.3l-0.8,1.4l0.5-0.3
									c-2.1,2-4,4.4-5.7,7.3v0.1c-3.8-0.6-6.7-2.2-8.6-4.8l3.4,1.6l0,0c-1.2-1-2.3-2.4-3.2-4.2c-0.1-0.1-0.1-0.3-0.2-0.4h-0.1
									c-0.9-1.8-1.5-4.1-1.8-6.7l0.1,0l2.4,2.5c-0.8-2.1-1.3-4.7-1.5-7.8h0v0l0,0l3.7,3.7h0v-0.1c-1.1-3.8-1.4-7.7-1-11.8h0v0h0v0
									c6.6,0.9,12.3,3.6,17,8c-0.3-1.9-1.1-3.9-2.3-5.9c3.5,2,6.5,4.7,9,8.3c0.1-1.1-0.3-2.5-1.2-4.2
									C822,85.5,821.8,85.4,821.7,85.2z M797.3,102.1L797.3,102.1L797.3,102.1L797.3,102.1z M814.1,102.5c0.7-0.7,1.5-1.3,2.4-1.9
									c1.1-0.7,2.2-1.3,3.4-1.9L817,103l-0.2,4L814.1,102.5z M795.7,92.9L795.7,92.9L795.7,92.9L795.7,92.9z"/>
							</g>
						</g>
					</g>
					<g>
						<g>
							<path class="st29" d="M805,110.5c3.5-6.7,8.6-11.2,15.5-13.5c0.1-1.2,0.4-2.2,0.9-3.1c-2.2,0.8-3.9,1.5-5,2.1
								c-1.2,0.6-2.1,1.2-2.8,1.7c-0.7,0.5-1.8,1.3-3.1,2.4l0,0c-3.1,3.1-5.2,6.3-6.5,9.7C804.2,110.1,804.6,110.3,805,110.5z"/>
							<path class="st31" d="M805,110.5c0.1,0,0.1,0,0.2,0.1c0.2,0.1,0.4,0.2,0.6,0.2c1.9-4.2,4.6-7.4,8.2-9.6
								c3.6-2.2,7.6-3.8,12-4.8c0.1-0.3,0.1-0.6,0.1-0.9c0-0.9-0.2-1.9-0.7-2.9c-1.3,0.4-2.6,0.8-4,1.3c-0.5,0.8-0.8,1.8-0.9,3.1
								C813.6,99.3,808.5,103.8,805,110.5z"/>
						</g>
						<g>
							<path class="st19" d="M814.7,107.3C814.7,107.3,814.7,107.3,814.7,107.3l-0.4-3.6c-0.7-0.7-1.3-0.9-1.9-0.8
								c-0.8,0.3-1.1,1-1,1.9c0.3-0.7,0.8-1,1.4-1c0.4,0,0.8,0.2,1.1,0.6c-0.7-0.1-1.2,0.1-1.5,0.6c-0.2,0.7-0.1,1.2,0.4,1.7
								C813.3,107.1,814,107.3,814.7,107.3z"/>
							<path class="st18" d="M814.3,103.7l-0.1-1c-0.9-0.8-1.8-0.9-2.6-0.1c-0.6,0.7-0.8,1.6-0.6,2.8c0,0.2,0.1,0.4,0.2,0.6
								c0.9,2.1,2.1,3.2,3.8,3.1l-0.2-1.8c-0.8,0.1-1.4-0.2-1.9-0.7c-0.5-0.5-0.6-1-0.4-1.7c0.3-0.5,0.8-0.7,1.5-0.6
								c-0.3-0.4-0.7-0.6-1.1-0.6c-0.6,0-1.1,0.3-1.4,1c-0.1-0.9,0.2-1.5,1-1.9C813,102.7,813.7,103,814.3,103.7z"/>
						</g>
						<g>
							<path class="st30" d="M831,96.9c0-0.5-0.1-1-0.2-1.4c-0.2-1.3-0.8-2.3-1.8-3.1c-1.1-0.8-2.5-1.1-4.2-1.1
								c-0.6,0.6-1.1,1.4-1.6,2.4c0.6-0.7,1.2-1.3,1.8-1.9C828,91.7,830,93.4,831,96.9z"/>
							<path class="st28" d="M821.3,96.4c0-0.2,0-0.3,0.1-0.4c0.5,1.9,1.1,3.6,2,5c0.2,0.2,0.4,0.3,0.6,0.5l-0.3-2.9
								c0,0,0.1,0.1,0.1,0.1l-0.2-1.6c2.1,2.1,3.2,4.3,3.3,6.6c1.5-1.5,2.2-2.9,2.1-4.2c0-1.2-0.3-2.1-0.6-2.8
								c0-0.1-0.1-0.1-0.1-0.2c0,0,0,0,0-0.1c0,0,0,0,0,0l-1-1.6c2.2,1.3,3.4,2.7,3.6,4.1c0.1-0.7,0.2-1.4,0.2-2
								c-1.1-3.6-3-5.2-5.9-5c-0.6,0.6-1.2,1.2-1.8,1.9l-1.3,0.1C821.5,94.6,821.3,95.4,821.3,96.4z"/>
							<path class="st27" d="M830.8,99c-0.2-1.4-1.4-2.8-3.6-4.1l1,1.6C829.3,97,830.2,97.8,830.8,99z M826.9,103.7
								c-0.1-2.4-1.2-4.6-3.3-6.6l0.2,1.6c1.3,1.8,2.3,3.5,3,5.1C826.8,103.8,826.9,103.8,826.9,103.7z M821.3,96.4
								c0,0.3,0.1,0.7,0.1,1.1c0.2,1.2,0.9,2.3,2,3.4c-0.9-1.4-1.6-3-2-5C821.4,96.1,821.4,96.2,821.3,96.4z"/>
						</g>
					</g>
				</g>
				<g>
					<g>
						<path class="st32" d="M810.4,133.8l-1.1,1.6c-0.8,0.2-1.2-0.1-1.4-0.8c0.3-0.8,0.7-1.6,1.1-2.3
							C809.3,133,809.8,133.6,810.4,133.8z"/>
						<path class="st33" d="M808.9,132.3c0.1-0.2,0.2-0.3,0.3-0.5c0.3-0.5,0.6-1,0.9-1.5c0.9-0.1,1.6,0.3,2.1,1.1l-1.7,2.5
							C809.8,133.6,809.3,133,808.9,132.3z"/>
					</g>
					<g>
						<path class="st32" d="M800.7,137.6c0.2,0.6,0.5,1.1,0.9,1.7c2.1-1.2,4.4-2.3,6.7-3.4c0,0,0,0,0.1,0c0,0-0.1-0.1-0.1-0.1
							c-0.1-0.3,0-0.5,0.5-0.8c-0.1,0.3-0.2,0.6-0.1,0.8l0,0c0.2-0.1,0.4-0.2,0.5-0.2c0.1-0.6-0.2-1.1-0.7-1.5
							c-0.9,0-1.8,0.3-2.7,0.6C804.1,135.4,802.4,136.4,800.7,137.6z"/>
						<path class="st33" d="M808.7,135.7c-0.1-0.2,0-0.5,0.1-0.8c-0.4,0.3-0.6,0.6-0.5,0.8c0,0,0,0.1,0.1,0.1L808.7,135.7z"/>
						<path class="st34" d="M801.6,139.3c-0.4-0.6-0.7-1.1-0.9-1.7l-2.3,1.2c0.1,0.8,0.5,1.4,1.1,1.9l1.4-1
							C801.2,139.6,801.4,139.4,801.6,139.3z"/>
					</g>
					<g>
						<path class="st35" d="M797,139.3l2.6,4.4c0.5,0.7,1.1,1.3,1.8,1.9l0.8,0c0.1-0.4,0.1-0.7,0.1-1.1c-0.7-0.7-1.1-1.2-1.2-1.5
							s-0.2-0.6-0.2-0.6c-0.2,0-0.4,0.1-0.6,0.2c-0.2-0.1-0.2-0.2-0.2-0.4c0.2-0.1,0.5-0.2,0.7-0.3c0-0.1,0-0.1,0-0.2
							c-0.3,0-0.6,0.1-0.8,0.2c-0.2-0.1-0.2-0.3-0.1-0.4c0.3-0.1,0.6-0.1,0.9-0.1c0-0.1,0-0.1,0-0.2c-0.3,0-0.6,0-0.9,0.1
							c-0.1-0.2-0.2-0.3-0.1-0.4c0.3-0.1,0.6-0.1,1-0.1c0-0.1,0-0.1,0-0.2c-0.4-0.1-0.7-0.1-1,0c-0.1-0.1-0.1-0.2,0-0.3
							c0.4-0.1,0.7-0.1,1.1,0c0-0.2,0.1-0.3,0.2-0.5c-0.4-0.2-0.8-0.2-1.2,0c0,0-0.1,0-0.1,0c-0.4,0.1-0.6,0.1-0.8-0.1
							c-0.1-0.2-0.2-0.4-0.1-0.6c0.1-0.3,0.3-0.5,0.5-0.7c0.1-0.1,0.2-0.2,0.2-0.4C798.4,138.4,797.6,138.7,797,139.3z"/>
						<path class="st36" d="M800.7,140.3c-0.4-0.1-0.7-0.1-1.1,0c-0.1,0.1-0.1,0.2,0,0.3c0.3-0.1,0.7-0.1,1,0
							C800.8,140.5,800.8,140.4,800.7,140.3z M800.6,141.2c0-0.1,0.1-0.3,0-0.4c-0.3,0-0.7,0-1,0.1c-0.1,0.1-0.1,0.3,0.1,0.4
							C800,141.2,800.3,141.2,800.6,141.2z M800.7,142c-0.3,0-0.5,0.1-0.7,0.3c0,0.2,0.1,0.3,0.2,0.4c0.3-0.1,0.5-0.2,0.6-0.2
							C800.9,142.2,800.9,142.1,800.7,142z M800.7,141.8c0.1-0.2,0-0.3-0.1-0.4c-0.3,0-0.6,0.1-0.9,0.1c-0.1,0.1,0,0.3,0.1,0.4
							C800.1,141.9,800.4,141.8,800.7,141.8z"/>
						<path class="st37" d="M797,139.3l-0.8,0.5l3.3,4.1c0.7,0.7,1.3,1.4,1.9,1.8l0.8,0c0-0.1,0.1-0.1,0.1-0.2l-0.8,0
							c-0.7-0.6-1.3-1.2-1.8-1.9L797,139.3z"/>
					</g>
					<path class="st38" d="M810.5,128.9c0.3,0.1,0.6,0.2,0.9,0.2c1.6,0.5,3,1.4,4.2,2.6l-1.6,3c-1-0.3-1.7-0.6-2.1-0.8
						c-0.4-0.2-0.7-0.3-0.9-0.5c-0.3-0.2-0.7-0.6-1.4-1.3c-0.2-0.3-0.4-0.5-0.5-0.6l1.2-3.2L810.5,128.9z"/>
					<g>
						<path class="st18" d="M819.6,131c0.2,0.8,0.2,1.6,0,2.4c1,0.4,2,0.7,3,0.9c0.7-0.3,0.9-0.8,0.6-1.6L819.6,131z"/>
						<path class="st19" d="M819.6,131l-0.9-0.4c-0.7,0.6-1,1.3-0.8,2.2c0.6,0.2,1.1,0.4,1.7,0.6C819.8,132.6,819.8,131.8,819.6,131
							z"/>
					</g>
					<g>
						<path class="st18" d="M818.2,140.7c0.5,0.3,1.1,0.5,1.8,0.7c0.9-2.3,1.8-4.6,2.9-7c0,0,0,0,0-0.1c0,0-0.1,0-0.1,0
							c-0.3-0.1-0.3-0.4-0.2-0.9c0.1,0.3,0.3,0.5,0.5,0.7l0,0c0.1-0.2,0.2-0.4,0.2-0.5c-0.3-0.5-0.8-0.7-1.5-0.7
							c-0.7,0.6-1.2,1.4-1.7,2.3C819.4,136.8,818.7,138.7,818.2,140.7z"/>
						<path class="st9" d="M820,141.4c-0.7-0.2-1.3-0.4-1.8-0.7l-1,2.4c0.6,0.5,1.3,0.8,2.1,0.7l0.4-1.7
							C819.8,141.8,819.9,141.6,820,141.4z"/>
						<path class="st19" d="M823,134c-0.2-0.1-0.3-0.3-0.5-0.7c-0.1,0.5,0,0.8,0.2,0.9c0,0,0.1,0,0.1,0L823,134z"/>
					</g>
					<g>
						<g>
							<path class="st19" d="M818.7,120.1l-1.6-0.4c-0.5,0.3-0.6,0.7-0.4,1.2c0.6,0.2,1.2,0.4,1.9,0.6L818.7,120.1z"/>
							<path class="st32" d="M818.5,121.5c0.7,0.2,1.4,0.5,2.2,0.7c0.2-0.5,0.3-1,0.2-1.4l-2.2-0.6L818.5,121.5z"/>
						</g>
						<g>
							<path class="st39" d="M817.3,118.7c-0.3,1.1-0.9,2-1.5,2.8l-2.9-1.5c-0.5-0.4-0.7-1-0.6-1.6c0.4-0.6,1-0.8,1.8-0.7
								L817.3,118.7z"/>
							<path class="st38" d="M815.7,121.5c0.7-0.8,1.2-1.7,1.5-2.8l0.6,0.2c-0.4,1.3-0.9,2.3-1.5,2.9L815.7,121.5z"/>
						</g>
						<path class="st32" d="M820.5,122.1c1.9,0.3,3.7,0.4,5.4,0.4c0.3-0.7,0.2-1.4-0.2-1.9c-1.6-0.1-3.2,0-4.9,0.2
							C820.3,121.1,820.2,121.6,820.5,122.1z"/>
						<g>
							<path class="st19" d="M827.4,122.8c-0.4,0.1-0.6,0-0.6-0.2c0-0.1,0-0.1,0-0.2c0-0.2,0-0.4,0-0.7c0-0.1,0-0.3-0.1-0.5
								c0,0,0,0,0,0c0-0.2-0.1-0.4-0.3-0.5c0,0,0,0,0,0l-0.1-0.1c0.7-0.2,1.2,0.2,1.4,1.1c0,0,0,0,0,0.1c0.1,0.2,0.2,0.4,0.4,0.6
								c0.1,0.1,0.2,0.2,0.3,0.3l0,0c0.1,0.2,0.2,0.4,0.4,0.6c0,0,0,0,0,0c0,0,0,0.1,0.1,0.1c0,0,0,0,0,0.1c0,0,0,0.1,0,0.1
								c-0.1,0.1-0.2,0.2-0.4,0.1c0,0-0.1,0-0.1,0c-0.3-0.1-0.5-0.3-0.5-0.7C827.7,123,827.6,122.9,827.4,122.8z M827.1,124.2
								L827,124L827.1,124.2C827.1,124.2,827.1,124.2,827.1,124.2z M825.3,123.1l0.3,1l0.5,0.7c0,0.1,0.1,0.1,0.2,0.1h0.6
								c0.1,0,0.1,0,0.2-0.1l0,0l0.5-0.7c0.1-0.1,0.1-0.2,0.1-0.2c0,0,0,0,0.1,0l0,0c0,0,0,0,0,0c0,0.1,0.1,0.1,0,0.2c0,0,0,0,0,0
								c0,0,0,0.1,0,0.1c-0.2,0.2-0.3,0.4-0.4,0.6c-0.1,0.1-0.2,0.2-0.3,0.2h-0.7c-0.1,0-0.2,0-0.2-0.1l-0.6-0.8
								c-0.1-0.2-0.1-0.4-0.2-0.6c0,0,0,0,0,0C825.4,123.3,825.3,123.2,825.3,123.1z M826.7,124.3l-0.1-0.3l0.2,0.3
								C826.8,124.3,826.8,124.3,826.7,124.3z M826.1,125.1l0.8,0.1c0.1,0,0.2,0,0.2,0l0.9-0.9c0,0,0,0,0,0c0.1-0.1,0-0.2-0.1-0.2
								c0,0,0.1,0,0.1,0.1c0,0,0,0.1,0,0.1c0,0,0,0.1-0.1,0.1l-0.9,1c-0.1,0.1-0.2,0.1-0.3,0l-0.2-0.1l0.5,0.2c0,0,0.1,0,0.1,0l1-1
								c0.1-0.1,0.1-0.2-0.1-0.2c0.1,0,0.1,0,0.1,0c0.1,0.1,0.1,0.1,0,0.2l-0.4,0.3l-0.6,0.6c0.1,0.1,0.3,0,0.5-0.1
								c0.2-0.1,0.4-0.2,0.6-0.3c0.2-0.1,0.2-0.1,0.2-0.3c0,0,0,0,0,0.1c0.1,0.1,0,0.2-0.1,0.2c0,0-0.1,0-0.1,0
								c-0.2,0.1-0.5,0.2-0.7,0.4c-0.2,0.1-0.3,0.1-0.5-0.1l0,0c-0.1,0.1-0.1,0.1-0.2,0l-0.4-0.2L826.1,125.1z"/>
							<path class="st33" d="M827.3,124c-0.1,0-0.1,0.1-0.2,0.2L827,124l0.1,0.2c0,0-0.1,0.1-0.1,0.1c0,0-0.1,0-0.1,0l-0.2-0.3
								l0.1,0.3c-0.1,0-0.2,0-0.2,0c0-0.1-0.1-0.3-0.2-0.4c0.1-0.2,0.1-0.5,0.1-0.8c0.2-0.1,0.3-0.3,0.4-0.5
								c0.1,0.2,0.3,0.3,0.6,0.2C827.3,123.1,827.3,123.5,827.3,124z"/>
							<path class="st32" d="M827.7,123.8c0.1,0,0,0.1-0.1,0.2l-0.5,0.7l0,0c-0.1,0-0.1,0.1-0.2,0.1h-0.6c-0.1,0-0.1,0-0.2-0.1
								l-0.5-0.7l-0.3-1c0,0-0.1-0.1-0.1-0.2c-0.1-0.3-0.2-0.7-0.2-1c0-0.1,0-0.1,0-0.2c0-0.2,0-0.3,0.1-0.5
								c0.1-0.5,0.4-0.7,0.8-0.7c0.2,0,0.3,0,0.4,0.1l0.1,0.1c0,0,0,0,0,0c0.1,0.1,0.2,0.3,0.3,0.5c0,0,0,0,0,0c0,0.2,0,0.3,0.1,0.5
								c0,0.3,0,0.5,0,0.7c0,0.1,0,0.1,0,0.2c-0.1,0.3-0.2,0.4-0.4,0.5c0,0.3,0,0.6-0.1,0.8c0.1,0.1,0.2,0.2,0.2,0.4
								c0.1,0,0.2,0,0.2,0c0,0,0.1,0,0.1,0c0,0,0.1,0,0.1,0c0,0,0.1-0.1,0.1-0.1c0,0,0,0,0.1-0.1c0.1-0.1,0.1-0.1,0.2-0.2
								C827.5,123.9,827.6,123.8,827.7,123.8C827.7,123.8,827.7,123.8,827.7,123.8C827.7,123.8,827.7,123.8,827.7,123.8z
								 M826.1,125.1l-0.7-1l-0.1-0.7c0,0.2,0.1,0.4,0.2,0.6l0.6,0.8c0.1,0.1,0.1,0.1,0.2,0.1h0.7c0.1,0,0.2-0.1,0.3-0.2
								c0.1-0.2,0.3-0.4,0.4-0.6c0,0,0-0.1,0-0.1c0,0,0,0,0,0c0.1,0,0.2,0,0.2,0c0.1,0,0.1,0.1,0.1,0.2c0,0,0,0,0,0l-0.9,0.9
								c-0.1,0.1-0.2,0.1-0.2,0L826.1,125.1z M828.1,124.9c0.1-0.1,0.2-0.1,0.3-0.1c0.2,0,0.3,0,0.4,0.1c0.1,0.1,0,0.2-0.2,0.3
								c-0.2,0.1-0.4,0.2-0.6,0.3c-0.2,0.1-0.4,0.2-0.5,0.1L828.1,124.9z M828.3,124.3c0.2,0,0.2,0.1,0.1,0.2l-1,1c0,0-0.1,0-0.1,0
								l-0.5-0.2l0.2,0.1c0.1,0,0.3,0,0.3,0l0.9-1C828.2,124.4,828.3,124.3,828.3,124.3C828.3,124.3,828.3,124.3,828.3,124.3z"/>
						</g>
					</g>
					<g>
						<path class="st40" d="M812.6,127.5l3,0.5l0.1,0l3.4,2.5c0,0,0,0,0,0c-0.1,0.8-0.5,1.5-1,1.9l-4-1.6c-1.4-0.5-1.9-1.5-1.5-2.9
							C812.5,127.8,812.6,127.7,812.6,127.5z"/>
						<path class="st41" d="M812.6,127.5c0,0.2-0.1,0.3-0.1,0.5c-0.4,1.4,0.1,2.4,1.5,2.9l4,1.6c0.5-0.5,0.9-1.1,1-1.9c0,0,0,0,0,0
							v0c-0.3,2.3-1.3,4-3,4.9l-2.9-1.7c-3.3-1.5-4.3-3.7-2.9-6.7L812.6,127.5z"/>
					</g>
					<g>
						<g>
							<path class="st42" d="M816.2,117.8l-0.5,1c-0.4-0.5-0.9-0.9-1.4-1.2c-0.5-0.3-1-0.6-1.5-0.7l0.4-1c0.1,0.1,0.2,0.1,0.2,0.1
								c0.7,0.1,1.2,0.3,1.5,0.5c0.5,0.3,0.9,0.6,1.3,1L816.2,117.8z"/>
							<polygon class="st41" points="816.2,117.8 816.3,117.5 816.8,118.8 816.4,118.8 							"/>
							<path class="st9" d="M816.4,118.8l-0.6,1.6l0.4,0c-0.4,1.2-0.6,2.4-0.7,3.5c0,0.3,0,0.5,0,0.8c0,0.1,0,0.2,0,0.4
								c0,1,0.1,1.9,0.2,2.8c-2,0.9-4.1,1.1-6.4,0.6l0.7-1.2c-0.1-1-0.2-1.7-0.2-2.2c-0.1-0.7,0-1.5,0-2.3c0.6-3.3,1.6-5.3,3-6
								c0.6,0.1,1.1,0.4,1.5,0.7c0.5,0.3,0.9,0.7,1.4,1.2l0.5-1L816.4,118.8z"/>
							<path class="st43" d="M816.2,120.5l-0.4,0l0.6-1.6l0.4,0C816.6,119.4,816.4,119.9,816.2,120.5z"/>
						</g>
					</g>
					<g>
						<path class="st44" d="M816.8,144.5l5.1,1c0.8,0.1,1.7,0,2.6-0.1l0.6-0.6c-0.2-0.3-0.4-0.6-0.7-0.8c-0.9,0-1.6,0-2-0.1
							c-0.4-0.1-0.6-0.2-0.6-0.2c-0.1,0.1-0.2,0.3-0.3,0.6c-0.2,0-0.3,0-0.4-0.1c0-0.3,0.1-0.5,0.3-0.7c-0.1,0-0.1-0.1-0.2-0.1
							c-0.2,0.2-0.3,0.5-0.4,0.7c-0.2,0-0.3,0-0.4-0.2c0.1-0.3,0.3-0.5,0.5-0.7c-0.1,0-0.1-0.1-0.2-0.1c-0.2,0.2-0.4,0.5-0.5,0.8
							c-0.2,0-0.3-0.1-0.4-0.3c0.2-0.3,0.4-0.5,0.6-0.8c0-0.1-0.1-0.1-0.1-0.2c-0.3,0.2-0.5,0.5-0.7,0.8c-0.1,0-0.2-0.1-0.2-0.2
							c0.2-0.4,0.4-0.6,0.7-0.8c-0.1-0.1-0.2-0.3-0.2-0.4c-0.4,0.1-0.7,0.4-0.8,0.9c0,0,0,0.1,0,0.1c-0.2,0.3-0.4,0.5-0.6,0.5
							c-0.2,0-0.4-0.1-0.5-0.3c-0.1-0.3-0.2-0.5-0.2-0.8c0-0.2,0-0.3-0.2-0.4C817.1,142.8,816.8,143.6,816.8,144.5z"/>
						<path class="st45" d="M820.4,142.8c-0.2,0.2-0.4,0.5-0.6,0.8c0,0.1,0.1,0.2,0.4,0.3c0.1-0.3,0.3-0.5,0.5-0.8
							C820.6,142.9,820.5,142.9,820.4,142.8z M820.2,142.6c0-0.1-0.1-0.2-0.2-0.3c-0.3,0.2-0.6,0.5-0.7,0.8c0,0.2,0.1,0.2,0.2,0.2
							C819.7,143.1,819.9,142.8,820.2,142.6z M821.3,143.5c-0.2,0.2-0.2,0.4-0.3,0.7c0.1,0.1,0.3,0.2,0.4,0.1
							c0.1-0.3,0.2-0.5,0.3-0.6C821.6,143.5,821.4,143.5,821.3,143.5z M821.1,143.4c-0.1-0.1-0.2-0.2-0.3-0.2
							c-0.2,0.2-0.4,0.5-0.5,0.7c0.1,0.1,0.2,0.2,0.4,0.2C820.8,143.9,820.9,143.6,821.1,143.4z"/>
						<path class="st46" d="M816.8,144.5l-0.2,1l5.3,0.3c1,0,1.9-0.1,2.7-0.2l0.6-0.6c0-0.1-0.1-0.1-0.1-0.2l-0.6,0.6
							c-0.9,0.1-1.8,0.2-2.6,0.1L816.8,144.5z"/>
					</g>
					<g>
						<g>
							<path class="st18" d="M818.2,119.7c0.8,0.1,1.5,0.2,2.2,0.2c0.1-0.5,0.1-1-0.1-1.4l-2.3-0.2
								C818.2,118.7,818.2,119.2,818.2,119.7z"/>
							<path class="st19" d="M818.1,118.3l-1.7-0.1c-0.4,0.4-0.5,0.8-0.2,1.3c0.7,0.1,1.3,0.2,1.9,0.2
								C818.2,119.2,818.2,118.7,818.1,118.3z"/>
						</g>
						<g>
							<path class="st47" d="M815.9,120.4L815.9,120.4c0.4-0.9,0.6-2,0.6-3.1l-3.3,0c-0.8,0.1-1.4,0.5-1.5,1.2
								c0.1,0.7,0.4,1.2,1.1,1.4L815.9,120.4z"/>
							<path class="st41" d="M815.9,120.4l0.7,0.1c0.4-0.8,0.6-1.9,0.5-3.2l-0.6,0C816.5,118.4,816.3,119.5,815.9,120.4L815.9,120.4
								z"/>
						</g>
						<path class="st18" d="M820,119.8c1.9,0.3,3.7,0.4,5.4,0.4c0.3-0.7,0.2-1.4-0.2-2c-1.6-0.1-3.2,0-4.9,0.2
							C819.9,118.9,819.8,119.3,820,119.8z"/>
						<g>
							<path class="st18" d="M826.4,115.9c0,0.1,0,0.2,0,0.3c0,0,0,0,0,0c0,0.1-0.1,0.2-0.2,0.2c0,0,0,0,0,0c-0.2,0-0.3-0.1-0.3-0.3
								c0,0,0,0,0-0.1c0,0,0,0,0,0l0-0.6c0,0,0,0,0,0.1c0,0.1-0.1,0.1-0.1,0.2c0,0.1,0,0.1,0,0.1c-0.2,0-0.4-0.2-0.4-0.5
								c0,0.4,0.1,0.6,0.4,0.6c0,0.1,0,0.2,0.1,0.3c0,0.6,0.1,0.9,0.2,1.2c0,0,0,0,0,0l0,0c0,0,0,0,0,0c0,0,0.1,0.1,0.1,0.1
								c0,0,0,0.1,0.1,0.1c0.3,0.4,0.4,0.9,0.4,1.5c-0.1,0.3-0.2,0.6-0.3,0.8c-0.1,0.1-0.1,0.2-0.2,0.2c-0.1,0.1-0.3,0.1-0.5,0.2
								c-0.7-0.1-0.9-1-0.8-2.9c0-0.7,0.1-1.4,0.2-2.1c0-0.1,0.1-0.2,0.2-0.2c0,0,0.1-0.1,0.1-0.1l0.8-0.3c0.1,0,0.1,0,0.2,0
								c0.1,0,0.1,0,0.1,0.1c0,0,0,0,0,0c0,0,0,0.1,0.1,0.1c0,0.1,0.1,0.2,0.1,0.3c0,0.1,0.1,0.2,0.1,0.3c0,0,0,0.1,0,0.1l0,0
								c0,0.1,0.1,0.1,0.1,0.2c0,0,0,0,0,0c0,0.1,0,0.2,0,0.2l0,0c-0.1,0-0.2,0-0.3-0.1c0,0,0,0,0-0.1c-0.1-0.2-0.2-0.4-0.2-0.6
								c0,0,0,0,0,0c-0.1-0.2-0.2-0.4-0.4-0.3l0,0l0,0l-0.6,0.1c0,0,0,0,0,0l0.8,0.1c0,0,0,0,0.1,0c0.1,0.1,0.2,0.2,0.1,0.4
								c0,0,0,0,0,0c0,0,0,0,0,0.1c0,0,0,0.1,0,0.1C826.4,115.8,826.4,115.8,826.4,115.9z M827.6,115.7c-0.1,0-0.3,0-0.4-0.1l0,0
								c-0.2-0.2-0.4-0.5-0.5-0.9c0-0.1-0.1-0.1-0.2-0.1c0,0,0.1,0,0.1,0c0,0,0,0,0,0c0.1,0,0.2,0,0.2,0c0,0,0.1,0,0.1,0.1h0l0,0
								c0,0,0,0,0,0c0,0,0,0,0,0c0.1,0.2,0.2,0.3,0.3,0.4c0,0,0.1,0.1,0.1,0.1c0.1,0.1,0.2,0.2,0.4,0.3
								C827.7,115.5,827.7,115.6,827.6,115.7C827.7,115.6,827.7,115.7,827.6,115.7z M828.4,114.9c0,0.1-0.1,0.2-0.3,0.2
								c0,0-0.1,0-0.1,0c0,0,0,0-0.1,0c0,0,0,0-0.1,0c0,0,0,0-0.1,0c0,0-0.1,0-0.1,0c-0.3-0.1-0.5-0.3-0.6-0.5
								c-0.1-0.1-0.1-0.1-0.2,0c0,0,0,0,0,0c0,0,0,0,0.1-0.1c0,0,0,0,0,0c0.1-0.1,0.2-0.1,0.3,0c0,0,0,0,0,0
								c0.2,0.2,0.4,0.3,0.6,0.3c0.1,0,0.2,0.1,0.3,0.1C828.3,114.8,828.4,114.8,828.4,114.9z"/>
							<path class="st19" d="M828.4,114.9c0,0,0,0.1-0.1,0.2c0,0,0,0-0.1,0.1c-0.1,0.1-0.2,0.1-0.3,0.1c-0.2,0-0.4,0-0.6-0.1
								c0,0-0.1-0.1-0.1-0.1c-0.1-0.1-0.2-0.3-0.3-0.4c0,0,0,0,0,0c0,0,0,0,0,0l0,0h0c0,0,0,0-0.1-0.1c0,0,0,0,0,0
								c0.1,0,0.1,0,0.2,0c0.2,0.3,0.4,0.4,0.6,0.5c0,0,0.1,0,0.1,0c0,0,0,0,0.1,0c0,0,0,0,0.1,0c0,0,0,0,0.1,0c0,0,0.1,0,0.1,0
								C828.2,115,828.3,115,828.4,114.9z M826.9,115.5c0-0.1-0.1-0.2-0.1-0.3c0-0.1-0.1-0.2-0.1-0.3c0,0,0-0.1-0.1-0.1c0,0,0,0,0,0
								c0-0.1-0.1-0.1-0.1-0.1c0,0,0,0,0.1,0c0.1,0,0.1,0,0.2,0.1c0.2,0.5,0.4,0.8,0.5,0.9l0,0c0.1,0.1,0.3,0.1,0.4,0.1
								c0,0,0,0-0.1,0c-0.2,0.1-0.4,0-0.6-0.1C827,115.6,826.9,115.6,826.9,115.5C826.9,115.5,826.9,115.5,826.9,115.5z M827,116
								C827,116,827,116,827,116c0,0-0.1,0.1-0.1,0.1c0,0,0,0,0,0c-0.1,0-0.3,0-0.4-0.2c0-0.1,0-0.1,0-0.2c0,0,0-0.1,0-0.1
								c0,0,0,0,0-0.1c0,0,0,0,0,0c0-0.2,0-0.3-0.1-0.4c0,0,0,0-0.1,0l-0.8-0.1c0,0,0,0,0,0l0.6-0.1l0,0l0,0c0.2,0,0.3,0.1,0.4,0.3
								c0,0,0,0,0,0c0.1,0.2,0.1,0.4,0.2,0.6c0,0,0,0,0,0.1C826.8,116,826.9,116,827,116z M825.8,116.2c0-0.1-0.1-0.2-0.1-0.3
								c-0.3,0-0.4-0.2-0.4-0.6c0,0.3,0.2,0.5,0.4,0.5c0,0,0-0.1,0-0.1c0-0.1,0-0.1,0.1-0.2c0,0,0,0,0-0.1l0,0.6c0,0,0,0,0,0
								C825.9,116.1,825.9,116.1,825.8,116.2c0.1,0.1,0.2,0.1,0.4,0.2c0,0,0,0,0,0c0.1,0,0.2-0.1,0.2-0.2c0,0.2-0.1,0.3-0.3,0.2
								c0,0-0.1,0-0.1,0C825.9,116.3,825.8,116.3,825.8,116.2z"/>
							<path class="st33" d="M825.8,116.2c0,0.1,0.1,0.1,0.2,0.2c0,0,0.1,0,0.1,0c0.2,0,0.3,0,0.3-0.2c0,0,0,0,0,0
								c0-0.1,0-0.2,0-0.3c0.1,0.1,0.3,0.2,0.4,0.2c0,0.3,0,0.5,0,0.7c0.1,0.2,0.1,0.4,0.1,0.6c0,0,0,0,0,0c0.1,0,0.2,0,0.3,0.1
								c0,0,0,0,0,0h0c0,0,0,0,0,0c0,0,0.1,0,0.1-0.1l0,0c0.1,0,0.1-0.1,0.2-0.1c0.1-0.1,0.1-0.1,0.2-0.2c0-0.1,0-0.3,0.1-0.4
								c0,0,0-0.1,0.1-0.1c0.2-0.4,0.4-0.5,0.6-0.4c0.1,0,0.1,0.2,0.1,0.4c0,0.1,0,0.2-0.1,0.3c0,0,0,0,0,0c0,0,0,0.1,0,0.1
								c-0.1,0.2-0.1,0.3-0.1,0.5c0,0.1-0.1,0.3-0.3,0.5c-0.1,0.1-0.1,0.1-0.2,0.2c-0.1,0.1-0.2,0.2-0.3,0.3c-0.1,0.6-0.4,1-0.7,1.3
								c0,0,0,0,0,0l0,0c0,0,0,0-0.1,0.1c-0.2,0.2-0.5,0.3-0.7,0.2c0.1-0.1,0.2-0.1,0.2-0.2c0.1-0.2,0.2-0.4,0.3-0.8
								c0.1-0.6,0-1.1-0.4-1.5c0,0,0-0.1-0.1-0.1c0,0-0.1-0.1-0.1-0.1c0,0,0,0,0,0l0,0c0,0,0,0,0,0
								C825.9,117.2,825.8,116.8,825.8,116.2z"/>
						</g>
					</g>
				</g>
			</g>
		</g>
		<path class="st7" d="M1035.1,146.6c0,1.1-2,2-6.1,2.8c-4.1,0.7-9.1,1.1-15,1.1c-5.7,0-10.7-0.4-14.8-1.1c-4.1-0.8-6.1-1.7-6.1-2.8
			c0-1.1,2-2,6.1-2.8c4.1-0.8,9.1-1.2,14.8-1.2c5.8,0,10.8,0.4,15,1.2C1033.1,144.6,1035.1,145.5,1035.1,146.6z"/>
		<g>
			<linearGradient id="SVGID_3_" gradientUnits="userSpaceOnUse" x1="944.6289" y1="119.9751" x2="785.4998" y2="119.9751">
				<stop  offset="0" style="stop-color:#FF9A00"/>
				<stop  offset="0.7373" style="stop-color:#FF5400;stop-opacity:0"/>
			</linearGradient>
			<path class="st48" d="M785.5,126v-0.3h159c0.2,0.1,0.2,0.2-0.2,0.3H785.5z M785.5,125.5v-1.2h155.1c0.7,0.1,1.5,0.3,2.4,0.5
				c1.6,0.4,1.2,0.6-1.3,0.7H785.5z M785.5,118.7v-2.2h154.2c1.5,0.8,0.8,1.5-2,2.2H785.5z M785.5,122.5V121h153.2
				c1.6,0.6,1.5,1.1-0.5,1.6H785.5z M785.5,124.2v-1.3h153.8c1.3,0.4,1.4,0.9,0.2,1.3H785.5z M785.5,120.6V119h153.2
				c1.4,0.5,1.7,0.9,1,1c-0.8,0.2-1.5,0.4-2.2,0.5H785.5z M785.5,116.2v-1.1h156.2v0.1c-0.2,0.2-1.1,0.6-2.6,1H785.5z M785.5,114.9
				v-1h158.7c0.1,0.1,0.1,0.1-0.1,0.2c-0.4,0.2-1.6,0.4-3.4,0.8H785.5z"/>
			<path class="st49" d="M943.5,126.1c0,0-0.1,0-0.2,0H943c-0.1,0-0.2,0-0.4,0c-0.1,0-0.1,0-0.2,0c2.1-0.3-0.8-0.4-8.9-0.5
				c0.8,0,1.6,0,2.3,0c2.1,0,3.8-0.1,4.9-0.2c2.9-0.3,0.2-0.7-8.2-1.1c2.5-0.2,4.2-0.4,5.2-0.7c1.5-0.4,0.5-0.7-3-0.8
				c-0.8,0-1.6-0.1-2.6-0.1c-0.4,0-0.7,0-1.1,0c2.4-0.2,4.3-0.4,5.5-0.7c2.5-0.5,0.7-0.9-5.5-1.2c2.7-0.1,4.8-0.2,6.1-0.4
				c2.8-0.4,0.7-0.9-6.2-1.6c2.9-0.3,5-0.6,6.4-1c2-0.6,0-1.1-6-1.4c2.4-0.2,4.3-0.4,5.7-0.7c2.1-0.4,1.2-0.6-2.7-0.7l-1.9,0
				c-0.2,0-0.4,0-0.6,0c3.1-0.1,5.6-0.2,7.4-0.4c2.5-0.3,1.8-0.5-2-0.6l6.5,0c1.8,0.1,3.3,0.6,4.6,1.8c1.4,1.2,2,2.6,2,4.3
				c0,1.7-0.7,3.1-2,4.3c-1.3,1.2-3,1.8-4.9,1.8C943.6,126.1,943.6,126.1,943.5,126.1C943.5,126.1,943.5,126.1,943.5,126.1
				L943.5,126.1z"/>
			<path class="st50" d="M941.1,124.4c-1.9-0.2-2.4-0.3-1.4-0.4l0.8-0.1c1.7-0.3,1.5-0.6-0.4-1c-0.1,0-0.2,0-0.4-0.1
				c-1.1-0.2-1.2-0.4-0.3-0.6c2.3-0.4,2.2-0.8-0.4-1.2c-1.4-0.3-1.4-0.5-0.1-0.6c0.8-0.2,1.3-0.3,1.5-0.5c0.2-0.1-0.3-0.4-1.5-0.7
				c-1.3-0.4-1.2-0.7,0.2-1c2.6-0.4,2.9-0.9,0.8-1.5c-1.3-0.4-1.5-0.6-0.4-0.8c0.5-0.1,1-0.3,1.6-0.4c1.8-0.3,2.2-0.5,1.1-0.6
				c0.7-0.3,1.5-0.5,2.4-0.5c1.6,0,2.9,0.5,4.1,1.6c1.1,1.1,1.7,2.4,1.7,3.9c0,1.5-0.6,2.8-1.7,3.9c-1.1,1.1-2.5,1.6-4.1,1.6
				c-0.4,0-0.8,0-1.2-0.1C944.8,124.9,944,124.6,941.1,124.4z"/>
			<path class="st9" d="M945.6,124.2c0-0.1-0.4-0.2-1.1-0.2c-1.7-0.1-2.1-0.3-1.2-0.6c0.4-0.1,0.5-0.3,0.2-0.4
				c-0.2-0.1-0.5-0.2-0.9-0.3c-1.1-0.2-1.4-0.4-0.7-0.8c0.5-0.3,0.5-0.6-0.2-0.9c-1-0.3-1.2-0.5-0.7-0.7c0.5-0.2,0.8-0.4,0.9-0.5
				c0.1-0.1-0.1-0.3-0.7-0.6c-0.6-0.3-0.3-0.6,0.6-1c0.9-0.2,1-0.6,0.5-1c-0.7-0.5-0.3-0.9,1.2-0.9c0.5,0,0.8-0.1,1-0.1
				c0.5-0.1,0.6-0.2,0.2-0.4c-0.1,0-0.1-0.1-0.2-0.1c-0.2-0.1-0.2-0.1-0.1-0.2c0.1,0,0.2,0,0.3,0c0.7,0,1.3,0,2.1,0.2
				c0,0,0.1,0,0.1,0c0,0,0.1,0,0.1,0c0,0,0,0,0,0c0.7,0.2,1.3,0.6,1.8,1.1c0.8,0.8,1.3,1.9,1.3,3.1c0,1.2-0.4,2.2-1.3,3.1
				c-0.2,0.2-0.4,0.4-0.6,0.5c0,0,0,0,0,0c-0.5,0.4-1.2,0.7-2.1,1C945.7,124.6,945.5,124.5,945.6,124.2
				C945.6,124.3,945.6,124.2,945.6,124.2z"/>
		</g>
		<path class="st50" d="M977.8,83.2l9.6,11l1.7-1.4l-7.8-12.6L977.8,83.2z M988.4,95.7c-0.2,0.6-0.2,1.1,0.1,1.5
			c0.3,0.5,0.7,0.8,1.2,1c0.5,0.2,1,0.1,1.5-0.2c0.5-0.3,0.9-0.6,1-1.1c0.2-0.5,0.2-1.1-0.1-1.6c-0.3-0.5-0.7-0.8-1.2-1
			c-0.5-0.2-1.1-0.2-1.6,0.1C988.9,94.7,988.6,95.1,988.4,95.7z"/>
		<g>
			<path class="st51" d="M995.1,92.4c1-5.8,2.3-10.5,3.8-14.2c1.5-3.7,2.8-5.5,4.1-5.5c1.5,0,2.8,3,4.1,9.1c0.6,3,1.1,6.1,1.4,9.1
				c0.8-0.2,1.8-0.2,3-0.2c0.6,0,1.2,0,2,0.1l1,0.1c-0.1-4.8,0.5-9.7,1.7-14.5c0.6-2.3,1.2-4.2,2-5.5c0.8-1.5,1.6-2.2,2.4-2.2
				c2.6,0,5,5.2,7.1,15.7c0.8,4,1.6,8.5,2.2,13.4c0.5,4.3,0.9,8.2,1.1,11.6c0.6,12.2-0.5,22.1-3.3,29.8c-1.1,2.9-2.3,5.3-3.7,6.9
				c-1.2,1.5-2.3,2.2-3.3,2.2c-1.8,0-3.4-1.2-4.8-3.7c-0.7-1.2-1.2-2.4-1.5-3.7c-1.2,0.2-2.3,0.2-3.5,0.2c-0.6,0-1.1-0.1-1.5-0.2
				l-0.3,1.2c-0.3,1-0.6,1.8-1,2.6c-1.2,2.5-2.6,3.7-4.2,3.5c-0.7-0.1-1.4-0.4-2.2-1.1c-0.9-0.7-1.7-1.6-2.5-2.8
				c-1.9-2.8-3.3-6.4-4.1-10.8c-1.3-6.8-1.8-14-1.7-21.7C993.4,105.3,994,98.8,995.1,92.4z"/>
			<path class="st52" d="M1002.7,77.4c0.8-1,1.5,1,2.2,6c0.3,2.5,0.6,5.1,0.8,7.7l-1.2,0.1c-0.9,0.1-1.8,0.2-2.5,0.3
				c-1.3,0.2-2.4,0.5-3.5,0.8c0.4-2.1,0.9-4.3,1.4-6.6C1001,81.1,1002,78.3,1002.7,77.4z"/>
			<path class="st52" d="M1019.3,91.4c-1-0.2-1.8-0.2-2.3-0.3c0-5.7,0.6-10.5,1.5-14.2c0.4-1.4,0.7-2.4,1.1-3.3c0.3-0.7,0.6-1,0.8-1
				c1.3,0,2.6,3.4,4,10.1c0.5,2.4,0.9,4.7,1.2,6.9c0.3,2.1,0.3,3.1,0.2,3.1C1023.5,92.1,1021.3,91.7,1019.3,91.4z"/>
			<g>
				<path class="st53" d="M1014.5,114.4c0.2,0.2,0.3,0.6,0.3,0.9c0,0.4-0.1,0.7-0.3,0.9c-0.2,0.2-0.5,0.4-0.7,0.4
					c-0.3,0-0.5-0.1-0.7-0.4c-0.2-0.3-0.3-0.6-0.3-0.9c0-0.4,0.1-0.7,0.3-0.9c0.2-0.3,0.4-0.4,0.7-0.4
					C1014,114,1014.3,114.1,1014.5,114.4z"/>
				
					<linearGradient id="SVGID_4_" gradientUnits="userSpaceOnUse" x1="9846.252" y1="-13561.9414" x2="9858.2266" y2="-13561.9414" gradientTransform="matrix(0 -0.1923 0.1923 -2.000000e-04 3621.6697 2007.5013)">
					<stop  offset="0" style="stop-color:#C4538F"/>
					<stop  offset="1" style="stop-color:#000000"/>
				</linearGradient>
				<path class="st54" d="M1014.7,115.6c0,0.4-0.1,0.7-0.3,0.9c-0.2,0.3-0.4,0.4-0.7,0.4c-0.3,0-0.5-0.1-0.7-0.4
					c-0.2-0.3-0.3-0.6-0.3-0.9c0-0.4,0.1-0.7,0.3-0.9c0.2-0.2,0.4-0.4,0.7-0.4c0.3,0,0.5,0.1,0.7,0.4
					C1014.6,115,1014.7,115.3,1014.7,115.6z"/>
			</g>
			<g>
				<path class="st53" d="M1011.7,114.4c0.2,0.2,0.3,0.6,0.3,0.9c0,0.4-0.1,0.7-0.3,0.9c-0.2,0.2-0.5,0.4-0.7,0.4
					c-0.3,0-0.5-0.1-0.7-0.4c-0.2-0.3-0.3-0.6-0.3-0.9c0-0.4,0.1-0.7,0.3-0.9c0.2-0.3,0.4-0.4,0.7-0.4
					C1011.2,114,1011.5,114.1,1011.7,114.4z"/>
				
					<linearGradient id="SVGID_5_" gradientUnits="userSpaceOnUse" x1="9846.2676" y1="-13576.4395" x2="9858.2422" y2="-13576.4395" gradientTransform="matrix(0 -0.1923 0.1923 -2.000000e-04 3621.6697 2007.5013)">
					<stop  offset="0" style="stop-color:#C4538F"/>
					<stop  offset="1" style="stop-color:#000000"/>
				</linearGradient>
				<path class="st55" d="M1011.9,115.6c0,0.4-0.1,0.7-0.3,0.9c-0.2,0.3-0.4,0.4-0.7,0.4c-0.3,0-0.5-0.1-0.7-0.4
					c-0.2-0.3-0.3-0.6-0.3-0.9c0-0.4,0.1-0.7,0.3-0.9c0.2-0.2,0.4-0.4,0.7-0.4c0.3,0,0.5,0.1,0.7,0.4
					C1011.8,115,1011.9,115.3,1011.9,115.6z"/>
			</g>
			<path class="st56" d="M1004.9,121.5c-1.7-0.5-2.7-1-3.1-1.3c-0.3-0.2-0.3-0.4-0.1-0.5c0.2-0.1,0.4-0.1,0.6,0
				c3.2,1.2,6,1.9,8.5,2.1c3.7,0.2,7.3-0.5,10.8-2.2c0.4-0.2,0.7-0.2,0.8,0c0.1,0.2-0.1,0.5-0.5,0.8c-0.9,0.7-2.3,1.2-4.1,1.7
				c-1.8,0.4-3.8,0.7-5.8,0.7C1009.6,122.6,1007.2,122.2,1004.9,121.5z"/>
			<path class="st57" d="M1017.9,139.5c-1.9,1.5-4.5,2-7.8,1.6c-1.2-0.1-2.3-0.4-3.3-0.7c-0.9-0.3-1.5-0.6-1.7-0.9
				c0.5,0.1,1.1,0.3,1.9,0.4c1.6,0.3,3.2,0.4,4.8,0.4c1.2,0,2.6-0.1,4.1-0.4L1017.9,139.5z"/>
			<g>
				<path class="st58" d="M993.4,109.9c0.3,0.2,0.6,0.8,0.9,1.7c0.3,1,0.3,1.8,0,2.4c-0.2,0.4-0.6,1.2-1,2.5
					c-0.6,1.6-1.1,3.2-1.5,4.9c-1.3,4.8-1.8,8.7-1.5,11.7c0.2,1.6,0.5,2.9,1,3.8c0.3,0.7,0.8,1.4,1.5,2c0.8,0.8,1.3,1.3,1.4,1.4
					c0.4,0.6,0.7,1.3,0.8,2.2c0.2,1.5-0.3,2.8-1.5,4c-1.1,1.1-2.5,1.7-4.1,1.8c-1.7,0.1-3.2-0.4-4.5-1.6c-1.5-1.4-2.4-3.4-2.7-6.1
					c-0.9-7.5,0.7-14.8,4.8-22.1c1.3-2.3,2.8-4.4,4.4-6.4L993.4,109.9z"/>
				<path class="st57" d="M994.5,113.5c0,0.2-0.4,1.2-1.1,2.8c-0.8,2.1-1.5,4.3-2,6.6c-0.6,2.7-1,4.9-1.2,6.5c-0.1,1.2-0.1,2.6,0,4
					c0.1,1.5,0.5,2.8,1.2,3.9c0.4,0.7,0.9,1.3,1.4,1.8c0.8,0.7,1.3,1.3,1.6,1.8c0.6,1.2,0.7,2.5,0.2,4c0-0.2,0-0.4,0-0.7
					c0-0.6-0.1-1.1-0.2-1.6c-0.2-0.7-0.6-1.3-1.2-1.9c-0.1-0.1-0.7-0.5-1.8-1.3c-0.8-0.6-1.4-1.1-1.8-1.7c-0.6-0.8-1-1.9-1.2-3.1
					c-0.5-3.5-0.4-6.9,0.4-10.3c0.9-4,2.8-8,5.5-12l0.1,0.5C994.5,113,994.5,113.3,994.5,113.5z"/>
				<path class="st53" d="M990.1,113.6c0.8-1,1.5-1.9,2.3-2.7l1-1c0.1,0.1,0.2,0.2,0.3,0.4l0.1,0.2c-1.9,1.8-3.7,4.2-5.3,7.3
					c-1.5,3-2.7,6.1-3.6,9.5c-0.9,3.5-1.3,6.7-1.2,9.7c0.1,3.2,0.7,5.8,1.9,7.7c1.2,1.9,2.9,2.7,5.1,2.6c0.5,0,1.2-0.1,1.8-0.3
					c0.2-0.1,0.4-0.1,0.4-0.1c0.1,0,0,0-0.1,0.1c-0.7,0.6-1.5,0.9-2.4,1.2c-0.4,0.1-0.8,0.2-1.1,0.2l-1.1,0
					c-0.9-0.1-1.7-0.4-2.4-0.8c-2.3-1.4-3.6-4.1-3.9-8.1c-0.2-3.5,0.1-6.8,0.8-10c0.4-1.8,1.1-4,2.1-6.5
					C985.9,119.8,987.7,116.8,990.1,113.6z"/>
			</g>
			<path class="st56" d="M1018.5,120.8l-0.1,1.6c-0.1,1.4-0.2,2.7-0.4,4c-0.6,4.3-1.6,7.6-3.1,10c-0.1,0.1,0.6-5,2-15.4
				L1018.5,120.8z"/>
			<path class="st56" d="M1012.6,123.2c-0.1,1.2-0.2,2.5-0.4,3.7c-0.6,4-1.6,7.2-3,9.6c-0.1,0.1,0.6-4.8,1.9-14.8l1.5,0
				L1012.6,123.2z"/>
			
				<linearGradient id="SVGID_6_" gradientUnits="userSpaceOnUse" x1="-9164.8613" y1="13043.7266" x2="-9130.665" y2="13043.7266" gradientTransform="matrix(0 0.1923 -0.1923 -2.000000e-04 3520.4641 1856.8723)">
				<stop  offset="0" style="stop-color:#F091CA"/>
				<stop  offset="1" style="stop-color:#EE76B6"/>
			</linearGradient>
			<path class="st59" d="M997.7,92.5c2.4-0.8,4.9-1.4,7.6-1.8c8.4-1.2,16.5-0.1,24,3.5l1.2,9.2l-0.8-0.5c-0.7-0.4-1.5-0.8-2.4-1.2
				c-2.7-1.3-5.5-2.2-8.4-2.9c-9.2-2.1-17.6-0.7-25.2,4c0.2-2.1,0.3-3.5,0.4-4.3l0.7-5C995.6,93.3,996.5,92.9,997.7,92.5z"/>
			<path class="st57" d="M1027.1,81.5l0.7,3.3c0.6,2.8,1.1,5.7,1.5,8.7c1.4,9.6,2,18.3,1.7,26.2c-0.3,7.6-1.4,14-3.3,19.3
				c-1.2,3.2-2.5,5.6-4,7.3c-0.6,0.7-1.2,1.2-1.8,1.5c-0.5,0.3-1,0.4-1.5,0.4c-0.8,0-1.7-0.3-2.5-1c-0.4-0.3-0.7-0.7-1-1
				c1.3,0,2.4-0.2,3.3-0.5c0.9-0.4,1.7-1,2.4-1.8c1.2-1.4,2.4-4.4,3.8-8.8c2.3-7.5,3.1-18.7,2.4-33.6c-0.2-4.7-0.6-9.4-1.1-14.3
				L1027.1,81.5z"/>
			<g>
				<path class="st58" d="M1031,109.9c0.6,0.5,1.3,1.3,2.1,2.3c1.6,2,3.1,4.1,4.4,6.4c4.1,7.3,5.7,14.6,4.8,22.1
					c-0.3,2.7-1.2,4.7-2.7,6.1c-1.3,1.2-2.7,1.7-4.5,1.6c-1.6-0.1-3-0.7-4.1-1.8c-1.2-1.1-1.7-2.5-1.5-4c0.1-0.9,0.4-1.6,0.8-2.2
					c0.1-0.2,0.6-0.6,1.4-1.4c0.6-0.6,1.1-1.3,1.5-2c0.5-1,0.8-2.3,1-3.8c0.3-3-0.2-6.9-1.5-11.7c-0.5-1.7-1-3.3-1.5-4.9
					c-0.5-1.3-0.8-2.1-1-2.5c-0.3-0.6-0.3-1.4,0-2.4C1030.3,110.7,1030.6,110.1,1031,109.9z"/>
				<path class="st53" d="M1029.9,113.5c0-0.2,0-0.5,0-0.9l0.1-0.5c2.8,4.1,4.6,8.1,5.5,12c0.8,3.4,0.9,6.9,0.4,10.3
					c-0.2,1.2-0.6,2.3-1.1,3.1c-0.4,0.6-1,1.2-1.8,1.7c-1.1,0.8-1.7,1.2-1.8,1.3c-0.6,0.5-1,1.2-1.2,1.9c-0.1,0.5-0.2,1.1-0.2,1.6
					c0,0.3,0,0.5,0,0.7c-0.5-1.5-0.5-2.8,0.2-4c0.3-0.5,0.8-1.1,1.6-1.8c0.5-0.5,1-1.1,1.4-1.8c0.6-1.1,1-2.5,1.2-3.9
					c0.1-1.4,0.1-2.7,0-4c-0.2-1.6-0.5-3.7-1.2-6.5c-0.5-2.4-1.2-4.6-2-6.6C1030.3,114.7,1029.9,113.8,1029.9,113.5z"/>
				<path class="st57" d="M1034.2,113.6c2.4,3.1,4.2,6.2,5.4,9.2c1,2.5,1.7,4.7,2.1,6.5c0.7,3.2,0.9,6.5,0.7,10
					c-0.2,4-1.5,6.7-3.9,8.1c-1.2,0.7-2.3,1-3.4,0.8l-1.1-0.2c-0.9-0.2-1.7-0.6-2.4-1.2c-0.1-0.1-0.1-0.1-0.1-0.1c0,0,0.2,0,0.4,0.1
					c0.7,0.2,1.3,0.3,1.9,0.3c2.2,0.1,3.9-0.8,5.1-2.6c1.2-1.9,1.8-4.5,1.9-7.7c0.1-3-0.3-6.2-1.2-9.7c-0.9-3.4-2.1-6.6-3.6-9.5
					c-1.6-3.1-3.4-5.5-5.3-7.3c0.1-0.2,0.3-0.4,0.4-0.5C1031.9,110.8,1033,112.1,1034.2,113.6z"/>
			</g>
			<g>
				<path class="st9" d="M1021.4,101.9c0.9,0.5,1.7,1.1,2.3,1.9c1.3,1.6,1.4,3.2,0.2,4.8c-1.2,1.7-3.2,2.6-6,2.7
					c-1,0-1.9-0.1-2.8-0.3c-0.8-0.2-1.2-0.5-1.2-0.8c0-0.5,1.1-2,3.3-4.5C1019.5,103.3,1020.9,102,1021.4,101.9z"/>
				<path class="st57" d="M1022.3,100.4c1,0.6,1.9,1.3,2.7,2.3c1.5,1.9,1.6,3.8,0.3,5.8c-1.4,2.1-3.6,3.2-6.7,3.2
					c-1.2,0-2.2-0.1-3.1-0.4c-0.9-0.3-1.3-0.6-1.4-1c-0.1-0.6,1.2-2.4,3.7-5.3C1020.2,102.1,1021.7,100.6,1022.3,100.4z"/>
				<path class="st60" d="M1021.3,101.9c0.6,0.1,1.3,0.4,1.9,0.9c1.3,0.9,2,2.2,2,3.7c0,0.8-0.2,1.5-0.8,2.3
					c-0.6,0.8-1.3,1.4-2.3,1.9c-2.3,1.2-4.8,1.2-7.5,0.1c-0.8-0.3,0.1-1.9,2.6-4.7c0.8-0.9,1.7-1.8,2.7-2.9L1021.3,101.9z"/>
				<path class="st9" d="M1021.4,101.9c0.9,0.5,1.7,1.1,2.3,1.9c1.3,1.6,1.4,3.2,0.2,4.8c-1.2,1.7-3.2,2.6-6,2.7
					c-1,0-1.9-0.1-2.8-0.3c-0.8-0.2-1.2-0.5-1.2-0.8c0-0.5,1.1-2,3.3-4.5C1019.5,103.3,1020.9,102,1021.4,101.9z"/>
				<path class="st61" d="M1022.6,103.3c-0.6-0.5-1.1-0.8-1.7-1l0.5-0.4c0.8,0.4,1.4,0.9,2,1.5c0.6,0.6,1,1.3,1.3,1.9
					c0.1,0.2,0.1,0.4,0.1,0.5c0.1,0.4,0.1,0.7,0,1.1c-0.1,0.4-0.2,0.7-0.3,1l-0.2,0.3c-0.4,0.6-0.8,1.2-1.3,1.6
					c-0.4,0.4-0.9,0.7-1.6,0.9c-1.6,0.7-3.3,0.9-5.2,0.6c-0.5-0.1-0.9-0.2-1.3-0.3c-0.2-0.1-0.4-0.2-0.5-0.2l-0.3-0.2
					c-0.1-0.2-0.1-0.4,0-0.7c0.2-0.3,0.4-0.6,0.6-0.9l0.3-0.4l-0.1,0.3c0,0.2,0,0.5,0,0.7c0.2,0.7,0.7,1.2,1.7,1.3
					c0.9,0.1,1.8,0.1,2.9-0.3c0.6-0.2,1.3-0.5,2-0.9c0.6-0.3,1.1-0.7,1.5-1.1c0.6-0.6,0.9-1.3,1-2.2
					C1024.2,105.2,1023.7,104.2,1022.6,103.3z"/>
				<path class="st62" d="M1022.4,102.5l-0.3,0.1c-0.3,0.1-0.7,0.4-1.1,0.7c-1.4,1.1-3.5,3-6,5.6c-0.3,0.3-0.6,0.6-0.9,1
					c-0.1-0.2,0.6-1.2,2.2-3.1c1.7-2.1,3.4-3.7,5.1-5.1C1021.4,101.8,1021.7,102.1,1022.4,102.5z"/>
				<g>
					<path class="st63" d="M1018.9,107.3c0.4,0.4,0.6,0.9,0.6,1.4c0,0.6-0.2,1-0.6,1.4c-0.4,0.4-0.9,0.6-1.4,0.6
						c-0.6,0-1-0.2-1.4-0.6c-0.4-0.4-0.6-0.9-0.6-1.4c0-0.6,0.2-1,0.6-1.4c0.4-0.4,0.9-0.6,1.4-0.6
						C1018,106.7,1018.5,106.9,1018.9,107.3z"/>
					<path class="st64" d="M1018.7,107.5c0.3,0.3,0.5,0.8,0.5,1.2c0,0.5-0.2,0.9-0.5,1.2c-0.3,0.3-0.8,0.5-1.2,0.5
						c-0.5,0-0.9-0.2-1.2-0.5c-0.3-0.3-0.5-0.8-0.5-1.2c0-0.5,0.2-0.9,0.5-1.2c0.3-0.3,0.8-0.5,1.2-0.5
						C1017.9,107,1018.3,107.1,1018.7,107.5z"/>
					<path class="st65" d="M1018.2,108.7c0,0.2-0.1,0.4-0.2,0.6c-0.2,0.2-0.3,0.2-0.6,0.2s-0.4-0.1-0.6-0.2
						c-0.2-0.1-0.2-0.3-0.2-0.6c0-0.2,0.1-0.4,0.2-0.6c0.2-0.2,0.3-0.2,0.6-0.2s0.4,0.1,0.6,0.2
						C1018.2,108.3,1018.2,108.5,1018.2,108.7z"/>
					
						<linearGradient id="SVGID_7_" gradientUnits="userSpaceOnUse" x1="-15840.2979" y1="1327.1273" x2="-15835.8516" y2="1327.1273" gradientTransform="matrix(0.1448 0.1265 -0.1265 0.1448 3479.5801 1920.8401)">
						<stop  offset="0" style="stop-color:#050B0B"/>
						<stop  offset="1" style="stop-color:#B05A6D"/>
					</linearGradient>
					<path class="st66" d="M1018.4,107.2c0.2,0.2,0.4,0.4,0.6,0.6c0.1,0.3,0.2,0.5,0.2,0.8c0,0.5-0.2,0.9-0.5,1.2
						c-0.3,0.3-0.8,0.5-1.2,0.5c-0.4,0-0.7-0.1-1-0.3c-0.3-0.2-0.5-0.4-0.6-0.8c0.3,0.2,0.6,0.3,1,0.3c0.5,0,0.9-0.2,1.2-0.5
						c0.3-0.3,0.5-0.8,0.5-1.2C1018.5,107.7,1018.5,107.5,1018.4,107.2z"/>
					<path class="st9" d="M1016.7,107.8c0,0,0,0.1,0,0.2c0,0.1-0.1,0.1-0.1,0.2c-0.1,0.1-0.1,0.1-0.2,0.1c-0.1,0-0.1,0-0.2-0.1
						c0-0.1,0-0.1,0-0.2c0-0.1,0.1-0.1,0.1-0.2c0.1,0,0.1-0.1,0.2-0.1S1016.6,107.8,1016.7,107.8z"/>
					<path class="st9" d="M1017,107.6C1017,107.6,1016.9,107.6,1017,107.6c-0.1,0.1-0.2,0.1-0.2,0
						C1016.8,107.5,1016.8,107.5,1017,107.6C1016.9,107.5,1017,107.5,1017,107.6z"/>
				</g>
			</g>
			<g>
				<path class="st9" d="M1006.4,111.3c-2.7-0.1-4.7-0.9-6-2.7c-1.2-1.6-1.1-3.3,0.2-4.8c0.4-0.5,0.9-1,1.5-1.4l0.8-0.5
					c0.5,0.2,1.8,1.4,4,3.8c2.2,2.4,3.3,3.9,3.3,4.5c0,0.3-0.4,0.6-1.2,0.8C1008.3,111.2,1007.4,111.3,1006.4,111.3z"/>
				<path class="st57" d="M1005.9,111.6c-3.1-0.1-5.4-1.1-6.7-3.2c-1.3-2-1.2-3.9,0.3-5.8c0.5-0.6,1.1-1.1,1.8-1.7l0.9-0.6
					c0.6,0.2,2.1,1.7,4.5,4.6c2.5,2.9,3.8,4.7,3.7,5.3c0,0.4-0.5,0.7-1.4,1C1008.1,111.5,1007.1,111.7,1005.9,111.6z"/>
				<path class="st60" d="M1007.1,106c2.5,2.8,3.4,4.4,2.6,4.7c-2.7,1.1-5.2,1.1-7.5-0.1c-1-0.5-1.7-1.1-2.3-1.9
					c-0.6-0.8-0.8-1.5-0.8-2.3c0.1-1.6,0.7-2.8,2-3.7c0.4-0.3,0.9-0.5,1.3-0.7l0.6-0.2C1004.4,103.2,1005.8,104.6,1007.1,106z"/>
				<path class="st9" d="M1006.3,111.3c-2.7-0.1-4.7-1-5.9-2.7c-1.2-1.6-1.1-3.2,0.2-4.8c0.4-0.5,0.9-1,1.5-1.3l0.8-0.5
					c0.5,0.2,1.8,1.4,4,3.8c2.2,2.4,3.3,3.9,3.3,4.5c0,0.3-0.4,0.6-1.2,0.8C1008.3,111.2,1007.4,111.3,1006.3,111.3z"/>
				<path class="st61" d="M1008.1,111.2c-1.9,0.3-3.6,0.1-5.2-0.6c-0.6-0.3-1.1-0.6-1.6-0.9c-0.5-0.4-0.9-0.9-1.3-1.6l-0.2-0.3
					c-0.2-0.3-0.3-0.6-0.3-1c-0.1-0.4,0-0.7,0-1.1c0-0.1,0.1-0.3,0.1-0.5c0.2-0.7,0.6-1.3,1.3-1.9c0.6-0.6,1.2-1,2-1.5
					c0,0,0.1,0.1,0.2,0.2l0.2,0.2l-0.5,0.3c-0.4,0.2-0.8,0.5-1.2,0.8c-1.1,0.9-1.6,1.9-1.5,3.1c0.1,0.9,0.5,1.6,1,2.2
					c0.3,0.4,0.8,0.7,1.5,1.1c1.8,1,3.5,1.4,4.9,1.1c1-0.2,1.6-0.6,1.7-1.3c0.1-0.2,0.1-0.5,0-0.7l-0.1-0.3c0.3,0.4,0.6,0.8,0.8,1.2
					c0.2,0.3,0.2,0.5,0,0.7c-0.1,0.1-0.2,0.2-0.3,0.2l-0.5,0.2C1009,111,1008.6,111.1,1008.1,111.2z"/>
				<path class="st62" d="M1008.1,106.9c1.5,1.8,2.2,2.9,2.2,3.1l-0.3-0.3c-0.2-0.3-0.4-0.5-0.6-0.7c-2.6-2.7-4.6-4.5-6-5.6
					c-0.7-0.5-1.2-0.8-1.4-0.8c0.2-0.1,0.3-0.2,0.5-0.3c0.3-0.2,0.5-0.3,0.5-0.3C1004.7,103.2,1006.4,104.9,1008.1,106.9z"/>
				<g>
					<path class="st63" d="M1001.6,107c0.4-0.4,0.9-0.6,1.4-0.6c0.6,0,1,0.2,1.4,0.6c0.4,0.4,0.6,0.9,0.6,1.4c0,0.6-0.2,1-0.6,1.4
						c-0.4,0.4-0.9,0.6-1.4,0.6c-0.6,0-1-0.2-1.4-0.6c-0.4-0.4-0.6-0.9-0.6-1.4C1001,107.9,1001.2,107.4,1001.6,107z"/>
					<path class="st64" d="M1001.8,107.2c0.3-0.3,0.8-0.5,1.2-0.5c0.5,0,0.9,0.2,1.2,0.5c0.3,0.3,0.5,0.8,0.5,1.2
						c0,0.5-0.2,0.9-0.5,1.2c-0.3,0.3-0.8,0.5-1.2,0.5c-0.5,0-0.9-0.2-1.2-0.5c-0.3-0.3-0.5-0.8-0.5-1.2
						C1001.3,107.9,1001.5,107.5,1001.8,107.2z"/>
					<path class="st65" d="M1002.3,108.4c0-0.2,0.1-0.4,0.2-0.6c0.2-0.2,0.3-0.2,0.6-0.2c0.2,0,0.4,0.1,0.6,0.2
						c0.2,0.2,0.2,0.3,0.2,0.6c0,0.2-0.1,0.4-0.2,0.6c-0.2,0.2-0.3,0.2-0.6,0.2c-0.2,0-0.4-0.1-0.6-0.2
						C1002.4,108.8,1002.3,108.6,1002.3,108.4z"/>
					
						<linearGradient id="SVGID_8_" gradientUnits="userSpaceOnUse" x1="-12948.9111" y1="-9744.1328" x2="-12952.2607" y2="-9747.0576" gradientTransform="matrix(0.1923 0 0 0.1923 3492.9355 1982.8434)">
						<stop  offset="0" style="stop-color:#050B0B"/>
						<stop  offset="1" style="stop-color:#B05A6D"/>
					</linearGradient>
					<path class="st67" d="M1002.1,106.9c-0.1,0.2-0.2,0.5-0.2,0.7c0,0.5,0.2,0.9,0.5,1.2c0.3,0.3,0.8,0.5,1.2,0.5
						c0.4,0,0.7-0.1,1-0.3c-0.1,0.3-0.3,0.6-0.6,0.8c-0.3,0.2-0.6,0.3-1,0.3c-0.5,0-0.9-0.2-1.2-0.5c-0.3-0.3-0.5-0.8-0.5-1.2
						c0-0.3,0.1-0.6,0.2-0.8C1001.7,107.3,1001.9,107.1,1002.1,106.9z"/>
					<path class="st9" d="M1003.8,107.5c0,0,0.1-0.1,0.2-0.1c0.1,0,0.1,0,0.2,0.1c0.1,0.1,0.1,0.1,0.1,0.2c0,0.1,0,0.1,0,0.2
						c0,0-0.1,0.1-0.2,0.1c-0.1,0-0.1,0-0.2-0.1c-0.1,0-0.1-0.1-0.1-0.2C1003.8,107.6,1003.8,107.6,1003.8,107.5z"/>
					<path class="st9" d="M1003.6,107.3C1003.6,107.2,1003.6,107.2,1003.6,107.3c0.1-0.1,0.2-0.1,0.2,0
						C1003.7,107.3,1003.7,107.3,1003.6,107.3C1003.6,107.3,1003.6,107.3,1003.6,107.3z"/>
				</g>
			</g>
			<path class="st68" d="M1006.2,121.4c-1.1-0.3-2.4-0.9-3.8-1.7c0.9,0.4,1.9,0.7,3.1,1.1c2.5,0.7,4.6,1,6.4,1
				c2-0.1,3.9-0.3,5.5-0.7c1.3-0.3,2.7-0.9,4.2-1.6l-0.5,0.4c-0.4,0.3-1,0.7-1.6,1c-2,0.9-4.6,1.4-7.6,1.4
				C1009.8,122.1,1007.9,121.9,1006.2,121.4z"/>
			<g>
				<path class="st69" d="M1017.2,121l-0.2,3.6c-0.2,2.6-0.3,4.3-0.4,5.1c-0.1,1.3-0.5,2.9-1,4.6c-0.2,0.9-0.5,1.6-0.7,2.2
					c-0.2-0.5-0.5-1.1-0.8-1.9c-0.6-1.6-0.9-3.1-1.1-4.5c-0.1-0.8-0.3-2.5-0.6-4.9l-0.3-3.4c0.4,0,0.9,0,1.5,0
					C1014.8,121.6,1016,121.3,1017.2,121z"/>
				<path class="st70" d="M1015.4,121.4c0.5-0.1,0.8-0.1,0.9-0.2l0.9-0.2c-0.1,2.6-0.2,4.5-0.3,5.9c-0.1,0.7-0.2,1.8-0.4,3.3
					c-0.1,1.2-0.5,2.6-0.9,4.3c-0.2,0.8-0.5,1.5-0.7,2c0.3-1.1,0.5-3.9,0.5-8.5L1015.4,121.4z"/>
				<path class="st71" d="M1012.3,124.1l-0.2-2.4c0.3,0,0.7,0,1,0l0.3,3.8c0.2,2.8,0.4,4.8,0.6,6c0.2,1.8,0.6,3.4,1,5.1
					c-0.3-0.5-0.5-1.1-0.8-2c-0.6-1.6-1-3.3-1.2-5C1012.7,127.8,1012.5,126,1012.3,124.1z"/>
			</g>
			<g>
				<path class="st69" d="M1006.8,121c1.1,0.3,2.4,0.5,3.6,0.6l1.6,0.1l-0.4,3.4c-0.3,2.5-0.5,4.1-0.6,4.9c-0.2,1.4-0.6,2.9-1.1,4.5
					c-0.3,0.8-0.5,1.4-0.8,1.9c-0.2-0.6-0.5-1.3-0.7-2.2c-0.5-1.7-0.8-3.3-1-4.6c-0.1-0.8-0.2-2.5-0.4-5.1L1006.8,121z"/>
				<path class="st70" d="M1012,121.7l-0.8,7.4c-0.2,2.1-0.6,4-1.2,5.6c-0.3,0.8-0.6,1.4-0.8,1.8c0.4-3.3,0.8-6.8,1-10.5l0.2-4.5
					L1012,121.7z"/>
				<path class="st71" d="M1007.7,121.3l0.1,3.5c0.1,2.6,0.2,4.6,0.4,6c0.3,2.2,0.6,4.1,0.9,5.8c-0.1-0.4-0.3-0.8-0.5-1.5
					c-0.4-1.3-0.7-2.6-1-4c-0.2-0.9-0.3-2.8-0.6-5.8l-0.3-4.2L1007.7,121.3z"/>
			</g>
			<path class="st63" d="M1015.8,121.3l1.4-0.3l0,0.8c-1.1-0.1-2.3-0.1-3.5,0.2c-0.6,0.1-1.1,0.3-1.5,0.5l-0.1-0.9
				C1013.4,121.6,1014.6,121.5,1015.8,121.3z"/>
			<path class="st63" d="M1011.9,122.6l-1.5-0.5c-1.2-0.3-2.4-0.3-3.5,0l-0.1-1.1c0.3,0.1,0.7,0.2,1.3,0.3c1.2,0.2,2.5,0.3,3.9,0.4
				L1011.9,122.6z"/>
			
				<linearGradient id="SVGID_9_" gradientUnits="userSpaceOnUse" x1="-12591.8721" y1="9758.8467" x2="-12391.7471" y2="9758.8467" gradientTransform="matrix(5.640000e-02 0.1838 -0.1838 5.640000e-02 3501.1052 1874.8962)">
				<stop  offset="0" style="stop-color:#F091CA"/>
				<stop  offset="1" style="stop-color:#ED70BA"/>
			</linearGradient>
			<path class="st72" d="M997.7,81.5l-0.8,5.9c-0.6,4.8-1,9.6-1.2,14.2c-0.9,14.9-0.2,26.1,2.1,33.5c1.4,4.4,2.6,7.3,3.8,8.7
				c0.7,0.8,1.5,1.4,2.4,1.7c0.9,0.3,2,0.5,3.3,0.5l-0.9,1.1c-0.8,0.7-1.6,1.1-2.4,1.1c-1.2,0-2.3-0.7-3.4-2
				c-0.8-0.9-1.3-1.6-1.7-2.1c-0.8-1.2-1.6-2.7-2.2-4.4c-1.9-4.9-3-11.6-3.4-20.1c-0.4-8.7,0.2-17.6,1.9-26.9
				c0.5-2.9,1.1-5.7,1.7-8.3L997.7,81.5z"/>
			<path class="st57" d="M1003.8,148.3c-0.6,0-1.4-0.4-2.3-1.1c-0.4-0.4-0.8-0.8-1.2-1.1c2,1,3.8,0.4,5.3-1.8
				c0.5-0.7,0.9-1.5,1.3-2.4l0.4-1.2c0.3,0.1,0.7,0.1,1,0.2c0.7,0.1,1,0.2,1,0.2c-0.8,3-1.8,5.1-2.9,6.2
				C1005.7,148,1004.8,148.3,1003.8,148.3z"/>
			
				<linearGradient id="SVGID_10_" gradientUnits="userSpaceOnUse" x1="-12349.1582" y1="9768.9932" x2="-12300.457" y2="9768.9932" gradientTransform="matrix(5.530000e-02 0.1842 -0.1842 5.530000e-02 3501.053 1875.0341)">
				<stop  offset="0" style="stop-color:#F091CA"/>
				<stop  offset="1" style="stop-color:#C4538F"/>
			</linearGradient>
			<path class="st73" d="M1020.1,148.3c-1.7-0.2-3.1-1.5-4.4-3.8c-0.6-1.2-1.1-2.3-1.4-3.5c0.6-0.1,1.1-0.3,1.5-0.4l0.3,0.9
				c0.2,0.7,0.5,1.3,0.8,1.9c0.9,1.9,1.9,3,3,3.3c0.9,0.2,2,0.1,3.2-0.5c0.4-0.2,0.8-0.4,1.1-0.7l0.4-0.3l-0.3,0.5
				c-0.3,0.4-0.6,0.8-1,1.1C1022.2,147.9,1021.1,148.4,1020.1,148.3z"/>
		</g>
	</g>
</g>
</svg>
