<?xml version="1.0" encoding="utf-8"?>
<!-- Generator: Adobe Illustrator 19.0.0, SVG Export Plug-In . SVG Version: 6.00 Build 0)  -->
<svg version="1.1" id="图层_1" xmlns="http://www.w3.org/2000/svg" xmlns:xlink="http://www.w3.org/1999/xlink" x="0px" y="0px"
	 viewBox="0 0 1024 100" style="enable-background:new 0 0 1024 100;" xml:space="preserve">
<style type="text/css">
	.st0{fill:#081842;}
	.st1{fill-rule:evenodd;clip-rule:evenodd;fill:url(#XMLID_19_);}
	.st2{fill-rule:evenodd;clip-rule:evenodd;fill:url(#XMLID_20_);}
	.st3{fill-rule:evenodd;clip-rule:evenodd;fill:#183262;}
	.st4{fill-rule:evenodd;clip-rule:evenodd;fill:#152E5B;}
	.st5{fill-rule:evenodd;clip-rule:evenodd;fill:#11264E;}
	.st6{fill-rule:evenodd;clip-rule:evenodd;fill:#0F2142;}
	.st7{fill-rule:evenodd;clip-rule:evenodd;fill:#0B1B33;}
	.st8{fill-rule:evenodd;clip-rule:evenodd;fill:#FFFFFF;}
	.st9{fill-rule:evenodd;clip-rule:evenodd;fill:#0D1E41;}
	.st10{fill-rule:evenodd;clip-rule:evenodd;fill:#726841;}
	.st11{fill-rule:evenodd;clip-rule:evenodd;fill:#8EBB42;}
	.st12{fill-rule:evenodd;clip-rule:evenodd;fill:#E17638;}
	.st13{fill-rule:evenodd;clip-rule:evenodd;fill:#EB9D3F;}
	.st14{fill-rule:evenodd;clip-rule:evenodd;fill:#5FAADB;}
	.st15{fill-rule:evenodd;clip-rule:evenodd;fill:#459A57;}
	.st16{fill-rule:evenodd;clip-rule:evenodd;fill:#7D848B;}
	.st17{fill-rule:evenodd;clip-rule:evenodd;fill:#802A7C;}
	.st18{fill-rule:evenodd;clip-rule:evenodd;fill:#DA423E;}
	.st19{fill-rule:evenodd;clip-rule:evenodd;fill:#10255A;}
	.st20{fill-rule:evenodd;clip-rule:evenodd;fill:#2A1D6D;}
	.st21{fill-rule:evenodd;clip-rule:evenodd;fill:#9C50D6;}
	.st22{fill-rule:evenodd;clip-rule:evenodd;fill:#FFFDF7;}
	.st23{fill-rule:evenodd;clip-rule:evenodd;fill:#D7D2C3;}
	.st24{fill-rule:evenodd;clip-rule:evenodd;fill:#5BAA61;}
	.st25{fill-rule:evenodd;clip-rule:evenodd;fill:#76D77D;}
	.st26{fill-rule:evenodd;clip-rule:evenodd;fill:#807D73;}
	.st27{fill-rule:evenodd;clip-rule:evenodd;fill:#B8B8B8;}
	.st28{fill-rule:evenodd;clip-rule:evenodd;fill:#E9E7DF;}
	.st29{fill-rule:evenodd;clip-rule:evenodd;fill:#E9A285;}
	.st30{fill-rule:evenodd;clip-rule:evenodd;fill:#ECBDA9;}
	.st31{fill-rule:evenodd;clip-rule:evenodd;fill:#F0F0F0;}
	.st32{fill-rule:evenodd;clip-rule:evenodd;fill:#208CBB;}
	.st33{fill-rule:evenodd;clip-rule:evenodd;fill:#AE9F84;}
	.st34{fill-rule:evenodd;clip-rule:evenodd;fill:#CDC1A9;}
	.st35{fill-rule:evenodd;clip-rule:evenodd;fill:#F5B89D;}
	.st36{fill-rule:evenodd;clip-rule:evenodd;fill:#EC9F7F;}
	.st37{fill-rule:evenodd;clip-rule:evenodd;fill:#1E7CA6;}
	.st38{fill-rule:evenodd;clip-rule:evenodd;fill:#D4D4D4;}
	.st39{fill-rule:evenodd;clip-rule:evenodd;fill:#E08D6B;}
	.st40{fill-rule:evenodd;clip-rule:evenodd;fill:#E94442;}
	.st41{fill-rule:evenodd;clip-rule:evenodd;fill:#E2ECE4;}
	.st42{fill-rule:evenodd;clip-rule:evenodd;fill:#8CBD25;}
	.st43{fill-rule:evenodd;clip-rule:evenodd;fill:#D23C3D;}
	.st44{fill-rule:evenodd;clip-rule:evenodd;fill:#7EAB1D;}
	.st45{fill-rule:evenodd;clip-rule:evenodd;fill:#E0D29E;}
	.st46{fill-rule:evenodd;clip-rule:evenodd;fill:#6A624F;}
	.st47{fill-rule:evenodd;clip-rule:evenodd;fill:#2D2A23;}
	.st48{fill-rule:evenodd;clip-rule:evenodd;fill:#FDC6AE;}
	.st49{fill-rule:evenodd;clip-rule:evenodd;fill:#FDAC8A;}
	.st50{fill-rule:evenodd;clip-rule:evenodd;fill:#E9A182;}
	.st51{fill-rule:evenodd;clip-rule:evenodd;fill:#37A6D7;}
	.st52{fill-rule:evenodd;clip-rule:evenodd;fill:#F5F5F5;}
	.st53{fill-rule:evenodd;clip-rule:evenodd;fill:#8DD2F0;}
	.st54{fill-rule:evenodd;clip-rule:evenodd;fill:#E7D9BF;}
	.st55{fill-rule:evenodd;clip-rule:evenodd;fill:#C2B295;}
	.st56{fill-rule:evenodd;clip-rule:evenodd;fill:#E7E7E7;}
	.st57{fill-rule:evenodd;clip-rule:evenodd;fill:#C46666;}
	.st58{fill-rule:evenodd;clip-rule:evenodd;fill:#854848;}
	.st59{fill-rule:evenodd;clip-rule:evenodd;fill:#D97373;}
	.st60{fill-rule:evenodd;clip-rule:evenodd;fill:#B85858;}
	.st61{fill-rule:evenodd;clip-rule:evenodd;fill:#C67B67;}
	.st62{fill-rule:evenodd;clip-rule:evenodd;fill:#E9DFDF;}
	.st63{fill-rule:evenodd;clip-rule:evenodd;fill:#662E2E;}
	.st64{fill-rule:evenodd;clip-rule:evenodd;fill:#4797D7;}
	.st65{fill-rule:evenodd;clip-rule:evenodd;fill:#84C4F5;}
	.st66{fill-rule:evenodd;clip-rule:evenodd;fill:#156C9C;}
	
		.st67{fill-rule:evenodd;clip-rule:evenodd;fill:none;stroke:#000000;stroke-linecap:round;stroke-linejoin:round;stroke-miterlimit:3;stroke-opacity:0.302;}
	.st68{fill-rule:evenodd;clip-rule:evenodd;fill:#DB9679;}
	.st69{fill-rule:evenodd;clip-rule:evenodd;fill:#1C938A;}
	.st70{fill-rule:evenodd;clip-rule:evenodd;fill:#875A64;}
	.st71{fill-rule:evenodd;clip-rule:evenodd;fill:#231054;}
	.st72{fill-rule:evenodd;clip-rule:evenodd;fill:#B66F5D;}
	.st73{fill-rule:evenodd;clip-rule:evenodd;fill:#1E9F96;}
	.st74{fill-rule:evenodd;clip-rule:evenodd;fill:#1F1931;}
	.st75{fill-rule:evenodd;clip-rule:evenodd;fill:#4F365F;}
	.st76{fill-rule:evenodd;clip-rule:evenodd;fill:#07988D;}
	.st77{fill-rule:evenodd;clip-rule:evenodd;fill:#09B5A8;}
	.st78{fill-rule:evenodd;clip-rule:evenodd;fill:#4BCDC4;}
	.st79{fill-rule:evenodd;clip-rule:evenodd;fill:#EC496E;}
	.st80{fill-rule:evenodd;clip-rule:evenodd;fill:#10877E;}
</style>
<rect id="XMLID_1_" x="-0.3" y="0" class="st0" width="1024" height="100"/>
<g id="XMLID_2_">
	
		<linearGradient id="XMLID_19_" gradientUnits="userSpaceOnUse" x1="-387.9411" y1="437.8998" x2="-369.2232" y2="437.8998" gradientTransform="matrix(1.000000e-04 -1 1 -1.000000e-03 335.3572 -333.3344)">
		<stop  offset="0" style="stop-color:#183262"/>
		<stop  offset="4.705880e-02" style="stop-color:#323C56"/>
		<stop  offset="0.1059" style="stop-color:#4E464A"/>
		<stop  offset="0.1725" style="stop-color:#675041"/>
		<stop  offset="0.2471" style="stop-color:#7B573A"/>
		<stop  offset="0.3333" style="stop-color:#8B5D36"/>
		<stop  offset="0.4392" style="stop-color:#966233"/>
		<stop  offset="0.5922" style="stop-color:#9C6432"/>
		<stop  offset="1" style="stop-color:#9E6532"/>
	</linearGradient>
	<path id="XMLID_360_" class="st1" d="M784.7,44.8c2.4,3.1,4.6,6.2,6.5,9.4l-35.9-0.5c0.2-0.2,1.4-1.7,3.5-4.7
		c2.5-3.4,4.7-6.1,6.7-8.1c3.5-3.6,6.2-5.5,8.1-5.5C776.1,35.5,779.8,38.6,784.7,44.8z"/>
	
		<linearGradient id="XMLID_20_" gradientUnits="userSpaceOnUse" x1="-387.5721" y1="411.8309" x2="-360.8975" y2="411.8309" gradientTransform="matrix(0 -1 1 -1.000000e-03 334.7121 -333.3344)">
		<stop  offset="0" style="stop-color:#183262"/>
		<stop  offset="3.921570e-03" style="stop-color:#193262"/>
		<stop  offset="5.490200e-02" style="stop-color:#384053"/>
		<stop  offset="0.1137" style="stop-color:#544C48"/>
		<stop  offset="0.1804" style="stop-color:#6D573F"/>
		<stop  offset="0.251" style="stop-color:#826039"/>
		<stop  offset="0.3373" style="stop-color:#916735"/>
		<stop  offset="0.4471" style="stop-color:#9C6C33"/>
		<stop  offset="0.5922" style="stop-color:#A36E32"/>
		<stop  offset="1" style="stop-color:#A46F32"/>
	</linearGradient>
	<path id="XMLID_359_" class="st2" d="M735.4,34.9c4.9-5.2,8.7-7.7,11.5-7.7c3.7,0,9,4.4,16,13.3c3.5,4.4,6.6,8.9,9.3,13.3
		l-51.2-0.6c0.3-0.3,1.9-2.5,4.9-6.7C729.4,41.7,732.5,37.9,735.4,34.9z"/>
	<path id="XMLID_358_" class="st3" d="M1023.7,89.1l-258.3,7L-0.3,89.4V50.8l104.1,1.5c84.2,1.1,162.9,2,236.2,2.6
		c235,1.9,372.6,1,413-2.8c26.5-2.5,79.6-3,159.2-1.5c39.8,0.7,77,1.7,111.5,2.9V89.1z"/>
	<path id="XMLID_357_" class="st4" d="M859.8,58.2c0,1.2-1.4,2.3-4.1,3.2c-2.8,0.9-6.1,1.3-10,1.3c-3.9,0-7.2-0.4-10-1.3
		c-2.7-0.9-4.1-2-4.1-3.2c0-1.3,1.4-2.3,4.1-3.2c2.8-0.9,6.1-1.4,10-1.4c3.9,0,7.2,0.5,10,1.4C858.5,55.8,859.8,56.9,859.8,58.2z"/>
	<path id="XMLID_356_" class="st5" d="M211.4,70.4c9.1,1.3,13.6,3,13.6,4.9c0,1.9-4.5,3.5-13.6,4.9c-9.1,1.3-20.1,2-32.9,2
		c-12.8,0-23.8-0.7-32.9-2c-9.1-1.4-13.6-3-13.6-4.9c0-1.9,4.5-3.6,13.6-4.9c9.1-1.4,20-2.1,32.9-2.1S202.4,69,211.4,70.4z"/>
	<path id="XMLID_355_" class="st6" d="M1023.7,100H-0.3V85.1l40.9-2.7c34.2-2,68.6-3.5,103.3-4.6c110.9-3.4,203.4-1.5,277.5,5.7
		c107.8,10.5,236.5,13.1,386.2,7.9c53.5-1.8,102.6-4.5,147.5-7.9c39.1-3,62-5.5,68.7-7.4V100z"/>
	<path id="XMLID_354_" class="st7" d="M298.8,91.6c1.3,0.4,1.9,1,1.9,1.6c0,0.6-0.6,1.2-1.9,1.6c-1.3,0.4-2.8,0.7-4.6,0.7
		c-1.8,0-3.3-0.2-4.6-0.7s-1.9-1-1.9-1.6c0-0.6,0.6-1.2,1.9-1.6c1.3-0.4,2.8-0.6,4.6-0.6C296,90.9,297.6,91.1,298.8,91.6z"/>
	<path id="XMLID_353_" class="st8" d="M957.3,41.8c0,1.3-0.6,2.4-1.8,3.3c-1.2,0.9-2.6,1.4-4.3,1.4c-1.7,0-3.1-0.5-4.3-1.4
		c-1.2-0.9-1.8-2-1.8-3.3s0.6-2.4,1.8-3.3c1.2-0.9,2.6-1.4,4.3-1.4c1.7,0,3.1,0.5,4.3,1.4C956.7,39.4,957.3,40.5,957.3,41.8z"/>
	<path id="XMLID_352_" class="st8" d="M961.3,37.7c0,1.3-0.6,2.4-1.8,3.3c-1.2,0.9-2.6,1.4-4.3,1.4c-1.7,0-3.1-0.5-4.2-1.4
		c-1.2-0.9-1.8-2-1.8-3.3s0.6-2.4,1.8-3.3c1.2-0.9,2.6-1.4,4.2-1.4c1.7,0,3.1,0.5,4.3,1.4C960.7,35.3,961.3,36.4,961.3,37.7z"/>
	<path id="XMLID_351_" class="st8" d="M962.3,43.8c0,1.3-0.6,2.4-1.8,3.3c-1.2,0.9-2.6,1.4-4.3,1.4s-3.1-0.5-4.3-1.4
		c-1.2-0.9-1.8-2-1.8-3.3s0.6-2.4,1.8-3.3c1.2-0.9,2.6-1.4,4.3-1.4s3.1,0.5,4.3,1.4C961.7,41.4,962.3,42.5,962.3,43.8z"/>
	<path id="XMLID_350_" class="st8" d="M971.1,43.5c0,1.3-0.6,2.4-1.8,3.3c-1.2,0.9-2.6,1.4-4.3,1.4s-3.1-0.5-4.3-1.4
		c-1.2-0.9-1.8-2-1.8-3.3c0-1.3,0.6-2.5,1.8-3.4c1.2-0.9,2.6-1.4,4.3-1.4s3.1,0.5,4.3,1.4C970.5,41,971.1,42.1,971.1,43.5z"/>
	<path id="XMLID_349_" class="st8" d="M925.7,52.8c0,1-0.4,1.8-1.3,2.5c-0.9,0.7-1.9,1-3.2,1c-1.2,0-2.3-0.3-3.2-1
		c-0.9-0.7-1.3-1.5-1.3-2.5s0.4-1.8,1.3-2.5c0.9-0.7,2-1,3.2-1c1.2,0,2.3,0.4,3.2,1C925.3,51,925.7,51.8,925.7,52.8z"/>
	<path id="XMLID_348_" class="st8" d="M928.7,49.8c0,1-0.4,1.8-1.3,2.5c-0.9,0.7-1.9,1-3.2,1c-1.2,0-2.3-0.3-3.2-1
		c-0.9-0.7-1.3-1.5-1.3-2.5s0.4-1.8,1.3-2.5c0.9-0.7,2-1,3.2-1c1.2,0,2.3,0.4,3.2,1C928.3,48,928.7,48.8,928.7,49.8z"/>
	<path id="XMLID_347_" class="st8" d="M929.5,54.3c0,1-0.4,1.8-1.3,2.5c-0.9,0.7-1.9,1-3.2,1c-1.2,0-2.3-0.3-3.2-1
		c-0.9-0.7-1.3-1.5-1.3-2.5s0.4-1.8,1.3-2.5c0.9-0.7,2-1,3.2-1c1.2,0,2.3,0.4,3.2,1C929,52.5,929.5,53.3,929.5,54.3z"/>
	<path id="XMLID_346_" class="st8" d="M933.5,51.6c0,1-0.4,1.8-1.3,2.5c-0.9,0.7-1.9,1-3.2,1c-1.2,0-2.3-0.3-3.2-1
		c-0.9-0.7-1.3-1.5-1.3-2.5s0.4-1.8,1.3-2.5c0.9-0.7,2-1,3.2-1c1.2,0,2.3,0.4,3.2,1C933,49.8,933.5,50.6,933.5,51.6z"/>
	<path id="XMLID_345_" class="st8" d="M936,54.1c0,1-0.4,1.8-1.3,2.5c-0.9,0.7-1.9,1-3.2,1c-1.2,0-2.3-0.3-3.2-1
		c-0.9-0.7-1.3-1.5-1.3-2.5s0.4-1.8,1.3-2.5c0.9-0.7,2-1,3.2-1c1.2,0,2.3,0.4,3.2,1C935.5,52.3,936,53.1,936,54.1z"/>
	<path id="XMLID_344_" class="st7" d="M419.1,89.8c1.1-0.3,2.4-0.5,3.9-0.5s2.8,0.2,3.9,0.5c1.1,0.4,1.6,0.8,1.6,1.2
		c0,0.5-0.5,0.9-1.6,1.2c-1.1,0.3-2.4,0.5-3.9,0.5s-2.8-0.2-3.9-0.5c-1.1-0.3-1.6-0.8-1.6-1.2C417.5,90.6,418.1,90.2,419.1,89.8z"/>
	<path id="XMLID_343_" class="st9" d="M629.4,70.6c0,0.9-1,1.7-3.1,2.4c-2,0.7-4.5,1-7.4,1c-2.9,0-5.4-0.3-7.5-1
		c-2.1-0.7-3.1-1.5-3.1-2.4c0-0.9,1-1.7,3.1-2.4c2.1-0.7,4.6-1,7.5-1c2.9,0,5.4,0.3,7.4,1C628.4,68.9,629.4,69.7,629.4,70.6z"/>
	<path id="XMLID_342_" class="st5" d="M333.5,60.7c0,0.9-1,1.7-3,2.4c-2.1,0.7-4.6,1-7.5,1s-5.4-0.3-7.4-1c-2.1-0.7-3.1-1.5-3.1-2.4
		c0-0.9,1-1.7,3.1-2.4c2-0.7,4.5-1,7.4-1c2.9,0,5.4,0.3,7.5,1C332.5,59,333.5,59.8,333.5,60.7z"/>
	<path id="XMLID_341_" class="st9" d="M573.2,71.7c4.7,0.7,7.1,1.5,7.1,2.4c0,0.9-2.4,1.7-7.1,2.4c-4.8,0.7-10.5,1-17.2,1
		c-6.7,0-12.4-0.3-17.2-1c-4.7-0.7-7.1-1.5-7.1-2.4c0-0.9,2.4-1.7,7.1-2.4c4.7-0.7,10.5-1,17.2-1C562.7,70.7,568.4,71,573.2,71.7z"
		/>
	<path id="XMLID_340_" class="st9" d="M526.9,71.9c4.7,0.7,7.1,1.5,7.1,2.4s-2.4,1.7-7.1,2.4c-4.8,0.7-10.5,1-17.2,1
		c-6.7,0-12.4-0.3-17.2-1c-4.7-0.7-7.1-1.5-7.1-2.4s2.4-1.7,7.1-2.4c4.7-0.7,10.5-1,17.2-1C516.5,70.9,522.2,71.2,526.9,71.9z"/>
	<path id="XMLID_339_" class="st9" d="M464.3,70.7c6.8,0,12.6,0.3,17.3,1c4.8,0.7,7.2,1.5,7.2,2.4c0,0.9-2.4,1.7-7.2,2.4
		c-4.8,0.7-10.6,1-17.3,1c-6.8,0-12.6-0.3-17.3-1c-4.8-0.6-7.2-1.4-7.2-2.4c0-0.9,2.4-1.7,7.2-2.4C451.7,71,457.5,70.7,464.3,70.7z"
		/>
	<path id="XMLID_338_" class="st7" d="M408.1,88.3c0,0.3-0.2,0.6-0.6,0.8c-0.3,0.2-0.8,0.4-1.3,0.4s-1-0.1-1.3-0.4
		c-0.4-0.2-0.5-0.5-0.5-0.8s0.2-0.6,0.5-0.8c0.3-0.2,0.8-0.4,1.3-0.4s1,0.1,1.3,0.4C407.9,87.6,408.1,87.9,408.1,88.3z"/>
	<path id="XMLID_337_" class="st7" d="M378,91.8c1.5,0,2.8,0.2,3.9,0.5c1.1,0.4,1.6,0.8,1.6,1.2c0,0.5-0.5,0.9-1.6,1.2
		c-1.1,0.3-2.4,0.5-3.9,0.5s-2.8-0.2-3.9-0.5c-1.1-0.3-1.6-0.8-1.6-1.2c0-0.5,0.5-0.9,1.6-1.2C375.2,92,376.5,91.8,378,91.8z"/>
	<path id="XMLID_336_" class="st7" d="M361.5,91.3c0,0.3-0.2,0.6-0.5,0.8c-0.4,0.2-0.8,0.4-1.4,0.4c-0.5,0-0.9-0.1-1.3-0.4
		c-0.4-0.2-0.6-0.5-0.6-0.8s0.2-0.6,0.6-0.8s0.8-0.4,1.3-0.4c0.5,0,1,0.1,1.4,0.4S361.5,90.9,361.5,91.3z"/>
	<g id="XMLID_327_">
		<path id="XMLID_335_" class="st9" d="M904.6,66.4c3.8,1.1,5.6,2.5,5.6,4.2c0,1.7-1.9,3.1-5.6,4.2c-3.8,1.2-8.4,1.8-13.8,1.8
			c-5.4,0-9.9-0.6-13.7-1.8c-3.8-1.2-5.7-2.6-5.7-4.2s1.9-3,5.7-4.2c3.8-1.2,8.4-1.8,13.7-1.8C896.2,64.6,900.8,65.2,904.6,66.4z"/>
		<g id="XMLID_328_">
			<g id="XMLID_332_">
				<path id="XMLID_334_" class="st10" d="M885.7,59v8c0,0.5-0.2,0.9-0.5,1.3c-0.4,0.4-0.8,0.5-1.3,0.5c-0.5,0-1-0.2-1.3-0.5
					c-0.4-0.4-0.5-0.8-0.5-1.3v-8c0-0.5,0.2-0.9,0.5-1.3c0.3-0.4,0.8-0.5,1.3-0.5c0.5,0,0.9,0.2,1.3,0.5
					C885.5,58.1,885.7,58.5,885.7,59z"/>
				<path id="XMLID_333_" class="st11" d="M892,53.7c0,2.3-0.8,4-2.3,5.2c-1.4,1.1-3.3,1.6-5.6,1.6s-4.2-0.5-5.6-1.6
					c-1.6-1.2-2.3-2.9-2.3-5.2c0-2.8,0.8-5.8,2.3-8.9c1.7-3.5,3.6-5.2,5.6-5.2s3.9,1.7,5.6,5.2C891.2,47.9,892,50.9,892,53.7z"/>
			</g>
			<g id="XMLID_329_">
				<path id="XMLID_331_" class="st10" d="M894.5,65.4c0.2-0.2,0.4-0.3,0.8-0.3c0.3,0,0.5,0.1,0.7,0.3c0.2,0.2,0.3,0.5,0.3,0.8v4.4
					c0,0.3-0.1,0.5-0.3,0.8c-0.2,0.2-0.4,0.3-0.7,0.3c-0.3,0-0.6-0.1-0.8-0.3c-0.2-0.2-0.3-0.5-0.3-0.8v-4.4
					C894.2,65.9,894.3,65.6,894.5,65.4z"/>
				<path id="XMLID_330_" class="st11" d="M899.7,63.2c0,1.3-0.4,2.2-1.3,2.9c-0.8,0.6-1.8,0.9-3.1,0.9c-2.9,0-4.4-1.2-4.4-3.8
					c0-1.5,0.4-3.2,1.3-5c0.9-1.9,2-2.9,3.1-2.9s2.2,1,3.1,2.9C899.3,60,899.7,61.7,899.7,63.2z"/>
			</g>
		</g>
	</g>
	<path id="XMLID_326_" class="st9" d="M115.5,67.8c0,0.6-0.7,1.1-2.1,1.5c-1.4,0.4-3.1,0.7-5,0.7c-1.9,0-3.6-0.2-5-0.7
		c-1.4-0.4-2.1-0.9-2.1-1.5c0-0.6,0.7-1.1,2.1-1.5c1.4-0.4,3-0.6,5-0.6c2,0,3.6,0.2,5,0.6C114.8,66.7,115.5,67.2,115.5,67.8z"/>
	<path id="XMLID_325_" class="st10" d="M110.3,58.9v8c0,0.5-0.2,0.9-0.5,1.3c-0.4,0.3-0.8,0.5-1.3,0.5s-0.9-0.2-1.3-0.5
		c-0.4-0.4-0.5-0.8-0.5-1.3v-8c0-0.5,0.2-0.9,0.5-1.2c0.4-0.4,0.8-0.6,1.3-0.6s0.9,0.2,1.3,0.6C110.1,58,110.3,58.4,110.3,58.9z"/>
	<path id="XMLID_324_" class="st11" d="M116.6,53.6c0,2.3-0.8,4-2.4,5.2c-1.4,1.1-3.3,1.6-5.6,1.6s-4.2-0.5-5.6-1.6
		c-1.6-1.2-2.4-2.9-2.4-5.2c0-2.8,0.8-5.7,2.4-8.8c1.7-3.5,3.6-5.2,5.6-5.2c2,0,3.9,1.8,5.6,5.2C115.8,47.9,116.6,50.8,116.6,53.6z"
		/>
	<g id="XMLID_316_">
		<path id="XMLID_323_" class="st12" d="M513.3,52.8c0.3,0.2,0.4,0.4,0.2,0.7l-2.3,6.5c0,0.1-0.1,0.2-0.2,0.2
			c-0.2,0.1-0.3,0-0.5-0.1l-5-3.5c-0.2-0.1-0.3-0.3-0.2-0.6l2-5.5c0.1-0.4,0.3-0.5,0.6-0.4L513.3,52.8z"/>
		<path id="XMLID_322_" class="st13" d="M513.4,23.1c0.1-0.3,0.3-0.4,0.6-0.3l11.9,2.8c0.3,0.1,0.4,0.2,0.3,0.5l-2.4,6.5l-3.8-1.8
			c-0.3-0.1-0.5,0-0.5,0.2l-1.6,4.5l-6.4-2.2l2-5.5c0.1-0.3,0-0.4-0.3-0.5L512,27L513.4,23.1z"/>
		<path id="XMLID_321_" class="st14" d="M521.8,36.9c0.3,0.1,0.5,0.1,0.6-0.2l1.4-4l5.4,2.5c0.3,0.1,0.4,0.4,0.2,0.7l-3.5,9.7
			c-0.1,0.3-0.3,0.4-0.5,0.3l-4.2-1l0.8-2.1c0.1-0.2,0-0.4-0.2-0.6l-5.5-2l1.7-4.5L521.8,36.9z"/>
		<path id="XMLID_320_" class="st15" d="M523.8,32.6l-1.4,4c-0.1,0.3-0.2,0.4-0.6,0.2l-3.9-1.3l1.6-4.5c0.1-0.3,0.2-0.4,0.5-0.2
			L523.8,32.6z"/>
		<path id="XMLID_319_" class="st16" d="M515.3,42.9c-0.1,0.3,0,0.5,0.3,0.6l5.7,1.3l-2,5.7c-0.1,0.3-0.2,0.4-0.5,0.3l-8.6-1.2
			c-0.1,0-0.2,0-0.2-0.1c-0.1-0.1-0.1-0.2-0.1-0.4l3.4-9.5c0.1-0.3,0.3-0.3,0.6-0.2l2.3,0.8v0.1L515.3,42.9z"/>
		<path id="XMLID_318_" class="st17" d="M521.7,42.1c0.3,0.1,0.4,0.3,0.2,0.6l-0.8,2.1l-5.7-1.3c-0.2-0.1-0.3-0.2-0.2-0.6l1-2.7
			l0.3,0.1L521.7,42.1z"/>
		<path id="XMLID_317_" class="st18" d="M513.1,27.4c0.3,0.1,0.4,0.2,0.3,0.5l-3.7,10.6c-0.1,0.3-0.2,0.3-0.6,0.1l-6.6-3.3
			c-0.3-0.2-0.3-0.4-0.2-0.6l3.2-9.1c0-0.1,0.1-0.2,0.2-0.3c0.1,0,0.2,0,0.4,0L513.1,27.4z"/>
	</g>
	<path id="XMLID_315_" class="st19" d="M427.7,26.9l-0.4,1.3l-1.6,4.5c-0.1,0.1-0.2,0.2-0.3,0.1l-3.7-1.8c-0.2-0.1-0.2-0.2-0.1-0.4
		l1.8-5c0.1-0.2,0.2-0.2,0.3-0.1l3.9,1.1C427.7,26.7,427.7,26.8,427.7,26.9z"/>
	<path id="XMLID_314_" class="st20" d="M644.1,36.4c0,0.1-0.1,0.2-0.2,0.2c-0.2,0.1-0.3,0-0.5-0.1l-5.1-3.5
		c-0.2-0.1-0.3-0.3-0.2-0.5l2-5.5c0.1-0.4,0.3-0.5,0.6-0.4l5.4,2.7c0.3,0.2,0.4,0.4,0.2,0.7L644.1,36.4z"/>
	<path id="XMLID_313_" class="st8" d="M218,31.2c0.9,0.7,1.3,1.5,1.3,2.5c0,1-0.4,1.8-1.3,2.4c-0.9,0.7-2,1.1-3.2,1.1
		c-1.2,0-2.3-0.4-3.2-1.1c-0.9-0.7-1.3-1.5-1.3-2.4c0-1,0.4-1.8,1.3-2.5c0.9-0.7,2-1,3.2-1C216.1,30.2,217.2,30.5,218,31.2z"/>
	<path id="XMLID_312_" class="st8" d="M222.3,30.7c0,1-0.4,1.8-1.3,2.4c-0.9,0.7-2,1.1-3.2,1.1c-1.2,0-2.3-0.4-3.2-1.1
		c-0.9-0.7-1.3-1.5-1.3-2.4c0-1,0.4-1.8,1.3-2.5c0.9-0.7,2-1,3.2-1c1.3,0,2.3,0.3,3.2,1C221.9,28.9,222.3,29.7,222.3,30.7z"/>
	<path id="XMLID_311_" class="st8" d="M223.1,35.2c0,1-0.4,1.8-1.3,2.4c-0.9,0.7-2,1.1-3.2,1.1c-1.2,0-2.3-0.4-3.2-1.1
		c-0.9-0.7-1.3-1.5-1.3-2.4c0-1,0.4-1.8,1.3-2.5c0.9-0.7,2-1,3.2-1c1.3,0,2.3,0.3,3.2,1C222.6,33.4,223.1,34.2,223.1,35.2z"/>
	<path id="XMLID_310_" class="st8" d="M227.1,32.4c0,1-0.4,1.8-1.3,2.4c-0.9,0.7-2,1.1-3.2,1.1c-1.2,0-2.3-0.4-3.2-1.1
		c-0.9-0.7-1.3-1.5-1.3-2.4c0-1,0.4-1.8,1.3-2.5c0.9-0.7,2-1,3.2-1c1.3,0,2.3,0.3,3.2,1C226.6,30.6,227.1,31.4,227.1,32.4z"/>
	<path id="XMLID_309_" class="st8" d="M229.6,34.9c0,1-0.4,1.8-1.3,2.4c-0.9,0.7-2,1.1-3.2,1.1c-1.2,0-2.3-0.4-3.2-1.1
		c-0.9-0.7-1.3-1.5-1.3-2.4c0-1,0.4-1.8,1.3-2.5c0.9-0.7,2-1,3.2-1c1.3,0,2.3,0.3,3.2,1C229.1,33.1,229.6,33.9,229.6,34.9z"/>
	<path id="XMLID_308_" class="st5" d="M728.9,92.1c0,1.1-0.8,2-2.3,2.8c-1.6,0.7-3.4,1.1-5.7,1.1c-2.2,0-4-0.4-5.6-1.1
		c-1.5-0.8-2.3-1.7-2.3-2.8c0-1.1,0.8-2,2.3-2.8c1.6-0.8,3.4-1.1,5.6-1.1c2.2,0,4.1,0.4,5.7,1.1C728.1,90.1,728.9,91,728.9,92.1z"/>
	<g id="XMLID_304_">
		<path id="XMLID_307_" class="st6" d="M42.6,59.9c0,0.3-0.3,0.5-0.9,0.7c-0.6,0.2-1.4,0.3-2.2,0.3c-0.8,0-1.6-0.1-2.1-0.3
			c-0.6-0.2-0.9-0.4-0.9-0.7c0-0.3,0.3-0.5,0.9-0.7c0.6-0.2,1.3-0.2,2.1-0.2s1.6,0.1,2.2,0.2C42.3,59.4,42.6,59.6,42.6,59.9z"/>
		<path id="XMLID_306_" class="st10" d="M38.9,53.9c0.2-0.2,0.5-0.3,0.8-0.3c0.3,0,0.5,0.1,0.7,0.3c0.2,0.2,0.3,0.5,0.3,0.8v4.4
			c0,0.3-0.1,0.5-0.3,0.8s-0.4,0.3-0.7,0.3c-0.3,0-0.5-0.1-0.8-0.3c-0.2-0.2-0.3-0.5-0.3-0.8v-4.4C38.6,54.4,38.7,54.1,38.9,53.9z"
			/>
		<path id="XMLID_305_" class="st11" d="M44.2,51.7c0,1.3-0.4,2.2-1.3,2.9c-0.8,0.6-1.8,0.9-3.1,0.9c-2.9,0-4.4-1.2-4.4-3.8
			c0-1.6,0.4-3.2,1.3-5c0.9-1.9,2-2.9,3.1-2.9s2.2,1,3.1,2.9C43.7,48.5,44.2,50.1,44.2,51.7z"/>
	</g>
	<g id="XMLID_299_">
		<path id="XMLID_300_" class="st14" d="M578.4,34.9c0.2-0.5,0.6-0.8,1-0.9c0.7-0.2,1.5,0,2.3,0.6c0.3-0.8,0.5-1.3,0.8-1.5
			c0.3-0.4,0.7-0.6,1-0.8c0.5-0.1,1-0.1,1.5,0.1c0.5,0.2,0.9,0.7,1.2,1.5c0.2,0.5,0.2,1,0.1,1.3c-0.1,0.3-0.2,0.7-0.4,1
			c-0.3,0.3-0.6,0.5-1,0.6c-0.4,0.1-0.8,0.1-1.2,0c-0.3-0.1-0.8-0.4-1.5-0.9c-0.4,1-1,1.5-1.7,1.8c-0.5,0.1-0.9,0.1-1.3-0.2
			c-0.4-0.3-0.7-0.7-0.9-1.2C578.1,35.8,578.2,35.3,578.4,34.9z M579,36.1c0.1,0.3,0.3,0.6,0.5,0.8c0.2,0.1,0.4,0.2,0.7,0.1
			c0.5-0.1,0.9-0.6,1.2-1.5c-0.5-0.4-0.9-0.6-1.1-0.7c-0.3-0.1-0.5-0.1-0.7,0c-0.3,0.1-0.5,0.2-0.6,0.5
			C578.9,35.5,578.9,35.7,579,36.1z M584.8,33.3c-0.3-0.2-0.7-0.2-1-0.2c-0.2,0.1-0.4,0.2-0.5,0.4c-0.2,0.2-0.5,0.8-0.8,1.6
			c0.6,0.5,1.1,0.8,1.5,1c0.2,0.1,0.5,0.1,0.8,0c0.3-0.1,0.6-0.3,0.8-0.6c0.1-0.3,0.1-0.7,0-1.2C585.3,33.8,585.1,33.5,584.8,33.3z"
			/>
	</g>
	<g id="XMLID_297_">
		<polygon id="XMLID_298_" class="st21" points="494.7,24.5 497.1,30.8 495.9,31.3 493.5,25 490.5,26.2 492.9,32.4 491.6,32.9 
			489.2,26.6 487.3,27.4 487,26.4 496,22.9 496.4,23.9 		"/>
	</g>
	<g id="XMLID_289_">
		<g id="XMLID_290_">
			<path id="XMLID_291_" class="st11" d="M449.4,33.4c0,0.2,0.1,0.4,0.2,0.5c0.2,0.1,0.3,0.2,0.5,0.2c0.2-0.1,0.4-0.3,0.7-0.7
				c0.3-0.3,0.4-0.6,0.4-0.8c0-0.2-0.1-0.4-0.2-0.5c-0.2-0.1-0.4-0.1-0.6-0.1c-0.2,0.1-0.4,0.3-0.8,0.7
				C449.5,32.9,449.4,33.2,449.4,33.4z M448.8,33.4c0-0.4,0.2-0.8,0.5-1.3c0.3-0.4,0.6-0.6,1-0.7c0.4-0.1,0.8-0.1,1.2,0.2
				c0.3,0.3,0.5,0.6,0.5,1c0,0.4-0.1,0.8-0.5,1.2c-0.3,0.4-0.7,0.7-1.1,0.8c-0.4,0.1-0.8,0-1-0.3C449,34.1,448.8,33.8,448.8,33.4z
				 M454.8,34.1l-7.1,3.4l-0.5-0.5l7-3.3L454.8,34.1z M451.8,37.2c-0.2,0.1-0.4,0.3-0.7,0.6c-0.3,0.3-0.4,0.6-0.4,0.9
				c0,0.2,0.1,0.4,0.2,0.5c0.2,0.1,0.4,0.2,0.5,0.1c0.2-0.1,0.4-0.3,0.7-0.6c0.3-0.4,0.4-0.7,0.4-0.9c0-0.2-0.1-0.4-0.2-0.5
				C452.2,37.2,452,37.1,451.8,37.2z M452.7,36.9c0.3,0.2,0.5,0.6,0.5,1c0,0.4-0.2,0.8-0.5,1.3c-0.3,0.4-0.7,0.7-1.1,0.8
				c-0.4,0.1-0.8,0-1.1-0.2c-0.3-0.3-0.5-0.6-0.5-1c0-0.4,0.1-0.9,0.5-1.4c0.3-0.4,0.6-0.6,1-0.8C452,36.5,452.4,36.6,452.7,36.9z"
				/>
		</g>
	</g>
	<g id="XMLID_3_">
		<g id="XMLID_267_">
			<g id="XMLID_274_">
				<path id="XMLID_288_" class="st22" d="M509.8,70l-0.5,3.9l0.6-3.9c0.8-3.8,4.4-5.1,10.9-3.9l4,2.7c-2.5-0.5-4.8-0.7-6.7-0.6
					c-3,0.1-5.3,0.8-6.8,2.2c-1.1,1-1.7,2.2-2,3.8c0.1-1-0.2-1.8-0.8-2.5c-0.6-0.7-1.6-1.3-2.9-1.7c0,0-0.1,0-0.1,0
					c-0.1,0-0.2-0.1-0.5-0.1c-0.3-0.1-0.5-0.1-0.7-0.2c-0.3,0-0.4,0-0.4,0c-1.2-0.1-2.8,0.1-4.6,0.6c-2.1,0.8-3.9,1.4-5.4,1.8
					l3.6-2.7l0.5-0.4C504.6,66.1,508.6,66.4,509.8,70z"/>
				<path id="XMLID_287_" class="st23" d="M493.8,72c1.5-0.4,3.3-1,5.4-1.8c1.8-0.5,3.4-0.7,4.6-0.6c0,0,0.2,0,0.4,0
					c0.2,0,0.5,0.1,0.7,0.2c0.3,0.1,0.4,0.1,0.5,0.1c0,0,0.1,0,0.1,0c1.3,0.4,2.3,1,2.9,1.7c0.6,0.7,0.9,1.5,0.8,2.5
					c0.3-1.6,1-2.9,2-3.8c1.5-1.4,3.8-2.1,6.8-2.2c1.9-0.1,4.2,0.2,6.7,0.6c0.4,0.3,0.7,0.6,1.1,0.9c0.1,0,0.1,0.1,0.1,0.1
					c0.9,0.8,1.9,1.5,2.9,2.2c0.7,0.5,1.3,0.9,2,1.3c0.3,0.2,0.6,0.4,0.9,0.6c-0.3,0-0.6,0-0.9,0.1c-3.2,0.1-6.1-0.1-8.9-0.6
					c-3.9-0.8-6.5-0.6-7.9,0.8h0c-0.1,0-0.2,0.1-0.2,0.1c0,0,0,0.1,0,0.1c0,0,0,0.1,0,0.1c0,0.1-0.1,0.2-0.3,0.2h-0.2
					c-0.5-0.1-1-0.1-1.4-0.1c-1.3-0.1-2.5-0.1-3.6,0c-0.3,0-0.6,0.1-0.9,0.1h-0.2c-0.1,0-0.2-0.1-0.3-0.2c0,0,0-0.1,0-0.1
					c0,0,0-0.1,0-0.1c0-0.1-0.1-0.1-0.2-0.1c-0.1-0.1-0.1-0.1-0.2-0.2c-1.3-1.2-3.7-1.4-7.2-0.7c-0.1,0-0.1,0-0.2,0.1
					c-3.1,0.7-6.3,1.1-9.6,1.1L493.8,72z"/>
				<path id="XMLID_286_" class="st24" d="M532.4,74h0.4v0.7l-18.3,0.2c-0.2,0-0.3-0.1-0.3-0.3c0,0.4-0.1,0.6-0.3,0.7h-6.8
					c-0.3,0-0.4-0.2-0.3-0.7c0,0.1-0.1,0.2-0.3,0.3c0,0-0.1,0-0.1,0l-18.1,0.4v-0.7l0.5,0l0.7,0l17.3-0.5c0,0,0.1,0,0.1,0
					c0.1,0,0.2,0,0.2,0.1c0,0,0,0.1,0,0.1c0,0,0,0.1,0,0.1c0,0.1,0.1,0.2,0.3,0.2h0.2h5.9h0.2c0.1,0,0.2-0.1,0.3-0.2
					c0,0,0-0.1,0-0.1c0,0,0-0.1,0-0.1c0-0.1,0.1-0.1,0.2-0.1h0c0.1,0,0.1,0,0.2,0L532,74H532.4z"/>
				<path id="XMLID_283_" class="st25" d="M496.9,69.3l-8.2,5.3l-0.5,0l8.5-5.3H496.9z M532.9,74h-0.4l-6.2-4.3l0.2,0L532.9,74z"/>
				<path id="XMLID_278_" class="st26" d="M509.9,70l-0.6,3.9l0.5-3.9H509.9z M514.2,74.1c1.3-1.4,4-1.6,7.9-0.8
					c2.8,0.6,5.7,0.8,8.9,0.6c0.3,0,0.6,0,0.9-0.1L532,74l-17.7,0.1C514.3,74.1,514.2,74.1,514.2,74.1z M506.8,74.1c0,0-0.1,0-0.1,0
					l-17.3,0.5l0.2-0.1c3.3,0,6.5-0.4,9.6-1.1c0.1,0,0.1,0,0.2-0.1c3.6-0.7,6-0.5,7.2,0.7C506.7,74,506.7,74.1,506.8,74.1z
					 M513.4,74.6h-5.9c0.3-0.1,0.6-0.1,0.9-0.1c1.1-0.1,2.3-0.1,3.6,0C512.5,74.5,512.9,74.6,513.4,74.6z"/>
				<path id="XMLID_275_" class="st27" d="M488.7,74.6l8.2-5.3l0.5,0l-3.6,2.7l-4.2,2.5l-0.2,0.1L488.7,74.6z M526.3,69.7l6.2,4.3
					H532l-0.2-0.1c-0.3-0.2-0.6-0.4-0.9-0.6c-0.7-0.4-1.3-0.9-2-1.3c-1-0.7-1.9-1.4-2.9-2.2c0,0-0.1-0.1-0.1-0.1L526.3,69.7z"/>
			</g>
			<path id="XMLID_268_" class="st28" d="M509.4,69.6l-0.1,0.5c-0.7-1.5-2-2.3-3.8-2.5c-1.8-0.2-4.1,0.3-7,1.3l0.7-0.6
				c2.5-0.8,4.6-1.2,6.3-1C507.4,67.5,508.7,68.3,509.4,69.6z M520.8,66.9l0.6,0.4c-5.6-1-9.3-0.2-10.9,2.5l0.1-0.8
				C512.3,66.8,515.7,66.1,520.8,66.9z M519.8,66.2l0.5,0.4c-3-0.5-5.4-0.4-7.1,0.2c-1.2,0.4-2.1,1.1-2.6,2l0.1-0.7
				c0.6-0.7,1.4-1.2,2.4-1.6C514.8,66,517,65.9,519.8,66.2z M498.3,69.1c2.8-1,5-1.4,6.8-1.2c2,0.2,3.3,1,4.2,2.6l-0.1,0.5
				c-0.7-1.6-2.1-2.6-4.1-2.7c-1.9-0.2-4.5,0.3-7.6,1.5L498.3,69.1z M507.1,69.7c-1.9-1.4-5.5-1.1-10.6,0.8l0.8-0.6
				c4.8-1.7,8.1-1.9,10-0.5L507.1,69.7z"/>
		</g>
		<g id="XMLID_146_">
			<g id="XMLID_251_">
				<g id="XMLID_264_">
					<path id="XMLID_266_" class="st29" d="M558,74.6l-1.6,0.2c-0.1-0.9,0-1.8,0.3-2.5c0.6,0,1.1-0.1,1.7-0.1
						C558.3,73,558.1,73.8,558,74.6z"/>
					<path id="XMLID_265_" class="st30" d="M558.5,72.2c2.2-0.1,4.1-0.1,5.9,0c0.5,0.6,0.6,1.1,0,1.6l-6.4,0.8
						C558.1,73.8,558.3,73,558.5,72.2z"/>
				</g>
				<g id="XMLID_257_">
					<path id="XMLID_261_" class="st30" d="M566.6,70.9c0.3,0.7,0.5,1.5,0.4,2.3l-3,0.6c-0.7-0.2-1-0.7-0.7-1.4
						C564.3,71.7,565.3,71.2,566.6,70.9z M564.7,73.7c-0.1-0.3-0.4-0.5-0.8-0.6c0.2,0.2,0.4,0.4,0.5,0.7L564.7,73.7z"/>
					<path id="XMLID_260_" class="st29" d="M564.7,73.7l-0.4,0.1c-0.1-0.3-0.3-0.5-0.5-0.7C564.3,73.2,564.6,73.4,564.7,73.7z"/>
					<path id="XMLID_259_" class="st31" d="M568.4,73c0.1-0.8-0.1-1.6-0.4-2.3c1.6-0.3,3.3-0.5,5.2-0.6c0.3-0.1,0.8-0.2,1.3-0.4
						c0.3,0.7,0.3,1.4,0.1,1.9L568.4,73z"/>
					<path id="XMLID_258_" class="st32" d="M568,70.7c0.3,0.8,0.5,1.5,0.4,2.3l-1.4,0.3c0.1-0.9-0.1-1.6-0.4-2.3
						c0.1,0,0.2,0,0.3-0.1C567.3,70.8,567.6,70.7,568,70.7z"/>
				</g>
				<g id="XMLID_252_">
					<path id="XMLID_254_" class="st33" d="M574.8,72c-0.1-0.4-0.1-0.7,0-1c0.2-0.1,0.5,0,0.8,0.2c-0.1,0.4-0.1,0.7,0,1
						C575.3,72,575,72,574.8,72z M574.6,68.3c0.2-0.2,0.5-0.4,0.7-0.6c1.6,2.1,3.1,4.2,4.3,6.4c-0.1,0.1-0.2,0.1-0.4,0.2
						C578.1,71.8,576.5,69.8,574.6,68.3z"/>
					<path id="XMLID_253_" class="st34" d="M574.8,72c-0.2,0-0.3,0.1-0.5,0.2c-0.3-0.3-0.4-0.7-0.3-1.1c0.2-0.4,0.4-0.7,0.4-0.9
						c0-0.2-0.1-0.3-0.3-0.3c-0.2,0-0.4,0-0.7,0.2c-0.2,0.1-0.4,0.2-0.4,0.1c0.4-0.6,1-1.2,1.6-1.8c1.9,1.5,3.4,3.5,4.7,5.9
						c-0.8,0.4-1.6,0.3-2.3-0.3c-0.3-0.4-0.5-0.8-0.6-1.4c-0.2-0.2-0.4-0.4-0.6-0.4c-0.1,0-0.1,0-0.2-0.1c-0.1-0.3-0.1-0.6,0-1
						c-0.3-0.2-0.6-0.2-0.8-0.2C574.7,71.3,574.7,71.6,574.8,72z"/>
				</g>
			</g>
			<g id="XMLID_224_">
				<g id="XMLID_248_">
					<path id="XMLID_250_" class="st35" d="M542.3,71.1c-0.2,0.1-0.4,0.2-0.6,0.3c-0.6,0.3-1.1,0.6-1.6,0.9c-0.4-0.1-0.6-0.5-0.5-1
						c0.7-0.5,1.5-0.9,2.2-1.4C542.1,70.3,542.3,70.7,542.3,71.1z"/>
					<path id="XMLID_249_" class="st36" d="M542.3,71.1c0-0.4-0.2-0.8-0.5-1.2c0.2-0.2,0.5-0.3,0.7-0.5c0.6,0.1,0.8,0.4,0.8,1
						C543,70.7,542.7,70.9,542.3,71.1z"/>
				</g>
				<g id="XMLID_245_">
					<path id="XMLID_247_" class="st37" d="M542.5,69.1l-0.4,0.3c0.5,1,1.2,1.7,2.1,2.1l0.4-0.5l0,0c0,0,0,0,0,0
						C543.7,70.7,543,70.1,542.5,69.1z"/>
					<path id="XMLID_246_" class="st38" d="M542.5,69.1c0.6,0.9,1.2,1.6,2.1,1.9c0,0,0,0,0,0l1.8-2.1c0.2-0.4,0.2-0.8,0-1.2
						c-0.4-0.4-0.9-0.5-1.4-0.4L542.5,69.1z"/>
				</g>
				<path id="XMLID_244_" class="st35" d="M540.3,71.4c0.1,0.3,0.1,0.6-0.2,1c-1.8,0.2-3.6,0.2-5.4,0.3c-0.2-0.4-0.3-0.9-0.1-1.5
					C536.5,71.1,538.4,71.2,540.3,71.4z"/>
				<g id="XMLID_225_">
					<g id="XMLID_237_">
						<path id="XMLID_240_" class="st39" d="M531.3,72.5c-0.1,0.1-0.2,0.1-0.3,0.1c-0.1-0.1-0.2-0.2-0.2-0.3
							c0.1,0.1,0.2,0.2,0.3,0.2c0.1,0,0.2-0.1,0.2-0.3c0-0.1,0-0.2-0.1-0.2c0,0,0,0,0-0.1c0.1-0.1,0.1-0.3,0.1-0.5
							c0,0.2,0,0.3,0,0.5v0c0.1,0.1,0.2,0.3,0.1,0.5C531.4,72.4,531.4,72.4,531.3,72.5C531.3,72.5,531.3,72.5,531.3,72.5z
							 M532.5,72.6c0.1,0,0.1-0.1,0.1-0.2c0-0.2-0.2-0.2-0.5-0.3c0,0,0-0.1-0.1-0.1c0-0.1,0-0.1-0.1-0.2c0-0.1-0.1-0.1-0.2-0.2
							c0.1,0,0.2,0.1,0.3,0.2c0,0.1,0.1,0.1,0.1,0.2c0.1,0,0.2,0,0.3,0c0,0,0,0,0,0c0.1,0,0.1,0.1,0.2,0.2c0,0,0,0,0,0
							c0,0.1,0,0.1,0,0.2h0C532.6,72.6,532.6,72.6,532.5,72.6z M531.6,72.6c0.2,0,0.3,0,0.3-0.1c0-0.2-0.1-0.3-0.4-0.4l0-0.4
							l0.1,0.3c0,0,0.1,0,0.1,0.1h0l0,0c0.1,0,0.2,0.1,0.2,0.3c0,0,0,0,0,0.1c0,0,0,0.1,0,0.1c0,0,0,0.1,0,0.1c0,0-0.1,0.1-0.2,0
							L531.6,72.6z"/>
						<path id="XMLID_239_" class="st35" d="M534.9,72.6c-1.8-0.2-2.7-0.8-2.5-1.8l0-0.1c-0.2,0-0.4-0.1-0.6-0.2
							c-0.2,0.1-0.4,0.2-0.5,0.2l-0.2,0.8v0c0,0.1-0.1,0.2-0.1,0.2c-0.1,0.1-0.2,0.2-0.2,0.2h0c0,0,0,0,0,0c-0.2,0-0.3-0.2-0.2-0.5
							c0-0.3,0.1-0.5,0.1-0.7c0-0.2,0.1-0.3,0.1-0.4c0,0,0-0.1,0.1-0.2c0-0.1,0.1-0.1,0.1-0.1c0,0,0,0,0,0c0.1,0,0.2-0.1,0.3-0.1
							c0.1,0,0.1,0,0.2-0.1c0.2-0.1,0.5-0.2,0.8-0.3c0.2-0.1,0.4-0.1,0.6,0c0.9,0.4,1.7,1,2.4,1.6c0,0.3,0,0.6-0.1,0.9
							c0,0.1,0,0.2,0,0.2C534.9,72.5,534.9,72.6,534.9,72.6z"/>
						<path id="XMLID_238_" class="st36" d="M532.7,72.4C532.7,72.3,532.7,72.3,532.7,72.4c0-0.1-0.1-0.2-0.2-0.2c0,0,0,0,0,0
							c-0.1,0-0.2,0-0.3,0c0,0-0.1-0.1-0.1-0.2c-0.1-0.1-0.2-0.2-0.3-0.2c0.1,0.1,0.1,0.1,0.2,0.2c0,0.1,0.1,0.1,0.1,0.2
							c0,0,0,0.1,0.1,0.1c0.3,0,0.5,0.1,0.5,0.3c0,0.1-0.1,0.1-0.1,0.2l-0.1,0l-0.4-0.1c0,0,0-0.1,0-0.1c0,0,0,0,0-0.1
							c0-0.1-0.1-0.2-0.2-0.3l0,0h0c0,0-0.1,0-0.1-0.1l-0.1-0.3l0,0.4c0.3,0.1,0.4,0.2,0.4,0.4c0,0.1-0.2,0.2-0.3,0.1l-0.3-0.1
							c0,0,0,0,0-0.1c0,0,0-0.1,0-0.1c0-0.2,0-0.3-0.1-0.5v0c0-0.2,0.1-0.3,0-0.5c0,0.2-0.1,0.3-0.1,0.5c0,0,0,0,0,0.1
							c0,0.1,0.1,0.1,0.1,0.2c0,0.1,0,0.2-0.2,0.3c-0.1,0-0.2,0-0.3-0.2c-0.1-0.1-0.1-0.2-0.2-0.3c0.1,0,0.2-0.1,0.2-0.2
							c0-0.1,0.1-0.1,0.1-0.2v0l0.2-0.8c0.2,0,0.3-0.1,0.5-0.2c0.2,0.1,0.4,0.2,0.6,0.2l0,0.1c-0.1,0.9,0.7,1.5,2.5,1.8l-0.2,0
							c-0.4,0-0.8,0-1.2-0.1C533.2,72.5,533,72.4,532.7,72.4z"/>
					</g>
					<g id="XMLID_227_">
						<g id="XMLID_228_">
							<path id="XMLID_236_" class="st40" d="M533.5,69.4c0.1,0.1,0,0.2-0.1,0.4l-0.4,0.4c-0.1,0-0.1-0.1-0.2-0.1
								c0-0.1-0.1-0.1-0.1-0.2c0,0,0-0.1,0-0.1c0,0,0-0.1,0-0.1c0,0,0-0.1,0-0.1v0h0l0.3-0.3c0,0,0,0,0,0c0.1-0.1,0.2-0.1,0.3,0
								C533.4,69.3,533.4,69.3,533.5,69.4L533.5,69.4L533.5,69.4z"/>
							<path id="XMLID_235_" class="st41" d="M532.7,70.1c-0.1,0-0.1-0.1-0.2-0.2c0,0,0,0,0-0.1c0-0.1,0-0.1,0-0.2l0.1,0
								c0,0,0,0,0,0.1c0,0,0,0,0,0.1c0,0,0,0,0,0.1C532.7,69.9,532.7,70,532.7,70.1L532.7,70.1z"/>
							<path id="XMLID_234_" class="st42" d="M532.7,70.1l-2.1,2c-0.1-0.1-0.1-0.1-0.2-0.2l2.1-2C532.6,70,532.7,70.1,532.7,70.1z"
								/>
							<path id="XMLID_233_" class="st43" d="M533,70.2l0.4-0.4c0.1-0.1,0.2-0.3,0.1-0.4c0,0.1,0.1,0.1,0.1,0.2h0
								c0,0.1,0,0.2-0.1,0.3c0,0.1-0.1,0.2-0.2,0.2c0,0,0,0,0,0l0,0h0l0,0C533.2,70.2,533.1,70.2,533,70.2
								C533,70.2,533,70.2,533,70.2z"/>
							<path id="XMLID_232_" class="st44" d="M530.6,72.1l2.1-2c0,0.1,0.1,0.1,0.2,0.2l-2.1,2C530.7,72.2,530.7,72.1,530.6,72.1z"/>
							<path id="XMLID_231_" class="st45" d="M530.5,72.4C530.5,72.4,530.5,72.4,530.5,72.4C530.5,72.4,530.4,72.4,530.5,72.4
								l0.3-0.2c0,0,0.1,0,0.1,0c0.1,0,0.1,0,0.2,0L530.5,72.4z"/>
							<path id="XMLID_230_" class="st46" d="M530.4,72.4l-0.3,0.1l0.2-0.4c0,0,0,0,0,0c0,0,0,0,0,0
								C530.3,72.3,530.3,72.3,530.4,72.4C530.4,72.4,530.4,72.4,530.4,72.4z"/>
							<path id="XMLID_229_" class="st47" d="M530.1,72.6l0.3-0.1c0,0,0,0,0.1,0c0,0,0,0,0,0L530.1,72.6z"/>
						</g>
					</g>
					<path id="XMLID_226_" class="st35" d="M532.3,70.6c0.2-0.1,0.4-0.1,0.6-0.2c0.6,0,1,0.1,1.4,0.3c0.2,0.4,0.1,0.8,0,1.3
						c-0.8,0-1.4-0.1-1.8-0.4c-0.3,0-0.5,0-0.6,0.1c-0.6,0.5-1,0.6-1.2,0.3c-0.1-0.2,0-0.5,0.3-0.7c0.1,0,0.1-0.1,0.2-0.2l0.2-0.2
						c0,0,0,0,0,0c0,0,0,0,0,0L532.3,70.6C532.3,70.6,532.3,70.6,532.3,70.6z"/>
				</g>
			</g>
			<g id="XMLID_221_">
				<path id="XMLID_223_" class="st48" d="M545.1,65c-0.3,1.4-0.9,2.4-1.9,3.2c0.1,0.1,0.2,0.2,0.4,0.3c0.1,0.1,0.3,0.3,0.4,0.5
					c0.2,0.3,0.4,0.6,0.6,0.9c1.4-0.6,2.1-1.4,2.2-2.4L545.1,65z"/>
				<path id="XMLID_222_" class="st49" d="M543.2,68.2c1-0.8,1.6-1.8,1.9-3.2l-1.6-2.5c-1.1,0.9-1.7,2.1-1.7,3.6
					c0,0.3,0,0.7,0.1,1.1C542.4,67.5,542.8,67.8,543.2,68.2z"/>
			</g>
			<g id="XMLID_198_">
				<g id="XMLID_218_">
					<path id="XMLID_220_" class="st48" d="M557.9,72.4c2.2,0.1,4.1,0.3,5.9,0.6c0.5,0.6,0.4,1.2-0.2,1.6l-6.4,0.2
						C557.4,73.9,557.6,73.1,557.9,72.4z"/>
					<path id="XMLID_219_" class="st50" d="M557.2,74.7l-1.6,0c0-0.9,0.2-1.7,0.6-2.4c0.6,0,1.1,0,1.7,0.1
						C557.6,73.1,557.4,73.9,557.2,74.7z"/>
				</g>
				<g id="XMLID_215_">
					<path id="XMLID_217_" class="st51" d="M552.8,70.6c0,0.2,0.1,0.4,0.1,0.7c0.1,1.2,0,2.3-0.4,3.4c3.2,0.4,5.1,0.3,5.6-0.3
						c0,0,0.1-0.1,0.1-0.1c0.3-0.5,0.5-1.3,0.6-2.3c-0.5,0-1-0.1-1.5-0.5l0,0c0,0,0,0,0,0c0,0,0,0,0,0c-0.6-0.5-1.3-0.7-2.3-0.8
						C554.3,70.4,553.6,70.5,552.8,70.6z"/>
					<path id="XMLID_216_" class="st32" d="M552.8,70.6c-0.1,0-0.1,0-0.2,0c-0.9,0.2-1.5,0.2-2-0.1c-0.3,1.5,0,3,0.8,4.4
						c3.1,0.3,5.1,0.3,6,0.1c0.3-0.1,0.5-0.4,0.7-0.7c-0.5,0.6-2.4,0.7-5.6,0.3c0.3-1.1,0.5-2.2,0.4-3.4
						C552.9,71,552.9,70.8,552.8,70.6z"/>
				</g>
				<g id="XMLID_210_">
					<path id="XMLID_214_" class="st48" d="M545.9,71.9c-0.3-0.5-0.5-0.9-0.7-1.4c-0.5-1.2-0.6-2.3-0.4-3.4l-0.4,0.1l0,0l-0.2,0.1
						c-0.3,0.3-0.3,0.7-0.2,1.4c0,0,0,0,0,0c0.3,0.6,0.5,1.2,0.8,1.7c0.1,0.3,0.3,0.5,0.5,0.8c0.3,0.4,0.5,0.7,0.8,1
						c0,0,0.1,0.1,0.1,0.1c0,0-0.1-0.1-0.1-0.1C546,72.1,545.9,72,545.9,71.9z"/>
					<path id="XMLID_213_" class="st52" d="M546.7,67.2c-1,0.5-1.3,1.6-1,3.2c0.1,0.5,0.2,1.1,0.4,1.7c0,0.1,0.1,0.1,0.1,0.2
						c0.5,0.5,1,0.9,1.6,1.3c1,0.7,2.2,1.1,3.6,1.3c0.7-1.3,1.1-2.8,1.3-4.3c-1.4,0.1-2.3,0-2.7-0.6c-0.7-1-1.5-1.7-2.2-2.3
						c-0.3-0.2-0.5-0.3-0.8-0.5C546.9,67.3,546.8,67.3,546.7,67.2z"/>
					<path id="XMLID_212_" class="st51" d="M544.8,67.1c-0.2,1.1-0.1,2.2,0.4,3.4c0.2,0.5,0.4,0.9,0.7,1.4c-0.2-0.5-0.4-0.9-0.6-1.4
						c-0.3-1.1-0.4-2.3-0.1-3.4C545.1,67,544.9,67.1,544.8,67.1z"/>
					<path id="XMLID_211_" class="st53" d="M545.3,67c-0.3,1.1-0.3,2.3,0.1,3.4c0.1,0.5,0.3,0.9,0.6,1.4c0.1,0.1,0.1,0.2,0.2,0.3
						c0,0,0.1,0.1,0.1,0.1c0-0.1-0.1-0.1-0.1-0.2c-0.2-0.6-0.3-1.2-0.4-1.7c-0.3-1.6,0.1-2.7,1-3.2c-0.1,0-0.3-0.1-0.4-0.1
						C546,67,545.6,67,545.3,67z"/>
				</g>
				<g id="XMLID_203_">
					<path id="XMLID_207_" class="st48" d="M564,73.1l0-0.4c-0.3,0.1-0.5,0.3-0.7,0.8C563.5,73.3,563.7,73.2,564,73.1z M563.7,70.4
						l0.3,3c-0.3,0.7-0.8,0.9-1.5,0.6c-0.6-1-1-2.1-1.2-3.3C562.1,70.4,562.9,70.3,563.7,70.4z"/>
					<path id="XMLID_206_" class="st49" d="M564,73.1c-0.3,0.1-0.5,0.2-0.7,0.4c0.1-0.4,0.4-0.7,0.7-0.8L564,73.1z"/>
					<path id="XMLID_205_" class="st51" d="M561.2,69.2c0.8-0.3,1.6-0.3,2.3-0.2l0.2,1.5c-0.9-0.1-1.6-0.1-2.4,0.2
						c0-0.1,0-0.2,0-0.3C561.3,70,561.3,69.6,561.2,69.2z"/>
					<path id="XMLID_204_" class="st8" d="M563.6,69c-0.8-0.1-1.6-0.1-2.3,0.2c-0.1-1.6-0.2-3.3-0.1-5.3c-0.1-0.3-0.1-0.8-0.2-1.3
						c0.7-0.2,1.4-0.2,1.9,0L563.6,69z"/>
				</g>
				<g id="XMLID_199_">
					<path id="XMLID_202_" class="st54" d="M563.6,63.7c-0.1,0.2-0.1,0.3-0.1,0.5c-0.4,0.1-0.8,0-1.1-0.3c-0.2-0.4-0.4-0.6-0.6-0.8
						c-0.1-0.1-0.3-0.1-0.4,0.1c-0.1,0.2-0.2,0.4-0.2,0.7c0,0.3,0,0.4-0.1,0.4c-0.3-0.7-0.6-1.4-0.9-2.3c2.2-0.9,4.7-1.4,7.5-1.4
						c-0.1,0.9-0.5,1.6-1.3,1.9c-0.5,0.1-1,0.1-1.5-0.1c-0.3,0.1-0.5,0.2-0.7,0.4c0,0.1-0.1,0.1-0.1,0.2c-0.3,0-0.5-0.2-0.8-0.5
						c-0.3,0.2-0.5,0.4-0.5,0.7C562.9,63.5,563.2,63.7,563.6,63.7z"/>
					<path id="XMLID_201_" class="st33" d="M564,63c-0.2,0.2-0.3,0.5-0.4,0.7c-0.4-0.1-0.7-0.2-0.9-0.5c0-0.2,0.2-0.5,0.5-0.7
						C563.5,62.8,563.7,63,564,63z"/>
					<path id="XMLID_200_" class="st55" d="M560.2,62.2c-0.1-0.3-0.1-0.6-0.2-1c2.6-0.5,5.1-0.8,7.7-0.9c0,0.1,0,0.3,0,0.4
						C564.9,60.7,562.4,61.2,560.2,62.2z"/>
				</g>
			</g>
			<g id="XMLID_191_">
				<g id="XMLID_195_">
					<path id="XMLID_197_" class="st48" d="M544,71.7c0.4,0.2,0.8,0.4,1.1,0.7c-0.1,0.2-0.2,0.4-0.3,0.6c-0.3,0.6-0.6,1.1-0.9,1.6
						c-0.4,0.1-0.7-0.1-1-0.5C543.4,73.4,543.7,72.6,544,71.7z"/>
					<path id="XMLID_196_" class="st49" d="M544,71.7c0.1-0.3,0.2-0.5,0.3-0.8c0.5-0.2,0.9-0.1,1.2,0.4c-0.1,0.4-0.2,0.7-0.4,1.1
						C544.8,72.1,544.5,71.9,544,71.7z"/>
				</g>
				<g id="XMLID_192_">
					<path id="XMLID_194_" class="st56" d="M546.9,71.1C546.9,71.1,546.9,71.1,546.9,71.1c-0.9,0.2-1.8,0.1-2.8-0.4l1-2.9
						c0.4-0.4,0.9-0.6,1.4-0.5c0.3,0.2,0.5,0.5,0.6,1L546.9,71.1z"/>
					<path id="XMLID_193_" class="st32" d="M544.2,70.7c1,0.5,1.9,0.6,2.7,0.4c0,0,0,0,0,0l0,0l-0.1,0.6c-1,0.2-1.9,0-2.9-0.5
						L544.2,70.7z"/>
				</g>
			</g>
			<g id="XMLID_162_">
				<g id="XMLID_163_">
					<g id="XMLID_185_">
						<g id="XMLID_186_">
							<path id="XMLID_190_" class="st48" d="M533.1,64.5l0.5-0.8l-2,0.1c0.9-1.2,1-2.8,0-4.9c-0.1-0.2-0.1-0.3-0.2-0.5
								c0,0,0,0,0-0.1c-0.2-0.5-0.6-1.1-1-1.6c4.3-0.7,8.9-0.8,13.6-0.5c0.3,1.3,0.5,2.7,0.7,4c0,0.5,0.1,0.9,0,1.3
								c0-0.2-0.1-0.4-0.2-0.5c0,0,0-0.1,0-0.2c-0.1-0.1-0.1-0.3-0.2-0.4c0,0,0-0.1,0-0.1c-0.3-0.8-0.7-1.5-1.1-2.3
								c-0.1-0.1-0.1-0.2-0.2-0.3c0,0,0-0.1-0.1-0.1l0-0.1c-0.8,0.1-1.5,0.4-2,0.9c1.6,6.1,0.5,10.2-3.3,12.5
								c-0.1,0-0.1-0.1-0.2-0.1C535.9,69.3,534.4,67.2,533.1,64.5z"/>
							<path id="XMLID_187_" class="st49" d="M530.4,56.7c-0.2-0.4-0.5-0.7-0.9-1.1c-0.4-1-0.6-2.2-0.4-3.4c0-0.4,0.1-0.8,0.2-1.1
								c3.8-0.4,8.4,0.3,13.9,2.1l3,0.8c1.5,8.6-1.3,14.2-8.4,17c3.8-2.3,4.9-6.4,3.3-12.5c0.5-0.5,1.2-0.8,2-0.9l0,0.1
								c0,0,0.1,0,0.1,0.1c0,0.1,0.1,0.2,0.2,0.3c0.4,0.8,0.8,1.5,1.1,2.3c0,0,0,0.1,0,0.1c0.1,0.2,0.1,0.3,0.2,0.4
								c0,0.1,0,0.1,0,0.2c0.1,0.2,0.1,0.3,0.2,0.5c0-0.4,0-0.9,0-1.3c-0.2-1.3-0.4-2.6-0.7-4C539.3,55.9,534.7,56.1,530.4,56.7z
								 M531.6,63.8l2-0.1l-0.5,0.8C532.7,64.6,532.2,64.3,531.6,63.8z"/>
						</g>
					</g>
					<g id="XMLID_182_">
						<path id="XMLID_184_" class="st57" d="M545.7,72.4c1.6-5.6,0.6-11.5-2.9-17.6c0.9-2.7,0.9-5.4-0.2-8.2
							c-2.2-4.6-6.8-5.8-14-3.5c1.5-2.4,4.1-4.3,7.8-5.8c0.1,0,0.1-0.1,0.2-0.1c4.9-1.6,9.2-0.8,12.9,2.3c4.9,4.6,7.3,12,7.1,22.4
							C553.6,66.5,550,69.9,545.7,72.4z"/>
						<path id="XMLID_183_" class="st58" d="M545.7,72.4c-0.3-6.1-2.5-12.5-6.6-19.1c-4-1.7-7.8-4.6-11.3-8.4
							c0.2-0.6,0.5-1.2,0.9-1.8c7.1-2.3,11.8-1.1,14,3.5c1.1,2.8,1.2,5.5,0.2,8.2C546.3,61,547.2,66.9,545.7,72.4z"/>
					</g>
					<path id="XMLID_181_" class="st59" d="M539.2,55c0.2,3.4,0.2,6.2-0.1,8.3c-0.3-2.3-1.5-5.1-3.4-8.4c-3.7,0-7.4,0.7-11.1,2.2
						c-2.2-7.1-0.7-11.8,4.4-14.1c5.3-1.3,9.2-0.4,11.7,2.8C542.8,49.9,542.4,52.9,539.2,55z"/>
					<g id="XMLID_178_">
						<path id="XMLID_180_" class="st48" d="M540.3,57.3c0.4-1.3,1.2-1.7,2.3-1.2c-0.5-1.1-1.1-1.6-1.7-1.2
							c-0.5,0.4-0.7,1.1-0.7,2.1c-0.2-0.6-0.3-1.3-0.2-2c0.4-1,1.1-1.2,2.1-0.7c1,0.8,1.5,1.8,1.6,3.2c0,1.7-0.5,3-1.5,4
							c-0.6,0.3-1,0.2-1.2-0.1C541,60.3,540.8,58.9,540.3,57.3z"/>
						<path id="XMLID_179_" class="st49" d="M540.1,56.9c0-1,0.2-1.7,0.7-2.1c0.6-0.3,1.2,0.1,1.7,1.2c-1.1-0.5-1.9-0.1-2.3,1.2
							C540.2,57.2,540.2,57.1,540.1,56.9z"/>
					</g>
					<path id="XMLID_177_" class="st60" d="M535.1,56.7l-0.2-0.4c-1.5-1-3-1.3-4.6-0.7l0,0.7C531.9,55.5,533.5,55.7,535.1,56.7z"/>
					<path id="XMLID_176_" class="st61" d="M536.3,66.8c-0.5,0.3-1,0.5-1.6,0.6l-0.2-0.3c0.6-0.1,1.2-0.3,1.7-0.6L536.3,66.8z"/>
					<g id="XMLID_172_">
						<path id="XMLID_175_" class="st8" d="M535.2,58.2c-0.8-0.5-1.8-0.7-3-0.4c0.4,1.6,1,3,1.9,4.4c0.6-0.2,1-0.6,1.3-1.4
							c0-0.1,0.1-0.2,0.1-0.3c0.1-0.6,0-1.3-0.2-2.1C535.2,58.3,535.2,58.3,535.2,58.2z"/>
						<path id="XMLID_174_" class="st62" d="M532,57.1c0,0.3,0.1,0.5,0.1,0.8c1.3-0.3,2.3-0.2,3,0.4c0-0.1-0.1-0.2-0.1-0.3
							c-0.1-0.1-0.1-0.1-0.2-0.2c-0.5-0.4-1-0.7-1.7-0.7C532.8,57,532.5,57,532,57.1z"/>
						<path id="XMLID_173_" class="st63" d="M535.2,58.2c0,0,0,0.1,0,0.1c0.2,0.8,0.3,1.5,0.2,2.1c0.2-1.1,0.2-2-0.2-3
							c-1-0.9-2.2-1.3-3.4-1.1c-0.2,0.4-0.5,0.6-0.8,0.7c0.4,0.1,0.7,0.1,1,0c0.4-0.1,0.8-0.1,1.2-0.1c0.7,0,1.2,0.3,1.7,0.7
							c0.1,0.1,0.1,0.1,0.2,0.2C535.1,58,535.2,58.1,535.2,58.2z"/>
					</g>
					<g id="XMLID_165_">
						<path id="XMLID_171_" class="st8" d="M533.6,59.8c0,0.1-0.1,0.2-0.2,0.2c-0.1,0-0.2,0-0.3-0.1c0,0,0,0,0,0
							c-0.1-0.1-0.2-0.2-0.2-0.4c0-0.2,0-0.3,0-0.5c0.1-0.1,0.1-0.2,0.2-0.2c0.1,0,0.2,0,0.3,0.2c0.1,0.1,0.2,0.3,0.2,0.4
							C533.6,59.5,533.6,59.6,533.6,59.8C533.6,59.7,533.6,59.8,533.6,59.8z"/>
						<path id="XMLID_168_" class="st64" d="M533.1,59.8c0,0.1,0,0.2,0,0.3c0.1,0.3,0.2,0.6,0.3,1c0.2,0.4,0.3,0.7,0.5,0.9
							c0.2,0.2,0.3,0.3,0.4,0.3c0,0,0,0,0.1,0c0,0.1,0.1,0.3,0.2,0.4c0.1,0.2,0.3,0.3,0.4,0.3c0.1,0,0.2-0.1,0.2-0.3
							c0-0.1,0-0.3,0-0.5c0-0.2-0.1-0.4-0.3-0.6c-0.1-0.2-0.2-0.2-0.3-0.2c-0.1,0-0.1,0-0.2,0.1c-0.1-0.2-0.2-0.4-0.3-0.7
							c-0.2-0.4-0.3-0.7-0.5-0.9c0,0,0-0.1-0.1-0.1c0,0,0,0,0,0c0-0.1,0-0.3,0-0.4c0-0.2-0.1-0.3-0.2-0.4c-0.1-0.1-0.2-0.2-0.3-0.2
							c-0.1,0-0.2,0.1-0.2,0.2c0,0.1,0,0.3,0,0.5C532.9,59.5,533,59.7,533.1,59.8C533.1,59.8,533.1,59.8,533.1,59.8z M533.7,58.9
							c0.3,0.4,0.7,0.9,1,1.6c0.3,0.7,0.5,1.3,0.6,1.8c0.1,0.5,0.1,0.8-0.1,0.9c-0.2,0.1-0.4-0.1-0.8-0.5c-0.3-0.4-0.7-1-1-1.6
							c-0.3-0.7-0.5-1.3-0.6-1.8c-0.1-0.5-0.1-0.8,0.1-0.9C533.1,58.3,533.4,58.4,533.7,58.9z"/>
						<path id="XMLID_167_" class="st65" d="M534.5,62.2c0,0,0-0.1,0-0.1c-0.1-0.2-0.1-0.4-0.1-0.5c0,0,0-0.1,0-0.1
							c0-0.1,0.1-0.1,0.2-0.1c0.1,0,0.2,0.1,0.3,0.2c0.1,0.2,0.2,0.3,0.3,0.6c0.1,0.2,0.1,0.4,0,0.5c0,0.2-0.1,0.2-0.2,0.3
							c-0.1,0-0.2-0.1-0.4-0.3C534.6,62.4,534.5,62.3,534.5,62.2z"/>
						<path id="XMLID_166_" class="st66" d="M534.4,61.4c0,0,0,0.1,0,0.1c0,0.1,0,0.3,0.1,0.5c0,0,0,0.1,0,0.1c0,0,0,0-0.1,0
							c-0.1,0-0.2,0-0.4-0.3c-0.2-0.2-0.4-0.5-0.5-0.9c-0.2-0.4-0.3-0.7-0.3-1c0-0.1,0-0.2,0-0.3c0.1,0.1,0.2,0.2,0.3,0.1
							c0.1,0,0.1-0.1,0.2-0.2c0,0,0,0.1,0.1,0.1c0.2,0.2,0.4,0.5,0.5,0.9C534.3,61,534.4,61.2,534.4,61.4z"/>
					</g>
					<path id="XMLID_164_" class="st48" d="M534.1,62.2c0.5,1.4,1,2.1,1.4,2c0.8-0.3,0.8-1.5,0-3.7c0,0.1-0.1,0.2-0.1,0.3
						C535.1,61.6,534.7,62,534.1,62.2z"/>
				</g>
			</g>
			<path id="XMLID_161_" class="st48" d="M540.5,70.2c0.6,1.7,1.5,3.3,2.5,4.8c0.4,0.1,0.8,0,1-0.2c-0.5-1.7-1.2-3.4-2-5
				C541.3,69.6,540.8,69.7,540.5,70.2z"/>
			<g id="XMLID_147_">
				<path id="XMLID_160_" class="st48" d="M542,66.5l-0.2-0.2c-0.1-0.1-0.2-0.1-0.3-0.1c0,0-0.1,0-0.1,0.1l0.3,0.6l-0.2,1.1l0-0.9
					c0-0.1,0-0.2,0-0.3l-0.2-0.3c-0.1-0.1-0.2,0-0.3,0c-0.1,0.1-0.1,0.2-0.1,0.3l0.1,0.2l-0.1,0.8c-0.3,0.7-0.4,1.5-0.4,2.4
					c0.6,0.2,1.1,0.2,1.8,0.2c0.1-0.1,0.2-0.3,0.3-0.4c0.3-0.5,0.6-1.1,0.8-1.7l0.4-1.2v-0.1l0-1.7c-0.3,0-0.5,0.2-0.6,0.7v0.9
					l-0.3,0.6c-0.1,0.2-0.2,0.2-0.2,0l-0.1-1.2l-0.5-1c-0.1-0.1-0.2-0.2-0.3-0.1c-0.1,0-0.1,0.1-0.2,0.2l0.7,1.2l-0.1,1.2v-1.1
					C542.1,66.7,542.1,66.6,542,66.5L542,66.5z"/>
				<path id="XMLID_156_" class="st49" d="M541.6,65.3c0,0.1,0,0.2,0.1,0.3l0.4,0.8l0,0c0,0.1,0.1,0.2,0.1,0.3v1.1l0.1-1.2
					L541.6,65.3z M542.5,69.9c0.4-0.3,0.7-0.7,0.9-1.2c0.1-0.2,0.1-0.4,0.2-0.6c0,0,0-0.1,0.1-0.1c0,0,0,0,0,0
					c0.1-0.1,0.1-0.2,0.1-0.3c0,0,0-0.1,0-0.1c0-0.2,0.1-0.4,0.1-0.7c-0.1,0-0.1,0-0.2,0v0.1l-0.4,1.2
					C543.1,68.8,542.8,69.4,542.5,69.9z M541.3,66.4l0.2,0.3c0,0.1,0.1,0.2,0,0.3l0,0.9l0.2-1.1l-0.3-0.6
					C541.3,66.2,541.3,66.3,541.3,66.4z"/>
				<path id="XMLID_148_" class="st67" d="M543.8,66.9l0-1.7c-0.3,0-0.5,0.2-0.6,0.7v0.9l-0.3,0.6c-0.1,0.2-0.2,0.2-0.2,0l-0.1-1.2
					l-0.5-1c-0.1-0.1-0.2-0.2-0.3-0.1c-0.1,0-0.1,0.1-0.2,0.2c0,0.1,0,0.2,0.1,0.3l0.4,0.8l-0.2-0.2c-0.1-0.1-0.2-0.1-0.3-0.1
					c0,0-0.1,0-0.1,0.1c0,0-0.1,0.1-0.1,0.2c-0.1-0.1-0.2,0-0.3,0c-0.1,0.1-0.1,0.2-0.1,0.3l0.1,0.2l-0.1,0.8
					c-0.3,0.7-0.4,1.5-0.4,2.4 M542.3,70.3c0.1-0.1,0.2-0.3,0.3-0.4c0.4-0.3,0.7-0.7,0.9-1.2c0.1-0.2,0.1-0.4,0.2-0.6
					c0,0,0-0.1,0.1-0.1c0,0,0,0,0,0c0.1-0.1,0.1-0.2,0.1-0.3c0,0,0-0.1,0-0.1c0-0.2,0.1-0.4,0.1-0.7c-0.1,0-0.1,0-0.2,0"/>
			</g>
		</g>
		<g id="XMLID_4_">
			<g id="XMLID_130_">
				<g id="XMLID_143_">
					<path id="XMLID_145_" class="st29" d="M464.8,71.8c0.2,0.7,0.3,1.5,0.4,2.4l1.6,0.2c0.1-0.9,0-1.8-0.3-2.5
						C465.9,71.9,465.4,71.9,464.8,71.8z"/>
					<path id="XMLID_144_" class="st30" d="M464.8,71.8c-2.2-0.1-4.1-0.1-5.9,0c-0.5,0.6-0.6,1.1,0,1.6l6.4,0.8
						C465.2,73.4,465,72.6,464.8,71.8z"/>
				</g>
				<g id="XMLID_136_">
					<path id="XMLID_140_" class="st30" d="M456.3,72.9l3,0.6c0.7-0.2,1-0.7,0.7-1.4c-0.9-0.7-2-1.2-3.2-1.5
						C456.3,71.2,456.2,72,456.3,72.9z M458.5,73.3c0.1-0.3,0.4-0.5,0.8-0.6c-0.2,0.2-0.4,0.4-0.5,0.7L458.5,73.3z"/>
					<path id="XMLID_139_" class="st29" d="M458.5,73.3l0.4,0.1c0.1-0.3,0.3-0.5,0.5-0.7C458.9,72.8,458.7,73,458.5,73.3z"/>
					<path id="XMLID_138_" class="st31" d="M454.8,72.6c-0.1-0.8,0.1-1.6,0.4-2.3c-1.6-0.3-3.3-0.5-5.2-0.6
						c-0.3-0.1-0.8-0.2-1.3-0.4c-0.3,0.7-0.3,1.4-0.1,1.9L454.8,72.6z"/>
					<path id="XMLID_137_" class="st32" d="M455.2,70.3c-0.3,0.8-0.5,1.5-0.4,2.3l1.4,0.3c-0.1-0.9,0.1-1.6,0.4-2.3
						c-0.1,0-0.2,0-0.3-0.1C456,70.4,455.6,70.3,455.2,70.3z"/>
				</g>
				<g id="XMLID_131_">
					<path id="XMLID_133_" class="st33" d="M447.7,71.7c0.3-0.1,0.6-0.1,0.8-0.1c0.1-0.4,0.1-0.7,0-1c-0.2-0.1-0.5,0-0.8,0.2
						C447.7,71.1,447.8,71.4,447.7,71.7z M443.9,73.9c1.3-2.4,2.9-4.4,4.7-5.9c-0.2-0.2-0.5-0.4-0.7-0.6c-1.6,2.1-3.1,4.2-4.3,6.4
						C443.7,73.7,443.8,73.8,443.9,73.9z"/>
					<path id="XMLID_132_" class="st34" d="M448.7,67.9c-1.9,1.5-3.4,3.5-4.7,5.9c0.8,0.4,1.6,0.3,2.3-0.3c0.3-0.4,0.5-0.8,0.6-1.4
						c0.2-0.2,0.4-0.4,0.6-0.4c0.1,0,0.1,0,0.2-0.1c0.1-0.3,0.1-0.6,0-1c0.3-0.2,0.6-0.2,0.8-0.2c0.2,0.3,0.2,0.7,0,1
						c0.2,0,0.3,0.1,0.5,0.2c0.3-0.3,0.4-0.7,0.3-1.1c-0.2-0.4-0.4-0.7-0.4-0.9c0-0.2,0.1-0.3,0.3-0.3c0.2,0,0.4,0,0.7,0.2
						c0.2,0.1,0.4,0.2,0.4,0.1C449.8,69.1,449.3,68.5,448.7,67.9z"/>
				</g>
			</g>
			<g id="XMLID_127_">
				<path id="XMLID_129_" class="st48" d="M478.2,64.6c0.2,1.4,0.9,2.4,1.9,3.2c-0.1,0.1-0.2,0.2-0.4,0.3c-0.1,0.2-0.3,0.3-0.4,0.5
					c-0.2,0.3-0.4,0.6-0.5,0.9c-1.4-0.5-2.1-1.4-2.2-2.4L478.2,64.6z"/>
				<path id="XMLID_128_" class="st49" d="M480.1,67.8c-1-0.8-1.6-1.8-1.9-3.2l1.6-2.5c1.1,1,1.7,2.1,1.7,3.6c0,0.3,0,0.7-0.1,1.1
					C480.9,67.1,480.4,67.4,480.1,67.8z"/>
			</g>
			<g id="XMLID_116_">
				<g id="XMLID_124_">
					<path id="XMLID_126_" class="st35" d="M479.6,71.3c-0.4,0.2-0.8,0.4-1.1,0.7c0.1,0.2,0.2,0.4,0.3,0.6c0.3,0.6,0.6,1.1,0.9,1.6
						c0.4,0.1,0.7-0.1,1-0.5C480.3,73,480,72.2,479.6,71.3z"/>
					<path id="XMLID_125_" class="st36" d="M479.6,71.3c-0.1-0.3-0.2-0.5-0.3-0.8c-0.5-0.2-0.9-0.1-1.2,0.4c0.1,0.4,0.2,0.7,0.4,1.1
						C478.8,71.7,479.2,71.5,479.6,71.3z"/>
				</g>
				<g id="XMLID_121_">
					<path id="XMLID_123_" class="st37" d="M479.6,70.3l0.2,0.5c-1,0.6-1.9,0.8-2.9,0.5l0-0.6h0c0,0,0,0,0,0
						C477.7,70.9,478.6,70.7,479.6,70.3z"/>
					<path id="XMLID_122_" class="st38" d="M479.6,70.3c-1,0.5-1.9,0.6-2.7,0.4c0,0,0,0,0,0l-0.3-2.8c0.1-0.5,0.3-0.8,0.6-1
						c0.5-0.1,1,0.1,1.4,0.5L479.6,70.3z"/>
				</g>
				<path id="XMLID_120_" class="st35" d="M479.5,73.3c2.3-0.2,4.2-0.2,5.5-0.1c0.3,0.5,0.3,0.9,0,1.3c-1.8,0-3.6-0.1-5.4-0.3
					C479.5,73.9,479.4,73.6,479.5,73.3z"/>
				<g id="XMLID_117_">
					<path id="XMLID_119_" class="st68" d="M487.5,74c-0.3,0-0.5-0.1-0.5-0.2c0,0,0-0.1,0.1-0.2c0,0,0-0.1,0.1-0.1
						c0.2,0,0.4-0.1,0.6-0.1c-0.3,0-0.5,0.1-0.6,0.3c0,0,0,0,0,0C487.3,73.9,487.4,73.9,487.5,74z"/>
					<path id="XMLID_118_" class="st35" d="M487.8,73.5c-0.2,0-0.4,0-0.6,0.1c-0.1,0-0.1,0.1-0.1,0.1c-0.1,0.1-0.1,0.1-0.1,0.2
						c0,0.1,0.2,0.1,0.5,0.2l0.1,0c0.1,0,0.2,0,0.4,0c0.2,0,0.3,0,0.5,0.2c0.2,0.2,0.2,0.3,0.1,0.5c-0.1,0-0.2,0-0.4-0.1
						c-0.1,0-0.2,0-0.3,0c-0.2,0-0.4,0.1-0.7,0.1c0,0-0.1,0-0.1,0c-0.8,0-1.6,0-2.4-0.2l0.2-1.2c0.1,0,0.2,0,0.2-0.1
						c0.4-0.1,0.8-0.2,1.2-0.3c0.3-0.1,0.7-0.1,1-0.2c0.5,0,1,0.1,1.3,0.2c0.4,0.2,0.8,0.4,1.1,0.5c0,0,0,0,0,0c0,0,0,0,0,0
						c0.2,0.1,0.2,0.2,0,0.3c-0.1,0-0.1,0.1-0.2,0.1l0,0c-0.1,0-0.2,0-0.4-0.1c-0.2-0.1-0.6-0.2-0.9-0.4
						C488.1,73.5,487.9,73.4,487.8,73.5z"/>
				</g>
			</g>
			<g id="XMLID_104_">
				<g id="XMLID_113_">
					<path id="XMLID_115_" class="st48" d="M465.4,72c-2.2,0.1-4.1,0.3-5.9,0.6c-0.5,0.6-0.4,1.2,0.2,1.6l6.4,0.1
						C465.9,73.5,465.7,72.7,465.4,72z"/>
					<path id="XMLID_114_" class="st50" d="M465.4,72c0.3,0.7,0.5,1.5,0.7,2.3l1.6,0c0-0.9-0.2-1.7-0.6-2.4
						C466.5,71.9,466,71.9,465.4,72z"/>
				</g>
				<g id="XMLID_110_">
					<path id="XMLID_112_" class="st51" d="M465.1,73.9c0,0-0.1-0.1-0.1-0.1c-0.3-0.5-0.5-1.3-0.6-2.3c0.5,0,1-0.1,1.5-0.5l0,0
						c0,0,0,0,0,0c0,0,0,0,0,0c0.6-0.5,1.3-0.7,2.3-0.8c0.6-0.1,1.3,0,2.1,0.1c0,0.2-0.1,0.4-0.1,0.7c-0.1,1.2,0,2.3,0.4,3.4
						C467.5,74.6,465.6,74.5,465.1,73.9z"/>
					<path id="XMLID_111_" class="st32" d="M465.1,73.9c0.5,0.6,2.4,0.7,5.6,0.3c-0.3-1.1-0.5-2.2-0.4-3.4c0-0.2,0-0.4,0.1-0.7
						c0.1,0,0.1,0,0.2,0c0.9,0.2,1.5,0.2,2-0.1c0.3,1.5,0,3-0.8,4.4c-3.1,0.3-5.1,0.3-6,0.1C465.6,74.5,465.3,74.2,465.1,73.9z"/>
				</g>
				<g id="XMLID_105_">
					<path id="XMLID_109_" class="st48" d="M477.4,71.5c0.3-0.5,0.5-0.9,0.7-1.4c0.5-1.2,0.6-2.3,0.4-3.4l0.4,0.1l0,0l0.2,0.1
						c0.3,0.3,0.3,0.7,0.2,1.4c0,0,0,0,0,0c-0.3,0.6-0.5,1.2-0.8,1.7c-0.1,0.3-0.3,0.5-0.5,0.8c-0.3,0.4-0.5,0.7-0.8,1
						c0,0-0.1,0.1-0.1,0.1c0,0,0.1-0.1,0.1-0.1C477.2,71.7,477.3,71.6,477.4,71.5z"/>
					<path id="XMLID_108_" class="st52" d="M476.5,66.8c1,0.5,1.3,1.6,1.1,3.2c-0.1,0.5-0.2,1.1-0.4,1.7c0,0.1-0.1,0.1-0.1,0.2
						c-0.5,0.5-1,0.9-1.6,1.3c-1.1,0.7-2.2,1.1-3.6,1.3c-0.6-1.3-1.1-2.8-1.3-4.3c1.4,0.1,2.3,0,2.7-0.6c0.7-1,1.5-1.7,2.2-2.3
						c0.3-0.2,0.5-0.3,0.8-0.5C476.3,66.9,476.4,66.9,476.5,66.8z"/>
					<path id="XMLID_107_" class="st51" d="M478.4,66.7c0.2,1.1,0.1,2.2-0.4,3.4c-0.2,0.5-0.4,0.9-0.7,1.4c0.2-0.5,0.4-0.9,0.6-1.4
						c0.3-1.2,0.4-2.3,0.1-3.5C478.1,66.6,478.3,66.7,478.4,66.7z"/>
					<path id="XMLID_106_" class="st53" d="M478,66.6c0.3,1.2,0.3,2.3-0.1,3.5c-0.1,0.5-0.3,0.9-0.6,1.4c-0.1,0.1-0.1,0.2-0.2,0.3
						c0,0-0.1,0.1-0.1,0.1c0-0.1,0.1-0.1,0.1-0.2c0.2-0.6,0.3-1.2,0.4-1.7c0.3-1.6-0.1-2.7-1.1-3.2c0.1,0,0.3-0.1,0.4-0.1
						C477.3,66.6,477.6,66.6,478,66.6z"/>
				</g>
			</g>
			<g id="XMLID_49_">
				<g id="XMLID_99_">
					<path id="XMLID_101_" class="st69" d="M457.9,62.7c-0.3,0.4-0.6,0.8-0.8,1.4c-0.6,1.4-0.5,2.7,0.1,4c0.2,0.5,0.5,0.9,0.9,1.3
						c0.6,0.6,1.3,1.1,2.2,1.5c4.8,1.3,10-1,15.6-6.8c-0.2-2.8-1.1-4.8-2.6-6.1c-3.7,2.7-8,3.8-12.9,3.3
						C459.4,61.4,458.6,61.9,457.9,62.7z M457.3,69.1c-0.8-1-1.2-2.2-1.2-3.5c0.1-1,0.5-2,1.2-2.9c-0.5-0.6-0.9-1.2-1.1-1.9
						c-2.6,0.8-4,2.4-4.2,5c0.1,2.3,1.3,4.1,3.6,5.3C455.8,70.4,456.4,69.8,457.3,69.1z"/>
					<path id="XMLID_100_" class="st70" d="M457.2,62.7c-0.6,0.9-1,1.9-1.2,2.9c0.1,1.4,0.5,2.6,1.2,3.5c0,0,0.1,0.1,0.2,0.2l0.7,0
						c-0.4-0.4-0.7-0.8-0.9-1.3c-0.6-1.3-0.7-2.7-0.1-4c0.2-0.5,0.5-1,0.8-1.4l-0.6-0.1C457.3,62.6,457.2,62.6,457.2,62.7z"/>
				</g>
				<path id="XMLID_98_" class="st71" d="M492.7,57.1c-0.7-0.2-1.5,0.1-2.4,1l-0.1,0.4c1.1-0.8,2.2-1.1,3.4-0.9
					C493.3,57.4,492.9,57.3,492.7,57.1z"/>
				<g id="XMLID_92_">
					<g id="XMLID_93_">
						<path id="XMLID_95_" class="st49" d="M493.4,55.7l-7-2.2c-2.2,4.5-3.9,9.1-5,13.6c0.9,1.4,2,2.6,3.3,3.8c-2.9-1.6-4.9-3.9-6-7
							c-0.1-0.9-0.2-1.9,0-3c0-0.1,0-0.2,0-0.3c0.4-2.6,1.5-5.9,3.5-9.8c4.7-0.2,8.8,0.9,12.5,3.4C494.3,54.6,493.8,55.2,493.4,55.7
							z M492.2,63.6c-0.3,0.3-0.9,0.6-1.8,0.8l0-0.6L492.2,63.6z"/>
						<path id="XMLID_94_" class="st48" d="M493.4,55.7c-1.4,1.8-2.2,3.6-2.4,5.3c0.2,0.9,0.6,1.7,1.2,2.5c0,0,0,0,0,0.1l-1.8,0.2
							l0,0.6c-1.4,2.5-3.2,4.7-5.6,6.5c-0.1,0-0.1,0-0.1,0c-1.3-1.1-2.4-2.4-3.3-3.8c1.2-4.5,2.8-9.1,5-13.6L493.4,55.7z"/>
					</g>
				</g>
				<path id="XMLID_91_" class="st72" d="M487.1,65.6l-0.2,0c0.2,0.9,0.7,1.4,1.5,1.7l0.2-0.3C487.8,66.7,487.3,66.2,487.1,65.6z"/>
				<path id="XMLID_90_" class="st73" d="M492.7,55.9l-0.2-0.9c-0.4-0.3-1.1-0.6-2.1-0.7c-0.9-0.2-2,0-3,0.5l0.1,0.2
					C489,54.5,490.8,54.8,492.7,55.9z"/>
				<g id="XMLID_86_">
					<path id="XMLID_89_" class="st8" d="M491.1,57.6c-0.5,1.5-1.3,2.9-2.4,4.1c-0.6-0.2-0.9-0.7-1.1-1.5c0-0.1-0.1-0.2-0.1-0.4
						c0-0.6,0.1-1.3,0.4-2.1c0,0,0,0,0-0.1C488.9,57.2,489.9,57.2,491.1,57.6z"/>
					<path id="XMLID_88_" class="st71" d="M487.6,59.9c-0.1-1.1,0-2,0.5-2.9c1.1-0.8,2.3-1.1,3.6-0.8c0.2,0.4,0.4,0.7,0.7,0.8
						c-0.4,0-0.7,0-0.9-0.1c-0.4-0.1-0.8-0.2-1.2-0.2c-0.6,0-1.2,0.2-1.8,0.5c-0.1,0-0.1,0.1-0.2,0.2c-0.1,0.1-0.1,0.2-0.2,0.3
						c0,0,0,0.1,0,0.1C487.7,58.6,487.6,59.3,487.6,59.9z"/>
					<path id="XMLID_87_" class="st62" d="M491.4,56.9c-0.1,0.2-0.1,0.5-0.2,0.8c-1.2-0.4-2.2-0.4-3.1,0.1c0.1-0.1,0.1-0.2,0.2-0.3
						c0.1-0.1,0.2-0.1,0.2-0.2c0.5-0.4,1.1-0.5,1.8-0.5C490.6,56.7,491,56.8,491.4,56.9z"/>
				</g>
				<g id="XMLID_79_">
					<path id="XMLID_82_" class="st74" d="M490.6,57.5c0.2,0.1,0.2,0.4,0,0.9c-0.1,0.5-0.4,1.1-0.7,1.7c-0.4,0.6-0.7,1.2-1.1,1.6
						c-0.4,0.4-0.6,0.5-0.8,0.4c-0.2-0.1-0.2-0.4-0.1-0.9c0.1-0.5,0.4-1.1,0.8-1.7c0.4-0.7,0.7-1.2,1.1-1.5
						C490.2,57.5,490.5,57.4,490.6,57.5z M490.4,57.8c-0.1,0-0.2,0-0.3,0.2c-0.1,0.1-0.2,0.2-0.2,0.4c0,0.1-0.1,0.3-0.1,0.4
						c0.1,0.1,0.1,0.2,0.2,0.3c0.1,0,0.2,0,0.3-0.2c0.1-0.1,0.2-0.2,0.2-0.4c0.1-0.2,0.1-0.3,0.1-0.4
						C490.6,57.9,490.5,57.9,490.4,57.8z M488.8,61.1c0.1-0.2,0.1-0.4,0.1-0.6c0-0.2-0.1-0.2-0.2-0.2c-0.1,0-0.2,0.1-0.3,0.2
						c-0.2,0.1-0.3,0.3-0.3,0.5c-0.1,0.2-0.1,0.4,0,0.5c0,0.2,0.1,0.2,0.2,0.2c0.1,0,0.2-0.1,0.4-0.2
						C488.7,61.4,488.8,61.2,488.8,61.1z"/>
					<path id="XMLID_81_" class="st8" d="M490.4,57.8c0.1,0,0.2,0.1,0.2,0.2c0,0.1,0,0.3-0.1,0.4c0,0.1-0.1,0.3-0.2,0.4
						c-0.1,0.1-0.2,0.2-0.3,0.2c-0.1,0-0.1-0.1-0.2-0.3c0-0.1,0-0.2,0.1-0.4c0-0.2,0.1-0.3,0.2-0.4
						C490.2,57.9,490.3,57.8,490.4,57.8z"/>
					<path id="XMLID_80_" class="st75" d="M488.8,61.1c-0.1,0.2-0.2,0.3-0.3,0.5c-0.1,0.2-0.3,0.2-0.4,0.2c-0.1,0-0.2-0.1-0.2-0.2
						c0-0.2,0-0.3,0-0.5c0.1-0.2,0.2-0.4,0.3-0.5c0.1-0.1,0.2-0.2,0.3-0.2c0.1,0,0.2,0.1,0.2,0.2C489,60.6,488.9,60.8,488.8,61.1z"
						/>
				</g>
				<g id="XMLID_75_">
					<path id="XMLID_78_" class="st76" d="M493.8,42c0,0.1,0,0.1-0.1,0.2c-1.4,2.1-2.8,4.1-4.4,5.9c-1.8,2-3.7,3.8-5.7,5.3l-4.9,13
						c-2.7-0.9-5-2-6.7-3.5l0.6-0.7c2.2-2.8,5.1-6,8.7-9.6l-0.9-2.7c0-0.7,0-1.3,0.1-1.9c0.4-4.6,3-7.3,7.6-8.2
						c1.9-0.2,3.7,0.5,5.5,2.1L493.8,42z"/>
					<path id="XMLID_77_" class="st77" d="M472.1,62.9c-0.9-0.8-1.6-1.6-2.3-2.6c-0.3-0.4-0.5-0.8-0.7-1.2c-0.8-1.6-1.5-3.4-1.9-5.4
						c0-0.1-0.1-0.3-0.1-0.4c-0.4-1.8-0.5-3.5-0.2-5.3c0.2-1.4,0.6-2.7,1.2-4.1c1.7-3.8,4.5-6.5,8.5-8c1.5-0.6,2.9-0.9,4.4-1.1
						c5.2,0.2,9.4,2.6,12.7,7.1c-1.8-1.6-3.6-2.3-5.5-2.1c-4.6,0.9-7.2,3.6-7.6,8.2c-0.1,0.6-0.1,1.2-0.1,1.9l0.9,2.7
						c-3.6,3.6-6.6,6.8-8.7,9.6L472.1,62.9z"/>
					<path id="XMLID_76_" class="st78" d="M493.8,42l-0.2,0c-3.3-4.5-7.5-6.8-12.7-7.1c0.2,0,0.5,0,0.7,0c1.9,0,3.7,0.3,5.5,1
						c0.4,0.1,0.7,0.2,1,0.4c1.3,0.6,2.4,1.3,3.5,2.1c0,0,0.1,0,0.1,0.1l1.8,1.7c0,0,0,0,0,0c0,0,0,0,0,0l0.7,0.9c0,0,0,0,0.1,0.1
						C494.2,41.4,494,41.7,493.8,42z"/>
				</g>
				<g id="XMLID_63_">
					<path id="XMLID_72_" class="st76" d="M457,67.8c0.1-0.6,0.2-1.2,0.2-1.8c0.2-2.6-0.7-5-2.6-7.3c0.2-0.5,0.5-1,0.8-1.5l0,0
						c-0.1,1.6,0.6,3.5,2.3,5.6c0.1,0.1,0.2,0.3,0.4,0.4c0.9,0.9,1.8,1.6,2.9,2.1c1.6,0.7,3.4,0.9,5.4,0.6c2.4-0.4,4.4-1.1,6.2-2.1
						c3.6-2,5.9-5.1,6.9-9.3l1.7,0.1c0.4,10.5-5.9,15.5-19,14.9c-0.2,0-0.4,0-0.6,0c-0.3,0-0.7-0.1-1-0.1c-0.1,0-0.2,0-0.3,0
						c-0.2,0-0.5-0.1-0.7-0.1C458.6,69.1,457.7,68.6,457,67.8z M456,67.7c-0.2,0.1-0.5,0.2-0.7,0.3c-0.9,0.5-1.7,1.1-2.4,1.7
						c2-3.2,2.2-6.6,0.5-10.4c0-0.1,0-0.1,0-0.2c0.1,0,0.2,0,0.4,0c0.1,0,0.2,0,0.2,0c0,0,0.1,0.1,0.1,0.1c1.3,1.7,2,3.4,2.2,5.2
						C456.3,65.6,456.3,66.6,456,67.7z"/>
					<path id="XMLID_71_" class="st79" d="M457,67.8l-1.1,0.1c0-0.1,0-0.2,0.1-0.3c0.3-1,0.4-2.1,0.2-3.1c-0.2-1.7-0.9-3.4-2.2-5.2
						c0,0-0.1-0.1-0.1-0.1c-0.1-0.1-0.1-0.2-0.2-0.2l0.9-0.2c1.9,2.3,2.8,4.7,2.6,7.3C457.2,66.6,457.1,67.2,457,67.8z"/>
					<path id="XMLID_68_" class="st77" d="M479.4,54.6c-1,4.2-3.3,7.3-6.9,9.3c-1.7,1-3.8,1.7-6.2,2.1c-2,0.3-3.8,0.1-5.4-0.6
						c-1.1-0.5-2-1.2-2.9-2.1c-0.1-0.1-0.3-0.3-0.4-0.4c-1.6-2.1-2.4-4-2.3-5.6l0,0c0,0,0,0,0,0c0.1-0.1,0.1-0.2,0.2-0.3
						c0.8-0.9,2-1.4,3.6-1.6l4.6,0.4c1,0,1.9-0.2,2.7-0.8c1.1-0.9,2-2.4,2.5-4.6L479.4,54.6z M451.4,71.4c0.6-1.6,0.6-3.7,0-6.5
						l-0.5-1.7c-0.3-1.8-1-3.4-2-4.8c1.4,0.7,2.8,1,4.4,1c1.7,3.7,1.6,7.2-0.5,10.4c-0.1,0.1-0.2,0.2-0.4,0.3
						C452.1,70.5,451.8,70.9,451.4,71.4z"/>
					<path id="XMLID_65_" class="st78" d="M455.5,57.3c0.1-0.1,0.1-0.2,0.2-0.4c0.2-0.3,0.5-0.5,0.7-0.7c0.8-0.6,1.8-1,3-1.2
						c0.2,0,0.4,0,0.6,0c1.3,0.1,2.6,0.2,3.7,0.2c0.2,0,0.5,0,0.7,0c1.8-0.2,3.4-1.8,4.7-4.7c-0.5,2.2-1.4,3.7-2.5,4.6
						c-0.8,0.6-1.7,0.8-2.7,0.8l-4.6-0.4c-1.6,0.1-2.8,0.6-3.6,1.6C455.6,57.1,455.6,57.2,455.5,57.3z M447.7,57.4
						c1.8,1,3.7,1.6,5.5,1.9c0,0,0.1,0,0.1,0c0,0,0,0.1,0,0.2c-1.6,0-3.1-0.3-4.4-1c1,1.4,1.7,3,2,4.8l-0.2-0.6
						c-0.7-1.9-1.5-3.4-2.4-4.5c-0.1-0.1-0.2-0.2-0.3-0.3C448,57.6,447.8,57.5,447.7,57.4z"/>
					<path id="XMLID_64_" class="st80" d="M451.4,71.4c-1.6-1-3-3.2-4.1-6.7c-0.9-2.9-0.7-5.4,0.4-7.4c0.1,0.1,0.3,0.3,0.4,0.4
						c0.1,0.1,0.2,0.2,0.3,0.3c0.9,1.1,1.7,2.6,2.4,4.5l0.2,0.6l0.5,1.7C452,67.7,452,69.8,451.4,71.4z"/>
				</g>
				<g id="XMLID_58_">
					<path id="XMLID_60_" class="st48" d="M482.2,54.4c-0.8,1.6-1.3,3.2-1.6,4.7c-0.4,0.2-0.7,0.2-1.1,0.1c-1-0.9-1.4-2.1-1.3-3.7
						c0.2-1.1,0.7-1.8,1.3-2.4C480.8,52.4,481.7,52.8,482.2,54.4z M481,53.5c-0.4-0.2-0.9-0.2-1.4,0.2c-0.3,0.3-0.4,0.6-0.4,0.9
						c0.5-0.5,0.9-0.6,1.3-0.3c0.4,0.3,0.7,0.7,0.7,1.4c-0.3-0.4-0.7-0.7-1.1-0.7c-0.4,0-0.8,0.4-0.9,1c0,1,0.5,1.7,1.5,2l1.1-3
						C481.7,54.3,481.4,53.8,481,53.5z"/>
					<path id="XMLID_59_" class="st49" d="M481,53.5c0.5,0.3,0.7,0.8,0.8,1.5l-1.1,3c-1-0.4-1.5-1.1-1.5-2c0.2-0.6,0.5-0.9,0.9-1
						c0.4,0,0.8,0.3,1.1,0.7c-0.1-0.7-0.3-1.2-0.7-1.4c-0.4-0.3-0.9-0.2-1.3,0.3c0-0.3,0.1-0.6,0.4-0.9
						C480.1,53.3,480.6,53.3,481,53.5z"/>
				</g>
				<g id="XMLID_51_">
					<path id="XMLID_57_" class="st77" d="M486.3,52.5c-0.5,1-0.9,2-1.3,3c-2.9,7.1-4.4,13.4-4.5,19c-2-4.8-2-10.6,0-17.5
						c0.6-1.8,1.2-3.6,1.9-5.5c-1-2.5-0.7-5.3,1-8.4c1.2-1.6,2.6-2.6,4.2-3c0.2,0,0.4-0.1,0.5-0.1c3.8,0.5,6.9,2,9.3,4.3
						c2.4,2.4,3.5,5.3,3.3,8.9c-0.4,1.2-0.9,2.5-1.7,3.9c-0.5-0.2-0.9-0.4-1.4-0.6c0.2-0.8,0.4-1.7,0.5-2.6l-1.5,2.1
						c-1.3-0.5-2.7-1.1-4-1.6c-0.1-1.9,0-4,0.2-6.4l-2.8,5.6c-0.8-0.3-1.6-0.5-2.5-0.7c-0.2-0.6-0.3-1.3-0.3-2.2
						C486.8,51.2,486.6,51.9,486.3,52.5z"/>
					<path id="XMLID_53_" class="st76" d="M497.6,56.3c-0.4-0.2-0.7-0.3-1.1-0.5l1.5-2.1C498,54.7,497.8,55.5,497.6,56.3z
						 M489.9,53.5l2.8-5.6c-0.3,2.4-0.3,4.6-0.2,6.4C491.6,54,490.8,53.7,489.9,53.5z M486.3,52.5c0.3-0.6,0.6-1.2,0.9-1.9
						c0,0.9,0.1,1.6,0.3,2.2C487.1,52.7,486.7,52.6,486.3,52.5z"/>
					<path id="XMLID_52_" class="st78" d="M500.7,53c0.2-3.5-0.8-6.5-3.3-8.9c-2.4-2.3-5.5-3.8-9.3-4.3c1.5-0.3,3.3-0.1,5.2,0.5
						c2.8,0.9,5,2.7,6.6,5.2c0.7,1.3,1.1,2.9,1.1,4.8C501.1,51.2,501,52.1,500.7,53z"/>
				</g>
				<path id="XMLID_50_" class="st48" d="M488.8,61.8c-1.8,2.6-2.2,2-1.2-1.9c0,0.1,0,0.3,0.1,0.4C487.9,61,488.2,61.5,488.8,61.8z"
					/>
			</g>
			<g id="XMLID_42_">
				<g id="XMLID_46_">
					<path id="XMLID_48_" class="st48" d="M478.1,72c0.1,0.2,0.2,0.4,0.3,0.6c0.3,0.6,0.6,1.1,0.9,1.6c0.4,0.1,0.7-0.1,1-0.5
						c-0.4-0.8-0.7-1.6-1-2.4C478.8,71.5,478.4,71.7,478.1,72z"/>
					<path id="XMLID_47_" class="st49" d="M478.1,72c0.3-0.3,0.6-0.6,1.1-0.7c-0.1-0.3-0.2-0.5-0.3-0.8c-0.5-0.2-0.9-0.1-1.2,0.4
						C477.8,71.3,478,71.7,478.1,72z"/>
				</g>
				<g id="XMLID_43_">
					<path id="XMLID_45_" class="st56" d="M476.4,70.7C476.4,70.7,476.4,70.7,476.4,70.7c0.9,0.2,1.8,0.1,2.8-0.4l-1-2.9
						c-0.4-0.4-0.9-0.6-1.4-0.5c-0.3,0.2-0.5,0.5-0.6,1L476.4,70.7z"/>
					<path id="XMLID_44_" class="st32" d="M479.1,70.3c-1,0.5-1.9,0.6-2.7,0.4c0,0,0,0,0,0l0,0l0.1,0.7c1,0.2,1.9,0,2.9-0.5
						L479.1,70.3z"/>
				</g>
			</g>
			<path id="XMLID_41_" class="st48" d="M482.7,69.8c-0.6,1.7-1.5,3.3-2.5,4.8c-0.4,0.1-0.8,0-1-0.2c0.5-1.7,1.2-3.4,2-5
				C481.9,69.2,482.4,69.3,482.7,69.8z"/>
			<g id="XMLID_17_">
				<path id="XMLID_40_" class="st48" d="M481.7,64.9l-0.6,1.2l0.1,1.2v-1.1c0-0.1,0-0.2,0.1-0.3l0,0l0.2-0.2
					c0.1-0.1,0.2-0.1,0.3-0.1c0,0,0.1,0,0.1,0.1l-0.3,0.6l0.2,1.1l0-0.9c0-0.1,0-0.2,0-0.3l0.2-0.3c0.1,0,0.2,0,0.3,0
					s0.1,0.2,0.1,0.3l-0.1,0.2l0.1,0.8c0.3,0.7,0.4,1.5,0.4,2.5c-0.6,0.2-1.1,0.2-1.8,0.2c-0.1-0.1-0.2-0.3-0.3-0.4
					c-0.3-0.5-0.6-1.1-0.8-1.7l-0.4-1.2v-0.1l0-1.7c0.4,0,0.5,0.2,0.6,0.7v0.9l0.3,0.6c0.1,0.2,0.2,0.2,0.2,0l0.1-1.2l0.5-1
					c0.1-0.1,0.2-0.2,0.3-0.1C481.6,64.8,481.6,64.8,481.7,64.9z"/>
				<path id="XMLID_36_" class="st49" d="M480.7,69.5c-0.4-0.3-0.7-0.7-0.9-1.2c-0.1-0.2-0.1-0.4-0.2-0.5c0,0,0-0.1-0.1-0.1
					c0,0,0,0,0,0c-0.1-0.1-0.1-0.2-0.1-0.3c0,0,0,0,0-0.1c0-0.2-0.1-0.4-0.1-0.7c0.1,0,0.1,0,0.2,0v0.1l0.4,1.2
					C480.1,68.4,480.4,69,480.7,69.5z M481.9,66l-0.2,0.3c0,0.1-0.1,0.2,0,0.3l0,0.9l-0.2-1.1l0.3-0.6
					C481.9,65.8,481.9,65.9,481.9,66z M481.2,66.1L481.2,66.1c-0.1,0.1-0.1,0.2-0.1,0.3v1.1l-0.1-1.2l0.6-1.2c0,0.1,0,0.2-0.1,0.3
					L481.2,66.1z"/>
				<path id="XMLID_28_" class="st67" d="M479.5,66.5l0-1.7c0.4,0,0.5,0.2,0.6,0.7v0.9l0.3,0.6c0.1,0.2,0.2,0.2,0.2,0l0.1-1.2l0.5-1
					c0.1-0.1,0.2-0.2,0.3-0.1c0.1,0,0.1,0.1,0.2,0.2c0,0.1,0,0.2-0.1,0.3l-0.4,0.8l0.2-0.2c0.1-0.1,0.2-0.1,0.3-0.1
					c0,0,0.1,0,0.1,0.1c0,0,0.1,0.1,0.1,0.2c0.1,0,0.2,0,0.3,0s0.1,0.2,0.1,0.3l-0.1,0.2l0.1,0.8c0.3,0.7,0.4,1.5,0.4,2.5 M481,69.9
					c-0.1-0.1-0.2-0.3-0.3-0.4c-0.4-0.3-0.7-0.7-0.9-1.2c-0.1-0.2-0.1-0.4-0.2-0.5c0,0,0-0.1-0.1-0.1c0,0,0,0,0,0
					c-0.1-0.1-0.1-0.2-0.1-0.3c0,0,0,0,0-0.1c0-0.2-0.1-0.4-0.1-0.7c0.1,0,0.1,0,0.2,0"/>
			</g>
			<g id="XMLID_5_">
				<g id="XMLID_10_">
					<path id="XMLID_14_" class="st48" d="M459.4,73.9l-0.2-0.3c0.3-0.2,0.6-0.1,1,0.1C459.9,73.7,459.6,73.7,459.4,73.9z
						 M457.7,71.8l1.9,2.3c0.7,0.3,1.2,0.1,1.4-0.7c-0.3-1.1-0.8-2.2-1.5-3.2C458.8,70.6,458.2,71.1,457.7,71.8z"/>
					<path id="XMLID_13_" class="st49" d="M459.4,73.9c0.2-0.1,0.5-0.2,0.8-0.2c-0.4-0.2-0.8-0.2-1-0.1L459.4,73.9z"/>
					<path id="XMLID_12_" class="st51" d="M458.5,69.1c-0.8,0.4-1.4,0.9-1.8,1.5l0.9,1.2c0.5-0.7,1.1-1.2,1.8-1.5
						c-0.1-0.1-0.1-0.2-0.2-0.3C459,69.7,458.8,69.4,458.5,69.1z"/>
					<path id="XMLID_11_" class="st8" d="M456.7,70.6c0.4-0.7,1-1.2,1.8-1.5c-1-1.2-2.2-2.5-3.6-3.8c-0.2-0.3-0.4-0.6-0.8-1.1
						c-0.7,0.4-1.1,0.8-1.3,1.4L456.7,70.6z"/>
				</g>
				<g id="XMLID_6_">
					<path id="XMLID_9_" class="st54" d="M453,66.9c0.2,0.1,0.3,0.2,0.4,0.3c0.4-0.2,0.6-0.6,0.6-1c-0.1-0.4-0.2-0.8-0.1-0.9
						c0-0.2,0.2-0.2,0.4-0.2c0.2,0,0.4,0.2,0.6,0.4c0.2,0.2,0.3,0.3,0.4,0.2c-0.2-0.7-0.6-1.4-1-2.2c-2.2,0.9-4.3,2.3-6.3,4.3
						c0.7,0.6,1.5,0.7,2.3,0.4c0.4-0.3,0.8-0.7,1-1.2c0.3-0.1,0.5-0.2,0.7-0.2c0.1,0,0.1,0,0.2,0c0.2-0.2,0.2-0.5,0.2-0.9
						c0.4-0.1,0.6-0.1,0.8,0.1C453.4,66.3,453.3,66.6,453,66.9z"/>
					<path id="XMLID_8_" class="st33" d="M452.3,66.7c0.3,0,0.6,0.1,0.8,0.2c0.2-0.3,0.3-0.6,0.3-1c-0.2-0.2-0.5-0.2-0.8-0.1
						C452.5,66.2,452.4,66.5,452.3,66.7z"/>
					<path id="XMLID_7_" class="st55" d="M454.3,63.5c-0.2-0.3-0.3-0.5-0.5-0.8c-2.2,1.5-4.2,3.1-6,4.8c0.1,0.1,0.2,0.2,0.3,0.3
						C450,65.8,452.1,64.3,454.3,63.5z"/>
				</g>
			</g>
		</g>
	</g>
</g>
</svg>
