<?xml version="1.0" encoding="utf-8"?>
<!-- Generator: Adobe Illustrator 19.0.0, SVG Export Plug-In . SVG Version: 6.00 Build 0)  -->
<svg version="1.1" id="图层_1" xmlns="http://www.w3.org/2000/svg" xmlns:xlink="http://www.w3.org/1999/xlink" x="0px" y="0px"
	 viewBox="392 71 1024 100" style="enable-background:new 392 71 1024 100;" xml:space="preserve">
<style type="text/css">
	.st0{fill:#081842;}
	.st1{fill:url(#SVGID_1_);}
	.st2{fill:url(#SVGID_2_);}
	.st3{fill:#183262;}
	.st4{fill:#0F2142;}
	.st5{fill:#726841;}
	.st6{fill:#8EBB42;}
	.st7{fill:#11264E;}
	.st8{fill:#0B1B33;}
	.st9{fill:#FFFFFF;}
	.st10{fill:#152E5B;}
	.st11{fill:#E17638;}
	.st12{fill:#EB9D3F;}
	.st13{fill:#5FAADB;}
	.st14{fill:#459A57;}
	.st15{fill:#7D848B;}
	.st16{fill:#802A7C;}
	.st17{fill:#DA423E;}
	.st18{fill:#FCB5A0;}
	.st19{fill:#F98E75;}
	.st20{fill:#E9DFDF;}
	.st21{fill:#351504;}
	.st22{fill:#1C1313;}
	.st23{fill:#432A2A;}
	.st24{fill:#4F2006;}
	.st25{fill:#5F2324;}
	.st26{fill:#BD4A4D;}
	.st27{fill:#F08F31;}
	.st28{fill:#51261B;}
	.st29{fill:#853825;}
	.st30{fill:#A66C35;}
	.st31{fill:#C7690E;}
	.st32{fill:#ECAC99;}
	.st33{fill:#E2846E;}
	.st34{fill:#E9E9E9;}
	.st35{fill:#744F2F;}
	.st36{fill:#D6D3D7;}
	.st37{fill:#BBAB9D;}
	.st38{fill:#0B658C;}
	.st39{fill:#CDCDCD;}
	.st40{fill:#37A6D7;}
	.st41{fill:#208CBB;}
	.st42{fill:#8DD2F0;}
	.st43{fill:#1B9ED7;}
	.st44{fill:#835934;}
	.st45{fill:#E6DFE7;}
	.st46{fill:#CBB8A8;}
	.st47{fill:#E2E2E2;}
	.st48{fill:url(#SVGID_3_);}
	.st49{fill:#FFCC01;}
	.st50{fill:#FFFF00;}
	.st51{fill:url(#SVGID_4_);}
	.st52{fill:#A8772E;}
	.st53{fill:#EEEBEF;}
	.st54{fill:url(#SVGID_5_);}
	.st55{fill:url(#SVGID_6_);}
	.st56{fill:url(#SVGID_7_);}
	.st57{fill:url(#SVGID_8_);}
	.st58{fill:#EC65A9;}
	.st59{fill:url(#SVGID_9_);}
	.st60{fill:url(#SVGID_10_);}
	.st61{fill:#666666;}
	.st62{fill:#333333;}
	.st63{fill:url(#SVGID_11_);}
	.st64{fill:url(#SVGID_12_);}
	.st65{fill:url(#SVGID_13_);}
	.st66{fill:url(#SVGID_14_);}
	.st67{fill:url(#SVGID_15_);}
	.st68{fill:url(#SVGID_16_);}
	.st69{fill:url(#SVGID_17_);}
	.st70{fill:url(#SVGID_18_);}
	.st71{fill:#8E5F18;}
	.st72{fill:#D48E25;}
	.st73{fill:url(#SVGID_19_);}
	.st74{fill:url(#SVGID_20_);}
	.st75{fill:url(#SVGID_21_);}
	.st76{fill:url(#SVGID_22_);}
	.st77{fill:url(#SVGID_23_);}
	.st78{fill:url(#SVGID_24_);}
	.st79{fill:url(#SVGID_25_);}
	.st80{fill:#805617;}
	.st81{fill:url(#SVGID_26_);}
	.st82{fill:url(#SVGID_27_);}
	.st83{fill:url(#SVGID_28_);}
	.st84{fill:url(#SVGID_29_);}
	.st85{fill:url(#SVGID_30_);}
	.st86{fill:url(#SVGID_31_);}
	.st87{fill:url(#SVGID_32_);}
	.st88{fill:url(#SVGID_33_);}
	.st89{fill:url(#SVGID_34_);}
</style>
<rect id="XMLID_1_" x="392" y="71" class="st0" width="1024" height="100"/>
<g>
	
		<linearGradient id="SVGID_1_" gradientUnits="userSpaceOnUse" x1="793.5375" y1="1110.6691" x2="812.2554" y2="1110.6691" gradientTransform="matrix(1.000000e-04 -1 -1 1.000000e-03 1681.2397 914.4946)">
		<stop  offset="0" style="stop-color:#183262"/>
		<stop  offset="4.705880e-02" style="stop-color:#323C56"/>
		<stop  offset="0.1059" style="stop-color:#4E464A"/>
		<stop  offset="0.1725" style="stop-color:#675041"/>
		<stop  offset="0.2471" style="stop-color:#7B573A"/>
		<stop  offset="0.3333" style="stop-color:#8B5D36"/>
		<stop  offset="0.4392" style="stop-color:#966233"/>
		<stop  offset="0.5922" style="stop-color:#9C6432"/>
		<stop  offset="1" style="stop-color:#9E6532"/>
	</linearGradient>
	<path class="st1" d="M588.6,122l-35.9-0.5c1.1-1.5,2.2-3,3.4-4.6c2.5-3.3,4.7-6,6.7-8.2c3.4-3.6,6.1-5.5,8.1-5.5
		c2.6,0,6.3,3.1,11.2,9.4C584.6,115.8,586.8,119,588.6,122z"/>
	
		<linearGradient id="SVGID_2_" gradientUnits="userSpaceOnUse" x1="793.9056" y1="1136.6121" x2="820.5804" y2="1136.6121" gradientTransform="matrix(0 -1 -1 1.000000e-03 1680.7122 914.4946)">
		<stop  offset="0" style="stop-color:#183262"/>
		<stop  offset="3.921570e-03" style="stop-color:#193262"/>
		<stop  offset="5.490200e-02" style="stop-color:#384053"/>
		<stop  offset="0.1137" style="stop-color:#544C48"/>
		<stop  offset="0.1804" style="stop-color:#6D573F"/>
		<stop  offset="0.251" style="stop-color:#826039"/>
		<stop  offset="0.3373" style="stop-color:#916735"/>
		<stop  offset="0.4471" style="stop-color:#9C6C33"/>
		<stop  offset="0.5922" style="stop-color:#A36E32"/>
		<stop  offset="1" style="stop-color:#A46F32"/>
	</linearGradient>
	<path class="st2" d="M544.4,95c3.7,0,9,4.5,16,13.4c3.5,4.5,6.6,8.9,9.3,13.3l-51.2-0.7c1.5-2.1,3.2-4.3,4.9-6.7
		c3.5-4.8,6.7-8.6,9.5-11.6C537.7,97.6,541.5,95,544.4,95z"/>
	<path class="st3" d="M1304.5,118.4c39.8,0.7,77,1.7,111.5,2.9V157l-258.3,7L392,157.3v-38.6c109.4,1.7,222.8,3.1,340.3,4.1
		c235,1.9,372.6,1,413-2.8C1171.8,117.5,1224.9,117,1304.5,118.4z"/>
	<g>
		<path class="st4" d="M471.1,141.8c0,1.6-1.9,3-5.7,4.2c-3.8,1.2-8.4,1.8-13.7,1.8c-5.3,0-9.9-0.6-13.7-1.8
			c-3.8-1.1-5.7-2.5-5.7-4.2c0-1.6,1.9-3,5.7-4.2c3.8-1.2,8.3-1.8,13.7-1.8s9.9,0.6,13.7,1.8S471.1,140.2,471.1,141.8z"/>
		<g>
			<g>
				<path class="st5" d="M446,129c0.4,0.3,0.5,0.8,0.5,1.2v8c0,0.5-0.2,0.9-0.5,1.3c-0.4,0.3-0.8,0.5-1.3,0.5s-0.9-0.2-1.2-0.5
					c-0.4-0.4-0.5-0.8-0.5-1.3v-8c0-0.5,0.2-0.9,0.5-1.2c0.3-0.4,0.8-0.5,1.2-0.5S445.6,128.6,446,129z"/>
				<path class="st6" d="M452.8,125c0,2.3-0.8,4-2.3,5.2c-1.4,1.1-3.3,1.6-5.6,1.6s-4.2-0.5-5.6-1.6c-1.6-1.2-2.4-2.9-2.4-5.2
					c0-2.8,0.8-5.7,2.4-8.9c1.7-3.5,3.6-5.2,5.6-5.2s3.9,1.8,5.6,5.2C452,119.2,452.8,122.2,452.8,125z"/>
			</g>
			<g>
				<path class="st5" d="M457,141.8c0,0.3-0.1,0.5-0.3,0.7c-0.2,0.2-0.5,0.3-0.8,0.3s-0.5-0.1-0.7-0.3s-0.3-0.4-0.3-0.7v-4.4
					c0-0.3,0.1-0.5,0.3-0.7c0.2-0.2,0.4-0.3,0.7-0.3c0.3,0,0.5,0.1,0.8,0.3c0.2,0.2,0.3,0.4,0.3,0.7V141.8z"/>
				<path class="st6" d="M460.5,134.5c0,1.3-0.4,2.2-1.3,2.9c-0.8,0.6-1.8,0.9-3.1,0.9c-1.3,0-2.3-0.3-3.1-0.9
					c-0.9-0.6-1.3-1.6-1.3-2.9c0-1.5,0.4-3.2,1.3-5c0.9-1.9,2-2.9,3.1-2.9s2.2,1,3.1,2.9C460.1,131.3,460.5,132.9,460.5,134.5z"/>
			</g>
		</g>
	</g>
	<path class="st7" d="M524.3,143.2c0-1.9,4.5-3.6,13.6-4.9c9.1-1.4,20-2,32.9-2s23.8,0.7,32.9,2s13.6,3,13.6,4.9s-4.5,3.5-13.6,4.9
		c-9.1,1.3-20.1,2-32.9,2c-12.8,0-23.8-0.7-32.9-2C528.8,146.7,524.3,145.1,524.3,143.2z"/>
	<path class="st7" d="M1058.7,160.8c0,1.1-0.8,2-2.3,2.8c-1.6,0.7-3.5,1.1-5.7,1.1s-4-0.4-5.6-1.1c-1.5-0.8-2.3-1.7-2.3-2.8
		s0.8-2,2.3-2.8c1.6-0.8,3.4-1.1,5.6-1.1s4.1,0.4,5.7,1.1C1058,158.8,1058.7,159.7,1058.7,160.8z"/>
	<path class="st4" d="M1347.3,151.3c39.1-3,62-5.5,68.7-7.4v23.9H392V153c40.7-3.2,88.7-5.6,144.2-7.3
		c110.9-3.4,203.4-1.6,277.4,5.6c107.7,10.5,236.4,13.2,386.1,8C1253.3,157.4,1302.4,154.8,1347.3,151.3z"/>
	<path class="st8" d="M693,161c0,0.6-0.6,1.2-1.9,1.6c-1.3,0.4-2.8,0.6-4.6,0.6c-1.8,0-3.3-0.2-4.6-0.6c-1.3-0.4-1.9-1-1.9-1.6
		s0.6-1.2,1.9-1.6c1.3-0.4,2.8-0.7,4.6-0.7c1.8,0,3.3,0.2,4.6,0.7C692.4,159.9,693,160.4,693,161z"/>
	<path class="st9" d="M1349.5,109.7c0,1.3-0.6,2.4-1.8,3.3c-1.2,0.9-2.6,1.3-4.3,1.3c-1.7,0-3.1-0.4-4.3-1.3c-1.2-0.9-1.8-2-1.8-3.3
		s0.6-2.4,1.8-3.3c1.2-0.9,2.6-1.4,4.3-1.4c1.7,0,3.1,0.5,4.3,1.4C1348.9,107.2,1349.5,108.3,1349.5,109.7z"/>
	<path class="st9" d="M1353.5,105.6c0,1.3-0.6,2.4-1.8,3.4c-1.2,0.9-2.6,1.3-4.3,1.3c-1.7,0-3.1-0.5-4.3-1.3c-1.2-0.9-1.8-2-1.8-3.4
		c0-1.3,0.6-2.4,1.8-3.3c1.2-0.9,2.6-1.4,4.3-1.4c1.7,0,3.1,0.5,4.3,1.4C1353,103.2,1353.5,104.3,1353.5,105.6z"/>
	<path class="st9" d="M1354.5,111.7c0,1.3-0.6,2.4-1.8,3.3c-1.2,0.9-2.6,1.3-4.3,1.3c-1.7,0-3.1-0.4-4.3-1.3c-1.2-0.9-1.8-2-1.8-3.3
		s0.6-2.4,1.8-3.3c1.2-0.9,2.6-1.4,4.3-1.4c1.7,0,3.1,0.5,4.3,1.4C1354,109.2,1354.5,110.3,1354.5,111.7z"/>
	<path class="st9" d="M1360,108c0,1.3-0.6,2.4-1.8,3.3c-1.2,0.9-2.6,1.4-4.3,1.4c-1.7,0-3.1-0.5-4.3-1.4c-1.2-0.9-1.8-2-1.8-3.3
		s0.6-2.4,1.8-3.3c1.2-0.9,2.6-1.4,4.3-1.4c1.7,0,3.1,0.5,4.3,1.4C1359.4,105.5,1360,106.7,1360,108z"/>
	<path class="st9" d="M1363.3,111.3c0,1.3-0.6,2.4-1.8,3.4c-1.2,0.9-2.6,1.3-4.3,1.3c-1.7,0-3.1-0.5-4.3-1.3c-1.2-0.9-1.8-2-1.8-3.4
		c0-1.3,0.6-2.4,1.8-3.3c1.2-0.9,2.6-1.4,4.3-1.4c1.7,0,3.1,0.5,4.3,1.4S1363.3,110,1363.3,111.3z"/>
	<path class="st9" d="M1318,120.8c0,1-0.4,1.8-1.3,2.5s-2,1-3.2,1s-2.3-0.3-3.2-1c-0.9-0.7-1.3-1.5-1.3-2.5s0.5-1.8,1.3-2.5
		c0.9-0.7,1.9-1,3.2-1c1.3,0,2.3,0.3,3.2,1C1317.5,119,1318,119.8,1318,120.8z"/>
	<path class="st9" d="M1321,117.8c0,1-0.4,1.8-1.3,2.5s-2,1-3.2,1s-2.3-0.3-3.2-1c-0.9-0.7-1.3-1.5-1.3-2.5s0.5-1.8,1.3-2.5
		c0.9-0.7,1.9-1,3.2-1c1.3,0,2.3,0.3,3.2,1C1320.5,116,1321,116.8,1321,117.8z"/>
	<path class="st9" d="M1321.7,122.2c0,1-0.4,1.8-1.3,2.5s-2,1-3.2,1s-2.3-0.3-3.2-1c-0.9-0.7-1.3-1.5-1.3-2.5s0.5-1.8,1.3-2.5
		c0.9-0.7,1.9-1,3.2-1c1.3,0,2.3,0.3,3.2,1C1321.3,120.5,1321.7,121.3,1321.7,122.2z"/>
	<path class="st9" d="M1325.7,119.5c0,1-0.4,1.8-1.3,2.5s-2,1-3.2,1s-2.3-0.3-3.2-1c-0.9-0.7-1.3-1.5-1.3-2.5s0.5-1.8,1.3-2.5
		c0.9-0.7,1.9-1,3.2-1c1.3,0,2.3,0.3,3.2,1C1325.3,117.7,1325.7,118.5,1325.7,119.5z"/>
	<path class="st9" d="M1328.2,122c0,1-0.4,1.8-1.3,2.5s-2,1-3.2,1s-2.3-0.3-3.2-1c-0.9-0.7-1.3-1.5-1.3-2.5s0.5-1.8,1.3-2.5
		c0.9-0.7,1.9-1,3.2-1c1.3,0,2.3,0.3,3.2,1C1327.8,120.2,1328.2,121,1328.2,122z"/>
	<path class="st9" d="M613,112c0,1-0.4,1.8-1.3,2.5s-2,1-3.2,1c-1.2,0-2.3-0.3-3.2-1S604,113,604,112s0.4-1.8,1.3-2.5
		c0.9-0.7,2-1,3.2-1c1.3,0,2.3,0.3,3.2,1S613,111,613,112z"/>
	<path class="st9" d="M616,109c0,1-0.4,1.8-1.3,2.5s-2,1-3.2,1c-1.2,0-2.3-0.3-3.2-1S607,110,607,109s0.4-1.8,1.3-2.5
		c0.9-0.7,2-1,3.2-1c1.3,0,2.3,0.3,3.2,1S616,108,616,109z"/>
	<path class="st9" d="M616.8,113.5c0,1-0.4,1.8-1.3,2.5c-0.9,0.7-2,1-3.2,1c-1.2,0-2.3-0.3-3.2-1s-1.3-1.5-1.3-2.5s0.4-1.8,1.3-2.5
		s2-1,3.2-1c1.3,0,2.3,0.3,3.2,1C616.3,111.7,616.8,112.5,616.8,113.5z"/>
	<path class="st9" d="M620.8,110.8c0,1-0.4,1.8-1.3,2.5c-0.9,0.7-2,1-3.2,1c-1.2,0-2.3-0.3-3.2-1s-1.3-1.5-1.3-2.5s0.4-1.8,1.3-2.5
		s2-1,3.2-1c1.3,0,2.3,0.3,3.2,1C620.3,109,620.8,109.8,620.8,110.8z"/>
	<path class="st9" d="M623.3,113.2c0,1-0.4,1.8-1.3,2.5c-0.9,0.7-2,1-3.2,1c-1.2,0-2.3-0.3-3.2-1s-1.3-1.5-1.3-2.5s0.4-1.8,1.3-2.5
		s2-1,3.2-1c1.3,0,2.3,0.3,3.2,1C622.8,111.5,623.3,112.3,623.3,113.2z"/>
	<path class="st4" d="M1302.4,131.9c0,0.6-0.6,1.2-1.9,1.6s-2.8,0.7-4.6,0.7c-1.8,0-3.3-0.2-4.6-0.7s-1.9-1-1.9-1.6s0.6-1.1,1.9-1.6
		s2.8-0.7,4.6-0.7c1.8,0,3.3,0.2,4.6,0.7C1301.8,130.8,1302.4,131.3,1302.4,131.9z"/>
	<g>
		<path class="st5" d="M1297.4,123.7v6.7c0,0.4-0.2,0.8-0.5,1c-0.3,0.3-0.6,0.5-1,0.5s-0.8-0.2-1.1-0.5c-0.3-0.3-0.5-0.6-0.5-1v-6.7
			c0-0.4,0.2-0.8,0.5-1c0.3-0.3,0.7-0.5,1.1-0.5s0.8,0.1,1,0.5C1297.2,122.9,1297.4,123.3,1297.4,123.7z"/>
		<path class="st6" d="M1302.7,119.2c0,1.9-0.7,3.4-2,4.4c-1.2,0.9-2.7,1.3-4.7,1.3s-3.6-0.4-4.8-1.3c-1.3-1-2-2.5-2-4.4
			c0-2.3,0.7-4.8,2-7.5c1.5-2.9,3-4.4,4.8-4.4s3.3,1.5,4.7,4.4C1302,114.5,1302.7,117,1302.7,119.2z"/>
	</g>
	<path class="st10" d="M1252,126c0,1.2-1.4,2.3-4.1,3.2c-2.8,0.9-6.1,1.3-10,1.3s-7.2-0.4-10-1.3c-2.8-0.9-4.1-2-4.1-3.2
		c0-1.3,1.4-2.3,4.1-3.2c2.7-0.9,6-1.3,10-1.3c3.9,0,7.2,0.5,10,1.3C1250.7,123.7,1252,124.8,1252,126z"/>
	<path class="st7" d="M715.3,125.2c2.9,0,5.4,0.3,7.5,1s3.1,1.5,3.1,2.4s-1,1.7-3.1,2.4s-4.6,1-7.5,1s-5.4-0.3-7.5-1
		s-3.1-1.5-3.1-2.4c0-0.9,1-1.7,3.1-2.4C709.9,125.5,712.4,125.2,715.3,125.2z"/>
	<g>
		<path class="st11" d="M1135,115.4l-2.5-5.7c-0.2-0.3-0.1-0.6,0.2-0.8l6-2c0.3-0.1,0.5,0,0.6,0.3l3,6.6c0.1,0.1,0.1,0.3,0,0.4
			c-0.1,0.2-0.2,0.3-0.4,0.3l-6.4,1.1C1135.3,115.7,1135.1,115.6,1135,115.4z"/>
		<path class="st12" d="M1128.3,77.3c0.2-0.2,0.4-0.1,0.5,0.2l3.1,6.7l-4.2,1.5c-0.3,0.1-0.4,0.2-0.2,0.5l2,4.5l-6.4,3l-2.6-5.5
			c-0.1-0.3-0.3-0.3-0.6-0.2l-1.1,0.6l-1.9-4c-0.1-0.2-0.1-0.4,0.2-0.6L1128.3,77.3z"/>
		<path class="st13" d="M1137.8,82.1c0.3-0.1,0.5,0,0.7,0.3l4.5,9.8c0.1,0.3,0.1,0.5-0.2,0.6l-3.9,2.4l-1-2.2
			c-0.1-0.2-0.3-0.3-0.6-0.2l-5.5,2.5l-2.2-4.6l4-1.9c0.3-0.1,0.3-0.3,0.2-0.6l-1.8-4L1137.8,82.1z"/>
		<path class="st14" d="M1131.9,84.2l1.8,4c0.1,0.3,0,0.5-0.2,0.6l-4,1.9l-2-4.5c-0.1-0.3,0-0.5,0.2-0.5L1131.9,84.2z"/>
		<path class="st15" d="M1141.5,100.9c0.1,0.3,0.1,0.5-0.2,0.7l-7.3,5.4c-0.2,0.2-0.4,0.1-0.6-0.2l-4.4-9.7c-0.1-0.3,0-0.5,0.2-0.6
			l2.5-1.1l1.2,2.8c0.2,0.3,0.4,0.4,0.6,0.2l5.2-3.1L1141.5,100.9z"/>
		<path class="st16" d="M1137.2,92.8c0.3-0.1,0.5,0,0.6,0.2l1,2.2l-5.3,3.1c-0.2,0.1-0.4,0-0.6-0.2l-1.2-2.8L1137.2,92.8z"/>
		<path class="st17" d="M1113,92.2c-0.1-0.3,0-0.5,0.2-0.7l6.8-3.5c0.3-0.1,0.5-0.1,0.6,0.2l4.9,10.7c0.1,0.3,0,0.4-0.3,0.5
			l-7.4,2.3c-0.3,0.1-0.5,0-0.7-0.3L1113,92.2z"/>
	</g>
	<g>
		<path class="st4" d="M828.7,141c0,0.7-1.8,1.3-5.5,1.8c-3.6,0.5-8,0.7-13.2,0.7c-5.2,0-9.6-0.2-13.3-0.7c-3.6-0.5-5.4-1.1-5.4-1.8
			s1.8-1.3,5.4-1.8s8-0.7,13.3-0.7c5.2,0,9.5,0.2,13.2,0.7C826.8,139.7,828.7,140.3,828.7,141z"/>
		<g>
			<g>
				<g>
					<path class="st18" d="M814.1,108.7l-0.6,2.4c0.4,1,1.3,1.5,2.9,1.6c0-0.3,0.1-0.6,0.2-1c0.1-0.2,0.1-0.4,0.2-0.5
						c-0.6-0.2-1.1-0.5-1.5-0.9c-0.1-0.1-0.1-0.1-0.2-0.2C814.7,109.7,814.4,109.2,814.1,108.7z"/>
					<path class="st19" d="M814.1,108.7c0.3,0.5,0.6,0.9,1,1.3c0.1,0.1,0.1,0.1,0.2,0.2c0.4,0.4,0.9,0.7,1.5,0.9
						c0.3-0.5,0.7-1.1,1.2-1.8c0-0.4-0.1-0.8-0.2-1.1c-0.4-1.4-1.3-2.4-2.7-2.9L814.1,108.7z"/>
				</g>
				<g>
					<g>
						<path class="st18" d="M824.2,90.1l1.2,2.9l0.8,3.6c0-0.2,0.1-0.3,0.1-0.5c-0.2-2.2-0.8-4.3-1.8-6.2
							C824.4,90,824.3,90.1,824.2,90.1z M813.6,97.6l0.1,4.7c0.3,0.4,0.6,0.9,0.8,1.3c0.1,0.2,0.3,0.4,0.4,0.6c0,1.8,0.3,3.4,1,4.7
							c0.4,0.8,1,1.5,1.6,2.2c0.1,0.1,0.2,0.2,0.4,0.2c0.7,0.4,1.4,0.8,1.9,1l0.1,0.1c0.1,0,0.1,0,0.2,0.1c0.6,0.2,1.1,0.4,1.5,0.5
							c0.9,0.1,1.7-0.6,2.6-2c0.4-0.7,0.8-1.4,1.1-2c0.1-0.3,0.3-0.6,0.4-0.9c0.1-0.2,0.2-0.4,0.2-0.7c0.1-0.2,0.1-0.5,0.2-0.7
							l0.4-2c-0.3,0-0.5-0.2-0.6-0.4l1.7-0.9c-0.5-0.4-1-0.7-1.3-1.2c0,0-0.1-0.1-0.1-0.2c-0.1-0.1-0.1-0.2-0.2-0.3
							c-0.1-0.1-0.1-0.2-0.2-0.4c-0.2-0.5-0.3-1.1-0.2-2c0-0.2,0-0.5,0.1-0.7L825,95l-0.4-0.6v2.4c-1.3-0.7-2.4-1.6-3.2-3
							c-0.6,0.1-1.1,0.3-1.7,0.5C817.5,95.2,815.5,96.2,813.6,97.6L813.6,97.6z"/>
						<path class="st19" d="M826.1,96.6l-0.8-3.6l-1.2-2.9c-4,1.2-7.5,3.4-10.7,6.5v1c0,0,0.1,0,0.1-0.1c1.8-1.3,3.8-2.3,6-3.1
							c0.6-0.2,1.1-0.4,1.7-0.5c0.9,1.3,1.9,2.3,3.2,3v-2.4l0.4,0.6l0.7,3.6c0.1-0.6,0.2-1.2,0.4-1.8
							C826.1,96.8,826.1,96.7,826.1,96.6z M827.7,103.3l-1.7,0.9c0.1,0.3,0.3,0.4,0.6,0.4C827,104.3,827.4,103.9,827.7,103.3z
							 M813.7,102.3l0.1,2.2c0.1,1,0.4,2,0.8,2.8c0.2,0.5,0.5,1.1,0.9,1.5c0.6,0.8,1.3,1.6,2.2,2.2c-0.7-0.6-1.2-1.3-1.6-2.2
							c-0.7-1.3-1-2.8-1-4.7c-0.1-0.2-0.2-0.4-0.4-0.6C814.2,103.2,814,102.7,813.7,102.3z"/>
					</g>
					<g>
						<g>
							<path class="st9" d="M821.3,99.4c1.3-0.1,2.5,0.1,3.5,0.6c0,0.5,0,1-0.1,1.5c0,0.5-0.1,0.9-0.2,1.4c-0.7-0.1-1.4-0.4-2-0.8
								c-0.2-0.2-0.5-0.4-0.7-0.6c-0.1-0.1-0.2-0.2-0.2-0.2l0,0c-0.2-0.3-0.3-0.8-0.3-1.3C821.4,99.7,821.3,99.5,821.3,99.4z"/>
							<path class="st20" d="M824.8,100c-1-0.4-2.2-0.6-3.5-0.6c0-0.3,0-0.6,0-0.9l0,0c1.1-0.3,2.3-0.3,3.5-0.2c0,0.2,0,0.5,0,0.7
								c0,0.3,0,0.5,0,0.8C824.8,99.9,824.8,99.9,824.8,100z"/>
							<path class="st21" d="M821.3,99.4c0,0.2,0,0.3,0,0.5c0.1,0.5,0.2,1,0.3,1.3c-0.3-0.4-0.5-0.8-0.7-1.3
								c-0.1-0.5-0.2-1.1-0.2-1.8c1.4-0.4,2.7-0.5,4-0.3v0.5c-1.2-0.1-2.4-0.1-3.5,0.2l0,0C821.3,98.8,821.3,99.1,821.3,99.4z"/>
						</g>
						<g>
							<path class="st22" d="M823.9,99c-0.1,0.4-0.2,0.8-0.2,1.4c0,0.5,0.1,1,0.2,1.4s0.2,0.6,0.4,0.6c0.2,0,0.3-0.2,0.4-0.6
								s0.2-0.8,0.2-1.4c0-0.5,0-1-0.1-1.4s-0.3-0.6-0.5-0.6C824.1,98.5,824,98.6,823.9,99z M824.3,99c0-0.1,0.1-0.2,0.1-0.2
								c0.1,0,0.1,0,0.2,0.1c0.1,0.1,0.1,0.2,0.1,0.3c0,0.1,0,0.3,0,0.4s-0.1,0.2-0.1,0.2c-0.1,0-0.1,0-0.2-0.1
								c-0.1-0.1-0.1-0.2-0.2-0.3C824.2,99.2,824.2,99.1,824.3,99z M824.3,100.8c0.1,0.1,0.2,0.2,0.2,0.4c0,0.2,0.1,0.3,0,0.5
								c0,0.1-0.1,0.2-0.2,0.2c-0.1,0-0.2,0-0.3-0.1s-0.2-0.2-0.2-0.4c0-0.2,0-0.3,0-0.5c0-0.1,0.1-0.2,0.2-0.2
								C824.1,100.7,824.2,100.7,824.3,100.8z"/>
							<path class="st23" d="M824.3,100.8c-0.1-0.1-0.2-0.1-0.3-0.1s-0.1,0.1-0.2,0.2c0,0.1,0,0.3,0,0.5c0.1,0.2,0.1,0.3,0.2,0.4
								c0.1,0.1,0.2,0.2,0.3,0.1c0.1,0,0.2-0.1,0.2-0.2s0-0.3,0-0.5C824.4,101,824.4,100.9,824.3,100.8z"/>
							<path class="st9" d="M824.3,99c0,0.1,0,0.2,0,0.4c0,0.1,0.1,0.2,0.2,0.3c0.1,0.1,0.1,0.1,0.2,0.1s0.1-0.1,0.1-0.2
								s0-0.2,0-0.4c0-0.1-0.1-0.3-0.1-0.3c-0.1-0.1-0.1-0.1-0.2-0.1C824.3,98.8,824.3,98.9,824.3,99z"/>
						</g>
						<path class="st24" d="M824.2,96.7L824.2,96.7c-0.1-0.1-0.1-0.1-0.2-0.1c-0.1-0.1-0.2-0.2-0.4-0.3c0,0,0,0,0-0.1
							c-0.7-0.4-1.4-0.8-2.3-1.1c-0.1,0-0.2-0.1-0.2-0.1c-0.1,0-0.2-0.1-0.3-0.1l-0.1,0.1c-0.5,0.5-0.8,1.1-1.2,1.8
							c0.2,0,0.4,0.1,0.6,0.2c1,0.2,2.1,0.6,3,1c0.2,0.1,0.4,0.2,0.6,0.3c0.3,0.2,0.7,0.4,1.1,0.6l0,0l0.9-1
							c-0.1-0.1-0.1-0.1-0.2-0.2c-0.1-0.1-0.2-0.2-0.3-0.3C824.9,97.2,824.6,96.9,824.2,96.7z"/>
						<g>
							<path class="st9" d="M825.9,106.8l-0.2,0.8c-0.8,0-1.7-0.4-2.8-1.1l0,0c0.3-0.5,0.7-0.8,0.9-0.8c0.1,0,0.2,0,0.2,0l0,0
								C824.7,106.2,825.3,106.7,825.9,106.8z M824.2,110.7c-0.6,0.2-1.3,0.3-2,0.2c-0.3,0-0.5-0.2-0.5-0.5c0-0.1,0-0.1,0-0.2
								c0-0.2,0-0.4,0.1-0.6c0.9,0.4,1.6,0.6,2.1,0.6c0.1,0,0.1,0,0.2,0h0.1c0.1,0,0.3,0,0.4-0.1L824.2,110.7z"/>
							<path class="st25" d="M822.2,107.7c0.2-0.4,0.4-0.9,0.7-1.3c1.1,0.8,2,1.1,2.8,1.1l0.2-0.8c0.1,0,0.1,0,0.2,0
								c-0.4,1.4-0.9,2.7-1.7,3.8c-0.1,0-0.1,0.1-0.2,0.1l0.4-0.7c0,0,0-0.1-0.1-0.2C824,109,823.2,108.3,822.2,107.7L822.2,107.7z"
								/>
							<path class="st26" d="M824.5,110c-0.1,0-0.3,0.1-0.4,0.1H824c-0.1,0-0.1,0-0.2,0c-0.6,0-1.3-0.2-2.1-0.6
								c0.1-0.6,0.2-1.2,0.5-1.8l0,0c1,0.5,1.7,1.2,2.2,2.1C824.5,109.9,824.5,110,824.5,110z"/>
						</g>
					</g>
					<g>
						<g>
							<g>
								<path class="st27" d="M807.6,107.2L807.6,107.2c0-0.1-0.1-0.2-0.1-0.3l-0.1-0.6c0.4,0.3,0.9,0.5,1.4,0.9l1.5,1l-1,0.1h-0.2
									H809C808.4,108,807.9,107.7,807.6,107.2z"/>
								<path class="st28" d="M809,108.2c-0.3,1.1-0.6,2-1,2.8c-1,1-2.7,1.8-5.2,2.5c0-0.1,0-0.1,0-0.2h0.1c3-0.7,4.5-2.7,4.5-6
									c0.1,0,0.1,0,0.2,0C807.9,107.7,808.4,108,809,108.2z"/>
								<path class="st29" d="M802.9,113.2c0.2-1.4,0.8-2.8,1.6-4.3c0.9-0.8,1.8-1.4,2.9-1.7C807.4,110.6,805.9,112.6,802.9,113.2z"
									/>
							</g>
						</g>
						<g>
							<g>
								<path class="st28" d="M799.8,74.7L799.8,74.7c-0.3,4.1,0,8.1,1.1,11.8l-1.1-1.8l0,0l0,0c-0.4-2.2-0.6-4.4-0.4-6.8
									C799.5,77,799.6,75.9,799.8,74.7z M815.2,80.2l-0.8-3.5h0.1c1.2,2,2,4,2.3,5.9L815.2,80.2L815.2,80.2z M797.5,89.3
									c-0.8-1.9-1-4.1-0.5-6.4h0.1c0.1,3.1,0.6,5.6,1.4,7.8L797.5,89.3L797.5,89.3z M797.6,97.2c0.1,0.2,0.2,0.4,0.3,0.5l0,0
									c2,2.6,4.8,4.2,8.6,4.8l0,0c1.7-2.9,3.6-5.3,5.8-7.2l-0.6,0.2l0.8-1.4c-0.4-0.4-0.8-1.2-1-2.3c0.5,0.8,1.1,1.3,1.9,1.6
									l2.5-1.7c-0.9-1.1-1.6-2.3-2-3.7c1.2,1.4,2.4,2.3,3.5,2.8h0.1h0.1c2.3-1.3,4.3-2.2,5.8-2.7c0.3-0.7,0.8-1.3,1.5-1.8
									c0.2,0.1,0.4,0.3,0.6,0.4c0.4,0.3,0.6,0.5,0.6,0.8c0,0.2,0.1,0.3,0.1,0.5l-3.1,1.6c0.5-0.1,1-0.2,1.5-0.3l1,2.4
									c-2.3,0.6-4.1,1.3-5.2,2.2c-1.2,0.6-2.3,1.2-3.4,1.9c-0.9,0.6-1.7,1.2-2.4,1.8c0.8,4.6,0.6,8.8-0.6,12.5l-0.7-0.2
									c-8.3-2.9-13.4-6.9-15.2-12l0,0l0,0C797.7,97.5,797.7,97.4,797.6,97.2L797.6,97.2z M796,88L796,88c0.4,2.6,1,4.9,1.9,6.7
									h0.1c0.1,0.1,0.1,0.3,0.2,0.4c1,1.8,2.1,3.1,3.2,4.1l0,0l-1.4-0.9l-0.1-0.1c-0.9-0.8-1.8-1.8-2.6-2.9c0-0.1-0.1-0.2-0.1-0.2
									C796.5,93.2,796.1,90.8,796,88z M822,80.3c0.1,0.2,0.3,0.3,0.4,0.5c0.9,1.7,1.2,3.2,1.1,4.2l-0.8-1.8l0,0L822,80.3
									C821.9,80.3,822,80.3,822,80.3z"/>
								<path class="st30" d="M799.8,74.6c8,0.9,13.1,2.8,15.4,5.7l0,0l1.5,2.4C812.1,78.2,806.4,75.5,799.8,74.6L799.8,74.6z
									 M797.1,82.9l2.6,1.8l0,0l1.1,1.8l0,0h-0.1L797.1,82.9z M798.5,90.7l-2.4-2.6l1.4,1.2h0.1L798.5,90.7z M801.4,99.3l-3.4-1.6
									l0,0c-0.1-0.1-0.2-0.3-0.3-0.5l2.4,1.2L801.4,99.3z M822.4,80.8L822.4,80.8c1.9,1.6,3.1,3.6,3.6,6c0,0.2,0,0.5,0,0.7
									c0-0.2-0.2-0.5-0.6-0.8C825,84.5,823.9,82.6,822.4,80.8z M823.5,85c-2.5-3.6-5.5-6.3-9-8.3c3.7,1.6,6.4,3.7,8.1,6.4h0.1l0,0
									L823.5,85z"/>
								<path class="st29" d="M796,88L796,88L796,88L796,88l2.5,2.6c-0.8-2.1-1.3-4.7-1.4-7.8H797v-0.1l0.1,0.1l3.7,3.6h0.1l0,0
									c-1.1-3.8-1.4-7.7-1.1-11.8l0,0v-0.1l0,0v0.1c6.6,0.9,12.3,3.6,17,8c-0.3-1.9-1.1-3.9-2.3-5.9c3.5,2,6.5,4.7,9,8.3
									c0.1-1.1-0.3-2.5-1.1-4.2c-0.1-0.1-0.3-0.3-0.4-0.5c0.2,0.1,0.3,0.3,0.5,0.4h-0.1c1.5,1.8,2.6,3.7,3.1,5.9
									c-0.2-0.1-0.4-0.3-0.6-0.4c-0.6,0.5-1.1,1.1-1.5,1.8c-1.5,0.5-3.5,1.4-5.8,2.7h-0.1h-0.1c-1.1-0.4-2.3-1.3-3.5-2.8
									c0.4,1.4,1,2.6,2,3.7l-2.5,1.7c-0.7-0.3-1.4-0.8-1.9-1.6c0.3,1.1,0.6,1.9,1,2.3l-0.8,1.4l0.6-0.2c-2.2,2-4.1,4.4-5.8,7.2
									l0,0c-3.8-0.6-6.7-2.2-8.6-4.8l3.4,1.6l0,0c-1.2-1-2.3-2.4-3.2-4.1c-0.1-0.1-0.1-0.3-0.2-0.4h-0.1
									C797,92.9,796.4,90.7,796,88L796,88z M797.6,97.2L797.6,97.2L797.6,97.2L797.6,97.2z M814.4,97.6c0.7-0.7,1.5-1.3,2.4-1.8
									c1.1-0.7,2.2-1.3,3.4-1.9l-2.9,4.2l-0.2,4L814.4,97.6z M826.1,88c0.1,1.2,0.2,2.3,0.2,3.5c-0.3,0.1-0.6,0.1-0.9,0.2l-1-2.4
									c-0.5,0.1-1,0.2-1.5,0.3L826.1,88z"/>
							</g>
						</g>
					</g>
					<g>
						<g>
							<path class="st27" d="M805.3,105.7c3.5-6.7,8.6-11.2,15.5-13.5c0.1-1.2,0.4-2.2,0.9-3c-2.2,0.8-3.9,1.5-5,2.1
								c-1.2,0.6-2.1,1.2-2.9,1.7c-0.7,0.5-1.8,1.3-3.1,2.4l0,0c-3.1,3.1-5.2,6.3-6.4,9.6C804.5,105.2,804.9,105.4,805.3,105.7z"/>
							<path class="st31" d="M805.3,105.7c0.1,0,0.1,0,0.2,0.1c0.2,0.1,0.4,0.2,0.6,0.2c1.9-4.2,4.6-7.4,8.2-9.6s7.6-3.8,12-4.8
								c0.1-0.3,0.1-0.6,0.1-0.9c0-0.9-0.2-1.9-0.7-2.9c-1.3,0.4-2.6,0.8-4,1.3c-0.5,0.8-0.8,1.8-0.9,3
								C813.9,94.4,808.8,98.9,805.3,105.7z"/>
						</g>
						<g>
							<path class="st19" d="M815,102.4L815,102.4l-0.4-3.6c-0.7-0.7-1.3-0.9-1.9-0.8c-0.8,0.3-1.1,1-1,1.9c0.3-0.7,0.8-1,1.4-1
								c0.4,0,0.8,0.2,1.1,0.6c-0.7-0.1-1.2,0.1-1.5,0.6c-0.2,0.7-0.1,1.2,0.4,1.7C813.6,102.3,814.3,102.5,815,102.4z"/>
							<path class="st18" d="M814.6,98.8l-0.1-1c-0.9-0.8-1.8-0.9-2.6-0.1c-0.6,0.7-0.8,1.6-0.6,2.8c0,0.2,0.1,0.4,0.1,0.6
								c0.9,2.1,2.1,3.2,3.8,3.1l-0.2-1.8c-0.8,0.1-1.4-0.1-1.9-0.6c-0.4-0.5-0.6-1-0.4-1.7c0.3-0.5,0.8-0.7,1.5-0.6
								c-0.3-0.4-0.7-0.6-1.1-0.6c-0.6,0-1.1,0.3-1.4,1c-0.1-0.9,0.2-1.5,1-1.9C813.3,97.9,814,98.1,814.6,98.8z"/>
						</g>
						<g>
							<path class="st30" d="M831.3,92.1c0-0.5-0.1-1-0.1-1.4c-0.2-1.3-0.8-2.3-1.8-3.1c-1.1-0.8-2.5-1.1-4.2-1.1
								c-0.6,0.6-1.1,1.4-1.6,2.4c0.6-0.7,1.2-1.3,1.8-1.9C828.3,86.9,830.3,88.5,831.3,92.1z"/>
							<path class="st29" d="M821.6,91.6c0-0.2,0-0.3,0.1-0.4c0.5,1.9,1.1,3.6,2,5c0.2,0.2,0.4,0.3,0.6,0.5l-0.3-2.9l0.1,0.1
								l-0.2-1.6c2.1,2.1,3.2,4.3,3.3,6.6c1.5-1.5,2.2-2.9,2.1-4.2c0-1.2-0.3-2.1-0.6-2.8c0-0.1-0.1-0.1-0.1-0.2c0,0,0,0,0-0.1l0,0
								l-1-1.6c2.2,1.3,3.4,2.7,3.6,4.1c0.1-0.7,0.2-1.4,0.2-2c-1.1-3.6-3-5.2-5.9-5c-0.6,0.6-1.2,1.2-1.8,1.9h-1.4
								C821.8,89.7,821.6,90.6,821.6,91.6z"/>
							<path class="st28" d="M831.1,94.1c-0.2-1.4-1.4-2.8-3.6-4.1l1,1.6C829.6,92.1,830.5,92.9,831.1,94.1z M827.2,98.9
								c-0.1-2.4-1.2-4.6-3.3-6.6l0.2,1.6C825.4,95.7,826.4,97.4,827.2,98.9C827.1,98.9,827.2,98.9,827.2,98.9z M821.6,91.6
								c0,0.3,0.1,0.7,0.1,1.1c0.2,1.2,0.9,2.3,2,3.4c-0.9-1.4-1.6-3.1-2-5C821.7,91.2,821.7,91.4,821.6,91.6z"/>
						</g>
					</g>
				</g>
				<g>
					<g>
						<path class="st32" d="M810.7,129l-1.1,1.6c-0.8,0.2-1.2-0.1-1.4-0.8c0.3-0.8,0.7-1.6,1.1-2.3
							C809.6,128.2,810.1,128.7,810.7,129z"/>
						<path class="st33" d="M809.2,127.5c0.1-0.2,0.2-0.3,0.3-0.5c0.3-0.5,0.6-1,0.9-1.6c0.9-0.1,1.6,0.3,2.1,1.1l-1.7,2.5
							C810.1,128.7,809.6,128.2,809.2,127.5z"/>
					</g>
					<g>
						<path class="st32" d="M801,132.8c0.2,0.6,0.5,1.1,0.9,1.7c2.1-1.2,4.4-2.3,6.7-3.4c0,0,0,0,0.1,0l-0.1-0.1
							c-0.1-0.3,0-0.5,0.5-0.8c-0.1,0.3-0.2,0.6-0.1,0.8l0,0c0.2-0.1,0.4-0.2,0.5-0.2c0.1-0.6-0.2-1.1-0.7-1.5
							c-0.9,0-1.8,0.3-2.7,0.6C804.4,130.6,802.7,131.6,801,132.8z"/>
						<path class="st33" d="M809,130.9c-0.1-0.2,0-0.5,0.1-0.8c-0.4,0.3-0.6,0.6-0.5,0.8c0,0,0,0.1,0.1,0.1L809,130.9z"/>
						<path class="st34" d="M801.9,134.5c-0.4-0.6-0.7-1.1-0.9-1.7l-2.3,1.2c0.1,0.8,0.5,1.4,1.1,1.9l1.4-1
							C801.5,134.7,801.7,134.6,801.9,134.5z"/>
					</g>
					<g>
						<path class="st35" d="M797.3,134.4l2.6,4.4c0.5,0.6,1.1,1.3,1.8,1.9h0.8c0.1-0.4,0.1-0.7,0.1-1.1c-0.7-0.7-1.1-1.2-1.2-1.5
							c-0.2-0.4-0.2-0.6-0.2-0.6c-0.2,0-0.4,0.1-0.6,0.2c-0.2-0.1-0.2-0.2-0.2-0.4c0.2-0.1,0.5-0.2,0.7-0.3c0-0.1,0-0.1,0-0.2
							c-0.3,0-0.6,0.1-0.8,0.2c-0.2-0.1-0.2-0.3-0.1-0.4c0.3-0.1,0.6-0.1,0.9-0.1c0-0.1,0-0.1,0-0.2c-0.3,0-0.6,0-0.9,0.1
							c-0.1-0.2-0.2-0.3-0.1-0.4c0.3-0.1,0.6-0.1,1-0.1c0-0.1,0-0.1,0-0.2c-0.4-0.1-0.7-0.1-1,0c-0.1-0.1-0.1-0.2,0-0.3
							c0.4-0.1,0.7-0.1,1.1,0c0-0.2,0.1-0.3,0.2-0.5c-0.4-0.2-0.8-0.2-1.2,0h-0.1c-0.4,0.1-0.6,0.1-0.8-0.1
							c-0.1-0.2-0.2-0.4-0.1-0.6c0.1-0.3,0.3-0.5,0.5-0.7c0.1-0.1,0.2-0.2,0.2-0.4C798.7,133.5,797.9,133.9,797.3,134.4z"/>
						<path class="st36" d="M801,135.4c-0.4-0.1-0.7-0.1-1.1,0c-0.1,0.1-0.1,0.2,0,0.3c0.3-0.1,0.7-0.1,1,0
							C801.1,135.7,801.1,135.6,801,135.4z M800.9,136.4c0-0.1,0.1-0.3,0-0.4c-0.3,0-0.7,0-1,0.1c-0.1,0.1-0.1,0.3,0.1,0.4
							C800.3,136.4,800.6,136.3,800.9,136.4z M801,137.1c-0.3,0-0.5,0.1-0.7,0.3c0,0.2,0.1,0.3,0.2,0.4c0.3-0.1,0.5-0.2,0.6-0.2
							C801.2,137.4,801.2,137.2,801,137.1z M801,136.9c0.1-0.2,0-0.3-0.1-0.4c-0.3,0-0.6,0.1-0.9,0.1c-0.1,0.1,0,0.3,0.1,0.4
							C800.4,137,800.7,137,801,136.9z"/>
						<path class="st37" d="M797.3,134.4l-0.8,0.5l3.3,4.1c0.7,0.7,1.3,1.4,1.9,1.8h0.8c0-0.1,0.1-0.1,0.1-0.2h-0.8
							c-0.7-0.6-1.3-1.2-1.8-1.9L797.3,134.4z"/>
					</g>
					<path class="st38" d="M810.8,124.1c0.3,0.1,0.6,0.2,0.9,0.2c1.6,0.5,3,1.4,4.2,2.6l-1.6,2.9c-1-0.3-1.7-0.6-2.1-0.8
						c-0.4-0.2-0.7-0.3-0.9-0.5c-0.3-0.2-0.7-0.6-1.4-1.4c-0.2-0.3-0.4-0.5-0.5-0.6l1.2-3.2L810.8,124.1z"/>
					<g>
						<path class="st18" d="M819.9,126.1c0.2,0.8,0.2,1.6,0,2.4c1,0.4,2,0.7,3,0.9c0.7-0.3,0.9-0.9,0.6-1.6L819.9,126.1z"/>
						<path class="st19" d="M819.9,126.1l-0.9-0.4c-0.7,0.6-1,1.3-0.8,2.2c0.6,0.2,1.1,0.4,1.7,0.6
							C820.1,127.7,820.1,127,819.9,126.1z"/>
					</g>
					<g>
						<path class="st18" d="M818.5,135.8c0.5,0.3,1.1,0.5,1.8,0.7c0.9-2.3,1.8-4.6,2.9-7c0,0,0,0,0-0.1h-0.1
							c-0.3-0.1-0.3-0.4-0.2-0.9c0.1,0.3,0.3,0.5,0.5,0.7l0,0c0.1-0.2,0.2-0.4,0.2-0.5c-0.3-0.5-0.8-0.7-1.5-0.7
							c-0.7,0.6-1.2,1.4-1.7,2.3C819.7,131.9,819,133.8,818.5,135.8z"/>
						<path class="st9" d="M820.3,136.5c-0.7-0.2-1.3-0.4-1.8-0.7l-1,2.4c0.6,0.5,1.3,0.8,2.1,0.7l0.4-1.7
							C820.1,137,820.2,136.7,820.3,136.5z"/>
						<path class="st19" d="M823.3,129.2c-0.2-0.1-0.3-0.3-0.5-0.7c-0.1,0.5,0,0.8,0.2,0.9h0.1L823.3,129.2z"/>
					</g>
					<g>
						<g>
							<path class="st19" d="M819,115.2l-1.6-0.4c-0.5,0.3-0.6,0.7-0.4,1.2c0.6,0.2,1.2,0.4,1.9,0.6L819,115.2z"/>
							<path class="st32" d="M818.8,116.6c0.7,0.2,1.4,0.5,2.2,0.7c0.2-0.5,0.3-1,0.2-1.4l-2.2-0.6L818.8,116.6z"/>
						</g>
						<g>
							<path class="st39" d="M817.6,113.8c-0.4,1.1-0.9,2-1.6,2.8l-2.9-1.4c-0.5-0.4-0.7-1-0.6-1.7c0.4-0.6,1-0.8,1.8-0.7
								L817.6,113.8z"/>
							<path class="st38" d="M816,116.6c0.7-0.8,1.2-1.7,1.6-2.8l0.6,0.2c-0.4,1.3-0.9,2.3-1.5,2.9L816,116.6z"/>
						</g>
						<path class="st32" d="M820.8,117.2c1.9,0.3,3.7,0.4,5.4,0.4c0.3-0.7,0.2-1.4-0.2-1.9c-1.6-0.1-3.2,0-4.9,0.2
							C820.6,116.3,820.5,116.8,820.8,117.2z"/>
						<g>
							<path class="st19" d="M827.7,118c-0.4,0.1-0.6,0-0.6-0.2c0-0.1,0-0.1,0-0.2c0-0.2,0-0.4,0-0.7c0-0.1,0-0.3-0.1-0.5l0,0
								c0-0.2-0.1-0.4-0.3-0.5l0,0l-0.1-0.1c0.7-0.2,1.2,0.2,1.4,1.1c0,0,0,0,0,0.1c0.1,0.2,0.2,0.4,0.4,0.6
								c0.1,0.1,0.2,0.2,0.3,0.3l0,0c0.1,0.2,0.2,0.4,0.4,0.6l0,0c0,0,0,0.1,0.1,0.1c0,0,0,0,0,0.1v0.1c-0.1,0.1-0.2,0.2-0.4,0.1
								h-0.1c-0.3-0.1-0.5-0.3-0.6-0.7C828,118.1,827.9,118,827.7,118z M827.4,119.3l-0.1-0.2L827.4,119.3L827.4,119.3z
								 M825.6,118.2l0.3,1l0.5,0.7c0,0.1,0.1,0.1,0.2,0.1h0.6c0.1,0,0.1,0,0.2-0.1l0,0l0.5-0.7c0.1-0.1,0.1-0.2,0.1-0.2s0,0,0.1,0
								l0,0l0,0c0,0.1,0.1,0.1,0.1,0.2l0,0v0.1c-0.2,0.2-0.3,0.4-0.4,0.6c-0.1,0.1-0.2,0.2-0.3,0.2h-0.7c-0.1,0-0.2,0-0.2-0.1
								l-0.6-0.8c-0.1-0.2-0.1-0.4-0.1-0.6l0,0C825.7,118.4,825.6,118.3,825.6,118.2z M827,119.4l-0.1-0.3L827,119.4
								C827.1,119.4,827.1,119.4,827,119.4z M826.4,120.3l0.8,0.1c0.1,0,0.2,0,0.2-0.1l0.9-0.9l0,0c0.1-0.1,0-0.2-0.1-0.2
								c0,0,0.1,0,0.1,0.1v0.1c0,0,0,0.1-0.1,0.1l-0.9,1c-0.1,0.1-0.2,0.1-0.4,0l-0.2-0.1l0.5,0.2h0.1l1-1c0.1-0.1,0.1-0.2-0.1-0.2
								c0.1,0,0.1,0,0.1,0c0.1,0,0.1,0.1,0,0.2l-0.4,0.3l-0.6,0.6c0.1,0.1,0.3,0,0.5-0.1c0.2-0.1,0.4-0.2,0.6-0.3
								c0.2-0.1,0.2-0.1,0.2-0.3c0,0,0,0,0,0.1c0.1,0.1,0,0.2-0.1,0.2h-0.1c-0.2,0.1-0.5,0.2-0.7,0.4c-0.2,0.1-0.3,0.1-0.5-0.1l0,0
								c-0.1,0.1-0.1,0.1-0.2,0l-0.4-0.2L826.4,120.3z"/>
							<path class="st33" d="M827.6,119.1c-0.1,0-0.1,0.1-0.2,0.2l-0.1-0.2l0.1,0.2l-0.1,0.1c-0.1,0-0.1,0-0.1,0l-0.2-0.3l0.1,0.3
								c-0.1,0-0.2,0-0.2,0c0-0.1-0.1-0.3-0.2-0.4c0.1-0.2,0.1-0.5,0.1-0.8c0.2-0.1,0.3-0.3,0.4-0.5c0.1,0.2,0.3,0.3,0.6,0.2
								C827.6,118.2,827.6,118.6,827.6,119.1z"/>
							<path class="st32" d="M828,119c0.1,0,0,0.1-0.1,0.2l-0.5,0.7l0,0c-0.1,0-0.1,0.1-0.2,0.1h-0.6c-0.1,0-0.1,0-0.2-0.1l-0.5-0.7
								l-0.3-1c0-0.1-0.1-0.1-0.1-0.2c-0.1-0.3-0.2-0.7-0.2-1c0-0.1,0-0.1,0-0.2c0-0.2,0-0.3,0.1-0.5c0.1-0.5,0.4-0.7,0.8-0.7
								c0.2,0,0.3,0,0.4,0.1l0.1,0.1l0,0c0.1,0.1,0.2,0.3,0.3,0.5l0,0c0,0.2,0,0.3,0.1,0.5c0,0.3,0,0.5,0,0.7c0,0.1,0,0.1,0,0.2
								c-0.1,0.3-0.2,0.4-0.4,0.5c0,0.3,0,0.6-0.1,0.8c0.1,0.1,0.2,0.2,0.2,0.4c0.1,0,0.2,0,0.2,0h0.1h0.1l0.1-0.1c0,0,0,0,0.1-0.1
								s0.1-0.1,0.2-0.2C827.8,119,827.9,119,828,119L828,119L828,119z M826.4,120.3l-0.7-1l-0.1-0.7c0,0.2,0.1,0.4,0.1,0.6l0.6,0.8
								c0.1,0.1,0.1,0.1,0.2,0.1h0.7c0.1,0,0.2-0.1,0.3-0.2c0.1-0.2,0.3-0.4,0.4-0.6v-0.1l0,0c0.1,0,0.2,0,0.2,0
								c0.1,0,0.1,0.1,0.1,0.2l0,0l-0.9,0.9c-0.1,0.1-0.2,0.1-0.2,0.1L826.4,120.3z M828.4,120.1c0.1-0.1,0.2-0.1,0.3-0.1
								c0.2,0,0.3,0,0.4,0.1c0.1,0.1,0,0.2-0.2,0.3c-0.2,0.1-0.4,0.2-0.6,0.3c-0.2,0.1-0.4,0.2-0.5,0.1L828.4,120.1z M828.6,119.4
								c0.2,0,0.2,0.1,0.1,0.2l-1,1h-0.1l-0.5-0.2l0.2,0.1c0.1,0,0.3,0,0.4,0L828.6,119.4C828.5,119.5,828.6,119.5,828.6,119.4
								L828.6,119.4z"/>
						</g>
					</g>
					<g>
						<path class="st40" d="M812.9,122.6l3,0.5h0.1l3.4,2.5l0,0c-0.1,0.8-0.5,1.5-1,1.9l-4-1.5c-1.4-0.5-1.9-1.5-1.5-2.9
							C812.8,123,812.9,122.8,812.9,122.6z"/>
						<path class="st41" d="M812.9,122.6c0,0.2-0.1,0.3-0.1,0.5c-0.4,1.4,0.1,2.4,1.5,2.9l4,1.5c0.5-0.5,0.9-1.1,1-1.9l0,0l0,0
							c-0.3,2.3-1.3,4-3,4.9l-2.9-1.7c-3.3-1.5-4.3-3.7-2.9-6.7L812.9,122.6z"/>
					</g>
					<g>
						<g>
							<path class="st42" d="M816.5,112.9l-0.5,0.9c-0.4-0.5-0.9-0.9-1.4-1.2c-0.5-0.3-1-0.6-1.5-0.7l0.4-1c0.1,0.1,0.2,0.1,0.2,0.1
								c0.7,0.1,1.2,0.3,1.5,0.5c0.5,0.3,0.9,0.6,1.3,1V112.9z"/>
							<polygon class="st41" points="816.7,114 816.5,112.9 816.6,112.6 817.1,114 							"/>
							<path class="st9" d="M816.7,114l-0.6,1.5h0.4c-0.4,1.2-0.6,2.4-0.7,3.6c0,0.3-0.1,0.5-0.1,0.8c0,0.1,0,0.2,0,0.3
								c0,1,0.1,1.9,0.2,2.9c-2,0.9-4.1,1.1-6.4,0.6l0.7-1.2c-0.1-1-0.2-1.7-0.2-2.2c-0.1-0.7,0-1.5,0.1-2.3c0.6-3.3,1.6-5.3,3-6
								c0.6,0.1,1.1,0.4,1.5,0.7c0.5,0.3,0.9,0.7,1.4,1.2l0.5-0.9L816.7,114z"/>
							<path class="st43" d="M816.5,115.6h-0.4l0.6-1.5h0.4C816.9,114.5,816.7,115.1,816.5,115.6z"/>
						</g>
					</g>
					<g>
						<path class="st44" d="M817.1,139.7l5.1,1c0.8,0.1,1.7,0,2.6-0.1l0.6-0.6c-0.2-0.3-0.4-0.6-0.7-0.8c-0.9,0-1.6,0-2-0.1
							s-0.6-0.2-0.6-0.2c-0.1,0.1-0.2,0.3-0.3,0.6c-0.2,0-0.3,0-0.4-0.1c0-0.3,0.1-0.5,0.3-0.7c-0.1,0-0.1-0.1-0.2-0.1
							c-0.2,0.2-0.3,0.5-0.4,0.7c-0.2,0-0.3,0-0.4-0.2c0.1-0.3,0.3-0.5,0.5-0.7c-0.1,0-0.1-0.1-0.2-0.1c-0.2,0.2-0.4,0.5-0.5,0.8
							c-0.2,0-0.3-0.1-0.4-0.3c0.2-0.3,0.4-0.5,0.6-0.8c-0.1-0.1-0.1-0.1-0.1-0.2c-0.3,0.2-0.5,0.5-0.7,0.8c-0.1,0-0.2-0.1-0.2-0.2
							c0.2-0.4,0.4-0.6,0.7-0.8c-0.1-0.1-0.2-0.3-0.2-0.4c-0.4,0.1-0.7,0.4-0.8,0.9v0.1c-0.2,0.3-0.4,0.5-0.6,0.5
							c-0.2,0-0.4-0.1-0.5-0.3c-0.1-0.3-0.2-0.5-0.2-0.8c0-0.2,0-0.3-0.2-0.4C817.4,137.9,817.1,138.8,817.1,139.7z"/>
						<path class="st45" d="M820.7,138c-0.2,0.2-0.4,0.5-0.6,0.8c0,0.1,0.1,0.2,0.4,0.3c0.1-0.3,0.3-0.5,0.5-0.8
							C820.9,138.1,820.8,138,820.7,138z M820.5,137.8c0-0.1-0.1-0.2-0.2-0.3c-0.3,0.2-0.6,0.5-0.7,0.8c0,0.2,0.1,0.2,0.2,0.2
							C820,138.3,820.2,138,820.5,137.8z M821.6,138.6c-0.2,0.2-0.2,0.5-0.3,0.7c0.1,0.1,0.3,0.2,0.4,0.1c0.1-0.3,0.2-0.5,0.3-0.6
							C821.9,138.7,821.7,138.6,821.6,138.6z M821.4,138.5c-0.1-0.1-0.2-0.2-0.3-0.2c-0.2,0.2-0.4,0.5-0.5,0.7
							c0.1,0.1,0.2,0.2,0.4,0.2C821.1,139,821.2,138.8,821.4,138.5z"/>
						<path class="st46" d="M817.1,139.7l-0.2,1l5.3,0.3c1,0,1.9-0.1,2.7-0.2l0.6-0.6c0-0.1-0.1-0.1-0.1-0.2l-0.6,0.6
							c-0.9,0.1-1.8,0.2-2.6,0.1L817.1,139.7z"/>
					</g>
					<g>
						<g>
							<path class="st18" d="M818.5,114.8c0.8,0.1,1.5,0.2,2.2,0.2c0.1-0.5,0.1-1-0.1-1.4l-2.3-0.2
								C818.5,113.9,818.5,114.3,818.5,114.8z"/>
							<path class="st19" d="M818.4,113.4l-1.7-0.1c-0.4,0.4-0.5,0.8-0.2,1.3c0.7,0.1,1.3,0.2,1.9,0.2
								C818.5,114.3,818.5,113.9,818.4,113.4z"/>
						</g>
						<g>
							<path class="st47" d="M816.2,115.6L816.2,115.6c0.4-0.9,0.6-2,0.6-3.1h-3.3c-0.9,0.1-1.4,0.5-1.5,1.2
								c0.1,0.7,0.4,1.2,1.1,1.4L816.2,115.6z"/>
							<path class="st41" d="M816.2,115.6l0.7,0.1c0.4-0.8,0.6-1.9,0.5-3.2h-0.6C816.8,113.6,816.6,114.6,816.2,115.6L816.2,115.6z"
								/>
						</g>
						<path class="st18" d="M820.3,115c1.9,0.3,3.7,0.4,5.4,0.4c0.3-0.7,0.2-1.4-0.2-2c-1.6-0.1-3.2,0-4.9,0.2
							C820.2,114,820.1,114.5,820.3,115z"/>
						<g>
							<path class="st18" d="M826.7,111c0,0.1,0,0.2,0,0.3l0,0c0,0.1-0.1,0.2-0.2,0.2l0,0c-0.2,0-0.3-0.1-0.3-0.3c0,0,0,0,0-0.1l0,0
								v-0.6c0,0,0,0,0,0.1s-0.1,0.1-0.1,0.2s0,0.1,0,0.1c-0.2,0-0.4-0.2-0.4-0.5c0,0.4,0.1,0.6,0.4,0.6c0,0.1,0,0.2,0.1,0.3
								c0,0.6,0.1,0.9,0.2,1.2l0,0l0,0l0,0l0.1,0.1c0,0,0,0.1,0.1,0.1c0.3,0.4,0.4,0.9,0.4,1.5c-0.1,0.3-0.2,0.6-0.3,0.8
								c-0.1,0.1-0.1,0.2-0.2,0.2c-0.1,0.1-0.3,0.1-0.5,0.2c-0.7-0.1-0.9-1-0.8-2.9c0-0.7,0.1-1.4,0.2-2.1c0-0.1,0.1-0.2,0.2-0.2
								l0.1-0.1l0.8-0.3c0.1,0,0.1,0,0.2,0s0.1,0,0.1,0.1l0,0c0,0,0,0.1,0.1,0.1c0,0.1,0.1,0.2,0.1,0.3c0,0.1,0.1,0.2,0.1,0.3v0.1
								l0,0c0,0.1,0.1,0.1,0.1,0.2l0,0c0,0.1,0,0.2,0,0.2l0,0c-0.1,0-0.2,0-0.3-0.1c0,0,0,0,0-0.1c-0.1-0.2-0.2-0.4-0.2-0.6l0,0
								c-0.1-0.2-0.2-0.4-0.4-0.3l0,0l0,0l-0.6,0.1l0,0l0.8,0.1c0,0,0,0,0.1,0c0.1,0.1,0.2,0.2,0.1,0.4l0,0c0,0,0,0,0,0.1v0.1
								C826.7,110.9,826.7,111,826.7,111z M827.9,110.9c-0.1,0-0.3,0-0.4-0.1l0,0c-0.2-0.2-0.4-0.5-0.5-0.9c0-0.1-0.1-0.1-0.2-0.1
								h0.1l0,0c0.1,0,0.2,0,0.2,0s0.1,0,0.1,0.1l0,0l0,0l0,0l0,0c0.1,0.1,0.2,0.3,0.3,0.4l0.1,0.1c0.1,0.1,0.2,0.2,0.4,0.3
								C828,110.7,828,110.7,827.9,110.9C828,110.8,828,110.8,827.9,110.9z M828.7,110c0,0.1-0.1,0.2-0.3,0.2h-0.1c0,0,0,0-0.1,0
								c0,0,0,0-0.1,0c0,0,0,0-0.1,0h-0.1c-0.3-0.1-0.5-0.3-0.6-0.5c-0.1-0.1-0.1-0.1-0.2,0l0,0c0,0,0,0,0.1-0.1l0,0
								c0.1-0.1,0.2-0.1,0.3,0l0,0c0.2,0.2,0.4,0.3,0.6,0.3c0.1,0,0.2,0.1,0.3,0.1C828.6,109.9,828.7,110,828.7,110z"/>
							<path class="st19" d="M828.7,110c0,0,0,0.1-0.1,0.2c0,0,0,0-0.1,0.1s-0.2,0.1-0.3,0.1c-0.2,0-0.4,0-0.6-0.1l-0.1-0.1
								c-0.1-0.1-0.2-0.3-0.3-0.4l0,0l0,0l0,0l0,0c0,0,0,0-0.1-0.1l0,0c0.1,0,0.1,0,0.2,0c0.2,0.3,0.4,0.4,0.6,0.5h0.1
								c0,0,0,0,0.1,0c0,0,0,0,0.1,0c0,0,0,0,0.1,0h0.1C828.5,110.2,828.6,110.1,828.7,110z M827.2,110.7c0-0.1-0.1-0.2-0.1-0.3
								c0-0.1-0.1-0.2-0.1-0.3c0,0,0-0.1-0.1-0.1l0,0c0-0.1-0.1-0.1-0.1-0.1s0,0,0.1,0s0.1,0,0.2,0.1c0.2,0.5,0.4,0.8,0.5,0.9l0,0
								c0.1,0.1,0.3,0.1,0.4,0.1c0,0,0,0-0.1,0c-0.2,0.1-0.4,0-0.6-0.1C827.3,110.7,827.2,110.7,827.2,110.7L827.2,110.7z
								 M827.3,111.2L827.3,111.2L827.3,111.2L827.3,111.2c-0.2,0.1-0.4,0.1-0.5-0.1c0-0.1,0-0.1,0-0.2v-0.1c0,0,0,0,0-0.1l0,0
								c0-0.2,0-0.3-0.1-0.4c0,0,0,0-0.1,0l-0.8-0.1l0,0l0.6-0.1l0,0l0,0c0.2,0,0.3,0.1,0.4,0.3l0,0c0.1,0.2,0.1,0.4,0.2,0.6
								c0,0,0,0,0,0.1C827.1,111.2,827.2,111.2,827.3,111.2z M826.1,111.4c0-0.1-0.1-0.2-0.1-0.3c-0.3,0-0.4-0.2-0.4-0.6
								c0,0.3,0.2,0.5,0.4,0.5v-0.1c0-0.1,0-0.1,0.1-0.2c0,0,0,0,0-0.1v0.6l0,0C826.2,111.2,826.2,111.2,826.1,111.4
								c0.1,0.1,0.2,0.1,0.4,0.2l0,0c0.1,0,0.2-0.1,0.2-0.2c0,0.2-0.1,0.3-0.3,0.2h-0.1C826.2,111.5,826.1,111.4,826.1,111.4z"/>
							<path class="st33" d="M826.1,111.4c0,0.1,0.1,0.1,0.2,0.2h0.1c0.2,0,0.3,0,0.3-0.2l0,0c0-0.1,0-0.2,0-0.3
								c0.1,0.1,0.3,0.2,0.4,0.2c0,0.3,0,0.5,0,0.7c0.1,0.2,0.1,0.4,0.1,0.6l0,0c0.1,0,0.2,0,0.3,0.1l0,0l0,0l0,0c0,0,0.1,0,0.1-0.1
								l0,0c0.1,0,0.1-0.1,0.2-0.1c0.1-0.1,0.1-0.1,0.2-0.2c0-0.1,0-0.3,0.1-0.4c0,0,0-0.1,0.1-0.1c0.2-0.4,0.4-0.5,0.6-0.4
								c0.1,0,0.1,0.2,0.1,0.4c0,0.1,0,0.2-0.1,0.3l0,0c0,0,0,0,0,0.1c-0.1,0.2-0.1,0.3-0.1,0.5c0,0.1-0.1,0.3-0.3,0.5
								c-0.1,0.1-0.1,0.1-0.2,0.2c-0.1,0.1-0.2,0.2-0.3,0.3c-0.1,0.6-0.4,1-0.7,1.3l0,0l0,0c0,0,0,0-0.1,0.1
								c-0.2,0.2-0.5,0.3-0.7,0.2c0.1-0.1,0.2-0.1,0.2-0.2c0.1-0.2,0.2-0.4,0.3-0.8c0.1-0.6,0-1.1-0.4-1.5c0,0,0-0.1-0.1-0.1
								l-0.1-0.1l0,0l0,0l0,0C826.2,112.3,826.1,111.9,826.1,111.4z"/>
						</g>
					</g>
				</g>
			</g>
		</g>
		<path class="st7" d="M1035.4,141.7c0,1.1-2,2-6.1,2.8c-4.1,0.7-9.1,1.1-15,1.1c-5.7,0-10.7-0.4-14.8-1.1c-4.1-0.8-6.1-1.7-6.1-2.8
			s2-2,6.1-2.8s9.1-1.2,14.8-1.2c5.8,0,10.8,0.4,15,1.2C1033.4,139.7,1035.4,140.6,1035.4,141.7z"/>
		<g>
			
				<linearGradient id="SVGID_3_" gradientUnits="userSpaceOnUse" x1="944.9315" y1="128.9" x2="785.8001" y2="128.9" gradientTransform="matrix(1 0 0 -1 0 244)">
				<stop  offset="0" style="stop-color:#FF9A00"/>
				<stop  offset="0.7373" style="stop-color:#FF5400;stop-opacity:0"/>
			</linearGradient>
			<path class="st48" d="M785.8,121.2v-0.4h159c0.2,0.1,0.2,0.2-0.2,0.4H785.8z M785.8,120.7v-1.2h155.1c0.7,0.1,1.4,0.3,2.3,0.5
				c1.6,0.4,1.2,0.6-1.3,0.7H785.8z M785.8,113.8v-2.2H940c1.5,0.8,0.8,1.5-2,2.2H785.8z M785.8,117.7v-1.6H939
				c1.6,0.6,1.5,1.1-0.5,1.6H785.8z M785.8,119.3V118h153.8c1.3,0.4,1.4,0.9,0.2,1.3H785.8z M785.8,115.8v-1.5H939
				c1.4,0.5,1.7,0.8,1,1c-0.8,0.2-1.5,0.4-2.2,0.5H785.8z M785.8,111.3v-1.1H942l0,0c-0.2,0.2-1.1,0.6-2.6,1L785.8,111.3
				L785.8,111.3z M785.8,110v-1h158.7c0.1,0.1,0.1,0.2-0.1,0.2c-0.4,0.2-1.6,0.5-3.4,0.8H785.8z"/>
			<path class="st49" d="M943.8,121.2c0,0-0.1,0-0.2,0h-0.3c-0.1,0-0.2,0-0.4,0c-0.1,0-0.1,0-0.2,0c2.1-0.3-0.8-0.4-8.9-0.5
				c0.8,0,1.6,0,2.3,0c2.1,0,3.8-0.1,4.9-0.2c2.9-0.3,0.2-0.7-8.2-1.1c2.5-0.2,4.2-0.4,5.2-0.7c1.5-0.4,0.5-0.7-3-0.8
				c-0.8,0-1.6-0.1-2.6-0.1c-0.4,0-0.7,0-1.1,0c2.4-0.2,4.3-0.4,5.5-0.7c2.5-0.5,0.7-0.9-5.5-1.2c2.7-0.1,4.8-0.2,6.1-0.4
				c2.8-0.4,0.7-0.9-6.2-1.6c2.9-0.3,5-0.6,6.4-1c2-0.6,0-1.1-6-1.4c2.4-0.2,4.3-0.4,5.7-0.7c2.1-0.4,1.2-0.6-2.7-0.7h-1.9
				c-0.2,0-0.4,0-0.6,0c3.1-0.1,5.6-0.2,7.4-0.4c2.5-0.3,1.8-0.5-2-0.6h6.5c1.8,0.1,3.3,0.6,4.6,1.8c1.4,1.2,2,2.6,2,4.3
				c0,1.7-0.7,3.1-2,4.3c-1.3,1.2-3,1.8-4.9,1.8C943.9,121.2,943.9,121.2,943.8,121.2L943.8,121.2L943.8,121.2z"/>
			<path class="st50" d="M941.4,119.5c-1.9-0.2-2.4-0.3-1.4-0.4l0.8-0.1c1.7-0.3,1.5-0.6-0.4-1c-0.1,0-0.2,0-0.4-0.1
				c-1.1-0.2-1.2-0.4-0.3-0.6c2.3-0.4,2.2-0.8-0.4-1.2c-1.4-0.3-1.4-0.5-0.1-0.6c0.8-0.2,1.3-0.3,1.5-0.5c0.2-0.1-0.3-0.4-1.5-0.7
				c-1.3-0.4-1.2-0.7,0.2-1c2.6-0.4,2.9-0.9,0.8-1.5c-1.3-0.4-1.5-0.6-0.4-0.8c0.5-0.1,1-0.3,1.6-0.4c1.8-0.3,2.2-0.5,1.1-0.6
				c0.7-0.3,1.5-0.5,2.4-0.5c1.6,0,2.9,0.5,4.1,1.6c1.1,1.1,1.7,2.4,1.7,3.9s-0.6,2.9-1.7,3.9c-1.1,1.1-2.5,1.6-4.1,1.6
				c-0.4,0-0.8,0-1.2-0.1C945.1,120.1,944.3,119.7,941.4,119.5z"/>
			<path class="st9" d="M945.9,119.4c0-0.1-0.4-0.2-1.1-0.2c-1.7-0.1-2.1-0.3-1.2-0.6c0.4-0.1,0.5-0.3,0.2-0.4
				c-0.2-0.1-0.5-0.2-0.9-0.3c-1.1-0.2-1.4-0.4-0.7-0.8c0.5-0.3,0.5-0.6-0.2-0.9c-1-0.3-1.2-0.5-0.7-0.7s0.8-0.4,0.9-0.5
				c0.1-0.1-0.1-0.3-0.7-0.6c-0.6-0.3-0.3-0.6,0.6-1c0.9-0.2,1-0.6,0.5-1c-0.7-0.5-0.3-0.9,1.2-0.9c0.5,0,0.8-0.1,1-0.1
				c0.5-0.1,0.6-0.2,0.2-0.4c-0.1,0-0.1-0.1-0.2-0.1c-0.2-0.1-0.2-0.1-0.1-0.2c0.1,0,0.2,0,0.3,0c0.7,0,1.3,0.1,2.1,0.2h0.1h0.1l0,0
				c0.7,0.2,1.3,0.6,1.8,1.1c0.8,0.8,1.3,1.9,1.3,3.1s-0.4,2.2-1.3,3.1c-0.2,0.2-0.4,0.4-0.6,0.5l0,0c-0.5,0.4-1.2,0.7-2.1,1
				C946,119.7,945.8,119.7,945.9,119.4L945.9,119.4z"/>
		</g>
		<g>
			<path class="st9" d="M1027.8,80.1c-1.3,1.2-2.2,2.6-2.8,4.1c-0.4,1-0.7,2.4-1.1,4.2c-0.2,0.9-0.5,2.1-0.8,3.5
				c-0.1,0.4-0.3,0.9-0.5,1.6c-0.2,0.4-0.4,1-0.7,1.9c-0.6,1.7-1,3.3-1.1,4.6c-0.1,1.5,0.3,3.8,1.4,6.8c0.8,2.3,1.6,4.3,2.6,6.2
				c1,2.1,1.8,4.1,2.3,6.1c1,3.6,1.2,7.1,0.7,10.6c-0.2,1.6-0.8,3.1-1.6,4.5c-0.9,1.5-2.1,2.7-3.6,3.7c-3.5,2.3-8.1,2.9-13.8,1.9
				c-5.7-1.1-8.9-4.1-9.6-9c-0.4-3,0.1-6.7,1.6-11c1.2-3.4,1.8-5.3,1.9-5.8c0.7-2.7,1.1-5,1-7.1c-0.1-1.6-0.4-4.1-1.2-7.5
				c-0.7-3.2-1-5.4-1-6.7c0-1.3-0.3-3.1-1.1-5.2c-0.6-1.9-1.4-3.6-2.2-5c-0.6-1.1-1.2-2-1.8-2.6c-0.5-0.5-1.1-1-1.8-1.5
				c-0.1-0.1,0-0.2,0.3-0.3c0.3-0.1,0.7-0.2,1.2-0.1c1.4,0,2.5,0.5,3.4,1.3c2,1.9,3.4,4.2,4.1,6.8c0.2,0.7,0.4,1.7,0.7,3
				c0.3,1.1,0.6,1.9,0.9,2.5c0.3,0.5,0.8,0.9,1.4,1.2c0.6,0.3,1.3,0.5,1.8,0.4c0.3,0,1.7-0.1,4-0.2c2.2-0.1,3.3-0.2,3.5-0.2
				c0.5-0.1,1-0.3,1.7-0.7c0.9-0.6,1.5-1.2,1.8-2c0.3-0.9,1.1-2.5,2.2-4.7c1.2-2.3,2-3.8,2.5-4.4c0.8-1.1,2-1.7,3.5-2
				c0.5-0.1,0.9-0.1,1.4-0.1h0.6l-0.5,0.3C1028.6,79.4,1028.2,79.8,1027.8,80.1z"/>
			
				<linearGradient id="SVGID_4_" gradientUnits="userSpaceOnUse" x1="-16024.8662" y1="1750.1018" x2="-15992.0762" y2="1750.1018" gradientTransform="matrix(7.190000e-02 0.1468 0.1468 -7.190000e-02 1909.4829 2606.0098)">
				<stop  offset="0" style="stop-color:#FFFFFF"/>
				<stop  offset="1" style="stop-color:#EEEBEF"/>
			</linearGradient>
			<path class="st51" d="M998.9,127.4c0-0.5,0.1-1.1,0.2-1.6l0.1-0.6c0.1,0.3,0.3,0.8,0.5,1.3c0.5,1,1.2,2,2,2.8
				c2.7,2.7,6.3,3.9,10.9,3.7c4.6-0.2,8.1-3.2,10.7-8.9c0.8-1.7,1.4-3.7,1.9-5.8c0.4-1.7,0.6-2.5,0.6-2.5c1.5,3.6,2.2,7.3,2.1,11
				c-0.1,1.8-0.3,3.3-0.6,4.4l-0.1,0.4c-0.1,0.4-0.2,0.7-0.3,1.1c-0.4,1.2-1.1,2.4-2,3.4c-2.9,3.2-7.6,4.5-14.2,4
				c-6.4-0.5-10.2-3.1-11.5-7.9C998.9,130.8,998.8,129.1,998.9,127.4z"/>
			<path class="st52" d="M1028,78.7c0.4,0,0.8,0,1.2,0l0.4,0.1l-0.4,0.2c-0.4,0.3-0.9,0.7-1.6,1.4c-0.7,0.7-1.4,1.7-2,2.8
				c-0.5,1-0.9,1.9-1.1,2.8c-0.1,0.3-0.3,1.4-0.8,3.4c-0.3,1.6-0.5,2.3-0.6,2.3c-1,0.1-2-0.1-2.9-0.6c-0.4-0.2-0.8-0.5-1-0.7
				c0.5-1.4,1.2-2.9,1.9-4.4c1.4-3.1,2.6-5.1,3.5-5.9C1025.6,79.4,1026.7,78.9,1028,78.7z"/>
			<path class="st53" d="M1005.2,91.4c0.2,0.3,0.6,0.6,0.9,0.9c0.8,0.6,1.4,0.9,2.1,0.9c0.6,0,2.1-0.1,4.4-0.2l3.3-0.2
				c0.3,0,0.7-0.1,1.2-0.3c0.9-0.4,1.6-1,2.2-1.8c0.1-0.2,0.1-0.1,0,0.3s-0.3,0.7-0.6,1.1c-0.8,1.2-1.9,1.8-3.1,1.9
				c-1,0-2.6,0.1-4.8,0.3c-1.8,0.1-2.9,0-3.5-0.2c-0.5-0.2-1.1-0.7-1.5-1.5C1005.5,92.1,1005.3,91.7,1005.2,91.4z"/>
			<path class="st53" d="M1023.2,91.8l-0.2,0.7c-0.2,0.6-0.5,1.3-0.8,2.1c-0.4,1-0.7,2.1-1,3.3c-0.3,1.3-0.4,2.3-0.4,3
				c0,1.1,0.4,2.7,1,4.9c0.6,1.9,1.1,3.5,1.7,4.8c0.2,0.5,0,0.2-0.8-0.8c-0.7-1-1.2-1.9-1.6-2.8c-0.5-1.5-0.9-2.8-1.1-4
				c-0.3-1.9-0.3-3.7,0.2-5.1c0.5-1.6,0.9-2.7,1.1-3.5c0.4-1.3,0.7-2.2,1-2.6c0.3,0,0.5,0,0.6,0C1023,91.9,1023.1,91.9,1023.2,91.8
				L1023.2,91.8z"/>
			
				<linearGradient id="SVGID_5_" gradientUnits="userSpaceOnUse" x1="18367.1992" y1="-744.8594" x2="18444.584" y2="-744.8594" gradientTransform="matrix(-7.120000e-02 -0.1471 -0.1471 7.120000e-02 2225.9268 2879.4736)">
				<stop  offset="0" style="stop-color:#FFFFFF"/>
				<stop  offset="1" style="stop-color:#EEEBEF"/>
			</linearGradient>
			<path class="st54" d="M1021.3,105.2l0.7,1.2l1,2.6c0.7,1.9,1.3,3.3,1.7,4c0.6,1.1,1.3,2.7,2,4.9c0.2,0.5,0.3,1.1,0.5,1.8
				c0.2,1,0.4,1.7,0.4,2.1c0,0.2-0.1,0.6-0.5,0.9c-0.3,0.4-0.7,0.7-1.1,0.9c-0.5,0.3-0.9,0.4-1.2,0.4c-0.4,0-0.6-0.2-0.7-0.7
				c0,0,0.1-0.8,0.3-2.2c0.2-1.4,0.2-2.5,0-3.6c-0.3-1.6-0.9-3.6-1.7-6.1c-0.9-2.4-1.5-3.9-1.7-4.5c-0.4-1.3-0.5-2-0.3-2.1
				c0.1,0,0.2,0,0.3,0.1L1021.3,105.2z"/>
			
				<linearGradient id="SVGID_6_" gradientUnits="userSpaceOnUse" x1="18474.2988" y1="-648.3068" x2="18533.0195" y2="-648.3068" gradientTransform="matrix(-7.120000e-02 -0.1471 -0.1471 7.120000e-02 2226.021 2879.5068)">
				<stop  offset="0" style="stop-color:#FFFFFF"/>
				<stop  offset="1" style="stop-color:#EEEBEF"/>
			</linearGradient>
			<path class="st55" d="M1002.6,100c0.1,0,0.1,0.1,0.2,0.3c0.2,0.3,0.4,0.7,0.5,1.2c0.6,1.6,1.1,3.8,1.4,6.7
				c0.3,2.3-0.1,4.5-1.2,6.5c-0.4,0.7-0.8,1.2-1.1,1.5c-0.3,0.3-0.5,0.3-0.4-0.1c0.1-0.3,0.3-1.1,0.7-2.5c0.7-2.8,0.9-5.8,0.6-9.2
				c-0.1-1.1-0.3-2.1-0.5-3.1L1002.6,100z"/>
			<g>
				
					<linearGradient id="SVGID_7_" gradientUnits="userSpaceOnUse" x1="-5291.7183" y1="16574.2559" x2="-5270.6699" y2="16574.2559" gradientTransform="matrix(0.1635 0 0 -0.1635 1876.3416 2825.1907)">
					<stop  offset="0" style="stop-color:#FFFFFF"/>
					<stop  offset="1" style="stop-color:#E5E3E6"/>
				</linearGradient>
				<path class="st56" d="M1014.6,115.3c0,0.4-0.2,0.7-0.5,1c-0.3,0.3-0.7,0.4-1.2,0.4s-0.9-0.1-1.2-0.4c-0.3-0.3-0.5-0.6-0.5-1
					s0.2-0.7,0.5-1c0.3-0.3,0.7-0.4,1.2-0.4s0.9,0.1,1.2,0.4C1014.4,114.6,1014.6,114.9,1014.6,115.3z"/>
				<path class="st9" d="M1014.3,115.3c0,0.3-0.1,0.6-0.4,0.8c-0.3,0.2-0.6,0.3-1,0.3s-0.7-0.1-1-0.3c-0.3-0.2-0.4-0.5-0.4-0.8
					s0.1-0.6,0.4-0.8c0.3-0.2,0.6-0.3,1-0.3s0.7,0.1,1,0.3C1014.1,114.7,1014.3,115,1014.3,115.3z"/>
				
					<linearGradient id="SVGID_8_" gradientUnits="userSpaceOnUse" x1="17432.9453" y1="6456.4624" x2="17436.1719" y2="6456.4624" gradientTransform="matrix(-5.100000e-03 -0.1634 -0.1634 5.100000e-03 2156.7083 2931.363)">
					<stop  offset="0" style="stop-color:#844262"/>
					<stop  offset="1" style="stop-color:#391B37"/>
				</linearGradient>
				<path class="st57" d="M1013.9,115.3c0,0.2-0.1,0.4-0.3,0.6c-0.2,0.2-0.5,0.2-0.8,0.2c-0.3,0-0.5-0.1-0.8-0.2
					c-0.2-0.2-0.3-0.4-0.3-0.6s0.1-0.4,0.3-0.6c0.2-0.2,0.5-0.2,0.8-0.2c0.3,0,0.5,0.1,0.8,0.2
					C1013.8,114.8,1013.9,115,1013.9,115.3z"/>
				<path class="st58" d="M1012.9,115.6C1012.9,115.5,1012.9,115.5,1012.9,115.6c0.2-0.1,0.2-0.1,0.4-0.1c0.1,0,0.3,0.1,0.5,0.3
					c-0.2,0.2-0.5,0.3-0.8,0.3c-0.4,0-0.6-0.1-0.8-0.3c0.2-0.2,0.3-0.3,0.5-0.3C1012.6,115.4,1012.7,115.5,1012.9,115.6
					C1012.8,115.5,1012.9,115.6,1012.9,115.6z"/>
			</g>
			<g>
				
					<linearGradient id="SVGID_9_" gradientUnits="userSpaceOnUse" x1="-15826.79" y1="4365.0522" x2="-15794.2637" y2="4365.0522" gradientTransform="matrix(9.300000e-02 0.1344 0.1344 -9.300000e-02 1891.4833 2631.1057)">
					<stop  offset="0" style="stop-color:#FFFFFF"/>
					<stop  offset="1" style="stop-color:#E5E3E6"/>
				</linearGradient>
				<path class="st59" d="M1011.8,100.9c0,1-0.4,1.8-1.1,2.5s-1.6,1.1-2.5,1.1c-1,0-1.8-0.4-2.5-1.1c-0.7-0.7-1.1-1.5-1.1-2.5
					s0.4-1.8,1.1-2.5c0.7-0.7,1.5-1.1,2.5-1.1s1.8,0.4,2.5,1.1C1011.5,99,1011.8,99.9,1011.8,100.9z"/>
				
					<linearGradient id="SVGID_10_" gradientUnits="userSpaceOnUse" x1="16619.3984" y1="-7504.3721" x2="16639.2715" y2="-7504.3721" gradientTransform="matrix(-0.1238 -0.1067 -0.1067 0.1238 2267.4753 2805.4028)">
					<stop  offset="0" style="stop-color:#FFFFFF"/>
					<stop  offset="1" style="stop-color:#E5E3E6"/>
				</linearGradient>
				<path class="st60" d="M1011.5,100.9c0,0.9-0.3,1.7-1,2.3c-0.6,0.6-1.4,1-2.4,1c-0.9,0-1.7-0.3-2.3-1c-0.6-0.6-1-1.4-1-2.3
					s0.3-1.7,1-2.4c0.6-0.6,1.4-1,2.3-1s1.7,0.3,2.4,1C1011.2,99.2,1011.5,100,1011.5,100.9z"/>
				<path d="M1011.3,100.9c0,0.9-0.3,1.6-0.9,2.2c-0.6,0.6-1.3,0.9-2.2,0.9s-1.6-0.3-2.2-0.9c-0.6-0.6-1-1.3-1-2.2
					c0-0.9,0.3-1.6,1-2.2c0.6-0.6,1.3-1,2.2-1s1.6,0.3,2.2,1C1011,99.3,1011.3,100,1011.3,100.9z"/>
				<path class="st61" d="M1009.6,98.1c0.4,0.2,0.8,0.5,1.1,0.9C1010.4,98.7,1010.1,98.4,1009.6,98.1c-0.3-0.1-0.8-0.2-1.2-0.2
					c-0.9,0-1.6,0.3-2.2,0.9s-0.9,1.3-0.9,2.2c0,0.7,0.2,1.3,0.6,1.8c-0.5-0.6-0.8-1.3-0.8-2.1c0-0.9,0.3-1.6,0.9-2.2
					s1.3-0.9,2.2-0.9C1008.7,97.8,1009.2,97.9,1009.6,98.1z"/>
				<path class="st62" d="M1010.5,98.8c0.5,0.6,0.8,1.3,0.8,2.1c0,0.9-0.3,1.6-0.9,2.2c-0.6,0.6-1.3,0.9-2.2,0.9
					c-0.5,0-1-0.1-1.5-0.4c-0.5-0.2-0.8-0.6-1.1-1c0.3,0.3,0.6,0.6,1,0.7c0.4,0.2,0.8,0.3,1.3,0.3c0.9,0,1.6-0.3,2.2-0.9
					c0.6-0.6,0.9-1.3,0.9-2.2C1011,99.9,1010.8,99.3,1010.5,98.8z"/>
				
					<linearGradient id="SVGID_11_" gradientUnits="userSpaceOnUse" x1="-15797.2998" y1="4356.1724" x2="-15783.9824" y2="4356.1724" gradientTransform="matrix(9.300000e-02 0.1344 0.1344 -9.300000e-02 1891.2549 2631.0618)">
					<stop  offset="0" style="stop-color:#FFFFFF"/>
					<stop  offset="1" style="stop-color:#E5E3E6"/>
				</linearGradient>
				<path class="st63" d="M1009.4,105c-1.3,0.6-2.5,0.3-3.6-1c0.4,0.3,0.9,0.6,1.5,0.7c1.2,0.3,2.4,0,3.6-0.9c0,0-0.1,0.1-0.4,0.4
					C1010.2,104.5,1009.8,104.8,1009.4,105z"/>
				<path class="st9" d="M1006.9,99.3c0.1,0.1,0.1,0.2,0.1,0.4c0,0.1-0.1,0.3-0.2,0.4c-0.2,0.2-0.3,0.2-0.5,0.2
					c-0.2,0-0.3,0-0.4-0.1s-0.1-0.3-0.1-0.5c0-0.1,0.1-0.3,0.2-0.5c0.1-0.1,0.3-0.2,0.4-0.2C1006.7,99.2,1006.8,99.2,1006.9,99.3z"
					/>
				<path class="st9" d="M1007.1,99C1007.1,99,1007.1,99.1,1007.1,99C1007.1,99.1,1007,99.1,1007.1,99c-0.2,0.1-0.2,0.1-0.2,0
					S1006.9,98.9,1007.1,99C1007,98.9,1007,98.9,1007.1,99C1007.1,98.9,1007.1,99,1007.1,99z"/>
			</g>
			<path class="st52" d="M995.5,79c-0.3-0.3-0.7-0.5-1-0.8c0.6-0.4,1.4-0.5,2.3-0.3c0.8,0.1,1.5,0.4,2,0.7c1.1,0.6,1.9,1.4,2.5,2.2
				c0.8,1.1,1.5,2.8,2.2,5c1.1,3.6,1.6,5.5,1.5,5.5c-0.5,0.7-1.2,1.1-2.3,1.2c-0.5,0.1-1,0.1-1.4,0c-0.2-2.6-1-5.2-2.1-7.9
				C998.2,82,996.9,80.1,995.5,79z"/>
			
				<linearGradient id="SVGID_12_" gradientUnits="userSpaceOnUse" x1="-13186.8311" y1="10006.1279" x2="-13154.1299" y2="10006.1279" gradientTransform="matrix(0.1347 9.260000e-02 9.260000e-02 -0.1347 1863.0099 2701.4641)">
				<stop  offset="0" style="stop-color:#E4DFE5"/>
				<stop  offset="1" style="stop-color:#CFCDD3"/>
				<stop  offset="1" style="stop-color:#DFDEDB"/>
			</linearGradient>
			<path class="st64" d="M1013.8,137.6c0.4,0.1,0.7,0.2,0.9,0.3c0.8,0.3,1.7,0.3,2.7,0.2c1.2-0.2,2.1-0.4,2.8-0.8
				c0.8-0.4,1.3-0.8,1.8-1c0.1-0.1,0.5-0.2,1.1-0.4c0.5-0.2,0.8-0.3,0.9-0.4c0.2-0.2,0.4-0.6,0.6-1.2c0.1-0.6,0.3-0.9,0.6-1.1
				c0.8-0.5,1.5-1.2,2-2.1l0.5-1.1c0,0.9-0.2,1.9-0.7,3c-0.6,1.6-1.5,2.9-2.6,4c-1.5,1.4-3.1,2.4-4.7,2.9c-2.2,0.7-5.2,0.9-9.1,0.6
				c-3.7-0.3-6.7-1.5-8.9-3.8c-1.1-1.1-1.8-2.2-2-3.2c0.5,0.7,1.3,1.1,2.4,1.1c0.6,0,1,0.1,1.3,0.1c0.5,0,0.8,0.2,1,0.3
				c0.5,0.5,0.9,0.8,1.2,1c0.5,0.4,1.3,0.7,2.2,0.9c1.4,0.3,2.2,0.5,2.4,0.5c0.8,0.1,1.6,0.2,2.5,0.2
				C1013.1,137.5,1013.4,137.5,1013.8,137.6z"/>
			<g>
				<path class="st9" d="M1001.4,135c0.8-0.3,1.6-0.4,2.3-0.3c1.4,0.2,1.6,1.5,0.8,3.7c-0.9,2.5-2,3.7-3.5,3.8
					c-0.6,0-1.2-0.1-1.7-0.5s-1-0.9-1.4-1.5c-0.6-1.1-0.2-2.2,1.2-3.5c0.4-0.4,0.9-0.8,1.5-1.2L1001.4,135z"/>
				
					<linearGradient id="SVGID_13_" gradientUnits="userSpaceOnUse" x1="-14353.8584" y1="-6941.623" x2="-14322.0879" y2="-6941.623" gradientTransform="matrix(-9.600000e-03 0.1632 0.1632 9.600000e-03 1997.2034 2546.0679)">
					<stop  offset="0" style="stop-color:#E4DFE5"/>
					<stop  offset="1" style="stop-color:#CFCDD3"/>
					<stop  offset="1" style="stop-color:#DFDEDB"/>
				</linearGradient>
				<path class="st65" d="M1004.5,135c0.3,0.2,0.5,0.7,0.5,1.3s0,1.1-0.3,1.8c-0.5,1.4-1,2.4-1.4,3c-0.5,0.7-1.2,1.1-2,1.2
					c-0.9,0.2-1.6-0.1-2.3-0.9c2,0.6,3.5-0.3,4.6-2.6c0.3-0.7,0.6-1.6,0.7-2.5L1004.5,135z"/>
			</g>
			<g>
				<path class="st9" d="M1009.3,139.2c0.1,0.3,0.1,0.8,0,1.3c-0.1,0.6-0.3,1.2-0.5,1.7c-0.7,1.4-1.8,1.7-3.1,1.1
					c-1.3-0.6-1.9-1.5-1.7-2.7c0.1-0.8,0.5-1.6,1.2-2.4c0.7-0.8,1.3-1.3,1.9-1.4C1008.1,136.6,1008.8,137.4,1009.3,139.2z"/>
				
					<linearGradient id="SVGID_14_" gradientUnits="userSpaceOnUse" x1="-9430.9541" y1="-13022.6445" x2="-9409.5332" y2="-13022.6445" gradientTransform="matrix(-8.110000e-02 0.1419 0.1419 8.110000e-02 2091.9854 2534.0059)">
					<stop  offset="0" style="stop-color:#E4DFE5"/>
					<stop  offset="1" style="stop-color:#CFCDD3"/>
					<stop  offset="1" style="stop-color:#DFDEDB"/>
				</linearGradient>
				<path class="st66" d="M1009.4,139.5c0.1,0.8-0.1,1.6-0.5,2.5c-0.3,0.7-0.7,1.2-1.1,1.4c-0.2,0.1-0.5,0.2-0.8,0.2
					c-0.3,0-0.7,0-1.1-0.2c0.3,0.1,0.6,0,1-0.3c0.4-0.2,0.7-0.5,0.9-0.8c0.3-0.5,0.6-1.4,0.8-2.8c0.1-1.3,0.1-1.9,0.1-1.9
					C1009.1,138.2,1009.3,138.8,1009.4,139.5z"/>
			</g>
			<g>
				<path class="st9" d="M1012,144c-0.7-0.1-1.3-0.2-1.8-0.6c-0.7-0.5-1-1.2-0.9-2.1c0.1-0.6,0.4-1.2,0.8-1.9c0.7-1,1.3-1.6,2-1.8
					c1.1-0.4,2,0.4,2.7,2.4c0.3,0.9,0.4,1.7,0.1,2.4c-0.2,0.6-0.6,1-1.2,1.3C1013.3,143.9,1012.7,144,1012,144z"/>
				
					<linearGradient id="SVGID_15_" gradientUnits="userSpaceOnUse" x1="-13048.1025" y1="-9135.46" x2="-13026.1113" y2="-9135.46" gradientTransform="matrix(-3.420000e-02 0.1598 0.1598 3.420000e-02 2028.0204 2536.7651)">
					<stop  offset="0" style="stop-color:#E4DFE5"/>
					<stop  offset="1" style="stop-color:#CFCDD3"/>
					<stop  offset="1" style="stop-color:#DFDEDB"/>
				</linearGradient>
				<path class="st67" d="M1014.3,138.6c0.3,0.6,0.6,1.3,0.8,2.2c0.3,1.2-0.1,2-0.9,2.7c-0.6,0.4-1.2,0.6-2,0.5c0.2,0,0.6-0.3,1-0.8
					c0.5-0.5,0.8-1.1,0.9-1.6c0.1-0.5,0.1-1.3-0.2-2.3l-0.5-1.5C1013.7,137.8,1014,138.1,1014.3,138.6z"/>
			</g>
			<g>
				<path class="st9" d="M1018.4,143.7c-0.6,0.1-1.1,0.1-1.6,0c-0.7-0.2-1.1-0.8-1.2-1.7c-0.1-0.6,0-1.3,0.2-2
					c0.3-0.9,0.7-1.6,1.2-1.9c0.8-0.6,1.8-0.1,3,1.2c0.6,0.8,1,1.5,0.9,2.2c0,0.6-0.3,1.1-0.8,1.5
					C1019.6,143.3,1019,143.5,1018.4,143.7z"/>
				
					<linearGradient id="SVGID_16_" gradientUnits="userSpaceOnUse" x1="-15936.4785" y1="1883.936" x2="-15925.2422" y2="1883.936" gradientTransform="matrix(7.310000e-02 0.1462 0.1462 -7.310000e-02 1908.438 2607.28)">
					<stop  offset="0" style="stop-color:#E4DFE5"/>
					<stop  offset="1" style="stop-color:#CFCDD3"/>
					<stop  offset="1" style="stop-color:#DFDEDB"/>
				</linearGradient>
				<path class="st68" d="M1018.6,139.1c-0.3-0.5-0.6-0.9-0.9-1.2c0.7,0,1.4,0.4,2.1,1.3c0.7,0.8,1,1.6,1,2.4c0,0.5-0.2,1-0.7,1.4
					c-0.2,0.2-0.4,0.3-0.6,0.4c0.1-0.1,0.2-0.3,0.3-0.7c0-0.4,0-0.9-0.1-1.5C1019.6,140.6,1019.2,140,1018.6,139.1z"/>
			</g>
			<g>
				<path class="st9" d="M1025,137.3c0.2,0.1,0.3,0.3,0.5,0.5c0.4,0.4,0.6,0.9,0.8,1.3c0.5,1.4-0.1,2.5-1.8,3.3
					c-1.4,0.6-2.4,0.2-3.1-1.1c-0.3-0.5-0.4-1-0.5-1.7c-0.1-0.6-0.1-1,0-1.3c0.3-1.3,0.9-2.1,1.7-2.2c0.5-0.1,1.1,0.1,1.7,0.5
					L1025,137.3z"/>
				
					<linearGradient id="SVGID_17_" gradientUnits="userSpaceOnUse" x1="-5223.8848" y1="16429.293" x2="-5198.0669" y2="16429.293" gradientTransform="matrix(0.1635 0 0 -0.1635 1876.3416 2825.1907)">
					<stop  offset="0" style="stop-color:#E4DFE5"/>
					<stop  offset="1" style="stop-color:#CFCDD3"/>
					<stop  offset="1" style="stop-color:#DFDEDB"/>
				</linearGradient>
				<path class="st69" d="M1022.2,136.1c0.9-0.3,1.8,0.1,2.8,1.1c0.9,0.9,1.4,1.8,1.4,2.7c0,0.6-0.2,1.1-0.6,1.6
					c-0.1,0.2-0.3,0.3-0.4,0.4c-0.1,0.1-0.2,0.1-0.2,0.1c0.1-0.2,0.1-0.5,0.1-0.8c0-0.6-0.1-1.2-0.3-2c-0.2-0.6-0.7-1.4-1.6-2.1
					C1023,136.7,1022.6,136.4,1022.2,136.1z"/>
			</g>
			<g>
				<path class="st9" d="M1027.8,133c1.1,0.5,1.9,1,2.5,1.6c1,1,1.1,1.9,0.6,2.9c-0.3,0.6-0.7,1-1.2,1.4s-1,0.5-1.6,0.5
					c-1.3-0.1-2.3-1.2-3-3.4c-0.6-1.7-0.4-2.7,0.5-3.1c0.3-0.1,0.7-0.2,1.2-0.2C1027.2,132.8,1027.5,132.9,1027.8,133z"/>
				
					<linearGradient id="SVGID_18_" gradientUnits="userSpaceOnUse" x1="-5204.6924" y1="16450.5176" x2="-5169.4028" y2="16450.5176" gradientTransform="matrix(0.1635 0 0 -0.1635 1876.3416 2825.1907)">
					<stop  offset="0" style="stop-color:#E4DFE5"/>
					<stop  offset="1" style="stop-color:#CFCDD3"/>
					<stop  offset="1" style="stop-color:#DFDEDB"/>
				</linearGradient>
				<path class="st70" d="M1029.1,133.6c0.6,0.4,1.1,0.8,1.5,1.3s0.6,1,0.6,1.4c0,0.6-0.1,1.1-0.4,1.6c-0.2,0.2-0.3,0.4-0.5,0.5
					c0-0.2,0-0.5-0.1-0.9c-0.1-0.7-0.4-1.4-0.8-2.1c-0.4-0.6-1.1-1.2-2.3-1.8c-0.6-0.3-1.1-0.5-1.7-0.6
					C1026.4,132.4,1027.6,132.6,1029.1,133.6z"/>
			</g>
			<path class="st71" d="M994.5,78.2c0.9-0.4,1.9-0.5,2.9-0.2c0.8,0.2,1.6,0.7,2.5,1.3c0.8,0.6,1.5,1.5,2.2,2.7
				c0.4,0.8,0.8,1.6,1,2.4c0.7,2.2,1.1,3.4,1.2,3.6c0.6,2,0.9,3.1,0.8,3.2c-0.1,0.2-0.3,0.4-0.6,0.6c-0.8-3.1-1.3-5.1-1.6-6.1
				c-0.3-1.1-0.6-2-0.9-2.7c-0.5-1.1-1.3-2.2-2.3-3.3c-0.9-1.1-2.1-1.6-3.4-1.8C995.6,78,995,78.1,994.5,78.2z"/>
			<path class="st72" d="M994.5,78.2c0.7,0.1,1.4,0.6,2.2,1.5c0.8,0.9,1.7,2.1,2.5,3.5c0.8,1.4,1.5,3.3,2.2,5.9
				c0.2,0.9,0.4,1.7,0.5,2.5c0.1,0.7,0.2,1,0.1,1s-0.3,0-0.6,0c0-0.6-0.2-1.5-0.4-2.6c-0.5-2.2-1.2-4.3-2.3-6.5
				c-0.7-1.4-1.6-2.7-2.8-4C995.4,79,994.9,78.5,994.5,78.2z"/>
			<path class="st53" d="M1001.5,92.6c0.3,0,0.5,0,0.6,0v1c0,0.8,0,1.6,0,2.3c0,0.4,0,0.9,0,1.5c0,0.4,0.1,0.7,0.1,1
				c-0.1-0.4-0.2-1.1-0.4-2C1001.5,94.6,1001.4,93.3,1001.5,92.6z"/>
			
				<linearGradient id="SVGID_19_" gradientUnits="userSpaceOnUse" x1="-5368.3071" y1="16420.7383" x2="-5353.2866" y2="16420.7383" gradientTransform="matrix(0.1635 0 0 -0.1635 1876.3416 2825.1907)">
				<stop  offset="0" style="stop-color:#E4DFE5"/>
				<stop  offset="1" style="stop-color:#CFCDD3"/>
				<stop  offset="1" style="stop-color:#DFDEDB"/>
			</linearGradient>
			<path class="st73" d="M999.2,140.1c0.5,0.7,1.1,1.2,1.9,1.4c0.2,0.1,0.1,0.1-0.3,0.1c-0.3,0-0.6-0.1-0.9-0.2
				c-1-0.4-1.4-1.1-1.2-2.2C998.8,139.4,998.9,139.7,999.2,140.1z"/>
			
				<linearGradient id="SVGID_20_" gradientUnits="userSpaceOnUse" x1="-5331.0015" y1="16408.2012" x2="-5314.9312" y2="16408.2012" gradientTransform="matrix(0.1635 0 0 -0.1635 1876.3416 2825.1907)">
				<stop  offset="0" style="stop-color:#E4DFE5"/>
				<stop  offset="1" style="stop-color:#CFCDD3"/>
				<stop  offset="1" style="stop-color:#DFDEDB"/>
			</linearGradient>
			<path class="st74" d="M1006.4,143.2c-0.9-0.2-1.5-0.7-1.7-1.5c0.2,0.2,0.5,0.4,0.8,0.6c0.6,0.4,1.2,0.7,1.8,0.8
				c0.2,0,0.1,0.1-0.1,0.1C1007,143.2,1006.7,143.2,1006.4,143.2z"/>
			
				<linearGradient id="SVGID_21_" gradientUnits="userSpaceOnUse" x1="-5296.4282" y1="16403.8711" x2="-5272.5103" y2="16403.8711" gradientTransform="matrix(0.1635 0 0 -0.1635 1876.3416 2825.1907)">
				<stop  offset="0" style="stop-color:#E4DFE5"/>
				<stop  offset="1" style="stop-color:#CFCDD3"/>
				<stop  offset="1" style="stop-color:#DFDEDB"/>
			</linearGradient>
			<path class="st75" d="M1010.4,142.7c1.7,0.3,2.9,0.4,3.9,0.2c0.1,0,0.1,0-0.2,0.2c-0.3,0.2-0.5,0.3-0.9,0.4
				C1012.2,143.8,1011.3,143.5,1010.4,142.7L1010.4,142.7z"/>
			
				<linearGradient id="SVGID_22_" gradientUnits="userSpaceOnUse" x1="-5256.1265" y1="16407.0801" x2="-5235.2568" y2="16407.0801" gradientTransform="matrix(0.1635 0 0 -0.1635 1876.3416 2825.1907)">
				<stop  offset="0" style="stop-color:#E4DFE5"/>
				<stop  offset="1" style="stop-color:#CFCDD3"/>
				<stop  offset="1" style="stop-color:#DFDEDB"/>
			</linearGradient>
			<path class="st76" d="M1018.2,143c0.9-0.1,1.5-0.4,1.9-0.9c0.2-0.3,0.3-0.3,0.3-0.1s-0.2,0.4-0.4,0.7c-0.8,0.8-1.8,0.9-3,0.4
				C1017.4,143.1,1017.8,143.1,1018.2,143z"/>
			
				<linearGradient id="SVGID_23_" gradientUnits="userSpaceOnUse" x1="-5216.2769" y1="16414.623" x2="-5201.5059" y2="16414.623" gradientTransform="matrix(0.1635 0 0 -0.1635 1876.3416 2825.1907)">
				<stop  offset="0" style="stop-color:#E4DFE5"/>
				<stop  offset="1" style="stop-color:#CFCDD3"/>
				<stop  offset="1" style="stop-color:#DFDEDB"/>
			</linearGradient>
			<path class="st77" d="M1025.9,140.5c-0.1,0.9-0.7,1.4-1.6,1.7c-0.3,0.1-0.5,0.1-0.7,0.1c-0.2,0-0.2,0,0.1-0.1
				c0.3,0,0.7-0.3,1.4-0.9L1025.9,140.5z"/>
			
				<linearGradient id="SVGID_24_" gradientUnits="userSpaceOnUse" x1="-5187.373" y1="16437.252" x2="-5173.3271" y2="16437.252" gradientTransform="matrix(0.1635 0 0 -0.1635 1876.3416 2825.1907)">
				<stop  offset="0" style="stop-color:#E4DFE5"/>
				<stop  offset="1" style="stop-color:#CFCDD3"/>
				<stop  offset="1" style="stop-color:#DFDEDB"/>
			</linearGradient>
			<path class="st78" d="M1029.9,137.5l0.5-0.9c0.1,1.1-0.4,1.8-1.4,2.1c-0.3,0.1-0.6,0.1-0.8,0.1c-0.2,0-0.2-0.1,0.2-0.2
				C1029,138.5,1029.5,138.2,1029.9,137.5z"/>
			
				<linearGradient id="SVGID_25_" gradientUnits="userSpaceOnUse" x1="-5213.1392" y1="16533.1582" x2="-5188.2466" y2="16533.1582" gradientTransform="matrix(0.1635 0 0 -0.1635 1876.3416 2825.1907)">
				<stop  offset="0" style="stop-color:#E4DFE5"/>
				<stop  offset="1" style="stop-color:#CFCDD3"/>
				<stop  offset="1" style="stop-color:#DFDEDB"/>
			</linearGradient>
			<path class="st79" d="M1024.5,112.6c0.4,0.8,0.8,1.6,1.1,2.4c1.1,2.7,1.9,5.2,2.2,7.4c0.3,1.9,0.3,3.8,0.2,5.7
				c-0.1,2-0.4,3.4-0.9,4.1c-0.1,0.2-0.4,0.3-0.7,0.2c-0.3-0.1-0.5-0.5-0.5-1c0-0.2,0.2-1.1,0.5-2.6c0.3-1.4,0.4-2.7,0.4-3.8
				c0-2.3-0.4-4.9-1-7.6c-0.6-2.5-1.2-4.5-1.9-5.8C1024.1,111.9,1024.3,112.2,1024.5,112.6z"/>
			<path class="st80" d="M1021.1,89.8c-0.5-0.2-0.9-0.3-1.3-0.5l0.1-0.3c1,0.5,1.9,0.8,2.8,0.9h1V90c0,0.1,0,0.1-0.1,0.1
				C1022.9,90.3,1022.1,90.2,1021.1,89.8z"/>
			<path class="st80" d="M1002.1,90.6c0.8-0.1,1.7-0.4,2.7-0.9l0.1,0.3l-1.2,0.5c-0.9,0.3-1.8,0.5-2.4,0.4c0,0-0.1-0.1-0.1-0.3
				C1001.4,90.7,1001.7,90.7,1002.1,90.6z"/>
			<path class="st80" d="M1004.3,87.9l0.1,0.3l-1.2,0.5c-0.9,0.3-1.7,0.4-2.4,0.3l-0.1-0.3c0.2,0.1,0.5,0.1,0.9,0
				C1002.4,88.7,1003.3,88.4,1004.3,87.9z"/>
			<path class="st80" d="M1003.7,86l0.1,0.3l-1.1,0.5c-0.9,0.3-1.7,0.4-2.4,0.3l-0.1-0.3c0.2,0.1,0.5,0.1,0.9,0
				C1001.8,86.8,1002.7,86.5,1003.7,86z"/>
			<path class="st80" d="M1003.1,84.2l0.1,0.4l-1.2,0.5c-0.9,0.3-1.7,0.4-2.4,0.3l-0.1-0.3c0.2,0,0.5,0,0.9,0
				C1001.2,85,1002.1,84.7,1003.1,84.2z"/>
			<path class="st80" d="M1001.2,83c-0.9,0.4-1.7,0.5-2.4,0.4l-0.1-0.3c0.2,0,0.5,0,0.9,0c0.8-0.1,1.7-0.4,2.7-0.9l0.1,0.3
				L1001.2,83z"/>
			<path class="st80" d="M998.6,81.6c0.8-0.1,1.7-0.4,2.7-0.9l0.2,0.3l-1.2,0.6c-0.9,0.4-1.7,0.5-2.4,0.4l-0.2-0.3
				C997.9,81.7,998.2,81.6,998.6,81.6z"/>
			<path class="st80" d="M997.3,80.2c0.7-0.1,1.6-0.4,2.5-0.9l0.3,0.2L999,80c-0.9,0.3-1.6,0.5-2.3,0.4l-0.2-0.3
				C996.7,80.2,997,80.2,997.3,80.2z"/>
			<path class="st80" d="M998.2,78.3l0.3,0.1l-0.8,0.4c-0.7,0.3-1.3,0.4-2.1,0.4l-0.2-0.3c0.1,0,0.3,0,0.5,0
				C996.5,78.9,997.2,78.7,998.2,78.3z"/>
			<path class="st80" d="M1020.6,87.3c1,0.5,1.8,0.8,2.6,0.9h0.8v0.1c0,0.1,0,0.1,0,0.1c-0.7,0.1-1.5,0-2.4-0.4
				c-0.4-0.2-0.8-0.4-1.1-0.5L1020.6,87.3z"/>
			<path class="st80" d="M1021.4,85.6c1,0.5,1.8,0.8,2.4,0.9h0.6v0.1c0,0.1,0,0.1,0,0.1c-0.6,0.1-1.3,0-2.1-0.3
				c-0.4-0.2-0.7-0.4-1-0.6L1021.4,85.6z"/>
			<path class="st80" d="M1022.3,83.7c0.6,0.4,1.3,0.7,1.9,0.8l0.8,0.1v0.1c0,0.1,0,0.1,0,0.1c-0.6,0-1.3-0.1-1.9-0.4
				c-0.3-0.2-0.6-0.3-0.8-0.5L1022.3,83.7z"/>
			<path class="st80" d="M1025.3,82.5l0.7,0.1l-0.1,0.1c0,0.1-0.1,0.1-0.1,0.1c-0.7,0-1.3-0.2-1.8-0.5c-0.3-0.2-0.5-0.3-0.6-0.5
				l0.1-0.2C1024.1,82.1,1024.7,82.4,1025.3,82.5z"/>
			<path class="st80" d="M1025.2,80.8c-0.3-0.2-0.5-0.3-0.6-0.5l0.2-0.2c0.6,0.4,1.2,0.6,1.7,0.8l0.6,0.1c-0.1,0.2-0.2,0.3-0.2,0.3
				C1026.3,81.3,1025.8,81.1,1025.2,80.8z"/>
			<path class="st80" d="M1026.3,79.1c0.5,0.3,0.9,0.5,1.4,0.7l0.5,0.1c-0.2,0.2-0.2,0.2-0.2,0.2c-0.5,0-1-0.1-1.5-0.3
				c-0.2-0.1-0.4-0.3-0.5-0.4L1026.3,79.1z"/>
			<path class="st80" d="M1028,78.7c0.2,0.2,0.4,0.4,0.7,0.4h0.4l-0.3,0.2c-0.3,0-0.6,0-0.9-0.2c-0.2-0.1-0.3-0.2-0.4-0.3L1028,78.7
				z"/>
			<g>
				
					<linearGradient id="SVGID_26_" gradientUnits="userSpaceOnUse" x1="-15826.7891" y1="4365.1914" x2="-15794.2627" y2="4365.1914" gradientTransform="matrix(9.300000e-02 0.1344 0.1344 -9.300000e-02 1899.1338 2631.1057)">
					<stop  offset="0" style="stop-color:#FFFFFF"/>
					<stop  offset="1" style="stop-color:#E5E3E6"/>
				</linearGradient>
				<path class="st81" d="M1019.5,100.9c0,1-0.4,1.8-1.1,2.5c-0.7,0.7-1.6,1.1-2.5,1.1c-1,0-1.8-0.4-2.5-1.1
					c-0.7-0.7-1.1-1.5-1.1-2.5s0.4-1.8,1.1-2.5s1.5-1.1,2.5-1.1s1.8,0.4,2.5,1.1C1019.1,99,1019.5,99.9,1019.5,100.9z"/>
				
					<linearGradient id="SVGID_27_" gradientUnits="userSpaceOnUse" x1="16619.4238" y1="-7504.5703" x2="16639.2969" y2="-7504.5703" gradientTransform="matrix(-0.1238 -0.1067 -0.1067 0.1238 2275.1257 2805.4028)">
					<stop  offset="0" style="stop-color:#FFFFFF"/>
					<stop  offset="1" style="stop-color:#E5E3E6"/>
				</linearGradient>
				<path class="st82" d="M1019.2,100.9c0,0.9-0.3,1.7-1,2.3c-0.6,0.6-1.4,1-2.4,1c-0.9,0-1.7-0.3-2.3-1c-0.6-0.6-1-1.4-1-2.3
					s0.3-1.7,1-2.4c0.6-0.6,1.4-1,2.3-1c0.9,0,1.7,0.3,2.4,1S1019.2,100,1019.2,100.9z"/>
				<path d="M1019,100.9c0,0.9-0.3,1.6-0.9,2.2s-1.3,0.9-2.2,0.9s-1.6-0.3-2.2-0.9s-1-1.3-1-2.2c0-0.9,0.3-1.6,1-2.2
					c0.6-0.6,1.3-1,2.2-1s1.6,0.3,2.2,1C1018.7,99.3,1019,100,1019,100.9z"/>
				<path class="st61" d="M1017.3,98.1c0.4,0.2,0.8,0.5,1.1,0.9C1018.1,98.7,1017.8,98.4,1017.3,98.1c-0.3-0.1-0.8-0.2-1.2-0.2
					c-0.9,0-1.6,0.3-2.2,0.9c-0.6,0.6-0.9,1.3-0.9,2.2c0,0.7,0.2,1.3,0.6,1.8c-0.5-0.6-0.8-1.3-0.8-2.1c0-0.9,0.3-1.6,0.9-2.2
					c0.6-0.6,1.3-0.9,2.2-0.9C1016.3,97.8,1016.8,97.9,1017.3,98.1z"/>
				<path class="st62" d="M1018.1,98.8c0.5,0.6,0.8,1.3,0.8,2.1c0,0.9-0.3,1.6-0.9,2.2c-0.6,0.6-1.3,0.9-2.2,0.9
					c-0.5,0-1-0.1-1.5-0.4c-0.5-0.2-0.8-0.6-1.1-1c0.3,0.3,0.6,0.6,1,0.7c0.4,0.2,0.8,0.3,1.3,0.3c0.9,0,1.6-0.3,2.2-0.9
					c0.6-0.6,0.9-1.3,0.9-2.2C1018.6,99.9,1018.5,99.3,1018.1,98.8z"/>
				
					<linearGradient id="SVGID_28_" gradientUnits="userSpaceOnUse" x1="-15797.2949" y1="4356.4224" x2="-15783.9775" y2="4356.4224" gradientTransform="matrix(9.300000e-02 0.1344 0.1344 -9.300000e-02 1898.9053 2631.0618)">
					<stop  offset="0" style="stop-color:#FFFFFF"/>
					<stop  offset="1" style="stop-color:#E5E3E6"/>
				</linearGradient>
				<path class="st83" d="M1017.1,105c-1.3,0.6-2.5,0.3-3.6-1c0.4,0.3,0.9,0.6,1.5,0.7c1.2,0.3,2.4,0,3.6-0.9c0,0-0.1,0.1-0.4,0.4
					C1017.8,104.5,1017.4,104.8,1017.1,105z"/>
				<path class="st9" d="M1014.5,99.3c0.1,0.1,0.1,0.2,0.1,0.4c0,0.2-0.1,0.3-0.3,0.5c-0.1,0.1-0.3,0.2-0.5,0.3
					c-0.2,0-0.3,0-0.4-0.1c-0.1-0.1-0.1-0.2-0.1-0.4c0-0.2,0.1-0.3,0.3-0.5c0.1-0.1,0.3-0.2,0.5-0.2
					C1014.3,99.2,1014.4,99.2,1014.5,99.3z"/>
				<path class="st9" d="M1014.8,99C1014.8,99,1014.8,99.1,1014.8,99C1014.8,99.1,1014.7,99.1,1014.8,99c-0.2,0.1-0.2,0.1-0.2,0
					S1014.6,98.9,1014.8,99C1014.7,98.9,1014.7,98.9,1014.8,99C1014.7,98.9,1014.8,99,1014.8,99z"/>
			</g>
			<g>
				
					<linearGradient id="SVGID_29_" gradientUnits="userSpaceOnUse" x1="-15826.7871" y1="4365.0527" x2="-15794.2607" y2="4365.0527" gradientTransform="matrix(9.300000e-02 0.1344 0.1344 -9.300000e-02 1891.9833 2639.4058)">
					<stop  offset="0" style="stop-color:#FFFFFF"/>
					<stop  offset="1" style="stop-color:#E5E3E6"/>
				</linearGradient>
				<path class="st84" d="M1012.3,109.2c0,1-0.4,1.8-1.1,2.5s-1.6,1.1-2.5,1.1c-1,0-1.8-0.4-2.5-1.1c-0.7-0.7-1.1-1.5-1.1-2.5
					s0.4-1.8,1.1-2.5c0.7-0.7,1.5-1.1,2.5-1.1s1.8,0.4,2.5,1.1C1012,107.3,1012.3,108.2,1012.3,109.2z"/>
				
					<linearGradient id="SVGID_30_" gradientUnits="userSpaceOnUse" x1="16619.4004" y1="-7504.3716" x2="16639.2734" y2="-7504.3716" gradientTransform="matrix(-0.1238 -0.1067 -0.1067 0.1238 2267.9753 2813.7026)">
					<stop  offset="0" style="stop-color:#FFFFFF"/>
					<stop  offset="1" style="stop-color:#E5E3E6"/>
				</linearGradient>
				<path class="st85" d="M1012,109.2c0,0.9-0.3,1.7-1,2.3c-0.6,0.6-1.4,1-2.4,1c-0.9,0-1.7-0.3-2.3-1c-0.6-0.6-1-1.4-1-2.3
					s0.3-1.7,1-2.4c0.6-0.6,1.4-1,2.3-1s1.7,0.3,2.4,1C1011.7,107.5,1012,108.3,1012,109.2z"/>
				<path d="M1011.8,109.2c0,0.9-0.3,1.6-0.9,2.2c-0.6,0.6-1.3,0.9-2.2,0.9s-1.6-0.3-2.2-0.9c-0.6-0.6-1-1.3-1-2.2
					c0-0.9,0.3-1.6,1-2.2c0.6-0.6,1.3-1,2.2-1s1.6,0.3,2.2,1C1011.5,107.6,1011.8,108.3,1011.8,109.2z"/>
				<path class="st61" d="M1010.1,106.4c0.4,0.2,0.8,0.5,1.1,0.9C1010.9,107,1010.6,106.7,1010.1,106.4c-0.3-0.1-0.8-0.2-1.2-0.2
					c-0.9,0-1.6,0.3-2.2,0.9s-0.9,1.3-0.9,2.2c0,0.7,0.2,1.3,0.6,1.8c-0.5-0.6-0.8-1.3-0.8-2.1c0-0.9,0.3-1.6,0.9-2.2
					s1.3-0.9,2.2-0.9C1009.2,106.1,1009.7,106.2,1010.1,106.4z"/>
				<path class="st62" d="M1011,107.1c0.5,0.6,0.8,1.3,0.8,2.1c0,0.9-0.3,1.6-0.9,2.2c-0.6,0.6-1.3,0.9-2.2,0.9
					c-0.5,0-1-0.1-1.5-0.4s-0.8-0.6-1.1-1c0.3,0.3,0.6,0.6,1,0.7c0.4,0.2,0.8,0.3,1.3,0.3c0.9,0,1.6-0.3,2.2-0.9
					c0.6-0.6,0.9-1.3,0.9-2.2C1011.5,108.2,1011.3,107.6,1011,107.1z"/>
				
					<linearGradient id="SVGID_31_" gradientUnits="userSpaceOnUse" x1="-15797.2998" y1="4356.1719" x2="-15783.9824" y2="4356.1719" gradientTransform="matrix(9.300000e-02 0.1344 0.1344 -9.300000e-02 1891.7549 2639.3616)">
					<stop  offset="0" style="stop-color:#FFFFFF"/>
					<stop  offset="1" style="stop-color:#E5E3E6"/>
				</linearGradient>
				<path class="st86" d="M1009.9,113.3c-1.3,0.6-2.5,0.3-3.6-1c0.4,0.3,0.9,0.6,1.5,0.7c1.2,0.3,2.4,0,3.6-0.9c0,0-0.1,0.1-0.4,0.4
					C1010.7,112.8,1010.3,113.1,1009.9,113.3z"/>
				<path class="st9" d="M1007.4,107.6c0.1,0.1,0.1,0.3,0.1,0.5s-0.1,0.3-0.2,0.4c-0.2,0.2-0.3,0.2-0.5,0.2c-0.2,0-0.3,0-0.4-0.1
					s-0.1-0.2-0.1-0.4c0-0.2,0.1-0.3,0.2-0.5c0.1-0.1,0.3-0.2,0.4-0.2C1007.2,107.5,1007.3,107.5,1007.4,107.6z"/>
				<path class="st9" d="M1007.6,107.3C1007.6,107.3,1007.6,107.4,1007.6,107.3C1007.6,107.4,1007.5,107.4,1007.6,107.3
					c-0.2,0.1-0.2,0.1-0.2,0S1007.4,107.2,1007.6,107.3C1007.5,107.2,1007.5,107.2,1007.6,107.3
					C1007.6,107.2,1007.6,107.3,1007.6,107.3z"/>
			</g>
			<g>
				
					<linearGradient id="SVGID_32_" gradientUnits="userSpaceOnUse" x1="-15826.793" y1="4365.1914" x2="-15794.2666" y2="4365.1914" gradientTransform="matrix(9.300000e-02 0.1344 0.1344 -9.300000e-02 1899.6338 2639.4058)">
					<stop  offset="0" style="stop-color:#FFFFFF"/>
					<stop  offset="1" style="stop-color:#E5E3E6"/>
				</linearGradient>
				<path class="st87" d="M1020,109.2c0,1-0.4,1.8-1.1,2.5c-0.7,0.7-1.6,1.1-2.5,1.1c-1,0-1.8-0.4-2.5-1.1c-0.7-0.7-1.1-1.5-1.1-2.5
					s0.4-1.8,1.1-2.5s1.5-1.1,2.5-1.1s1.8,0.4,2.5,1.1C1019.6,107.3,1020,108.2,1020,109.2z"/>
				
					<linearGradient id="SVGID_33_" gradientUnits="userSpaceOnUse" x1="16619.4238" y1="-7504.5698" x2="16639.2969" y2="-7504.5698" gradientTransform="matrix(-0.1238 -0.1067 -0.1067 0.1238 2275.6257 2813.7026)">
					<stop  offset="0" style="stop-color:#FFFFFF"/>
					<stop  offset="1" style="stop-color:#E5E3E6"/>
				</linearGradient>
				<path class="st88" d="M1019.7,109.2c0,0.9-0.3,1.7-1,2.3c-0.6,0.6-1.4,1-2.4,1c-0.9,0-1.7-0.3-2.3-1c-0.6-0.6-1-1.4-1-2.3
					s0.3-1.7,1-2.4c0.6-0.6,1.4-1,2.3-1c0.9,0,1.7,0.3,2.4,1C1019.4,107.5,1019.7,108.3,1019.7,109.2z"/>
				<path d="M1019.5,109.2c0,0.9-0.3,1.6-0.9,2.2s-1.3,0.9-2.2,0.9s-1.6-0.3-2.2-0.9s-1-1.3-1-2.2c0-0.9,0.3-1.6,1-2.2
					c0.6-0.6,1.3-1,2.2-1s1.6,0.3,2.2,1C1019.2,107.6,1019.5,108.3,1019.5,109.2z"/>
				<path class="st61" d="M1017.8,106.4c0.4,0.2,0.8,0.5,1.1,0.9C1018.6,107,1018.3,106.7,1017.8,106.4c-0.3-0.1-0.8-0.2-1.2-0.2
					c-0.9,0-1.6,0.3-2.2,0.9c-0.6,0.6-0.9,1.3-0.9,2.2c0,0.7,0.2,1.3,0.6,1.8c-0.5-0.6-0.8-1.3-0.8-2.1c0-0.9,0.3-1.6,0.9-2.2
					c0.6-0.6,1.3-0.9,2.2-0.9C1016.8,106.1,1017.3,106.2,1017.8,106.4z"/>
				<path class="st62" d="M1018.6,107.1c0.5,0.6,0.8,1.3,0.8,2.1c0,0.9-0.3,1.6-0.9,2.2c-0.6,0.6-1.3,0.9-2.2,0.9
					c-0.5,0-1-0.1-1.5-0.4s-0.8-0.6-1.1-1c0.3,0.3,0.6,0.6,1,0.7c0.4,0.2,0.8,0.3,1.3,0.3c0.9,0,1.6-0.3,2.2-0.9
					c0.6-0.6,0.9-1.3,0.9-2.2C1019.1,108.2,1019,107.6,1018.6,107.1z"/>
				
					<linearGradient id="SVGID_34_" gradientUnits="userSpaceOnUse" x1="-15797.2949" y1="4356.4214" x2="-15783.9775" y2="4356.4214" gradientTransform="matrix(9.300000e-02 0.1344 0.1344 -9.300000e-02 1899.4053 2639.3616)">
					<stop  offset="0" style="stop-color:#FFFFFF"/>
					<stop  offset="1" style="stop-color:#E5E3E6"/>
				</linearGradient>
				<path class="st89" d="M1017.6,113.3c-1.3,0.6-2.5,0.3-3.6-1c0.4,0.3,0.9,0.6,1.5,0.7c1.2,0.3,2.4,0,3.6-0.9c0,0-0.1,0.1-0.4,0.4
					C1018.3,112.8,1017.9,113.1,1017.6,113.3z"/>
				<path class="st9" d="M1015,107.6c0.1,0.1,0.1,0.2,0.1,0.4c0,0.2-0.1,0.3-0.3,0.5c-0.1,0.1-0.3,0.2-0.5,0.3c-0.2,0-0.3,0-0.4-0.1
					c-0.1-0.1-0.1-0.2-0.1-0.4c0-0.2,0.1-0.3,0.3-0.5c0.1-0.1,0.3-0.2,0.5-0.2C1014.8,107.5,1014.9,107.5,1015,107.6z"/>
				<path class="st9" d="M1015.3,107.3C1015.3,107.3,1015.3,107.4,1015.3,107.3C1015.3,107.4,1015.2,107.4,1015.3,107.3
					c-0.2,0.1-0.2,0.1-0.2,0S1015.1,107.2,1015.3,107.3C1015.2,107.2,1015.2,107.2,1015.3,107.3
					C1015.2,107.2,1015.3,107.3,1015.3,107.3z"/>
			</g>
		</g>
		<g>
			<path class="st9" d="M1035.3,83c-0.1-0.9-2.3-1.7-6.8-2.5c-4.7-0.8-10.3-1.2-17-1.2c-6.6,0-12.3,0.4-17,1.2
				c-4.4,0.7-6.7,1.6-6.7,2.5c0.1,0.9,2.3,1.7,6.7,2.5c4.7,0.8,10.4,1.2,17,1.2s12.3-0.4,17-1.2C1033,84.7,1035.3,83.9,1035.3,83z
				 M1028.7,79.7c5,0.8,7.4,1.9,7.4,3.2c0.1,1.3-2.4,2.4-7.4,3.2c-4.7,0.8-10.4,1.2-17.1,1.2s-12.4-0.4-17.1-1.2
				c-5-0.8-7.4-1.9-7.4-3.2c-0.1-1.3,2.4-2.4,7.4-3.2c4.7-0.8,10.4-1.2,17.1-1.2S1024,78.9,1028.7,79.7z"/>
			<path class="st9" d="M1035.3,84.9c-0.1-0.9-2.3-1.7-6.8-2.5c-4.7-0.8-10.3-1.2-17-1.2c-6.6,0-12.3,0.4-17,1.2
				c-4.4,0.7-6.7,1.6-6.7,2.5c0.1,0.9,2.3,1.7,6.7,2.5c4.7,0.8,10.4,1.2,17,1.2s12.3-0.4,17-1.2C1033,86.7,1035.3,85.9,1035.3,84.9z
				 M1028.7,81.7c5,0.8,7.4,1.9,7.4,3.2c0.1,1.3-2.4,2.4-7.4,3.2c-4.7,0.8-10.4,1.2-17.1,1.2s-12.4-0.4-17.1-1.2
				c-5-0.8-7.4-1.9-7.4-3.2c-0.1-1.3,2.4-2.4,7.4-3.2c4.7-0.8,10.4-1.2,17.1-1.2S1024,80.9,1028.7,81.7z"/>
			<polygon class="st50" points="1006.3,80.4 1003.5,81.3 1003.5,84.2 1001.8,81.8 999.1,82.7 1000.8,80.4 999.1,78 1001.8,78.9 
				1003.5,76.6 1003.5,79.5 			"/>
			<polygon class="st50" points="1029.7,79.6 1028.3,80 1028.3,81.5 1027.5,80.3 1026.1,80.8 1027,79.6 1026.1,78.4 1027.5,78.9 
				1028.3,77.7 1028.3,79.1 			"/>
			<polygon class="st50" points="1026.7,88.8 1024.6,89.5 1024.6,91.7 1023.3,89.9 1021.2,90.6 1022.5,88.8 1021.2,87.1 
				1023.3,87.7 1024.6,86 1024.6,88.2 			"/>
			<polygon class="st50" points="993.5,87 992.5,87.3 992.5,88.4 991.8,87.5 990.8,87.9 991.4,87 990.8,86.1 991.8,86.4 992.5,85.6 
				992.5,86.7 			"/>
		</g>
	</g>
</g>
</svg>
