<?xml version="1.0" encoding="utf-8"?>
<!-- Generator: Adobe Illustrator 19.0.0, SVG Export Plug-In . SVG Version: 6.00 Build 0)  -->
<svg version="1.1" id="图层_1" xmlns="http://www.w3.org/2000/svg" xmlns:xlink="http://www.w3.org/1999/xlink" x="0px" y="0px"
	 viewBox="392 71 1024 100" style="enable-background:new 392 71 1024 100;" xml:space="preserve">
<style type="text/css">
	.st0{fill:#081842;}
	.st1{fill-rule:evenodd;clip-rule:evenodd;fill:url(#SVGID_1_);}
	.st2{fill-rule:evenodd;clip-rule:evenodd;fill:url(#SVGID_2_);}
	.st3{fill-rule:evenodd;clip-rule:evenodd;fill:#183262;}
	.st4{fill-rule:evenodd;clip-rule:evenodd;fill:#0F2142;}
	.st5{fill-rule:evenodd;clip-rule:evenodd;fill:#726841;}
	.st6{fill-rule:evenodd;clip-rule:evenodd;fill:#8EBB42;}
	.st7{fill-rule:evenodd;clip-rule:evenodd;fill:#11264E;}
	.st8{fill-rule:evenodd;clip-rule:evenodd;fill:#0B1B33;}
	.st9{fill-rule:evenodd;clip-rule:evenodd;fill:#FFFFFF;}
	.st10{fill-rule:evenodd;clip-rule:evenodd;fill:#152E5B;}
	.st11{fill-rule:evenodd;clip-rule:evenodd;fill:#E17638;}
	.st12{fill-rule:evenodd;clip-rule:evenodd;fill:#EB9D3F;}
	.st13{fill-rule:evenodd;clip-rule:evenodd;fill:#5FAADB;}
	.st14{fill-rule:evenodd;clip-rule:evenodd;fill:#459A57;}
	.st15{fill-rule:evenodd;clip-rule:evenodd;fill:#7D848B;}
	.st16{fill-rule:evenodd;clip-rule:evenodd;fill:#802A7C;}
	.st17{fill-rule:evenodd;clip-rule:evenodd;fill:#DA423E;}
	.st18{fill-rule:evenodd;clip-rule:evenodd;fill:#FCB5A0;}
	.st19{fill-rule:evenodd;clip-rule:evenodd;fill:#F98E75;}
	.st20{fill-rule:evenodd;clip-rule:evenodd;fill:#E9DFDF;}
	.st21{fill-rule:evenodd;clip-rule:evenodd;fill:#351504;}
	.st22{fill-rule:evenodd;clip-rule:evenodd;fill:#1C1313;}
	.st23{fill-rule:evenodd;clip-rule:evenodd;fill:#432A2A;}
	.st24{fill-rule:evenodd;clip-rule:evenodd;fill:#4F2006;}
	.st25{fill-rule:evenodd;clip-rule:evenodd;fill:#5F2324;}
	.st26{fill-rule:evenodd;clip-rule:evenodd;fill:#BD4A4D;}
	.st27{fill-rule:evenodd;clip-rule:evenodd;fill:#51261B;}
	.st28{fill-rule:evenodd;clip-rule:evenodd;fill:#853825;}
	.st29{fill-rule:evenodd;clip-rule:evenodd;fill:#F08F31;}
	.st30{fill-rule:evenodd;clip-rule:evenodd;fill:#A66C35;}
	.st31{fill-rule:evenodd;clip-rule:evenodd;fill:#C7690E;}
	.st32{fill-rule:evenodd;clip-rule:evenodd;fill:#ECAC99;}
	.st33{fill-rule:evenodd;clip-rule:evenodd;fill:#E2846E;}
	.st34{fill-rule:evenodd;clip-rule:evenodd;fill:#E9E9E9;}
	.st35{fill-rule:evenodd;clip-rule:evenodd;fill:#744F2F;}
	.st36{fill-rule:evenodd;clip-rule:evenodd;fill:#D6D3D7;}
	.st37{fill-rule:evenodd;clip-rule:evenodd;fill:#BBAB9D;}
	.st38{fill-rule:evenodd;clip-rule:evenodd;fill:#0B658C;}
	.st39{fill-rule:evenodd;clip-rule:evenodd;fill:#CDCDCD;}
	.st40{fill-rule:evenodd;clip-rule:evenodd;fill:#37A6D7;}
	.st41{fill-rule:evenodd;clip-rule:evenodd;fill:#208CBB;}
	.st42{fill-rule:evenodd;clip-rule:evenodd;fill:#8DD2F0;}
	.st43{fill-rule:evenodd;clip-rule:evenodd;fill:#1B9ED7;}
	.st44{fill-rule:evenodd;clip-rule:evenodd;fill:#835934;}
	.st45{fill-rule:evenodd;clip-rule:evenodd;fill:#E6DFE7;}
	.st46{fill-rule:evenodd;clip-rule:evenodd;fill:#CBB8A8;}
	.st47{fill-rule:evenodd;clip-rule:evenodd;fill:#E2E2E2;}
	.st48{fill-rule:evenodd;clip-rule:evenodd;fill:url(#SVGID_3_);}
	.st49{fill-rule:evenodd;clip-rule:evenodd;fill:url(#SVGID_4_);}
	.st50{fill-rule:evenodd;clip-rule:evenodd;fill:url(#SVGID_5_);}
	.st51{fill-rule:evenodd;clip-rule:evenodd;fill:url(#SVGID_6_);}
	.st52{fill-rule:evenodd;clip-rule:evenodd;fill:#CB9833;}
	.st53{fill-rule:evenodd;clip-rule:evenodd;fill:#A7812A;}
	.st54{fill-rule:evenodd;clip-rule:evenodd;fill:#B98B2E;}
	.st55{fill-rule:evenodd;clip-rule:evenodd;fill:#FBE04B;}
	.st56{fill-rule:evenodd;clip-rule:evenodd;fill:#F7CC45;}
	.st57{fill-rule:evenodd;clip-rule:evenodd;fill:#050B0B;}
	.st58{fill-rule:evenodd;clip-rule:evenodd;fill:#030000;}
	.st59{fill-rule:evenodd;clip-rule:evenodd;fill:url(#SVGID_7_);}
	.st60{fill-rule:evenodd;clip-rule:evenodd;fill:url(#SVGID_8_);}
	.st61{fill-rule:evenodd;clip-rule:evenodd;fill:url(#SVGID_9_);}
	.st62{fill-rule:evenodd;clip-rule:evenodd;fill:#EE7C58;}
	.st63{fill-rule:evenodd;clip-rule:evenodd;fill:url(#SVGID_10_);}
	.st64{fill-rule:evenodd;clip-rule:evenodd;fill:#872712;}
	.st65{fill-rule:evenodd;clip-rule:evenodd;fill:url(#SVGID_11_);}
	.st66{fill-rule:evenodd;clip-rule:evenodd;fill:url(#SVGID_12_);}
	.st67{fill-rule:evenodd;clip-rule:evenodd;fill:#B39E9D;}
	.st68{fill-rule:evenodd;clip-rule:evenodd;fill:#E5D7D6;}
	.st69{fill-rule:evenodd;clip-rule:evenodd;fill:#795B5A;}
	.st70{fill-rule:evenodd;clip-rule:evenodd;fill:#F19537;}
	.st71{fill-rule:evenodd;clip-rule:evenodd;fill:#2C0E0D;}
	.st72{fill-rule:evenodd;clip-rule:evenodd;fill:url(#SVGID_13_);}
	.st73{fill-rule:evenodd;clip-rule:evenodd;fill:url(#SVGID_14_);}
	.st74{fill-rule:evenodd;clip-rule:evenodd;fill:url(#SVGID_15_);}
	.st75{fill-rule:evenodd;clip-rule:evenodd;fill:#3A383E;}
	.st76{fill-rule:evenodd;clip-rule:evenodd;fill:#2E2C32;}
	.st77{fill-rule:evenodd;clip-rule:evenodd;fill:#4E4C55;}
	.st78{fill-rule:evenodd;clip-rule:evenodd;fill:#222025;}
	.st79{fill-rule:evenodd;clip-rule:evenodd;fill:#FFFF00;}
</style>
<rect id="XMLID_1_" x="391.7" y="71" class="st0" width="1024" height="100"/>
<g>
	
		<linearGradient id="SVGID_1_" gradientUnits="userSpaceOnUse" x1="6.704" y1="-84.9191" x2="25.4209" y2="-84.9191" gradientTransform="matrix(1.000000e-04 -1 1 -1.000000e-03 655.3181 128.7366)">
		<stop  offset="0" style="stop-color:#183262"/>
		<stop  offset="4.705880e-02" style="stop-color:#323C56"/>
		<stop  offset="0.1059" style="stop-color:#4E464A"/>
		<stop  offset="0.1725" style="stop-color:#675041"/>
		<stop  offset="0.2471" style="stop-color:#7B573A"/>
		<stop  offset="0.3333" style="stop-color:#8B5D36"/>
		<stop  offset="0.4392" style="stop-color:#966233"/>
		<stop  offset="0.5922" style="stop-color:#9C6432"/>
		<stop  offset="1" style="stop-color:#9E6532"/>
	</linearGradient>
	<path class="st1" d="M588.3,122.1l-35.9-0.4c1.1-1.5,2.2-3,3.4-4.7c2.5-3.3,4.7-6,6.7-8.2c3.4-3.6,6.1-5.4,8.1-5.4
		c2.6,0,6.3,3.1,11.2,9.3C584.3,115.9,586.5,119,588.3,122.1z"/>
	
		<linearGradient id="SVGID_2_" gradientUnits="userSpaceOnUse" x1="7.0593" y1="-110.9877" x2="33.7346" y2="-110.9877" gradientTransform="matrix(0 -1 1 -1.000000e-03 654.7121 128.7366)">
		<stop  offset="0" style="stop-color:#183262"/>
		<stop  offset="3.921570e-03" style="stop-color:#193262"/>
		<stop  offset="5.490200e-02" style="stop-color:#384053"/>
		<stop  offset="0.1137" style="stop-color:#544C48"/>
		<stop  offset="0.1804" style="stop-color:#6D573F"/>
		<stop  offset="0.251" style="stop-color:#826039"/>
		<stop  offset="0.3373" style="stop-color:#916735"/>
		<stop  offset="0.4471" style="stop-color:#9C6C33"/>
		<stop  offset="0.5922" style="stop-color:#A36E32"/>
		<stop  offset="1" style="stop-color:#A46F32"/>
	</linearGradient>
	<path class="st2" d="M544.1,95.1c3.7,0,9,4.5,16,13.4c3.5,4.5,6.6,8.9,9.3,13.3l-51.2-0.6c1.5-2.1,3.2-4.3,4.9-6.7
		c3.5-4.8,6.7-8.6,9.5-11.6C537.4,97.7,541.2,95.1,544.1,95.1z"/>
	<path class="st3" d="M1304.2,118.5c39.8,0.7,77,1.7,111.5,2.9V157l-258.4,7l-765.6-6.7v-38.6c109.4,1.7,222.8,3.1,340.3,4.1
		c235,1.9,372.6,1,413-2.8C1171.5,117.5,1224.6,117,1304.2,118.5z"/>
	<g>
		<path class="st4" d="M470.8,141.8c0,1.6-1.9,3-5.7,4.2c-3.8,1.2-8.4,1.8-13.7,1.8c-5.3,0-9.9-0.6-13.7-1.8
			c-3.8-1.1-5.7-2.5-5.7-4.2c0-1.6,1.9-3,5.7-4.2c3.8-1.2,8.3-1.8,13.7-1.8c5.4,0,9.9,0.6,13.7,1.8
			C468.9,138.8,470.8,140.2,470.8,141.8z"/>
		<g>
			<g>
				<path class="st5" d="M445.6,129c0.4,0.3,0.6,0.8,0.6,1.2v8c0,0.5-0.2,0.9-0.6,1.3c-0.4,0.3-0.8,0.5-1.3,0.5s-0.9-0.2-1.2-0.5
					c-0.4-0.4-0.5-0.8-0.5-1.3v-8c0-0.5,0.2-0.9,0.5-1.2c0.3-0.4,0.8-0.5,1.2-0.5S445.3,128.7,445.6,129z"/>
				<path class="st6" d="M452.5,125c0,2.3-0.8,4-2.3,5.2c-1.4,1.1-3.3,1.6-5.7,1.6c-2.4,0-4.2-0.5-5.7-1.6c-1.6-1.2-2.3-2.9-2.3-5.2
					c0-2.8,0.8-5.7,2.3-8.8c1.7-3.5,3.6-5.2,5.7-5.2s3.9,1.8,5.7,5.2C451.7,119.3,452.5,122.2,452.5,125z"/>
			</g>
			<g>
				<path class="st5" d="M456.7,141.9c0,0.3-0.1,0.5-0.3,0.7c-0.2,0.2-0.5,0.3-0.8,0.3c-0.3,0-0.5-0.1-0.7-0.3
					c-0.2-0.2-0.3-0.4-0.3-0.7v-4.5c0-0.3,0.1-0.5,0.3-0.7s0.4-0.3,0.7-0.3c0.3,0,0.5,0.1,0.8,0.3c0.2,0.2,0.3,0.4,0.3,0.7V141.9z"
					/>
				<path class="st6" d="M460.2,134.5c0,1.3-0.4,2.2-1.3,2.9c-0.8,0.6-1.8,0.9-3.2,0.9c-1.3,0-2.3-0.3-3.1-0.9
					c-0.9-0.6-1.3-1.6-1.3-2.9c0-1.5,0.4-3.2,1.3-5c0.9-1.9,2-2.9,3.1-2.9c1.1,0,2.2,1,3.2,2.9C459.8,131.3,460.2,133,460.2,134.5z"
					/>
			</g>
		</g>
	</g>
	<path class="st7" d="M524,143.2c0-1.9,4.5-3.6,13.6-4.9c9.1-1.4,20-2,32.9-2c12.9,0,23.8,0.7,32.9,2c9.1,1.3,13.6,3,13.6,4.9
		c0,1.9-4.5,3.5-13.6,4.9c-9.1,1.3-20.1,2-32.9,2c-12.8,0-23.8-0.7-32.9-2C528.5,146.8,524,145.2,524,143.2z"/>
	<path class="st7" d="M1058.4,160.8c0,1.1-0.8,2-2.3,2.8c-1.6,0.7-3.4,1.1-5.6,1.1c-2.2,0-4-0.4-5.6-1.1c-1.5-0.8-2.3-1.7-2.3-2.8
		c0-1.1,0.8-2,2.3-2.8c1.6-0.8,3.4-1.1,5.6-1.1c2.2,0,4.1,0.4,5.6,1.1C1057.7,158.9,1058.4,159.8,1058.4,160.8z"/>
	<path class="st4" d="M1347,151.4c39.1-3,62-5.5,68.7-7.4v23.9h-1024V153c40.7-3.2,88.7-5.6,144.2-7.3
		c110.9-3.4,203.4-1.5,277.5,5.6c107.7,10.5,236.5,13.2,386.2,8C1253,157.5,1302.1,154.8,1347,151.4z"/>
	<path class="st8" d="M692.7,161.1c0,0.6-0.6,1.2-1.9,1.6c-1.3,0.4-2.8,0.6-4.6,0.6c-1.8,0-3.3-0.2-4.6-0.6c-1.3-0.4-1.9-1-1.9-1.6
		c0-0.6,0.6-1.2,1.9-1.6s2.8-0.7,4.6-0.7c1.8,0,3.3,0.2,4.6,0.7C692.1,159.9,692.7,160.5,692.7,161.1z"/>
	<path class="st9" d="M1349.2,109.7c0,1.3-0.6,2.4-1.8,3.3c-1.2,0.9-2.6,1.4-4.3,1.4c-1.7,0-3.1-0.5-4.3-1.4c-1.2-0.9-1.8-2-1.8-3.3
		c0-1.3,0.6-2.4,1.8-3.3c1.2-0.9,2.6-1.4,4.3-1.4c1.7,0,3.1,0.5,4.3,1.4C1348.6,107.3,1349.2,108.4,1349.2,109.7z"/>
	<path class="st9" d="M1353.2,105.7c0,1.3-0.6,2.4-1.8,3.3c-1.2,0.9-2.6,1.3-4.3,1.3c-1.7,0-3.1-0.4-4.3-1.3c-1.2-0.9-1.8-2-1.8-3.3
		c0-1.3,0.6-2.4,1.8-3.3c1.2-0.9,2.6-1.4,4.3-1.4c1.7,0,3.1,0.5,4.3,1.4C1352.7,103.2,1353.2,104.3,1353.2,105.7z"/>
	<path class="st9" d="M1354.2,111.7c0,1.3-0.6,2.4-1.8,3.3c-1.2,0.9-2.6,1.4-4.3,1.4c-1.7,0-3.1-0.5-4.3-1.4c-1.2-0.9-1.8-2-1.8-3.3
		c0-1.3,0.6-2.4,1.8-3.3c1.2-0.9,2.6-1.4,4.3-1.4c1.7,0,3.1,0.5,4.3,1.4C1353.7,109.3,1354.2,110.4,1354.2,111.7z"/>
	<path class="st9" d="M1359.6,108c0,1.3-0.6,2.4-1.8,3.3c-1.2,0.9-2.6,1.4-4.3,1.4s-3.1-0.5-4.3-1.4c-1.2-0.9-1.8-2-1.8-3.3
		s0.6-2.4,1.8-3.3c1.2-0.9,2.6-1.4,4.3-1.4s3.1,0.5,4.3,1.4C1359.1,105.6,1359.6,106.7,1359.6,108z"/>
	<path class="st9" d="M1363,111.4c0,1.3-0.6,2.4-1.8,3.3c-1.2,0.9-2.6,1.3-4.3,1.3c-1.7,0-3.1-0.4-4.3-1.3c-1.2-0.9-1.8-2-1.8-3.3
		c0-1.3,0.6-2.5,1.8-3.4c1.2-0.9,2.6-1.4,4.3-1.4c1.7,0,3.1,0.5,4.3,1.4C1362.4,109,1363,110.1,1363,111.4z"/>
	<path class="st9" d="M1317.6,120.8c0,1-0.4,1.8-1.3,2.5c-0.9,0.7-2,1-3.2,1c-1.2,0-2.3-0.3-3.1-1c-0.9-0.7-1.4-1.5-1.4-2.5
		c0-1,0.5-1.8,1.4-2.5c0.9-0.7,1.9-1,3.1-1c1.3,0,2.3,0.3,3.2,1C1317.2,119,1317.6,119.8,1317.6,120.8z"/>
	<path class="st9" d="M1320.6,117.8c0,1-0.4,1.8-1.3,2.5c-0.9,0.7-2,1-3.2,1c-1.2,0-2.3-0.3-3.1-1c-0.9-0.7-1.4-1.5-1.4-2.5
		c0-1,0.5-1.8,1.4-2.5c0.9-0.7,1.9-1,3.1-1c1.3,0,2.3,0.3,3.2,1C1320.2,116,1320.6,116.8,1320.6,117.8z"/>
	<path class="st9" d="M1321.4,122.3c0,1-0.4,1.8-1.3,2.5c-0.9,0.7-2,1-3.2,1c-1.2,0-2.3-0.3-3.1-1c-0.9-0.7-1.4-1.5-1.4-2.5
		c0-1,0.5-1.8,1.4-2.5c0.9-0.7,1.9-1,3.1-1c1.3,0,2.3,0.3,3.2,1C1321,120.5,1321.4,121.3,1321.4,122.3z"/>
	<path class="st9" d="M1325.4,119.5c0,1-0.4,1.8-1.3,2.5c-0.9,0.7-2,1-3.2,1c-1.2,0-2.3-0.3-3.1-1c-0.9-0.7-1.4-1.5-1.4-2.5
		c0-1,0.5-1.8,1.4-2.5c0.9-0.7,1.9-1,3.1-1c1.3,0,2.3,0.3,3.2,1C1325,117.8,1325.4,118.6,1325.4,119.5z"/>
	<path class="st9" d="M1327.9,122c0,1-0.4,1.8-1.3,2.5c-0.9,0.7-2,1-3.2,1c-1.2,0-2.3-0.3-3.1-1c-0.9-0.7-1.4-1.5-1.4-2.5
		c0-1,0.5-1.8,1.4-2.5c0.9-0.7,1.9-1,3.1-1c1.3,0,2.3,0.3,3.2,1C1327.5,120.2,1327.9,121.1,1327.9,122z"/>
	<path class="st9" d="M612.7,112c0,1-0.4,1.8-1.3,2.5c-0.9,0.7-2,1-3.2,1c-1.2,0-2.3-0.3-3.2-1c-0.9-0.7-1.3-1.5-1.3-2.5
		c0-1,0.4-1.8,1.3-2.5c0.9-0.7,2-1,3.2-1c1.3,0,2.3,0.3,3.2,1C612.3,110.2,612.7,111.1,612.7,112z"/>
	<path class="st9" d="M615.7,109c0,1-0.4,1.8-1.3,2.5c-0.9,0.7-2,1-3.2,1c-1.2,0-2.3-0.3-3.2-1c-0.9-0.7-1.3-1.5-1.3-2.5
		c0-1,0.4-1.8,1.3-2.5c0.9-0.7,2-1,3.2-1c1.3,0,2.3,0.3,3.2,1C615.3,107.2,615.7,108.1,615.7,109z"/>
	<path class="st9" d="M616.5,113.5c0,1-0.4,1.8-1.3,2.5c-0.9,0.7-2,1-3.2,1c-1.2,0-2.3-0.3-3.2-1c-0.9-0.7-1.3-1.5-1.3-2.5
		c0-1,0.4-1.8,1.3-2.5c0.9-0.7,2-1,3.2-1c1.3,0,2.3,0.3,3.2,1C616,111.8,616.5,112.6,616.5,113.5z"/>
	<path class="st9" d="M620.5,110.8c0,1-0.4,1.8-1.3,2.5c-0.9,0.7-2,1-3.2,1c-1.2,0-2.3-0.3-3.2-1c-0.9-0.7-1.3-1.5-1.3-2.5
		c0-1,0.4-1.8,1.3-2.5c0.9-0.7,2-1,3.2-1c1.3,0,2.3,0.3,3.2,1C620,109,620.5,109.8,620.5,110.8z"/>
	<path class="st9" d="M623,113.3c0,1-0.4,1.8-1.3,2.5c-0.9,0.7-2,1-3.2,1c-1.2,0-2.3-0.3-3.2-1c-0.9-0.7-1.3-1.5-1.3-2.5
		c0-1,0.4-1.8,1.3-2.5c0.9-0.7,2-1,3.2-1c1.3,0,2.3,0.3,3.2,1C622.5,111.5,623,112.3,623,113.3z"/>
	<path class="st4" d="M1302.1,132c0,0.6-0.6,1.2-1.9,1.6c-1.3,0.4-2.8,0.7-4.6,0.7s-3.3-0.2-4.6-0.7c-1.3-0.4-1.9-1-1.9-1.6
		c0-0.6,0.6-1.1,1.9-1.5c1.3-0.5,2.8-0.7,4.6-0.7s3.3,0.2,4.6,0.7C1301.5,130.8,1302.1,131.3,1302.1,132z"/>
	<g>
		<path class="st5" d="M1297.1,123.8v6.7c0,0.4-0.1,0.8-0.5,1c-0.3,0.3-0.6,0.5-1,0.5c-0.4,0-0.8-0.2-1.1-0.5
			c-0.3-0.3-0.5-0.6-0.5-1v-6.7c0-0.4,0.2-0.8,0.5-1c0.3-0.3,0.7-0.5,1.1-0.5c0.4,0,0.8,0.2,1,0.5
			C1296.9,123,1297.1,123.3,1297.1,123.8z"/>
		<path class="st6" d="M1302.4,119.3c0,1.9-0.6,3.4-1.9,4.4c-1.2,0.9-2.7,1.3-4.7,1.3c-2,0-3.6-0.4-4.8-1.3c-1.3-1-2-2.5-2-4.4
			c0-2.3,0.7-4.8,2-7.5c1.5-2.9,3-4.4,4.8-4.4s3.3,1.5,4.7,4.4C1301.7,114.5,1302.4,117,1302.4,119.3z"/>
	</g>
	<path class="st10" d="M1251.7,126.1c0,1.2-1.4,2.3-4.1,3.2c-2.8,0.9-6.1,1.3-9.9,1.3c-3.9,0-7.2-0.4-10-1.3c-2.8-0.9-4.2-2-4.2-3.2
		c0-1.3,1.4-2.3,4.2-3.2c2.7-0.9,6-1.4,10-1.4c3.9,0,7.2,0.5,9.9,1.4C1250.4,123.8,1251.7,124.8,1251.7,126.1z"/>
	<path class="st7" d="M715,125.2c2.9,0,5.4,0.3,7.4,1s3.1,1.5,3.1,2.4c0,0.9-1,1.7-3.1,2.4c-2.1,0.7-4.5,1-7.4,1
		c-2.9,0-5.4-0.3-7.5-1c-2.1-0.7-3.1-1.5-3.1-2.4c0-0.9,1-1.7,3.1-2.4C709.6,125.6,712,125.2,715,125.2z"/>
	<g>
		<path class="st11" d="M1134.7,115.5l-2.6-5.7c-0.2-0.3-0.1-0.6,0.2-0.8l6-2c0.3-0.1,0.5,0,0.7,0.3l3,6.5c0.1,0.1,0.1,0.3,0,0.4
			c-0.1,0.2-0.2,0.3-0.4,0.3l-6.4,1C1135,115.7,1134.8,115.7,1134.7,115.5z"/>
		<path class="st12" d="M1128,77.4c0.2-0.2,0.4-0.1,0.5,0.1l3,6.7l-4.1,1.5c-0.3,0.1-0.4,0.2-0.2,0.5l2,4.5l-6.4,3l-2.5-5.5
			c-0.1-0.3-0.3-0.3-0.6-0.2l-1.1,0.6l-1.8-4c-0.1-0.2-0.1-0.5,0.2-0.7L1128,77.4z"/>
		<path class="st13" d="M1137.5,82.2c0.3-0.1,0.5,0,0.6,0.3l4.5,9.8c0.1,0.3,0.1,0.5-0.2,0.7l-3.8,2.3l-1-2.2
			c-0.1-0.2-0.3-0.3-0.6-0.2l-5.6,2.5l-2.1-4.7l4-1.9c0.3-0.1,0.3-0.3,0.2-0.6l-1.9-4L1137.5,82.2z"/>
		<path class="st14" d="M1131.6,84.2l1.9,4c0.1,0.3,0,0.5-0.2,0.6l-4,1.9l-2-4.5c-0.1-0.3-0.1-0.5,0.2-0.5L1131.6,84.2z"/>
		<path class="st15" d="M1141.1,101c0.1,0.3,0.1,0.5-0.1,0.7l-7.3,5.3c-0.2,0.2-0.4,0.1-0.6-0.2l-4.4-9.6c-0.1-0.3,0-0.5,0.2-0.7
			l2.4-1.1l1.2,2.8c0.2,0.3,0.4,0.4,0.7,0.2l5.2-3.2L1141.1,101z"/>
		<path class="st16" d="M1136.9,92.9c0.3-0.1,0.5,0,0.6,0.2l1,2.2l-5.3,3.2c-0.2,0.1-0.4,0-0.6-0.2l-1.2-2.8L1136.9,92.9z"/>
		<path class="st17" d="M1112.6,92.3c-0.1-0.3,0-0.5,0.2-0.7l6.8-3.5c0.3-0.1,0.5-0.1,0.6,0.2l4.9,10.7c0.1,0.3,0,0.4-0.3,0.5
			l-7.3,2.3c-0.3,0.1-0.5,0-0.7-0.3L1112.6,92.3z"/>
	</g>
	<g>
		<path class="st4" d="M828.4,141c0,0.7-1.8,1.3-5.5,1.8c-3.6,0.5-8,0.7-13.2,0.7s-9.6-0.2-13.3-0.7c-3.6-0.5-5.4-1.1-5.4-1.8
			c0-0.7,1.8-1.3,5.4-1.8c3.6-0.5,8-0.7,13.3-0.7c5.2,0,9.5,0.2,13.2,0.7C826.5,139.7,828.4,140.3,828.4,141z"/>
		<g>
			<g>
				<g>
					<path class="st18" d="M813.8,108.8l-0.7,2.4c0.4,1,1.3,1.5,2.9,1.6c0-0.3,0.1-0.6,0.2-0.9c0.1-0.2,0.1-0.4,0.2-0.5
						c-0.6-0.2-1.1-0.5-1.5-0.9c-0.1-0.1-0.1-0.1-0.2-0.2C814.4,109.7,814.1,109.3,813.8,108.8z"/>
					<path class="st19" d="M813.8,108.8c0.3,0.5,0.6,0.9,1,1.3c0.1,0.1,0.1,0.1,0.2,0.2c0.4,0.4,0.9,0.7,1.5,0.9
						c0.3-0.5,0.7-1.1,1.2-1.8c0-0.4-0.1-0.8-0.2-1.1c-0.4-1.4-1.3-2.4-2.7-2.9L813.8,108.8z"/>
				</g>
				<g>
					<g>
						<path class="st18" d="M823.9,90.2l1.2,2.9l0.8,3.6c0-0.2,0.1-0.3,0.1-0.5c-0.2-2.2-0.8-4.3-1.8-6.2
							C824.1,90.1,824,90.1,823.9,90.2z M813.3,97.7l0.1,4.7c0.3,0.4,0.6,0.9,0.8,1.3c0.1,0.2,0.3,0.4,0.4,0.6c0,1.8,0.3,3.4,1,4.7
							c0.4,0.8,1,1.5,1.7,2.1c0.1,0.1,0.2,0.2,0.4,0.2c0.7,0.4,1.4,0.8,1.9,1l0.1,0.1c0.1,0,0.1,0,0.2,0.1c0.6,0.2,1.1,0.4,1.5,0.4
							c0.9,0.1,1.7-0.5,2.6-2c0.4-0.7,0.8-1.4,1.1-2c0.1-0.3,0.3-0.6,0.4-0.9c0.1-0.2,0.2-0.4,0.2-0.6c0.1-0.2,0.1-0.5,0.2-0.7
							l0.5-2c-0.3,0-0.5-0.2-0.7-0.4l1.7-0.8c-0.5-0.4-1-0.7-1.3-1.2c0,0-0.1-0.1-0.1-0.2c-0.1-0.1-0.1-0.2-0.2-0.3
							c-0.1-0.1-0.1-0.2-0.2-0.4c-0.2-0.5-0.3-1.1-0.2-2c0-0.2,0-0.5,0.1-0.7l-0.7-3.5l-0.4-0.6V97c-1.3-0.7-2.4-1.6-3.2-3
							c-0.6,0.2-1.1,0.3-1.7,0.5C817.2,95.2,815.2,96.3,813.3,97.7C813.3,97.6,813.3,97.6,813.3,97.7z"/>
						<path class="st19" d="M825.8,96.7l-0.8-3.6l-1.2-2.9c-4,1.2-7.5,3.4-10.7,6.5l0,1c0,0,0.1,0,0.1-0.1c1.8-1.3,3.8-2.3,6-3.1
							c0.5-0.2,1.1-0.3,1.7-0.5c0.9,1.3,1.9,2.3,3.2,3v-2.4l0.4,0.6l0.7,3.5c0.1-0.5,0.2-1.2,0.4-1.8
							C825.8,96.8,825.8,96.7,825.8,96.7z M827.4,103.4l-1.7,0.8c0.1,0.3,0.3,0.4,0.7,0.4C826.7,104.3,827.1,103.9,827.4,103.4z
							 M813.4,102.3l0.1,2.2c0.1,1,0.4,2,0.8,2.8c0.2,0.6,0.5,1.1,0.8,1.5c0.6,0.8,1.3,1.5,2.2,2.1c-0.7-0.6-1.2-1.3-1.7-2.1
							c-0.7-1.3-1-2.8-1-4.7c-0.1-0.2-0.2-0.4-0.4-0.6C813.9,103.2,813.7,102.8,813.4,102.3z"/>
					</g>
					<g>
						<g>
							<path class="st9" d="M821,99.4c1.3-0.1,2.5,0.1,3.5,0.6c0,0.5,0,1-0.1,1.5c0,0.5-0.1,0.9-0.2,1.4c-0.7-0.1-1.4-0.4-2-0.8
								c-0.2-0.2-0.5-0.4-0.7-0.6c-0.1-0.1-0.2-0.2-0.2-0.2c0,0,0,0,0,0c-0.2-0.3-0.3-0.8-0.3-1.3C821.1,99.7,821,99.6,821,99.4z"/>
							<path class="st20" d="M824.5,100c-1-0.4-2.2-0.6-3.5-0.6c0-0.3,0-0.6,0-0.9h0c1.1-0.3,2.3-0.3,3.5-0.2c0,0.2,0,0.5,0,0.7
								c0,0.3,0,0.5,0,0.8C824.5,99.9,824.5,100,824.5,100z"/>
							<path class="st21" d="M821,99.4c0,0.2,0,0.3,0,0.5c0.1,0.5,0.2,1,0.3,1.3c-0.3-0.4-0.5-0.8-0.7-1.3c-0.1-0.5-0.2-1.1-0.2-1.8
								c1.4-0.4,2.7-0.5,4-0.3l0,0.5c-1.2-0.1-2.4-0.1-3.5,0.2h0C821,98.9,821,99.2,821,99.4z"/>
						</g>
						<g>
							<path class="st22" d="M823.6,99.1c-0.1,0.4-0.2,0.8-0.2,1.4c0,0.5,0.1,1,0.2,1.4c0.1,0.4,0.2,0.6,0.4,0.6
								c0.2,0,0.3-0.2,0.5-0.6c0.1-0.4,0.2-0.8,0.2-1.4c0-0.5,0-1-0.1-1.4c-0.1-0.4-0.3-0.6-0.5-0.6
								C823.8,98.5,823.7,98.7,823.6,99.1z M824,99c0-0.1,0-0.2,0.1-0.2c0.1,0,0.1,0,0.2,0.1c0.1,0.1,0.1,0.2,0.2,0.3
								c0,0.1,0,0.3,0,0.4c0,0.1-0.1,0.2-0.1,0.2c-0.1,0-0.1,0-0.2-0.1c-0.1-0.1-0.1-0.2-0.2-0.3C823.9,99.3,823.9,99.1,824,99z
								 M824,100.9c0.1,0.1,0.2,0.2,0.2,0.4c0,0.2,0.1,0.3,0,0.5c0,0.1-0.1,0.2-0.2,0.2c-0.1,0-0.2,0-0.3-0.1
								c-0.1-0.1-0.2-0.2-0.2-0.4c0-0.2,0-0.3,0-0.5c0-0.1,0.1-0.2,0.2-0.2C823.8,100.7,823.9,100.8,824,100.9z"/>
							<path class="st23" d="M824,100.9c-0.1-0.1-0.2-0.1-0.3-0.1c-0.1,0-0.2,0.1-0.2,0.2c0,0.2,0,0.3,0,0.5c0,0.2,0.1,0.3,0.2,0.4
								c0.1,0.1,0.2,0.2,0.3,0.1c0.1,0,0.2-0.1,0.2-0.2c0-0.2,0-0.3,0-0.5C824.1,101.1,824.1,101,824,100.9z"/>
							<path class="st9" d="M824,99c0,0.1,0,0.2,0,0.4c0,0.1,0.1,0.2,0.2,0.3c0.1,0.1,0.1,0.1,0.2,0.1c0.1,0,0.1-0.1,0.1-0.2
								c0-0.1,0-0.2,0-0.4c0-0.1-0.1-0.2-0.2-0.3c-0.1-0.1-0.1-0.1-0.2-0.1C824,98.8,824,98.9,824,99z"/>
						</g>
						<path class="st24" d="M823.9,96.7C823.9,96.7,823.9,96.7,823.9,96.7c-0.1-0.1-0.1-0.1-0.2-0.1c-0.1-0.1-0.2-0.2-0.4-0.3
							c0,0,0,0,0-0.1c-0.7-0.4-1.4-0.8-2.3-1.1c-0.1,0-0.2-0.1-0.2-0.1c-0.1,0-0.2-0.1-0.3-0.1c0,0-0.1,0.1-0.1,0.1
							c-0.5,0.5-0.8,1.1-1.2,1.8c0.2,0,0.4,0.1,0.6,0.2c1,0.2,2.1,0.6,3,1c0.2,0.1,0.4,0.2,0.6,0.3c0.3,0.2,0.7,0.4,1.1,0.6
							c0,0,0,0,0,0l0.9-1c-0.1-0.1-0.1-0.1-0.2-0.2c-0.1-0.1-0.2-0.2-0.3-0.3C824.6,97.3,824.3,97,823.9,96.7z"/>
						<g>
							<path class="st9" d="M825.6,106.9l-0.2,0.8c-0.8,0-1.7-0.4-2.8-1.1c0,0,0,0,0-0.1c0.3-0.5,0.7-0.8,0.9-0.8c0.1,0,0.2,0,0.2,0
								c0,0,0,0,0,0C824.4,106.3,825,106.7,825.6,106.9z M823.9,110.8c-0.6,0.2-1.3,0.3-2,0.2c-0.3,0-0.5-0.2-0.5-0.5
								c0-0.1,0-0.1,0-0.2c0-0.2,0-0.4,0.1-0.6c0.9,0.4,1.6,0.6,2.1,0.6c0.1,0,0.1,0,0.2,0c0,0,0.1,0,0.1,0c0.1,0,0.3,0,0.4-0.1
								L823.9,110.8z"/>
							<path class="st25" d="M821.9,107.8c0.2-0.4,0.4-0.9,0.7-1.3c1.1,0.8,2,1.1,2.8,1.1l0.2-0.8c0.1,0,0.1,0,0.2,0
								c-0.4,1.4-0.9,2.7-1.7,3.8c-0.1,0-0.2,0.1-0.2,0.1l0.4-0.7c0,0,0-0.1-0.1-0.2C823.7,109,822.9,108.3,821.9,107.8
								C821.9,107.8,821.9,107.8,821.9,107.8z"/>
							<path class="st26" d="M824.2,110.1c-0.1,0-0.3,0.1-0.4,0.1c0,0-0.1,0-0.1,0c-0.1,0-0.1,0-0.2,0c-0.6,0-1.3-0.2-2.1-0.6
								c0.1-0.6,0.2-1.2,0.5-1.8c0,0,0,0,0,0c1,0.5,1.7,1.2,2.2,2.1C824.2,110,824.2,110,824.2,110.1z"/>
						</g>
					</g>
					<g>
						<g>
							<g>
								<path class="st27" d="M807.1,107.3c0.1,0,0.1,0,0.2,0c0.3,0.5,0.8,0.8,1.4,1c-0.3,1.1-0.6,2-1.1,2.8c-1,1-2.7,1.8-5.1,2.5
									c0-0.1,0-0.1,0-0.2c0,0,0,0,0,0C805.5,112.6,807.1,110.6,807.1,107.3z"/>
								<path class="st28" d="M807.1,107.3c0,3.3-1.5,5.3-4.5,6c0.2-1.4,0.8-2.8,1.7-4.3C805.1,108.1,806,107.6,807.1,107.3z"/>
								<path class="st29" d="M807.3,107.2L807.3,107.2c0-0.1-0.1-0.2-0.1-0.3l-0.1-0.6c0.4,0.3,0.9,0.6,1.4,0.9l1.5,1l-1,0.1h-0.2
									c0,0-0.1,0-0.1,0C808.1,108.1,807.6,107.7,807.3,107.2z"/>
							</g>
						</g>
						<g>
							<g>
								<path class="st27" d="M814.2,76.8c1.2,2,2,4,2.3,5.9l-1.5-2.4h-0.1l-0.8-3.5C814.1,76.8,814.2,76.8,814.2,76.8z M799.5,74.7
									L799.5,74.7c-0.3,4.1,0,8.1,1.1,11.8l-1.1-1.8h-0.1v0c-0.4-2.2-0.5-4.4-0.3-6.8C799.1,77,799.3,75.9,799.5,74.7z
									 M797.2,89.3c-0.8-1.9-1-4.1-0.5-6.4h0c0.1,3.1,0.6,5.6,1.5,7.8L797.2,89.3L797.2,89.3z M825.1,86.8
									c0.4,0.3,0.6,0.5,0.6,0.8c0,0.2,0,0.3,0,0.5l-3,1.6c0.5-0.1,1-0.2,1.5-0.3l0.9,2.4c-2.3,0.6-4,1.3-5.2,2.2
									c-1.2,0.6-2.3,1.2-3.4,1.9c-0.9,0.6-1.7,1.2-2.4,1.9c0.8,4.6,0.6,8.8-0.6,12.5l-0.7-0.2c-8.3-2.9-13.4-6.9-15.2-12.1
									c0,0,0,0,0,0v0c0-0.2-0.1-0.3-0.2-0.5l0,0c0.1,0.2,0.2,0.4,0.3,0.5v0c2,2.6,4.9,4.2,8.7,4.8v0c1.7-2.9,3.6-5.3,5.7-7.3
									l-0.5,0.3l0.8-1.4c-0.4-0.4-0.8-1.2-1-2.3c0.5,0.8,1.1,1.3,1.8,1.6l2.5-1.7c-0.9-1.1-1.6-2.3-2-3.7c1.2,1.4,2.4,2.3,3.5,2.8
									c0,0,0.1,0,0.1,0.1c0,0,0.1-0.1,0.1-0.1c2.3-1.3,4.3-2.2,5.8-2.7c0.3-0.7,0.8-1.3,1.5-1.8C824.8,86.5,825,86.6,825.1,86.8z
									 M821.7,80.4c0.1,0.2,0.3,0.3,0.4,0.4c0.9,1.7,1.2,3.2,1.2,4.2l-0.9-1.8v0l-0.8-2.9C821.6,80.3,821.7,80.4,821.7,80.4z
									 M801,99.4l-1.3-0.9c0,0-0.1-0.1-0.1-0.1c-0.9-0.8-1.8-1.8-2.6-3c0-0.1-0.1-0.2-0.1-0.2c-0.7-1.9-1.1-4.3-1.1-7.1h0
									c0.4,2.6,1,4.9,1.8,6.7h0c0.1,0.1,0.1,0.3,0.2,0.4C798.8,97,799.9,98.3,801,99.4L801,99.4z"/>
								<path class="st30" d="M799.5,74.7c8,0.9,13.1,2.8,15.4,5.6h0.1l1.5,2.4C811.8,78.3,806.1,75.6,799.5,74.7L799.5,74.7z
									 M796.8,83l2.6,1.8h0.1l1.1,1.8v0h0L796.8,83z M798.2,90.7l-2.4-2.5l1.4,1.2h0L798.2,90.7z M797.3,97.2l2.4,1.2l1.3,0.9
									l-3.4-1.6v0C797.5,97.6,797.5,97.5,797.3,97.2z M822.1,80.8c1.8,1.7,3,3.7,3.6,6c0,0.2,0,0.5,0,0.7c0-0.2-0.2-0.5-0.6-0.8
									C824.6,84.6,823.6,82.6,822.1,80.8L822.1,80.8z M823.2,85.1c-2.5-3.6-5.5-6.3-9-8.3c3.7,1.6,6.4,3.7,8.1,6.4h0v0L823.2,85.1
									z"/>
								<path class="st28" d="M825.1,91.7l-0.9-2.4c-0.5,0.1-1,0.2-1.5,0.3l3-1.6c0.1,1.2,0.2,2.3,0.2,3.5
									C825.7,91.5,825.5,91.6,825.1,91.7z M821.7,80.4c0.2,0.1,0.3,0.3,0.4,0.4l0,0c1.5,1.8,2.5,3.7,3,5.9
									c-0.2-0.1-0.4-0.3-0.6-0.4c-0.6,0.5-1.1,1.1-1.5,1.8c-1.5,0.5-3.5,1.4-5.8,2.7c0,0-0.1,0-0.1,0.1c0,0-0.1-0.1-0.1-0.1
									c-1.1-0.4-2.3-1.3-3.5-2.8c0.4,1.4,1,2.6,2,3.7l-2.5,1.7c-0.7-0.3-1.3-0.8-1.8-1.6c0.3,1.1,0.6,1.9,1,2.3l-0.8,1.4l0.5-0.3
									c-2.1,2-4,4.4-5.7,7.3v0c-3.8-0.6-6.7-2.2-8.7-4.8l3.4,1.6l0-0.1c-1.2-1-2.3-2.4-3.2-4.1c-0.1-0.1-0.1-0.3-0.2-0.4h0
									c-0.9-1.8-1.5-4.1-1.8-6.7l0.1,0.1l2.4,2.5c-0.8-2.1-1.3-4.7-1.5-7.8h0v0l0,0l3.7,3.6h0v0c-1.1-3.8-1.4-7.7-1-11.8h0v0h0v0
									c6.6,0.9,12.3,3.6,17,8c-0.3-1.9-1.1-3.9-2.3-5.9c3.5,2,6.5,4.7,9,8.3c0.1-1.1-0.3-2.5-1.2-4.2
									C822,80.7,821.8,80.6,821.7,80.4z M797.3,97.3L797.3,97.3L797.3,97.3L797.3,97.3z M814.1,97.7c0.7-0.7,1.5-1.3,2.4-1.9
									c1.1-0.7,2.2-1.3,3.4-1.9l-2.9,4.2l-0.2,4L814.1,97.7z M795.7,88.1L795.7,88.1L795.7,88.1L795.7,88.1z"/>
							</g>
						</g>
					</g>
					<g>
						<g>
							<path class="st29" d="M805,105.7c3.5-6.7,8.6-11.2,15.5-13.5c0.1-1.2,0.4-2.2,0.9-3c-2.2,0.8-3.9,1.5-5,2.1
								c-1.2,0.6-2.1,1.2-2.8,1.7c-0.7,0.5-1.8,1.3-3.1,2.4l0,0c-3.1,3.1-5.2,6.3-6.5,9.6C804.2,105.3,804.6,105.5,805,105.7z"/>
							<path class="st31" d="M805,105.7c0.1,0,0.1,0,0.2,0.1c0.2,0.1,0.4,0.2,0.6,0.2c1.9-4.2,4.6-7.4,8.2-9.6
								c3.6-2.2,7.6-3.8,12-4.8c0.1-0.3,0.1-0.6,0.1-0.9c0-0.9-0.2-1.9-0.7-2.9c-1.3,0.4-2.6,0.8-4,1.3c-0.5,0.8-0.8,1.8-0.9,3
								C813.6,94.5,808.5,99,805,105.7z"/>
						</g>
						<g>
							<path class="st19" d="M814.7,102.5C814.7,102.5,814.7,102.5,814.7,102.5l-0.4-3.6c-0.7-0.7-1.3-0.9-1.9-0.8
								c-0.8,0.3-1.1,1-1,1.9c0.3-0.7,0.8-1,1.4-1c0.4,0,0.8,0.2,1.1,0.6c-0.7-0.1-1.2,0.1-1.5,0.6c-0.2,0.7-0.1,1.2,0.3,1.7
								C813.3,102.3,814,102.5,814.7,102.5z"/>
							<path class="st18" d="M814.3,98.8l-0.1-1c-0.9-0.8-1.8-0.9-2.6-0.1c-0.6,0.7-0.8,1.6-0.6,2.8c0,0.2,0.1,0.4,0.1,0.6
								c0.9,2.1,2.1,3.2,3.8,3.1l-0.2-1.8c-0.8,0.1-1.4-0.1-1.9-0.6c-0.4-0.5-0.6-1-0.3-1.7c0.3-0.5,0.8-0.7,1.5-0.6
								c-0.3-0.4-0.7-0.6-1.1-0.6c-0.6,0-1.1,0.3-1.4,1c-0.1-0.9,0.2-1.5,1-1.9C813,97.9,813.7,98.2,814.3,98.8z"/>
						</g>
						<g>
							<path class="st30" d="M831,92.1c0-0.5-0.1-1-0.1-1.4c-0.2-1.3-0.8-2.3-1.8-3.1c-1.1-0.8-2.5-1.1-4.2-1.1
								c-0.6,0.6-1.1,1.4-1.6,2.4c0.6-0.7,1.2-1.3,1.8-1.9C828,86.9,830,88.6,831,92.1z"/>
							<path class="st28" d="M821.3,91.6c0-0.2,0-0.3,0.1-0.4c0.5,1.9,1.1,3.6,2,5c0.2,0.2,0.4,0.3,0.6,0.5l-0.3-2.9
								c0,0,0.1,0.1,0.1,0.1l-0.2-1.6c2.1,2.1,3.2,4.3,3.3,6.6c1.5-1.5,2.2-2.9,2.1-4.2c0-1.2-0.3-2.1-0.6-2.8
								c0-0.1-0.1-0.1-0.1-0.2c0,0,0,0,0-0.1c0,0,0,0,0,0l-1-1.6c2.2,1.3,3.4,2.7,3.6,4.1c0.1-0.7,0.2-1.4,0.2-2
								c-1.1-3.6-3-5.2-5.9-5c-0.6,0.6-1.2,1.2-1.8,1.9L822,89C821.5,89.8,821.3,90.6,821.3,91.6z"/>
							<path class="st27" d="M830.8,94.2c-0.2-1.4-1.4-2.8-3.6-4.1l1,1.6C829.3,92.2,830.2,93,830.8,94.2z M826.9,98.9
								c-0.1-2.4-1.2-4.6-3.3-6.6l0.2,1.6c1.3,1.8,2.3,3.5,3,5.1C826.8,99,826.9,99,826.9,98.9z M821.3,91.6c0,0.3,0.1,0.7,0.1,1.1
								c0.2,1.2,0.9,2.3,2,3.4c-0.9-1.4-1.6-3-2-5C821.4,91.3,821.4,91.4,821.3,91.6z"/>
						</g>
					</g>
				</g>
				<g>
					<g>
						<path class="st32" d="M810.4,129l-1.1,1.7c-0.8,0.2-1.2-0.1-1.5-0.8c0.3-0.8,0.7-1.6,1.1-2.3
							C809.3,128.2,809.8,128.8,810.4,129z"/>
						<path class="st33" d="M808.9,127.5c0.1-0.2,0.2-0.3,0.3-0.5c0.3-0.5,0.6-1,0.9-1.5c0.9-0.1,1.6,0.3,2.1,1.1l-1.7,2.5
							C809.8,128.8,809.3,128.2,808.9,127.5z"/>
					</g>
					<g>
						<path class="st32" d="M800.7,132.8c0.2,0.6,0.5,1.1,0.9,1.7c2.1-1.2,4.4-2.3,6.7-3.4c0,0,0,0,0.1,0c0,0-0.1-0.1-0.1-0.1
							c-0.1-0.3,0-0.5,0.5-0.8c-0.1,0.3-0.2,0.6-0.1,0.8l0,0c0.2-0.1,0.4-0.2,0.5-0.2c0.1-0.6-0.2-1.1-0.7-1.5
							c-0.9,0-1.8,0.3-2.7,0.6C804.1,130.6,802.4,131.6,800.7,132.8z"/>
						<path class="st33" d="M808.7,130.9c-0.1-0.2,0-0.5,0.1-0.8c-0.4,0.3-0.6,0.6-0.5,0.8c0,0,0,0.1,0.1,0.1L808.7,130.9z"/>
						<path class="st34" d="M801.6,134.5c-0.4-0.6-0.7-1.1-0.9-1.7l-2.3,1.2c0.1,0.8,0.5,1.4,1.1,1.9l1.4-1
							C801.2,134.8,801.4,134.6,801.6,134.5z"/>
					</g>
					<g>
						<path class="st35" d="M797,134.5l2.6,4.4c0.5,0.6,1.1,1.3,1.8,1.9l0.8,0c0.1-0.4,0.1-0.7,0.1-1.1c-0.7-0.7-1.1-1.2-1.2-1.5
							c-0.2-0.4-0.2-0.6-0.2-0.6c-0.2,0-0.4,0.1-0.6,0.2c-0.2-0.1-0.2-0.2-0.2-0.4c0.2-0.1,0.5-0.2,0.7-0.3c0-0.1,0-0.1,0-0.2
							c-0.3,0-0.6,0.1-0.8,0.2c-0.2-0.1-0.2-0.3-0.1-0.4c0.3-0.1,0.6-0.1,0.9-0.1c0-0.1,0-0.1,0-0.2c-0.3,0-0.6,0-0.9,0.1
							c-0.1-0.2-0.2-0.3-0.1-0.4c0.3-0.1,0.6-0.1,1-0.1c0-0.1,0-0.1,0-0.2c-0.4-0.1-0.7-0.1-1,0c-0.1-0.1-0.1-0.2,0-0.3
							c0.4-0.1,0.7-0.1,1.1,0c0-0.2,0.1-0.3,0.2-0.5c-0.4-0.2-0.8-0.2-1.2,0c0,0-0.1,0-0.1,0c-0.4,0.1-0.6,0.1-0.8-0.1
							c-0.1-0.2-0.2-0.4-0.1-0.6c0.1-0.3,0.3-0.5,0.5-0.7c0.1-0.1,0.2-0.2,0.2-0.4C798.4,133.6,797.6,133.9,797,134.5z"/>
						<path class="st36" d="M800.7,135.5c-0.4-0.1-0.7-0.1-1.1,0c-0.1,0.1-0.1,0.2,0,0.3c0.3-0.1,0.7-0.1,1,0
							C800.8,135.7,800.8,135.6,800.7,135.5z M800.6,136.4c0-0.1,0.1-0.3,0-0.4c-0.3,0-0.7,0-1,0.1c-0.1,0.1-0.1,0.3,0.1,0.4
							C800,136.4,800.3,136.4,800.6,136.4z M800.7,137.2c-0.3,0-0.5,0.1-0.7,0.3c0,0.2,0.1,0.3,0.2,0.4c0.3-0.1,0.5-0.2,0.6-0.2
							C800.9,137.4,800.9,137.3,800.7,137.2z M800.7,137c0.1-0.2,0-0.3-0.1-0.4c-0.3,0-0.6,0.1-0.9,0.1c-0.1,0.1,0,0.3,0.1,0.4
							C800.1,137.1,800.4,137,800.7,137z"/>
						<path class="st37" d="M797,134.5l-0.8,0.5l3.3,4.1c0.7,0.7,1.3,1.4,1.9,1.8l0.8,0c0-0.1,0.1-0.1,0.1-0.2l-0.8,0
							c-0.7-0.6-1.3-1.2-1.8-1.9L797,134.5z"/>
					</g>
					<path class="st38" d="M810.5,124.1c0.3,0.1,0.6,0.2,0.9,0.2c1.6,0.5,3,1.4,4.2,2.6l-1.6,3c-1-0.3-1.7-0.6-2.1-0.8
						c-0.4-0.2-0.7-0.3-1-0.5c-0.3-0.2-0.7-0.6-1.4-1.4c-0.2-0.3-0.4-0.5-0.5-0.6l1.2-3.2L810.5,124.1z"/>
					<g>
						<path class="st18" d="M819.6,126.2c0.2,0.8,0.2,1.6,0,2.4c1,0.4,2,0.7,3,0.9c0.7-0.3,0.9-0.9,0.6-1.6L819.6,126.2z"/>
						<path class="st19" d="M819.6,126.2l-0.9-0.4c-0.7,0.6-1,1.3-0.8,2.2c0.6,0.2,1.1,0.4,1.7,0.6
							C819.8,127.8,819.8,127,819.6,126.2z"/>
					</g>
					<g>
						<path class="st18" d="M818.2,135.9c0.5,0.3,1.1,0.5,1.8,0.7c0.9-2.3,1.8-4.6,2.9-7c0,0,0-0.1,0-0.1c0,0-0.1,0-0.1,0
							c-0.3-0.1-0.3-0.4-0.2-0.9c0.1,0.3,0.3,0.5,0.5,0.7l0,0c0.1-0.2,0.2-0.4,0.2-0.5c-0.3-0.5-0.8-0.7-1.5-0.7
							c-0.7,0.6-1.2,1.4-1.7,2.3C819.4,132,818.7,133.9,818.2,135.9z"/>
						<path class="st9" d="M820,136.6c-0.7-0.2-1.3-0.4-1.8-0.7l-1,2.4c0.6,0.5,1.3,0.8,2.1,0.7l0.4-1.7
							C819.8,137,819.9,136.8,820,136.6z"/>
						<path class="st19" d="M823,129.2c-0.2-0.1-0.3-0.3-0.5-0.7c-0.1,0.5,0,0.8,0.2,0.9c0,0,0.1,0,0.1,0L823,129.2z"/>
					</g>
					<g>
						<g>
							<path class="st19" d="M818.7,115.3l-1.6-0.4c-0.5,0.3-0.6,0.7-0.4,1.2c0.6,0.2,1.2,0.4,1.9,0.6L818.7,115.3z"/>
							<path class="st32" d="M818.5,116.7c0.7,0.2,1.4,0.5,2.2,0.7c0.2-0.5,0.3-1,0.2-1.4l-2.2-0.6L818.5,116.7z"/>
						</g>
						<g>
							<path class="st39" d="M817.3,113.9c-0.4,1.1-0.9,2-1.6,2.8l-2.9-1.5c-0.5-0.4-0.7-1-0.6-1.6c0.4-0.6,1-0.8,1.8-0.7
								L817.3,113.9z"/>
							<path class="st38" d="M815.7,116.7c0.7-0.8,1.2-1.7,1.6-2.8l0.6,0.2c-0.4,1.3-0.9,2.3-1.5,2.9L815.7,116.7z"/>
						</g>
						<path class="st32" d="M820.5,117.3c1.9,0.3,3.7,0.4,5.4,0.4c0.3-0.7,0.2-1.4-0.2-1.9c-1.6-0.1-3.2,0-4.9,0.2
							C820.3,116.3,820.2,116.8,820.5,117.3z"/>
						<g>
							<path class="st19" d="M827.4,118c-0.4,0.1-0.6,0-0.6-0.2c0-0.1,0-0.1,0-0.2c0-0.2,0-0.4,0-0.7c0-0.1,0-0.3-0.1-0.5
								c0,0,0,0,0,0c0-0.2-0.1-0.4-0.3-0.5c0,0,0,0,0,0l-0.1-0.1c0.7-0.2,1.2,0.2,1.4,1.1c0,0,0,0,0,0.1c0.1,0.2,0.2,0.4,0.4,0.6
								c0.1,0.1,0.2,0.2,0.3,0.3l0,0c0.1,0.2,0.2,0.4,0.4,0.6c0,0,0,0,0,0c0,0,0,0.1,0.1,0.1c0,0,0,0.1,0,0.1c0,0,0,0.1,0,0.1
								c-0.1,0.1-0.2,0.2-0.4,0.1c0,0-0.1,0-0.1,0c-0.3-0.1-0.5-0.3-0.6-0.7C827.7,118.2,827.6,118.1,827.4,118z M827.1,119.4
								l-0.1-0.2L827.1,119.4C827.1,119.4,827.1,119.4,827.1,119.4z M825.3,118.3l0.3,1l0.5,0.7c0,0.1,0.1,0.1,0.2,0.1h0.6
								c0.1,0,0.1,0,0.2-0.1l0,0l0.5-0.7c0.1-0.1,0.1-0.2,0.1-0.2c0,0,0,0,0.1,0l0,0c0,0,0,0,0,0c0,0.1,0.1,0.1,0.1,0.2c0,0,0,0,0,0
								c0,0,0,0.1,0,0.1c-0.2,0.2-0.3,0.4-0.4,0.6c-0.1,0.1-0.2,0.2-0.3,0.2h-0.7c-0.1,0-0.2,0-0.2-0.1l-0.6-0.8
								c-0.1-0.2-0.1-0.4-0.1-0.6c0,0,0,0,0,0C825.4,118.5,825.3,118.4,825.3,118.3z M826.7,119.5l-0.1-0.3L826.7,119.5
								C826.8,119.5,826.8,119.5,826.7,119.5z M826.1,120.3l0.8,0.1c0.1,0,0.2,0,0.2,0l0.9-0.9c0,0,0,0,0,0c0.1-0.1,0-0.2-0.1-0.2
								c0,0,0.1,0,0.1,0.1c0,0,0,0.1,0,0.1c0,0,0,0.1-0.1,0.1l-0.9,1c-0.1,0.1-0.2,0.1-0.4,0l-0.2-0.1l0.5,0.2c0,0,0.1,0,0.1,0l1-1
								c0.1-0.1,0.1-0.2-0.1-0.2c0.1,0,0.1,0,0.1,0c0.1,0,0.1,0.1,0,0.2l-0.4,0.3l-0.6,0.6c0.1,0.1,0.3,0,0.5-0.1
								c0.2-0.1,0.4-0.2,0.7-0.3c0.2-0.1,0.2-0.1,0.2-0.3c0,0,0,0,0,0.1c0.1,0.1,0,0.2-0.1,0.2c0,0-0.1,0-0.1,0
								c-0.2,0.1-0.5,0.2-0.7,0.4c-0.2,0.1-0.3,0.1-0.5-0.1l0,0c-0.1,0.1-0.1,0.1-0.2,0l-0.4-0.2L826.1,120.3z"/>
							<path class="st33" d="M827.3,119.2c-0.1,0-0.1,0.1-0.2,0.2l-0.1-0.2l0.1,0.2c0,0-0.1,0.1-0.1,0.1c-0.1,0-0.1,0-0.2,0
								l-0.2-0.3l0.1,0.3c-0.1,0-0.2,0-0.2,0c0-0.1-0.1-0.3-0.2-0.4c0.1-0.2,0.1-0.5,0.1-0.8c0.2-0.1,0.3-0.3,0.4-0.5
								c0.1,0.2,0.3,0.3,0.6,0.2C827.3,118.3,827.3,118.7,827.3,119.2z"/>
							<path class="st32" d="M827.7,119c0.1,0,0,0.1-0.1,0.2l-0.5,0.7l0,0c-0.1,0-0.1,0.1-0.2,0.1h-0.6c-0.1,0-0.1,0-0.2-0.1
								l-0.5-0.7l-0.3-1c0,0-0.1-0.1-0.1-0.2c-0.1-0.3-0.2-0.7-0.2-1c0-0.1,0-0.1,0-0.2c0-0.2,0-0.3,0.1-0.5
								c0.1-0.5,0.4-0.7,0.8-0.7c0.2,0,0.3,0,0.4,0.1l0.1,0.1c0,0,0,0,0,0c0.1,0.1,0.2,0.3,0.3,0.5c0,0,0,0,0,0c0,0.2,0,0.3,0.1,0.5
								c0,0.3,0,0.5,0,0.7c0,0.1,0,0.1,0,0.2c-0.1,0.3-0.2,0.4-0.4,0.5c0,0.3,0,0.6-0.1,0.8c0.1,0.1,0.2,0.2,0.2,0.4
								c0.1,0,0.2,0,0.2,0c0,0,0.1,0,0.1,0c0,0,0.1,0,0.2,0c0,0,0.1-0.1,0.1-0.1c0,0,0,0,0.1-0.1c0.1-0.1,0.1-0.1,0.2-0.2
								C827.5,119.1,827.6,119,827.7,119C827.7,119,827.7,119,827.7,119C827.7,119,827.7,119,827.7,119z M826.1,120.3l-0.7-1
								l-0.1-0.7c0,0.2,0.1,0.4,0.1,0.6l0.6,0.8c0.1,0.1,0.1,0.1,0.2,0.1h0.7c0.1,0,0.2-0.1,0.3-0.2c0.1-0.2,0.3-0.4,0.4-0.6
								c0,0,0-0.1,0-0.1c0,0,0,0,0,0c0.1,0,0.2,0,0.2,0c0.1,0,0.1,0.1,0.1,0.2c0,0,0,0,0,0l-0.9,0.9c-0.1,0.1-0.2,0.1-0.2,0
								L826.1,120.3z M828.1,120.1c0.1-0.1,0.2-0.1,0.3-0.1c0.2,0,0.3,0,0.4,0.1c0.1,0.1,0,0.2-0.2,0.3c-0.2,0.1-0.4,0.2-0.7,0.3
								c-0.2,0.1-0.4,0.2-0.5,0.1L828.1,120.1z M828.3,119.5c0.2,0,0.2,0.1,0.1,0.2l-1,1c0,0-0.1,0-0.1,0l-0.5-0.2l0.2,0.1
								c0.1,0,0.3,0,0.4,0l0.9-1C828.2,119.6,828.3,119.5,828.3,119.5C828.3,119.5,828.3,119.5,828.3,119.5z"/>
						</g>
					</g>
					<g>
						<path class="st40" d="M812.6,122.7l3,0.5l0.1,0l3.4,2.5c0,0,0,0,0,0c-0.1,0.8-0.5,1.5-1,1.9l-4-1.5c-1.4-0.5-1.9-1.5-1.5-2.9
							C812.5,123,812.6,122.9,812.6,122.7z"/>
						<path class="st41" d="M812.6,122.7c0,0.2-0.1,0.3-0.1,0.5c-0.4,1.4,0.1,2.4,1.5,2.9l4,1.5c0.5-0.5,0.9-1.1,1-1.9c0,0,0,0,0,0
							v0c-0.3,2.3-1.3,4-3,4.9l-2.9-1.7c-3.3-1.5-4.3-3.7-2.9-6.7L812.6,122.7z"/>
					</g>
					<g>
						<g>
							<path class="st42" d="M816.1,113l-0.4,1c-0.4-0.5-0.9-0.9-1.4-1.2c-0.5-0.3-1-0.6-1.5-0.7l0.4-1c0.1,0.1,0.2,0.1,0.2,0.1
								c0.7,0.1,1.2,0.3,1.5,0.6c0.5,0.3,0.9,0.6,1.3,1L816.1,113z"/>
							<polygon class="st41" points="816.1,113 816.3,112.7 816.8,114 816.4,114 							"/>
							<path class="st9" d="M816.4,114l-0.5,1.5l0.4,0.1c-0.4,1.2-0.6,2.4-0.7,3.5c0,0.3,0,0.5,0,0.8c0,0.1,0,0.2,0,0.3
								c0,1,0.1,1.9,0.2,2.9c-2,0.9-4.1,1.1-6.3,0.6l0.7-1.2c-0.1-1-0.2-1.7-0.2-2.2c-0.1-0.7,0-1.5,0-2.3c0.6-3.3,1.6-5.3,3-6
								c0.6,0.1,1.1,0.4,1.5,0.7c0.5,0.3,0.9,0.7,1.4,1.2l0.4-1L816.4,114z"/>
							<path class="st43" d="M816.2,115.7l-0.4-0.1l0.5-1.5l0.4,0C816.6,114.6,816.4,115.1,816.2,115.7z"/>
						</g>
					</g>
					<g>
						<path class="st44" d="M816.8,139.7l5.1,1c0.8,0.1,1.7,0,2.6-0.1l0.6-0.6c-0.2-0.3-0.4-0.6-0.7-0.8c-0.9,0-1.6,0-2-0.1
							c-0.4-0.1-0.6-0.2-0.6-0.2c-0.1,0.1-0.2,0.3-0.3,0.6c-0.2,0-0.3,0-0.4-0.1c0-0.3,0.1-0.5,0.3-0.7c-0.1,0-0.1-0.1-0.2-0.1
							c-0.2,0.2-0.3,0.5-0.4,0.7c-0.2,0-0.3,0-0.4-0.2c0.1-0.3,0.3-0.5,0.5-0.7c-0.1,0-0.1-0.1-0.2-0.1c-0.2,0.2-0.4,0.5-0.5,0.8
							c-0.2,0-0.3-0.1-0.4-0.3c0.2-0.3,0.4-0.5,0.6-0.8c0-0.1-0.1-0.1-0.1-0.2c-0.3,0.2-0.5,0.5-0.7,0.8c-0.1,0-0.2-0.1-0.2-0.2
							c0.2-0.4,0.4-0.6,0.7-0.8c-0.1-0.1-0.2-0.3-0.2-0.4c-0.4,0.1-0.7,0.4-0.8,0.9c0,0,0,0.1,0,0.1c-0.2,0.3-0.4,0.5-0.6,0.5
							c-0.2,0-0.4-0.1-0.5-0.3c-0.1-0.3-0.2-0.5-0.2-0.8c0-0.2,0-0.3-0.2-0.4C817.1,138,816.8,138.8,816.8,139.7z"/>
						<path class="st45" d="M820.4,138c-0.2,0.2-0.4,0.5-0.6,0.8c0,0.1,0.1,0.2,0.4,0.3c0.1-0.3,0.3-0.5,0.5-0.8
							C820.6,138.1,820.5,138.1,820.4,138z M820.2,137.8c0-0.1-0.1-0.2-0.2-0.3c-0.3,0.2-0.6,0.5-0.7,0.8c0,0.2,0.1,0.2,0.2,0.2
							C819.7,138.3,819.9,138,820.2,137.8z M821.3,138.7c-0.2,0.2-0.2,0.5-0.3,0.7c0.1,0.1,0.3,0.2,0.4,0.1c0.1-0.3,0.2-0.5,0.3-0.6
							C821.6,138.7,821.4,138.7,821.3,138.7z M821.1,138.6c-0.1-0.1-0.2-0.2-0.3-0.2c-0.2,0.2-0.4,0.5-0.5,0.7
							c0.1,0.1,0.2,0.2,0.4,0.2C820.8,139.1,820.9,138.8,821.1,138.6z"/>
						<path class="st46" d="M816.8,139.7l-0.2,1l5.3,0.3c1,0,1.9-0.1,2.7-0.2l0.6-0.6c0-0.1-0.1-0.1-0.1-0.2l-0.6,0.6
							c-0.9,0.1-1.8,0.2-2.6,0.1L816.8,139.7z"/>
					</g>
					<g>
						<g>
							<path class="st18" d="M818.2,114.9c0.8,0.1,1.5,0.2,2.2,0.2c0.1-0.5,0.1-1-0.1-1.4l-2.3-0.2
								C818.2,113.9,818.2,114.4,818.2,114.9z"/>
							<path class="st19" d="M818.1,113.5l-1.7-0.1c-0.4,0.4-0.5,0.8-0.2,1.3c0.7,0.1,1.3,0.2,1.9,0.2
								C818.2,114.4,818.2,113.9,818.1,113.5z"/>
						</g>
						<g>
							<path class="st47" d="M815.9,115.6L815.9,115.6c0.4-0.9,0.6-2,0.6-3.1l-3.3,0c-0.8,0.1-1.4,0.5-1.5,1.2
								c0.1,0.7,0.4,1.2,1.1,1.4L815.9,115.6z"/>
							<path class="st41" d="M815.9,115.6l0.7,0.1c0.4-0.8,0.6-1.9,0.5-3.2l-0.6,0C816.5,113.6,816.3,114.7,815.9,115.6L815.9,115.6
								z"/>
						</g>
						<path class="st18" d="M820,115c1.9,0.3,3.7,0.4,5.4,0.4c0.3-0.7,0.2-1.4-0.2-2c-1.6-0.1-3.2,0-4.9,0.2
							C819.9,114.1,819.8,114.5,820,115z"/>
						<g>
							<path class="st18" d="M826.4,111.1c0,0.1,0,0.2,0,0.3c0,0,0,0,0,0c0,0.1-0.1,0.2-0.2,0.2c0,0,0,0,0,0c-0.2,0-0.3-0.1-0.3-0.3
								c0,0,0,0,0-0.1c0,0,0,0,0,0l0-0.6c0,0,0,0,0,0.1c0,0.1-0.1,0.1-0.1,0.2c0,0.1,0,0.1,0,0.1c-0.2,0-0.4-0.2-0.4-0.5
								c0,0.4,0.1,0.6,0.4,0.6c0,0.1,0,0.2,0,0.3c0,0.6,0.1,0.9,0.2,1.2c0,0,0,0,0,0c0,0,0,0,0,0c0,0,0,0,0,0c0,0,0.1,0.1,0.1,0.1
								c0,0,0,0.1,0.1,0.1c0.3,0.4,0.4,0.9,0.4,1.5c-0.1,0.3-0.2,0.6-0.3,0.8c-0.1,0.1-0.1,0.2-0.2,0.2c-0.1,0.1-0.3,0.1-0.5,0.2
								c-0.7-0.1-0.9-1-0.8-2.9c0-0.7,0.1-1.4,0.2-2.1c0-0.1,0.1-0.2,0.2-0.2c0,0,0.1-0.1,0.1-0.1l0.8-0.3c0.1,0,0.1,0,0.2,0
								c0.1,0,0.1,0,0.1,0.1c0,0,0,0,0,0c0,0,0,0.1,0,0.1c0,0.1,0.1,0.2,0.1,0.3c0,0.1,0.1,0.2,0.1,0.3c0,0,0,0.1,0,0.1c0,0,0,0,0,0
								c0,0.1,0.1,0.1,0.1,0.2c0,0,0,0,0,0c0,0.1,0,0.2,0,0.2c0,0,0,0,0,0c-0.1,0-0.2,0-0.3-0.1c0,0,0,0,0-0.1
								c-0.1-0.2-0.2-0.4-0.2-0.6c0,0,0,0,0,0c-0.1-0.2-0.2-0.4-0.4-0.3c0,0,0,0,0,0l0,0l-0.6,0.1c0,0,0,0,0,0l0.8,0.1
								c0,0,0,0,0.1,0c0.1,0.1,0.2,0.2,0.1,0.4c0,0,0,0,0,0c0,0,0,0,0,0.1c0,0,0,0.1,0,0.1C826.4,111,826.4,111,826.4,111.1z
								 M827.6,110.9c-0.1,0-0.3,0-0.4-0.1c0,0,0,0,0,0c-0.2-0.2-0.4-0.5-0.5-0.9c0-0.1-0.1-0.1-0.2-0.1c0,0,0,0,0.1,0c0,0,0,0,0,0
								c0.1,0,0.2,0,0.2,0c0,0,0.1,0,0.1,0.1h0c0,0,0,0,0,0c0,0,0,0,0,0c0,0,0,0,0,0c0.1,0.2,0.2,0.3,0.3,0.4c0,0,0.1,0.1,0.1,0.1
								c0.1,0.1,0.2,0.2,0.4,0.3C827.7,110.7,827.7,110.8,827.6,110.9C827.7,110.8,827.7,110.9,827.6,110.9z M828.4,110.1
								c0,0.1-0.1,0.2-0.3,0.2c0,0-0.1,0-0.1,0c0,0,0,0-0.1,0c0,0,0,0-0.1,0c0,0,0,0-0.1,0c0,0-0.1,0-0.1,0
								c-0.3-0.1-0.5-0.3-0.6-0.5c-0.1-0.1-0.1-0.1-0.2,0c0,0,0,0,0,0c0,0,0,0,0.1-0.1c0,0,0,0,0,0c0.1-0.1,0.2-0.1,0.3,0
								c0,0,0,0,0,0c0.2,0.2,0.4,0.3,0.6,0.3c0.1,0,0.2,0.1,0.3,0.1C828.3,110,828.4,110,828.4,110.1z"/>
							<path class="st19" d="M828.4,110.1c0,0,0,0.1-0.1,0.2c0,0,0,0-0.1,0.1c-0.1,0.1-0.2,0.1-0.3,0.1c-0.2,0-0.4,0-0.6-0.1
								c0,0-0.1-0.1-0.1-0.1c-0.1-0.1-0.2-0.3-0.3-0.4c0,0,0,0,0,0c0,0,0,0,0,0c0,0,0,0,0,0h0c0,0,0,0-0.1-0.1c0,0,0,0,0,0
								c0.1,0,0.1,0,0.2,0c0.2,0.3,0.4,0.4,0.6,0.5c0,0,0.1,0,0.1,0c0,0,0,0,0.1,0c0,0,0,0,0.1,0c0,0,0,0,0.1,0c0,0,0.1,0,0.1,0
								C828.2,110.2,828.3,110.2,828.4,110.1z M826.9,110.7c0-0.1-0.1-0.2-0.1-0.3c0-0.1-0.1-0.2-0.1-0.3c0,0,0-0.1,0-0.1
								c0,0,0,0,0,0c0-0.1-0.1-0.1-0.1-0.1c0,0,0,0,0,0c0.1,0,0.1,0,0.2,0.1c0.2,0.5,0.4,0.8,0.5,0.9c0,0,0,0,0,0
								c0.1,0.1,0.3,0.1,0.4,0.1c0,0,0,0-0.1,0c-0.2,0.1-0.4,0-0.6-0.1C827,110.8,826.9,110.8,826.9,110.7
								C826.9,110.7,826.9,110.7,826.9,110.7z M827,111.2C827,111.2,827,111.2,827,111.2c0,0-0.1,0.1-0.1,0.1c0,0,0,0,0,0
								c-0.1,0-0.3,0-0.4-0.2c0-0.1,0-0.1,0-0.2c0,0,0-0.1,0-0.1c0,0,0,0,0-0.1c0,0,0,0,0,0c0-0.2,0-0.3-0.1-0.4c0,0,0,0-0.1,0
								l-0.8-0.1c0,0,0,0,0,0l0.6-0.1l0,0c0,0,0,0,0,0c0.2,0,0.3,0.1,0.4,0.3c0,0,0,0,0,0c0,0.2,0.1,0.4,0.2,0.6c0,0,0,0,0,0.1
								C826.8,111.2,826.9,111.2,827,111.2z M825.8,111.4c0-0.1-0.1-0.2,0-0.3c-0.3,0-0.4-0.2-0.4-0.6c0,0.3,0.2,0.5,0.4,0.5
								c0,0,0-0.1,0-0.1c0-0.1,0-0.1,0.1-0.2c0,0,0,0,0-0.1l0,0.6c0,0,0,0,0,0C825.9,111.3,825.9,111.3,825.8,111.4
								c0.1,0.1,0.2,0.1,0.4,0.2c0,0,0,0,0,0c0.1,0,0.2-0.1,0.2-0.2c0,0.2-0.1,0.3-0.3,0.2c0,0-0.1,0-0.1,0
								C825.9,111.5,825.8,111.5,825.8,111.4z"/>
							<path class="st33" d="M825.8,111.4c0,0.1,0.1,0.1,0.2,0.2c0,0,0.1,0,0.1,0c0.2,0,0.3,0,0.3-0.2c0,0,0,0,0,0
								c0-0.1,0-0.2,0-0.3c0.1,0.1,0.3,0.2,0.4,0.2c0,0.3,0,0.5,0,0.7c0.1,0.2,0.1,0.4,0.1,0.6c0,0,0,0,0,0c0.1,0,0.2,0,0.3,0.1
								c0,0,0,0,0,0h0c0,0,0,0,0,0c0,0,0.1,0,0.1-0.1c0,0,0,0,0,0c0.1,0,0.1-0.1,0.2-0.1c0.1-0.1,0.1-0.1,0.2-0.2
								c0-0.1,0-0.3,0.1-0.4c0,0,0-0.1,0.1-0.1c0.2-0.4,0.4-0.5,0.6-0.4c0.1,0,0.1,0.2,0.1,0.4c0,0.1,0,0.2-0.1,0.3c0,0,0,0,0,0
								c0,0,0,0.1,0,0.1c-0.1,0.2-0.1,0.3-0.1,0.5c0,0.1-0.1,0.3-0.3,0.5c-0.1,0.1-0.1,0.1-0.2,0.2c-0.1,0.1-0.2,0.2-0.3,0.3
								c-0.1,0.6-0.4,1-0.7,1.3c0,0,0,0,0,0l0,0c0,0,0,0-0.1,0.1c-0.2,0.2-0.5,0.3-0.7,0.2c0.1-0.1,0.2-0.1,0.2-0.2
								c0.1-0.2,0.2-0.4,0.3-0.8c0.1-0.6,0-1.1-0.4-1.5c0,0,0-0.1-0.1-0.1c0,0-0.1-0.1-0.1-0.1c0,0,0,0,0,0c0,0,0,0,0,0c0,0,0,0,0,0
								C825.9,112.4,825.8,112,825.8,111.4z"/>
						</g>
					</g>
				</g>
			</g>
		</g>
		<path class="st7" d="M1035.1,141.8c0,1.1-2,2-6.1,2.8c-4.1,0.7-9.1,1.1-15,1.1c-5.7,0-10.7-0.4-14.8-1.1c-4.1-0.8-6.1-1.7-6.1-2.8
			s2-2,6.1-2.8c4.1-0.8,9.1-1.2,14.8-1.2c5.8,0,10.8,0.4,15,1.2C1033.1,139.8,1035.1,140.7,1035.1,141.8z"/>
		
			<linearGradient id="SVGID_3_" gradientUnits="userSpaceOnUse" x1="-5960.9678" y1="-1351.75" x2="-5645.3794" y2="-1351.75" gradientTransform="matrix(0.2969 0 0 0.25 2624.4897 452.2002)">
			<stop  offset="0" style="stop-color:#FFFFFF;stop-opacity:0"/>
			<stop  offset="1" style="stop-color:#FFFFFF"/>
		</linearGradient>
		<path class="st48" d="M946.1,112c0.6,0.1,1.1,0.3,1.5,0.6c0.5,0.5,0.8,1,0.8,1.6c0,0.6-0.3,1.2-0.8,1.6c-0.5,0.5-1.2,0.7-1.9,0.7
			l-91-2.3L946.1,112z"/>
		
			<linearGradient id="SVGID_4_" gradientUnits="userSpaceOnUse" x1="-5610.4644" y1="-1291.002" x2="-5393.7666" y2="-1291.002" gradientTransform="matrix(0.3091 0 0 0.25 2653.5039 431.4004)">
			<stop  offset="0" style="stop-color:#FFFFFF;stop-opacity:0"/>
			<stop  offset="1" style="stop-color:#FFFFFF"/>
		</linearGradient>
		<path class="st49" d="M986.3,108.7c0,0.6-0.3,1.2-0.8,1.6c-0.6,0.4-1.2,0.7-2,0.7l-64.1-2.6l64.1-2c0.8,0,1.5,0.2,2,0.7
			C986,107.5,986.3,108,986.3,108.7z"/>
		<g>
			
				<linearGradient id="SVGID_5_" gradientUnits="userSpaceOnUse" x1="-4784.6831" y1="-1265.4512" x2="-4665.4893" y2="-1265.4512" gradientTransform="matrix(0.3465 0 0 0.25 2490.665 436.7002)">
				<stop  offset="0" style="stop-color:#FFFFFF;stop-opacity:0"/>
				<stop  offset="1" style="stop-color:#FFFFFF"/>
			</linearGradient>
			<path class="st50" d="M871.3,118.1c0.1,0,0.1,0,0.2,0c0.6,0.1,1.2,0.3,1.6,0.6c0.6,0.4,0.9,1,0.9,1.6c0,0,0,0,0,0
				c0,0.6-0.3,1.2-0.9,1.6c-0.5,0.3-1,0.6-1.6,0.6l-38.7-2.2L871.3,118.1z"/>
			
				<linearGradient id="SVGID_6_" gradientUnits="userSpaceOnUse" x1="-4883.5605" y1="-1265.4004" x2="-4567.8511" y2="-1265.4004" gradientTransform="matrix(0.3465 0 0 0.25 2490.665 436.7002)">
				<stop  offset="0" style="stop-color:#FFFFFF;stop-opacity:0"/>
				<stop  offset="1" style="stop-color:#FFFFFF"/>
			</linearGradient>
			<path class="st51" d="M871.5,118.1c-0.1,0-0.2,0-0.2,0c-0.1,0-0.2,0-0.2,0L871.5,118.1L871.5,118.1z M871.5,122.6L871.5,122.6
				l-0.4,0C871.2,122.6,871.4,122.6,871.5,122.6z"/>
		</g>
		<g>
			<g>
				<g>
					<path class="st52" d="M1000.8,138.9c2.1,0.3,4.2,0.5,6.3,0.8c4.1,0.5,6.1,0.8,5.7,0.9c-1.3,0.2-2.2,0.5-2.6,0.9
						c-0.3,0.2-0.6,0.6-0.9,1.1c-0.9,0.8-1.8,1.1-2.9,0.9c-1-0.2-1.6-0.7-2-1.5c-0.4-1-1.2-1.8-2.2-2.4
						C1001.7,139.2,1001.2,139,1000.8,138.9z"/>
					<path class="st52" d="M1015.4,140.6c-0.5-0.1,3.5-0.7,12-1.8l-0.4,0.1c-0.3,0.1-0.7,0.3-1,0.5c-1,0.6-1.8,1.4-2.2,2.4
						c-0.3,0.8-1,1.3-2,1.5c-1.1,0.2-2,0-2.9-0.8c-0.1-0.1-0.3-0.3-0.5-0.6c-0.2-0.2-0.3-0.4-0.5-0.6
						C1017.6,141,1016.7,140.7,1015.4,140.6z"/>
					<path class="st53" d="M1021.7,140.6c-0.6-0.1-1.2-0.1-1.8-0.2c1.8-0.2,3.2-0.4,4.3-0.7c0.5-0.1,1.2-0.3,2.1-0.5l-0.5,0.3
						c-0.4,0.3-0.8,0.6-1.1,1c-0.2,0.3-0.4,0.5-0.6,0.8c-0.1,0.1-0.2,0.2-0.2,0.3C1023.7,141.1,1023,140.8,1021.7,140.6z"/>
					<path class="st53" d="M1008.9,141.3c-0.7-0.6-1.8-1-3.2-1.3c3,0.3,5.2,0.5,6.7,0.5l-0.3,0.1c-0.3,0.1-0.7,0.2-1.2,0.4
						c-0.3,0.1-0.6,0.3-0.9,0.7c-0.2,0.2-0.3,0.3-0.4,0.5c0,0,0-0.1-0.1-0.3C1009.3,141.7,1009.2,141.5,1008.9,141.3z"/>
					<path class="st54" d="M1003.9,141.2c0.9,0.9,1.4,1.4,1.8,1.5c0.4,0.2,0.8,0.3,1.2,0.3c0.6,0,1.1-0.1,1.6-0.3
						c0.4-0.2,0.7-0.4,0.9-0.5l0.2-0.2l-0.4,0.5c-0.4,0.4-0.8,0.7-1.4,0.8c-0.5,0.2-1,0.2-1.6,0.1c-0.6-0.1-1.1-0.4-1.5-0.8
						C1004.6,142.3,1004.3,141.9,1003.9,141.2z"/>
					<path class="st54" d="M1018.2,141.5c0.7,0.6,1.2,0.9,1.5,1c0.4,0.2,0.8,0.3,1.2,0.3c0.6,0.1,1.1,0,1.6-0.2
						c0.4-0.2,0.7-0.4,1-0.5l0.2-0.2l-0.3,0.5c-0.3,0.4-0.8,0.7-1.4,0.8c-0.5,0.1-1,0.2-1.6,0c-0.6-0.1-1.1-0.4-1.5-0.8
						C1018.7,142.3,1018.4,141.9,1018.2,141.5z"/>
				</g>
				<path class="st55" d="M1021.3,88.4c2.5,1.4,4.7,3.4,6.8,6c2.1,2.6,3.8,5.5,5.2,8.9c1.5,3.4,2.5,7,3,10.9
					c0.6,4.4,0.9,7.9,0.8,10.6c-0.2,3.4-1,6.2-2.3,8.4c-1.5,2.4-3.9,4.3-7.2,5.5c-3.5,1.3-8.2,2-14,2c-5.8,0-10.5-0.7-14-2
					c-3.3-1.2-5.7-3.1-7.2-5.5c-1.3-2.2-2.1-5-2.3-8.4c-0.1-2.6,0.1-6.2,0.7-10.6c0.6-4.2,1.6-8,3-11.6c1.4-3.4,3.2-6.3,5.2-8.8
					c2.1-2.5,4.3-4.3,6.8-5.6c2.5-1.3,5.1-2,7.7-2C1016.2,86.2,1018.8,86.9,1021.3,88.4z"/>
				<g>
					<path class="st56" d="M1007.2,98.9c0.3-0.3,0.6-0.4,1.1-0.4c0.4,0,0.8,0.1,1.1,0.4c0.3,0.3,0.4,0.7,0.4,1.1
						c0,0.4-0.1,0.8-0.4,1.1c-0.3,0.3-0.7,0.4-1.1,0.4c-0.4,0-0.8-0.1-1.1-0.4c-0.3-0.3-0.4-0.6-0.4-1.1S1006.9,99.2,1007.2,98.9z"
						/>
					<path class="st57" d="M1009.5,99.9c0,0.4-0.1,0.7-0.4,0.9c-0.3,0.2-0.6,0.4-0.9,0.4c-0.4,0-0.7-0.1-0.9-0.4
						c-0.2-0.3-0.4-0.6-0.4-0.9c0-0.4,0.1-0.7,0.4-0.9c0.3-0.3,0.6-0.4,0.9-0.4c0.4,0,0.7,0.1,0.9,0.4
						C1009.4,99.3,1009.5,99.6,1009.5,99.9z"/>
					<path class="st58" d="M1008.8,99.9c0,0.2-0.1,0.3-0.2,0.4c-0.1,0.1-0.2,0.2-0.4,0.2c-0.2,0-0.3-0.1-0.4-0.2
						c-0.1-0.1-0.2-0.2-0.2-0.4c0-0.2,0.1-0.3,0.2-0.4c0.1-0.1,0.3-0.2,0.4-0.2c0.2,0,0.3,0.1,0.4,0.2
						C1008.8,99.6,1008.8,99.8,1008.8,99.9z"/>
					
						<linearGradient id="SVGID_7_" gradientUnits="userSpaceOnUse" x1="-9432.2959" y1="6645.5322" x2="-9429.0352" y2="6645.5322" gradientTransform="matrix(0.1445 0.1268 -0.1268 0.1445 3214.2795 336.0493)">
						<stop  offset="0" style="stop-color:#050B0B"/>
						<stop  offset="1" style="stop-color:#2D4A51"/>
					</linearGradient>
					<path class="st59" d="M1008.9,98.8c0.2,0.1,0.3,0.3,0.4,0.5c0.1,0.2,0.2,0.4,0.2,0.6c0,0.4-0.1,0.7-0.4,0.9
						c-0.3,0.2-0.6,0.4-0.9,0.4c-0.3,0-0.5-0.1-0.7-0.2c-0.2-0.1-0.4-0.3-0.5-0.6c0.2,0.1,0.5,0.2,0.7,0.2c0.4,0,0.7-0.1,0.9-0.4
						c0.3-0.3,0.4-0.6,0.4-0.9C1009,99.2,1009,99,1008.9,98.8z"/>
					<path class="st9" d="M1007.7,99.3c0,0,0,0.1,0,0.1c0,0.1,0,0.1-0.1,0.1c-0.1,0.1-0.2,0.1-0.3,0c0,0,0-0.1,0-0.1
						c0-0.1,0.1-0.1,0.1-0.1c0,0,0.1-0.1,0.2-0.1C1007.6,99.2,1007.6,99.2,1007.7,99.3z"/>
					<path class="st9" d="M1007.9,99.1C1007.9,99.1,1007.8,99.1,1007.9,99.1c-0.1,0.1-0.1,0-0.1,0C1007.7,99,1007.8,99,1007.9,99.1
						C1007.8,99,1007.9,99,1007.9,99.1z"/>
				</g>
				<g>
					<path class="st56" d="M1020.2,99.9c0,0.4-0.1,0.8-0.4,1.1c-0.3,0.3-0.7,0.4-1.1,0.4c-0.4,0-0.8-0.1-1.1-0.4
						c-0.3-0.3-0.4-0.6-0.4-1.1s0.1-0.8,0.4-1.1c0.3-0.3,0.6-0.4,1.1-0.4c0.4,0,0.8,0.1,1.1,0.4
						C1020.1,99.2,1020.2,99.5,1020.2,99.9z"/>
					<path class="st57" d="M1020,99.9c0,0.4-0.1,0.7-0.4,0.9c-0.3,0.2-0.6,0.4-0.9,0.4c-0.4,0-0.7-0.1-0.9-0.4
						c-0.3-0.3-0.4-0.6-0.4-0.9c0-0.4,0.1-0.7,0.4-0.9c0.3-0.3,0.6-0.4,0.9-0.4c0.4,0,0.7,0.1,0.9,0.4
						C1019.9,99.3,1020,99.6,1020,99.9z"/>
					<path class="st58" d="M1019.3,99.9c0,0.2-0.1,0.3-0.2,0.4c-0.1,0.1-0.2,0.2-0.4,0.2c-0.2,0-0.3-0.1-0.4-0.2
						c-0.1-0.1-0.2-0.3-0.2-0.4c0-0.2,0.1-0.3,0.2-0.4c0.1-0.1,0.2-0.2,0.4-0.2c0.2,0,0.3,0.1,0.4,0.2
						C1019.3,99.6,1019.3,99.8,1019.3,99.9z"/>
					
						<linearGradient id="SVGID_8_" gradientUnits="userSpaceOnUse" x1="-9391.1709" y1="6609.4614" x2="-9387.9111" y2="6609.4614" gradientTransform="matrix(0.1445 0.1268 -0.1268 0.1445 3214.2795 336.0493)">
						<stop  offset="0" style="stop-color:#050B0B"/>
						<stop  offset="1" style="stop-color:#2D4A51"/>
					</linearGradient>
					<path class="st60" d="M1019.5,98.8c0.2,0.1,0.3,0.3,0.4,0.5c0.1,0.2,0.2,0.4,0.2,0.6c0,0.4-0.1,0.7-0.4,0.9
						c-0.3,0.2-0.6,0.4-0.9,0.4c-0.3,0-0.5-0.1-0.7-0.2c-0.2-0.1-0.4-0.3-0.5-0.6c0.2,0.1,0.5,0.2,0.7,0.2c0.4,0,0.7-0.1,0.9-0.4
						c0.2-0.3,0.4-0.6,0.4-0.9C1019.6,99.2,1019.5,99,1019.5,98.8z"/>
					<path class="st9" d="M1018.2,99.3c0,0,0,0.1,0,0.1c0,0.1-0.1,0.1-0.1,0.1c0,0-0.1,0.1-0.2,0.1c-0.1,0-0.1,0-0.1,0
						c0,0,0-0.1,0-0.1c0-0.1,0.1-0.1,0.1-0.1C1018,99.2,1018.1,99.2,1018.2,99.3z"/>
					<path class="st9" d="M1018.4,99.1C1018.4,99.1,1018.4,99.1,1018.4,99.1c-0.1,0.1-0.1,0-0.1,0C1018.2,99,1018.3,99,1018.4,99.1
						C1018.4,99,1018.4,99,1018.4,99.1z"/>
				</g>
				<path class="st56" d="M1002.2,130.6c0,0.3-0.1,0.5-0.2,0.7c-0.1,0.2-0.3,0.3-0.5,0.3c-0.2,0-0.4-0.1-0.6-0.2
					c-0.2-0.2-0.2-0.4-0.2-0.7c0-0.3,0.1-0.5,0.2-0.7c0.1-0.2,0.3-0.3,0.5-0.3c0.2,0,0.4,0.1,0.6,0.3
					C1002.1,130.1,1002.2,130.3,1002.2,130.6z"/>
				<path class="st56" d="M1027.4,130.8c-0.1,0.2-0.2,0.3-0.3,0.4c-0.1,0.1-0.3,0.1-0.5,0.1c-0.2-0.1-0.3-0.2-0.3-0.3
					c-0.1-0.2-0.1-0.3,0-0.5c0.1-0.2,0.2-0.3,0.3-0.4c0.1-0.1,0.3-0.1,0.5-0.1c0.2,0.1,0.3,0.2,0.3,0.3
					C1027.4,130.5,1027.4,130.7,1027.4,130.8z"/>
				<path class="st56" d="M1027.6,106.4c0.3,0.1,0.4,0.3,0.6,0.6c0.1,0.3,0.1,0.6,0.1,0.8c-0.1,0.3-0.3,0.5-0.5,0.6
					c-0.2,0.1-0.5,0.1-0.7,0c-0.3-0.1-0.4-0.3-0.6-0.6c-0.1-0.3-0.1-0.6-0.1-0.8c0.1-0.3,0.3-0.5,0.5-0.6
					C1027.1,106.2,1027.4,106.3,1027.6,106.4z"/>
				
					<linearGradient id="SVGID_9_" gradientUnits="userSpaceOnUse" x1="-8707.4004" y1="7595.043" x2="-8566.8594" y2="7595.043" gradientTransform="matrix(0.1318 0.14 -0.14 0.1318 3215.8423 327.903)">
					<stop  offset="0" style="stop-color:#F3AE76"/>
					<stop  offset="1" style="stop-color:#ED6144"/>
				</linearGradient>
				<path class="st61" d="M1003,110.3c3-2.5,6.7-3.8,10.9-3.8c4.3,0,7.9,1.3,10.9,3.8c1.4,1.2,2.5,2.6,3.3,4.1
					c0.8,1.6,1.2,3.3,1.2,5c0,1.8-0.4,3.4-1.2,5c-0.8,1.6-1.9,2.9-3.3,4.1c-3,2.5-6.7,3.8-10.9,3.8c-4.3,0-7.9-1.3-10.9-3.8
					c-1.4-1.2-2.5-2.6-3.3-4.1c-0.8-1.6-1.2-3.3-1.2-5c0-1.8,0.4-3.4,1.2-5C1000.4,112.8,1001.5,111.5,1003,110.3z"/>
				<path class="st62" d="M1003.8,110.9c2.8-2.3,6.2-3.5,10.2-3.5c4,0,7.4,1.2,10.2,3.5c1.3,1.1,2.4,2.4,3.1,3.8
					c0.8,1.5,1.1,3,1.1,4.7c0,1.6-0.4,3.2-1.1,4.7c-0.7,1.4-1.8,2.7-3.1,3.8c-2.8,2.3-6.2,3.5-10.2,3.5c-4,0-7.4-1.2-10.2-3.5
					c-1.3-1.1-2.4-2.4-3.1-3.8c-0.8-1.5-1.1-3-1.1-4.7c0-1.6,0.4-3.2,1.1-4.7C1001.4,113.3,1002.4,112,1003.8,110.9z"/>
				
					<linearGradient id="SVGID_10_" gradientUnits="userSpaceOnUse" x1="8295.7451" y1="-9207.6543" x2="8386.124" y2="-9207.6543" gradientTransform="matrix(-0.1129 -0.1557 0.1557 -0.1129 3389.7942 379.2736)">
					<stop  offset="0" style="stop-color:#F3AE76"/>
					<stop  offset="1" style="stop-color:#ED6144"/>
				</linearGradient>
				<path class="st63" d="M1014,109.2c3.4,0,6.3,1,8.7,3c2.4,2,3.6,4.4,3.6,7.2c0,2.8-1.2,5.2-3.6,7.2c-2.4,2-5.3,3-8.7,3
					c-3.4,0-6.3-1-8.7-3c-2.4-2-3.6-4.4-3.6-7.2c0-2.8,1.2-5.2,3.6-7.2C1007.7,110.2,1010.6,109.2,1014,109.2z"/>
				<path class="st64" d="M1014,110.2c3.1,0,5.8,0.9,8,2.7c2.2,1.8,3.3,4,3.3,6.5c0,2.5-1.1,4.7-3.3,6.5c-2.2,1.8-4.9,2.7-8,2.7
					c-3.1,0-5.8-0.9-8-2.7c-2.2-1.8-3.3-4-3.3-6.5c0-2.5,1.1-4.7,3.3-6.5C1008.2,111.1,1010.8,110.2,1014,110.2z"/>
				
					<linearGradient id="SVGID_11_" gradientUnits="userSpaceOnUse" x1="-825.9953" y1="11646.4375" x2="-738.7999" y2="11646.4375" gradientTransform="matrix(0 0.1923 -0.1923 -2.000000e-04 3253.5901 272.823)">
					<stop  offset="0" style="stop-color:#630F08"/>
					<stop  offset="1" style="stop-color:#000000"/>
				</linearGradient>
				<path class="st65" d="M1014,110.6c3,0,5.6,0.9,7.7,2.6c2.1,1.7,3.2,3.8,3.2,6.2c0,2.4-1.1,4.5-3.2,6.2c-2.1,1.7-4.7,2.6-7.7,2.6
					c-3,0-5.6-0.9-7.7-2.6c-2.1-1.7-3.2-3.8-3.2-6.2c0-2.4,1.1-4.5,3.2-6.2C1008.4,111.5,1011,110.6,1014,110.6z"/>
				<path class="st9" d="M1006,113.4c0.8,0.8,1.4,1.4,1.9,2c0.2,0.3,1.1,1.3,2.7,3l-1.8-0.4c-1.3-0.3-2.3-0.5-2.9-0.6
					c-0.4-0.1-1.2-0.2-2.4-0.5c0.1-0.4,0.3-0.8,0.6-1.3C1004.6,114.7,1005.3,114,1006,113.4z"/>
				<path class="st9" d="M1003.2,117.7c1.1,0.2,2,0.3,2.7,0.5c0.5,0.1,1.4,0.3,2.8,0.6c1.2,0.3,1.8,0.4,1.8,0.4l-1.8,0.6
					c-1.3,0.5-2.3,0.8-3,1.1c-0.3,0.1-1.1,0.4-2.4,0.7c-0.1-0.3-0.2-0.7-0.3-1.2C1002.9,119.4,1003,118.5,1003.2,117.7z"/>
				<path class="st9" d="M1003.6,122.4c0.6-0.3,1.2-0.6,1.8-0.8c0.6-0.2,1.6-0.5,3.2-1c1.5-0.5,2.2-0.7,2.2-0.7l-1,1.3
					c-0.8,1-1.4,1.7-1.8,2.3c-0.6,0.7-1.2,1.3-2,2l-0.9-0.9C1004.4,123.8,1003.9,123.1,1003.6,122.4z"/>
				<path class="st9" d="M1010.6,121.6c0.4-0.4,0.8-0.7,1.2-0.9l0.5-0.3l-0.2,1.3c-0.2,1.1-0.4,2-0.6,2.8c-0.3,1-0.7,2.1-1.1,3.2
					c-0.8-0.2-1.6-0.5-2.4-1c-0.4-0.2-0.8-0.4-1-0.6C1008.1,124.3,1009.3,122.8,1010.6,121.6z"/>
				<path class="st9" d="M1016.1,120.8c1.5,1.7,2.5,2.8,2.9,3.2c0.2,0.2,0.5,0.7,1,1.4l0.7,1c-0.5,0.4-1.2,0.7-2.2,1.1
					c-0.9,0.3-1.5,0.5-1.9,0.5c-0.2-1.5-0.3-2.4-0.4-2.9L1016.1,120.8z"/>
				<path class="st9" d="M1019.8,118.5c1.6-0.6,3.2-1,4.8-1.3l0.3,1.2c0.1,1,0.1,2-0.2,3l-0.5-0.1c-0.5-0.1-1-0.2-1.7-0.4
					c-0.9-0.2-1.9-0.6-3.1-1c-0.6-0.2-1.1-0.5-1.5-0.7C1018.4,119,1019,118.8,1019.8,118.5z"/>
				<path class="st9" d="M1017.5,120.1c0.4,0,0.9,0.1,1.7,0.3c1.5,0.4,3.2,1.2,5.1,2.2c0,0-0.1,0.3-0.4,0.7
					c-0.3,0.5-0.6,0.9-0.9,1.2c-0.3,0.4-0.8,0.8-1.3,1.2l-1.4-1.4C1019.2,123.1,1018.2,121.7,1017.5,120.1z"/>
				
					<linearGradient id="SVGID_12_" gradientUnits="userSpaceOnUse" x1="-9810.1504" y1="6061.9673" x2="-9753.1074" y2="6061.9673" gradientTransform="matrix(0.1528 0.1168 -0.1168 0.1528 3213.7903 343.0375)">
					<stop  offset="0" style="stop-color:#FBE04B"/>
					<stop  offset="1" style="stop-color:#F5B740"/>
				</linearGradient>
				<path class="st66" d="M993,134.1c-1.6-2.3-2.5-5.4-2.9-9.3c0.1,1.1,0.7,2.3,1.6,3.6c1.9,2.6,5,4.5,9.2,5.6
					c5.8,1.5,12,1.9,18.7,1.2c2.3-0.2,4.6-0.6,6.7-1.1c1.6-0.4,2.8-0.7,3.5-1c1.9-0.8,3.5-1.7,4.7-2.8c1.5-1.3,2.5-3,3-5l-0.1,1.1
					c-0.1,1-0.3,1.9-0.7,2.9c-1,3.1-2.9,5.6-5.7,7.6c-2,1.5-4.6,2.5-7.6,3.1c-2.4,0.5-5.4,0.7-9,0.7c-4,0-7.4-0.3-10-0.7
					c-2.4-0.4-4.6-1.1-6.7-2C995.8,137.1,994.2,135.8,993,134.1z"/>
				<path class="st67" d="M1016.1,120.8c0.7,0.5,1.7,1.6,2.9,3.3l1.7,2.3l-0.9,0.5c-0.6-1.1-1.3-2.4-2.3-4
					C1016.9,122,1016.5,121.3,1016.1,120.8z"/>
				<path class="st68" d="M1016.1,120.8l1.4,7l-0.9,0.2c-0.1-0.5-0.2-1.2-0.3-2c-0.1-1-0.2-2-0.2-3.1
					C1016.1,121.8,1016.1,121.1,1016.1,120.8z"/>
				<path class="st69" d="M1016.5,127.5c0.4,0,0.9,0,1.4-0.2c1-0.2,1.9-0.7,2.5-1.3l0.2,0.4l-1.1,0.6c-1,0.5-1.9,0.8-3,1
					L1016.5,127.5z"/>
				<path class="st67" d="M1017.5,120.1c1.1,0,2.5,0.5,4.3,1.3l2.4,1.2c-0.3,0.5-0.4,0.7-0.4,0.7c-0.9-0.7-2.2-1.5-3.9-2.3
					C1019,120.7,1018.2,120.3,1017.5,120.1z"/>
				<path class="st68" d="M1017.5,120.1c0.4,0.6,0.8,1.2,1.4,1.9c1.2,1.4,2.3,2.5,3.4,3.2l-0.6,0.6l-1.4-1.4
					C1019.2,123.1,1018.2,121.7,1017.5,120.1z"/>
				<path class="st67" d="M1021,125.1c0.4,0,0.8-0.1,1.1-0.2c0.4-0.2,0.7-0.5,0.9-0.9c0.2-0.4,0.4-0.8,0.5-1.2l0.1-0.6l0.6,0.3
					l-0.2,0.4c-0.2,0.4-0.5,0.8-0.8,1.2c-0.4,0.5-0.9,1-1.6,1.5L1021,125.1z"/>
				<path class="st67" d="M1019.7,118.5c1.5-0.6,3.2-1,4.9-1.3l0.3,1l-1.8,0.2c-1.6,0.2-3.3,0.5-5.2,0.8
					C1018.3,119,1019,118.8,1019.7,118.5z"/>
				<path class="st68" d="M1019.9,120.1c-0.8-0.3-1.5-0.6-2-0.9c0,0,2.3,0.5,6.9,1.4c-0.1,0.5-0.1,0.7-0.2,0.7
					C1023.2,121.2,1021.6,120.8,1019.9,120.1z"/>
				<path class="st67" d="M1011.5,123l0.8-2.6c-0.3,2-0.7,3.8-1.2,5.4c-0.3,0.8-0.5,1.4-0.7,1.9l-0.9-0.3
					C1010.1,126.5,1010.8,125,1011.5,123z"/>
				<path class="st68" d="M1012.3,120.4l-1.7,1.9c-1.3,1.5-2.3,2.9-3.1,4.3l-0.7-0.4c0.4-0.7,1-1.5,1.6-2.3
					C1009.9,122.2,1011.1,121,1012.3,120.4z"/>
				<path class="st69" d="M1009.3,127.4c-0.8-0.3-1.6-0.8-2.4-1.3l0.3-0.4c0.2,0.3,0.6,0.6,1,0.9c0.8,0.6,1.6,0.8,2.4,0.8l-0.2,0.4
					L1009.3,127.4z"/>
				<path class="st67" d="M1009.1,122.2c-1.3,1.6-2.3,2.7-3.1,3.3l-0.8-0.8l5.6-4.8L1009.1,122.2z"/>
				<path class="st68" d="M1004.1,123.3l-0.5-0.9c0.8-0.4,2.2-1,4.3-1.6l2.9-0.9L1004.1,123.3z"/>
				<path class="st69" d="M1004.1,122.1c0,0.4,0.2,0.8,0.4,1.2c0.4,0.9,1.1,1.4,2,1.7l-0.5,0.4l-0.9-0.8c-0.6-0.7-1.1-1.5-1.5-2.3
					L1004.1,122.1z"/>
				<path class="st67" d="M1003,120.4l7.4-1.3l-3.1,1.1c-2.2,0.8-3.5,1.2-4,1.3L1003,120.4z"/>
				<path class="st68" d="M1003,118.4l0.1-0.8c0.3,0,2.7,0.5,7.3,1.5L1003,118.4z"/>
				<path class="st68" d="M1005.4,113.9l0.6-0.5c0.2,0.2,1.1,1.1,2.5,2.7l2.1,2.3C1007.1,115.4,1005.4,113.9,1005.4,113.9z"/>
				<path class="st67" d="M1003.9,116l6.6,2.5c-4.7-0.9-7.1-1.4-7.1-1.5C1003.5,116.9,1003.6,116.6,1003.9,116z"/>
				<path class="st69" d="M1003.7,117.7l-0.3,1.2c-0.1,1,0,1.8,0.5,2.5l-0.5,0.2c-0.1-0.3-0.2-0.7-0.3-1.2c-0.1-1-0.1-1.9,0.2-2.8
					L1003.7,117.7z"/>
				<path class="st69" d="M1006.5,113.9l-0.3,0.1c-0.3,0.1-0.5,0.3-0.8,0.5c-0.8,0.6-1.2,1.5-1.4,2.6l-0.5-0.1
					c0.1-0.4,0.3-0.8,0.6-1.3c0.5-1,1.2-1.7,2-2.3L1006.5,113.9z"/>
				<path class="st70" d="M1014.2,137.9c0,0.3,0,0.5-0.2,0.7c-0.2,0.2-0.4,0.3-0.6,0.3c-0.3,0-0.5,0-0.7-0.2
					c-0.2-0.2-0.3-0.4-0.3-0.6c0-0.3,0-0.5,0.2-0.7c0.2-0.2,0.4-0.3,0.6-0.3c0.3,0,0.5,0,0.7,0.2
					C1014.1,137.4,1014.2,137.6,1014.2,137.9z"/>
				<path class="st69" d="M1024.6,117.2l0.3,1.2c0.1,1,0.1,2-0.2,3l-0.7-0.1c0.2-0.4,0.4-0.8,0.5-1.3c0.2-1,0-1.9-0.6-2.6
					L1024.6,117.2z"/>
				<g>
					<path class="st9" d="M1014.5,122.7c0.3,1.2,0.5,2,0.6,2.3c0.2,0.5,0.4,1.5,0.8,3.1l-1.2,0.2c-1.1,0.1-2.2-0.1-3.5-0.3
						c0.3-1.1,0.7-2,1.1-3c0.3-0.6,0.7-1.5,1.1-2.6l0.6-1.4L1014.5,122.7z"/>
					<path class="st67" d="M1014.2,122.7l-0.3-1.7c0.8,2.7,1.4,5.1,1.9,7.2l-0.4,0.1c-0.4,0.1-0.7,0.1-1.1,0.1
						c0-0.8,0.1-1.5,0.1-2.3C1014.5,125.1,1014.4,124,1014.2,122.7z"/>
					<path class="st68" d="M1011.8,126.2l2.2-5.2l-2,7.1l-0.8-0.1C1011.4,127.1,1011.6,126.5,1011.8,126.2z"/>
					<path class="st69" d="M1015.9,128.1l-1.2,0.2c-1.1,0.1-2.2-0.1-3.5-0.3l0.1-0.4c0.4,0.2,0.8,0.4,1.4,0.5c1.1,0.2,2.1,0,3-0.5
						L1015.9,128.1z"/>
				</g>
				<path class="st71" d="M1014.7,116.9c-0.3,0.6-0.6,1-0.7,1.2l1.2-7.3l1.6,0.2C1016,113.6,1015.3,115.6,1014.7,116.9z"/>
				<path class="st71" d="M1021.1,112.8l-1.9,2.5c-1.4,1.7-2.5,2.7-3.2,3l4.2-6.1L1021.1,112.8z"/>
				<g>
					<path class="st9" d="M1016.7,110.9c0.4,0.1,0.8,0.2,1.3,0.3c1,0.3,1.8,0.7,2.5,1.2l-0.5,0.8c-0.4,0.6-0.8,1.2-1.3,1.8
						c-0.6,0.8-1.5,1.9-2.8,3.3c0-0.9,0.1-1.8,0.1-2.9C1016.3,113.3,1016.5,111.8,1016.7,110.9z"/>
					<path class="st67" d="M1019.8,112l0.8,0.5c-0.7,1.4-1.7,2.8-3,4.2c-0.6,0.7-1.2,1.2-1.6,1.7L1019.8,112z"/>
					<path class="st68" d="M1017.5,111.1c0,0-0.3,1.2-0.8,3.6c-0.2,1.2-0.5,2.4-0.8,3.5c0-0.7,0-1.4,0-2.4c0.1-1.9,0.3-3.5,0.7-4.9
						L1017.5,111.1z"/>
					<path class="st69" d="M1016.7,110.9c0.8,0.1,1.7,0.4,2.6,0.8l1.2,0.7l-0.3,0.5c-0.6-0.8-1.3-1.3-2.3-1.4c-0.5-0.1-1-0.1-1.4,0
						L1016.7,110.9z"/>
				</g>
				<path class="st71" d="M1019.7,118.1c-1,0.2-1.8,0.4-2.5,0.5l6.7-2.9l0.6,1.1C1023.2,117.2,1021.6,117.7,1019.7,118.1z"/>
				<g>
					<path class="st9" d="M1019.2,115.7c0.3-0.5,0.8-1.1,1.4-1.8l0.8-1c0.9,0.7,1.6,1.4,2.2,2.2l0.6,1l-1.2,0.5
						c-0.9,0.4-1.4,0.6-1.8,0.7c-0.7,0.3-2,0.7-4,1.3L1019.2,115.7z"/>
					<path class="st67" d="M1023.7,115.4l0.2,0.4l0.2,0.4c-0.9,0.4-2.3,1-4.3,1.6c-1,0.3-1.9,0.6-2.7,0.8L1023.7,115.4z"/>
					<path class="st68" d="M1021.3,112.9l0.7,0.6l-4.9,5.1C1019.3,115.5,1020.7,113.6,1021.3,112.9z"/>
					<path class="st69" d="M1021.3,112.9c0.3,0.2,0.6,0.4,1,0.8c0.8,0.7,1.4,1.5,1.8,2.5l-0.7,0.3c0-0.1,0-0.3-0.1-0.4
						c-0.1-0.4-0.2-0.7-0.4-1c-0.5-1-1.2-1.5-2.1-1.6L1021.3,112.9z"/>
				</g>
				<path class="st71" d="M1011.2,110.9l0.4,3.1c0.2,2.2,0.3,3.5,0.1,4.1l-1.7-6.9L1011.2,110.9z"/>
				<g>
					<path class="st9" d="M1010.7,111l0.3,1.3c0.2,1,0.3,1.7,0.4,2.2c0.1,0.5,0.2,1.3,0.3,2.4c0.1,0.7,0.1,1.1,0.1,1.1l-1.1-0.8
						c-0.8-0.7-1.5-1.2-1.9-1.7c-0.8-0.9-1.6-1.7-2.2-2.5c0.3-0.2,0.8-0.5,1.3-0.8C1008.8,111.6,1009.8,111.3,1010.7,111z"/>
					<path class="st68" d="M1009.9,111.2l0.7-0.2c0.2,0.4,0.4,1.7,0.8,3.8c0.2,1.1,0.3,2.2,0.4,3.2L1009.9,111.2z"/>
					<path class="st67" d="M1010.1,116.8c-1.3-1.1-2.5-2.4-3.7-3.8l0.9-0.6l4.4,5.6L1010.1,116.8z"/>
					<path class="st69" d="M1010.8,111.6l-0.4,0c-0.3,0-0.6,0.1-0.9,0.2c-1,0.3-1.9,0.8-2.7,1.6l-0.4-0.4c0.4-0.3,0.8-0.5,1.3-0.8
						c1.1-0.6,2-1,2.9-1.1L1010.8,111.6z"/>
				</g>
				<g>
					<path class="st9" d="M1011.1,111c1.3-0.2,2.5-0.3,3.7-0.3l1.4,0.1l-0.3,1.5c-0.2,1.1-0.4,1.9-0.6,2.3c-0.2,0.7-0.7,1.8-1.3,3.4
						l-1.6-3.4C1012,114,1011.6,112.8,1011.1,111z"/>
					<path class="st67" d="M1016.1,110.8l-0.7,3.1c-0.5,2.2-1,3.5-1.5,4.1l1.2-7.3l0.5,0L1016.1,110.8z"/>
					<path class="st68" d="M1012.1,110.8c1.2,4.7,1.8,7.1,1.8,7.2c0.2,0.6-0.2-0.2-1.1-2.2c-0.8-1.8-1.4-3.4-1.7-4.8L1012.1,110.8z"
						/>
					<path class="st69" d="M1011.2,111.5l-0.1-0.6c1.2-0.3,2.4-0.4,3.6-0.3l1.5,0.2l-0.1,0.6c-0.9-0.4-2-0.5-3.2-0.3
						C1012.2,111.2,1011.6,111.3,1011.2,111.5z"/>
				</g>
				
					<linearGradient id="SVGID_13_" gradientUnits="userSpaceOnUse" x1="-1503.7117" y1="11574.001" x2="-1460.1956" y2="11574.001" gradientTransform="matrix(8.800000e-03 0.1921 -0.1921 8.800000e-03 3249.9031 275.0657)">
					<stop  offset="0" style="stop-color:#FFFD54"/>
					<stop  offset="1" style="stop-color:#FBE04B"/>
				</linearGradient>
				<path class="st72" d="M1022.2,89c2.7,1.8,5.2,4.3,7.4,7.5c-6.5,1.8-13,2.4-19.5,1.8c-4.4-0.4-8.6-1.3-12.5-2.7
					c2.2-3,4.6-5.3,7.3-6.9c2.8-1.6,5.6-2.5,8.6-2.5C1016.5,86.2,1019.4,87.1,1022.2,89z"/>
				
					<linearGradient id="SVGID_14_" gradientUnits="userSpaceOnUse" x1="-9519.9805" y1="6543.5859" x2="-9331.3369" y2="6543.5859" gradientTransform="matrix(0.1461 0.125 -0.125 0.1461 3214.2974 337.4977)">
					<stop  offset="0" style="stop-color:#FBE04B"/>
					<stop  offset="1" style="stop-color:#F5B740"/>
				</linearGradient>
				<path class="st73" d="M1019.9,87.6c1.7,0.8,3.3,1.9,4.9,3.2c5,4.2,8.6,10.4,10.7,18.6c1.9,7.2,2.5,12.8,2,16.9
					c-0.5,4-2.4,7.2-5.5,9.9c-2.5,2.1-6.1,3.4-10.9,4.1c-2.4,0.3-4.6,0.5-6.5,0.4c3.8-1.1,6.6-2.2,8.7-3.3c2.4-1.2,4.2-2.7,5.5-4.4
					c1.3-1.8,2.2-4,2.7-6.8c0.5-2.7,0.6-6.2,0.4-10.5c-0.4-7.5-2.9-14.6-7.5-21.2c-1.4-2.1-3-4-4.7-5.7c-0.8-0.9-1.5-1.5-2.1-2
					C1018.3,86.9,1019,87.2,1019.9,87.6z"/>
				<path class="st70" d="M1034.4,131.3c-0.1,0.3-0.2,0.5-0.5,0.7c-0.2,0.2-0.5,0.2-0.8,0.2c-0.3-0.1-0.5-0.2-0.7-0.5
					c-0.2-0.3-0.2-0.5-0.2-0.8c0.1-0.3,0.2-0.6,0.5-0.7c0.2-0.2,0.5-0.2,0.8-0.2c0.3,0.1,0.5,0.2,0.7,0.5
					C1034.4,130.7,1034.4,131,1034.4,131.3z"/>
				<path class="st70" d="M1024.7,137.1c0,0.3-0.1,0.5-0.3,0.6c-0.2,0.2-0.4,0.2-0.6,0.2c-0.2,0-0.4-0.1-0.5-0.3
					c-0.1-0.2-0.2-0.4-0.1-0.7c0-0.3,0.1-0.5,0.3-0.6c0.2-0.2,0.4-0.2,0.6-0.2c0.2,0,0.4,0.1,0.5,0.3
					C1024.7,136.6,1024.7,136.8,1024.7,137.1z"/>
				
					<linearGradient id="SVGID_15_" gradientUnits="userSpaceOnUse" x1="1048.1965" y1="11770.7451" x2="1151.0305" y2="11770.7451" gradientTransform="matrix(-3.090000e-02 0.1898 -0.1898 -3.090000e-02 3266.0913 265.3657)">
					<stop  offset="0" style="stop-color:#FCEB4F"/>
					<stop  offset="1" style="stop-color:#FBE04B"/>
				</linearGradient>
				<path class="st74" d="M1003.9,91.6c-3.3,3.8-5.5,7.6-6.7,11.4c-0.9,2.9-1.8,7.1-2.6,12.5c-0.7,4.8-1.1,8-1.1,9.7
					c0,0.6-0.2,1.1-0.5,1.5c-0.3,0.3-0.7,0.5-1.1,0.5c-0.4,0-0.8-0.1-1.1-0.5c-0.4-0.4-0.6-0.9-0.6-1.5c-0.1-1.8,0-4.5,0.3-8
					c0.4-4.2,1-7.7,1.7-10.3c1.2-3.9,2.9-7.6,5.3-11.1c3.2-4.6,6.8-7.5,10.9-8.8l-1.4,1.2C1006,89.3,1004.9,90.4,1003.9,91.6z"/>
				<path class="st56" d="M991.6,118.2c0.1-0.1,0.3-0.2,0.5-0.1c0.2,0,0.3,0.1,0.4,0.3c0.1,0.2,0.1,0.3,0.1,0.5
					c0,0.2-0.1,0.4-0.3,0.5c-0.1,0.1-0.3,0.2-0.5,0.1c-0.2,0-0.3-0.1-0.4-0.3c-0.1-0.2-0.1-0.3-0.1-0.5
					C991.4,118.5,991.5,118.3,991.6,118.2z"/>
				<path class="st56" d="M995.4,126.7c0,0.4-0.1,0.8-0.4,1.1c-0.3,0.3-0.6,0.5-1.1,0.5c-0.4,0-0.8-0.1-1-0.4
					c-0.3-0.3-0.4-0.7-0.4-1.1c0-0.4,0.1-0.8,0.4-1.1c0.3-0.3,0.6-0.5,1.1-0.5c0.4,0,0.8,0.1,1.1,0.4
					C995.3,125.9,995.4,126.3,995.4,126.7z"/>
				<g>
					<path class="st75" d="M1013.7,87c-0.7,0-1.3-0.1-1.9-0.3c-0.3-0.1-0.6-0.2-0.7-0.3l2.9-10.2l2.5,10.3l-0.7,0.3
						C1015.1,86.9,1014.5,87,1013.7,87z"/>
					<path class="st76" d="M1016.5,86.5c-0.3,0.1-0.6,0.2-0.9,0.3l-1.6-10.6C1015.7,83,1016.5,86.4,1016.5,86.5z"/>
					<path class="st77" d="M1011.1,86.4l2.9-10.2l-2.3,10.5C1011.3,86.5,1011.1,86.4,1011.1,86.4z"/>
				</g>
				<path class="st78" d="M1011.6,84.4c1,0.4,2,0.6,3.1,0.5l1.4-0.3l0.1,0.4c-1,0.4-2.1,0.4-3.2,0.2c-0.6-0.1-1-0.3-1.4-0.5
					L1011.6,84.4z"/>
				<path class="st78" d="M1012.1,82.8c0.7,0.3,1.5,0.5,2.4,0.4l1.2-0.2l0.1,0.3c-1,0.3-2,0.3-2.8,0.1c-0.4-0.1-0.7-0.2-0.9-0.4
					L1012.1,82.8z"/>
				<path class="st78" d="M1012.6,81.2c0.4,0.3,1,0.4,1.7,0.3l1-0.2l0.1,0.3c-0.8,0.2-1.6,0.3-2.2,0.1c-0.3-0.1-0.5-0.2-0.7-0.3
					L1012.6,81.2z"/>
				<path class="st78" d="M1013,79.7c0.4,0.2,0.8,0.2,1.3,0.2l0.6-0.2l0.1,0.3c-0.5,0.2-1,0.3-1.5,0.2c-0.2,0-0.4-0.1-0.5-0.2
					L1013,79.7z"/>
				<path class="st78" d="M1013.3,78.5c0.2,0.1,0.5,0.2,0.8,0.1l0.5-0.1l0.1,0.3c-0.4,0.1-0.8,0.1-1.1,0.1c-0.1,0-0.2-0.1-0.3-0.1
					L1013.3,78.5z"/>
				<path class="st78" d="M1013.6,77.4c0.1,0.1,0.3,0.1,0.5,0.1l0.2,0l0.1,0.2c-0.2,0.1-0.4,0.1-0.6,0c-0.1,0-0.2,0-0.2-0.1
					L1013.6,77.4z"/>
				<path class="st52" d="M993.9,134.1c2.3,1.8,5.6,3.2,9.8,4.1c5.8,1.2,11.5,1.4,17,0.6c3.2-0.5,6-1.2,8.4-2.2
					c1.4-0.6,2.7-1.3,3.8-2.1c1-0.8,1.7-1.4,2-1.6l-0.1,0.2c-0.1,0.2-0.2,0.5-0.4,0.7c-0.6,0.9-1.7,1.9-3.3,3
					c-2,1.5-4.5,2.5-7.4,3.1c-2.2,0.4-5.3,0.7-9.2,0.7c-3.9,0-7.3-0.2-10-0.7c-2.4-0.4-4.6-1.1-6.7-2c-1.6-0.7-2.9-1.6-4-2.8
					c-1-1.1-1.7-2.3-2.1-3.5C992,132.3,992.8,133.2,993.9,134.1z"/>
			</g>
		</g>
		<g>
			<path class="st9" d="M1037.3,82c-0.1-0.9-2.3-1.7-6.8-2.5c-4.7-0.8-10.3-1.2-17-1.2c-6.6,0-12.3,0.4-17,1.2
				c-4.4,0.7-6.7,1.6-6.7,2.5c0.1,0.9,2.3,1.7,6.7,2.5c4.7,0.8,10.4,1.2,17,1.2c6.6,0,12.3-0.4,17-1.2
				C1035,83.7,1037.3,82.9,1037.3,82z M1030.7,78.8c5,0.8,7.4,1.9,7.4,3.2c0.1,1.3-2.4,2.4-7.4,3.2c-4.7,0.8-10.4,1.2-17.1,1.2
				c-6.7,0-12.4-0.4-17.1-1.2c-5-0.8-7.4-1.9-7.4-3.2c-0.1-1.3,2.4-2.4,7.4-3.2c4.7-0.8,10.4-1.2,17.1-1.2
				C1020.3,77.6,1026,78,1030.7,78.8z"/>
			<path class="st9" d="M1037.3,84c-0.1-0.9-2.3-1.7-6.8-2.5c-4.7-0.8-10.3-1.2-17-1.2c-6.6,0-12.3,0.4-17,1.2
				c-4.4,0.7-6.7,1.6-6.7,2.5c0.1,0.9,2.3,1.7,6.7,2.5c4.7,0.8,10.4,1.2,17,1.2c6.6,0,12.3-0.4,17-1.2
				C1035,85.7,1037.3,84.9,1037.3,84z M1030.7,80.8c5,0.8,7.4,1.9,7.4,3.2c0.1,1.3-2.4,2.4-7.4,3.2c-4.7,0.8-10.4,1.2-17.1,1.2
				c-6.7,0-12.4-0.4-17.1-1.2c-5-0.8-7.4-1.9-7.4-3.2c-0.1-1.3,2.4-2.4,7.4-3.2c4.7-0.8,10.4-1.2,17.1-1.2
				C1020.3,79.6,1026,80,1030.7,80.8z"/>
			<polygon class="st79" points="1008.3,79.4 1005.5,80.3 1005.5,83.3 1003.8,80.9 1001.1,81.8 1002.8,79.4 1001.1,77.1 1003.8,78 
				1005.5,75.6 1005.5,78.5 			"/>
			<polygon class="st79" points="1031.7,78.6 1030.3,79.1 1030.3,80.6 1029.5,79.4 1028.1,79.8 1029,78.6 1028.1,77.5 1029.5,77.9 
				1030.3,76.7 1030.3,78.2 			"/>
			<polygon class="st79" points="1028.7,87.9 1026.6,88.5 1026.6,90.7 1025.3,89 1023.2,89.6 1024.5,87.9 1023.2,86.1 1025.3,86.8 
				1026.6,85 1026.6,87.2 			"/>
			<polygon class="st79" points="995.5,86 994.5,86.4 994.5,87.5 993.8,86.6 992.8,86.9 993.4,86 992.8,85.2 993.8,85.5 994.5,84.6 
				994.5,85.7 			"/>
		</g>
	</g>
</g>
</svg>
