<?xml version="1.0" encoding="utf-8"?>
<!-- Generator: Adobe Illustrator 19.0.0, SVG Export Plug-In . SVG Version: 6.00 Build 0)  -->
<svg version="1.1" id="图层_1" xmlns="http://www.w3.org/2000/svg" xmlns:xlink="http://www.w3.org/1999/xlink" x="0px" y="0px"
	 viewBox="0 0 1024 100" style="enable-background:new 0 0 1024 100;" xml:space="preserve">
<style type="text/css">
	.st0{fill:#081842;}
	.st1{fill-rule:evenodd;clip-rule:evenodd;fill:#726841;}
	.st2{fill-rule:evenodd;clip-rule:evenodd;fill:#8EBB42;}
	.st3{fill-rule:evenodd;clip-rule:evenodd;fill:url(#XMLID_176_);}
	.st4{fill-rule:evenodd;clip-rule:evenodd;fill:url(#XMLID_177_);}
	.st5{fill-rule:evenodd;clip-rule:evenodd;fill:#183262;}
	.st6{fill-rule:evenodd;clip-rule:evenodd;fill:#11264E;}
	.st7{fill-rule:evenodd;clip-rule:evenodd;fill:#152E5B;}
	.st8{fill-rule:evenodd;clip-rule:evenodd;fill:#0F2142;}
	.st9{fill-rule:evenodd;clip-rule:evenodd;fill:#0B1B33;}
	.st10{fill-rule:evenodd;clip-rule:evenodd;fill:#FFFFFF;}
	.st11{fill-rule:evenodd;clip-rule:evenodd;fill:#A7792E;}
	.st12{fill-rule:evenodd;clip-rule:evenodd;fill:#E17638;}
	.st13{fill-rule:evenodd;clip-rule:evenodd;fill:#EB9D3F;}
	.st14{fill-rule:evenodd;clip-rule:evenodd;fill:#5FAADB;}
	.st15{fill-rule:evenodd;clip-rule:evenodd;fill:#459A57;}
	.st16{fill-rule:evenodd;clip-rule:evenodd;fill:#7D848B;}
	.st17{fill-rule:evenodd;clip-rule:evenodd;fill:#802A7C;}
	.st18{fill-rule:evenodd;clip-rule:evenodd;fill:#DA423E;}
	.st19{fill-rule:evenodd;clip-rule:evenodd;fill:#E5A379;}
	.st20{fill-rule:evenodd;clip-rule:evenodd;fill:#FFCDAF;}
	.st21{fill-rule:evenodd;clip-rule:evenodd;fill:#E9DFDF;}
	.st22{fill-rule:evenodd;clip-rule:evenodd;fill:#351504;}
	.st23{fill-rule:evenodd;clip-rule:evenodd;fill:#BD8D5F;}
	.st24{fill-rule:evenodd;clip-rule:evenodd;fill:#B48866;}
	.st25{fill-rule:evenodd;clip-rule:evenodd;fill:#3BBF81;}
	.st26{fill-rule:evenodd;clip-rule:evenodd;fill:#75ECB3;}
	.st27{fill-rule:evenodd;clip-rule:evenodd;fill:#188A54;}
	.st28{fill-rule:evenodd;clip-rule:evenodd;fill:#F0D680;}
	.st29{fill-rule:evenodd;clip-rule:evenodd;fill:#EEBE76;}
	
		.st30{fill-rule:evenodd;clip-rule:evenodd;fill:none;stroke:#000000;stroke-linecap:round;stroke-linejoin:round;stroke-miterlimit:3;}
	.st31{fill-rule:evenodd;clip-rule:evenodd;fill:#E7B79B;}
	.st32{fill-rule:evenodd;clip-rule:evenodd;fill:#D09067;}
	.st33{fill-rule:evenodd;clip-rule:evenodd;fill:#E9E9E9;}
	.st34{fill-rule:evenodd;clip-rule:evenodd;fill:#744F2F;}
	.st35{fill-rule:evenodd;clip-rule:evenodd;fill:#D6D3D7;}
	.st36{fill-rule:evenodd;clip-rule:evenodd;fill:#BBAB9D;}
	.st37{fill-rule:evenodd;clip-rule:evenodd;fill:#0B658C;}
	.st38{fill-rule:evenodd;clip-rule:evenodd;fill:#37A6D7;}
	.st39{fill-rule:evenodd;clip-rule:evenodd;fill:#208CBB;}
	.st40{fill-rule:evenodd;clip-rule:evenodd;fill:#2B96C4;}
	.st41{fill-rule:evenodd;clip-rule:evenodd;fill:#E9B89A;}
	.st42{fill-rule:evenodd;clip-rule:evenodd;fill:#8DD2F0;}
	.st43{fill-rule:evenodd;clip-rule:evenodd;fill:#1B9ED7;}
	.st44{fill-rule:evenodd;clip-rule:evenodd;fill:#835934;}
	.st45{fill-rule:evenodd;clip-rule:evenodd;fill:#6F5034;}
	.st46{fill-rule:evenodd;clip-rule:evenodd;fill:#BD9068;}
	.st47{fill-rule:evenodd;clip-rule:evenodd;fill:#E2E2E2;}
	.st48{fill-rule:evenodd;clip-rule:evenodd;fill:#E6DFE7;}
	.st49{fill-rule:evenodd;clip-rule:evenodd;fill:#CBB8A8;}
	.st50{fill-rule:evenodd;clip-rule:evenodd;fill:#5BAA61;}
	.st51{fill-rule:evenodd;clip-rule:evenodd;fill:#4A854F;}
	.st52{fill-rule:evenodd;clip-rule:evenodd;fill:#539558;}
</style>
<rect id="XMLID_1_" class="st0" width="1024" height="102"/>
<g id="XMLID_3_">
	<g id="XMLID_173_">
		<path id="XMLID_175_" class="st1" d="M905.2,57.9v6.7c0,0.4-0.1,0.8-0.5,1c-0.3,0.3-0.6,0.5-1,0.5c-0.4,0-0.8-0.2-1.1-0.5
			c-0.3-0.3-0.5-0.6-0.5-1v-6.7c0-0.4,0.2-0.8,0.5-1c0.3-0.3,0.7-0.5,1.1-0.5c0.4,0,0.8,0.1,1,0.5C905.1,57.1,905.2,57.4,905.2,57.9
			z"/>
		<path id="XMLID_174_" class="st2" d="M910.5,53.4c0,1.9-0.6,3.4-1.9,4.4c-1.2,0.9-2.8,1.3-4.8,1.3c-2,0-3.5-0.4-4.7-1.3
			c-1.3-1-2-2.5-2-4.4c0-2.3,0.7-4.8,2-7.5c1.4-2.9,3-4.4,4.7-4.4c1.7,0,3.3,1.5,4.8,4.4C909.9,48.6,910.5,51.1,910.5,53.4z"/>
	</g>
	<g id="XMLID_170_">
		
			<linearGradient id="XMLID_176_" gradientUnits="userSpaceOnUse" x1="-390.0887" y1="536.1662" x2="-371.3708" y2="536.1662" gradientTransform="matrix(1.000000e-04 -1 1 -1.000000e-03 335.3572 -333.3344)">
			<stop  offset="0" style="stop-color:#183262"/>
			<stop  offset="4.705880e-02" style="stop-color:#323C56"/>
			<stop  offset="0.1059" style="stop-color:#4E464A"/>
			<stop  offset="0.1725" style="stop-color:#675041"/>
			<stop  offset="0.2471" style="stop-color:#7B573A"/>
			<stop  offset="0.3333" style="stop-color:#8B5D36"/>
			<stop  offset="0.4392" style="stop-color:#966233"/>
			<stop  offset="0.5922" style="stop-color:#9C6432"/>
			<stop  offset="1" style="stop-color:#9E6532"/>
		</linearGradient>
		<path id="XMLID_172_" class="st3" d="M853.5,55.8c0.2-0.2,1.3-1.7,3.4-4.6c2.5-3.3,4.7-6,6.7-8.2c3.4-3.6,6.1-5.5,8.1-5.5
			c2.6,0,6.3,3.1,11.2,9.4c2.4,3.1,4.6,6.2,6.5,9.3L853.5,55.8z"/>
		
			<linearGradient id="XMLID_177_" gradientUnits="userSpaceOnUse" x1="-389.7329" y1="510.0975" x2="-363.058" y2="510.0975" gradientTransform="matrix(0 -1 1 -1.000000e-03 334.7121 -333.3344)">
			<stop  offset="0" style="stop-color:#183262"/>
			<stop  offset="3.921570e-03" style="stop-color:#193262"/>
			<stop  offset="5.490200e-02" style="stop-color:#384053"/>
			<stop  offset="0.1137" style="stop-color:#544C48"/>
			<stop  offset="0.1804" style="stop-color:#6D573F"/>
			<stop  offset="0.251" style="stop-color:#826039"/>
			<stop  offset="0.3373" style="stop-color:#916735"/>
			<stop  offset="0.4471" style="stop-color:#9C6C33"/>
			<stop  offset="0.5922" style="stop-color:#A36E32"/>
			<stop  offset="1" style="stop-color:#A46F32"/>
		</linearGradient>
		<path id="XMLID_171_" class="st4" d="M870.4,55.9l-51.2-0.7c0.3-0.3,1.9-2.5,4.9-6.7c3.5-4.8,6.7-8.6,9.5-11.6
			c4.9-5.2,8.7-7.8,11.6-7.8c3.7,0,9,4.5,16,13.4C864.6,47,867.7,51.5,870.4,55.9z"/>
	</g>
	<path id="XMLID_169_" class="st5" d="M1023.8,91.1l-258.3,7L-0.2,91.5V52.8l104.1,1.5c84.2,1.1,162.9,2,236.2,2.6
		c235,1.9,372.6,1,413-2.8c26.5-2.5,79.6-3,159.2-1.5c39.8,0.7,76.9,1.7,111.4,2.9V91.1z"/>
	<path id="XMLID_168_" class="st6" d="M666.6,95c0,1.1-0.8,2-2.3,2.8c-1.6,0.7-3.4,1.1-5.6,1.1c-2.2,0-4-0.4-5.6-1.1
		c-1.5-0.8-2.3-1.7-2.3-2.8c0-1.1,0.8-2,2.3-2.8c1.6-0.8,3.4-1.1,5.6-1.1c2.2,0,4.1,0.4,5.6,1.1C665.8,93,666.6,93.9,666.6,95z"/>
	<path id="XMLID_167_" class="st7" d="M859.9,60.2c0,1.2-1.4,2.3-4.1,3.2c-2.8,0.9-6.1,1.3-9.9,1.3c-3.9,0-7.2-0.4-10-1.3
		c-2.8-0.9-4.2-2-4.2-3.2c0-1.3,1.4-2.3,4.2-3.2c2.7-0.9,6-1.3,10-1.3c3.9,0,7.2,0.5,9.9,1.3C858.5,57.9,859.9,58.9,859.9,60.2z"/>
	<path id="XMLID_166_" class="st6" d="M211.5,82.2c-9.1,1.3-20.1,2-32.9,2c-12.8,0-23.8-0.7-32.9-2c-9.1-1.4-13.7-3-13.7-4.9
		c0-1.9,4.6-3.6,13.7-4.9c9.1-1.4,20-2,32.9-2c12.9,0,23.8,0.7,32.9,2c9.1,1.3,13.6,3,13.6,4.9C225.1,79.2,220.6,80.9,211.5,82.2z"
		/>
	<path id="XMLID_165_" class="st6" d="M333.6,62.8c0,0.9-1,1.7-3.1,2.4c-2.1,0.7-4.5,1-7.4,1c-2.9,0-5.4-0.3-7.5-1
		c-2.1-0.7-3.1-1.5-3.1-2.4c0-0.9,1-1.7,3.1-2.4c2.1-0.7,4.5-1,7.5-1c2.9,0,5.4,0.3,7.4,1C332.6,61,333.6,61.8,333.6,62.8z"/>
	<path id="XMLID_164_" class="st8" d="M1023.8,102H-0.2V87.1l40.9-2.7c34.2-2,68.7-3.5,103.3-4.6c110.9-3.4,203.4-1.6,277.5,5.6
		c107.7,10.5,236.5,13.2,386.2,8c53.5-1.8,102.6-4.5,147.5-7.9c39.1-3,62-5.5,68.7-7.4V102z"/>
	<path id="XMLID_163_" class="st9" d="M300.8,95.2c0,0.6-0.6,1.2-1.9,1.6c-1.3,0.4-2.8,0.6-4.6,0.6c-1.8,0-3.3-0.2-4.6-0.6
		c-1.3-0.4-1.9-1-1.9-1.6c0-0.6,0.6-1.2,1.9-1.6c1.3-0.4,2.8-0.7,4.6-0.7c1.8,0,3.3,0.2,4.6,0.7C300.2,94,300.8,94.6,300.8,95.2z"/>
	<path id="XMLID_162_" class="st10" d="M957.3,43.8c0,1.3-0.6,2.4-1.8,3.3c-1.2,0.9-2.6,1.3-4.3,1.3c-1.7,0-3.1-0.4-4.3-1.3
		c-1.2-0.9-1.8-2-1.8-3.3c0-1.3,0.6-2.4,1.8-3.3c1.2-0.9,2.6-1.4,4.3-1.4c1.7,0,3.1,0.5,4.3,1.4C956.8,41.4,957.3,42.5,957.3,43.8z"
		/>
	<path id="XMLID_161_" class="st10" d="M961.4,39.8c0,1.3-0.6,2.4-1.8,3.4c-1.2,0.9-2.6,1.3-4.3,1.3c-1.7,0-3.1-0.5-4.3-1.3
		c-1.2-0.9-1.8-2-1.8-3.4c0-1.3,0.6-2.4,1.8-3.3c1.2-0.9,2.6-1.4,4.3-1.4c1.7,0,3.1,0.5,4.3,1.4C960.8,37.4,961.4,38.5,961.4,39.8z"
		/>
	<path id="XMLID_160_" class="st10" d="M962.4,45.8c0,1.3-0.6,2.4-1.8,3.3c-1.2,0.9-2.6,1.3-4.3,1.3c-1.7,0-3.1-0.4-4.3-1.3
		c-1.2-0.9-1.8-2-1.8-3.3c0-1.3,0.6-2.4,1.8-3.3c1.2-0.9,2.6-1.4,4.3-1.4c1.7,0,3.1,0.5,4.3,1.4C961.8,43.4,962.4,44.5,962.4,45.8z"
		/>
	<path id="XMLID_159_" class="st10" d="M967.8,42.1c0,1.3-0.6,2.4-1.8,3.3c-1.2,0.9-2.6,1.4-4.3,1.4c-1.7,0-3.1-0.5-4.3-1.4
		c-1.2-0.9-1.8-2-1.8-3.3s0.6-2.4,1.8-3.3c1.2-0.9,2.6-1.4,4.3-1.4c1.7,0,3.1,0.5,4.3,1.4C967.2,39.7,967.8,40.8,967.8,42.1z"/>
	<path id="XMLID_158_" class="st10" d="M971.1,45.5c0,1.3-0.6,2.4-1.8,3.4c-1.2,0.9-2.6,1.3-4.3,1.3c-1.7,0-3.1-0.5-4.3-1.3
		c-1.2-0.9-1.8-2-1.8-3.4c0-1.3,0.6-2.4,1.8-3.3c1.2-0.9,2.6-1.4,4.3-1.4c1.7,0,3.1,0.5,4.3,1.4C970.6,43.1,971.1,44.2,971.1,45.5z"
		/>
	<path id="XMLID_157_" class="st10" d="M925.8,54.9c0,1-0.4,1.8-1.3,2.5c-0.9,0.7-2,1-3.2,1s-2.3-0.3-3.2-1
		c-0.9-0.7-1.3-1.5-1.3-2.5s0.4-1.8,1.3-2.5c0.9-0.7,2-1,3.2-1c1.3,0,2.3,0.3,3.2,1C925.4,53.1,925.8,53.9,925.8,54.9z"/>
	<path id="XMLID_156_" class="st10" d="M928.8,51.9c0,1-0.4,1.8-1.3,2.5c-0.9,0.7-2,1-3.2,1s-2.3-0.3-3.2-1
		c-0.9-0.7-1.3-1.5-1.3-2.5s0.4-1.8,1.3-2.5c0.9-0.7,2-1,3.2-1c1.3,0,2.3,0.3,3.2,1C928.4,50.1,928.8,50.9,928.8,51.9z"/>
	<path id="XMLID_155_" class="st10" d="M929.5,56.4c0,1-0.4,1.8-1.3,2.5c-0.9,0.7-2,1-3.2,1s-2.3-0.3-3.2-1
		c-0.9-0.7-1.3-1.5-1.3-2.5s0.4-1.8,1.3-2.5c0.9-0.7,2-1,3.2-1c1.3,0,2.3,0.3,3.2,1C929.1,54.6,929.5,55.4,929.5,56.4z"/>
	<path id="XMLID_154_" class="st10" d="M932.2,51.2c0.9,0.7,1.3,1.5,1.3,2.5s-0.4,1.8-1.3,2.5c-0.9,0.7-2,1-3.2,1s-2.3-0.3-3.2-1
		c-0.9-0.7-1.3-1.5-1.3-2.5s0.4-1.8,1.3-2.5c0.9-0.7,2-1,3.2-1C930.3,50.2,931.4,50.5,932.2,51.2z"/>
	<path id="XMLID_153_" class="st10" d="M931.5,52.7c1.3,0,2.3,0.3,3.2,1c0.9,0.7,1.3,1.5,1.3,2.5s-0.4,1.8-1.3,2.5
		c-0.9,0.7-2,1-3.2,1s-2.3-0.3-3.2-1c-0.9-0.7-1.3-1.5-1.3-2.5s0.4-1.8,1.3-2.5C929.2,53,930.3,52.7,931.5,52.7z"/>
	<g id="XMLID_147_">
		<path id="XMLID_152_" class="st10" d="M90.6,46.2c0,1-0.4,1.8-1.3,2.5c-0.9,0.7-2,1-3.2,1c-1.2,0-2.3-0.3-3.2-1
			c-0.9-0.7-1.3-1.5-1.3-2.5s0.4-1.8,1.3-2.5c0.9-0.7,1.9-1,3.2-1c1.3,0,2.3,0.3,3.2,1C90.2,44.4,90.6,45.2,90.6,46.2z"/>
		<path id="XMLID_151_" class="st10" d="M93.6,43.2c0,1-0.4,1.8-1.3,2.5c-0.9,0.7-2,1-3.2,1c-1.2,0-2.3-0.3-3.2-1
			c-0.9-0.7-1.3-1.5-1.3-2.5s0.4-1.8,1.3-2.5c0.9-0.7,1.9-1,3.2-1c1.3,0,2.3,0.3,3.2,1C93.2,41.4,93.6,42.2,93.6,43.2z"/>
		<path id="XMLID_150_" class="st10" d="M94.3,47.7c0,1-0.4,1.8-1.3,2.5c-0.9,0.7-2,1-3.2,1c-1.2,0-2.3-0.3-3.2-1
			c-0.9-0.7-1.3-1.5-1.3-2.5s0.4-1.8,1.3-2.5c0.9-0.7,1.9-1,3.2-1c1.3,0,2.3,0.3,3.2,1C93.9,45.9,94.3,46.7,94.3,47.7z"/>
		<path id="XMLID_149_" class="st10" d="M98.3,44.9c0,1-0.4,1.8-1.3,2.5c-0.9,0.7-2,1-3.2,1c-1.2,0-2.3-0.3-3.2-1
			c-0.9-0.7-1.3-1.5-1.3-2.5s0.4-1.8,1.3-2.5c0.9-0.7,1.9-1,3.2-1c1.3,0,2.3,0.3,3.2,1C97.9,43.1,98.3,43.9,98.3,44.9z"/>
		<path id="XMLID_148_" class="st10" d="M100.8,47.4c0,1-0.4,1.8-1.3,2.5c-0.9,0.7-2,1-3.2,1c-1.2,0-2.3-0.3-3.2-1
			c-0.9-0.7-1.3-1.5-1.3-2.5s0.4-1.8,1.3-2.5c0.9-0.7,1.9-1,3.2-1c1.3,0,2.3,0.3,3.2,1C100.4,45.6,100.8,46.4,100.8,47.4z"/>
	</g>
	<g id="XMLID_142_">
		<g id="XMLID_144_">
			<path id="XMLID_146_" class="st1" d="M905.2,57.9v6.7c0,0.4-0.1,0.8-0.5,1c-0.3,0.3-0.6,0.5-1,0.5c-0.4,0-0.8-0.2-1.1-0.5
				c-0.3-0.3-0.5-0.6-0.5-1v-6.7c0-0.4,0.2-0.8,0.5-1c0.3-0.3,0.7-0.5,1.1-0.5c0.4,0,0.8,0.1,1,0.5
				C905.1,57.1,905.2,57.4,905.2,57.9z"/>
			<path id="XMLID_145_" class="st2" d="M910.5,53.4c0,1.9-0.6,3.4-1.9,4.4c-1.2,0.9-2.8,1.3-4.8,1.3c-2,0-3.5-0.4-4.7-1.3
				c-1.3-1-2-2.5-2-4.4c0-2.3,0.7-4.8,2-7.5c1.4-2.9,3-4.4,4.7-4.4c1.7,0,3.3,1.5,4.8,4.4C909.9,48.6,910.5,51.1,910.5,53.4z"/>
		</g>
		<path id="XMLID_143_" class="st8" d="M910.2,66.1c0,0.6-0.6,1.2-1.9,1.6c-1.3,0.4-2.8,0.7-4.6,0.7s-3.3-0.2-4.6-0.7
			s-1.9-1-1.9-1.6c0-0.6,0.6-1.1,1.9-1.6c1.3-0.5,2.8-0.7,4.6-0.7s3.3,0.2,4.6,0.7C909.6,64.9,910.2,65.5,910.2,66.1z"/>
	</g>
	<g id="XMLID_137_">
		<g id="XMLID_139_">
			<path id="XMLID_141_" class="st1" d="M122.5,63.2c0.4,0,0.8,0.2,1.1,0.5c0.3,0.3,0.5,0.7,0.5,1.1v6.7c0,0.4-0.2,0.8-0.5,1.1
				c-0.3,0.3-0.7,0.5-1.1,0.5c-0.4,0-0.8-0.2-1-0.5c-0.3-0.3-0.5-0.7-0.5-1.1v-6.7c0-0.4,0.2-0.8,0.5-1.1
				C121.8,63.3,122.1,63.2,122.5,63.2z"/>
			<path id="XMLID_140_" class="st2" d="M122.7,48.4c1.7,0,3.3,1.5,4.8,4.4c1.3,2.6,2,5.1,2,7.4c0,1.9-0.7,3.4-2,4.4
				c-1.2,0.9-2.8,1.3-4.8,1.3s-3.6-0.5-4.8-1.3c-1.3-1-2-2.4-2-4.4c0-2.3,0.7-4.8,2-7.4C119.4,49.9,121,48.4,122.7,48.4z"/>
		</g>
		<path id="XMLID_138_" class="st8" d="M122.5,70.7c1.8,0,3.3,0.2,4.6,0.7c1.3,0.4,1.9,1,1.9,1.6s-0.6,1.2-1.9,1.6
			c-1.3,0.4-2.8,0.7-4.6,0.7c-1.8,0-3.3-0.2-4.6-0.7c-1.3-0.4-1.9-1-1.9-1.6s0.6-1.2,1.9-1.6C119.2,70.9,120.7,70.7,122.5,70.7z"/>
	</g>
	<g id="XMLID_130_">
		<g id="XMLID_134_">
			<path id="XMLID_136_" class="st8" d="M527.5,75.6c-0.4-0.2-0.8-0.5-1-0.9c-0.3-0.5-0.3-1,0.1-1.5c0.3-0.5,1-0.9,2-1.2
				c0.5-0.1,1-0.2,1.5-0.2c1.7-0.1,3,0.1,4,0.5l0,2.5c-0.6,0.1-1,0.2-1.3,0.3c-1,0.6-1.8,0.9-2.5,1
				C529.4,76.1,528.4,75.9,527.5,75.6z"/>
			<path id="XMLID_135_" class="st8" d="M534.9,74.7l0.2-2.5l1,0c0.7,0,1.2,0.2,1.5,0.4c0.4,0.3,0.6,0.7,0.6,1.1
				c0,0.4-0.2,0.8-0.7,1.2c-0.4,0.3-1,0.4-1.8,0.2L534.9,74.7z"/>
		</g>
		<g id="XMLID_131_">
			<path id="XMLID_133_" class="st8" d="M543.1,82.6c-1.9-0.1-3.1-0.6-3.6-1.4c-0.4-0.5-0.4-1.1-0.1-1.6c0.2-0.4,0.5-0.7,1-0.9
				c1-0.3,2-0.5,2.8-0.4c0.7,0.1,1.5,0.4,2.5,1c0.3,0.1,0.7,0.2,1.3,0.3l0.1,2.5C546.2,82.6,544.8,82.7,543.1,82.6z"/>
			<path id="XMLID_132_" class="st8" d="M547.9,79.6l1-0.3c0.7-0.2,1.3-0.1,1.8,0.2c0.5,0.3,0.7,0.7,0.7,1.2c0,0.4-0.2,0.8-0.6,1.1
				c-0.3,0.3-0.8,0.4-1.5,0.4l-1,0L547.9,79.6z"/>
		</g>
	</g>
	<path id="XMLID_129_" class="st6" d="M506.8,92c0,0.7-0.5,1.2-1.5,1.7c-1,0.5-2.2,0.7-3.6,0.7c-1.4,0-2.6-0.2-3.6-0.7
		c-1-0.5-1.5-1-1.5-1.7c0-0.6,0.5-1.2,1.5-1.6c1-0.5,2.2-0.7,3.6-0.7s2.6,0.2,3.6,0.7C506.3,90.8,506.8,91.3,506.8,92z"/>
	<path id="XMLID_128_" class="st11" d="M512.1,84.2c0,0.5-0.2,0.9-0.7,1.2c-0.4,0.3-1,0.5-1.6,0.5c-0.6,0-1.1-0.2-1.6-0.5
		c-0.5-0.4-0.7-0.8-0.7-1.2c0-0.5,0.2-0.9,0.7-1.2c0.4-0.3,1-0.5,1.6-0.5c0.6,0,1.2,0.2,1.6,0.5C511.9,83.4,512.1,83.8,512.1,84.2z"
		/>
	<g id="XMLID_120_">
		<path id="XMLID_127_" class="st12" d="M558.9,55.9c0.3,0.1,0.3,0.3,0.2,0.5l-1.9,5.3c-0.1,0.3-0.3,0.4-0.6,0.2l-4.2-2.9
			c-0.1-0.1-0.2-0.2-0.1-0.4L554,54c0.1-0.3,0.2-0.4,0.5-0.3L558.9,55.9z"/>
		<path id="XMLID_126_" class="st13" d="M569.2,33.6c0.2,0.1,0.3,0.2,0.2,0.4l-1.9,5.4l-3.2-1.5c-0.2-0.1-0.3,0-0.5,0.2l-1.3,3.7
			l-5.2-1.8l1.6-4.5c0.1-0.3,0-0.4-0.3-0.4l-0.9-0.3l1.1-3.2c0.1-0.2,0.2-0.3,0.5-0.2L569.2,33.6z"/>
		<path id="XMLID_125_" class="st14" d="M572,41.5c0.2,0.1,0.3,0.3,0.2,0.5l-2.8,8c-0.1,0.2-0.3,0.3-0.5,0.2l-3.5-0.8l0.7-1.8
			c0.1-0.2,0-0.4-0.2-0.5l-4.5-1.6l1.3-3.8l3.2,1.1c0.2,0.1,0.4,0,0.5-0.2l1.2-3.2L572,41.5z"/>
		<path id="XMLID_124_" class="st15" d="M567.6,39.4l-1.2,3.2c-0.1,0.2-0.2,0.3-0.5,0.2l-3.2-1.1l1.3-3.7c0.1-0.2,0.3-0.3,0.5-0.2
			L567.6,39.4z"/>
		<path id="XMLID_123_" class="st16" d="M560.6,47.8c-0.1,0.3,0,0.4,0.2,0.4l4.6,1.1l-1.6,4.6c-0.1,0.2-0.3,0.3-0.5,0.2l-7-0.9
			c-0.2-0.1-0.3-0.2-0.2-0.5l2.8-7.8c0.1-0.3,0.2-0.3,0.5-0.2l2,0.7L560.6,47.8z"/>
		<path id="XMLID_122_" class="st17" d="M565.8,47.2c0.2,0.1,0.3,0.2,0.2,0.5l-0.7,1.8l-4.7-1.1c-0.2-0.1-0.3-0.2-0.2-0.4l0.8-2.2
			L565.8,47.2z"/>
		<path id="XMLID_121_" class="st18" d="M558.8,35.1c0.3,0,0.4,0.1,0.3,0.4l-3.1,8.7c-0.1,0.2-0.2,0.3-0.5,0.2l-5.4-2.7
			c-0.2-0.1-0.3-0.3-0.2-0.5l2.7-7.5c0.1-0.2,0.2-0.3,0.5-0.2L558.8,35.1z"/>
	</g>
	<path id="XMLID_119_" class="st14" d="M464.5,34.5c0.2,0.1,0.3,0.3,0.2,0.5l-1.8,5.2c-0.1,0.3-0.3,0.4-0.6,0.2l-4.1-2.8
		c-0.1-0.1-0.2-0.2-0.2-0.5l1.6-4.5c0.1-0.3,0.2-0.4,0.5-0.2L464.5,34.5z"/>
	<g id="XMLID_22_">
		<g id="XMLID_88_">
			<g id="XMLID_116_">
				<path id="XMLID_118_" class="st19" d="M502.7,51.6c-0.1,0.6-0.3,1.1-0.6,1.5c0,0.1-0.1,0.2-0.1,0.2c-0.3,0.5-0.7,0.9-1.2,1.3
					c-0.4-0.5-0.9-0.9-1.6-1.4c-0.1-0.4-0.1-0.8-0.1-1.1c0-1.4,0.7-2.6,1.9-3.5L502.7,51.6z"/>
				<path id="XMLID_117_" class="st20" d="M502.7,51.6l1.2,2.1c-0.1,1-0.9,1.8-2.4,2.3c-0.1-0.3-0.2-0.6-0.4-0.9
					c-0.1-0.1-0.2-0.3-0.4-0.4c0.5-0.4,0.9-0.8,1.2-1.3c0-0.1,0.1-0.2,0.1-0.2C502.4,52.6,502.6,52.1,502.7,51.6z"/>
			</g>
			<g id="XMLID_111_">
				<path id="XMLID_115_" class="st20" d="M499.1,55c-0.1,0.1-0.2,0.2-0.3,0.3c-0.6,0.6-1.1,1.1-1.6,1.5l-0.1,0.1
					c-0.1,0-0.1,0.1-0.1,0.1c-0.5,0.4-1,0.7-1.4,0.8c-0.8,0.3-1.8-0.1-3.1-1.3c-0.6-0.6-1.1-1.1-1.6-1.7c-0.2-0.3-0.4-0.5-0.6-0.8
					c-0.1-0.2-0.3-0.4-0.4-0.6c-0.1-0.2-0.3-0.4-0.4-0.6l-1-1.8c0.3-0.1,0.5-0.3,0.5-0.6l-1.8-0.4c0.4-0.5,0.8-1,1-1.5
					c0-0.1,0-0.1,0.1-0.2c0-0.1,0.1-0.2,0.1-0.3c0-0.1,0.1-0.3,0.1-0.4c0.1-0.4,0-0.8-0.1-1.3c-0.1-0.2-0.1-0.4-0.2-0.6
					c-0.1-0.2-0.2-0.4-0.3-0.7c-0.2-0.5-0.5-1-0.8-1.5c-0.3-1.6-0.2-3.2,0.3-4.8c0.8,0.9,1.6,1.8,2.5,2.6c2,1.7,4.3,3.1,7,4
					l-0.5-1.1c1.2,0.4,2.2,1,3,1.7l0.4,1.7c0.3,1.1,0.4,2.2,0.4,3.1c0,0.6-0.1,1.1-0.2,1.6C499.9,53.4,499.6,54.2,499.1,55z"/>
				<path id="XMLID_112_" class="st19" d="M487.2,43.6c0-0.1-0.1-0.1-0.1-0.2c0-0.1-0.1-0.1-0.1-0.2c-0.1-0.1-0.2-0.3-0.2-0.4
					c-0.4-2.2-0.4-4.3,0.1-6.4c0.3-0.8,0.6-1.5,1-2.3c1.6-2.7,3.9-4.5,6.9-5.3c3-0.8,5.9-0.4,8.6,1.1c2.7,1.6,4.5,3.9,5.3,6.9
					c0.8,3,0.4,5.9-1.1,8.6c-1.5,2.6-3.7,4.3-6.5,5.2c-0.1,0.6-0.2,1.1-0.4,1.7c-0.3,1-0.9,1.8-1.5,2.6c0.5-0.8,0.8-1.6,1-2.5
					c0.1-0.5,0.2-1,0.2-1.6c0-1-0.1-2-0.4-3.1l-0.4-1.7c-0.7-0.8-1.7-1.3-3-1.7l0.5,1.1c-2.6-0.9-4.9-2.3-7-4
					c-0.9-0.8-1.8-1.6-2.5-2.6C487.1,40.4,487,42,487.2,43.6z M488.6,51.1c-0.5-0.2-0.9-0.5-1.3-1l1.8,0.4
					C489.1,50.8,488.9,51,488.6,51.1z"/>
			</g>
			<g id="XMLID_107_">
				<path id="XMLID_110_" class="st10" d="M492.4,44.7c0.2,0.8,0.2,1.4,0.1,1.8c0,0,0,0.1,0,0.1c-0.2,0.4-0.4,0.7-0.7,1
					c-0.5,0.5-1.1,1-1.7,1.3c-0.7-1.6-1.2-3.3-1.5-5.1c0.1,0,0.1,0,0.2,0c0,0,0.1,0,0.1,0c0.8-0.1,1.7,0.1,2.7,0.6
					C491.8,44.4,492.1,44.5,492.4,44.7z"/>
				<path id="XMLID_109_" class="st21" d="M488.5,43.3c0.8-0.4,1.8-0.3,3,0.2c0.2,0.1,0.4,0.2,0.6,0.3c0.1,0.3,0.2,0.7,0.2,1
					c-0.3-0.1-0.5-0.3-0.8-0.4c-1-0.4-1.9-0.6-2.7-0.6c0,0-0.1,0-0.1,0c0,0-0.1,0-0.2,0C488.5,43.6,488.5,43.4,488.5,43.3z"/>
				<path id="XMLID_108_" class="st22" d="M492.5,46.5c0.1-0.5,0-1.1-0.1-1.8c0-0.3-0.1-0.6-0.2-1c-0.2-0.1-0.4-0.2-0.6-0.3
					c-1.2-0.5-2.2-0.6-3-0.2c0,0,0,0,0,0l-0.5-0.5c0.5-0.2,1-0.3,1.4-0.3c0.8,0,1.6,0.1,2.5,0.5c0.2,0.1,0.5,0.2,0.7,0.3
					C492.8,44.6,492.8,45.6,492.5,46.5z"/>
			</g>
			<path id="XMLID_106_" class="st10" d="M489.6,44.8c-0.1,0.1-0.1,0.2-0.2,0.2c-0.1,0-0.2-0.1-0.2-0.2c-0.1-0.1-0.1-0.3-0.1-0.5
				c0-0.2,0-0.3,0.1-0.5c0.1-0.1,0.1-0.2,0.2-0.2c0.1,0,0.2,0.1,0.2,0.2c0.1,0.1,0.1,0.3,0.1,0.5C489.7,44.5,489.6,44.6,489.6,44.8z
				"/>
			<path id="XMLID_105_" class="st23" d="M488.9,42.7c-0.2,0.1-0.4,0.2-0.5,0.3c-0.3,0.2-0.6,0.4-1,0.7c0,0,0,0,0,0l-1-0.9
				c1.4-1.5,2.9-2.6,4.6-3.5c0,0,0.1,0.1,0.1,0.1c0.5,0.4,0.9,1,1.3,1.7c-0.2,0.1-0.4,0.1-0.6,0.2C490.8,41.7,489.8,42.2,488.9,42.7
				z"/>
			<path id="XMLID_104_" class="st24" d="M492.9,52.5l0.4,0.2c-0.5,0.9-1.3,1.5-2.2,1.6l-0.3-0.3C491.9,53.7,492.7,53.2,492.9,52.5z
				"/>
			<g id="XMLID_97_">
				<path id="XMLID_103_" class="st10" d="M490.2,47c0,0.1-0.1,0.2-0.2,0.2c-0.1,0-0.2,0-0.3-0.1c0,0,0,0,0,0
					c-0.1-0.1-0.2-0.2-0.2-0.4c0-0.2-0.1-0.3,0-0.5c0.1-0.1,0.2-0.2,0.3-0.2c0.1,0,0.2,0,0.3,0.1c0.1,0.1,0.2,0.2,0.2,0.4
					C490.2,46.7,490.2,46.8,490.2,47L490.2,47z"/>
				<path id="XMLID_100_" class="st25" d="M491.3,49.3c0,0.1,0.1,0.2,0.2,0.3c0.2,0.2,0.3,0.2,0.4,0.2c0.1,0,0.2-0.1,0.2-0.3
					c0-0.2,0-0.3-0.1-0.6c0-0.2-0.1-0.4-0.3-0.5c-0.1-0.1-0.2-0.2-0.4-0.2c-0.1,0-0.1,0-0.2,0.1c-0.1-0.2-0.2-0.4-0.3-0.6
					c-0.2-0.4-0.4-0.6-0.6-0.9c0,0-0.1-0.1-0.1-0.1l0,0c0-0.1,0-0.3,0-0.4c0-0.2-0.1-0.3-0.2-0.4c-0.1-0.1-0.2-0.1-0.3-0.1
					c-0.1,0-0.2,0.1-0.3,0.2c0,0.1,0,0.3,0,0.5c0,0.2,0.1,0.3,0.2,0.4c0,0,0,0,0,0c0,0.1,0,0.2,0,0.3c0.1,0.3,0.2,0.6,0.4,1
					c0.2,0.3,0.4,0.6,0.6,0.8C490.9,49.3,491.1,49.4,491.3,49.3C491.2,49.3,491.2,49.3,491.3,49.3z M490.3,46
					c0.4,0.3,0.8,0.8,1.2,1.5c0.4,0.6,0.6,1.2,0.7,1.7c0.1,0.5,0.1,0.8-0.1,1c-0.2,0.1-0.5,0-0.9-0.4c-0.4-0.4-0.8-0.9-1.2-1.5
					c-0.4-0.7-0.6-1.2-0.7-1.7c-0.1-0.5-0.1-0.9,0-1C489.6,45.5,489.9,45.6,490.3,46z"/>
				<path id="XMLID_99_" class="st26" d="M491.3,49.3c0,0,0-0.1-0.1-0.1c-0.1-0.2-0.1-0.4-0.1-0.5c0,0,0-0.1,0.1-0.1
					c0-0.1,0.1-0.1,0.2-0.1c0.1,0,0.2,0,0.4,0.2c0.2,0.1,0.3,0.3,0.3,0.5c0.1,0.2,0.1,0.4,0.1,0.6c0,0.1-0.1,0.2-0.2,0.3
					c-0.1,0-0.3-0.1-0.4-0.2C491.4,49.5,491.3,49.4,491.3,49.3z"/>
				<path id="XMLID_98_" class="st27" d="M491.2,48.5c0,0,0,0.1-0.1,0.1c0,0.1,0,0.3,0.1,0.5c0,0,0,0.1,0.1,0.1c0,0,0,0-0.1,0
					c-0.1,0.1-0.2,0-0.5-0.2c-0.2-0.2-0.4-0.5-0.6-0.8c-0.2-0.4-0.3-0.7-0.4-1c0-0.1,0-0.2,0-0.3c0.1,0.1,0.2,0.1,0.3,0.1
					c0.1,0,0.2-0.1,0.2-0.2c0,0,0,0.1,0.1,0.1c0.2,0.2,0.4,0.5,0.6,0.9C491,48.1,491.1,48.3,491.2,48.5z"/>
			</g>
			<g id="XMLID_93_">
				<path id="XMLID_96_" class="st28" d="M482.3,37.4c0.2-1.7,0.7-3.3,1.7-4.6c-1.3,1-3,1.3-5.1,0.7c1.9,0,3.7-0.6,5.5-1.8
					c0.1-0.1,0.2-0.1,0.3-0.2c2.8-3.6,6.8-5.6,12-6.1c0.1,0,0.2,0,0.3,0c0.3,0,0.6-0.1,0.9-0.1c1.3,0,2.5,0.1,3.5,0.4
					c0.2,0,0.4,0.1,0.6,0.2c0.1,0,0.2,0.1,0.3,0.1c0.6,0.2,1.1,0.5,1.6,0.7c1.8,1,3.2,2.4,4.4,4.3c0,0,0,0,0,0.1
					c0.1,0.1,0.1,0.2,0.2,0.3c0.4,0.8,0.6,1.5,0.6,2.2c0,1.4-1.1,2.6-3.1,3.4c-0.1,0.1-0.3,0.1-0.4,0.2c0,0-0.1,0-0.1,0.1
					c-0.8,0.3-1.6,0.5-2.4,0.7c-6.2,1.6-11.4,1.2-15.6-1.5c-1.6,2.7-2.3,4.8-2.2,6.3C483.9,41.4,482.9,39.6,482.3,37.4z"/>
				<path id="XMLID_95_" class="st29" d="M508.6,31.4c0.3,0.6,0.7,1.3,0.9,2.1c0.1,0.2,0.1,0.4,0.2,0.6c0.4,1.4,0.6,2.7,0.5,4
					c-0.1,2.4-0.9,4.6-2.4,6.8c0,0,0,0,0,0c-0.8,1.5-0.9,3.4-0.4,5.5c-0.5-0.5-0.9-1.1-1.3-1.8c0-0.1-0.1-0.1-0.1-0.2
					c-0.3,2-1.6,3.9-3.6,5.6c0.1-1.3-0.2-2.6-0.8-4c-0.1,0.5-0.3,0.9-0.6,1.3c0-0.7,0-1.4-0.2-2.2c-0.2-0.9-0.4-1.6-0.7-2.3
					c-0.4-0.9-0.9-1.6-1.5-2.3c-0.8-0.3-1.6-0.7-2.4-1.1c-0.3-0.2-0.5-0.3-0.8-0.5l1,1.8c-3.6-2-6.7-4.4-9.2-7.1
					c-0.9,2.7-1,5.3-0.3,7.6c0,0.1,0,0.2,0.1,0.2c-0.4-0.3-0.8-0.7-1.1-1.5c0.2,1.3,0.7,2.4,1.2,3.4c-1.4-1-2.5-2.5-3.3-4.5
					c0.3,1.2,0.2,2.1-0.4,2.9c0.1-0.5,0.1-1.1,0-1.7c0-0.1-0.1-0.2-0.1-0.3l0,0c-0.8-2.4-1.1-4.5-0.9-6.4c0.6,2.3,1.5,4.1,2.9,5.4
					c-0.2-1.5,0.6-3.6,2.2-6.3c4.3,2.6,9.5,3.1,15.6,1.5c0.8-0.2,1.6-0.5,2.4-0.7c0,0,0.1,0,0.1-0.1c0.1-0.1,0.3-0.1,0.4-0.2
					c2-0.8,3.1-2,3.1-3.4C509.2,32.9,509,32.2,508.6,31.4z"/>
				<path id="XMLID_94_" class="st30" d="M508.6,31.4c-0.1-0.1-0.1-0.2-0.2-0.3c0,0,0,0,0-0.1"/>
			</g>
			<g id="XMLID_90_">
				<path id="XMLID_92_" class="st20" d="M498.8,42.3c-0.1-0.3-0.1-0.6-0.2-0.9c0.7-1.1,1.5-1.3,2.5-0.8c0.8,0.5,1.2,1.3,1.3,2.5
					c0,0.2,0,0.4,0,0.6c-0.3,2.3-1.2,3.6-2.8,3.9c0-0.6-0.1-1.2-0.1-1.8c0.6-0.1,1.2-0.5,1.5-1.1c0.3-0.6,0.3-1.1-0.1-1.7
					c-0.4-0.4-1-0.5-1.6-0.2c0.2-0.5,0.5-0.7,0.9-0.8c0.6-0.2,1.1,0,1.6,0.6c-0.1-0.9-0.6-1.4-1.4-1.6
					C499.7,41.2,499.2,41.5,498.8,42.3z"/>
				<path id="XMLID_91_" class="st19" d="M499.4,46c-0.1-1.2-0.3-2.4-0.7-3.7c0.4-0.8,1-1.1,1.6-1.2c0.8,0.1,1.3,0.6,1.4,1.6
					c-0.5-0.6-1-0.8-1.6-0.6c-0.4,0.1-0.7,0.4-0.9,0.8c0.7-0.3,1.2-0.2,1.6,0.2c0.4,0.6,0.4,1.2,0.1,1.7
					C500.6,45.5,500.1,45.8,499.4,46z"/>
			</g>
			<path id="XMLID_89_" class="st20" d="M492.5,46.6c1.1,1.5,1.2,2.8,0.3,3.9c-1,0.4-1.8-0.1-2.6-1.6c0.6-0.3,1.2-0.7,1.7-1.3
				C492,47.3,492.3,46.9,492.5,46.6z"/>
		</g>
		<g id="XMLID_24_">
			<g id="XMLID_73_">
				<g id="XMLID_85_">
					<path id="XMLID_87_" class="st31" d="M503.2,74.1c0.8,0.4,1.5,0.6,2.3,0.6c0.1,1.1,0.1,2.2,0.1,3.2c-0.5,0.6-1.1,0.6-1.7,0.2
						L503.2,74.1z"/>
					<path id="XMLID_86_" class="st32" d="M503.2,74.1l-0.2-1c0.8-0.5,1.5-0.6,2.3-0.1c0.1,0.6,0.1,1.2,0.1,1.8
						C504.7,74.7,504,74.5,503.2,74.1z"/>
				</g>
				<g id="XMLID_82_">
					<path id="XMLID_84_" class="st33" d="M509.6,84.3c0.6-0.4,1.1-0.8,1.5-1.3l1.7,1.9c-0.4,0.7-1,1.2-1.7,1.4l-1-1.4
						C509.9,84.6,509.8,84.4,509.6,84.3z"/>
					<path id="XMLID_83_" class="st31" d="M511.1,83c-0.4,0.5-0.9,0.9-1.5,1.3c-1.6-1.9-3.3-3.7-5.1-5.6c0,0,0,0-0.1,0l-0.2-0.2
						c-0.1-0.1-0.3-0.3-0.4-0.4c0.1-0.6,0.5-1,1.2-1.2c0.8,0.4,1.6,0.9,2.3,1.6C508.6,79.7,509.9,81.3,511.1,83z"/>
				</g>
				<g id="XMLID_74_">
					<path id="XMLID_81_" class="st34" d="M514,85.3l-3.2,4c-0.6,0.6-1.3,1.1-2.1,1.6l-0.8-0.1c-0.1-0.4,0-0.7,0.1-1.1
						c0.7-0.6,1.2-1,1.4-1.4c0.2-0.3,0.3-0.5,0.3-0.6c0.2,0,0.4,0.1,0.6,0.3c0.2-0.1,0.3-0.2,0.3-0.4c-0.2-0.2-0.4-0.3-0.7-0.4
						c0-0.1,0-0.1,0.1-0.2c0.3,0.1,0.5,0.2,0.7,0.3c0.2-0.1,0.2-0.2,0.2-0.4c-0.3-0.1-0.5-0.2-0.8-0.3c0-0.1,0-0.1,0-0.2
						c0.3,0,0.6,0.1,0.9,0.2c0.2-0.2,0.2-0.3,0.1-0.4c-0.3-0.1-0.6-0.2-1-0.2c0-0.1,0-0.1,0-0.2c0.4,0,0.7,0,1,0.2
						c0.1-0.1,0.1-0.2,0-0.3c-0.4-0.2-0.7-0.2-1.1-0.2c0-0.2-0.1-0.3-0.1-0.5c0.4-0.2,0.8-0.1,1.2,0.2c0,0,0,0,0.1,0.1
						c0.3,0.2,0.6,0.2,0.8,0c0.2-0.1,0.2-0.3,0.2-0.6c-0.1-0.3-0.2-0.5-0.4-0.8c-0.1-0.1-0.2-0.3-0.1-0.4
						C512.7,84.1,513.4,84.6,514,85.3z"/>
					<path id="XMLID_76_" class="st35" d="M510.2,86.3c0.3,0,0.7,0.1,1,0.2c0.1,0.1,0,0.3-0.1,0.4c-0.3-0.1-0.6-0.2-0.9-0.2
						C510.1,86.5,510.1,86.4,510.2,86.3z M510.2,86.1c-0.1-0.1-0.1-0.2,0-0.3c0.4,0,0.7,0,1.1,0.2c0.1,0.1,0.1,0.3,0,0.3
						C510.9,86.1,510.5,86,510.2,86.1z M509.9,87.4c0.3,0.1,0.5,0.2,0.7,0.4c0,0.2-0.1,0.3-0.3,0.4c-0.2-0.2-0.4-0.3-0.6-0.3
						C509.7,87.6,509.8,87.5,509.9,87.4z M510,87.2c0-0.2,0-0.3,0.1-0.3c0.3,0,0.6,0.1,0.8,0.3c0,0.2,0,0.3-0.2,0.4
						C510.5,87.4,510.3,87.3,510,87.2z"/>
					<path id="XMLID_75_" class="st36" d="M514,85.3l0.8,0.6l-3.8,3.6c-0.8,0.6-1.5,1.2-2.2,1.6L508,91c0-0.1,0-0.1,0-0.2l0.8,0.1
						c0.8-0.5,1.5-1,2.1-1.6L514,85.3z"/>
				</g>
			</g>
			<path id="XMLID_72_" class="st37" d="M506.8,69.7l0.8,2.6c-0.3,0.2-0.6,0.5-1,0.7c-0.9,0.5-1.5,0.7-1.8,0.8
				c-0.3,0.1-0.7,0.1-1.1,0.2c-0.4,0-1.2,0.1-2.2,0l-0.5-3.3c1.5-0.7,3.1-1.1,4.8-1C506.2,69.6,506.5,69.6,506.8,69.7L506.8,69.7z"
				/>
			<g id="XMLID_69_">
				<path id="XMLID_71_" class="st19" d="M502.7,74.3l-0.2-1c0.8-0.5,1.5-0.6,2.3-0.1c0,0.6,0.1,1.2,0.1,1.8
					C504.2,74.9,503.5,74.7,502.7,74.3z"/>
				<path id="XMLID_70_" class="st20" d="M502.7,74.3c0.8,0.4,1.5,0.6,2.3,0.6c0.1,1.1,0.1,2.1,0.1,3.2c-0.5,0.6-1.1,0.6-1.7,0.2
					L502.7,74.3z"/>
			</g>
			<g id="XMLID_66_">
				<path id="XMLID_68_" class="st10" d="M503.6,86.7c0.7,0.1,1.3,0.1,1.9,0l0,2.5c-0.8,0.3-1.5,0.2-2.2-0.1l0.2-1.7
					C503.6,87.2,503.6,86.9,503.6,86.7z"/>
				<path id="XMLID_67_" class="st20" d="M505.5,86.7c-0.6,0.1-1.2,0.1-1.9,0c0-2.5,0-5-0.1-7.6c0,0,0,0,0-0.1v-0.3
					c0-0.2,0-0.4,0-0.6c0.5-0.3,1.1-0.4,1.7-0.1c0.4,0.8,0.6,1.7,0.7,2.7C505.9,82.6,505.8,84.6,505.5,86.7z"/>
			</g>
			<g id="XMLID_62_">
				<path id="XMLID_65_" class="st38" d="M502.6,73.7c-0.1,0-0.3,0-0.5,0c0,0,0,0-0.1,0c-0.2,0-0.5-0.1-0.8-0.1l-0.5-7
					c0.4,0,0.8,0.1,1.1,0.1c0.3,1.6,1.1,2.4,2.4,2.3l0.4,4.3C503.9,73.5,503.2,73.6,502.6,73.7L502.6,73.7z"/>
				<path id="XMLID_64_" class="st39" d="M506.2,66.6c-0.2,0.1-0.4,0.2-0.5,0.3c0.2,0.8,0.4,1.5,0.4,2.3c0.2,0.3,0.4,0.5,0.6,0.5
					v0.1l0.5,2.7c-0.3,0.2-0.6,0.4-1,0.6c-0.9,0.4-1.5,0.6-1.8,0.6c-0.3,0-0.7,0-1.1,0c-0.2,0-0.4,0-0.8,0v-0.1c0.6,0,1.3-0.1,2-0.4
					l-0.4-4.3c-1.2,0.1-2-0.7-2.4-2.3c-0.3,0-0.7,0-1.1-0.1l-0.1-0.9c1.7,0,3.4,0.1,5.1,0.1c0.1,0.1,0.1,0.2,0.2,0.3
					C506,66.2,506.1,66.4,506.2,66.6z"/>
				<path id="XMLID_63_" class="st40" d="M506.2,66.6c0.3,0.7,0.5,1.5,0.5,2.2c0,0,0,0,0,0v0.8c-0.2,0-0.4-0.2-0.6-0.5
					c0-0.8-0.1-1.5-0.4-2.3C505.8,66.8,506,66.7,506.2,66.6z"/>
			</g>
			<path id="XMLID_61_" class="st41" d="M500.9,63.3c-1.9,0-3.7-0.1-5.4-0.4c-0.2-0.8,0-1.4,0.5-1.9c1.6,0.2,3.2,0.5,4.8,0.9
				C501.2,62.4,501.2,62.9,500.9,63.3z"/>
			<g id="XMLID_55_">
				<g id="XMLID_56_">
					<path id="XMLID_60_" class="st42" d="M501.3,56l-0.2-0.3c0.4-0.5,0.7-0.8,1.1-1.1c0.4-0.3,0.9-0.5,1.5-0.8c0,0,0.1,0,0.2-0.1
						l0.7,0.9c-0.6,0.2-1.2,0.5-1.6,0.9c-0.4,0.4-0.8,0.8-1.1,1.4L501.3,56z"/>
					<polygon id="XMLID_59_" class="st39" points="501.1,55.7 501.3,56 500.8,57.1 500.5,57.2 					"/>
					<path id="XMLID_58_" class="st10" d="M500.3,58.8h0.4l0.1-1.6l0.6-1.1l0.6,0.9c0.3-0.5,0.7-1,1.1-1.4c0.4-0.4,1-0.7,1.6-0.9
						c0.4,0.7,0.8,1.4,1,2.2c0.6,1.8,0.5,4.1-0.1,6.9c0,0.1-0.1,0.3-0.1,0.5l0.8,2c-0.5,0.2-1,0.3-1.5,0.4c-1.4,0.3-2.9,0.3-4.5,0.1
						c0.3-1.4,0.4-3,0.4-4.6c0-1-0.1-2.1-0.2-3.2C500.3,58.8,500.3,58.8,500.3,58.8z"/>
					<polygon id="XMLID_57_" class="st43" points="500.8,57.1 500.7,58.8 500.3,58.8 500.3,58.7 500.5,57.2 					"/>
				</g>
			</g>
			<g id="XMLID_52_">
				<path id="XMLID_54_" class="st19" d="M501,60.3l0.7-1.5c0.5-0.2,0.9,0,1.2,0.5c-0.2,0.6-0.5,1.2-0.7,1.8L501,60.3z"/>
				<path id="XMLID_53_" class="st20" d="M502.1,61.1c-0.3,0.7-0.6,1.4-0.9,2.1c-0.5-0.1-0.9-0.4-1.2-0.8l1-2.1L502.1,61.1z"/>
			</g>
			<g id="XMLID_49_">
				<path id="XMLID_51_" class="st44" d="M510.1,56.3c0.9,0.7,1.5,1.7,1.6,2.8l0.9,7.3c0.1,0.4-0.1,0.8-0.3,1.1
					c-0.3,0.3-0.6,0.5-1,0.5l-3.7,0.5c-1,0.1-1.5-0.3-1.7-1.3l-1.3-10.1c0-0.4,0.1-0.7,0.3-1.1c0.3-0.3,0.6-0.4,1-0.5l1-0.1
					C508.1,55.2,509.2,55.5,510.1,56.3z"/>
				<path id="XMLID_50_" class="st45" d="M503.8,58.1c-0.5,1.5-0.3,3.1,0.7,4.7c0.6,0.8,1.2,1.5,2,2l0.3,2.5c-1.7-0.8-3-1.9-4-3.4
					c-1.3-2.2-1.7-4.3-1-6.4c0.5-1.7,1.4-2.7,2.6-3.1c1.3-0.4,2.7-0.1,4.2,1l-1.2,1.5c-1-0.6-1.8-0.8-2.4-0.7
					C504.4,56.5,504,57.1,503.8,58.1z"/>
			</g>
			<path id="XMLID_48_" class="st46" d="M511,55.6c0.8,0.6,1.2,1.4,1.3,2.4l0.1,0.8c0.1,0.7-0.2,1.1-0.9,1.2l-4.5,0.6
				c-0.7,0.1-1.1-0.2-1.2-0.9l-0.4-3.4c-0.1-0.7,0.2-1.1,1-1.2l1.9-0.2C509.2,54.7,510.2,55,511,55.6z"/>
			<g id="XMLID_45_">
				<path id="XMLID_47_" class="st47" d="M501.1,59.3l1.7-2.9c0.5-0.7,1.1-1,1.8-0.8c0.6,0.4,0.8,0.9,0.7,1.6l-1.1,3l0,0
					C503.1,60.2,502.1,59.9,501.1,59.3z"/>
				<path id="XMLID_46_" class="st39" d="M501.1,59.3c1,0.6,2,0.9,3,1l0,0l-0.2,0.7c-0.9,0-1.9-0.4-3.1-1.1L501.1,59.3z"/>
			</g>
			<path id="XMLID_44_" class="st20" d="M501.1,63.4c-1.9-0.2-3.7-0.5-5.3-0.9c-0.1-0.8,0.1-1.4,0.7-1.8c1.6,0.3,3.1,0.8,4.7,1.3
				C501.5,62.5,501.5,63,501.1,63.4z"/>
			<g id="XMLID_36_">
				<path id="XMLID_43_" class="st44" d="M506.3,90.3l-5.1,0.9c-0.8,0-1.7,0-2.6-0.2l-0.6-0.6c0.2-0.3,0.5-0.6,0.7-0.8
					c0.9,0.1,1.6,0,2-0.1c0.4-0.1,0.6-0.2,0.6-0.2c0.1,0.1,0.2,0.3,0.3,0.6c0.2,0.1,0.3,0,0.4-0.1c0-0.3-0.1-0.5-0.3-0.7
					c0.1,0,0.1-0.1,0.2-0.1c0.2,0.2,0.3,0.5,0.4,0.7c0.2,0,0.3,0,0.4-0.2c-0.1-0.3-0.3-0.5-0.5-0.8c0.1,0,0.1-0.1,0.2-0.1
					c0.2,0.2,0.4,0.5,0.5,0.8c0.2,0,0.3-0.1,0.4-0.2c-0.2-0.3-0.4-0.5-0.6-0.8c0.1-0.1,0.1-0.1,0.1-0.2c0.3,0.2,0.5,0.5,0.6,0.8
					c0.1,0,0.2,0,0.3-0.2c-0.2-0.4-0.4-0.6-0.7-0.8c0.1-0.1,0.2-0.3,0.2-0.4c0.4,0.1,0.7,0.5,0.8,0.9c0,0,0,0.1,0,0.1
					c0.2,0.3,0.3,0.5,0.6,0.6c0.2,0,0.4-0.1,0.5-0.3c0.1-0.3,0.2-0.5,0.2-0.8c0-0.2,0-0.3,0.2-0.4C506,88.5,506.2,89.4,506.3,90.3z"
					/>
				<path id="XMLID_38_" class="st48" d="M503,88c0.3,0.2,0.5,0.5,0.7,0.8c0,0.2-0.1,0.2-0.3,0.2c-0.1-0.3-0.4-0.6-0.6-0.8
					C502.8,88.2,502.9,88.1,503,88z M502.4,88.8c0.1-0.1,0.2-0.2,0.3-0.3c0.2,0.2,0.4,0.5,0.6,0.8c0,0.1-0.1,0.2-0.4,0.2
					C502.8,89.2,502.6,89,502.4,88.8z M501.8,89.2c0.1,0.2,0.2,0.5,0.3,0.7c-0.1,0.1-0.3,0.1-0.4,0.1c-0.1-0.3-0.2-0.5-0.3-0.6
					C501.5,89.2,501.6,89.1,501.8,89.2z M501.9,89.1c0.1-0.1,0.2-0.2,0.3-0.2c0.2,0.2,0.3,0.5,0.5,0.8c-0.1,0.1-0.2,0.2-0.4,0.2
					C502.2,89.5,502.1,89.3,501.9,89.1z"/>
				<path id="XMLID_37_" class="st49" d="M506.3,90.3l0.2,1l-5.3,0.2c-1,0-1.9-0.1-2.7-0.3l-0.6-0.6c0-0.1,0.1-0.1,0.1-0.2l0.6,0.6
					c0.9,0.2,1.8,0.2,2.6,0.2L506.3,90.3z"/>
			</g>
			<g id="XMLID_32_">
				<polygon id="XMLID_35_" class="st50" points="491.7,69.1 483.2,59.2 488.5,54.2 497.6,64.8 				"/>
				<polygon id="XMLID_34_" class="st51" points="491.5,69.2 483.1,59.3 483.2,59.2 491.7,69.1 				"/>
				<polygon id="XMLID_33_" class="st52" points="483.1,59.3 491.5,69.2 491.1,69.5 482.7,59.7 				"/>
			</g>
			<g id="XMLID_25_">
				<path id="XMLID_31_" class="st20" d="M493.3,61.7L493.3,61.7c-0.1,0-0.2-0.1-0.2-0.2c0-0.1,0-0.2,0-0.2c0-0.1,0-0.2-0.1-0.3
					c0-0.1,0-0.2,0.1-0.2c0,0,0,0,0.1,0l0.9-0.3l0.1-0.1l0.1-0.2c-0.4,0.2-0.8,0.2-1.2,0.3c0,0.6-0.1,0.9-0.2,1
					c-0.1,0-0.2,0-0.2-0.1c0,0-0.1-0.1,0-0.3c0,0,0,0,0-0.1c0-0.1,0-0.3,0-0.5v0c0,0,0-0.1,0-0.1c0-0.2,0.1-0.3,0.2-0.4l1.2-0.3
					l0.2-0.2c-0.5,0-0.9,0-1.2,0c-0.1,0.2-0.3,0.4-0.5,0.6c0,0.2,0,0.4,0,0.4c0,0-0.1,0-0.1,0c-0.1,0-0.2-0.1-0.2-0.2
					c0-0.1-0.1-0.2-0.2-0.4c-0.1-0.1,0-0.3,0.1-0.4c0,0,0-0.1,0.1-0.1l0.4-0.5c0,0,0.1-0.1,0.2-0.1c0,0,0,0,0.1,0l1.3,0l-1-0.2
					c-0.4,0.1-0.7,0.1-1.1,0.1c-0.4,0.3-0.6,0.4-0.7,0.3c0,0,0,0,0,0c0-0.1,0-0.3,0.1-0.4l0.2-0.2c0.1-0.1,0.2-0.1,0.3-0.2l1.2-0.1
					l1.5,0.3c0.2,0,0.4,0.2,0.5,0.4c0,0.1,0.1,0.2,0.2,0.3c0.3,0.6,0.7,1.1,1.2,1.7c0.1,0.8-0.1,1.4-0.5,1.8
					c-0.9-0.5-1.5-1.1-1.6-1.9c-0.2,0.2-0.5,0.3-0.8,0.3C493.6,61.4,493.5,61.6,493.3,61.7z"/>
				<path id="XMLID_26_" class="st19" d="M493.3,61.7c0.2,0,0.3-0.2,0.3-0.7c0.3,0,0.5-0.1,0.8-0.3c0.1,0.8,0.7,1.4,1.6,1.9h0
					c-0.8,0-1.3-0.4-1.7-1.2c-0.1-0.1-0.1-0.2-0.1-0.3c-0.1,0.1-0.3,0.2-0.5,0.1C493.7,61.5,493.6,61.6,493.3,61.7
					C493.3,61.7,493.3,61.7,493.3,61.7z M492.7,58.6l-0.7,0.1c-0.3,0.2-0.5,0.2-0.7,0c0.1,0.1,0.3,0,0.7-0.3c0.4,0,0.7,0,1.1-0.1
					l1,0.2L492.7,58.6C492.7,58.6,492.7,58.6,492.7,58.6z M492.5,60.3c0,0-0.1,0-0.1,0c0-0.1,0-0.2,0-0.4c0.2-0.2,0.4-0.4,0.5-0.6
					c0.4,0,0.8,0,1.2,0l-0.2,0.2l-1.1,0.1l-0.1,0.2c-0.2,0.1-0.2,0.2-0.2,0.4C492.5,60.2,492.5,60.3,492.5,60.3L492.5,60.3z
					 M493.1,61.2c-0.1,0.1-0.2,0.1-0.3,0.1c0.1-0.1,0.2-0.4,0.2-1c0.4,0,0.8-0.1,1.2-0.3l-0.1,0.2l-0.9,0.3l-0.1,0.1
					c-0.1,0-0.1,0.1-0.1,0.2C493,61,493,61.1,493.1,61.2z"/>
			</g>
		</g>
		<path id="XMLID_23_" class="st10" d="M502.4,29.5c-16.9,7.3-22.5,7.8-16.6,1.2C483.4,34.3,488.9,33.9,502.4,29.5z"/>
	</g>
	<g id="XMLID_13_">
		<path id="XMLID_14_" class="st13" d="M606.6,29.1l0.6,2.2l2.2-0.7l0.3,1l-2.2,0.7l0.7,2.2l-1,0.3l-0.6-2.2l-2.2,0.6l-0.3-0.9
			l2.2-0.7l-0.6-2.2L606.6,29.1z M600.1,33.5c0.2,0.2,0.4,0.4,0.6,0.5c0.1-0.3,0.2-0.5,0.2-0.8l0.6-1.7l1.2-0.4l-1.2,3.4l3.2,2.5
			l-1.2,0.3l-2.2-1.9l-0.9,2.8l-1.2,0.4l1.2-3.8l-2.9-2.2l1.2-0.4L600.1,33.5z M615.3,27.5l-0.5,6.7c-0.1,0.7-0.2,1.2-0.2,1.5
			c-0.1,0.4-0.2,0.7-0.4,1c-0.2,0.2-0.5,0.3-0.8,0.5c-0.2,0.1-0.4,0.1-0.6,0.1l-0.4-1c0.2,0,0.4,0,0.6,0c0.2-0.1,0.4-0.1,0.5-0.2
			c0.1-0.1,0.2-0.3,0.2-0.5c0-0.1,0.1-0.4,0.1-0.8c0-0.1,0-0.2,0-0.2l-4-5.3l1.1-0.3l2.2,3c0.3,0.4,0.6,0.8,0.8,1.2c0-0.5,0-1,0-1.5
			l0.3-3.8L615.3,27.5z M616.2,27.4l5.5-1.6l0.3,0.9l-5.5,1.6L616.2,27.4z M616.9,29.9l5.5-1.6l0.2,0.9l-5.5,1.6L616.9,29.9z
			 M626.1,23.1c-0.4-0.2-0.8-0.3-1.2-0.2c-0.4,0.1-0.8,0.4-1,0.8c-0.2,0.3-0.3,0.8-0.2,1.4l-1,0.2c-0.1-0.8,0-1.5,0.3-2
			c0.4-0.6,0.9-1,1.7-1.2c0.8-0.2,1.5-0.2,2.1,0.1c0.6,0.3,1,0.8,1.2,1.4c0.1,0.4,0.1,0.7,0,1c-0.1,0.4-0.3,0.8-0.6,1.4
			c-0.2,0.4-0.4,0.7-0.5,0.9c-0.1,0.2-0.1,0.3-0.1,0.5c0,0.2,0.1,0.5,0.2,0.9l-1,0.2c0-0.1-0.1-0.2-0.1-0.3c-0.1-0.4-0.2-0.8-0.2-1
			c0-0.2,0.1-0.5,0.2-0.8c0.1-0.2,0.3-0.5,0.5-0.9c0.3-0.4,0.4-0.8,0.5-1c0-0.2,0-0.5,0-0.7C626.8,23.6,626.6,23.2,626.1,23.1z
			 M627.7,30.3l-1.2,0.3l-0.3-1.2l1.2-0.3L627.7,30.3z"/>
	</g>
	<g id="XMLID_11_">
		<polygon id="XMLID_12_" class="st14" points="592.5,39.3 591.1,39.3 591.1,44.7 590.1,44.7 590.1,39.3 587.5,39.3 587.5,44.7 
			586.4,44.7 586.4,39.3 584.8,39.3 584.8,38.5 592.5,38.5 		"/>
	</g>
	<g id="XMLID_4_">
		<path id="XMLID_5_" class="st2" d="M442.4,40.9l-4.7,9h-0.8l4.7-9H442.4z M436.9,41.7c-0.3,0-0.5,0.1-0.7,0.3
			c-0.2,0.2-0.3,0.6-0.3,1.2c0,0.5,0.1,0.9,0.3,1.2c0.2,0.2,0.4,0.3,0.7,0.3s0.5-0.1,0.6-0.3c0.2-0.2,0.2-0.7,0.2-1.2
			c0-0.6-0.1-1-0.2-1.2C437.3,41.8,437.1,41.7,436.9,41.7z M438.2,41.5c0.3,0.4,0.5,0.9,0.5,1.7c0,0.7-0.2,1.3-0.5,1.7
			c-0.4,0.4-0.8,0.6-1.3,0.6c-0.5,0-0.9-0.2-1.3-0.6c-0.3-0.4-0.5-1-0.5-1.8c0-0.6,0.2-1.1,0.5-1.5c0.3-0.4,0.8-0.7,1.4-0.7
			C437.4,40.9,437.8,41.1,438.2,41.5z M441,46.1c0.3-0.4,0.8-0.6,1.4-0.6c0.5,0,1,0.2,1.3,0.5c0.4,0.4,0.5,1,0.5,1.7
			c0,0.7-0.2,1.3-0.5,1.7c-0.4,0.4-0.8,0.5-1.3,0.5c-0.5,0-0.9-0.2-1.3-0.5c-0.3-0.4-0.5-1-0.5-1.8C440.6,47,440.7,46.5,441,46.1z
			 M441.8,46.5c-0.2,0.2-0.3,0.7-0.3,1.2c0,0.5,0.1,0.9,0.3,1.2c0.2,0.2,0.4,0.3,0.7,0.3s0.5-0.1,0.7-0.3c0.2-0.2,0.2-0.7,0.2-1.2
			c0-0.5-0.1-0.9-0.2-1.2c-0.2-0.2-0.4-0.3-0.7-0.3S442,46.3,441.8,46.5z"/>
	</g>
</g>
</svg>
