<?xml version="1.0" encoding="utf-8"?>
<!-- Generator: Adobe Illustrator 19.0.0, SVG Export Plug-In . SVG Version: 6.00 Build 0)  -->
<svg version="1.1" id="图层_1" xmlns="http://www.w3.org/2000/svg" xmlns:xlink="http://www.w3.org/1999/xlink" x="0px" y="0px"
	 viewBox="392 71 1024 100" style="enable-background:new 392 71 1024 100;" xml:space="preserve">
<style type="text/css">
	.st0{fill:#081842;}
	.st1{fill:url(#SVGID_1_);}
	.st2{fill:url(#SVGID_2_);}
	.st3{fill:#183262;}
	.st4{fill:#0F2142;}
	.st5{fill:#726841;}
	.st6{fill:#8EBB42;}
	.st7{fill:#11264E;}
	.st8{fill:#0B1B33;}
	.st9{fill:#FFFFFF;}
	.st10{fill:#152E5B;}
	.st11{fill:#E17638;}
	.st12{fill:#EB9D3F;}
	.st13{fill:#5FAADB;}
	.st14{fill:#459A57;}
	.st15{fill:#7D848B;}
	.st16{fill:#802A7C;}
	.st17{fill:#DA423E;}
	.st18{fill:#FCB5A0;}
	.st19{fill:#F98E75;}
	.st20{fill:#E9DFDF;}
	.st21{fill:#351504;}
	.st22{fill:#1C1313;}
	.st23{fill:#432A2A;}
	.st24{fill:#4F2006;}
	.st25{fill:#5F2324;}
	.st26{fill:#BD4A4D;}
	.st27{fill:#F08F31;}
	.st28{fill:#51261B;}
	.st29{fill:#853825;}
	.st30{fill:#A66C35;}
	.st31{fill:#C7690E;}
	.st32{fill:#ECAC99;}
	.st33{fill:#E2846E;}
	.st34{fill:#E9E9E9;}
	.st35{fill:#744F2F;}
	.st36{fill:#D6D3D7;}
	.st37{fill:#BBAB9D;}
	.st38{fill:#0B658C;}
	.st39{fill:#CDCDCD;}
	.st40{fill:#37A6D7;}
	.st41{fill:#208CBB;}
	.st42{fill:#8DD2F0;}
	.st43{fill:#1B9ED7;}
	.st44{fill:#835934;}
	.st45{fill:#E6DFE7;}
	.st46{fill:#CBB8A8;}
	.st47{fill:#E2E2E2;}
	.st48{fill:url(#SVGID_3_);}
	.st49{fill:#38727B;}
	.st50{fill:url(#SVGID_4_);}
	.st51{fill:url(#SVGID_5_);}
	.st52{fill:#B25375;}
	.st53{fill:#97496E;}
	.st54{fill:#9E5178;}
	.st55{fill:#773353;}
	.st56{fill:#511C38;}
	.st57{fill:url(#SVGID_6_);}
	.st58{fill:url(#SVGID_7_);}
	.st59{fill:#488E97;}
	.st60{fill:url(#SVGID_8_);}
	.st61{fill:url(#SVGID_9_);}
	.st62{fill:url(#SVGID_10_);}
	.st63{fill:#1E4145;}
	.st64{fill:#A994B2;}
	.st65{fill:#666666;}
	.st66{fill:url(#SVGID_11_);}
	.st67{fill:url(#SVGID_12_);}
	.st68{fill:url(#SVGID_13_);}
	.st69{fill:url(#SVGID_14_);}
	.st70{fill:#FFFF00;}
</style>
<rect id="XMLID_1_" x="392" y="71" class="st0" width="1024" height="100"/>
<g>
	
		<linearGradient id="SVGID_1_" gradientUnits="userSpaceOnUse" x1="793.6371" y1="1110.569" x2="812.355" y2="1110.569" gradientTransform="matrix(1.000000e-04 -1 -1 1.000000e-03 1681.2397 914.4946)">
		<stop  offset="0" style="stop-color:#183262"/>
		<stop  offset="4.705880e-02" style="stop-color:#323C56"/>
		<stop  offset="0.1059" style="stop-color:#4E464A"/>
		<stop  offset="0.1725" style="stop-color:#675041"/>
		<stop  offset="0.2471" style="stop-color:#7B573A"/>
		<stop  offset="0.3333" style="stop-color:#8B5D36"/>
		<stop  offset="0.4392" style="stop-color:#966233"/>
		<stop  offset="0.5922" style="stop-color:#9C6432"/>
		<stop  offset="1" style="stop-color:#9E6532"/>
	</linearGradient>
	<path class="st1" d="M588.7,122l-35.9-0.5c1.1-1.5,2.2-3,3.4-4.7c2.5-3.3,4.7-6,6.7-8.1c3.4-3.6,6.1-5.5,8.1-5.5
		c2.6,0,6.3,3.1,11.2,9.3C584.6,115.7,586.8,118.8,588.7,122z"/>
	
		<linearGradient id="SVGID_2_" gradientUnits="userSpaceOnUse" x1="793.9929" y1="1136.712" x2="820.6682" y2="1136.712" gradientTransform="matrix(0 -1 -1 1.000000e-03 1680.7122 914.4946)">
		<stop  offset="0" style="stop-color:#183262"/>
		<stop  offset="3.921570e-03" style="stop-color:#193262"/>
		<stop  offset="5.490200e-02" style="stop-color:#384053"/>
		<stop  offset="0.1137" style="stop-color:#544C48"/>
		<stop  offset="0.1804" style="stop-color:#6D573F"/>
		<stop  offset="0.251" style="stop-color:#826039"/>
		<stop  offset="0.3373" style="stop-color:#916735"/>
		<stop  offset="0.4471" style="stop-color:#9C6C33"/>
		<stop  offset="0.5922" style="stop-color:#A36E32"/>
		<stop  offset="1" style="stop-color:#A46F32"/>
	</linearGradient>
	<path class="st2" d="M544.4,95c3.7,0,9,4.5,15.9,13.3c3.5,4.5,6.6,8.9,9.3,13.4l-51.2-0.7c1.5-2.1,3.2-4.3,4.9-6.7
		c3.5-4.8,6.7-8.6,9.5-11.6C537.7,97.5,541.5,95,544.4,95z"/>
	<path class="st3" d="M1304.5,118.3c39.8,0.7,77,1.7,111.5,2.9v35.6l-258.3,7L392,157.2v-38.7c109.4,1.7,222.8,3.1,340.3,4.1
		c235,1.9,372.6,1,413-2.8C1171.8,117.4,1224.9,116.9,1304.5,118.3z"/>
	<g>
		<path class="st4" d="M471.1,141.7c0,1.6-1.9,3-5.7,4.1c-3.8,1.2-8.4,1.8-13.7,1.8s-9.9-0.6-13.7-1.8c-3.8-1.1-5.7-2.5-5.7-4.1
			s1.9-3,5.7-4.2c3.8-1.2,8.3-1.8,13.7-1.8c5.4,0,9.9,0.6,13.7,1.8S471.1,140.1,471.1,141.7z"/>
		<g>
			<g>
				<path class="st5" d="M446,128.9c0.4,0.3,0.5,0.8,0.5,1.2v8c0,0.5-0.2,0.9-0.5,1.3c-0.4,0.3-0.8,0.5-1.3,0.5s-0.9-0.2-1.2-0.5
					c-0.4-0.4-0.6-0.8-0.6-1.3v-8c0-0.5,0.2-0.9,0.6-1.2c0.3-0.4,0.8-0.6,1.2-0.6S445.6,128.5,446,128.9z"/>
				<path class="st6" d="M452.8,124.8c0,2.3-0.8,4-2.3,5.2c-1.4,1.1-3.3,1.6-5.7,1.6c-2.4,0-4.2-0.5-5.6-1.6
					c-1.6-1.2-2.4-2.9-2.4-5.2c0-2.8,0.8-5.7,2.4-8.8c1.7-3.5,3.6-5.2,5.6-5.2s3.9,1.8,5.7,5.2C452,119.1,452.8,122.1,452.8,124.8z"
					/>
			</g>
			<g>
				<path class="st5" d="M457,141.8c0,0.3-0.1,0.5-0.3,0.7c-0.2,0.2-0.5,0.3-0.8,0.3s-0.5-0.1-0.7-0.3s-0.3-0.4-0.3-0.7v-4.5
					c0-0.3,0.1-0.5,0.3-0.7c0.2-0.2,0.4-0.3,0.7-0.3c0.3,0,0.5,0.1,0.8,0.3c0.2,0.2,0.3,0.4,0.3,0.7V141.8z"/>
				<path class="st6" d="M460.5,134.3c0,1.3-0.4,2.2-1.3,2.9c-0.8,0.6-1.8,0.9-3.2,0.9c-1.3,0-2.3-0.3-3.1-0.9
					c-0.9-0.6-1.3-1.6-1.3-2.9c0-1.5,0.4-3.2,1.3-4.9c0.9-1.9,2-2.9,3.1-2.9s2.2,1,3.2,2.9C460.1,131.2,460.5,132.8,460.5,134.3z"/>
			</g>
		</g>
	</g>
	<path class="st7" d="M524.3,143.1c0-1.9,4.5-3.6,13.6-4.9c9.1-1.4,20-2,32.9-2s23.8,0.7,32.9,2s13.6,3,13.6,4.9s-4.5,3.5-13.6,4.9
		c-9.1,1.3-20.1,2-32.9,2s-23.8-0.7-32.9-2C528.8,146.6,524.3,145,524.3,143.1z"/>
	<path class="st7" d="M1058.7,160.7c0,1.1-0.8,2-2.3,2.8c-1.6,0.7-3.5,1.1-5.7,1.1s-4-0.4-5.6-1.1c-1.5-0.8-2.3-1.7-2.3-2.8
		s0.8-2,2.3-2.8c1.6-0.8,3.4-1.2,5.6-1.2s4.1,0.4,5.7,1.2S1058.7,159.6,1058.7,160.7z"/>
	<path class="st4" d="M1347.3,151.2c39.1-3,62-5.5,68.7-7.4v23.9H392v-14.9c40.7-3.2,88.7-5.6,144.2-7.3
		c110.9-3.4,203.4-1.5,277.5,5.7c107.7,10.5,236.4,13.1,386.1,8C1253.3,157.3,1302.4,154.7,1347.3,151.2z"/>
	<path class="st8" d="M693,161c0,0.6-0.6,1.2-1.9,1.6c-1.3,0.4-2.8,0.7-4.6,0.7c-1.8,0-3.3-0.2-4.6-0.7c-1.3-0.4-1.9-1-1.9-1.6
		s0.6-1.2,1.9-1.6c1.3-0.4,2.8-0.6,4.6-0.6c1.8,0,3.3,0.2,4.6,0.6C692.4,159.8,693,160.3,693,161z"/>
	<path class="st9" d="M1349.5,109.5c0,1.3-0.6,2.4-1.8,3.4c-1.2,0.9-2.6,1.3-4.3,1.3c-1.7,0-3.1-0.5-4.3-1.3
		c-1.2-0.9-1.8-2.1-1.8-3.4s0.6-2.4,1.8-3.3c1.2-0.9,2.6-1.4,4.3-1.4c1.7,0,3.1,0.5,4.3,1.4C1348.9,107.2,1349.5,108.2,1349.5,109.5
		z"/>
	<path class="st9" d="M1353.5,105.5c0,1.3-0.6,2.4-1.8,3.3c-1.2,0.9-2.6,1.4-4.3,1.4c-1.7,0-3.1-0.5-4.3-1.4c-1.2-0.9-1.8-2-1.8-3.3
		s0.6-2.4,1.8-3.3c1.2-0.9,2.6-1.4,4.3-1.4c1.7,0,3.1,0.5,4.3,1.4C1353,103.1,1353.5,104.2,1353.5,105.5z"/>
	<path class="st9" d="M1354.5,111.5c0,1.3-0.6,2.4-1.8,3.4c-1.2,0.9-2.6,1.3-4.3,1.3c-1.7,0-3.1-0.5-4.3-1.3
		c-1.2-0.9-1.8-2.1-1.8-3.4s0.6-2.4,1.8-3.3c1.2-0.9,2.6-1.4,4.3-1.4c1.7,0,3.1,0.5,4.3,1.4C1354,109.2,1354.5,110.2,1354.5,111.5z"
		/>
	<path class="st9" d="M1360,107.8c0,1.3-0.6,2.4-1.8,3.4c-1.2,0.9-2.6,1.3-4.3,1.3c-1.7,0-3.1-0.5-4.3-1.3c-1.2-0.9-1.8-2-1.8-3.4
		c0-1.3,0.6-2.4,1.8-3.3c1.2-0.9,2.6-1.4,4.3-1.4c1.7,0,3.1,0.5,4.3,1.4C1359.4,105.5,1360,106.5,1360,107.8z"/>
	<path class="st9" d="M1363.3,111.2c0,1.3-0.6,2.4-1.8,3.3c-1.2,0.9-2.6,1.4-4.3,1.4c-1.7,0-3.1-0.5-4.3-1.4c-1.2-0.9-1.8-2-1.8-3.3
		s0.6-2.5,1.8-3.3c1.2-0.9,2.6-1.4,4.3-1.4c1.7,0,3.1,0.5,4.3,1.4C1362.7,108.8,1363.3,109.9,1363.3,111.2z"/>
	<path class="st9" d="M1318,120.7c0,1-0.4,1.8-1.3,2.4c-0.9,0.7-2,1.1-3.2,1.1s-2.3-0.4-3.2-1.1c-0.9-0.7-1.3-1.5-1.3-2.4
		c0-1,0.5-1.8,1.3-2.5c0.9-0.7,1.9-1,3.2-1c1.3,0,2.3,0.3,3.2,1C1317.5,118.8,1318,119.7,1318,120.7z"/>
	<path class="st9" d="M1321,117.7c0,1-0.4,1.8-1.3,2.4c-0.9,0.7-2,1.1-3.2,1.1s-2.3-0.4-3.2-1.1c-0.9-0.7-1.3-1.5-1.3-2.4
		c0-1,0.5-1.8,1.3-2.5c0.9-0.7,1.9-1,3.2-1c1.3,0,2.3,0.3,3.2,1C1320.5,115.8,1321,116.7,1321,117.7z"/>
	<path class="st9" d="M1321.7,122.2c0,1-0.4,1.8-1.3,2.4c-0.9,0.7-2,1.1-3.2,1.1s-2.3-0.4-3.2-1.1c-0.9-0.7-1.3-1.5-1.3-2.4
		c0-1,0.5-1.8,1.3-2.5c0.9-0.7,1.9-1,3.2-1c1.3,0,2.3,0.3,3.2,1C1321.3,120.3,1321.7,121.2,1321.7,122.2z"/>
	<path class="st9" d="M1325.7,119.4c0,1-0.4,1.8-1.3,2.4c-0.9,0.7-2,1.1-3.2,1.1s-2.3-0.4-3.2-1.1c-0.9-0.7-1.3-1.5-1.3-2.4
		c0-1,0.5-1.8,1.3-2.5c0.9-0.7,1.9-1,3.2-1c1.3,0,2.3,0.3,3.2,1C1325.3,117.6,1325.7,118.4,1325.7,119.4z"/>
	<path class="st9" d="M1328.2,121.9c0,1-0.4,1.8-1.3,2.4c-0.9,0.7-2,1.1-3.2,1.1s-2.3-0.4-3.2-1.1c-0.9-0.7-1.3-1.5-1.3-2.4
		c0-1,0.5-1.8,1.3-2.5c0.9-0.7,1.9-1,3.2-1c1.3,0,2.3,0.3,3.2,1C1327.8,120.1,1328.2,120.9,1328.2,121.9z"/>
	<path class="st9" d="M613,111.9c0,1-0.4,1.8-1.3,2.4c-0.9,0.7-2,1.1-3.2,1.1c-1.2,0-2.3-0.4-3.2-1.1s-1.3-1.5-1.3-2.4
		c0-1,0.4-1.8,1.3-2.5c0.9-0.7,2-1,3.2-1c1.3,0,2.3,0.3,3.2,1S613,110.9,613,111.9z"/>
	<path class="st9" d="M616,108.9c0,1-0.4,1.8-1.3,2.4c-0.9,0.7-2,1.1-3.2,1.1c-1.2,0-2.3-0.4-3.2-1.1s-1.3-1.5-1.3-2.4
		c0-1,0.4-1.8,1.3-2.5c0.9-0.7,2-1,3.2-1c1.3,0,2.3,0.3,3.2,1S616,107.9,616,108.9z"/>
	<path class="st9" d="M616.8,113.4c0,1-0.4,1.8-1.3,2.4c-0.9,0.7-2,1.1-3.2,1.1c-1.2,0-2.3-0.4-3.2-1.1s-1.3-1.5-1.3-2.4
		c0-1,0.4-1.8,1.3-2.5s2-1,3.2-1c1.3,0,2.3,0.3,3.2,1C616.3,111.6,616.8,112.4,616.8,113.4z"/>
	<path class="st9" d="M620.8,110.7c0,1-0.4,1.8-1.3,2.4c-0.9,0.7-2,1.1-3.2,1.1c-1.2,0-2.3-0.4-3.2-1.1s-1.3-1.5-1.3-2.4
		c0-1,0.4-1.8,1.3-2.5s2-1,3.2-1c1.3,0,2.3,0.3,3.2,1C620.3,108.8,620.8,109.7,620.8,110.7z"/>
	<path class="st9" d="M623.3,113.2c0,1-0.4,1.8-1.3,2.4c-0.9,0.7-2,1.1-3.2,1.1c-1.2,0-2.3-0.4-3.2-1.1s-1.3-1.5-1.3-2.4
		c0-1,0.4-1.8,1.3-2.5s2-1,3.2-1c1.3,0,2.3,0.3,3.2,1C622.8,111.3,623.3,112.2,623.3,113.2z"/>
	<path class="st4" d="M1302.4,131.8c0,0.6-0.6,1.2-1.9,1.6c-1.3,0.4-2.8,0.6-4.6,0.6c-1.8,0-3.3-0.2-4.6-0.6c-1.3-0.4-1.9-1-1.9-1.6
		s0.6-1.1,1.9-1.5c1.3-0.5,2.8-0.7,4.6-0.7c1.8,0,3.3,0.2,4.6,0.7C1301.8,130.7,1302.4,131.2,1302.4,131.8z"/>
	<g>
		<path class="st5" d="M1297.4,123.6v6.7c0,0.4-0.2,0.8-0.5,1c-0.3,0.3-0.6,0.5-1,0.5s-0.8-0.1-1.1-0.5c-0.3-0.3-0.5-0.6-0.5-1v-6.7
			c0-0.4,0.2-0.8,0.5-1c0.3-0.3,0.7-0.5,1.1-0.5s0.8,0.2,1,0.5C1297.2,122.8,1297.4,123.2,1297.4,123.6z"/>
		<path class="st6" d="M1302.7,119.2c0,1.9-0.7,3.4-2,4.4c-1.2,0.9-2.7,1.3-4.7,1.3s-3.6-0.4-4.8-1.3c-1.3-1-2-2.5-2-4.4
			c0-2.3,0.7-4.8,2-7.5c1.5-2.9,3-4.4,4.8-4.4s3.3,1.5,4.7,4.4C1302,114.4,1302.7,116.8,1302.7,119.2z"/>
	</g>
	<path class="st10" d="M1252,126c0,1.2-1.4,2.3-4.1,3.2c-2.8,0.9-6.1,1.3-10,1.3s-7.2-0.4-10-1.3c-2.8-0.9-4.1-2-4.1-3.2
		c0-1.3,1.4-2.3,4.1-3.2c2.7-0.9,6-1.3,10-1.3c3.9,0,7.2,0.4,10,1.3C1250.7,123.6,1252,124.7,1252,126z"/>
	<path class="st7" d="M715.3,125.1c2.9,0,5.4,0.3,7.5,1s3.1,1.5,3.1,2.4c0,0.9-1,1.7-3.1,2.4s-4.5,1-7.5,1s-5.4-0.3-7.5-1
		s-3.1-1.5-3.1-2.4c0-0.9,1-1.7,3.1-2.4C709.9,125.4,712.3,125.1,715.3,125.1z"/>
	<g>
		<path class="st11" d="M1132.5,109.7c-0.2-0.3-0.1-0.6,0.2-0.8l6-2c0.3-0.1,0.5,0,0.6,0.3l3,6.5c0.1,0.1,0.1,0.3,0,0.4
			c-0.1,0.2-0.2,0.3-0.4,0.3l-6.4,1c-0.2,0-0.4,0-0.5-0.2L1132.5,109.7z"/>
		<path class="st12" d="M1128.3,77.2c0.2-0.2,0.4-0.1,0.5,0.2l3.1,6.6l-4.2,1.5c-0.3,0.1-0.4,0.2-0.2,0.5l2,4.5l-6.4,3.1l-2.6-5.6
			c-0.1-0.3-0.3-0.3-0.6-0.2l-1.1,0.6l-1.9-4c-0.1-0.2-0.1-0.5,0.2-0.7L1128.3,77.2z"/>
		<path class="st13" d="M1137.8,82c0.3-0.1,0.5,0,0.7,0.3l4.5,9.8c0.1,0.3,0.1,0.5-0.2,0.7l-3.9,2.3l-1-2.1
			c-0.1-0.2-0.3-0.3-0.6-0.2l-5.5,2.5l-2.2-4.7l4-1.9c0.3-0.1,0.3-0.3,0.2-0.6l-1.8-4L1137.8,82z"/>
		<path class="st14" d="M1131.9,84l1.8,4c0.1,0.3,0,0.5-0.2,0.6l-4,1.9l-2-4.5c-0.1-0.3,0-0.5,0.2-0.5L1131.9,84z"/>
		<path class="st15" d="M1141.5,100.8c0.1,0.3,0.1,0.5-0.2,0.7l-7.3,5.3c-0.2,0.2-0.4,0.1-0.6-0.2l-4.4-9.7c-0.1-0.3,0-0.5,0.2-0.7
			l2.5-1.1l1.2,2.8c0.2,0.3,0.4,0.4,0.6,0.2l5.2-3.2L1141.5,100.8z"/>
		<path class="st16" d="M1137.2,92.8c0.3-0.1,0.5,0,0.6,0.2l1,2.1l-5.3,3.2c-0.2,0.1-0.4,0-0.6-0.2l-1.2-2.8L1137.2,92.8z"/>
		<path class="st17" d="M1113,92.2c-0.1-0.3,0-0.5,0.2-0.7l6.8-3.5c0.3-0.1,0.5-0.1,0.6,0.2l4.9,10.7c0.1,0.3,0,0.4-0.3,0.5
			l-7.4,2.4c-0.3,0.1-0.5,0-0.7-0.3L1113,92.2z"/>
	</g>
	<g>
		<path class="st4" d="M828.7,140.9c0,0.7-1.8,1.3-5.5,1.8c-3.6,0.5-8,0.7-13.2,0.7c-5.2,0-9.6-0.2-13.3-0.7
			c-3.6-0.5-5.4-1.1-5.4-1.8s1.8-1.3,5.4-1.8s8-0.7,13.3-0.7c5.2,0,9.5,0.2,13.2,0.7C826.8,139.6,828.7,140.2,828.7,140.9z"/>
		<g>
			<g>
				<g>
					<path class="st18" d="M814.1,108.6l-0.7,2.4c0.4,1,1.3,1.5,2.9,1.6c0-0.3,0.1-0.6,0.2-0.9c0.1-0.2,0.1-0.4,0.2-0.5
						c-0.6-0.2-1.1-0.5-1.5-0.9c-0.1-0.1-0.1-0.1-0.2-0.2C814.7,109.6,814.4,109.1,814.1,108.6z"/>
					<path class="st19" d="M814.1,108.6c0.3,0.5,0.6,0.9,1,1.3c0.1,0.1,0.1,0.1,0.2,0.2c0.4,0.4,0.9,0.7,1.5,0.9
						c0.3-0.5,0.7-1.1,1.2-1.8c0-0.4-0.1-0.8-0.2-1.1c-0.4-1.4-1.3-2.4-2.7-2.9L814.1,108.6z"/>
				</g>
				<g>
					<g>
						<path class="st18" d="M824.2,90l1.2,2.9l0.8,3.6c0-0.2,0.1-0.3,0.1-0.5c-0.2-2.2-0.8-4.3-1.8-6.1
							C824.4,89.9,824.3,90,824.2,90z M813.6,97.5l0.1,4.7c0.3,0.4,0.6,0.9,0.8,1.3c0.1,0.2,0.3,0.4,0.4,0.6c0,1.8,0.3,3.4,1,4.6
							c0.4,0.8,1,1.5,1.7,2.2c0.1,0.1,0.2,0.2,0.4,0.2c0.7,0.4,1.4,0.8,1.9,1l0.1,0.1c0.1,0,0.1,0,0.2,0.1c0.6,0.2,1.1,0.4,1.5,0.5
							c0.9,0.1,1.7-0.5,2.6-2c0.4-0.7,0.8-1.4,1.1-2c0.1-0.3,0.3-0.6,0.4-0.9c0.1-0.2,0.2-0.4,0.2-0.7c0.1-0.2,0.1-0.5,0.2-0.7
							l0.5-2c-0.3,0-0.5-0.2-0.7-0.4l1.7-0.9c-0.5-0.4-1-0.7-1.3-1.2l-0.1-0.1c-0.1-0.1-0.1-0.2-0.2-0.3c-0.1-0.1-0.1-0.2-0.2-0.4
							c-0.2-0.5-0.3-1.1-0.2-2c0-0.2,0-0.5,0.1-0.7l-0.7-3.5l-0.4-0.6v2.4c-1.3-0.6-2.4-1.6-3.2-3c-0.6,0.2-1.1,0.3-1.7,0.5
							C817.5,95.1,815.5,96.1,813.6,97.5L813.6,97.5z"/>
						<path class="st19" d="M826.1,96.5l-0.8-3.6l-1.2-2.9c-4,1.2-7.5,3.4-10.7,6.5v1c0,0,0.1,0,0.1-0.1c1.8-1.3,3.8-2.3,6-3.1
							c0.5-0.2,1.1-0.3,1.7-0.5c0.9,1.3,1.9,2.3,3.2,3v-2.4l0.4,0.6l0.7,3.5c0.1-0.5,0.2-1.2,0.4-1.8
							C826.1,96.7,826.1,96.6,826.1,96.5z M827.7,103.2l-1.7,0.9c0.1,0.3,0.3,0.4,0.7,0.4C827,104.2,827.4,103.8,827.7,103.2z
							 M813.7,102.2l0.1,2.2c0.1,1,0.4,2,0.8,2.8c0.2,0.6,0.5,1.1,0.8,1.5c0.6,0.8,1.3,1.6,2.2,2.2c-0.7-0.6-1.2-1.3-1.7-2.2
							c-0.7-1.3-1-2.8-1-4.6c-0.1-0.2-0.2-0.4-0.4-0.6C814.2,103.1,814,102.6,813.7,102.2z"/>
					</g>
					<g>
						<g>
							<path class="st9" d="M821.3,99.3c1.3-0.1,2.5,0.1,3.5,0.6c0,0.5,0,1-0.1,1.5c0,0.5-0.1,0.9-0.2,1.4c-0.7-0.1-1.3-0.4-2-0.8
								c-0.2-0.2-0.5-0.4-0.7-0.6c-0.1-0.1-0.2-0.2-0.2-0.2l0,0c-0.2-0.3-0.3-0.8-0.3-1.3C821.4,99.6,821.3,99.4,821.3,99.3z"/>
							<path class="st20" d="M824.8,99.8c-1-0.4-2.2-0.6-3.5-0.6c0-0.3,0-0.6,0-0.9l0,0c1.1-0.3,2.3-0.3,3.5-0.2c0,0.2,0,0.5,0,0.7
								c0,0.3,0,0.5,0,0.8C824.8,99.8,824.8,99.8,824.8,99.8z"/>
							<path class="st21" d="M824.8,98.2c-1.2-0.1-2.4-0.1-3.5,0.2l0,0c0,0.3,0,0.6,0,0.9c0,0.2,0,0.3,0,0.4c0.1,0.5,0.2,1,0.3,1.3
								c-0.3-0.4-0.5-0.8-0.7-1.3c-0.1-0.5-0.2-1.1-0.2-1.8c1.4-0.4,2.7-0.5,4-0.3L824.8,98.2z"/>
						</g>
						<g>
							<path class="st22" d="M824.4,98.7c0.1,0,0.1,0,0.2,0.1c0.1,0.1,0.1,0.2,0.1,0.3c0,0.1,0,0.3,0,0.4s-0.1,0.2-0.1,0.2
								c-0.1,0-0.1,0-0.2-0.1c-0.1-0.1-0.1-0.2-0.2-0.3c0-0.1,0-0.3,0-0.4C824.3,98.8,824.3,98.7,824.4,98.7z M823.9,98.9
								c-0.1,0.4-0.2,0.9-0.2,1.4s0.1,1,0.2,1.4s0.2,0.6,0.4,0.6c0.2,0,0.3-0.2,0.4-0.6s0.2-0.8,0.2-1.4c0-0.5,0-1-0.1-1.4
								s-0.3-0.6-0.5-0.6C824.1,98.4,824,98.5,823.9,98.9z M824.3,100.7c0.1,0.1,0.2,0.2,0.2,0.4c0,0.2,0.1,0.3,0,0.5
								c0,0.1-0.1,0.2-0.2,0.2c-0.1,0-0.2,0-0.3-0.1s-0.2-0.2-0.2-0.4c0-0.2,0-0.3,0-0.5c0-0.1,0.1-0.2,0.2-0.2
								C824.1,100.6,824.2,100.6,824.3,100.7z"/>
							<path class="st23" d="M824.3,100.7c-0.1-0.1-0.2-0.1-0.3-0.1s-0.1,0.1-0.2,0.2c0,0.1,0,0.3,0,0.5c0.1,0.2,0.1,0.3,0.2,0.4
								c0.1,0.1,0.2,0.2,0.3,0.1c0.1,0,0.2-0.1,0.2-0.2c0-0.2,0-0.3,0-0.5C824.4,101,824.4,100.8,824.3,100.7z"/>
							<path class="st9" d="M824.4,98.7c-0.1,0-0.1,0.1-0.1,0.2s0,0.2,0,0.4c0,0.1,0.1,0.2,0.2,0.3c0.1,0.1,0.1,0.1,0.2,0.1
								s0.1-0.1,0.1-0.2s0-0.2,0-0.4c0-0.1-0.1-0.2-0.1-0.3C824.5,98.7,824.4,98.7,824.4,98.7z"/>
						</g>
						<path class="st24" d="M824.2,96.6L824.2,96.6c-0.1-0.1-0.1-0.1-0.2-0.1c-0.1-0.1-0.2-0.2-0.4-0.3c0,0,0,0,0-0.1
							c-0.7-0.4-1.4-0.8-2.3-1.1c-0.1,0-0.2-0.1-0.2-0.1c-0.1,0-0.2-0.1-0.3-0.1l-0.1,0.1c-0.5,0.5-0.8,1.1-1.2,1.8
							c0.2,0,0.4,0.1,0.6,0.2c1,0.2,2.1,0.6,3,1c0.2,0.1,0.4,0.2,0.6,0.3c0.3,0.2,0.7,0.4,1.1,0.6l0,0l0.9-1
							c-0.1-0.1-0.1-0.1-0.2-0.2c-0.1-0.1-0.2-0.2-0.3-0.3C824.9,97.1,824.6,96.8,824.2,96.6z"/>
						<g>
							<path class="st9" d="M825.9,106.7l-0.2,0.8c-0.8,0-1.7-0.4-2.8-1.1l0,0c0.3-0.5,0.7-0.8,0.9-0.8c0.1,0,0.2,0,0.2,0l0,0
								C824.7,106.1,825.3,106.6,825.9,106.7z M821.7,109.4c0.9,0.4,1.6,0.6,2.1,0.6c0.1,0,0.1,0,0.2,0h0.1c0.1,0,0.3,0,0.4-0.1
								l-0.4,0.7c-0.6,0.2-1.3,0.3-2,0.2c-0.3,0-0.5-0.2-0.5-0.5c0-0.1,0-0.1,0-0.2C821.7,109.9,821.7,109.6,821.7,109.4z"/>
							<path class="st25" d="M822.9,106.3c1.1,0.8,2,1.1,2.8,1.1l0.2-0.8c0.1,0,0.1,0,0.2,0c-0.4,1.4-0.9,2.7-1.7,3.8
								c-0.1,0-0.2,0.1-0.2,0.1l0.4-0.7c0,0,0-0.1-0.1-0.2c-0.5-0.9-1.2-1.6-2.2-2.1l0,0C822.4,107.2,822.6,106.8,822.9,106.3z"/>
							<path class="st26" d="M822.2,107.6L822.2,107.6c1,0.5,1.8,1.2,2.3,2.2c0.1,0.1,0.1,0.1,0.1,0.2c-0.1,0-0.3,0.1-0.4,0.1h-0.1
								c-0.1,0-0.1,0-0.2,0c-0.6,0-1.3-0.2-2.1-0.6C821.8,108.8,822,108.2,822.2,107.6z"/>
						</g>
					</g>
					<g>
						<g>
							<g>
								<path class="st27" d="M807.6,107.1L807.6,107.1c0-0.1-0.1-0.2-0.1-0.3l-0.1-0.6c0.4,0.3,0.9,0.5,1.3,0.8l1.5,1l-1,0.1H809
									h-0.1C808.4,107.9,807.9,107.6,807.6,107.1z"/>
								<path class="st28" d="M809,108.2c-0.3,1.1-0.6,2-1,2.8c-1,1-2.7,1.8-5.2,2.5c0-0.1,0-0.1,0-0.2l0,0c3-0.7,4.5-2.7,4.6-6
									c0.1,0,0.1-0.1,0.2-0.1C807.9,107.6,808.4,107.9,809,108.2z"/>
								<path class="st29" d="M802.8,113.2c0.2-1.4,0.8-2.8,1.7-4.4c0.9-0.8,1.8-1.4,2.9-1.6C807.4,110.5,805.8,112.5,802.8,113.2z"
									/>
							</g>
						</g>
						<g>
							<g>
								<path class="st29" d="M797,82.8L797,82.8L797,82.8L797,82.8z M796.2,88l2.4,2.5c-0.8-2.1-1.3-4.7-1.5-7.8l3.7,3.7l0,0l0,0
									c-1.1-3.8-1.4-7.7-1-11.9l0,0l0,0l0,0l0,0c6.6,0.9,12.3,3.6,17,8c-0.3-1.9-1.1-3.9-2.3-5.9c3.5,2,6.5,4.7,9,8.3
									c0.1-1.1-0.3-2.5-1.1-4.2c1.5,1.8,2.5,3.7,3,5.9c-0.2-0.1-0.4-0.3-0.6-0.4c-0.6,0.5-1.1,1.1-1.4,1.8
									c-1.5,0.5-3.5,1.4-5.8,2.7h-0.1h-0.1c-1.1-0.4-2.3-1.4-3.5-2.8c0.4,1.4,1,2.6,1.9,3.7l-2.5,1.6c-0.7-0.3-1.3-0.8-1.8-1.6
									c0.3,1.1,0.6,1.9,1,2.3l-0.8,1.4l0.5-0.2c-2.2,2-4.1,4.4-5.8,7.2l0,0c-3.8-0.6-6.7-2.2-8.6-4.8l3.4,1.6h0.1
									c-1.2-1-2.3-2.4-3.2-4.2c-0.1-0.1-0.1-0.3-0.2-0.4l0,0c-0.9-1.8-1.5-4.1-1.9-6.7l0,0l0,0l0,0L796.2,88z M797.6,97.2
									L797.6,97.2L797.6,97.2L797.6,97.2z M814.4,97.5c0.7-0.7,1.5-1.3,2.4-1.8c1.1-0.7,2.2-1.3,3.4-1.9l-2.9,4.2l-0.2,4
									L814.4,97.5z M826.1,87.8c0.1,1.2,0.2,2.4,0.2,3.5c-0.3,0.1-0.6,0.1-0.9,0.2l-1-2.4c-0.5,0.1-1,0.2-1.5,0.4L826.1,87.8z
									 M822.4,80.7c-0.1-0.1-0.3-0.3-0.4-0.5C822.2,80.4,822.3,80.5,822.4,80.7L822.4,80.7z"/>
								<path class="st30" d="M797.1,82.8l2.6,1.9l0,0l1.1,1.8l0,0l0,0L797.1,82.8z M823.5,85c-2.5-3.6-5.5-6.3-9-8.3
									c3.7,1.6,6.4,3.7,8.2,6.4l0,0l0,0L823.5,85z M815.2,80.2L815.2,80.2l1.6,2.4c-4.7-4.4-10.4-7.1-17-8l0,0
									C807.8,75.4,812.9,77.3,815.2,80.2z M798.5,90.5l-2.4-2.5l1.4,1.2l0,0L798.5,90.5z M797.7,97.1l2.3,1.2l1.3,0.9l-3.4-1.6
									v-0.1C797.8,97.5,797.8,97.3,797.7,97.1z M822.5,80.7c1.8,1.7,3,3.7,3.5,6c0,0.2,0,0.5,0,0.6c0-0.2-0.2-0.5-0.6-0.8
									C825,84.4,823.9,82.5,822.5,80.7L822.5,80.7z"/>
								<path class="st28" d="M797.1,82.8c0.1,3.1,0.6,5.7,1.5,7.8l-1-1.3l0,0C796.7,87.3,796.5,85.1,797.1,82.8L797.1,82.8z
									 M799.8,74.5L799.8,74.5c-0.3,4.1,0,8.1,1.1,11.9l-1.1-1.8l0,0v-0.1c-0.4-2.2-0.5-4.4-0.4-6.8
									C799.5,76.9,799.6,75.8,799.8,74.5z M801.3,99.2l-1.3-0.9l-0.1-0.1c-0.9-0.8-1.8-1.8-2.7-3c0-0.1-0.1-0.1-0.1-0.2
									c-0.7-1.9-1.1-4.3-1.2-7.1l0,0c0.4,2.6,1,4.9,1.9,6.7l0,0c0.1,0.1,0.1,0.3,0.2,0.4C799.1,96.8,800.2,98.2,801.3,99.2
									L801.3,99.2z M825.5,86.6c0.4,0.3,0.6,0.5,0.6,0.8c0,0.2,0,0.3,0,0.5l-3,1.6c0.5-0.1,1-0.2,1.5-0.4l1,2.4
									c-2.3,0.6-4,1.3-5.2,2.2c-1.2,0.6-2.3,1.2-3.4,1.9c-0.9,0.6-1.7,1.2-2.4,1.8c0.8,4.6,0.6,8.8-0.7,12.5l-0.7-0.2
									c-8.3-2.9-13.4-6.9-15.2-12l0,0v-0.1c0-0.2-0.1-0.3-0.2-0.4l0.1-0.1c0.1,0.2,0.2,0.4,0.3,0.5v0.1c2,2.6,4.8,4.2,8.6,4.8l0,0
									c1.7-2.9,3.6-5.3,5.8-7.2l-0.5,0.2l0.8-1.4c-0.4-0.4-0.8-1.2-1-2.3c0.5,0.8,1.1,1.3,1.8,1.6l2.5-1.6
									c-0.9-1.1-1.6-2.3-1.9-3.7c1.2,1.4,2.4,2.3,3.5,2.8h0.1h0.1c2.3-1.3,4.3-2.2,5.8-2.7c0.3-0.7,0.8-1.3,1.4-1.8
									C825.1,86.3,825.3,86.5,825.5,86.6z M815.2,80.2l-0.8-3.6c0,0,0.1,0,0.1,0.1c1.2,2,2,4,2.3,5.9L815.2,80.2L815.2,80.2z
									 M823.5,85l-0.8-1.9l0,0l-0.8-2.9l0.1,0.1c0.1,0.2,0.3,0.3,0.4,0.5C823.3,82.4,823.7,83.8,823.5,85z"/>
							</g>
						</g>
					</g>
					<g>
						<g>
							<path class="st27" d="M805.3,105.6c3.5-6.7,8.6-11.2,15.5-13.5c0.1-1.2,0.4-2.2,0.9-3c-2.2,0.8-3.9,1.5-5,2.1
								c-1.2,0.6-2.1,1.2-2.9,1.7c-0.7,0.5-1.8,1.3-3.1,2.4l0,0c-3.1,3.1-5.2,6.3-6.4,9.6C804.5,105.1,804.9,105.3,805.3,105.6z"/>
							<path class="st31" d="M805.3,105.6c0.1,0,0.1,0,0.2,0.1c0.2,0.1,0.4,0.2,0.6,0.2c1.9-4.2,4.6-7.4,8.2-9.6
								c3.6-2.2,7.6-3.8,12-4.8c0.1-0.3,0.1-0.6,0.1-0.9c0-0.9-0.2-1.9-0.7-2.9c-1.3,0.4-2.6,0.8-4,1.3c-0.5,0.8-0.8,1.8-0.9,3
								C813.9,94.3,808.8,98.8,805.3,105.6z"/>
						</g>
						<g>
							<path class="st19" d="M815,102.3L815,102.3l-0.4-3.6c-0.7-0.7-1.3-0.9-1.9-0.8c-0.8,0.3-1.1,1-1,1.9c0.3-0.7,0.8-1,1.4-1
								c0.4,0,0.8,0.2,1.1,0.6c-0.7-0.1-1.2,0.1-1.5,0.6c-0.2,0.7-0.1,1.2,0.3,1.7C813.6,102.2,814.3,102.4,815,102.3z"/>
							<path class="st18" d="M814.6,98.7l-0.1-1c-0.9-0.8-1.8-0.9-2.6-0.1c-0.6,0.7-0.8,1.6-0.6,2.8c0,0.2,0.1,0.4,0.1,0.6
								c0.9,2.1,2.1,3.2,3.8,3.1l-0.2-1.8c-0.8,0.1-1.4-0.1-1.9-0.6c-0.4-0.5-0.6-1-0.3-1.7c0.3-0.5,0.8-0.7,1.5-0.6
								c-0.3-0.4-0.7-0.6-1.1-0.6c-0.6,0-1.1,0.3-1.4,1c-0.1-0.9,0.2-1.5,1-1.9C813.3,97.8,814,98,814.6,98.7z"/>
						</g>
						<g>
							<path class="st30" d="M831.3,92c0-0.5-0.1-1-0.2-1.4c-0.2-1.3-0.8-2.3-1.8-3.1c-1.1-0.8-2.5-1.1-4.2-1.1
								c-0.6,0.6-1.1,1.4-1.6,2.4c0.6-0.7,1.2-1.3,1.8-1.9C828.3,86.8,830.3,88.4,831.3,92z"/>
							<path class="st29" d="M821.6,91.5c0-0.2,0-0.3,0.1-0.4c0.5,1.9,1.1,3.6,2,5c0.2,0.2,0.4,0.3,0.6,0.5l-0.3-2.9l0.1,0.1
								l-0.2-1.6c2.1,2.1,3.2,4.3,3.3,6.6c1.5-1.5,2.2-2.9,2.1-4.2c0-1.2-0.3-2.1-0.6-2.8c0-0.1-0.1-0.1-0.1-0.2c0,0,0,0,0-0.1l0,0
								l-1-1.6c2.2,1.3,3.4,2.7,3.6,4.1c0.1-0.7,0.2-1.4,0.2-2c-1.1-3.6-3-5.2-5.9-5c-0.6,0.6-1.2,1.2-1.8,1.9l-1.3,0.1
								C821.8,89.6,821.6,90.5,821.6,91.5z"/>
							<path class="st28" d="M831.1,94c-0.2-1.4-1.4-2.8-3.6-4.1l1,1.6C829.6,92,830.5,92.8,831.1,94z M827.2,98.8
								c-0.1-2.4-1.2-4.6-3.3-6.6l0.2,1.6C825.4,95.6,826.4,97.3,827.2,98.8C827.1,98.8,827.2,98.8,827.2,98.8z M821.6,91.5
								c0,0.3,0.1,0.7,0.1,1.1c0.2,1.2,0.9,2.3,2,3.4c-0.9-1.4-1.6-3.1-2-5C821.7,91.1,821.7,91.3,821.6,91.5z"/>
						</g>
					</g>
				</g>
				<g>
					<g>
						<path class="st32" d="M809.2,127.4c0.4,0.7,0.9,1.2,1.5,1.5l-1.1,1.6c-0.8,0.2-1.2-0.1-1.5-0.8
							C808.4,128.9,808.8,128.1,809.2,127.4z"/>
						<path class="st33" d="M810.7,128.9c-0.6-0.3-1-0.8-1.5-1.5c0.1-0.2,0.2-0.3,0.3-0.5c0.3-0.5,0.6-1,0.9-1.6
							c0.9-0.1,1.6,0.3,2.1,1.1L810.7,128.9z"/>
					</g>
					<g>
						<path class="st32" d="M801,132.7c0.2,0.6,0.5,1.1,0.9,1.7c2.1-1.2,4.4-2.3,6.7-3.4c0,0,0,0,0.1,0l-0.1-0.1
							c-0.1-0.3,0-0.5,0.5-0.8c-0.1,0.3-0.2,0.6-0.1,0.8l0,0c0.2-0.1,0.4-0.2,0.5-0.2c0.1-0.6-0.2-1.1-0.7-1.5
							c-0.9,0-1.8,0.3-2.7,0.6C804.4,130.5,802.7,131.5,801,132.7z"/>
						<path class="st33" d="M809,130.8c-0.1-0.2,0-0.5,0.1-0.8c-0.4,0.3-0.6,0.6-0.5,0.8c0,0,0,0.1,0.1,0.1L809,130.8z"/>
						<path class="st34" d="M801.9,134.4c-0.4-0.6-0.7-1.1-0.9-1.7l-2.3,1.2c0.1,0.8,0.5,1.4,1.1,1.9l1.4-1
							C801.5,134.6,801.7,134.5,801.9,134.4z"/>
					</g>
					<g>
						<path class="st35" d="M797.3,134.3l2.6,4.4c0.5,0.6,1.1,1.3,1.8,1.9h0.8c0.1-0.4,0.1-0.7,0.1-1.1c-0.7-0.7-1.1-1.2-1.2-1.5
							c-0.2-0.4-0.2-0.6-0.2-0.6c-0.2,0-0.4,0.1-0.6,0.2c-0.2-0.1-0.2-0.2-0.2-0.4c0.2-0.1,0.5-0.2,0.7-0.3c0-0.1,0-0.1,0-0.2
							c-0.3,0-0.6,0.1-0.8,0.2c-0.2-0.1-0.2-0.3-0.1-0.4c0.3-0.1,0.6-0.1,0.9-0.1c0-0.1,0-0.1,0-0.2c-0.3,0-0.6,0-0.9,0.1
							c-0.1-0.2-0.2-0.3-0.1-0.4c0.3-0.1,0.6-0.1,1-0.1c0-0.1,0-0.1,0-0.2c-0.4-0.1-0.7-0.1-1,0c-0.1-0.1-0.1-0.2,0-0.3
							c0.4-0.1,0.7-0.1,1.1,0c0-0.2,0.1-0.3,0.2-0.5c-0.4-0.2-0.8-0.2-1.2,0h-0.1c-0.4,0.1-0.6,0.1-0.8-0.1
							c-0.1-0.2-0.2-0.4-0.1-0.6c0.1-0.3,0.3-0.5,0.5-0.7c0.1-0.1,0.2-0.2,0.2-0.4C798.7,133.4,797.9,133.8,797.3,134.3z"/>
						<path class="st36" d="M800.9,135.9c-0.3,0-0.7,0-1,0.1c-0.1,0.1-0.1,0.3,0.1,0.4c0.3-0.1,0.6-0.1,0.9-0.1
							C801,136.1,801,136,800.9,135.9z M801,135.7c0.1-0.1,0.1-0.2,0.1-0.3c-0.4-0.1-0.7-0.1-1.1,0c-0.1,0.1-0.1,0.2,0,0.3
							C800.3,135.6,800.6,135.6,801,135.7z M801,137c-0.3,0-0.5,0.1-0.7,0.3c0,0.2,0.1,0.3,0.2,0.4c0.3-0.1,0.5-0.2,0.6-0.2
							C801.2,137.3,801.2,137.1,801,137z M801,136.8c0.1-0.2,0-0.3-0.1-0.4c-0.3,0-0.6,0.1-0.9,0.1c-0.1,0.1,0,0.3,0.1,0.4
							C800.4,136.9,800.7,136.9,801,136.8z"/>
						<path class="st37" d="M797.3,134.3l-0.8,0.5l3.3,4.1c0.7,0.7,1.3,1.4,1.9,1.8h0.8c0-0.1,0.1-0.1,0.1-0.2h-0.8
							c-0.7-0.6-1.3-1.2-1.8-1.9L797.3,134.3z"/>
					</g>
					<path class="st38" d="M810.8,124c0.3,0.1,0.6,0.2,0.9,0.2c1.6,0.5,3,1.4,4.2,2.6l-1.6,2.9c-1-0.3-1.7-0.6-2.1-0.8
						c-0.4-0.2-0.7-0.3-1-0.5c-0.3-0.2-0.7-0.6-1.4-1.4c-0.2-0.3-0.4-0.5-0.5-0.6l1.2-3.2L810.8,124z"/>
					<g>
						<path class="st18" d="M819.9,126c0.2,0.8,0.2,1.6,0,2.4c1,0.4,2,0.7,3,0.9c0.7-0.3,0.9-0.8,0.6-1.6L819.9,126z"/>
						<path class="st19" d="M819.9,126l-0.9-0.4c-0.7,0.6-1,1.3-0.8,2.2c0.6,0.2,1.1,0.4,1.7,0.6C820.1,127.6,820.1,126.9,819.9,126
							z"/>
					</g>
					<g>
						<path class="st18" d="M818.5,135.7c0.5,0.3,1.1,0.5,1.8,0.7c0.9-2.3,1.8-4.6,2.9-7v-0.1h-0.1c-0.3-0.1-0.3-0.4-0.2-0.9
							c0.1,0.3,0.3,0.5,0.5,0.7l0,0c0.1-0.2,0.2-0.4,0.2-0.5c-0.3-0.5-0.8-0.7-1.5-0.7c-0.7,0.6-1.2,1.4-1.7,2.3
							C819.7,131.8,819,133.7,818.5,135.7z"/>
						<path class="st9" d="M820.3,136.4c-0.7-0.2-1.3-0.4-1.8-0.7l-1,2.4c0.6,0.5,1.3,0.8,2.1,0.7l0.4-1.7
							C820.1,136.9,820.2,136.6,820.3,136.4z"/>
						<path class="st19" d="M823.3,129.1c-0.2-0.1-0.3-0.3-0.5-0.7c-0.1,0.5,0,0.8,0.2,0.9h0.1L823.3,129.1z"/>
					</g>
					<g>
						<g>
							<path class="st19" d="M818.8,116.5l0.2-1.4l-1.6-0.4c-0.5,0.3-0.6,0.7-0.4,1.2C817.6,116.1,818.2,116.3,818.8,116.5z"/>
							<path class="st32" d="M819,115.1l-0.2,1.4c0.7,0.2,1.4,0.5,2.2,0.7c0.2-0.5,0.3-1,0.2-1.4L819,115.1z"/>
						</g>
						<g>
							<path class="st39" d="M817.6,113.8c-0.4,1.1-0.9,2-1.6,2.8l-2.9-1.4c-0.5-0.4-0.7-1-0.6-1.7c0.4-0.6,1-0.8,1.8-0.7
								L817.6,113.8z"/>
							<path class="st38" d="M816,116.5c0.7-0.8,1.2-1.7,1.6-2.8l0.6,0.2c-0.4,1.3-0.9,2.3-1.5,2.9L816,116.5z"/>
						</g>
						<path class="st32" d="M820.8,117.1c1.9,0.3,3.7,0.4,5.4,0.4c0.3-0.7,0.2-1.4-0.2-1.9c-1.6-0.1-3.2,0-4.9,0.2
							C820.6,116.2,820.5,116.7,820.8,117.1z"/>
						<g>
							<path class="st19" d="M827.7,117.9c-0.4,0.1-0.6,0-0.6-0.2c0-0.1,0-0.1,0-0.2c0-0.2,0-0.4,0-0.7c0-0.1,0-0.3-0.1-0.5l0,0
								c0-0.2-0.1-0.4-0.3-0.5l0,0l-0.1-0.1c0.7-0.2,1.2,0.2,1.4,1.1c0,0,0,0,0,0.1c0.1,0.2,0.2,0.4,0.4,0.6
								c0.1,0.1,0.2,0.2,0.3,0.3l0,0c0.1,0.2,0.2,0.4,0.4,0.6l0,0c0,0,0,0.1,0.1,0.1c0,0,0,0,0,0.1v0.1c-0.1,0.1-0.2,0.2-0.4,0.1
								h-0.1c-0.3-0.1-0.5-0.3-0.5-0.7C828,118,827.9,117.9,827.7,117.9z M827.4,119.2l-0.1-0.2L827.4,119.2L827.4,119.2z
								 M825.6,118.1l0.3,1l0.5,0.7c0,0.1,0.1,0.1,0.2,0.1h0.6c0.1,0,0.1,0,0.2-0.1l0,0l0.5-0.7c0.1-0.1,0.1-0.2,0.1-0.2s0,0,0.1,0
								l0,0l0,0c0,0.1,0.1,0.1,0,0.2l0,0v0.1c-0.2,0.2-0.3,0.4-0.4,0.6c-0.1,0.1-0.2,0.2-0.3,0.2h-0.7c-0.1,0-0.2,0-0.2-0.1
								l-0.6-0.8c-0.1-0.2-0.1-0.4-0.2-0.6l0,0C825.7,118.3,825.6,118.2,825.6,118.1z M827,119.3l-0.1-0.3L827,119.3
								C827.1,119.3,827.1,119.3,827,119.3z M826.4,120.2l0.8,0.1c0.1,0,0.2,0,0.2-0.1l0.9-0.9l0,0c0.1-0.1,0-0.2-0.1-0.2
								c0,0,0.1,0,0.1,0.1v0.1c0,0,0,0.1-0.1,0.1l-0.9,1c-0.1,0.1-0.2,0.1-0.3,0l-0.2-0.1l0.5,0.2h0.1l1-1c0.1-0.1,0.1-0.2-0.1-0.2
								c0.1,0,0.1,0,0.1,0c0.1,0,0.1,0.1,0,0.2l-0.4,0.3l-0.6,0.6c0.1,0.1,0.3,0,0.5-0.1c0.2-0.1,0.4-0.2,0.6-0.3
								c0.2-0.1,0.2-0.1,0.2-0.3c0,0,0,0,0,0.1c0.1,0.1,0,0.2-0.1,0.2h-0.1c-0.2,0.1-0.5,0.2-0.7,0.4c-0.2,0.1-0.3,0.1-0.5-0.1l0,0
								c-0.1,0.1-0.1,0.1-0.2,0l-0.4-0.2L826.4,120.2z"/>
							<path class="st33" d="M827.6,119c-0.1,0-0.1,0.1-0.2,0.2l-0.1-0.2l0.1,0.2l-0.1,0.1h-0.1L827,119l0.1,0.3c-0.1,0-0.2,0-0.2,0
								c0-0.1-0.1-0.3-0.2-0.4c0.1-0.2,0.1-0.5,0.1-0.8c0.2-0.1,0.3-0.3,0.4-0.5c0.1,0.2,0.3,0.3,0.6,0.2
								C827.6,118.1,827.6,118.5,827.6,119z"/>
							<path class="st32" d="M828,118.9c0.1,0,0,0.1-0.1,0.2l-0.5,0.7l0,0c-0.1,0-0.1,0.1-0.2,0.1h-0.6c-0.1,0-0.1,0-0.2-0.1
								l-0.5-0.7l-0.3-1c0-0.1-0.1-0.1-0.1-0.2c-0.1-0.3-0.2-0.7-0.2-1c0-0.1,0-0.1,0-0.2c0-0.2,0-0.3,0.1-0.5
								c0.1-0.5,0.4-0.7,0.8-0.7c0.2,0,0.3,0,0.4,0.1l0.1,0.1l0,0c0.1,0.1,0.2,0.3,0.3,0.5l0,0c0,0.2,0,0.3,0.1,0.5
								c0,0.3,0,0.5,0,0.7c0,0.1,0,0.1,0,0.2c-0.1,0.3-0.2,0.4-0.4,0.5c0,0.3,0,0.6-0.1,0.8c0.1,0.1,0.2,0.2,0.2,0.4
								c0.1,0,0.2,0,0.2,0h0.1h0.1l0.1-0.1c0,0,0,0,0.1-0.1s0.1-0.1,0.2-0.2C827.8,118.9,827.9,118.9,828,118.9L828,118.9L828,118.9
								z M826.4,120.2l-0.7-1l-0.1-0.7c0,0.2,0.1,0.4,0.2,0.6l0.6,0.8c0.1,0.1,0.1,0.1,0.2,0.1h0.7c0.1,0,0.2-0.1,0.3-0.2
								c0.1-0.2,0.3-0.4,0.4-0.6v-0.1l0,0c0.1,0,0.2,0,0.2,0c0.1,0,0.1,0.1,0.1,0.2l0,0l-0.9,0.9c-0.1,0.1-0.2,0.1-0.2,0.1
								L826.4,120.2z M828.4,120c0.1-0.1,0.2-0.1,0.3-0.1c0.2,0,0.3,0,0.4,0.1c0.1,0.1,0,0.2-0.2,0.3c-0.2,0.1-0.4,0.2-0.6,0.3
								c-0.2,0.1-0.4,0.2-0.5,0.1L828.4,120z M828.6,119.3c0.2,0,0.2,0.1,0.1,0.2l-1,1h-0.1l-0.5-0.2l0.2,0.1c0.1,0,0.3,0,0.3,0
								L828.6,119.3C828.5,119.4,828.6,119.4,828.6,119.3L828.6,119.3z"/>
						</g>
					</g>
					<g>
						<path class="st40" d="M812.9,122.5l3,0.5h0.1l3.4,2.5l0,0c-0.1,0.8-0.5,1.5-1,1.9l-4-1.5c-1.4-0.5-1.9-1.5-1.5-2.9
							C812.8,122.9,812.9,122.7,812.9,122.5z"/>
						<path class="st41" d="M819.4,125.6L819.4,125.6c-0.3,2.3-1.3,4-3,4.9l-2.9-1.7c-3.3-1.5-4.3-3.7-2.9-6.7l2.3,0.4
							c0,0.2-0.1,0.3-0.1,0.5c-0.4,1.4,0.1,2.4,1.5,2.9l4,1.5C818.9,127,819.2,126.4,819.4,125.6L819.4,125.6z"/>
					</g>
					<g>
						<g>
							<path class="st9" d="M816.7,113.9l-0.5,1.5h0.4c-0.4,1.2-0.6,2.4-0.7,3.5c0,0.3,0,0.5,0,0.8c0,0.1,0,0.2,0,0.4
								c0,1,0.1,1.9,0.2,2.8c-2,0.9-4.1,1.1-6.4,0.6l0.7-1.2c-0.1-1-0.2-1.7-0.2-2.2c-0.1-0.7,0-1.5,0-2.3c0.6-3.3,1.6-5.3,3-6.1
								c0.6,0.1,1.1,0.4,1.6,0.7c0.5,0.3,0.9,0.7,1.3,1.2l0.5-1L816.7,113.9z"/>
							<path class="st42" d="M816.6,112.5l-0.1,0.3l-0.5,1c-0.4-0.5-0.9-0.9-1.3-1.2c-0.5-0.3-1-0.6-1.6-0.7l0.4-1
								c0.1,0.1,0.2,0.1,0.2,0.1c0.7,0.1,1.2,0.3,1.5,0.5C815.8,111.8,816.2,112.1,816.6,112.5z"/>
							<polygon class="st41" points="816.5,112.8 816.6,112.5 817.1,113.8 816.7,113.9 							"/>
							<path class="st43" d="M816.5,115.5h-0.4l0.5-1.5l0.4-0.1C816.9,114.4,816.7,115,816.5,115.5z"/>
						</g>
					</g>
					<g>
						<path class="st44" d="M817.1,139.6l5.1,1c0.8,0.1,1.7,0,2.6-0.1l0.6-0.6c-0.2-0.3-0.4-0.6-0.7-0.8c-0.9,0-1.6,0-2-0.1
							s-0.6-0.2-0.6-0.2c-0.1,0.1-0.2,0.3-0.3,0.6c-0.2,0-0.3,0-0.4-0.1c0-0.3,0.1-0.5,0.3-0.7c-0.1,0-0.1-0.1-0.2-0.1
							c-0.2,0.2-0.3,0.5-0.4,0.7c-0.2,0-0.3,0-0.4-0.2c0.1-0.3,0.3-0.5,0.5-0.7c-0.1,0-0.1-0.1-0.2-0.1c-0.2,0.2-0.4,0.5-0.5,0.8
							c-0.2,0-0.3-0.1-0.4-0.3c0.2-0.3,0.4-0.5,0.6-0.8c0-0.1-0.1-0.1-0.1-0.2c-0.3,0.2-0.5,0.5-0.7,0.8c-0.1,0-0.2-0.1-0.2-0.2
							c0.2-0.4,0.4-0.6,0.7-0.8c-0.1-0.1-0.2-0.3-0.2-0.4c-0.4,0.1-0.7,0.4-0.8,0.9v0.1c-0.2,0.3-0.4,0.5-0.6,0.5
							c-0.2,0-0.4-0.1-0.5-0.3c-0.1-0.3-0.2-0.5-0.2-0.8c0-0.2,0-0.3-0.2-0.4C817.4,137.8,817.1,138.7,817.1,139.6z"/>
						<path class="st45" d="M820.3,137.4c-0.3,0.2-0.6,0.5-0.7,0.8c0,0.2,0.1,0.2,0.2,0.2c0.1-0.3,0.4-0.6,0.7-0.8
							C820.5,137.6,820.5,137.5,820.3,137.4z M821,138.1c-0.1-0.1-0.2-0.2-0.3-0.3c-0.2,0.2-0.4,0.5-0.6,0.8c0,0.1,0.1,0.2,0.4,0.3
							C820.6,138.6,820.7,138.3,821,138.1z M821.6,138.5c-0.2,0.2-0.2,0.5-0.3,0.7c0.1,0.1,0.3,0.2,0.4,0.1c0.1-0.3,0.2-0.5,0.3-0.6
							C821.9,138.6,821.7,138.5,821.6,138.5z M821.4,138.4c-0.1-0.1-0.2-0.2-0.3-0.2c-0.2,0.2-0.4,0.5-0.5,0.7
							c0.1,0.1,0.2,0.2,0.4,0.2C821.1,138.9,821.2,138.7,821.4,138.4z"/>
						<path class="st46" d="M817.1,139.6l-0.2,1l5.3,0.3c1,0,1.9-0.1,2.7-0.2l0.6-0.6c0-0.1-0.1-0.1-0.1-0.2l-0.6,0.6
							c-0.9,0.1-1.8,0.2-2.6,0.1L817.1,139.6z"/>
					</g>
					<g>
						<g>
							<path class="st18" d="M818.4,113.3c0.1,0.4,0.2,0.9,0.1,1.4c0.8,0.1,1.5,0.2,2.2,0.2c0.1-0.5,0.1-1-0.1-1.4L818.4,113.3z"/>
							<path class="st19" d="M818.5,114.7c0.1-0.5,0-0.9-0.1-1.4l-1.7-0.1c-0.4,0.4-0.5,0.8-0.2,1.3
								C817.2,114.6,817.8,114.6,818.5,114.7z"/>
						</g>
						<g>
							<path class="st47" d="M816.2,115.5L816.2,115.5c0.4-0.9,0.6-2,0.6-3.1h-3.3c-0.8,0.1-1.4,0.5-1.5,1.2
								c0.1,0.7,0.4,1.2,1.1,1.4L816.2,115.5z"/>
							<path class="st41" d="M816.2,115.5l0.7,0.1c0.4-0.8,0.6-1.9,0.5-3.2h-0.6C816.8,113.5,816.6,114.5,816.2,115.5L816.2,115.5z"
								/>
						</g>
						<path class="st18" d="M820.3,114.9c1.9,0.3,3.7,0.4,5.4,0.4c0.3-0.7,0.2-1.4-0.2-2c-1.6-0.1-3.2,0-4.9,0.2
							C820.2,113.9,820.1,114.4,820.3,114.9z"/>
						<g>
							<path class="st18" d="M827.2,110.5L827.2,110.5L827.2,110.5c0,0.2,0.1,0.2,0.1,0.3l0,0c0,0.1,0,0.2,0,0.2l0,0
								c-0.1,0-0.2,0-0.3-0.1c0,0,0,0,0-0.1c-0.1-0.2-0.2-0.4-0.2-0.6l0,0c-0.1-0.2-0.2-0.4-0.4-0.3l0,0l0,0l-0.6,0.1l0,0l0.8,0.1
								c0,0,0,0,0.1,0c0.1,0.1,0.2,0.2,0.1,0.4l0,0c0,0,0,0,0,0.1v0.1c0,0.1,0,0.1,0,0.2s0,0.2,0,0.3l0,0c0,0.1-0.1,0.2-0.2,0.2l0,0
								c-0.2,0-0.3-0.1-0.3-0.3c0,0,0,0,0-0.1l0,0v-0.6c0,0,0,0,0,0.1s-0.1,0.1-0.1,0.2s0,0.1,0,0.1c-0.2,0-0.4-0.2-0.4-0.5
								c0,0.4,0.1,0.6,0.4,0.6c0,0.1,0,0.2,0,0.3c0,0.6,0.1,0.9,0.2,1.2l0,0l0,0l0,0l0.1,0.1c0,0,0,0.1,0.1,0.1
								c0.3,0.4,0.4,0.9,0.4,1.5c-0.1,0.3-0.2,0.6-0.3,0.8c-0.1,0.1-0.1,0.2-0.2,0.2c-0.1,0.1-0.3,0.1-0.5,0.2
								c-0.7-0.1-0.9-1-0.8-2.9c0-0.7,0.1-1.4,0.2-2.1c0-0.1,0.1-0.2,0.2-0.2l0.1-0.1l0.8-0.3c0.1,0,0.1,0,0.2,0
								c0.1,0,0.1,0,0.1,0.1l0,0c0,0.1,0,0.1,0,0.1c0,0.1,0.1,0.2,0.1,0.3C827.1,110.3,827.1,110.4,827.2,110.5z M827.9,110.8
								c-0.1,0-0.3,0-0.4-0.1l0,0c-0.2-0.2-0.4-0.5-0.5-0.9c0-0.1-0.1-0.1-0.2-0.1h0.1l0,0c0.1,0,0.2,0,0.2,0s0.1,0,0.1,0.1l0,0l0,0
								l0,0l0,0c0.1,0.1,0.2,0.3,0.3,0.4l0.1,0.1c0.1,0.1,0.2,0.2,0.4,0.3C828,110.6,828,110.6,827.9,110.8
								C828,110.7,828,110.7,827.9,110.8z M828.7,109.9c0,0.1-0.1,0.2-0.3,0.2h-0.1c0,0,0,0-0.1,0c0,0,0,0-0.1,0c0,0,0,0-0.1,0h-0.1
								c-0.3-0.1-0.5-0.3-0.6-0.5c-0.1-0.1-0.1-0.1-0.2,0l0,0c0,0,0,0,0.1-0.1l0,0c0.1-0.1,0.2-0.1,0.3,0l0,0
								c0.2,0.2,0.4,0.3,0.6,0.3c0.1,0,0.2,0.1,0.3,0.1C828.6,109.8,828.7,109.9,828.7,109.9z"/>
							<path class="st19" d="M828.7,109.9c0,0,0,0.1-0.1,0.2c0,0,0,0-0.1,0.1s-0.2,0.1-0.3,0.1c-0.2,0-0.4,0-0.6-0.1l-0.1-0.1
								c-0.1-0.1-0.2-0.3-0.3-0.4l0,0l0,0l0,0l0,0c0,0,0,0-0.1-0.1l0,0c0.1,0,0.1,0,0.2,0c0.2,0.3,0.4,0.4,0.6,0.5h0.1
								c0,0,0,0,0.1,0c0,0,0,0,0.1,0c0,0,0,0,0.1,0h0.1C828.5,110.1,828.6,110,828.7,109.9z M827.2,110.5c0-0.1-0.1-0.2-0.1-0.3
								c0-0.1-0.1-0.2-0.1-0.3v-0.1l0,0c0-0.1-0.1-0.1-0.1-0.1l0,0c0.1,0,0.1,0,0.2,0.1c0.2,0.5,0.4,0.8,0.5,0.9l0,0
								c0.1,0.1,0.3,0.1,0.4,0.1c0,0,0,0-0.1,0c-0.2,0.1-0.4,0-0.6-0.1C827.3,110.6,827.2,110.6,827.2,110.5
								C827.2,110.6,827.2,110.6,827.2,110.5z M826.7,110.9c0-0.1,0-0.1,0-0.2v-0.1c0,0,0,0,0-0.1l0,0c0-0.2,0-0.3-0.1-0.4
								c0,0,0,0-0.1,0l-0.8-0.1l0,0l0.6-0.1l0,0l0,0c0.2,0,0.3,0.1,0.4,0.3l0,0c0,0.2,0.1,0.4,0.2,0.6c0,0,0,0,0,0.1
								c0.1,0.1,0.2,0.1,0.3,0.1l0,0l-0.1,0.1l0,0C827,111.2,826.9,111.1,826.7,110.9z M826.7,111.3c0,0.2-0.1,0.3-0.3,0.2h-0.1
								c-0.1,0-0.2-0.1-0.2-0.2s-0.1-0.2,0-0.3c-0.3,0-0.4-0.2-0.4-0.6c0,0.3,0.2,0.5,0.4,0.5v-0.1c0-0.1,0-0.1,0.1-0.2
								c0,0,0,0,0-0.1v0.6l0,0c0,0,0,0,0,0.1s0.1,0.2,0.3,0.3l0,0C826.6,111.4,826.7,111.4,826.7,111.3z"/>
							<path class="st33" d="M826.1,111.3c0,0.1,0.1,0.1,0.2,0.2h0.1c0.2,0,0.3,0,0.3-0.2l0,0c0-0.1,0-0.2,0-0.3
								c0.1,0.1,0.3,0.2,0.4,0.2c0,0.3,0,0.5,0,0.7c0.1,0.2,0.1,0.4,0.1,0.6l0,0c0.1,0,0.2,0,0.3,0.1l0,0l0,0l0,0c0,0,0.1,0,0.1-0.1
								l0,0c0.1,0,0.1-0.1,0.2-0.1c0.1-0.1,0.1-0.1,0.2-0.2c0-0.1,0-0.3,0.1-0.4c0,0,0-0.1,0.1-0.1c0.2-0.4,0.4-0.5,0.6-0.4
								c0.1,0,0.1,0.2,0.1,0.4c0,0.1,0,0.2-0.1,0.3l0,0c0,0,0,0,0,0.1c-0.1,0.2-0.1,0.3-0.1,0.5c0,0.1-0.1,0.3-0.3,0.5
								c-0.1,0.1-0.1,0.1-0.2,0.2c-0.1,0.1-0.2,0.2-0.3,0.3c-0.1,0.6-0.4,1-0.7,1.3l0,0v0.1c0,0,0,0-0.1,0.1
								c-0.2,0.2-0.5,0.3-0.7,0.2c0.1-0.1,0.2-0.1,0.2-0.2c0.1-0.2,0.2-0.4,0.3-0.8c0.1-0.6,0-1.1-0.4-1.5c0,0,0-0.1-0.1-0.1
								l-0.1-0.1l0,0l0,0l0,0C826.2,112.2,826.1,111.8,826.1,111.3z"/>
						</g>
					</g>
				</g>
			</g>
		</g>
		<path class="st7" d="M1035.4,141.6c0,1.1-2,2-6.1,2.8c-4.1,0.7-9.1,1.1-15,1.1c-5.7,0-10.7-0.4-14.8-1.1c-4.1-0.8-6.1-1.7-6.1-2.8
			s2-2,6.1-2.8s9.1-1.2,14.8-1.2c5.8,0,10.8,0.4,15,1.2C1033.4,139.6,1035.4,140.5,1035.4,141.6z"/>
		<g>
			<g>
				<g>
					
						<linearGradient id="SVGID_3_" gradientUnits="userSpaceOnUse" x1="-8709.2158" y1="9498.6211" x2="-8685.666" y2="9498.6211" gradientTransform="matrix(0.2 0 0 -0.2 2750.123 2038.9742)">
						<stop  offset="0" style="stop-color:#509EAD"/>
						<stop  offset="1" style="stop-color:#3C8796"/>
					</linearGradient>
					<path class="st48" d="M1012,136.2h0.9l0.1,1.7c0,1.3-0.2,2.5-0.6,3.5c-0.1,0.4-0.4,0.7-0.8,0.8c-0.2,0.1-0.6,0.1-1.2,0.1
						c-0.5,0-1,0-1.4-0.2c-0.5-0.2-0.8-0.5-0.8-0.8c0-0.7,0.3-1.2,1.1-1.5c0.8-0.2,1.3-0.3,1.4-0.5c0.4-0.6,0.8-1.3,1-2.1
						L1012,136.2z"/>
					<path class="st49" d="M1011.9,136.8l1.1,0.1c0.1,0.4,0,1-0.1,2c-0.1,1.1-0.2,1.4-0.2,0.9c0-0.4-0.1-1.1-0.4-1.9L1011.9,136.8z"
						/>
					<path class="st49" d="M1008.7,141.3c0.3,0.3,0.7,0.5,1.1,0.5c0.5,0.1,1,0.1,1.4,0.1c0.5,0,0.9-0.2,1-0.4
						c0.3-0.3,0.3-0.3-0.1,0.2c-0.2,0.2-0.4,0.3-0.7,0.4c-0.3,0.1-0.5,0.1-0.7,0.1c-0.3,0-0.7,0-1.2,0c-1.1-0.1-1.6-0.6-1.4-1.4
						C1008.4,141,1008.5,141.1,1008.7,141.3z"/>
				</g>
				
					<linearGradient id="SVGID_4_" gradientUnits="userSpaceOnUse" x1="-12288.5137" y1="717.2784" x2="-12188.8516" y2="717.2784" gradientTransform="matrix(0.1491 0.1333 0.1333 -0.1491 2742.6179 1856.5114)">
					<stop  offset="0" style="stop-color:#509EAD"/>
					<stop  offset="1" style="stop-color:#3C8796"/>
				</linearGradient>
				<path class="st50" d="M1024.7,99.7c6,4,9.8,9.1,11.4,15.4c3.7,14.6-3.8,21.9-22.6,21.9c-8.6,0-14.7-1.4-18.2-4.1
					c-4.1-3.2-5.3-8.7-3.7-16.6c0.7-3.3,1.8-6.3,3.3-8.8c1.2-2.1,2.8-4,4.8-5.8c1.1-1,2.9-2.4,5.3-4.2c2.3-1.7,3.9-3,5-4
					c0.5-0.5,0.8-1.2,0.9-2c0.1-1.1,0.2-1.8,0.4-2.2c0.3-0.5,0.6-0.9,0.7-1.1c0.3-0.4,0.4-1,0.5-1.9l0.5,0.8
					c0.3,0.7,0.3,1.5,0.1,2.3c-0.1,0.6-0.1,1.3,0.2,2c0.2,0.5,0.5,1.2,1,1.9c0.5,0.7,1.8,1.6,3.9,2.7
					C1021.5,97.7,1023.6,98.9,1024.7,99.7z"/>
				
					<linearGradient id="SVGID_5_" gradientUnits="userSpaceOnUse" x1="-12043.2773" y1="3266.3479" x2="-11886.8438" y2="3266.3479" gradientTransform="matrix(0.1716 0.1027 0.1027 -0.1716 2731.5261 1903.7208)">
					<stop  offset="0" style="stop-color:#5AB5BF"/>
					<stop  offset="1" style="stop-color:#4B96A2"/>
				</linearGradient>
				<path class="st51" d="M1037,117.7c0.4,2.6,0.3,5.1-0.3,7.7c-0.4,1.7-1.1,3.2-1.9,4.6c-5.2,2.8-10.9,4.4-17.1,4.9
					c-4.1,0.3-8.6,0.1-13.6-0.6c-2.5-0.4-5.1-1.5-7.6-3.4c-1.9-1.5-3.7-3.3-5.4-5.4c-0.1-1.1-0.1-2.3-0.1-3.5c0-1.3,0.1-2.4,0.2-3.3
					c0.8-5.9,3.2-11,7-15.2c1.4-1.6,3.2-3.2,5.3-4.8c0,0,1.9-1.4,5.5-4c1.2-0.8,1.8-1.7,1.9-2.5c0-0.9,0.1-1.7,0.3-2.3
					c0.3-0.6,0.6-1,0.7-1.2c0.3-0.4,0.4-1.1,0.5-2.1l0.1,0.1c0.1,0.1,0.2,0.3,0.3,0.5c0.3,0.6,0.3,1.6,0.2,2.8
					c-0.1,0.7,0,1.5,0.3,2.2c0.3,0.7,0.7,1.3,1.3,1.8c0.6,0.6,2.2,1.6,4.8,2.9c2.9,1.5,5.1,2.9,6.7,4.1
					C1032.3,105.1,1035.8,110.7,1037,117.7z"/>
				<path class="st52" d="M1026.8,129c0,1.8-1.3,3-3.8,3.8c-1.5,0.5-2.6,0.8-3.4,0.9c-1.4,0.2-3.4,0.3-6,0.3s-4.6-0.1-6-0.4
					c-0.1,0-1.2-0.3-3.3-0.9c-2.6-0.7-3.8-1.9-3.8-3.8c0-1.1,0.4-2,1.1-2.8c0.8-0.8,1.7-1.2,2.7-1c1.5,0.3,2.7,0.6,3.7,0.7
					c1.7,0.3,3.6,0.5,5.6,0.5c1.6,0,3.4-0.2,5.4-0.5c2.7-0.5,4.1-0.7,4.1-0.7c1-0.1,1.9,0.2,2.7,1
					C1026.5,127,1026.8,127.9,1026.8,129z"/>
				<path class="st53" d="M1026.4,127.1c0.4,0.8,0.5,1.5,0.5,2.2c0,0.5-0.2,0.9-0.5,1.3c-1.1,1.8-3.9,2.8-8.5,3.3
					c-2,0.2-4.1,0.2-6.2,0.1c-0.9,0-2-0.1-3.4-0.3c-3.4-0.4-5.7-1.2-7-2.5c-0.6-0.6-0.9-1.2-0.9-1.8c0.3,0.3,0.7,0.7,1.3,1.1
					c1.2,0.8,2.7,1.5,4.5,1.9c2.2,0.5,4.3,0.8,6.4,0.9c2,0.1,4,0,6.2-0.3c2.9-0.4,5.1-1.2,6.5-2.5c0.5-0.5,0.9-1.2,1-2.2
					L1026.4,127.1z"/>
				<path class="st54" d="M1023.9,125.6c-0.5,0.1-0.9,0.1-1.2,0.2c-0.9,0.2-1.9,0.4-3.1,0.7c-0.7,0.2-1.6,0.3-2.5,0.5
					c-1.5,0.2-2.8,0.3-4.1,0.2c-1.9-0.1-3.5-0.2-4.9-0.5c-1-0.2-1.8-0.4-2.4-0.6c-0.7-0.3-1.5-0.3-2.4-0.1c-0.7,0.2-1.5,0.5-2.4,1
					c0.2-0.5,0.5-0.9,1-1.2c1-0.7,2.3-0.8,3.8-0.3c1.2,0.4,2.9,0.7,4.9,0.9c1.6,0.1,3.2,0.1,4.6,0c1.2-0.1,2.4-0.2,3.7-0.4
					c0.9-0.2,1.7-0.3,2.3-0.5c0.9-0.2,1.7-0.3,2.5-0.2c0.7,0.1,0.9,0.2,0.7,0.3C1024.6,125.5,1024.3,125.5,1023.9,125.6z"/>
				<path class="st55" d="M1003.8,128.4c1.4,0.9,3.3,1.5,5.6,1.9c4.3,0.8,8.9,0.4,14-1.2c0.1,0,0.1,0,0.2,0l0.1,0.1
					c0,0.1,0,0.1,0,0.2l-0.1,0.1c-2,0.7-3.6,1.2-4.9,1.5c-1.5,0.3-3.1,0.5-4.8,0.5c-3.8,0-7.2-0.9-10.1-2.8l-0.1-0.1
					C1003.7,128.5,1003.7,128.5,1003.8,128.4v-0.1C1003.7,128.3,1003.8,128.3,1003.8,128.4z"/>
				<path class="st56" d="M1003.5,128.4c0.7,0.5,1.6,0.9,2.8,1.4c2.4,0.9,4.9,1.4,7.5,1.3c2,0,3.7-0.2,5.1-0.5
					c0.4-0.1,1.9-0.6,4.7-1.4c0,0,0,0,0,0.1s-0.1,0.1-0.1,0.2c-0.9,0.4-2.2,0.8-3.8,1.2c-2.2,0.5-4.2,0.8-6,0.8
					c-2.1,0-3.9-0.2-5.5-0.7c-1.5-0.4-3-1.1-4.6-2c-0.1-0.1-0.2-0.2-0.2-0.2C1003.5,128.5,1003.5,128.4,1003.5,128.4z"/>
				
					<linearGradient id="SVGID_6_" gradientUnits="userSpaceOnUse" x1="-12108.0791" y1="2505.2686" x2="-12043.3379" y2="2505.2686" gradientTransform="matrix(0.1652 0.1127 0.1127 -0.1652 2734.6074 1888.5724)">
					<stop  offset="0" style="stop-color:#509EAD"/>
					<stop  offset="1" style="stop-color:#3C8796"/>
				</linearGradient>
				<path class="st57" d="M1029.9,109.9c-0.8-2.1-1.9-4-3.1-5.6c-0.7-1-2.8-2.9-6.2-5.8l-4.4-3.8c6.4,2.8,11.4,6.2,15,10.2
					c3.8,4.3,5.8,9.1,6.1,14.4c0.2,4.5-0.6,8.1-2.5,10.7c-0.7,0.9-1.5,1.7-2.4,2.4c-0.4,0.3-1.1,0.7-2,1.3c-1.4,0.8-2.2,0.9-2.4,0.2
					c-0.1-0.3,0-0.6,0.1-1c0.2-0.4,0.5-0.8,0.9-1.2c0.9-0.8,1.6-1.9,2.1-3.5c0.7-2,1-4.3,1-7
					C1031.9,117.2,1031.2,113.4,1029.9,109.9z"/>
				
					<linearGradient id="SVGID_7_" gradientUnits="userSpaceOnUse" x1="-11174.3281" y1="-4965.5229" x2="-11123.9648" y2="-4965.5229" gradientTransform="matrix(7.950000e-02 0.1835 0.1835 -7.950000e-02 2798.8647 1762.0052)">
					<stop  offset="0" style="stop-color:#71BCC5"/>
					<stop  offset="1" style="stop-color:#55ACB7"/>
				</linearGradient>
				<path class="st58" d="M1000.5,103.4c-1.1,1.5-2,3.4-2.7,5.6c-1.1,3.5-1.5,7.6-1.3,12.3c0.1,2.3,0.6,4.9,1.5,7.8
					c0.2,0.7,0.5,1.5,0.8,2.4c0.2,0.6,0.2,0.8,0.1,0.8c-0.9-0.4-1.9-1-2.9-1.9c-0.8-0.7-1.6-1.4-2.2-2.1c-0.7-0.8-1.1-1.2-1.1-1.3
					c-0.4-0.5-0.7-1-0.9-1.6c-0.6-1.4-0.7-3.3-0.5-5.8c0.5-5.3,2.2-9.8,4.9-13.6c2.8-3.9,7.3-7.9,13.6-12.1c0.1-0.1-1.1,1.1-3.7,3.6
					C1003.1,100.5,1001.3,102.4,1000.5,103.4z"/>
				<path class="st59" d="M1012.7,86.3c0.1,0.1,0.3,0.3,0.4,0.5c0.3,0.4,0.4,0.9,0.4,1.4c0,0.4,0,0.7-0.1,0.9c0,0.1,0,0.3-0.1,0.6
					c-0.1,0.6,0,1.3,0.3,2c0.5,1.3,1.5,2.3,2.9,3.2c0.1,0.1,0.1,0.1-0.1,0.1c-0.2,0-0.5-0.1-0.9-0.2c-1-0.4-1.6-0.8-2-1.3
					c-0.1-0.1-0.2-0.3-0.4-0.5c-0.2-0.3-0.3-0.5-0.4-0.8c-0.3-0.9-0.3-2,0-3.4c0.2-0.8,0.2-1.4,0.1-1.9L1012.7,86.3z"/>
				
					<linearGradient id="SVGID_8_" gradientUnits="userSpaceOnUse" x1="-8750.9033" y1="9634.8711" x2="-8617.9033" y2="9634.8711" gradientTransform="matrix(0.2 0 0 -0.2 2750.123 2038.9742)">
					<stop  offset="0" style="stop-color:#58B3BD"/>
					<stop  offset="1" style="stop-color:#4993A2"/>
				</linearGradient>
				<path class="st60" d="M1022.7,102.6c2.6,2.6,3.9,5.7,3.9,9.4c0,3.7-1.3,6.8-3.9,9.4s-5.7,3.9-9.4,3.9c-3.7,0-6.8-1.3-9.4-3.9
					c-2.6-2.6-3.9-5.7-3.9-9.4c0-3.7,1.3-6.8,3.9-9.4s5.7-3.9,9.4-3.9C1016.9,98.7,1020.1,100,1022.7,102.6z"/>
				
					<linearGradient id="SVGID_9_" gradientUnits="userSpaceOnUse" x1="14256.8398" y1="-2341.2949" x2="14322.832" y2="-2341.2949" gradientTransform="matrix(-0.1722 -0.1017 -0.1017 0.1722 3239.4744 1970.5978)">
					<stop  offset="0" style="stop-color:#58B3BD"/>
					<stop  offset="1" style="stop-color:#4993A2"/>
				</linearGradient>
				<path class="st61" d="M1021.7,103.5c2.3,2.3,3.5,5.2,3.5,8.5s-1.2,6.1-3.5,8.5c-2.3,2.3-5.2,3.5-8.5,3.5c-3.3,0-6.1-1.2-8.5-3.5
					c-2.3-2.3-3.5-5.2-3.5-8.5s1.2-6.1,3.5-8.5c2.3-2.3,5.2-3.5,8.5-3.5C1016.6,100,1019.4,101.2,1021.7,103.5z"/>
				<g>
					<g>
						
							<linearGradient id="SVGID_10_" gradientUnits="userSpaceOnUse" x1="-8647.6465" y1="9498.6211" x2="-8671.1953" y2="9498.6211" gradientTransform="matrix(0.2 0 0 -0.2 2750.123 2038.9742)">
							<stop  offset="0" style="stop-color:#509EAD"/>
							<stop  offset="1" style="stop-color:#3C8796"/>
						</linearGradient>
						<path class="st62" d="M1016.8,136.2l0.3,1c0.3,0.8,0.6,1.5,1.1,2.1c0.1,0.1,0.2,0.2,0.5,0.3c0.5,0.1,0.8,0.2,0.8,0.2
							c0.7,0.3,1.1,0.8,1.1,1.5c0,0.4-0.3,0.7-0.8,0.8c-0.4,0.1-0.9,0.2-1.4,0.2c-0.6,0-1-0.1-1.2-0.1c-0.4-0.1-0.6-0.4-0.8-0.8
							c-0.3-1-0.5-2.2-0.6-3.5v-1.7H1016.8z"/>
						<path class="st49" d="M1020.6,140.9c0.2,0.8-0.3,1.3-1.4,1.4c-0.5,0-0.9,0.1-1.2,0c-0.2,0-0.4-0.1-0.7-0.1
							c-0.4-0.1-0.7-0.3-0.8-0.6c0.2,0.2,0.5,0.3,1,0.4c0.4,0,0.9,0,1.4-0.1c0.4-0.1,0.8-0.3,1.1-0.5L1020.6,140.9z"/>
					</g>
					<path class="st49" d="M1015.9,137c0.2,0,0.4,0,0.6,0c0.4,0,0.6,0,0.6,0c0.1,0.5,0.4,1.1,0.7,1.7l0.4,0.7L1015.9,137z"/>
				</g>
				<path class="st63" d="M1028.5,122.6c0,0.3-0.1,0.6-0.4,0.9c-0.2,0.2-0.5,0.4-0.9,0.4c-0.3,0-0.6-0.1-0.9-0.4
					c-0.2-0.2-0.4-0.5-0.4-0.9c0-0.3,0.1-0.6,0.4-0.9c0.2-0.2,0.5-0.4,0.9-0.4c0.3,0,0.6,0.1,0.9,0.4S1028.5,122.3,1028.5,122.6z"/>
				<g>
					<path class="st53" d="M1020.3,126.6c0.5,0.3,0.9,0.8,1.3,1.5c0.5,0.7,0.5,1.3,0.2,1.6c-0.2,0.2-0.4,0.3-0.7,0.3
						c-0.2-0.5-0.3-1-0.5-1.5c-0.4-1.1-0.7-1.8-1-2.1C1019.8,126.4,1020,126.5,1020.3,126.6z"/>
					<g>
						<path class="st9" d="M1018.1,130.8c0.3-0.2,0.5-0.5,0.8-1c0.5-0.9,0.7-1.8,0.6-2.9c-0.1-0.5,0.1-0.6,0.3-0.5
							c0.2,0.1,0.5,0.5,0.9,1s0.6,1,0.8,1.4c0.2,0.5,0.2,0.9,0,1c-0.3,0.2-0.9,0.5-1.9,0.7C1019,130.6,1018.6,130.7,1018.1,130.8z"
							/>
						<path class="st64" d="M1021.2,128.1c0.2,0.3,0.3,0.6,0.4,0.9c0.1,0.2,0.1,0.4,0,0.6c0,0.1-0.2,0.3-0.5,0.4
							c-0.1,0.1-0.3,0.1-0.4,0.1c0.2-0.4,0.2-0.9,0.2-1.3c-0.1-0.5-0.3-1.1-0.7-1.8c-0.2-0.3-0.4-0.6-0.6-0.8
							C1020,126.4,1020.5,127,1021.2,128.1z"/>
					</g>
				</g>
				<g>
					<path class="st53" d="M1007.1,130c0,0-0.1,0-0.2,0c-0.2,0-0.3-0.1-0.4-0.2c-0.3-0.3-0.3-0.9,0.2-1.6c0.4-0.6,0.8-1.1,1.3-1.5
						l0.6-0.3c-0.3,0.4-0.6,1.1-1,2.1C1007.4,129,1007.2,129.5,1007.1,130z"/>
					<g>
						<path class="st9" d="M1006.7,129.8c-0.2-0.1-0.2-0.5,0-1c0.2-0.5,0.4-0.9,0.8-1.4c0.3-0.5,0.6-0.8,0.9-1
							c0.3-0.1,0.4,0,0.3,0.5c-0.1,1.1,0.1,2.1,0.6,2.9c0.2,0.3,0.3,0.5,0.5,0.7l0.3,0.2l-1.4-0.3
							C1007.6,130.3,1007,130,1006.7,129.8z"/>
						<path class="st64" d="M1007,128.1c0.7-1.1,1.2-1.7,1.5-1.8l-0.5,0.8c-0.4,0.6-0.6,1.2-0.7,1.8c0,0.4,0,0.8,0.2,1.3l-0.4-0.1
							c-0.3-0.1-0.4-0.3-0.5-0.4c0-0.2,0-0.4,0.1-0.6C1006.7,128.7,1006.8,128.4,1007,128.1z"/>
					</g>
				</g>
			</g>
			<g>
				<path class="st9" d="M1013.2,100.5c3.2,0,5.9,1.1,8.1,3.3c2.2,2.2,3.4,4.9,3.4,8.1s-1.1,5.9-3.4,8.1c-2.2,2.2-4.9,3.4-8.1,3.4
					s-5.9-1.1-8.1-3.4c-2.2-2.2-3.4-4.9-3.4-8.1s1.1-5.9,3.4-8.1C1007.3,101.6,1010,100.5,1013.2,100.5z"/>
				<path class="st65" d="M1006.7,105.8L1006.7,105.8c1.8-2.5,4.2-3.6,7.2-3.5l0,0c0.3,0,0.6,0,0.9,0.1c2.8,0.4,5,2,6.6,4.7l0,0
					c1.1,2.1,1.5,4.5,1.4,7l0,0l-0.1,0.6c-0.1,0.5-0.1,1-0.2,1.4l0,0c0,0.1,0,0.2-0.1,0.3c0,0.1-0.1,0.2-0.1,0.2
					c-0.1,0.1-0.2,0.1-0.3,0.1s-0.2-0.1-0.2-0.1c-0.1-0.1-0.1-0.2-0.1-0.3c0-0.1,0-0.2,0.1-0.3c0.1-0.5,0.1-1,0.2-1.4l0.1-0.7
					c0.1-2.4-0.3-4.6-1.3-6.6c-1.5-2.5-3.5-4-6.1-4.4c-0.3,0-0.5-0.1-0.8-0.1l0,0c-2.7-0.1-4.9,0.9-6.5,3.1l0,0
					c-0.1,0.2-0.2,0.4-0.3,0.5l0,0c-0.5,1-1,2-1.3,3.1c-0.2,0.9-0.4,1.6-0.4,2.1c0,2.6,0.8,4.8,2.4,6.5c1.5,1.6,3.2,2.4,5.2,2.4
					c2.1,0,3.7-0.7,5-2.1c1.4-1.5,2.1-3.6,2.1-6.2c0-2-0.8-3.7-2.5-5.1c-1.3-1.1-2.5-1.6-3.7-1.6c-1.7,0-3.1,0.6-4.2,1.9
					c-1.1,1.3-1.7,3.1-1.7,5.3c0,1.8,0.6,3.2,1.9,4.2l0,0c1,0.7,2.1,1.1,3.3,1.1c1.5,0,2.7-0.4,3.6-1.3l0,0c0.9-0.9,1.4-2.3,1.4-4
					c0-1.4-0.4-2.5-1.3-3.2c-0.8-0.7-1.9-1-3.2-1c-1,0-1.7,0.4-2.3,1.3s-0.8,1.9-0.8,3.1c0,0.9,0.3,1.6,1,2.1l0,0
					c0.5,0.4,1.2,0.6,1.9,0.6c1.6,0,2.4-1.1,2.4-3.1c0-1.4-0.7-2.1-2.2-2.1c-0.4,0-0.8,0.2-1,0.6l0,0c-0.2,0.3-0.3,0.8-0.3,1.2
					c0,0.5,0.1,0.8,0.3,1l0,0c0.2,0.1,0.4,0.2,0.8,0.2c0.2,0,0.3,0,0.4-0.1l0,0c0-0.1,0.1-0.3,0.1-0.6c0-0.2,0-0.4,0-0.4l0,0
					c0-0.1-0.1-0.2-0.2-0.2c-0.1-0.1-0.1-0.1-0.2-0.2c0-0.1,0-0.2,0.1-0.3c0.1-0.1,0.1-0.1,0.2-0.2c0.1,0,0.2,0,0.3,0.1
					c0.3,0.2,0.5,0.4,0.5,0.7c0,0.1,0,0.3,0,0.6c0,0.5,0,0.8-0.1,0.9l0,0c-0.1,0.3-0.5,0.5-1.1,0.5s-1-0.1-1.3-0.4l0,0
					c-0.3-0.3-0.5-0.8-0.5-1.6c0-0.6,0.1-1.1,0.3-1.6l0,0c0.4-0.7,0.9-1,1.6-1c2,0,3,1,3,2.9c0,2.6-1.1,3.9-3.2,3.9
					c-0.9,0-1.7-0.3-2.3-0.8l0,0c-0.8-0.6-1.2-1.5-1.2-2.6c0-1.4,0.3-2.6,1-3.6c0.7-1.1,1.7-1.7,3-1.7c1.6,0,2.8,0.4,3.7,1.2
					c1,0.9,1.5,2.1,1.5,3.8c0,2-0.5,3.5-1.6,4.6l0,0c-1,1-2.4,1.5-4.1,1.5c-1.4,0-2.7-0.4-3.8-1.3l0,0c-1.4-1.1-2.1-2.7-2.1-4.7
					c0-2.4,0.6-4.4,1.9-5.8c1.2-1.4,2.8-2.1,4.8-2.1c1.3,0,2.7,0.6,4.1,1.8c1.8,1.5,2.7,3.4,2.7,5.6c0,2.8-0.8,5.1-2.3,6.7
					c-1.4,1.5-3.3,2.3-5.6,2.3c-2.2,0-4.1-0.9-5.8-2.6c-1.7-1.8-2.6-4.2-2.6-7c0-0.6,0.1-1.4,0.4-2.3c0.3-1.2,0.8-2.3,1.4-3.3l0,0
					C1006.4,106.2,1006.5,106,1006.7,105.8z"/>
			</g>
		</g>
		
			<linearGradient id="SVGID_11_" gradientUnits="userSpaceOnUse" x1="-4319.0327" y1="7925.7993" x2="-4003.4382" y2="7925.7993" gradientTransform="matrix(0.2969 0 0 -0.25 2137.3208 2095.5498)">
			<stop  offset="0" style="stop-color:#FFFFFF;stop-opacity:0"/>
			<stop  offset="1" style="stop-color:#FFFFFF"/>
		</linearGradient>
		<path class="st66" d="M946.4,111.8c0.6,0.1,1.1,0.3,1.5,0.7c0.5,0.5,0.8,1,0.8,1.6s-0.3,1.2-0.8,1.6c-0.5,0.5-1.2,0.7-1.9,0.7
			l-91-2.3L946.4,111.8z"/>
		
			<linearGradient id="SVGID_12_" gradientUnits="userSpaceOnUse" x1="-4002.4578" y1="7865" x2="-3785.7595" y2="7865" gradientTransform="matrix(0.3091 0 0 -0.25 2156.7693 2074.75)">
			<stop  offset="0" style="stop-color:#FFFFFF;stop-opacity:0"/>
			<stop  offset="1" style="stop-color:#FFFFFF"/>
		</linearGradient>
		<path class="st67" d="M986.6,108.5c0,0.6-0.3,1.2-0.8,1.6c-0.6,0.5-1.2,0.7-2,0.7l-64.1-2.6l64.1-2c0.8,0,1.5,0.2,2,0.7
			C986.3,107.3,986.6,107.9,986.6,108.5z"/>
		<g>
			
				<linearGradient id="SVGID_13_" gradientUnits="userSpaceOnUse" x1="-3265.5398" y1="7839.999" x2="-3146.3455" y2="7839.999" gradientTransform="matrix(0.3465 0 0 -0.25 1964.6096 2080.0498)">
				<stop  offset="0" style="stop-color:#FFFFFF;stop-opacity:0"/>
				<stop  offset="1" style="stop-color:#FFFFFF"/>
			</linearGradient>
			<path class="st68" d="M871.8,117.9c0.6,0.1,1.2,0.3,1.6,0.6c0.6,0.5,0.9,1,0.9,1.6l0,0c0,0.6-0.3,1.2-0.9,1.6
				c-0.5,0.3-1,0.6-1.6,0.6l-38.7-2.2l38.5-2.3C871.7,117.9,871.7,117.9,871.8,117.9z"/>
			
				<linearGradient id="SVGID_14_" gradientUnits="userSpaceOnUse" x1="-3364.4954" y1="7839.3994" x2="-3048.7859" y2="7839.3994" gradientTransform="matrix(0.3465 0 0 -0.25 1964.6096 2080.0498)">
				<stop  offset="0" style="stop-color:#FFFFFF;stop-opacity:0"/>
				<stop  offset="1" style="stop-color:#FFFFFF"/>
			</linearGradient>
			<path class="st69" d="M871.8,117.9c-0.1,0-0.2,0-0.2,0c-0.1,0-0.2,0-0.2,0H871.8L871.8,117.9z M871.8,122.5L871.8,122.5h-0.4
				C871.5,122.5,871.7,122.5,871.8,122.5z"/>
		</g>
		<g>
			<path class="st9" d="M1030.2,87c5,0.8,7.4,1.9,7.4,3.2c0.1,1.3-2.4,2.4-7.4,3.2c-4.7,0.8-10.4,1.2-17.1,1.2s-12.4-0.4-17.1-1.2
				c-5-0.8-7.4-1.9-7.4-3.2c-0.1-1.3,2.4-2.4,7.4-3.2c4.7-0.8,10.4-1.2,17.1-1.2S1025.5,86.2,1030.2,87z M1036.8,90.2
				c-0.1-0.9-2.3-1.7-6.8-2.5c-4.7-0.8-10.3-1.2-17-1.2c-6.6,0-12.3,0.4-17,1.2c-4.4,0.7-6.7,1.6-6.7,2.5c0.1,0.9,2.3,1.7,6.7,2.5
				c4.7,0.8,10.4,1.2,17,1.2s12.3-0.4,17-1.2C1034.5,92,1036.8,91.2,1036.8,90.2z"/>
			<path class="st9" d="M1030.2,89c5,0.8,7.4,1.9,7.4,3.2c0.1,1.3-2.4,2.4-7.4,3.2c-4.7,0.8-10.4,1.2-17.1,1.2s-12.4-0.4-17.1-1.2
				c-5-0.8-7.4-1.9-7.4-3.2c-0.1-1.3,2.4-2.4,7.4-3.2c4.7-0.8,10.4-1.2,17.1-1.2S1025.5,88.2,1030.2,89z M1036.8,92.2
				c-0.1-0.9-2.3-1.7-6.8-2.5c-4.7-0.8-10.3-1.2-17-1.2c-6.6,0-12.3,0.4-17,1.2c-4.4,0.7-6.7,1.6-6.7,2.5c0.1,0.9,2.3,1.7,6.7,2.5
				c4.7,0.8,10.4,1.2,17,1.2s12.3-0.4,17-1.2C1034.5,94,1036.8,93.2,1036.8,92.2z"/>
			<polygon class="st70" points="1007.8,87.7 1005,88.6 1005,91.5 1003.3,89.2 1000.6,90 1002.3,87.7 1000.6,85.3 1003.3,86.2 
				1005,83.9 1005,86.8 			"/>
			<polygon class="st70" points="1031.2,86.9 1029.8,87.3 1029.8,88.8 1029,87.6 1027.6,88.1 1028.5,86.9 1027.6,85.7 1029,86.2 
				1029.8,85 1029.8,86.4 			"/>
			<polygon class="st70" points="1028.2,96.1 1026.1,96.8 1026.1,99 1024.8,97.2 1022.7,97.9 1024,96.1 1022.7,94.4 1024.8,95 
				1026.1,93.3 1026.1,95.5 			"/>
			<polygon class="st70" points="995,94.3 994,94.6 994,95.7 993.3,94.8 992.3,95.2 992.9,94.3 992.3,93.4 993.3,93.7 994,92.9 
				994,94 			"/>
		</g>
	</g>
</g>
</svg>
