<?xml version="1.0" encoding="utf-8"?>
<!-- Generator: Adobe Illustrator 19.0.0, SVG Export Plug-In . SVG Version: 6.00 Build 0)  -->
<svg version="1.1" id="图层_1" xmlns="http://www.w3.org/2000/svg" xmlns:xlink="http://www.w3.org/1999/xlink" x="0px" y="0px"
	 viewBox="0 0 1024 100" style="enable-background:new 0 0 1024 100;" xml:space="preserve">
<style type="text/css">
	.st0{fill:#081842;}
	.st1{fill-rule:evenodd;clip-rule:evenodd;fill:url(#XMLID_9_);}
	.st2{fill-rule:evenodd;clip-rule:evenodd;fill:url(#XMLID_10_);}
	.st3{fill-rule:evenodd;clip-rule:evenodd;fill:#183262;}
	.st4{fill-rule:evenodd;clip-rule:evenodd;fill:#0F2142;}
	.st5{fill-rule:evenodd;clip-rule:evenodd;fill:#726841;}
	.st6{fill-rule:evenodd;clip-rule:evenodd;fill:#8EBB42;}
	.st7{fill-rule:evenodd;clip-rule:evenodd;fill:#11264E;}
	.st8{fill-rule:evenodd;clip-rule:evenodd;fill:#0B1B33;}
	.st9{fill-rule:evenodd;clip-rule:evenodd;fill:#FFFFFF;}
	.st10{fill-rule:evenodd;clip-rule:evenodd;fill:#152E5B;}
	.st11{fill-rule:evenodd;clip-rule:evenodd;fill:#0A1738;}
	.st12{fill-rule:evenodd;clip-rule:evenodd;fill:#3A89B7;}
	.st13{fill-rule:evenodd;clip-rule:evenodd;fill:#EAECEE;}
	.st14{fill-rule:evenodd;clip-rule:evenodd;fill:#DDDFE1;}
	.st15{fill-rule:evenodd;clip-rule:evenodd;fill:#E6E9EC;}
	.st16{fill-rule:evenodd;clip-rule:evenodd;fill:#F0F3F6;}
	.st17{fill-rule:evenodd;clip-rule:evenodd;fill:#FCFDFF;}
	.st18{fill-rule:evenodd;clip-rule:evenodd;fill:url(#XMLID_11_);}
	.st19{fill-rule:evenodd;clip-rule:evenodd;fill:#E17638;}
	.st20{fill-rule:evenodd;clip-rule:evenodd;fill:#EB9D3F;}
	.st21{fill-rule:evenodd;clip-rule:evenodd;fill:#5FAADB;}
	.st22{fill-rule:evenodd;clip-rule:evenodd;fill:#459A57;}
	.st23{fill-rule:evenodd;clip-rule:evenodd;fill:#7D848B;}
	.st24{fill-rule:evenodd;clip-rule:evenodd;fill:#802A7C;}
	.st25{fill-rule:evenodd;clip-rule:evenodd;fill:#DA423E;}
	.st26{fill-rule:evenodd;clip-rule:evenodd;fill:#9C50D6;}
	.st27{fill-rule:evenodd;clip-rule:evenodd;fill:#FCB5A0;}
	.st28{fill-rule:evenodd;clip-rule:evenodd;fill:#F98E75;}
	.st29{fill-rule:evenodd;clip-rule:evenodd;fill:#E9DFDF;}
	.st30{fill-rule:evenodd;clip-rule:evenodd;fill:#351504;}
	.st31{fill-rule:evenodd;clip-rule:evenodd;fill:#1C1313;}
	.st32{fill-rule:evenodd;clip-rule:evenodd;fill:#432A2A;}
	.st33{fill-rule:evenodd;clip-rule:evenodd;fill:#4F2006;}
	.st34{fill-rule:evenodd;clip-rule:evenodd;fill:#51261B;}
	.st35{fill-rule:evenodd;clip-rule:evenodd;fill:#853825;}
	.st36{fill-rule:evenodd;clip-rule:evenodd;fill:#F08F31;}
	.st37{fill-rule:evenodd;clip-rule:evenodd;fill:#A66C35;}
	.st38{fill-rule:evenodd;clip-rule:evenodd;fill:#C7690E;}
	.st39{fill-rule:evenodd;clip-rule:evenodd;fill:#5F2324;}
	.st40{fill-rule:evenodd;clip-rule:evenodd;fill:#BD4A4D;}
	.st41{fill-rule:evenodd;clip-rule:evenodd;fill:#ECAC99;}
	.st42{fill-rule:evenodd;clip-rule:evenodd;fill:#E2846E;}
	.st43{fill-rule:evenodd;clip-rule:evenodd;fill:#E9E9E9;}
	.st44{fill-rule:evenodd;clip-rule:evenodd;fill:#744F2F;}
	.st45{fill-rule:evenodd;clip-rule:evenodd;fill:#D6D3D7;}
	.st46{fill-rule:evenodd;clip-rule:evenodd;fill:#BBAB9D;}
	.st47{fill-rule:evenodd;clip-rule:evenodd;fill:#0B658C;}
	.st48{fill-rule:evenodd;clip-rule:evenodd;fill:#CDCDCD;}
	.st49{fill-rule:evenodd;clip-rule:evenodd;fill:#E08731;}
	.st50{fill-rule:evenodd;clip-rule:evenodd;fill:#37A6D7;}
	.st51{fill-rule:evenodd;clip-rule:evenodd;fill:#208CBB;}
	.st52{fill-rule:evenodd;clip-rule:evenodd;fill:#2B96C4;}
	.st53{fill-rule:evenodd;clip-rule:evenodd;fill:#8DD2F0;}
	.st54{fill-rule:evenodd;clip-rule:evenodd;fill:#1B9ED7;}
	.st55{fill-rule:evenodd;clip-rule:evenodd;fill:#835934;}
	.st56{fill-rule:evenodd;clip-rule:evenodd;fill:#E6DFE7;}
	.st57{fill-rule:evenodd;clip-rule:evenodd;fill:#CBB8A8;}
	.st58{fill-rule:evenodd;clip-rule:evenodd;fill:#E2E2E2;}
	
		.st59{fill-rule:evenodd;clip-rule:evenodd;fill:none;stroke:#000000;stroke-linecap:round;stroke-linejoin:round;stroke-miterlimit:3;stroke-opacity:0.302;}
</style>
<rect id="XMLID_1_" x="-0.3" y="0" class="st0" width="1024" height="100"/>
<g id="XMLID_3_">
	
		<linearGradient id="XMLID_9_" gradientUnits="userSpaceOnUse" x1="-384.1459" y1="-156.6189" x2="-365.428" y2="-156.6189" gradientTransform="matrix(1.000000e-04 -1 1 -1.000000e-03 335.3572 -333.3344)">
		<stop  offset="0" style="stop-color:#183262"/>
		<stop  offset="4.705880e-02" style="stop-color:#323C56"/>
		<stop  offset="0.1059" style="stop-color:#4E464A"/>
		<stop  offset="0.1725" style="stop-color:#675041"/>
		<stop  offset="0.2471" style="stop-color:#7B573A"/>
		<stop  offset="0.3333" style="stop-color:#8B5D36"/>
		<stop  offset="0.4392" style="stop-color:#966233"/>
		<stop  offset="0.5922" style="stop-color:#9C6432"/>
		<stop  offset="1" style="stop-color:#9E6532"/>
	</linearGradient>
	<path id="XMLID_251_" class="st1" d="M196.6,51l-35.9-0.5c1.1-1.5,2.2-3,3.4-4.7c2.5-3.3,4.7-6,6.7-8.1c3.4-3.6,6.1-5.5,8.1-5.5
		c2.6,0,6.3,3.1,11.2,9.3C192.6,44.7,194.8,47.8,196.6,51z"/>
	
		<linearGradient id="XMLID_10_" gradientUnits="userSpaceOnUse" x1="-383.7901" y1="-182.6872" x2="-357.1153" y2="-182.6872" gradientTransform="matrix(0 -1 1 -1.000000e-03 334.7121 -333.3344)">
		<stop  offset="0" style="stop-color:#183262"/>
		<stop  offset="3.921570e-03" style="stop-color:#193262"/>
		<stop  offset="5.490200e-02" style="stop-color:#384053"/>
		<stop  offset="0.1137" style="stop-color:#544C48"/>
		<stop  offset="0.1804" style="stop-color:#6D573F"/>
		<stop  offset="0.251" style="stop-color:#826039"/>
		<stop  offset="0.3373" style="stop-color:#916735"/>
		<stop  offset="0.4471" style="stop-color:#9C6C33"/>
		<stop  offset="0.5922" style="stop-color:#A36E32"/>
		<stop  offset="1" style="stop-color:#A46F32"/>
	</linearGradient>
	<path id="XMLID_250_" class="st2" d="M152.4,24c3.7,0,9,4.5,16,13.3c3.5,4.5,6.6,8.9,9.3,13.4L126.4,50c1.5-2.1,3.2-4.3,4.9-6.7
		c3.5-4.8,6.7-8.6,9.5-11.6C145.7,26.5,149.5,24,152.4,24z"/>
	<path id="XMLID_249_" class="st3" d="M912.5,47.3c39.8,0.7,77,1.7,111.5,2.9v35.6l-258.3,7L0,86.2V47.5
		c109.4,1.7,222.8,3.1,340.3,4.1c235,1.9,372.6,1,413-2.8C779.8,46.4,832.9,45.9,912.5,47.3z"/>
	<g id="XMLID_240_">
		<path id="XMLID_248_" class="st4" d="M79.1,70.7c0,1.6-1.9,3-5.7,4.1c-3.8,1.2-8.4,1.8-13.7,1.8c-5.3,0-9.9-0.6-13.7-1.8
			c-3.8-1.1-5.7-2.5-5.7-4.1c0-1.6,1.9-3,5.7-4.2c3.8-1.2,8.3-1.8,13.7-1.8s9.9,0.6,13.7,1.8C77.2,67.7,79.1,69.1,79.1,70.7z"/>
		<g id="XMLID_241_">
			<g id="XMLID_245_">
				<path id="XMLID_247_" class="st5" d="M54,57.9c0.4,0.3,0.5,0.8,0.5,1.2v8c0,0.5-0.2,0.9-0.5,1.3c-0.4,0.3-0.8,0.5-1.3,0.5
					s-0.9-0.2-1.2-0.5c-0.4-0.4-0.5-0.8-0.5-1.3v-8c0-0.5,0.2-0.9,0.5-1.2c0.3-0.4,0.8-0.6,1.2-0.6S53.6,57.5,54,57.9z"/>
				<path id="XMLID_246_" class="st6" d="M60.8,53.8c0,2.3-0.8,4-2.3,5.2c-1.4,1.1-3.3,1.6-5.6,1.6c-2.4,0-4.2-0.5-5.6-1.6
					c-1.6-1.2-2.4-2.9-2.4-5.2c0-2.8,0.8-5.7,2.4-8.8c1.7-3.5,3.6-5.2,5.6-5.2c2,0,3.9,1.8,5.6,5.2C60,48.1,60.8,51.1,60.8,53.8z"/>
			</g>
			<g id="XMLID_242_">
				<path id="XMLID_244_" class="st5" d="M65,70.8c0,0.3-0.1,0.5-0.3,0.7c-0.2,0.2-0.5,0.3-0.8,0.3c-0.3,0-0.5-0.1-0.7-0.3
					C63.1,71.2,63,71,63,70.8v-4.5c0-0.3,0.1-0.5,0.3-0.7c0.2-0.2,0.4-0.3,0.7-0.3c0.3,0,0.5,0.1,0.8,0.3C65,65.8,65,66,65,66.3
					V70.8z"/>
				<path id="XMLID_243_" class="st6" d="M68.5,63.3c0,1.3-0.4,2.2-1.3,2.9c-0.8,0.6-1.8,0.9-3.1,0.9c-1.3,0-2.3-0.3-3.1-0.9
					c-0.9-0.6-1.3-1.6-1.3-2.9c0-1.5,0.4-3.2,1.3-4.9c0.9-1.9,2-2.9,3.1-2.9c1.1,0,2.2,1,3.1,2.9C68.1,60.2,68.5,61.8,68.5,63.3z"/>
			</g>
		</g>
	</g>
	<path id="XMLID_239_" class="st7" d="M132.3,72.1c0-1.9,4.5-3.6,13.6-4.9c9.1-1.4,20-2,32.9-2s23.8,0.7,32.9,2
		c9.1,1.3,13.6,3,13.6,4.9c0,1.9-4.5,3.5-13.6,4.9c-9.1,1.3-20.1,2-32.9,2c-12.8,0-23.8-0.7-32.9-2C136.8,75.6,132.3,74,132.3,72.1z
		"/>
	<path id="XMLID_238_" class="st7" d="M666.8,89.7c0,1.1-0.8,2-2.3,2.8c-1.6,0.7-3.5,1.1-5.7,1.1c-2.2,0-4-0.4-5.6-1.1
		c-1.5-0.8-2.3-1.7-2.3-2.8c0-1.1,0.8-2,2.3-2.8c1.6-0.8,3.4-1.2,5.6-1.2c2.2,0,4.1,0.4,5.7,1.2C666,87.7,666.8,88.6,666.8,89.7z"/>
	<path id="XMLID_237_" class="st4" d="M955.3,80.2c39.1-3,62-5.5,68.7-7.4v23.9H0V81.8c40.7-3.2,88.7-5.6,144.2-7.3
		c110.9-3.4,203.4-1.5,277.4,5.7c107.7,10.5,236.4,13.1,386.1,8C861.3,86.3,910.4,83.7,955.3,80.2z"/>
	<path id="XMLID_236_" class="st8" d="M301,90c0,0.6-0.6,1.2-1.9,1.6c-1.3,0.4-2.8,0.7-4.6,0.7c-1.8,0-3.3-0.2-4.6-0.7
		c-1.3-0.4-1.9-1-1.9-1.6c0-0.6,0.6-1.2,1.9-1.6c1.3-0.4,2.8-0.6,4.6-0.6c1.8,0,3.3,0.2,4.6,0.6C300.4,88.8,301,89.3,301,90z"/>
	<path id="XMLID_235_" class="st9" d="M957.5,38.5c0,1.3-0.6,2.4-1.8,3.4c-1.2,0.9-2.6,1.3-4.3,1.3c-1.7,0-3.1-0.5-4.3-1.3
		c-1.2-0.9-1.8-2.1-1.8-3.4s0.6-2.4,1.8-3.3c1.2-0.9,2.6-1.4,4.3-1.4c1.7,0,3.1,0.5,4.3,1.4C956.9,36.2,957.5,37.2,957.5,38.5z"/>
	<path id="XMLID_234_" class="st9" d="M961.5,34.5c0,1.3-0.6,2.4-1.8,3.3c-1.2,0.9-2.6,1.4-4.3,1.4s-3.1-0.5-4.3-1.4
		c-1.2-0.9-1.8-2-1.8-3.3s0.6-2.4,1.8-3.3c1.2-0.9,2.6-1.4,4.3-1.4s3.1,0.5,4.3,1.4C961,32.1,961.5,33.2,961.5,34.5z"/>
	<path id="XMLID_233_" class="st9" d="M962.5,40.5c0,1.3-0.6,2.4-1.8,3.4c-1.2,0.9-2.6,1.3-4.3,1.3s-3.1-0.5-4.3-1.3
		c-1.2-0.9-1.8-2.1-1.8-3.4s0.6-2.4,1.8-3.3c1.2-0.9,2.6-1.4,4.3-1.4s3.1,0.5,4.3,1.4C962,38.2,962.5,39.2,962.5,40.5z"/>
	<path id="XMLID_232_" class="st9" d="M968,36.8c0,1.3-0.6,2.4-1.8,3.4c-1.2,0.9-2.6,1.3-4.3,1.3c-1.7,0-3.1-0.5-4.3-1.3
		c-1.2-0.9-1.8-2-1.8-3.4c0-1.3,0.6-2.4,1.8-3.3c1.2-0.9,2.6-1.4,4.3-1.4c1.7,0,3.1,0.5,4.3,1.4C967.4,34.5,968,35.5,968,36.8z"/>
	<path id="XMLID_231_" class="st9" d="M971.3,40.2c0,1.3-0.6,2.4-1.8,3.3c-1.2,0.9-2.6,1.4-4.3,1.4s-3.1-0.5-4.3-1.4
		c-1.2-0.9-1.8-2-1.8-3.3c0-1.3,0.6-2.5,1.8-3.3c1.2-0.9,2.6-1.4,4.3-1.4s3.1,0.5,4.3,1.4C970.7,37.8,971.3,38.9,971.3,40.2z"/>
	<path id="XMLID_230_" class="st9" d="M926,49.7c0,1-0.4,1.8-1.3,2.4c-0.9,0.7-2,1.1-3.2,1.1s-2.3-0.4-3.2-1.1
		c-0.9-0.7-1.3-1.5-1.3-2.4c0-1,0.5-1.8,1.3-2.5c0.9-0.7,1.9-1,3.2-1c1.3,0,2.3,0.3,3.2,1C925.5,47.8,926,48.7,926,49.7z"/>
	<path id="XMLID_229_" class="st9" d="M929,46.7c0,1-0.4,1.8-1.3,2.4c-0.9,0.7-2,1.1-3.2,1.1s-2.3-0.4-3.2-1.1
		c-0.9-0.7-1.3-1.5-1.3-2.4c0-1,0.5-1.8,1.3-2.5c0.9-0.7,1.9-1,3.2-1c1.3,0,2.3,0.3,3.2,1C928.5,44.8,929,45.7,929,46.7z"/>
	<path id="XMLID_228_" class="st9" d="M929.7,51.2c0,1-0.4,1.8-1.3,2.4c-0.9,0.7-2,1.1-3.2,1.1s-2.3-0.4-3.2-1.1
		c-0.9-0.7-1.3-1.5-1.3-2.4c0-1,0.5-1.8,1.3-2.5c0.9-0.7,1.9-1,3.2-1c1.3,0,2.3,0.3,3.2,1C929.3,49.3,929.7,50.2,929.7,51.2z"/>
	<path id="XMLID_227_" class="st9" d="M933.7,48.4c0,1-0.4,1.8-1.3,2.4c-0.9,0.7-2,1.1-3.2,1.1s-2.3-0.4-3.2-1.1
		c-0.9-0.7-1.3-1.5-1.3-2.4c0-1,0.5-1.8,1.3-2.5c0.9-0.7,1.9-1,3.2-1c1.3,0,2.3,0.3,3.2,1C933.3,46.6,933.7,47.4,933.7,48.4z"/>
	<path id="XMLID_226_" class="st9" d="M936.2,50.9c0,1-0.4,1.8-1.3,2.4c-0.9,0.7-2,1.1-3.2,1.1s-2.3-0.4-3.2-1.1
		c-0.9-0.7-1.3-1.5-1.3-2.4c0-1,0.5-1.8,1.3-2.5c0.9-0.7,1.9-1,3.2-1c1.3,0,2.3,0.3,3.2,1C935.8,49.1,936.2,49.9,936.2,50.9z"/>
	<path id="XMLID_225_" class="st9" d="M221,40.9c0,1-0.4,1.8-1.3,2.4c-0.9,0.7-2,1.1-3.2,1.1s-2.3-0.4-3.2-1.1
		c-0.9-0.7-1.3-1.5-1.3-2.4c0-1,0.4-1.8,1.3-2.5c0.9-0.7,2-1,3.2-1c1.3,0,2.3,0.3,3.2,1C220.6,39.1,221,39.9,221,40.9z"/>
	<path id="XMLID_224_" class="st9" d="M224,37.9c0,1-0.4,1.8-1.3,2.4c-0.9,0.7-2,1.1-3.2,1.1s-2.3-0.4-3.2-1.1
		c-0.9-0.7-1.3-1.5-1.3-2.4c0-1,0.4-1.8,1.3-2.5c0.9-0.7,2-1,3.2-1c1.3,0,2.3,0.3,3.2,1C223.6,36.1,224,36.9,224,37.9z"/>
	<path id="XMLID_223_" class="st9" d="M224.8,42.4c0,1-0.4,1.8-1.3,2.4c-0.9,0.7-2,1.1-3.2,1.1s-2.3-0.4-3.2-1.1
		c-0.9-0.7-1.3-1.5-1.3-2.4c0-1,0.4-1.8,1.3-2.5c0.9-0.7,2-1,3.2-1c1.3,0,2.3,0.3,3.2,1C224.3,40.6,224.8,41.4,224.8,42.4z"/>
	<path id="XMLID_222_" class="st9" d="M228.8,39.7c0,1-0.4,1.8-1.3,2.4c-0.9,0.7-2,1.1-3.2,1.1s-2.3-0.4-3.2-1.1
		c-0.9-0.7-1.3-1.5-1.3-2.4c0-1,0.4-1.8,1.3-2.5c0.9-0.7,2-1,3.2-1c1.3,0,2.3,0.3,3.2,1C228.3,37.8,228.8,38.7,228.8,39.7z"/>
	<path id="XMLID_221_" class="st9" d="M231.2,42.2c0,1-0.4,1.8-1.3,2.4c-0.9,0.7-2,1.1-3.2,1.1s-2.3-0.4-3.2-1.1
		c-0.9-0.7-1.3-1.5-1.3-2.4c0-1,0.4-1.8,1.3-2.5c0.9-0.7,2-1,3.2-1c1.3,0,2.3,0.3,3.2,1C230.8,40.3,231.2,41.2,231.2,42.2z"/>
	<path id="XMLID_220_" class="st4" d="M910.4,60.8c0,0.6-0.6,1.2-1.9,1.6c-1.3,0.4-2.8,0.6-4.6,0.6c-1.8,0-3.3-0.2-4.6-0.6
		c-1.3-0.4-1.9-1-1.9-1.6c0-0.6,0.6-1.1,1.9-1.5c1.3-0.5,2.8-0.7,4.6-0.7c1.8,0,3.3,0.2,4.6,0.7C909.8,59.7,910.4,60.2,910.4,60.8z"
		/>
	<g id="XMLID_217_">
		<path id="XMLID_219_" class="st5" d="M905.4,52.6v6.7c0,0.4-0.2,0.8-0.5,1c-0.3,0.3-0.6,0.5-1,0.5c-0.4,0-0.8-0.1-1.1-0.5
			c-0.3-0.3-0.5-0.6-0.5-1v-6.7c0-0.4,0.2-0.8,0.5-1c0.3-0.3,0.7-0.5,1.1-0.5c0.4,0,0.8,0.2,1,0.5C905.2,51.8,905.4,52.2,905.4,52.6
			z"/>
		<path id="XMLID_218_" class="st6" d="M910.7,48.2c0,1.9-0.7,3.4-2,4.4c-1.2,0.9-2.7,1.3-4.7,1.3c-2,0-3.6-0.4-4.8-1.3
			c-1.3-1-2-2.5-2-4.4c0-2.3,0.7-4.8,2-7.5c1.5-2.9,3-4.4,4.8-4.4c1.7,0,3.3,1.5,4.7,4.4C910,43.4,910.7,45.8,910.7,48.2z"/>
	</g>
	<path id="XMLID_216_" class="st10" d="M860,55c0,1.2-1.4,2.3-4.1,3.2c-2.8,0.9-6.1,1.3-10,1.3c-3.9,0-7.2-0.4-10-1.3
		c-2.8-0.9-4.1-2-4.1-3.2c0-1.3,1.4-2.3,4.1-3.2c2.7-0.9,6-1.3,10-1.3c3.9,0,7.2,0.4,10,1.3C858.7,52.6,860,53.7,860,55z"/>
	<path id="XMLID_215_" class="st7" d="M323.2,54.1c2.9,0,5.4,0.3,7.5,1c2.1,0.7,3.1,1.5,3.1,2.4s-1,1.7-3.1,2.4
		c-2.1,0.7-4.6,1-7.5,1s-5.4-0.3-7.5-1c-2.1-0.7-3.1-1.5-3.1-2.4s1-1.7,3.1-2.4C317.9,54.4,320.4,54.1,323.2,54.1z"/>
	<path id="XMLID_214_" class="st4" d="M481.9,76c0,1-0.8,1.9-2.4,2.7c-1.6,0.7-3.5,1.1-5.7,1.1s-4.1-0.4-5.8-1.1
		c-1.6-0.7-2.4-1.6-2.4-2.7c0-1,0.8-1.9,2.4-2.7c1.6-0.7,3.5-1.1,5.8-1.1c2.2,0,4.1,0.4,5.7,1.1C481,74,481.9,74.9,481.9,76z"/>
	<g id="XMLID_200_">
		<g id="XMLID_210_">
			<path id="XMLID_213_" class="st9" d="M519,33.3c0,2.1-1.3,3.8-3.8,5.2c-2.5,1.5-5.6,2.2-9.2,2.2c-3.6,0-6.6-0.7-9.1-2.2
				c-2.5-1.4-3.8-3.2-3.8-5.2c0-2.1,1.3-3.8,3.8-5.3c2.5-1.5,5.6-2.2,9.1-2.2c3.6,0,6.6,0.7,9.2,2.2S519,31.2,519,33.3z"/>
			<path id="XMLID_212_" class="st9" d="M493.9,39.5c0,0.3-0.2,0.6-0.6,0.9c-0.4,0.2-0.8,0.4-1.4,0.4c-0.5,0-1-0.1-1.4-0.4
				c-0.4-0.3-0.6-0.6-0.6-0.9s0.2-0.6,0.6-0.9c0.4-0.2,0.8-0.3,1.4-0.3c0.6,0,1,0.1,1.4,0.3C493.7,38.8,493.9,39.1,493.9,39.5z"/>
			<path id="XMLID_211_" class="st9" d="M490.8,42.6c0,0.5-0.4,0.7-1.1,0.7c-0.7,0-1.1-0.2-1.1-0.7c0-0.5,0.4-0.7,1.1-0.7
				C490.4,41.9,490.8,42.1,490.8,42.6z"/>
		</g>
		<g id="XMLID_201_">
			<path id="XMLID_202_" class="st11" d="M510.5,30.1v1.2h0.6l0,0.6h-0.5v1.9c0,0.2,0.1,0.3,0.2,0.3c0.1,0,0.2,0,0.4-0.1l0.1,0.5
				c-0.2,0.1-0.4,0.2-0.6,0.2c-0.5,0-0.8-0.3-0.8-0.8v-2h-0.5v-0.6h0.5v-0.8L510.5,30.1z M506.5,32.4l-0.7-0.2c0.1-0.7,0.6-1,1.5-1
				c0.9,0,1.4,0.4,1.4,1.3v1.3c0,0.4,0.1,0.7,0.3,0.9h-0.8c-0.1-0.1-0.1-0.2-0.1-0.5c-0.3,0.3-0.7,0.5-1.2,0.5c-0.8,0-1.2-0.3-1.2-1
				c0-0.6,0.4-1,1.3-1.1c0.6-0.1,0.9-0.1,1-0.2c0-0.4-0.2-0.6-0.6-0.6C506.9,31.8,506.6,32,506.5,32.4z M507,34.1
				c0.6-0.1,0.9-0.3,1-0.8c0-0.1,0-0.2,0-0.3c-0.1,0.1-0.4,0.2-0.8,0.2c-0.5,0-0.7,0.2-0.7,0.5C506.5,34,506.6,34.1,507,34.1z
				 M513.1,33.8v0.8h-0.8v-0.8H513.1z M513,33.4h-0.7v-0.2c0-0.4,0.2-0.8,0.6-1.2c0.4-0.3,0.6-0.5,0.5-0.8c0-0.4-0.2-0.5-0.7-0.5
				c-0.5,0-0.8,0.2-0.9,0.8l-0.7-0.2c0.2-0.8,0.7-1.2,1.7-1.2c0.8,0,1.3,0.4,1.3,1.2c0,0.5-0.2,1-0.8,1.3c-0.3,0.2-0.5,0.4-0.5,0.7
				V33.4z M502.9,30.1v1.6c0.2-0.3,0.5-0.5,1-0.5c0.8,0,1.2,0.4,1.2,1.3v2.2h-0.7v-2.1c0-0.5-0.2-0.8-0.6-0.8
				c-0.5,0-0.8,0.3-0.9,0.8v2.1h-0.7v-4.6H502.9z M499.2,32.6c-0.1,0.4-0.3,1.1-0.5,2.1H498l-1.1-3.4h0.8c0.3,1.1,0.5,1.8,0.6,2.2
				c0,0.1,0.1,0.2,0.1,0.4c0-0.2,0.1-0.3,0.1-0.4c0.1-0.4,0.3-1.2,0.5-2.2h0.8c0.3,1.2,0.4,2,0.5,2.2c0,0.1,0.1,0.2,0.1,0.4
				c0-0.2,0.1-0.3,0.1-0.4c0.1-0.4,0.4-1.2,0.6-2.2h0.8l-1.1,3.4H500c-0.2-1-0.4-1.7-0.5-2.1c0,0,0-0.1-0.1-0.1c0-0.2,0-0.3,0-0.4h0
				v0.1C499.3,32.4,499.3,32.5,499.2,32.6z"/>
		</g>
	</g>
	<path id="XMLID_199_" class="st4" d="M599.2,89.6l-13,4.1l-10.4-15.2l0.4-2.9c31.3-6.5,47.2-9.8,47.6-9.8c0.3,0,4.1,2.2,11.4,6.6
		c7.3,4.4,10.8,6.6,10.5,6.6c-3.9,0-8.8,0.9-14.8,2.7c-5.3,1.6-8.1,2.7-8.6,3.4c-0.4,0.6-1.2,1-2.5,1.3c-1.5,0.3-2.8,0.3-4.1,0
		C613.8,85.9,608.3,87,599.2,89.6z"/>
	<g id="XMLID_188_">
		<path id="XMLID_198_" class="st12" d="M602.2,83.6c-1.8,0.4-5.3,1.4-10.4,3l-7,2.2l-10.6-15.2l49.6-8.4l18.2,10.6
			c-6.5,0.5-11.4,1.2-14.6,2c-2.1,0.5-4.1,1.2-6,2L619,81l-0.2,0.5c-0.9,0.7-2.4,1-4.4,0.9l-0.5-0.6
			C611.7,81.7,607.8,82.3,602.2,83.6z"/>
		<path id="XMLID_197_" class="st13" d="M598.5,66.5c4.2,1.5,8.3,4.3,12.3,8.5c2,2.1,3.6,4.1,4.8,5.9l-1.5,0.8
			c-0.6-0.8-1.6-1.4-3.1-1.8c-3-0.8-6.8-0.1-11.5,2c-0.3,0.2-1.4,0.8-3.3,1.9c-1.8,1.1-3.1,1.8-4,2.2l-6,1.8l-10.7-15l3.5-3.6
			l5.9-2.8C589.8,65.1,594.3,65,598.5,66.5z"/>
		<path id="XMLID_196_" class="st14" d="M618.3,65.8c1.5-0.6,3-1.1,4.5-1.4l15.9,7l2.2,4.3l-5.2,0.5c-0.8-0.3-1.8-0.5-2.9-0.7
			c-2.4-0.4-4.6-0.3-6.6,0.2c-2,0.5-3.8,1.5-5.4,3.1c-0.8,0.8-1.4,1.5-1.9,2.2l-1.4-0.2c-0.9-1.3-1.7-2.7-2.5-4.3
			c-1.6-3.1-2.2-5.4-2-6.7S615.2,67.1,618.3,65.8z"/>
		<path id="XMLID_195_" class="st15" d="M625,54.4l5.2,1.6l-1.7,1.5c-1.4,1.3-2.7,2.8-4,4.5c-4,5.4-6.4,11.4-7.4,18.2L608,65.5
			c0.5-2.1,1.5-4.1,3.2-6.1C614.4,55.4,619,53.7,625,54.4z"/>
		<path id="XMLID_194_" class="st16" d="M620.8,63.2c-3.1,7.4-4.3,13.1-3.6,17.1l-14-28.1l2.1-4.8l0.5-0.4l20,6.2L620.8,63.2z"/>
		<path id="XMLID_193_" class="st13" d="M617.2,79.8c0.8-1.7,2.2-3.4,4.4-5c4.3-3.1,10.1-4.2,17.2-3.3l2.2,4.3l-5.2,0.5
			c-2-0.5-4.2-0.6-6.6-0.5c-4.8,0.3-8.2,2.1-10.2,5.2L617.2,79.8z"/>
		<path id="XMLID_192_" class="st16" d="M599.1,82.8l-6.4,3.1l-6.4,2l2.5-4.8c0.5-0.3,1-0.7,1.7-1.1c1.3-0.8,2.4-1.4,3.4-1.8
			c3.6-1.7,8-2.4,13.1-2.2c2.5,0.1,4.7,0.3,6.5,0.7l0.8,3.1C609.3,80.7,604.3,81,599.1,82.8z"/>
		<polygon id="XMLID_191_" class="st17" points="575.7,73 579.2,69.3 588.8,83.2 586.3,87.9 		"/>
		
			<linearGradient id="XMLID_11_" gradientUnits="userSpaceOnUse" x1="-666.9827" y1="-18.8479" x2="-630.5927" y2="-18.8479" gradientTransform="matrix(-0.4998 -0.8662 0.8662 -0.4998 290.812 -500.6501)">
			<stop  offset="0" style="stop-color:#FCFDFF"/>
			<stop  offset="1" style="stop-color:#E6E9EC"/>
		</linearGradient>
		<path id="XMLID_190_" class="st18" d="M579.5,60.8c4.9-0.1,10.2,0.6,15.8,2.2c2.8,0.8,5.2,1.6,7,2.5l6.9,6.4
			c4.8,4.5,7.7,7.4,8.8,8.8c-2.5,0.8-3.7,1.2-3.8,1.1c-1.4-2.2-4.4-3.3-9-3.5l-6.5,0.4L579.5,60.8z"/>
		<path id="XMLID_189_" class="st17" d="M617.3,58.7c-1,5.8-1,13-0.1,21.6c0.1,1-2.4-1.2-7.4-6.6l-7.5-8.3c-0.5-2-1-4.3-1.3-6.9
			c-0.7-5.2-0.5-9.1,0.5-12c0.1-0.4,3.1,0.5,8.8,2.7c2.9,1.1,5.8,2.2,8.7,3.3L617.3,58.7z"/>
	</g>
	<g id="XMLID_180_">
		<path id="XMLID_187_" class="st19" d="M584.5,49.8c-0.2-0.3-0.1-0.6,0.2-0.8l6-2c0.3-0.1,0.5,0,0.6,0.3l3,6.5
			c0.1,0.1,0.1,0.3,0,0.4c-0.1,0.2-0.2,0.3-0.4,0.3l-6.4,1c-0.2,0-0.4,0-0.5-0.2L584.5,49.8z"/>
		<path id="XMLID_186_" class="st20" d="M580.3,17.4c0.2-0.2,0.4-0.1,0.5,0.1l3.1,6.7l-4.2,1.5c-0.3,0.1-0.4,0.2-0.2,0.5l2,4.5
			l-6.4,3l-2.6-5.5c-0.1-0.3-0.3-0.3-0.6-0.2l-1.1,0.6l-1.9-4c-0.1-0.2-0.1-0.5,0.2-0.7L580.3,17.4z"/>
		<path id="XMLID_185_" class="st21" d="M589.8,22.2c0.3-0.1,0.5,0,0.7,0.3l4.5,9.8c0.1,0.3,0.1,0.5-0.2,0.7l-3.9,2.3l-1-2.2
			c-0.1-0.2-0.3-0.3-0.6-0.2l-5.5,2.5l-2.2-4.7l4-1.9c0.3-0.1,0.3-0.3,0.2-0.6l-1.8-4L589.8,22.2z"/>
		<path id="XMLID_184_" class="st22" d="M583.9,24.2l1.8,4c0.1,0.3,0,0.5-0.2,0.6l-4,1.9l-2-4.5c-0.1-0.3,0-0.5,0.2-0.5L583.9,24.2z
			"/>
		<path id="XMLID_183_" class="st23" d="M593.5,41c0.1,0.3,0.1,0.5-0.2,0.7L586,47c-0.2,0.2-0.4,0.1-0.6-0.2l-4.4-9.6
			c-0.1-0.3,0-0.5,0.2-0.7l2.5-1.1l1.2,2.8c0.2,0.3,0.4,0.4,0.6,0.2l5.2-3.2L593.5,41z"/>
		<path id="XMLID_182_" class="st24" d="M589.2,32.9c0.3-0.1,0.5,0,0.6,0.2l1,2.2l-5.3,3.2c-0.2,0.1-0.4,0-0.6-0.2l-1.2-2.8
			L589.2,32.9z"/>
		<path id="XMLID_181_" class="st25" d="M565,32.3c-0.1-0.3,0-0.5,0.2-0.7L572,28c0.3-0.1,0.5-0.1,0.6,0.2l4.9,10.7
			c0.1,0.3,0,0.4-0.3,0.5l-7.4,2.3c-0.3,0.1-0.5,0-0.7-0.3L565,32.3z"/>
	</g>
	<g id="XMLID_178_">
		<polygon id="XMLID_179_" class="st26" points="630,30.4 626.8,30.4 626.8,37.1 625.5,37.1 625.5,30.4 623.5,30.4 623.5,29.3 
			633.2,29.3 633.2,30.4 631.3,30.4 631.3,37.1 630,37.1 		"/>
	</g>
	<g id="XMLID_171_">
		<path id="XMLID_172_" class="st6" d="M542.6,35.2l-4.7,9H537l4.7-9H542.6z M537,35.9c-0.3,0-0.5,0.1-0.6,0.3
			c-0.2,0.2-0.3,0.6-0.3,1.2c0,0.5,0.1,0.9,0.3,1.2c0.2,0.2,0.4,0.3,0.6,0.3s0.5-0.1,0.7-0.3c0.2-0.2,0.2-0.7,0.2-1.2
			c0-0.6-0.1-1-0.2-1.2C537.5,36,537.3,35.9,537,35.9z M538.3,35.8c0.3,0.4,0.5,0.9,0.5,1.7c0,0.7-0.2,1.3-0.5,1.6
			c-0.4,0.4-0.8,0.6-1.3,0.6c-0.5,0-0.9-0.2-1.3-0.6c-0.3-0.4-0.5-0.9-0.5-1.8c0-0.6,0.1-1.1,0.5-1.5c0.3-0.4,0.8-0.6,1.3-0.6
			C537.5,35.2,538,35.3,538.3,35.8z M542.6,40.4c-0.3,0-0.5,0.1-0.6,0.3c-0.2,0.2-0.3,0.7-0.3,1.2c0,0.5,0.1,0.9,0.3,1.2
			c0.2,0.2,0.4,0.3,0.6,0.3s0.5-0.1,0.7-0.3c0.2-0.2,0.2-0.7,0.2-1.2c0-0.5-0.1-0.9-0.2-1.2S542.9,40.4,542.6,40.4z M543.9,40.2
			c0.4,0.4,0.5,1,0.5,1.7c0,0.7-0.2,1.3-0.5,1.7c-0.4,0.4-0.8,0.5-1.4,0.5c-0.5,0-0.9-0.2-1.3-0.5c-0.3-0.4-0.5-1-0.5-1.8
			c0-0.6,0.2-1.2,0.5-1.6c0.3-0.4,0.8-0.6,1.3-0.6C543.1,39.7,543.5,39.9,543.9,40.2z"/>
	</g>
	<g id="XMLID_166_">
		<path id="XMLID_167_" class="st20" d="M654.8,41.5c0.2-0.4,0.5-0.6,0.9-0.8c0.6-0.2,1.2,0,1.8,0.5c0.3-0.6,0.5-1,0.7-1.2
			c0.3-0.3,0.6-0.5,0.9-0.6c0.4-0.1,0.8-0.1,1.2,0.1c0.4,0.2,0.7,0.6,0.9,1.2c0.1,0.4,0.2,0.8,0.1,1.1c0,0.3-0.2,0.5-0.3,0.8
			c-0.3,0.2-0.5,0.4-0.8,0.4c-0.3,0.1-0.7,0.1-1,0c-0.3-0.1-0.7-0.3-1.2-0.8c-0.3,0.8-0.8,1.3-1.3,1.5c-0.4,0.1-0.7,0.1-1-0.1
			c-0.4-0.2-0.7-0.5-0.8-1C654.5,42.3,654.6,41.9,654.8,41.5z M655.3,42.5c0.1,0.3,0.2,0.5,0.4,0.6c0.2,0.1,0.4,0.2,0.6,0.1
			c0.4-0.1,0.7-0.5,1-1.2c-0.4-0.3-0.7-0.5-1-0.5c-0.2-0.1-0.4-0.1-0.5,0c-0.2,0.1-0.4,0.2-0.5,0.3C655.2,42,655.2,42.2,655.3,42.5z
			 M658.7,40.3c-0.2,0.2-0.4,0.7-0.7,1.4c0.5,0.4,0.9,0.7,1.2,0.8c0.2,0.1,0.5,0.1,0.7,0c0.3-0.1,0.5-0.2,0.6-0.5
			c0.1-0.3,0.1-0.6,0-1c-0.1-0.4-0.3-0.7-0.5-0.8c-0.3-0.2-0.5-0.2-0.8-0.2C659,40.1,658.8,40.2,658.7,40.3z"/>
	</g>
	<g id="XMLID_4_">
		<g id="XMLID_163_">
			<path id="XMLID_165_" class="st27" d="M472,36.8l-0.6,2.4c0.4,1,1.3,1.5,2.9,1.6c0-0.3,0.1-0.6,0.2-0.9c0.1-0.2,0.1-0.4,0.2-0.5
				c-0.6-0.2-1.1-0.5-1.5-0.9c-0.1-0.1-0.1-0.1-0.2-0.2C472.6,37.7,472.3,37.3,472,36.8z"/>
			<path id="XMLID_164_" class="st28" d="M472,36.8c0.3,0.5,0.6,0.9,1,1.3c0.1,0.1,0.1,0.1,0.2,0.2c0.4,0.4,0.9,0.7,1.5,0.9
				c0.3-0.5,0.7-1.1,1.2-1.8c0-0.4-0.1-0.8-0.2-1.1c-0.4-1.4-1.3-2.4-2.7-2.9L472,36.8z"/>
		</g>
		<g id="XMLID_90_">
			<g id="XMLID_155_">
				<path id="XMLID_160_" class="st27" d="M482.2,18.2l1.2,2.9l0.8,3.6c0-0.2,0.1-0.3,0.1-0.5c-0.2-2.2-0.8-4.3-1.8-6.2
					C482.4,18.1,482.2,18.2,482.2,18.2z M471.5,25.7l0.1,4.7c0.3,0.4,0.6,0.9,0.8,1.3c0.1,0.2,0.3,0.4,0.4,0.6c0,1.8,0.3,3.4,1,4.7
					c0.4,0.8,1,1.5,1.6,2.2c0.1,0.1,0.2,0.2,0.4,0.2c0.7,0.4,1.4,0.8,1.9,1l0.1,0.1c0.1,0,0.1,0,0.2,0.1c0.6,0.2,1.1,0.4,1.5,0.5
					c0.9,0.1,1.7-0.6,2.6-2c0.4-0.7,0.8-1.4,1.1-2c0.1-0.3,0.3-0.6,0.4-0.9c0.1-0.2,0.2-0.4,0.2-0.7c0.1-0.2,0.1-0.5,0.2-0.7l0.4-2
					c-0.3,0-0.5-0.2-0.6-0.4l1.7-0.9c-0.5-0.4-1-0.7-1.3-1.2c0,0-0.1-0.1-0.1-0.2c-0.1-0.1-0.1-0.2-0.2-0.3
					c-0.1-0.1-0.1-0.2-0.2-0.4c-0.2-0.5-0.3-1.1-0.2-2c0-0.2,0-0.5,0.1-0.7l-0.7-3.6l-0.4-0.6V25c-1.3-0.7-2.4-1.6-3.2-3
					c-0.6,0.1-1.1,0.3-1.7,0.5C475.5,23.3,473.5,24.3,471.5,25.7C471.6,25.7,471.6,25.7,471.5,25.7z"/>
				<path id="XMLID_156_" class="st28" d="M484.1,24.7l-0.8-3.6l-1.2-2.9c-4,1.2-7.5,3.4-10.7,6.5l0,1c0,0,0.1,0,0.1-0.1
					c1.8-1.3,3.8-2.3,6-3.1c0.6-0.2,1.1-0.4,1.7-0.5c0.9,1.3,1.9,2.3,3.2,3v-2.4l0.4,0.6l0.7,3.6c0.1-0.6,0.2-1.2,0.4-1.8
					C484,24.9,484.1,24.8,484.1,24.7z M485.6,31.4l-1.7,0.9c0.1,0.3,0.3,0.4,0.6,0.4C485,32.4,485.3,32,485.6,31.4z M471.6,30.4
					l0.1,2.2c0.1,1,0.4,2,0.8,2.8c0.2,0.5,0.5,1.1,0.9,1.5c0.6,0.8,1.3,1.6,2.2,2.2c-0.7-0.6-1.2-1.3-1.6-2.2c-0.7-1.3-1-2.8-1-4.7
					c-0.1-0.2-0.2-0.4-0.4-0.6C472.2,31.3,471.9,30.8,471.6,30.4z"/>
			</g>
			<g id="XMLID_138_">
				<g id="XMLID_147_">
					<path id="XMLID_152_" class="st9" d="M479.7,29.2C479.7,29.2,479.7,29.2,479.7,29.2c0.3,0.4,0.6,0.6,0.9,0.9
						c0.6,0.4,1.2,0.7,1.9,0.8c0.2-1.7,0.3-3.5,0.2-5.3c-0.1,0-0.1,0-0.2,0c0,0-0.1,0-0.1,0c-0.8,0.2-1.6,0.6-2.4,1.2
						c-0.2,0.2-0.5,0.4-0.7,0.6C479.3,28.2,479.5,28.8,479.7,29.2z M479.7,28L479.7,28L479.7,28L479.7,28z"/>
					<path id="XMLID_149_" class="st29" d="M482.7,25.6c0-0.2,0-0.3,0-0.5c-0.9-0.2-1.8,0.2-2.9,1c-0.2,0.1-0.4,0.3-0.5,0.5
						c0,0.4,0,0.7,0,1c0.2-0.2,0.5-0.4,0.7-0.6c0.8-0.7,1.7-1.1,2.4-1.2c0,0,0,0,0.1,0C482.6,25.6,482.7,25.6,482.7,25.6z M479.7,28
						L479.7,28L479.7,28L479.7,28z"/>
					<path id="XMLID_148_" class="st30" d="M482.7,25C482.7,25,482.7,25,482.7,25l0.4-0.6c-0.5-0.1-1-0.1-1.4,0.1
						c-0.8,0.2-1.5,0.5-2.3,1.1c-0.2,0.1-0.4,0.3-0.6,0.5c0,1.3,0.3,2.3,0.9,3.1c-0.2-0.4-0.3-1-0.4-1.8c0-0.3,0-0.6,0-1
						c0.2-0.2,0.4-0.3,0.5-0.5C480.9,25.2,481.8,24.9,482.7,25z"/>
				</g>
				<g id="XMLID_140_">
					<path id="XMLID_143_" class="st31" d="M482.3,27.1c0-0.1,0-0.2,0-0.2c0-0.1,0-0.1,0.1-0.1c0,0,0.1,0,0.1,0.1
						c0,0.1,0.1,0.1,0.1,0.2c0,0.1,0,0.2,0,0.2c0,0.1,0,0.1-0.1,0.1c0,0-0.1,0-0.1-0.1C482.4,27.3,482.4,27.2,482.3,27.1z
						 M482.1,26.9c-0.1,0.3-0.1,0.6-0.1,0.9c0,0.4,0,0.7,0.1,0.9c0.1,0.3,0.2,0.4,0.3,0.4c0.1,0,0.2-0.1,0.3-0.4
						c0.1-0.2,0.1-0.6,0.1-0.9c0-0.4,0-0.7-0.1-0.9c-0.1-0.2-0.2-0.4-0.3-0.4C482.3,26.5,482.2,26.6,482.1,26.9z M482.3,28.1
						c0.1,0.1,0.1,0.2,0.1,0.3c0,0.1,0,0.2,0,0.3c0,0.1-0.1,0.1-0.2,0.2c-0.1,0-0.1,0-0.2-0.1c-0.1-0.1-0.1-0.2-0.1-0.3
						c0-0.1,0-0.2,0-0.3c0-0.1,0.1-0.1,0.1-0.2C482.2,28,482.3,28,482.3,28.1z"/>
					<path id="XMLID_142_" class="st32" d="M482.3,28.1c-0.1-0.1-0.1-0.1-0.2-0.1c-0.1,0-0.1,0.1-0.1,0.2c0,0.1,0,0.2,0,0.3
						c0,0.1,0.1,0.2,0.1,0.3c0.1,0.1,0.1,0.1,0.2,0.1c0.1,0,0.1-0.1,0.2-0.2c0-0.1,0-0.2,0-0.3C482.5,28.2,482.4,28.1,482.3,28.1z"
						/>
					<path id="XMLID_141_" class="st9" d="M482.3,27.1c0,0.1,0.1,0.2,0.1,0.2c0,0.1,0.1,0.1,0.1,0.1c0,0,0.1-0.1,0.1-0.1
						c0-0.1,0-0.2,0-0.2c0-0.1-0.1-0.2-0.1-0.2c0-0.1-0.1-0.1-0.1-0.1c0,0-0.1,0.1-0.1,0.1C482.3,26.9,482.3,27,482.3,27.1z"/>
				</g>
				<path id="XMLID_139_" class="st33" d="M483.9,24c-1.9-0.9-3.8-0.9-5.7,0.3c0-0.4,0-0.9,0.1-1.2c0.1-0.3,0.1-0.6,0.2-0.9
					c0,0,0-0.1,0.1-0.2c2.1-1.6,4.1-1.4,5.8,0.7L483.9,24z"/>
			</g>
			<g id="XMLID_109_">
				<g id="XMLID_133_">
					<g id="XMLID_134_">
						<path id="XMLID_137_" class="st34" d="M465.3,35.3c0.1,0,0.2,0,0.2-0.1c0.3,0.5,0.8,0.8,1.4,1.1c-0.2,1.1-0.6,2-1,2.8
							c-1,1-2.7,1.8-5.1,2.5c0-0.1,0-0.1,0-0.2c0,0,0,0,0,0C463.8,40.6,465.3,38.6,465.3,35.3z"/>
						<path id="XMLID_136_" class="st35" d="M465.3,35.3c0,3.3-1.5,5.3-4.5,6c0.2-1.4,0.8-2.8,1.7-4.3
							C463.3,36.1,464.3,35.6,465.3,35.3z"/>
						<path id="XMLID_135_" class="st36" d="M465.5,35.2C465.5,35.2,465.5,35.2,465.5,35.2c-0.1-0.1-0.1-0.2-0.1-0.3l-0.1-0.6
							c0.5,0.2,0.9,0.5,1.4,0.8l1.5,1l-0.9,0.1l-0.2,0c0,0-0.1,0-0.1,0c0,0,0,0,0,0C466.3,36,465.8,35.7,465.5,35.2z"/>
					</g>
				</g>
				<g id="XMLID_110_">
					<g id="XMLID_111_">
						<path id="XMLID_126_" class="st37" d="M480.4,8.8c1.8,1.7,3,3.7,3.5,6h0c0,0.2,0,0.4,0.1,0.7c0-0.2-0.2-0.5-0.6-0.8
							C482.9,12.6,481.9,10.6,480.4,8.8L480.4,8.8z M474.7,10.7c-4.7-4.4-10.4-7.1-17-8v0c8,0.9,13.1,2.8,15.4,5.6c0,0,0,0,0,0
							L474.7,10.7z M481.5,13.1c-2.5-3.6-5.6-6.3-9.1-8.3l0,0c3.7,1.6,6.4,3.7,8.2,6.4c0,0,0,0,0,0l0,0L481.5,13.1z M455,11l2.6,1.8
							h0l1.1,1.8c0,0,0,0,0,0h0L455,11z M455.5,17.3L455.5,17.3l1,1.3l-2.4-2.5L455.5,17.3z M455.6,25.2l2.4,1.2l1.4,0.9l-3.4-1.6v0
							C455.8,25.6,455.7,25.4,455.6,25.2z"/>
						<path id="XMLID_119_" class="st34" d="M472.4,4.8c1.2,2,2,4,2.3,5.9l-1.6-2.4c0,0,0,0,0,0L472.4,4.8
							C472.4,4.7,472.4,4.8,472.4,4.8L472.4,4.8z M455.5,25.3L455.5,25.3c0.1,0.2,0.3,0.3,0.4,0.5v0c2,2.6,4.8,4.2,8.6,4.8
							c0,0,0,0,0,0c1.7-2.9,3.6-5.3,5.8-7.3l0,0l-0.6,0.4l0.8-1.4c-0.4-0.5-0.8-1.2-1.1-2.3c0.5,0.8,1.1,1.3,1.9,1.6l2.5-1.6
							c-0.9-1.1-1.6-2.3-2-3.7c1.2,1.4,2.4,2.3,3.5,2.7c0.1,0,0.1,0,0.1,0c0,0,0.1,0,0.1,0c2.3-1.3,4.3-2.2,5.8-2.7
							c0.3-0.7,0.8-1.3,1.5-1.8c0.2,0.1,0.4,0.3,0.6,0.4c0.4,0.3,0.6,0.5,0.6,0.8c0,0.2,0,0.3,0,0.5l-3,1.6c0.5-0.1,0.9-0.2,1.4-0.3
							l1,2.4c-2.3,0.6-4,1.3-5.2,2.2c-1.2,0.6-2.3,1.2-3.4,1.9c-0.9,0.5-1.7,1.2-2.4,1.8c0.9,4.6,0.6,8.8-0.6,12.5l-0.7-0.2
							c-8.3-2.9-13.4-6.9-15.3-12c0,0,0,0,0,0c0,0,0,0,0,0C455.6,25.6,455.6,25.4,455.5,25.3z M455.5,17.3c-0.8-1.9-1-4.1-0.5-6.4
							h0.1c0.1,3,0.6,5.6,1.5,7.7L455.5,17.3L455.5,17.3z M481.5,13.1l-0.9-1.9l0,0l-0.8-2.9c0,0,0.1,0.1,0.1,0.1
							c0.1,0.1,0.3,0.3,0.4,0.4C481.2,10.6,481.6,12,481.5,13.1z M457.7,2.7L457.7,2.7c-0.3,4.2,0,8.1,1.1,11.9l-1.1-1.8l0,0
							c0,0,0,0,0,0c-0.4-2.2-0.6-4.5-0.4-6.8C457.4,5,457.5,3.9,457.7,2.7z M459.3,27.4l-1.4-0.9c0,0-0.1-0.1-0.1-0.1
							c-0.9-0.8-1.8-1.8-2.6-2.9c0-0.1-0.1-0.2-0.1-0.2c-0.7-1.9-1.1-4.3-1.1-7.1h0.1c0.4,2.6,1,4.9,1.9,6.7l0,0
							c0.1,0.1,0.1,0.3,0.2,0.4C457.1,25,458.1,26.3,459.3,27.4L459.3,27.4z"/>
						<path id="XMLID_112_" class="st35" d="M455.9,25.8l3.4,1.6l0,0c-1.2-1-2.3-2.4-3.2-4.1c-0.1-0.1-0.2-0.3-0.2-0.4l0,0
							c-0.9-1.8-1.5-4.1-1.9-6.7l0.1,0.1l2.4,2.5c-0.8-2.1-1.3-4.7-1.5-7.7H455c0,0,0,0,0,0l0,0l3.7,3.6h0c0,0,0,0,0,0
							c-1-3.8-1.4-7.7-1-11.9h0v0h0v0c6.6,0.9,12.3,3.6,17,8c-0.3-1.9-1.1-3.9-2.3-5.9c3.5,2,6.5,4.7,9.1,8.3
							c0.1-1.1-0.3-2.5-1.1-4.2c-0.1-0.1-0.3-0.3-0.4-0.4c0.2,0.1,0.3,0.3,0.5,0.4l0,0c1.5,1.8,2.5,3.7,3,5.9
							c-0.2-0.1-0.4-0.3-0.6-0.4c-0.6,0.5-1.1,1.1-1.5,1.8c-1.5,0.5-3.5,1.5-5.8,2.7c0,0,0,0-0.1,0c0,0-0.1,0-0.1,0
							c-1.1-0.4-2.3-1.3-3.5-2.7c0.4,1.4,1,2.6,2,3.7l-2.5,1.6c-0.7-0.3-1.3-0.8-1.9-1.6c0.3,1.1,0.6,1.9,1.1,2.3l-0.8,1.4l0.6-0.4
							l0,0c-2.2,2-4.1,4.5-5.8,7.3c0,0,0,0,0,0C460.7,30,457.8,28.4,455.9,25.8z M483.4,19.7l-1-2.4c-0.5,0.1-1,0.2-1.4,0.3l3-1.6
							c0.1,1.2,0.2,2.4,0.3,3.5C484,19.5,483.7,19.6,483.4,19.7z M478.1,21.9l-2.9,4.2l-0.2,4l-2.7-4.5c0.8-0.7,1.6-1.3,2.4-1.8
							C475.8,23.1,476.9,22.4,478.1,21.9z M457.6,12.8L457.6,12.8L457.6,12.8L457.6,12.8z M454,16.1L454,16.1
							C453.9,16.1,453.9,16,454,16.1L454,16.1z M455.6,25.2L455.6,25.2C455.5,25.3,455.5,25.2,455.6,25.2L455.6,25.2z"/>
					</g>
				</g>
			</g>
			<g id="XMLID_95_">
				<g id="XMLID_106_">
					<path id="XMLID_108_" class="st36" d="M463.3,33.8c3.5-6.7,8.6-11.2,15.5-13.5c0.1-1.2,0.4-2.2,0.9-3.1c-2.2,0.8-3.9,1.5-5,2.1
						c-1.2,0.6-2.1,1.2-2.9,1.7c-0.7,0.5-1.8,1.3-3.1,2.4l0,0c-3.1,3.1-5.2,6.3-6.4,9.7C462.5,33.3,462.8,33.5,463.3,33.8z"/>
					<path id="XMLID_107_" class="st38" d="M463.3,33.8c0.1,0,0.1,0,0.2,0.1c0.2,0.1,0.4,0.2,0.6,0.2c1.9-4.2,4.6-7.4,8.2-9.6
						c3.6-2.2,7.6-3.8,12-4.8c0.1-0.3,0.1-0.6,0.1-0.9c0-0.9-0.2-1.9-0.7-2.9c-1.3,0.4-2.6,0.8-4,1.3c-0.5,0.8-0.8,1.8-0.9,3.1
						C471.9,22.5,466.7,27,463.3,33.8z"/>
				</g>
				<g id="XMLID_103_">
					<path id="XMLID_105_" class="st28" d="M473,30.5C472.9,30.5,472.9,30.5,473,30.5l-0.4-3.6c-0.7-0.7-1.3-0.9-1.9-0.8
						c-0.8,0.3-1.1,1-1,1.9c0.3-0.7,0.8-1,1.4-1c0.4,0,0.8,0.2,1.1,0.6c-0.7-0.1-1.2,0.1-1.5,0.6c-0.2,0.7-0.1,1.2,0.4,1.7
						C471.6,30.4,472.2,30.6,473,30.5z"/>
					<path id="XMLID_104_" class="st27" d="M472.6,26.9l-0.1-1c-0.9-0.8-1.8-0.9-2.6-0.1c-0.6,0.7-0.8,1.6-0.6,2.8
						c0,0.2,0.1,0.4,0.1,0.6c0.9,2.1,2.1,3.2,3.8,3.1l-0.2-1.7c-0.8,0.1-1.4-0.2-1.9-0.7c-0.4-0.5-0.6-1-0.4-1.7
						c0.3-0.5,0.8-0.7,1.5-0.6c-0.3-0.4-0.7-0.6-1.1-0.6c-0.6,0-1.1,0.3-1.4,1c-0.1-0.9,0.2-1.5,1-1.9
						C471.3,26,471.9,26.2,472.6,26.9z"/>
				</g>
				<g id="XMLID_96_">
					<path id="XMLID_102_" class="st37" d="M481.5,17c0.4-1,1-1.8,1.6-2.4c1.6-0.1,3,0.3,4.2,1.1c1,0.8,1.6,1.8,1.8,3.1
						c0.1,0.4,0.1,0.9,0.1,1.4c-1-3.6-3-5.2-5.9-5C482.7,15.7,482.1,16.3,481.5,17z"/>
					<path id="XMLID_101_" class="st35" d="M481.5,17c0.6-0.7,1.2-1.3,1.8-1.9c2.9-0.2,4.9,1.5,5.9,5c0,0.6-0.1,1.3-0.2,2
						c-0.2-1.4-1.4-2.8-3.5-4.1l1,1.7c0,0,0,0,0,0c0,0.1,0.1,0.1,0.1,0.2c0.4,0.7,0.6,1.6,0.7,2.8c0.1,1.3-0.6,2.7-2.2,4.2
						c-0.1-2.4-1.2-4.6-3.3-6.7l0.2,1.6l0.4,2.9c-0.3-0.2-0.6-0.5-0.8-0.6c-0.9-1.4-1.6-3.1-2-5c0,0.2,0,0.3-0.1,0.5
						c0-1,0.2-1.8,0.7-2.6L481.5,17z"/>
					<path id="XMLID_97_" class="st34" d="M481.6,24.2c-1.1-1.1-1.8-2.2-2-3.4c-0.1-0.4-0.1-0.8-0.1-1.1c0-0.2,0-0.3,0.1-0.5
						C480.1,21.1,480.7,22.8,481.6,24.2z M482,21.9l-0.2-1.6c2.1,2.1,3.2,4.3,3.3,6.7c0,0-0.1,0.1-0.1,0.1
						C484.4,25.4,483.4,23.7,482,21.9z M489,22.2c-0.7-1.2-1.5-2-2.6-2.5l-1-1.7C487.7,19.4,488.9,20.8,489,22.2z"/>
				</g>
			</g>
			<g id="XMLID_91_">
				<g id="XMLID_92_">
					<path id="XMLID_94_" class="st39" d="M482.5,35.6c0.1-0.3,0.2-0.5,0.3-0.6c0.1-0.2,0.3-0.2,0.5-0.2c0.1,0,0.3,0.2,0.3,0.4
						c0,0.2,0,0.5-0.1,0.8c-0.1,0.2-0.1,0.4-0.2,0.5C483.3,36,483,35.7,482.5,35.6z"/>
					<path id="XMLID_93_" class="st40" d="M483.4,36.5c0,0.1-0.1,0.1-0.1,0.2c-0.2,0.2-0.3,0.2-0.5,0.2c-0.2,0-0.2-0.2-0.3-0.4
						c-0.1-0.2,0-0.5,0-0.8c0,0,0-0.1,0-0.1C483,35.7,483.3,36,483.4,36.5z"/>
				</g>
			</g>
		</g>
		<g id="XMLID_5_">
			<g id="XMLID_74_">
				<g id="XMLID_87_">
					<path id="XMLID_89_" class="st41" d="M473.5,59.1c-0.8,0.4-1.5,0.6-2.3,0.6c-0.1,1.1-0.1,2.2-0.1,3.2c0.5,0.6,1.1,0.6,1.7,0.1
						L473.5,59.1z"/>
					<path id="XMLID_88_" class="st42" d="M473.5,59.1l0.2-1c-0.8-0.5-1.5-0.6-2.3-0.1c-0.1,0.6-0.1,1.2-0.1,1.8
						C471.9,59.7,472.7,59.5,473.5,59.1z"/>
				</g>
				<g id="XMLID_83_">
					<path id="XMLID_86_" class="st41" d="M470.7,71.5c0.6,0.1,1.2,0.1,1.9,0c0-2.5,0-5,0.1-7.6c0,0,0-0.1,0-0.1c0,0-0.1,0-0.1,0
						c-0.3,0-0.5-0.3-0.5-0.8c0.2,0.3,0.4,0.4,0.7,0.5h0c0-0.2,0-0.4,0-0.6c-0.5-0.4-1.1-0.4-1.7-0.1c-0.4,0.8-0.6,1.7-0.7,2.7
						C470.3,67.4,470.4,69.4,470.7,71.5z"/>
					<path id="XMLID_85_" class="st42" d="M472.8,63.5c-0.2,0-0.4-0.2-0.7-0.5c0.1,0.5,0.3,0.8,0.5,0.8c0,0,0.1,0,0.1,0L472.8,63.5z
						"/>
					<path id="XMLID_84_" class="st43" d="M472.6,71.5c-0.7,0.1-1.3,0.1-1.9,0l0,2.6c0.8,0.3,1.5,0.2,2.2-0.1l-0.2-1.7
						C472.6,72,472.6,71.7,472.6,71.5z"/>
				</g>
				<g id="XMLID_75_">
					<path id="XMLID_82_" class="st44" d="M469.9,75.1L475,76c0.8,0,1.7,0,2.6-0.2l0.6-0.6c-0.2-0.3-0.5-0.6-0.7-0.8
						c-0.9,0.1-1.6,0-2-0.1c-0.4-0.1-0.6-0.2-0.6-0.2c-0.1,0.1-0.2,0.3-0.3,0.6c-0.2,0.1-0.3,0-0.4-0.1c0-0.3,0.1-0.5,0.3-0.7
						c-0.1,0-0.1-0.1-0.2-0.1c-0.2,0.2-0.3,0.5-0.4,0.7c-0.2,0-0.3,0-0.4-0.2c0.1-0.3,0.3-0.5,0.5-0.8c-0.1,0-0.1-0.1-0.2-0.1
						c-0.2,0.2-0.4,0.5-0.5,0.8c-0.2,0-0.3-0.1-0.4-0.2c0.2-0.3,0.4-0.5,0.6-0.8c-0.1-0.1-0.1-0.1-0.1-0.2c-0.3,0.2-0.5,0.5-0.6,0.8
						c-0.1,0-0.2,0-0.3-0.2c0.2-0.4,0.4-0.6,0.7-0.8c-0.1-0.1-0.2-0.3-0.2-0.4c-0.4,0.1-0.7,0.5-0.8,0.9c0,0,0,0.1,0,0.1
						c-0.2,0.3-0.3,0.5-0.6,0.6c-0.2,0-0.4-0.1-0.5-0.3c-0.1-0.3-0.2-0.5-0.2-0.8c0-0.2,0-0.3-0.2-0.4
						C470.1,73.3,469.9,74.2,469.9,75.1z"/>
					<path id="XMLID_77_" class="st45" d="M473.4,73.3c-0.2,0.2-0.4,0.5-0.6,0.8c0,0.1,0.1,0.2,0.4,0.2c0.1-0.3,0.3-0.5,0.5-0.8
						C473.7,73.4,473.6,73.3,473.4,73.3z M473.3,73.1c0-0.1-0.1-0.2-0.2-0.3c-0.3,0.2-0.5,0.5-0.7,0.8c0,0.2,0.1,0.2,0.3,0.2
						C472.8,73.6,473,73.3,473.3,73.1z M474.4,73.9c-0.1,0.2-0.2,0.5-0.3,0.7c0.1,0.1,0.3,0.1,0.4,0.1c0.1-0.3,0.2-0.5,0.3-0.6
						C474.7,74,474.5,73.9,474.4,73.9z M474.2,73.9c-0.1-0.1-0.2-0.2-0.3-0.2c-0.2,0.2-0.3,0.5-0.5,0.8c0.1,0.1,0.2,0.2,0.4,0.2
						C473.9,74.3,474,74.1,474.2,73.9z"/>
					<path id="XMLID_76_" class="st46" d="M469.9,75.1l-0.2,1l5.3,0.2c1,0,1.9-0.1,2.7-0.3l0.6-0.6c0-0.1-0.1-0.1-0.1-0.2l-0.6,0.6
						c-0.9,0.2-1.8,0.2-2.6,0.2L469.9,75.1z"/>
				</g>
			</g>
			<path id="XMLID_73_" class="st47" d="M469.9,54.7l-0.8,2.6c0.3,0.2,0.6,0.5,1,0.7c0.9,0.5,1.5,0.7,1.8,0.8
				c0.3,0.1,0.7,0.1,1.1,0.2c0.4,0,1.2,0.1,2.2,0l0.5-3.3c-1.5-0.7-3.1-1.1-4.8-1C470.5,54.6,470.2,54.6,469.9,54.7L469.9,54.7z"/>
			<g id="XMLID_70_">
				<path id="XMLID_72_" class="st27" d="M474,59.3c-0.8,0.4-1.5,0.6-2.3,0.6c-0.1,1.1-0.1,2.2-0.1,3.2c0.5,0.6,1.1,0.6,1.7,0.1
					L474,59.3z"/>
				<path id="XMLID_71_" class="st28" d="M474,59.3l0.2-1c-0.8-0.5-1.5-0.6-2.3-0.1c-0.1,0.6-0.1,1.2-0.1,1.8
					C472.4,59.9,473.2,59.7,474,59.3z"/>
			</g>
			<g id="XMLID_66_">
				<path id="XMLID_69_" class="st27" d="M471.2,71.7c0.6,0.1,1.2,0.1,1.9,0c0-2.5,0-5,0.1-7.6c0,0,0-0.1,0-0.1c0,0-0.1,0-0.1,0
					c-0.3,0-0.5-0.3-0.5-0.8c0.2,0.3,0.4,0.4,0.7,0.5h0c0-0.2,0-0.4,0-0.6c-0.5-0.3-1.1-0.4-1.7-0.1c-0.4,0.8-0.6,1.7-0.7,2.7
					C470.8,67.6,470.9,69.6,471.2,71.7z"/>
				<path id="XMLID_68_" class="st9" d="M473.1,71.7c-0.7,0.1-1.3,0.1-1.9,0l0,2.6c0.8,0.3,1.5,0.2,2.2-0.1l-0.2-1.7
					C473.1,72.2,473.1,71.9,473.1,71.7z"/>
				<path id="XMLID_67_" class="st28" d="M473.3,63.7c-0.2,0-0.4-0.2-0.7-0.5c0.1,0.5,0.3,0.8,0.5,0.8c0,0,0.1,0,0.1,0L473.3,63.7z"
					/>
			</g>
			<g id="XMLID_54_">
				<g id="XMLID_63_">
					<path id="XMLID_65_" class="st28" d="M473.2,46.8l1.3-0.5l-0.3-1.6c-0.5-0.3-0.9-0.2-1.3,0.2C473,45.5,473.1,46.1,473.2,46.8z"
						/>
					<path id="XMLID_64_" class="st41" d="M474.5,46.3l-1.3,0.5c0.1,0.7,0.3,1.5,0.4,2.2c0.5,0,1-0.2,1.4-0.5L474.5,46.3z"/>
				</g>
				<g id="XMLID_60_">
					<path id="XMLID_62_" class="st48" d="M471.9,45.5L471.9,45.5c1,0.2,2.1,0.1,3.2-0.2l-0.9-3.2c-0.3-0.8-0.9-1.2-1.6-1.1
						c-0.7,0.3-1,0.7-1,1.4L471.9,45.5z"/>
					<path id="XMLID_61_" class="st49" d="M471.9,45.5l0.1,0.7c0.9,0.2,1.9,0.1,3.2-0.3l-0.2-0.6C474,45.5,473,45.6,471.9,45.5
						L471.9,45.5z"/>
				</g>
				<path id="XMLID_59_" class="st41" d="M473.6,48.5c0.1,1.9,0.2,3.7,0.6,5.4c0.8,0.2,1.4,0,1.9-0.6c-0.2-1.6-0.6-3.2-1-4.8
					C474.5,48.1,474,48.1,473.6,48.5z"/>
				<g id="XMLID_55_">
					<path id="XMLID_58_" class="st41" d="M476,53.3c-0.5,0-0.8,0.3-0.8,0.9c0,0,0,0,0,0l0,0c0,0,0,0,0,0.1c0,0.9-0.3,1.4-0.7,1.6v0
						c0,0,0,0.1,0,0.1c0,0.3,0.2,0.6,0.5,0.9c0.1,0.1,0.1,0.3,0,0.3c-0.1,0-0.2,0-0.3,0c0,0,0,0,0,0c-0.1-0.1-0.3-0.3-0.5-0.5
						c-0.1-0.2-0.2-0.3-0.2-0.5c0-0.2,0-0.5,0-0.8c0-0.3,0.1-0.9,0.3-1.6c0.3-0.4,0.6-0.5,1.1-0.5c0.1,0,0.1,0,0.2,0
						C475.6,53.2,475.8,53.2,476,53.3C475.9,53.3,475.9,53.3,476,53.3z"/>
					<path id="XMLID_57_" class="st27" d="M476,53.3c0.7,0.6,1.1,1.2,1.1,1.7v0l0.1,1.1c0,0.2,0.1,0.3,0.2,0.5l0,0
						c0,0.1,0,0.1,0,0.1c0,0,0,0,0,0c-0.3,0.1-0.5,0-0.6-0.4c-0.1-0.3-0.2-0.5-0.2-0.6c0-0.1,0-0.1,0-0.2c0-0.1,0-0.1-0.1-0.2
						c-0.1,0-0.2-0.1-0.3-0.1c-0.6-0.2-0.9-0.6-1.1-1.2c0,0,0,0,0,0C475.2,53.6,475.4,53.3,476,53.3z"/>
					<path id="XMLID_56_" class="st28" d="M476.5,55.7c-0.1-0.1-0.1-0.1-0.2-0.1c-0.1,0-0.1,0.1-0.2,0.2c0,0,0,0.3,0,0.7
						c0,0.3,0.1,0.6,0.2,0.9c0,0.2-0.1,0.3-0.4,0.3l0,0c-0.1,0.1-0.2,0.1-0.4,0c-0.2,0-0.3-0.1-0.5-0.2c-0.2,0-0.3-0.1-0.4-0.2
						c0,0,0,0-0.1,0c0.1,0,0.2,0.1,0.3,0c0.1-0.1,0.1-0.2,0-0.3c-0.3-0.3-0.5-0.6-0.5-0.9c0,0,0-0.1,0-0.1v0
						c0.4-0.2,0.6-0.7,0.7-1.6c0,0,0,0,0-0.1l0,0c0.1,0.6,0.5,1,1.1,1.2c0.1,0,0.2,0.1,0.3,0.1C476.5,55.6,476.5,55.6,476.5,55.7z"
						/>
				</g>
			</g>
			<g id="XMLID_50_">
				<path id="XMLID_53_" class="st50" d="M474.1,58.7c0.1,0,0.3,0,0.5,0c0,0,0,0,0.1,0c0.2,0,0.5-0.1,0.9-0.1l0.5-7
					c-0.4,0.1-0.8,0.1-1.1,0.1c-0.3,1.6-1.1,2.4-2.4,2.3l-0.4,4.3C472.8,58.5,473.5,58.7,474.1,58.7L474.1,58.7z"/>
				<path id="XMLID_52_" class="st51" d="M470.5,51.7c0.2,0.1,0.4,0.2,0.5,0.3c-0.2,0.8-0.4,1.5-0.4,2.3c-0.2,0.3-0.4,0.5-0.6,0.5
					v0.1l-0.5,2.7c0.3,0.2,0.6,0.4,1,0.6c0.9,0.4,1.5,0.6,1.8,0.6c0.3,0,0.7,0,1.1,0.1c0.2,0,0.4,0,0.8-0.1v0c-0.6,0-1.3-0.1-2-0.4
					l0.4-4.3c1.2,0.1,2-0.7,2.4-2.3c0.3,0,0.7,0,1.1-0.1l0.1-0.9c-1.7,0-3.4,0.1-5.1,0.1c-0.1,0.1-0.1,0.2-0.1,0.3
					C470.7,51.3,470.6,51.5,470.5,51.7z"/>
				<path id="XMLID_51_" class="st52" d="M470.5,51.7c-0.3,0.7-0.5,1.5-0.5,2.2c0,0,0,0,0,0v0.9c0.2,0,0.4-0.2,0.6-0.5
					c0-0.8,0.1-1.5,0.4-2.3C470.9,51.9,470.7,51.8,470.5,51.7z"/>
			</g>
			<g id="XMLID_44_">
				<g id="XMLID_45_">
					<path id="XMLID_49_" class="st53" d="M474.4,40.9l-0.5,1c-0.4-0.5-0.9-0.9-1.3-1.2c-0.5-0.3-1-0.6-1.6-0.7l0.4-1
						c0.1,0,0.2,0.1,0.3,0.1c0.7,0.1,1.2,0.3,1.6,0.6c0.4,0.2,0.9,0.6,1.3,1L474.4,40.9z"/>
					<path id="XMLID_48_" class="st9" d="M475,42l0.4,1.6l0.4,0l0.4,7.8c-1.1,0-2.2-0.1-3.1-0.2c-0.9-0.1-1.7-0.3-2.2-0.5l0.6-1.9
						l-1.3-6.8c0-0.2,0-0.5,0.2-0.8c0.1-0.2,0.3-0.5,0.5-0.8c0.1-0.1,0.1-0.2,0.2-0.3c0.6,0.1,1.1,0.3,1.6,0.7
						c0.5,0.3,0.9,0.7,1.3,1.2l0.5-1L475,42z"/>
					<polygon id="XMLID_47_" class="st51" points="475.4,42 475,42 474.4,40.9 474.5,40.6 					"/>
					<polygon id="XMLID_46_" class="st54" points="475.8,43.5 475.4,43.5 475,42 475.4,42 475.8,43.5 					"/>
				</g>
			</g>
			<g id="XMLID_36_">
				<path id="XMLID_43_" class="st55" d="M470.4,75.3l5.1,0.9c0.8,0,1.7,0,2.6-0.2l0.6-0.6c-0.2-0.3-0.5-0.6-0.7-0.8
					c-0.9,0.1-1.6,0-2-0.1c-0.4-0.1-0.6-0.2-0.6-0.2c-0.1,0.1-0.2,0.3-0.3,0.6c-0.2,0.1-0.3,0-0.4-0.1c0-0.3,0.1-0.5,0.3-0.7
					c-0.1,0-0.1-0.1-0.2-0.1c-0.2,0.2-0.3,0.5-0.4,0.7c-0.2,0-0.3,0-0.4-0.2c0.1-0.3,0.3-0.5,0.5-0.8c-0.1,0-0.1-0.1-0.2-0.1
					c-0.2,0.2-0.4,0.5-0.5,0.8c-0.2,0-0.3-0.1-0.4-0.2c0.2-0.3,0.4-0.5,0.6-0.8c-0.1-0.1-0.1-0.1-0.1-0.2c-0.3,0.2-0.5,0.5-0.6,0.8
					c-0.1,0-0.2,0-0.3-0.2c0.2-0.4,0.4-0.6,0.7-0.8c-0.1-0.1-0.2-0.3-0.2-0.4c-0.4,0.1-0.7,0.5-0.8,0.9c0,0,0,0.1,0,0.1
					c-0.2,0.3-0.3,0.5-0.6,0.6c-0.2,0-0.4-0.1-0.5-0.3c-0.1-0.3-0.2-0.5-0.2-0.8c0-0.2,0-0.3-0.2-0.4
					C470.7,73.5,470.4,74.4,470.4,75.3z"/>
				<path id="XMLID_38_" class="st56" d="M473.7,73c-0.3,0.2-0.5,0.5-0.7,0.8c0,0.2,0.1,0.2,0.3,0.2c0.1-0.3,0.4-0.6,0.6-0.8
					C473.8,73.2,473.8,73.1,473.7,73z M474.3,73.7c-0.1-0.1-0.2-0.2-0.3-0.3c-0.2,0.2-0.4,0.5-0.6,0.8c0,0.1,0.1,0.2,0.4,0.2
					C473.9,74.2,474.1,74,474.3,73.7z M474.9,74.2c-0.1,0.2-0.2,0.5-0.3,0.7c0.1,0.1,0.3,0.1,0.4,0.1c0.1-0.3,0.2-0.5,0.3-0.6
					C475.2,74.2,475.1,74.1,474.9,74.2z M474.8,74.1c-0.1-0.1-0.2-0.2-0.3-0.2c-0.2,0.2-0.3,0.5-0.5,0.8c0.1,0.1,0.2,0.2,0.4,0.2
					C474.5,74.5,474.6,74.3,474.8,74.1z"/>
				<path id="XMLID_37_" class="st57" d="M470.4,75.3l-0.2,1l5.3,0.2c1,0,1.9-0.1,2.7-0.3l0.6-0.6c0-0.1-0.1-0.1-0.1-0.2l-0.6,0.6
					c-0.9,0.2-1.8,0.2-2.6,0.2L470.4,75.3z"/>
			</g>
			<g id="XMLID_6_">
				<g id="XMLID_33_">
					<path id="XMLID_35_" class="st27" d="M476,43.4c0.8,0.1,1.5,0.1,2.3,0.1c0.1-0.5,0.1-1-0.2-1.4l-2.3-0.1L476,43.4z"/>
					<path id="XMLID_34_" class="st28" d="M475.8,42.1l-1.7,0c-0.4,0.4-0.4,0.8-0.1,1.3c0.7,0.1,1.3,0.1,2,0.2L475.8,42.1z"/>
				</g>
				<g id="XMLID_30_">
					<path id="XMLID_32_" class="st58" d="M475.2,41.3c-0.2,1.1-0.7,2.1-1.3,2.9l0,0l-3-1.2c-0.6-0.4-0.8-0.9-0.8-1.6
						c0.3-0.7,0.9-0.9,1.7-0.9L475.2,41.3z"/>
					<path id="XMLID_31_" class="st51" d="M474,44.3c0.6-0.8,1-1.8,1.3-2.9l0.6,0.1c-0.3,1.3-0.7,2.4-1.2,3L474,44.3z"/>
				</g>
				<g id="XMLID_25_">
					<path id="XMLID_29_" class="st27" d="M476.4,39.7c-0.1-0.3-0.2-0.6-0.3-1c0.4-0.6,1-0.9,1.8-0.8c0.3,0.9,0.6,1.9,0.8,2.8
						c0.2,0.8,0.3,1.6,0.5,2.4c-0.4,0.4-0.8,0.5-1.4,0.1C477.2,42.1,476.7,40.9,476.4,39.7z"/>
					<path id="XMLID_26_" class="st59" d="M478.6,40.7c-0.2-1-0.5-1.9-0.8-2.8c-0.8-0.1-1.4,0.2-1.8,0.8c0.1,0.3,0.2,0.7,0.3,1"/>
				</g>
				<g id="XMLID_7_">
					<path id="XMLID_24_" class="st27" d="M475.2,34c0.1,0.1,0.1,0.1,0.2,0.2c0.1,0.2,0.2,0.3,0.4,0.5c0.2,0.3,0.3,0.6,0.5,1
						c0.4,0,1,0,1.6,0.1v0c0.1,0.7,0.1,1.5,0,2.3c-0.3,0.6-0.8,0.9-1.6,0.8c-0.1-0.1-0.2-0.1-0.3-0.2c-0.6-0.4-1-0.9-1.2-1.4
						c0,0,0,0,0,0l-0.3-1.2c0-0.2-0.1-0.3-0.3-0.5c0-0.1,0-0.1,0-0.2c0.2-0.1,0.5-0.1,0.6,0.3c0.2,0.3,0.3,0.5,0.3,0.6
						c0,0.1,0.1,0.1,0.1,0.1c0.1,0.2,0.1,0.3,0.2,0.3c0,0,0.1,0.1,0.2,0.1c0-0.1,0.1-0.2,0-0.4c0-0.1,0-0.1,0-0.2c0,0,0-0.1-0.1-0.4
						c0-0.1,0-0.2-0.1-0.3c-0.1-0.4-0.3-0.8-0.6-1.2v0c-0.1-0.2-0.2-0.3-0.2-0.5c0-0.1,0.1-0.2,0.3-0.1
						C475,33.8,475.1,33.9,475.2,34z"/>
					<path id="XMLID_16_" class="st28" d="M477.9,35.7c-0.7-0.1-1.2-0.1-1.6-0.1c-0.1-0.3-0.3-0.7-0.5-1c-0.1-0.2-0.2-0.4-0.4-0.5
						c-0.1-0.1-0.1-0.1-0.2-0.2c0.2-0.1,0.4,0,0.5,0.2c0.2,0,0.4,0,0.5,0.1c0.1,0,0.3,0,0.4,0.1l0.4,0.4
						C477.4,35,477.7,35.3,477.9,35.7z M475.2,36.4c0.1,0.1,0.3,0,0.4-0.2c0,0.1,0,0.1,0,0.2c0,0.2,0,0.3,0,0.4
						c-0.1,0-0.2-0.1-0.2-0.1C475.4,36.7,475.3,36.6,475.2,36.4z"/>
					<path id="XMLID_8_" class="st59" d="M475.2,34c-0.1-0.1-0.2-0.2-0.3-0.3c-0.2,0-0.3,0-0.3,0.1c0,0.1,0,0.3,0.2,0.5v0
						c0.3,0.4,0.6,0.8,0.6,1.2c0,0.1,0,0.3,0.1,0.3c0,0.2,0.1,0.3,0.1,0.4c-0.1,0.2-0.2,0.3-0.4,0.2c0,0,0-0.1-0.1-0.1
						c0-0.1-0.1-0.3-0.3-0.6c-0.2-0.3-0.4-0.4-0.6-0.3c-0.1,0-0.1,0.1,0,0.2c0.1,0.2,0.2,0.3,0.3,0.5l0.3,1.2c0,0,0,0,0,0
						c0.2,0.5,0.6,1,1.2,1.4 M477.9,38.1c0-0.8,0-1.6,0-2.3v0c-0.2-0.4-0.4-0.7-0.7-1l-0.4-0.4c-0.1-0.1-0.3-0.1-0.4-0.1
						c-0.2-0.1-0.4-0.2-0.5-0.1c-0.2-0.2-0.3-0.2-0.5-0.2"/>
				</g>
			</g>
		</g>
	</g>
</g>
</svg>
