<?xml version="1.0" encoding="utf-8"?>
<!-- Generator: Adobe Illustrator 19.0.0, SVG Export Plug-In . SVG Version: 6.00 Build 0)  -->
<svg version="1.1" id="图层_1" xmlns="http://www.w3.org/2000/svg" xmlns:xlink="http://www.w3.org/1999/xlink" x="0px" y="0px"
	 viewBox="0 0 1024 100" style="enable-background:new 0 0 1024 100;" xml:space="preserve">
<style type="text/css">
	.st0{fill:#081842;}
	.st1{fill-rule:evenodd;clip-rule:evenodd;fill:#632725;}
	.st2{fill-rule:evenodd;clip-rule:evenodd;fill:url(#XMLID_341_);}
	.st3{fill-rule:evenodd;clip-rule:evenodd;fill:url(#XMLID_342_);}
	.st4{fill-rule:evenodd;clip-rule:evenodd;fill:#183262;}
	.st5{fill-rule:evenodd;clip-rule:evenodd;fill:#11264E;}
	.st6{fill-rule:evenodd;clip-rule:evenodd;fill:#152E5B;}
	.st7{fill-rule:evenodd;clip-rule:evenodd;fill:#0F2142;}
	.st8{fill-rule:evenodd;clip-rule:evenodd;fill:#0B1B33;}
	.st9{fill-rule:evenodd;clip-rule:evenodd;fill:#FFFFFF;}
	.st10{fill-rule:evenodd;clip-rule:evenodd;fill:#726841;}
	.st11{fill-rule:evenodd;clip-rule:evenodd;fill:#8EBB42;}
	.st12{fill-rule:evenodd;clip-rule:evenodd;fill:#E17638;}
	.st13{fill-rule:evenodd;clip-rule:evenodd;fill:#EB9D3F;}
	.st14{fill-rule:evenodd;clip-rule:evenodd;fill:#5FAADB;}
	.st15{fill-rule:evenodd;clip-rule:evenodd;fill:#459A57;}
	.st16{fill-rule:evenodd;clip-rule:evenodd;fill:#7D848B;}
	.st17{fill-rule:evenodd;clip-rule:evenodd;fill:#802A7C;}
	.st18{fill-rule:evenodd;clip-rule:evenodd;fill:#DA423E;}
	.st19{fill-rule:evenodd;clip-rule:evenodd;fill:#D8AA48;}
	.st20{fill-rule:evenodd;clip-rule:evenodd;fill:#10255A;}
	.st21{fill-rule:evenodd;clip-rule:evenodd;fill:#CF4D75;}
	.st22{fill-rule:evenodd;clip-rule:evenodd;fill:#2A2167;}
	.st23{fill-rule:evenodd;clip-rule:evenodd;fill:#214A2D;}
	.st24{fill-rule:evenodd;clip-rule:evenodd;fill:#07988D;}
	.st25{fill-rule:evenodd;clip-rule:evenodd;fill:#FDC6AE;}
	.st26{fill-rule:evenodd;clip-rule:evenodd;fill:#FDAC8A;}
	.st27{fill-rule:evenodd;clip-rule:evenodd;fill:#09B5A8;}
	.st28{fill-rule:evenodd;clip-rule:evenodd;fill:#4BCDC4;}
	.st29{fill-rule:evenodd;clip-rule:evenodd;fill:#EC496E;}
	.st30{fill-rule:evenodd;clip-rule:evenodd;fill:#CD4261;}
	.st31{fill-rule:evenodd;clip-rule:evenodd;fill:#B66F5D;}
	.st32{fill-rule:evenodd;clip-rule:evenodd;fill:#1E9F96;}
	.st33{fill-rule:evenodd;clip-rule:evenodd;fill:#E9DFDF;}
	.st34{fill-rule:evenodd;clip-rule:evenodd;fill:#231054;}
	.st35{fill-rule:evenodd;clip-rule:evenodd;fill:#1F1931;}
	.st36{fill-rule:evenodd;clip-rule:evenodd;fill:#4F365F;}
	.st37{fill-rule:evenodd;clip-rule:evenodd;fill:#E7E7E7;}
	.st38{fill-rule:evenodd;clip-rule:evenodd;fill:#208CBB;}
	.st39{fill-rule:evenodd;clip-rule:evenodd;fill:#DB9679;}
	.st40{fill-rule:evenodd;clip-rule:evenodd;fill:#0B658C;}
	.st41{fill-rule:evenodd;clip-rule:evenodd;fill:#37A6D7;}
	.st42{fill-rule:evenodd;clip-rule:evenodd;fill:#E7D9BF;}
	.st43{fill-rule:evenodd;clip-rule:evenodd;fill:#CDC1A9;}
	.st44{fill-rule:evenodd;clip-rule:evenodd;fill:#AE9F84;}
	.st45{fill-rule:evenodd;clip-rule:evenodd;fill:#C2B295;}
	.st46{fill-rule:evenodd;clip-rule:evenodd;fill:#F5F5F5;}
	.st47{fill-rule:evenodd;clip-rule:evenodd;fill:#8DD2F0;}
	.st48{fill-rule:evenodd;clip-rule:evenodd;fill:#FF9F9A;}
	.st49{fill-rule:evenodd;clip-rule:evenodd;fill:#854848;}
	.st50{fill-rule:evenodd;clip-rule:evenodd;fill:#C46666;}
	.st51{fill-rule:evenodd;clip-rule:evenodd;fill:#D97373;}
	.st52{fill-rule:evenodd;clip-rule:evenodd;fill:#B85858;}
	.st53{fill-rule:evenodd;clip-rule:evenodd;fill:#C67B67;}
	.st54{fill-rule:evenodd;clip-rule:evenodd;fill:#5F3130;}
</style>
<rect id="XMLID_1_" class="st0" width="1024" height="102"/>
<g id="XMLID_2_">
	<path id="XMLID_339_" class="st1" d="M456,53.5c0,0.7-0.2,1.4-0.8,1.9s-1.1,0.8-1.8,0.8s-1.3-0.2-1.8-0.8s-0.8-1.1-0.8-1.9
		c0-0.7,0.2-1.3,0.8-1.8s1.1-0.8,1.8-0.8s1.3,0.2,1.8,0.8S456,52.8,456,53.5z"/>
	
		<linearGradient id="XMLID_341_" gradientUnits="userSpaceOnUse" x1="-387.3955" y1="-157.0685" x2="-368.6776" y2="-157.0685" gradientTransform="matrix(1.000000e-04 -1 1 -1.000000e-03 335.3572 -333.3344)">
		<stop  offset="0" style="stop-color:#183262"/>
		<stop  offset="4.705880e-02" style="stop-color:#323C56"/>
		<stop  offset="0.1059" style="stop-color:#4E464A"/>
		<stop  offset="0.1725" style="stop-color:#675041"/>
		<stop  offset="0.2471" style="stop-color:#7B573A"/>
		<stop  offset="0.3333" style="stop-color:#8B5D36"/>
		<stop  offset="0.4392" style="stop-color:#966233"/>
		<stop  offset="0.5922" style="stop-color:#9C6432"/>
		<stop  offset="1" style="stop-color:#9E6532"/>
	</linearGradient>
	<path id="XMLID_338_" class="st2" d="M196.2,54.2l-35.9-0.5c0.2-0.2,1.4-1.7,3.5-4.7c2.5-3.4,4.7-6.1,6.7-8.1
		c3.5-3.6,6.2-5.5,8.1-5.5c2.6,0,6.3,3.1,11.2,9.3C192.1,48,194.3,51.1,196.2,54.2z"/>
	
		<linearGradient id="XMLID_342_" gradientUnits="userSpaceOnUse" x1="-387.0392" y1="-183.1369" x2="-360.3643" y2="-183.1369" gradientTransform="matrix(0 -1 1 -1.000000e-03 334.7121 -333.3344)">
		<stop  offset="0" style="stop-color:#183262"/>
		<stop  offset="3.921570e-03" style="stop-color:#193262"/>
		<stop  offset="5.490200e-02" style="stop-color:#384053"/>
		<stop  offset="0.1137" style="stop-color:#544C48"/>
		<stop  offset="0.1804" style="stop-color:#6D573F"/>
		<stop  offset="0.251" style="stop-color:#826039"/>
		<stop  offset="0.3373" style="stop-color:#916735"/>
		<stop  offset="0.4471" style="stop-color:#9C6C33"/>
		<stop  offset="0.5922" style="stop-color:#A36E32"/>
		<stop  offset="1" style="stop-color:#A46F32"/>
	</linearGradient>
	<path id="XMLID_337_" class="st3" d="M130.8,46.5c3.5-4.8,6.7-8.6,9.6-11.6c4.9-5.2,8.7-7.8,11.5-7.8c3.7,0,9,4.5,16,13.3
		c3.5,4.5,6.6,8.9,9.3,13.4L126,53.2C126.2,53,127.9,50.8,130.8,46.5z"/>
	<path id="XMLID_336_" class="st4" d="M912.2,50.5c39.8,0.7,76.9,1.7,111.4,2.9v35.6l-258.3,7L-0.4,89.5V50.8l104.1,1.5
		c84.2,1.1,162.9,2,236.2,2.6c235,1.9,372.6,1,413-2.8C779.5,49.6,832.5,49.1,912.2,50.5z"/>
	<path id="XMLID_335_" class="st5" d="M728.7,92.1c0,1.1-0.8,2-2.3,2.8c-1.5,0.7-3.4,1.1-5.6,1.1c-2.2,0-4-0.4-5.6-1.1
		c-1.5-0.8-2.3-1.7-2.3-2.8c0-1.1,0.8-2,2.3-2.8c1.6-0.8,3.4-1.1,5.6-1.1c2.2,0,4.1,0.4,5.6,1.1S728.7,91,728.7,92.1z"/>
	<path id="XMLID_334_" class="st6" d="M859.7,58.2c0,1.2-1.4,2.3-4.1,3.2c-2.8,0.9-6.1,1.3-10,1.3c-3.9,0-7.2-0.4-9.9-1.3
		c-2.7-0.9-4.1-2-4.1-3.2c0-1.3,1.4-2.3,4.1-3.2c2.8-0.9,6.1-1.3,9.9-1.3c3.9,0,7.2,0.4,10,1.3C858.3,55.9,859.7,56.9,859.7,58.2z"
		/>
	<path id="XMLID_333_" class="st5" d="M211.2,70.5c9.1,1.3,13.7,3,13.7,4.9c0,1.9-4.6,3.5-13.7,4.9c-9.1,1.3-20.1,2-32.9,2
		c-12.8,0-23.8-0.7-32.8-2c-9.1-1.4-13.7-3-13.7-4.9c0-1.9,4.6-3.6,13.7-4.9c9.1-1.4,20-2,32.8-2C191.2,68.4,202.2,69.1,211.2,70.5z
		"/>
	<path id="XMLID_332_" class="st5" d="M333.4,60.8c0,0.9-1,1.7-3.1,2.4c-2.1,0.7-4.5,1-7.5,1c-2.9,0-5.4-0.3-7.4-1
		c-2.1-0.7-3.1-1.5-3.1-2.4s1-1.7,3.1-2.4c2-0.7,4.5-1,7.4-1c2.9,0,5.4,0.3,7.5,1C332.4,59,333.4,59.8,333.4,60.8z"/>
	<path id="XMLID_331_" class="st7" d="M1023.6,100H-0.4V85.1l40.9-2.7c34.2-2,68.6-3.5,103.3-4.6c110.9-3.4,203.4-1.5,277.5,5.7
		C529,94,657.8,96.6,807.5,91.4c53.5-1.8,102.6-4.5,147.5-7.9c39.1-3,62-5.5,68.7-7.4V100z"/>
	<path id="XMLID_330_" class="st8" d="M294.1,91c1.8,0,3.3,0.2,4.6,0.6c1.3,0.4,1.9,1,1.9,1.6c0,0.6-0.6,1.2-1.9,1.6
		c-1.3,0.4-2.8,0.7-4.6,0.7c-1.8,0-3.3-0.2-4.6-0.7c-1.3-0.4-1.9-1-1.9-1.6c0-0.6,0.6-1.2,1.9-1.6C290.8,91.2,292.3,91,294.1,91z"/>
	<path id="XMLID_329_" class="st9" d="M957.2,41.8c0,1.3-0.6,2.4-1.8,3.4c-1.2,0.9-2.6,1.3-4.3,1.3c-1.7,0-3.1-0.5-4.3-1.3
		c-1.2-0.9-1.8-2.1-1.8-3.4s0.6-2.4,1.8-3.3c1.2-0.9,2.6-1.4,4.3-1.4c1.7,0,3.1,0.5,4.3,1.4C956.5,39.4,957.2,40.5,957.2,41.8z"/>
	<path id="XMLID_328_" class="st9" d="M961.2,37.8c0,1.3-0.6,2.4-1.8,3.3c-1.2,0.9-2.6,1.4-4.3,1.4c-1.7,0-3.1-0.5-4.3-1.4
		c-1.2-0.9-1.8-2-1.8-3.3s0.6-2.4,1.8-3.3c1.2-0.9,2.6-1.4,4.3-1.4c1.7,0,3.1,0.5,4.3,1.4C960.6,35.3,961.2,36.5,961.2,37.8z"/>
	<path id="XMLID_327_" class="st9" d="M962.2,43.8c0,1.3-0.6,2.4-1.8,3.4c-1.2,0.9-2.6,1.3-4.3,1.3c-1.7,0-3.1-0.5-4.3-1.3
		c-1.2-0.9-1.8-2.1-1.8-3.4s0.6-2.4,1.8-3.3c1.2-0.9,2.6-1.4,4.3-1.4c1.7,0,3.1,0.5,4.3,1.4C961.6,41.4,962.2,42.5,962.2,43.8z"/>
	<path id="XMLID_326_" class="st9" d="M967.5,40.1c0,1.3-0.6,2.4-1.8,3.4c-1.2,0.9-2.6,1.3-4.3,1.3s-3.1-0.5-4.3-1.3
		c-1.2-0.9-1.8-2-1.8-3.4c0-1.3,0.6-2.4,1.8-3.3c1.2-0.9,2.6-1.4,4.3-1.4s3.1,0.5,4.3,1.4C967,37.7,967.5,38.8,967.5,40.1z"/>
	<path id="XMLID_325_" class="st9" d="M971,43.5c0,1.3-0.6,2.4-1.8,3.3c-1.2,0.9-2.6,1.4-4.3,1.4c-1.7,0-3.1-0.5-4.3-1.4
		c-1.2-0.9-1.8-2-1.8-3.3c0-1.3,0.6-2.5,1.8-3.3c1.2-0.9,2.6-1.4,4.3-1.4c1.7,0,3.1,0.5,4.3,1.4C970.3,41,971,42.2,971,43.5z"/>
	<path id="XMLID_324_" class="st9" d="M925.6,52.9c0,1-0.4,1.8-1.3,2.4c-0.9,0.7-1.9,1.1-3.2,1.1c-1.2,0-2.3-0.4-3.2-1.1
		c-0.9-0.7-1.3-1.5-1.3-2.4c0-1,0.4-1.8,1.3-2.5c0.9-0.7,2-1,3.2-1c1.2,0,2.3,0.3,3.2,1C925.2,51.1,925.6,51.9,925.6,52.9z"/>
	<path id="XMLID_323_" class="st9" d="M928.6,49.9c0,1-0.4,1.8-1.3,2.4c-0.9,0.7-1.9,1.1-3.2,1.1c-1.2,0-2.3-0.4-3.2-1.1
		c-0.9-0.7-1.3-1.5-1.3-2.4c0-1,0.4-1.8,1.3-2.5c0.9-0.7,2-1,3.2-1c1.2,0,2.3,0.3,3.2,1C928.2,48.1,928.6,48.9,928.6,49.9z"/>
	<path id="XMLID_322_" class="st9" d="M929.3,54.4c0,1-0.4,1.8-1.3,2.4c-0.9,0.7-1.9,1.1-3.2,1.1c-1.2,0-2.3-0.4-3.2-1.1
		c-0.9-0.7-1.3-1.5-1.3-2.4c0-1,0.4-1.8,1.3-2.5c0.9-0.7,2-1,3.2-1c1.2,0,2.3,0.3,3.2,1C928.9,52.6,929.3,53.4,929.3,54.4z"/>
	<path id="XMLID_321_" class="st9" d="M933.3,51.7c0,1-0.4,1.8-1.3,2.4c-0.9,0.7-1.9,1.1-3.2,1.1c-1.2,0-2.3-0.4-3.2-1.1
		c-0.9-0.7-1.3-1.5-1.3-2.4c0-1,0.4-1.8,1.3-2.5c0.9-0.7,2-1,3.2-1c1.2,0,2.3,0.3,3.2,1C932.9,49.8,933.3,50.7,933.3,51.7z"/>
	<path id="XMLID_320_" class="st9" d="M935.8,54.2c0,1-0.4,1.8-1.3,2.4c-0.9,0.7-1.9,1.1-3.2,1.1c-1.2,0-2.3-0.4-3.2-1.1
		c-0.9-0.7-1.3-1.5-1.3-2.4c0-1,0.4-1.8,1.3-2.5c0.9-0.7,2-1,3.2-1c1.2,0,2.3,0.3,3.2,1C935.4,52.3,935.8,53.2,935.8,54.2z"/>
	<path id="XMLID_319_" class="st9" d="M212.9,41.7c0.9-0.7,1.9-1,3.1-1c1.3,0,2.3,0.3,3.2,1c0.9,0.7,1.3,1.5,1.3,2.5
		c0,1-0.4,1.8-1.3,2.4c-0.9,0.7-2,1.1-3.2,1.1s-2.3-0.4-3.1-1.1c-0.9-0.7-1.4-1.5-1.4-2.4C211.5,43.2,212,42.3,212.9,41.7z"/>
	<path id="XMLID_318_" class="st9" d="M223.5,41.2c0,1-0.4,1.8-1.3,2.4c-0.9,0.7-2,1.1-3.2,1.1s-2.3-0.4-3.1-1.1
		c-0.9-0.7-1.4-1.5-1.4-2.4c0-1,0.5-1.8,1.4-2.5c0.9-0.7,1.9-1,3.1-1c1.3,0,2.3,0.3,3.2,1C223.1,39.3,223.5,40.2,223.5,41.2z"/>
	<path id="XMLID_317_" class="st9" d="M224.3,45.7c0,1-0.4,1.8-1.3,2.4c-0.9,0.7-2,1.1-3.2,1.1s-2.3-0.4-3.1-1.1
		c-0.9-0.7-1.4-1.5-1.4-2.4c0-1,0.5-1.8,1.4-2.5c0.9-0.7,1.9-1,3.1-1c1.3,0,2.3,0.3,3.2,1C223.9,43.8,224.3,44.7,224.3,45.7z"/>
	<path id="XMLID_316_" class="st9" d="M228.3,42.9c0,1-0.4,1.8-1.3,2.4c-0.9,0.7-2,1.1-3.2,1.1s-2.3-0.4-3.1-1.1
		c-0.9-0.7-1.4-1.5-1.4-2.4c0-1,0.5-1.8,1.4-2.5c0.9-0.7,1.9-1,3.1-1c1.3,0,2.3,0.3,3.2,1C227.9,41.1,228.3,41.9,228.3,42.9z"/>
	<path id="XMLID_315_" class="st9" d="M230.8,45.4c0,1-0.4,1.8-1.3,2.4c-0.9,0.7-2,1.1-3.2,1.1s-2.3-0.4-3.1-1.1
		c-0.9-0.7-1.4-1.5-1.4-2.4c0-1,0.5-1.8,1.4-2.5c0.9-0.7,1.9-1,3.1-1c1.3,0,2.3,0.3,3.2,1C230.4,43.6,230.8,44.4,230.8,45.4z"/>
	<path id="XMLID_314_" class="st7" d="M910,64c0,0.6-0.6,1.2-1.9,1.6c-1.3,0.4-2.8,0.6-4.6,0.6s-3.3-0.2-4.6-0.6
		c-1.3-0.4-1.9-1-1.9-1.6c0-0.6,0.6-1.1,1.9-1.5c1.3-0.5,2.8-0.7,4.6-0.7s3.3,0.2,4.6,0.7C909.4,62.9,910,63.5,910,64z"/>
	<path id="XMLID_313_" class="st10" d="M904.6,63.6c-0.3,0.3-0.7,0.5-1.1,0.5s-0.8-0.1-1-0.5c-0.3-0.3-0.5-0.6-0.5-1v-6.7
		c0-0.4,0.2-0.8,0.5-1c0.3-0.3,0.6-0.5,1-0.5s0.8,0.2,1.1,0.5c0.3,0.3,0.5,0.6,0.5,1v6.7C905,63,904.9,63.3,904.6,63.6z"/>
	<path id="XMLID_312_" class="st11" d="M910.3,51.4c0,1.9-0.6,3.4-1.9,4.4c-1.2,0.9-2.8,1.3-4.8,1.3s-3.6-0.4-4.8-1.3
		c-1.3-1-2-2.5-2-4.4c0-2.3,0.6-4.8,2-7.5c1.5-2.9,3-4.4,4.8-4.4c1.7,0,3.3,1.5,4.8,4.4C909.7,46.6,910.3,49.1,910.3,51.4z"/>
	<g id="XMLID_304_">
		<path id="XMLID_311_" class="st12" d="M560.7,47.5c0.2,0.1,0.3,0.2,0.1,0.5l-1.6,4.5c-0.1,0.3-0.2,0.3-0.5,0.2l-3.6-2.5
			c-0.2-0.1-0.2-0.2-0.1-0.4l1.4-3.9c0.1-0.2,0.2-0.3,0.5-0.2L560.7,47.5z"/>
		<path id="XMLID_310_" class="st13" d="M569.5,28.3c0.2,0,0.3,0.1,0.2,0.4l-1.7,4.6l-0.3-0.2l0,0.1l-2.3-1.1
			c-0.2-0.1-0.3-0.1-0.4,0.2l-1.1,3.1l-4.5-1.5l1.3-3.9c0.1-0.2,0-0.3-0.2-0.4l-0.8-0.2l1-2.8c0.1-0.2,0.2-0.3,0.4-0.2L569.5,28.3z"
			/>
		<path id="XMLID_309_" class="st14" d="M571.9,35c0.2,0.1,0.3,0.3,0.2,0.5l-2.4,6.8c-0.1,0.2-0.2,0.3-0.4,0.2l-3-0.7l0.5-1.4
			c0.1-0.2,0-0.3-0.2-0.4l-3.6-1.3l-0.2-0.1l1.2-3.2l2.8,1c0.2,0.1,0.3,0,0.4-0.2l1-2.8L571.9,35z"/>
		<path id="XMLID_308_" class="st15" d="M568,33.2l0.1,0.1l-1,2.8c-0.1,0.2-0.2,0.3-0.4,0.2l-2.8-1l1.1-3.1c0.1-0.2,0.2-0.3,0.4-0.2
			l2.3,1.1L568,33.2z"/>
		<path id="XMLID_307_" class="st16" d="M562,40.5c-0.1,0.2,0,0.3,0.2,0.4l4,0.9l-1.4,4c0,0.2-0.2,0.3-0.4,0.3l-6-0.9
			c-0.2-0.1-0.2-0.2-0.2-0.4l2.4-6.8c0.1-0.2,0.2-0.2,0.5-0.2l1.7,0.6L562,40.5z"/>
		<path id="XMLID_306_" class="st17" d="M566.6,40c0.2,0.1,0.3,0.2,0.2,0.4l-0.5,1.4l-4-0.9c-0.2-0.1-0.3-0.2-0.2-0.4l0.7-2l0.2,0.1
			L566.6,40z"/>
		<path id="XMLID_305_" class="st18" d="M560.5,29.5c0.2,0.1,0.3,0.2,0.2,0.4l-2.7,7.5c-0.1,0.2-0.2,0.2-0.4,0.1l-4.7-2.3
			c-0.2-0.1-0.3-0.2-0.2-0.5l2.3-6.5c0-0.2,0.2-0.2,0.4-0.2L560.5,29.5z"/>
	</g>
	<path id="XMLID_303_" class="st8" d="M428.2,91.2c0,0.5-0.5,0.9-1.5,1.2c-1.1,0.3-2.4,0.5-3.9,0.5s-2.8-0.2-3.8-0.5
		c-1.1-0.4-1.6-0.8-1.6-1.2c0-0.5,0.5-0.9,1.6-1.2c1.1-0.3,2.3-0.5,3.8-0.5s2.8,0.2,3.9,0.5C427.7,90.2,428.2,90.7,428.2,91.2z"/>
	<path id="XMLID_302_" class="st7" d="M629.3,70.7c0,0.9-1,1.7-3.1,2.4c-2.1,0.7-4.5,1-7.5,1s-5.4-0.3-7.5-1
		c-2.1-0.7-3.1-1.5-3.1-2.4c0-0.9,1-1.7,3.1-2.4c2.1-0.7,4.5-1,7.5-1s5.4,0.3,7.5,1C628.3,68.9,629.3,69.7,629.3,70.7z"/>
	<path id="XMLID_301_" class="st8" d="M408,88.3c0,0.3-0.2,0.6-0.5,0.8c-0.4,0.2-0.8,0.4-1.3,0.4c-0.5,0-1-0.1-1.3-0.4
		c-0.4-0.2-0.5-0.5-0.5-0.8s0.2-0.6,0.5-0.8c0.4-0.2,0.8-0.3,1.3-0.3c0.5,0,0.9,0.1,1.3,0.3C407.8,87.7,408,88,408,88.3z"/>
	<path id="XMLID_300_" class="st8" d="M374,92.4c1.1-0.3,2.3-0.5,3.8-0.5s2.8,0.2,3.9,0.5c1,0.3,1.5,0.8,1.5,1.2
		c0,0.5-0.5,0.9-1.5,1.2c-1.1,0.3-2.4,0.5-3.9,0.5s-2.8-0.2-3.8-0.5c-1.1-0.4-1.6-0.8-1.6-1.2C372.4,93.2,372.9,92.7,374,92.4z"/>
	<path id="XMLID_299_" class="st8" d="M361.3,91.3c0,0.3-0.2,0.6-0.5,0.8c-0.3,0.2-0.8,0.4-1.3,0.4c-0.5,0-0.9-0.1-1.3-0.4
		c-0.4-0.2-0.5-0.5-0.5-0.8s0.2-0.6,0.5-0.8c0.4-0.2,0.8-0.3,1.3-0.3c0.5,0,1,0.1,1.3,0.3C361.2,90.7,361.3,91,361.3,91.3z"/>
	<path id="XMLID_298_" class="st7" d="M496.1,85c0,0.3-0.5,0.6-1.5,0.9c-1,0.2-2.2,0.3-3.7,0.3c-1.4,0-2.6-0.1-3.6-0.3
		c-1-0.2-1.5-0.5-1.5-0.9s0.5-0.6,1.5-0.8c1-0.2,2.2-0.4,3.6-0.4c1.4,0,2.7,0.1,3.7,0.4C495.6,84.4,496.1,84.7,496.1,85z"/>
	<g id="XMLID_284_">
		<g id="XMLID_295_">
			<path id="XMLID_297_" class="st19" d="M466.4,28.8c0.5,0,0.8,0.2,0.8,0.6c0,0.4-0.2,0.6-0.8,0.6l-7.2-0.6L466.4,28.8z"/>
			<path id="XMLID_296_" class="st19" d="M452,29.9c-0.5,0-0.8-0.2-0.8-0.6c0-0.4,0.2-0.6,0.8-0.6l7.2,0.6L452,29.9z"/>
		</g>
		<g id="XMLID_285_">
			<g id="XMLID_292_">
				<path id="XMLID_294_" class="st19" d="M459.8,22.2l-0.5,7.2l-0.6-7.2c0-0.5,0.2-0.8,0.6-0.8C459.6,21.4,459.8,21.7,459.8,22.2z"
					/>
				<path id="XMLID_293_" class="st19" d="M459.2,29.3l0.5,7.2c0,0.5-0.2,0.8-0.5,0.8c-0.4,0-0.6-0.2-0.6-0.8L459.2,29.3z"/>
			</g>
			<g id="XMLID_289_">
				<path id="XMLID_291_" class="st19" d="M464.7,34c0.3,0.3,0.4,0.7,0.1,1c-0.3,0.3-0.6,0.2-0.9-0.1l-4.7-5.5L464.7,34z"/>
				<path id="XMLID_290_" class="st19" d="M453.8,24.7c-0.3-0.3-0.4-0.7-0.1-1c0.3-0.3,0.6-0.3,0.9,0.1l4.7,5.5L453.8,24.7z"/>
			</g>
			<g id="XMLID_286_">
				<path id="XMLID_288_" class="st19" d="M453.8,34l5.5-4.7l-4.7,5.5c-0.4,0.4-0.7,0.4-0.9,0.1C453.4,34.7,453.4,34.4,453.8,34z"/>
				<path id="XMLID_287_" class="st19" d="M463.9,23.8c0.4-0.3,0.7-0.4,0.9-0.1c0.2,0.3,0.2,0.6-0.1,1l-5.5,4.6L463.9,23.8z"/>
			</g>
		</g>
	</g>
	<path id="XMLID_283_" class="st7" d="M519.5,85.7c0,0.3-0.7,0.6-2,0.8c-1.3,0.2-2.9,0.3-4.8,0.3c-1.9,0-3.5-0.1-4.8-0.3
		c-1.3-0.2-2-0.5-2-0.8c0-0.3,0.7-0.6,2-0.9c1.3-0.2,2.9-0.3,4.8-0.3c1.8,0,3.4,0.1,4.8,0.3C518.8,85,519.5,85.3,519.5,85.7z"/>
	<path id="XMLID_282_" class="st7" d="M525.7,84.2c0,0.3-0.9,0.5-2.7,0.5c-1.8,0-2.7-0.2-2.7-0.5c0-0.3,0.9-0.5,2.7-0.5
		C524.8,83.7,525.7,83.9,525.7,84.2z"/>
	<path id="XMLID_281_" class="st20" d="M531.2,29.3c0,1.1-0.4,2.1-1.2,2.9c-0.8,0.8-1.8,1.2-3,1.2s-2.1-0.4-2.9-1.2
		c-0.8-0.8-1.2-1.8-1.2-2.9c0-1.1,0.4-2.1,1.2-2.9c0.8-0.8,1.8-1.2,2.9-1.2c1.2,0,2.2,0.4,3,1.2C530.8,27.2,531.2,28.2,531.2,29.3z"
		/>
	<path id="XMLID_280_" class="st7" d="M485,84.5c0,0.2-0.7,0.3-2,0.3s-2-0.1-2-0.3c0-0.2,0.7-0.4,2-0.4S485,84.2,485,84.5z"/>
	<g id="XMLID_271_">
		<path id="XMLID_279_" class="st7" d="M45.5,69.8c3.8-1.2,8.4-1.8,13.8-1.8c5.4,0,9.9,0.6,13.7,1.8c3.8,1.2,5.7,2.6,5.7,4.2
			c0,1.6-1.9,3-5.7,4.1c-3.8,1.2-8.4,1.8-13.7,1.8c-5.4,0-10-0.6-13.8-1.8c-3.8-1.1-5.7-2.5-5.7-4.1C39.8,72.3,41.8,70.9,45.5,69.8z
			"/>
		<g id="XMLID_272_">
			<g id="XMLID_276_">
				<path id="XMLID_278_" class="st10" d="M52.2,72.2c-0.5,0-0.9-0.2-1.3-0.5c-0.4-0.4-0.5-0.8-0.5-1.3v-8c0-0.5,0.2-0.9,0.5-1.2
					c0.4-0.4,0.8-0.6,1.3-0.6s0.9,0.2,1.3,0.6c0.3,0.3,0.5,0.8,0.5,1.2v8c0,0.5-0.2,0.9-0.5,1.3C53.2,72,52.8,72.2,52.2,72.2z"/>
				<path id="XMLID_277_" class="st11" d="M52.4,43c2,0,3.9,1.8,5.6,5.2c1.5,3.1,2.3,6.1,2.3,8.8c0,2.3-0.8,4-2.3,5.2
					c-1.4,1.1-3.3,1.6-5.6,1.6c-2.4,0-4.2-0.5-5.6-1.6c-1.6-1.2-2.3-2.9-2.3-5.2c0-2.8,0.8-5.7,2.3-8.8C48.5,44.8,50.4,43,52.4,43z"
					/>
			</g>
			<g id="XMLID_273_">
				<path id="XMLID_275_" class="st10" d="M64.6,74c0,0.3-0.1,0.5-0.3,0.7c-0.2,0.2-0.4,0.3-0.7,0.3c-0.3,0-0.5-0.1-0.8-0.3
					c-0.2-0.2-0.3-0.4-0.3-0.7v-4.5c0-0.3,0.1-0.5,0.3-0.7c0.2-0.2,0.5-0.3,0.8-0.3c0.3,0,0.5,0.1,0.7,0.3c0.2,0.2,0.3,0.4,0.3,0.7
					V74z"/>
				<path id="XMLID_274_" class="st11" d="M68.1,66.6c0,1.3-0.4,2.3-1.3,2.9c-0.8,0.6-1.8,0.9-3.1,0.9s-2.4-0.3-3.2-0.9
					c-0.9-0.7-1.3-1.6-1.3-2.9c0-1.5,0.4-3.2,1.3-4.9c1-1.9,2-2.9,3.2-2.9s2.2,1,3.1,2.9C67.7,63.4,68.1,65.1,68.1,66.6z"/>
			</g>
		</g>
	</g>
	<g id="XMLID_249_">
		<g id="XMLID_268_">
			<path id="XMLID_270_" class="st21" d="M608.7,39.6c0.6,0,0.9,0.2,0.9,0.7s-0.3,0.7-0.9,0.7l-8.7-0.7L608.7,39.6z"/>
			<path id="XMLID_269_" class="st21" d="M591.3,39.6l8.7,0.7l-8.7,0.7c-0.6,0-0.9-0.2-0.9-0.7S590.7,39.6,591.3,39.6z"/>
		</g>
		<g id="XMLID_265_">
			<path id="XMLID_267_" class="st21" d="M608.7,39.6c0.6,0,0.9,0.2,0.9,0.7s-0.3,0.7-0.9,0.7l-8.7-0.7L608.7,39.6z"/>
			<path id="XMLID_266_" class="st21" d="M591.3,39.6l8.7,0.7l-8.7,0.7c-0.6,0-0.9-0.2-0.9-0.7S590.7,39.6,591.3,39.6z"/>
		</g>
		<g id="XMLID_262_">
			<path id="XMLID_264_" class="st21" d="M607.2,35.3c0.5-0.3,0.9-0.2,1.1,0.2c0.2,0.4,0.1,0.8-0.5,1.1l-7.8,3.7L607.2,35.3z"/>
			<path id="XMLID_263_" class="st21" d="M592.2,44l7.8-3.8l-7.2,5c-0.5,0.3-0.9,0.2-1.1-0.2C591.5,44.7,591.6,44.3,592.2,44z"/>
		</g>
		<g id="XMLID_259_">
			<path id="XMLID_261_" class="st21" d="M603.7,32.5c0.3-0.5,0.7-0.7,1.1-0.5c0.4,0.2,0.5,0.6,0.2,1.2l-5,7.1L603.7,32.5z"/>
			<path id="XMLID_260_" class="st21" d="M595,47.5l5-7.2l-3.8,7.9c-0.2,0.6-0.6,0.7-1,0.4C594.8,48.4,594.8,48,595,47.5z"/>
		</g>
		<g id="XMLID_256_">
			<path id="XMLID_258_" class="st21" d="M599.3,31.7c0-0.6,0.2-0.9,0.7-0.9s0.7,0.3,0.7,0.9l-0.7,8.6L599.3,31.7z"/>
			<path id="XMLID_257_" class="st21" d="M599.3,49l0.7-8.7l0.7,8.7c0,0.6-0.2,0.9-0.7,0.9S599.3,49.6,599.3,49z"/>
		</g>
		<g id="XMLID_253_">
			<path id="XMLID_255_" class="st21" d="M595,33.2c-0.3-0.5-0.2-0.9,0.2-1.2c0.5-0.3,0.8-0.1,1,0.5l3.8,7.8L595,33.2z"/>
			<path id="XMLID_254_" class="st21" d="M603.7,48.2l-3.7-7.9l5,7.2c0.3,0.5,0.2,0.9-0.2,1.1C604.4,48.8,604,48.7,603.7,48.2z"/>
		</g>
		<g id="XMLID_250_">
			<path id="XMLID_252_" class="st21" d="M592.2,36.6c-0.5-0.3-0.7-0.7-0.5-1.1c0.2-0.4,0.6-0.5,1.1-0.2l7.2,5L592.2,36.6z"/>
			<path id="XMLID_251_" class="st21" d="M607.2,45.2l-7.2-5l7.8,3.8c0.5,0.3,0.7,0.7,0.5,1C608.1,45.5,607.7,45.5,607.2,45.2z"/>
		</g>
	</g>
	<path id="XMLID_248_" class="st22" d="M444.2,42c0,1.7-0.6,3.2-1.9,4.5c-1.2,1.2-2.7,1.8-4.5,1.8c-1.7,0-3.2-0.6-4.4-1.8
		c-1.2-1.2-1.9-2.7-1.9-4.5c0-1.8,0.6-3.3,1.9-4.5c1.2-1.2,2.7-1.9,4.4-1.9c1.8,0,3.3,0.6,4.5,1.9C443.6,38.7,444.2,40.2,444.2,42z"
		/>
	<path id="XMLID_247_" class="st23" d="M410.6,42.7c0,0.7-0.3,1.3-0.8,1.8c-0.5,0.5-1.1,0.8-1.8,0.8s-1.4-0.3-1.9-0.8
		c-0.5-0.5-0.8-1.1-0.8-1.8c0-0.7,0.2-1.4,0.8-1.9s1.1-0.8,1.9-0.8s1.3,0.2,1.8,0.8C410.3,41.3,410.6,41.9,410.6,42.7z"/>
	<g id="XMLID_3_">
		<g id="XMLID_99_">
			<path id="XMLID_246_" class="st24" d="M514.4,35.5c2.3-0.2,4.3,0.4,6.1,1.9c1.8,1.5,2.8,3.4,3,5.7c0.2,2.3-0.4,4.3-1.9,6.1
				c-1.5,1.8-3.4,2.8-5.7,3c-2.3,0.2-4.3-0.4-6.1-1.9c-1.8-1.5-2.8-3.4-3-5.7c-0.2-2.3,0.4-4.3,1.9-6.1
				C510.2,36.7,512.1,35.7,514.4,35.5z"/>
			<g id="XMLID_243_">
				<path id="XMLID_245_" class="st25" d="M514.7,50.8c0.7,0.2,1.4,0.2,2-0.2c0,0.3,0,0.5,0.1,0.8c0,0.1,0,0.2,0.1,0.2l-2.1,0.2
					c0-0.1,0-0.1,0-0.2C514.8,51.3,514.8,51,514.7,50.8z"/>
				<path id="XMLID_244_" class="st26" d="M516.8,50.6c-0.6,0.4-1.3,0.4-2,0.2c0-0.4-0.1-0.7-0.2-1.1c-0.1-0.2-0.1-0.4-0.2-0.6
					c0.8-0.5,1.6-0.5,2.4-0.1c0,0.2,0,0.4,0,0.5C516.7,49.8,516.7,50.2,516.8,50.6z"/>
			</g>
			<g id="XMLID_238_">
				<g id="XMLID_239_">
					<path id="XMLID_242_" class="st24" d="M503,48.8c-0.9-4.8-1.2-9.1-1-12.9c-1.5-3.7-1.1-7.2,1-10.7c3.1-2.6,6.3-4.1,9.7-4.5
						c3.3-0.3,6.8,0.6,10.3,2.6c2.8,3,3.8,6.5,3,10.4c0.9,3.7,1.4,8,1.4,12.8c-4,1-8.1,1.8-12.1,2.2C511.2,49,507.1,49.1,503,48.8z"
						/>
					<path id="XMLID_241_" class="st27" d="M527.4,46.5c0-4.8-0.5-9.1-1.4-12.8c0.8-3.9-0.2-7.3-3-10.4c-3.5-2-7-2.9-10.3-2.6
						c-3.4,0.4-6.6,1.8-9.7,4.5c-2.2,3.5-2.5,7-1,10.7c-0.2,3.8,0.1,8.1,1,12.9c-1.8-0.1-3.7-0.3-5.6-0.5c-0.4-4.4-0.3-9.1,0.2-14.2
						c0.2-2.2,0.8-4.2,1.6-6.1c0.1-0.4,0.3-0.7,0.5-1c1.5-2.6,4-4.9,7.6-6.7c1.8-0.9,3.7-1.5,5.5-1.7c3-0.2,6.4,0.5,10.2,2.2
						c3.4,2.5,5.7,5.9,7,10.3c1.4,4.9,2.4,9.5,2.8,13.8C531,45.6,529.2,46.1,527.4,46.5z"/>
					<path id="XMLID_240_" class="st28" d="M523,20.8c-3.7-1.7-7.1-2.5-10.2-2.2c-1.8,0.2-3.7,0.8-5.5,1.7c-3.6,1.8-6.2,4-7.6,6.7
						c1-2,2.3-3.7,4-5.3c3-1.9,5.9-3.2,8.8-3.7c1.9,0,3.9,0.2,6,0.8c0.1,0,0.2,0.1,0.3,0.1c1,0.3,2,0.7,3,1.1
						C522.2,20.3,522.6,20.5,523,20.8z"/>
				</g>
			</g>
			<g id="XMLID_225_">
				<g id="XMLID_226_">
					<path id="XMLID_235_" class="st28" d="M498.5,35.1c0.1,2.1,0,4.1-0.3,6c-0.2,1.6-0.6,3-1.1,4.4c0,0.1,0,0.1-0.1,0.2
						c-0.5,1.4-1,2.7-1.8,3.8c-1,1.4-1.8,2.7-2.3,3.9c-0.2,0.4-0.3,0.7-0.5,1c-0.7,1.5-1,2.7-0.9,3.6c-0.1-0.5-0.2-0.9-0.2-1.4
						c0-0.4,0.1-0.7,0.1-1.1c0.1-0.4,0.2-0.8,0.3-1c0.3-0.7,0.6-1.4,1-1.9c0.9-1.2,1.7-2.5,2.3-3.8c0.4-0.8,0.8-1.5,1.1-2.3
						c0.1-0.2,0.1-0.4,0.2-0.5c0,0,0-0.1,0-0.2c0.3-0.7,0.5-1.5,0.7-2.2C497.9,41.1,498.3,38.3,498.5,35.1z M494.2,74
						c-2.3-1.1-4-2.8-5.3-4.9c1.9-0.6,3.4-1.7,4.5-3.1c0,0,0.1,0,0.1,0c-0.6,1.3-1.8,2.4-3.5,3.4C490.8,71.1,492.2,72.7,494.2,74z"
						/>
					<path id="XMLID_232_" class="st27" d="M498.5,35.1l2.8-1.8c0.1,0.5,0.3,1.9,0.8,4.2c0.4,2.2,0.7,4.3,0.8,6.2c0,1.9,0,3.3,0,4
						c0,0.2,0,0.3,0,0.5c0,0.6-0.1,1.2-0.2,1.8c-0.5,3.5-1.3,6.5-2.6,9c0,0.1,0,0.1-0.1,0.1c-0.1,0.3-0.3,0.5-0.4,0.8
						c-2.2,2.4-4.5,2.3-6.9-0.1c0-0.1-0.1-0.1-0.1-0.1c-0.3-0.3-0.5-0.7-0.9-1.1c0,0,0-0.1,0-0.1v0c0,0,0-0.1,0-0.1
						c0-0.1,0-0.1,0-0.2v-0.1c-0.1-0.9,0.2-2.1,0.9-3.6c0.2-0.3,0.3-0.7,0.5-1c0.6-1.1,1.4-2.4,2.3-3.9c0.7-1.2,1.3-2.5,1.8-3.8
						c0.1-0.1,0.1-0.1,0.1-0.2c0.5-1.4,0.8-2.8,1.1-4.4C498.4,39.2,498.5,37.2,498.5,35.1z M494.2,74c-2-1.4-3.4-2.9-4.2-4.6
						c1.7-1,2.9-2.1,3.5-3.4c2.1,0.2,4,0.8,5.5,1.8c0.5,0.4,0.8,0.9,1.1,1.5c0.9,1.6,1.1,3.7,0.8,6.4c-1.4,0-2.7-0.2-4-0.7
						c-0.9-0.3-1.7-0.6-2.5-1C494.3,74.1,494.2,74,494.2,74z"/>
					<path id="XMLID_229_" class="st24" d="M501.2,33.2l0.6-1.5c0.3-0.1,0.5-0.2,0.8-0.2c0.1,0,0.1,0,0.1,0c3.1-0.6,5.9-0.1,8.5,1.5
						c1.2,6.2,1.7,11.9,1.7,17c0.3,6.1-1,11-4,14.5c-1,0.9-2.3,1.4-4,1.5c-1.7,0.1-3.7-0.1-6.1-0.8c-1.7-0.7-3.2-1.5-4.3-2.5
						c-0.1-0.1-0.2-0.2-0.3-0.3c-1-0.8-1.8-1.7-2.3-2.7c0-0.1,0-0.1,0-0.1c-0.2-0.4-0.3-0.8-0.5-1.2c0,0,0,0.1,0,0.1
						c0.3,0.4,0.6,0.8,0.9,1.1c0.1,0,0.1,0.1,0.1,0.1c2.3,2.4,4.6,2.5,6.9,0.1c0.1-0.3,0.3-0.5,0.4-0.8c0,0,0.1-0.1,0.1-0.1
						c1.3-2.5,2.2-5.5,2.6-9c0.1-0.6,0.1-1.2,0.2-1.8c0-0.2,0-0.3,0-0.5c0.1-0.8,0.1-2.1,0-4c-0.1-1.9-0.3-4-0.8-6.2
						C501.6,35.2,501.3,33.8,501.2,33.2z M493.5,66.1c0.1-0.1,0.1-0.2,0.2-0.2c0.3-0.4,0.6-0.9,0.8-1.4c2.2,1.8,4.7,2.8,7.5,3
						c0.7,0,1.5,0,2.2,0c-0.1,2.6,0.6,5,2,7.3c-0.8,0.3-1.6,0.5-2.5,0.7c-1,0.2-2,0.3-3,0.3c0.4-2.7,0.1-4.8-0.8-6.4
						c-0.3-0.6-0.6-1.1-1.1-1.5C497.5,66.8,495.7,66.2,493.5,66.1C493.5,66.1,493.5,66.1,493.5,66.1z"/>
					<path id="XMLID_228_" class="st29" d="M494.7,62.8c1.6,2.4,4.1,4,7.3,4.7c-2.8-0.2-5.3-1.2-7.5-3c-0.1-0.1-0.3-0.2-0.4-0.3
						l0.2-1.6C494.5,62.7,494.5,62.8,494.7,62.8z"/>
					<path id="XMLID_227_" class="st30" d="M505,66l-0.5,1.4c-0.1,0-0.2,0-0.3,0c-0.8,0-1.5,0-2.2,0c-3.3-0.7-5.7-2.2-7.3-4.7
						c1.1,0.9,2.6,1.7,4.3,2.5C501.3,65.9,503.4,66.2,505,66z"/>
				</g>
			</g>
			<g id="XMLID_212_">
				<g id="XMLID_213_">
					<path id="XMLID_222_" class="st28" d="M540.4,54.1c0-0.1,0-0.3,0-0.4c-0.1-0.9-0.6-2.1-1.6-3.5c-0.2-0.3-0.5-0.6-0.7-0.9
						c-0.8-1-1.8-2.1-3-3.3c-0.9-1-1.8-2.2-2.5-3.5c-0.1-0.1-0.1-0.1-0.1-0.2c-0.7-1.3-1.3-2.6-1.8-4.1c-0.6-1.8-1-3.8-1.3-5.9
						c0.7,3.1,1.7,5.8,2.8,8.1c0.3,0.7,0.7,1.4,1.1,2c0,0.1,0,0.1,0,0.1c0.1,0.2,0.2,0.3,0.3,0.5c0.5,0.7,1,1.4,1.5,2.1
						c0.9,1.2,1.9,2.3,3,3.3c0.5,0.5,0.9,1,1.3,1.7c0.2,0.3,0.3,0.6,0.5,1c0.1,0.4,0.2,0.7,0.3,1.1
						C540.4,52.9,540.4,53.5,540.4,54.1z M540.6,69.8c1.8-1.7,2.9-3.5,3.3-5.2c-1.9-0.7-3.3-1.6-4.1-2.7c0,0,0.1,0,0.1,0
						c1.4,1.2,3.1,1.9,5.1,2.2C544.1,66.4,542.6,68.3,540.6,69.8z"/>
					<path id="XMLID_219_" class="st27" d="M534.4,72.8c-0.8-2.5-1-4.7-0.5-6.5c0.2-0.6,0.4-1.1,0.8-1.6c1.3-1.3,3-2.2,5-2.8
						c0.8,1.1,2.2,2,4.1,2.7c-0.4,1.8-1.5,3.5-3.3,5.2c0,0-0.1,0.1-0.1,0.1c-0.7,0.5-1.5,1-2.2,1.4C537,72,535.7,72.5,534.4,72.8z
						 M529.4,32.3c0.3,2.1,0.8,4.1,1.3,5.9c0.5,1.5,1.2,2.8,1.8,4.1c0,0.1,0,0.1,0.1,0.2c0.7,1.3,1.6,2.5,2.5,3.5
						c1.2,1.2,2.2,2.3,3,3.3c0.2,0.3,0.5,0.6,0.7,0.9c0.9,1.4,1.5,2.5,1.6,3.5c0,0.1,0,0.3,0,0.4c0,0-0.1,0.1-0.1,0.1
						c-0.2,0.4-0.4,0.8-0.6,1.2c0,0.1-0.1,0.1-0.1,0.1c-1.8,2.8-4.1,3.3-6.7,1.4c-0.2-0.2-0.3-0.5-0.5-0.7c-0.1,0-0.1-0.1-0.1-0.1
						c-1.7-2.2-3.1-5-4.2-8.3c-0.2-0.6-0.3-1.2-0.5-1.8c0-0.2-0.1-0.3-0.1-0.5c-0.2-0.7-0.5-2-0.8-4c-0.3-1.9-0.4-4-0.4-6.3
						c0-2.3,0-3.7,0-4.2L529.4,32.3z"/>
					<path id="XMLID_216_" class="st24" d="M538.2,59c-1,1.1-2.2,2.2-3.8,3.2c-2.2,1.1-4.1,1.7-5.8,1.8c-1.6,0.2-3-0.1-4.2-0.8
						c-3.6-2.9-5.8-7.5-6.5-13.6c-1-5-1.5-10.7-1.5-17c2.2-2,4.9-3,8.1-3c0,0,0.1,0,0.1,0.1c0.3,0,0.5,0,0.8,0l0.9,1.4
						c0,0.5,0,1.9,0,4.2c0,2.3,0.1,4.4,0.4,6.3c0.3,1.9,0.5,3.2,0.8,4c0.1,0.2,0.1,0.3,0.1,0.5c0.2,0.6,0.3,1.2,0.5,1.8
						c1.1,3.3,2.5,6.1,4.2,8.3c0,0,0,0.1,0.1,0.1c0.2,0.2,0.3,0.5,0.5,0.7c2.6,1.9,4.9,1.5,6.7-1.4c0,0,0.1-0.1,0.1-0.1
						c0.2-0.4,0.5-0.8,0.6-1.2c0,0,0-0.1,0.1-0.1c0,0.4-0.1,0.9-0.2,1.2c0,0.1,0,0.1,0,0.2c-0.3,1.1-0.9,2.1-1.7,3.1
						C538.3,58.7,538.2,58.8,538.2,59z M529.5,65.2c0.8-0.1,1.5-0.2,2.2-0.4c2.7-0.7,5-2.2,6.8-4.3c0.3,0.4,0.7,0.8,1.1,1.2
						c0.1,0.1,0.2,0.1,0.2,0.2c0,0-0.1,0-0.1,0c-2,0.6-3.7,1.5-5,2.8c-0.4,0.5-0.6,1-0.8,1.6c-0.5,1.8-0.4,3.9,0.5,6.5
						c-1,0.2-2,0.3-3,0.2c-0.9,0-1.7-0.1-2.6-0.2C529.9,70.3,530.1,67.8,529.5,65.2z"/>
					<path id="XMLID_215_" class="st29" d="M538.6,60.5c-1.8,2.2-4.1,3.6-6.8,4.3c3.1-1.3,5.2-3.3,6.4-5.9c0.1-0.1,0.2-0.2,0.3-0.4
						l0.5,1.5C538.8,60.2,538.7,60.4,538.6,60.5z"/>
					<path id="XMLID_214_" class="st30" d="M528.5,64c1.7-0.2,3.7-0.8,5.8-1.8c1.6-1,2.8-2.1,3.8-3.2c-1.2,2.6-3.3,4.6-6.4,5.9
						c-0.7,0.2-1.4,0.3-2.2,0.4c-0.1,0-0.2,0-0.3,0L528.5,64z"/>
				</g>
			</g>
			<g id="XMLID_207_">
				<path id="XMLID_209_" class="st25" d="M504.6,37.7c0.1,1.8,0.4,3.4,0.9,4.9c-0.2,0.4-0.5,0.6-1,0.6c-1.3-0.3-2.2-1.1-2.9-2.6
					c-0.3-1-0.3-1.9,0-2.7C502.4,36.6,503.4,36.6,504.6,37.7z M503.1,37.5c-0.5,0-0.8,0.3-1.1,0.9c-0.1,0.4-0.1,0.7,0.1,1
					c0.2-0.7,0.5-1,1-0.9c0.5,0,1,0.3,1.3,0.9c-0.5-0.2-0.9-0.2-1.3-0.1c-0.4,0.3-0.5,0.7-0.3,1.3c0.5,0.9,1.2,1.2,2.3,1l-0.5-3.1
					C504.1,37.8,503.6,37.5,503.1,37.5z"/>
				<path id="XMLID_208_" class="st26" d="M503.1,37.5c0.6,0,1,0.3,1.4,0.9l0.5,3.1c-1.1,0.2-1.8-0.2-2.3-1c-0.2-0.6,0-1.1,0.3-1.3
					c0.4-0.2,0.8-0.2,1.3,0.1c-0.4-0.6-0.8-0.9-1.3-0.9c-0.5,0-0.8,0.3-1,0.9c-0.2-0.3-0.2-0.6-0.1-1
					C502.2,37.8,502.6,37.5,503.1,37.5z"/>
			</g>
			<g id="XMLID_202_">
				<path id="XMLID_204_" class="st25" d="M525.2,35.6c0.5-0.1,0.9,0.1,1.3,0.6c0.2,0.4,0.2,0.7,0.1,1c-0.3-0.6-0.7-0.9-1.1-0.7
					c-0.5,0.1-0.9,0.5-1.2,1.1c0.4-0.3,0.9-0.4,1.3-0.3c0.4,0.2,0.6,0.6,0.6,1.2c-0.3,0.9-1,1.4-2.1,1.4l-0.1-3.2
					C524.2,36.1,524.6,35.7,525.2,35.6z M523.7,36c0.2,1.8,0.2,3.4,0,4.9c0.3,0.3,0.6,0.5,1.1,0.4c1.2-0.5,2-1.5,2.4-3.1
					c0.1-1.1,0-2-0.5-2.7C525.7,34.6,524.7,34.8,523.7,36z"/>
				<path id="XMLID_203_" class="st26" d="M525.2,35.6c-0.5,0.1-0.9,0.5-1.2,1.2L524,40c1.1,0,1.8-0.5,2.1-1.4c0-0.6-0.2-1-0.6-1.2
					c-0.4-0.1-0.9,0-1.3,0.3c0.3-0.6,0.7-1,1.2-1.1c0.5-0.1,0.9,0.1,1.1,0.7c0.1-0.3,0.1-0.6-0.1-1
					C526.1,35.7,525.7,35.5,525.2,35.6z"/>
			</g>
			<g id="XMLID_198_">
				<g id="XMLID_199_">
					<path id="XMLID_201_" class="st26" d="M521.8,46.7c1.5-2.6,1.6-7.2,0.3-13.5c-5.5,0.1-11,0.6-16.4,1.5c0,7,1.2,11.5,3.6,13.5
						c-0.2-0.2-0.5-0.4-0.7-0.5c-0.3-0.2-0.5-0.4-0.7-0.6c-0.2-0.1-0.3-0.3-0.5-0.4c-0.2-0.3-0.4-0.5-0.5-0.8
						c-0.1-0.2-0.2-0.4-0.4-0.6c-0.1-0.2-0.2-0.5-0.3-0.8c-0.1-0.2-0.1-0.3-0.2-0.5c-0.1-0.3-0.2-0.5-0.2-0.8
						c-0.1-0.3-0.2-0.6-0.2-0.9c0-0.3-0.1-0.5-0.1-0.8c-0.1-0.2-0.1-0.4-0.2-0.6c-0.1-0.3-0.1-0.5-0.2-0.8c0-0.3-0.1-0.5-0.1-0.8
						c-0.1-0.3-0.1-0.6-0.2-0.9c0-0.3-0.1-0.6-0.1-0.9c0-0.2,0-0.3,0-0.5c0-0.2-0.1-0.4-0.1-0.5c0-0.2,0-0.3,0-0.5
						c0-0.2,0-0.3,0-0.5c0-0.2,0-0.4,0-0.5c-0.1-0.3-0.1-0.6-0.2-1c0-0.3,0-0.5,0-0.8c0-0.2,0-0.3,0-0.5c0.2-0.1,0.4-0.1,0.7-0.2
						c0.2-0.1,0.4-0.1,0.5-0.2c0.3-0.1,0.6-0.1,0.9-0.2c0.3-0.1,0.6-0.2,0.9-0.3c0.6-0.2,1.2-0.3,1.8-0.4c0.2,0,0.4-0.1,0.6-0.1
						c0.4-0.1,0.8-0.2,1.2-0.2c0.4-0.1,0.8-0.1,1.2-0.2c0.4-0.1,0.8-0.1,1.2-0.2c0.2,0,0.4,0,0.6,0c0.2,0,0.4,0,0.6,0
						c0.4,0,0.8,0,1.2,0c0.4,0,0.8,0,1.2-0.1c0.4,0,0.8,0,1.2,0c0.2,0,0.5,0,0.6,0c0.6,0,1.2,0,1.8,0.1c0.3,0,0.6,0,0.9,0
						c0.3,0,0.6,0.1,0.9,0.1c0.2,0,0.4,0,0.6,0c0.2,0,0.5,0.1,0.7,0.1c0,0.2,0,0.3,0,0.4c0,0.3,0.1,0.6,0.1,0.9c0,0.3,0,0.6,0,1
						c0,0.2,0,0.4,0,0.5c0,0.2,0,0.3,0,0.5c0,0.2,0,0.3,0,0.5c0,0.2,0,0.3,0,0.5c0,0.2,0,0.3,0.1,0.5c0,0.3,0,0.6,0,0.9
						c0,0.3,0,0.6,0,0.9c0,0.3,0,0.6,0,0.9c0,0.2,0,0.5,0,0.8c0,0.2,0,0.5,0,0.7c0,0.2,0,0.5,0,0.8c0,0.3-0.1,0.6-0.1,0.9
						c0,0.3-0.1,0.5-0.1,0.8c0,0.2-0.1,0.4-0.1,0.5c0,0.3-0.1,0.6-0.2,0.8c-0.1,0.2-0.1,0.5-0.2,0.7c-0.1,0.3-0.3,0.5-0.4,0.8
						c-0.1,0.2-0.2,0.3-0.4,0.5c-0.2,0.3-0.4,0.5-0.6,0.8C521.9,46.5,521.8,46.6,521.8,46.7z"/>
					<path id="XMLID_200_" class="st25" d="M521.8,46.7c-0.1,0.1-0.3,0.3-0.4,0.4c-0.1,0.2-0.3,0.3-0.4,0.5
						c-0.2,0.2-0.5,0.4-0.8,0.7c-0.3,0.2-0.5,0.4-0.8,0.6c-0.2,0.1-0.4,0.2-0.6,0.4c-0.2,0.1-0.4,0.2-0.6,0.3
						c-0.2,0.1-0.4,0.2-0.7,0.3c-0.2,0.1-0.4,0.2-0.6,0.3c-0.2,0.1-0.4,0.2-0.7,0.3c-0.2,0.1-0.5,0.2-0.7,0.2
						c-0.2,0-0.5-0.1-0.7-0.2c-0.2-0.1-0.5-0.1-0.8-0.2c-0.2,0-0.5-0.1-0.7-0.2c-0.2-0.1-0.5-0.2-0.7-0.2c-0.2-0.1-0.4-0.2-0.6-0.2
						c-0.2-0.1-0.4-0.2-0.6-0.2c-0.3-0.1-0.6-0.2-0.9-0.5c-0.3-0.2-0.5-0.3-0.8-0.5c-0.2-0.1-0.3-0.2-0.4-0.2c0,0-0.1-0.1-0.1-0.1h0
						c-2.4-2-3.6-6.5-3.6-13.5c5.4-0.9,10.9-1.4,16.4-1.5C523.4,39.5,523.3,44.1,521.8,46.7z"/>
				</g>
			</g>
			<path id="XMLID_197_" class="st26" d="M514.6,42.4c-0.3,0-0.6-0.2-0.8-0.4l0.6-0.9l0.8,0.8C515.1,42.2,514.9,42.3,514.6,42.4z"/>
			<path id="XMLID_196_" class="st31" d="M513.2,45.2c1.3,0.9,2.5,0.8,3.6-0.3l0.3,0.1c-1.2,1.4-2.6,1.5-4.2,0.4L513.2,45.2z"/>
			<path id="XMLID_195_" class="st32" d="M511.6,33.3l0.4,0.8c-2.2-0.2-4.5,0.2-6.9,1.3l0.1-0.2c1.3-1,2.6-1.6,3.8-1.8
				C510.1,33.2,511,33.2,511.6,33.3z"/>
			<path id="XMLID_194_" class="st32" d="M515.7,33l-0.2,0.8c2.1-0.6,4.4-0.6,7,0l-0.1-0.2c-1.5-0.8-2.8-1.1-4-1.1
				C517.2,32.6,516.3,32.7,515.7,33z"/>
			<g id="XMLID_190_">
				<path id="XMLID_193_" class="st9" d="M521.7,37.9c0,0.6-0.2,1.2-0.5,1.7c-0.4,0.7-0.9,1-1.6,1.1c-0.6,0.1-1.2-0.2-1.8-0.8
					c-0.5-0.6-0.8-1.3-0.9-2.1c0-0.3,0-0.6,0-0.9c0.1-0.2,0.2-0.3,0.3-0.5c0.5-0.5,1.1-0.9,1.8-0.9c0.7-0.1,1.4,0.1,2,0.6
					c0.2,0.1,0.3,0.3,0.5,0.5c0,0,0,0.1,0,0.1c0.1,0.2,0.1,0.5,0.1,0.7C521.7,37.5,521.7,37.7,521.7,37.9z"/>
				<path id="XMLID_192_" class="st33" d="M521.5,36.5c-0.1-0.2-0.3-0.3-0.5-0.5c-0.6-0.4-1.2-0.6-2-0.6c-0.7,0.1-1.3,0.4-1.8,0.9
					c-0.1,0.2-0.2,0.3-0.3,0.5c0-0.1,0-0.2,0.1-0.3c0-0.1,0.1-0.2,0.1-0.3c0-0.1,0.1-0.2,0.1-0.3c0-0.1,0.1-0.2,0.2-0.3l0.1-0.1
					c0,0,0.1-0.1,0.1-0.1l0.1-0.1c0.4-0.4,0.8-0.7,1.4-0.7c0.6,0,1.1,0.1,1.5,0.4c0.3,0.2,0.6,0.5,0.8,0.9c0,0,0,0,0,0
					C521.4,36.1,521.4,36.3,521.5,36.5z"/>
				<path id="XMLID_191_" class="st34" d="M517,36.5l-0.8-0.9l0.7,0.1c0.4-0.8,1.1-1.3,2-1.4c0,0,0.1,0,0.1,0c0.5,0,0.9,0.1,1.3,0.2
					c0.6,0.2,1.1,0.6,1.5,1.1c0,0.6,0,1.1-0.1,1.6c0,0.3-0.1,0.5-0.2,0.7c0-0.2,0-0.3,0-0.5c0-0.2-0.1-0.5-0.1-0.7c0,0,0-0.1,0-0.1
					c-0.1-0.2-0.1-0.4-0.2-0.6c0,0,0,0,0,0c-0.2-0.4-0.5-0.7-0.8-0.9c-0.4-0.3-0.9-0.4-1.5-0.4c-0.6,0-1.1,0.3-1.4,0.7l-0.1,0.1
					c0,0-0.1,0.1-0.1,0.1l-0.1,0.1c-0.1,0.1-0.1,0.2-0.2,0.3c0,0.1-0.1,0.2-0.1,0.3C517,36.3,517,36.4,517,36.5z"/>
			</g>
			<g id="XMLID_183_">
				<path id="XMLID_186_" class="st35" d="M518.5,35.9c-0.1-0.1-0.1-0.2-0.2-0.2c-0.1,0-0.2,0-0.3,0.1c-0.1,0.1-0.2,0.3-0.2,0.4
					c0,0.2,0,0.3,0.1,0.4c0.1,0.2,0.2,0.3,0.3,0.3c0.1,0,0.2,0,0.3-0.2c0.1-0.1,0.2-0.2,0.2-0.4C518.6,36.2,518.6,36,518.5,35.9z
					 M518.4,35.3c0.4,0,0.8,0.2,1.1,0.7c0.4,0.5,0.6,1.1,0.6,1.8c0.1,0.7,0,1.3-0.3,1.9c-0.2,0.5-0.6,0.8-1,0.9
					c-0.4,0-0.8-0.2-1.1-0.7c-0.3-0.5-0.5-1.1-0.6-1.8c-0.1-0.7,0-1.4,0.2-1.9C517.7,35.6,518,35.3,518.4,35.3z M518.8,39.6
					c0.1,0.2,0.2,0.3,0.4,0.3c0.2,0,0.3,0,0.4-0.2c0.1-0.1,0.2-0.3,0.3-0.5c0-0.2,0-0.4-0.1-0.6c-0.1-0.2-0.2-0.3-0.3-0.3
					c-0.1,0-0.3,0-0.4,0.1c-0.1,0.1-0.2,0.3-0.2,0.5C518.7,39.3,518.7,39.5,518.8,39.6z"/>
				<path id="XMLID_185_" class="st9" d="M518.5,35.9c0.1,0.1,0.1,0.3,0,0.5c0,0.2-0.1,0.3-0.2,0.4c-0.1,0.1-0.2,0.2-0.3,0.2
					c-0.1,0-0.2-0.1-0.3-0.3c-0.1-0.1-0.1-0.3-0.1-0.4c0-0.2,0.1-0.3,0.2-0.4c0.1-0.1,0.2-0.1,0.3-0.1
					C518.3,35.7,518.4,35.8,518.5,35.9z"/>
				<path id="XMLID_184_" class="st36" d="M518.8,39.6c-0.1-0.2-0.1-0.3-0.1-0.5c0-0.2,0.1-0.4,0.2-0.5c0.2-0.1,0.3-0.2,0.4-0.1
					c0.2,0,0.3,0.1,0.3,0.3c0.1,0.2,0.1,0.4,0.1,0.6c0,0.2-0.1,0.4-0.3,0.5c-0.1,0.1-0.3,0.2-0.4,0.2
					C519,39.9,518.9,39.8,518.8,39.6z"/>
			</g>
			<g id="XMLID_179_">
				<path id="XMLID_182_" class="st9" d="M506.9,39.3c0.1,0.6,0.4,1.1,0.8,1.6c0.5,0.6,1.1,0.8,1.8,0.8c0.6-0.1,1.2-0.4,1.6-1.1
					c0.4-0.6,0.6-1.4,0.5-2.2c0-0.3-0.1-0.6-0.2-0.9c-0.1-0.1-0.3-0.3-0.4-0.4c-0.6-0.4-1.2-0.6-2-0.6c-0.7,0.1-1.4,0.4-1.8,0.9
					c-0.1,0.2-0.3,0.4-0.4,0.6c0,0,0,0.1,0,0.1c0,0.2,0,0.5,0,0.7C506.9,39,506.9,39.1,506.9,39.3z"/>
				<path id="XMLID_181_" class="st33" d="M506.9,38c0.1-0.2,0.2-0.4,0.4-0.6c0.5-0.5,1.1-0.9,1.8-0.9c0.7-0.1,1.4,0.1,2,0.6
					c0.2,0.1,0.3,0.3,0.4,0.4c0-0.1-0.1-0.2-0.1-0.3c0-0.1-0.1-0.2-0.1-0.2c-0.1-0.1-0.1-0.2-0.2-0.3c-0.1-0.1-0.1-0.2-0.2-0.3
					l-0.1-0.1c0,0-0.1-0.1-0.1-0.1l-0.1-0.1c-0.4-0.4-0.9-0.5-1.5-0.4c-0.6,0.1-1,0.3-1.4,0.7c-0.3,0.3-0.5,0.6-0.6,1c0,0,0,0,0,0.1
					C506.9,37.5,506.9,37.7,506.9,38z"/>
				<path id="XMLID_180_" class="st34" d="M511.3,37.1l0.7-1.1l-0.7,0.2c-0.5-0.8-1.3-1.1-2.3-1c0,0-0.1,0-0.1,0
					c-0.5,0.1-0.9,0.2-1.2,0.5c-0.6,0.3-1,0.8-1.3,1.4c0.1,0.6,0.2,1.1,0.4,1.5c0.1,0.2,0.2,0.5,0.3,0.7c0-0.2-0.1-0.3-0.1-0.5
					c0-0.2,0-0.5,0-0.7c0,0,0-0.1,0-0.1c0-0.2,0.1-0.4,0.1-0.6c0,0,0,0,0-0.1c0.1-0.4,0.3-0.8,0.6-1c0.3-0.4,0.8-0.6,1.4-0.7
					c0.6-0.1,1.1,0.1,1.5,0.4l0.1,0.1c0,0,0.1,0.1,0.1,0.1l0.1,0.1c0.1,0.1,0.1,0.2,0.2,0.3c0.1,0.1,0.1,0.2,0.2,0.3
					C511.2,37,511.3,37,511.3,37.1z"/>
			</g>
			<g id="XMLID_172_">
				<path id="XMLID_175_" class="st35" d="M508.4,36.9c-0.1-0.1-0.1-0.2-0.2-0.2c-0.1,0-0.2,0-0.3,0.1c-0.1,0.1-0.2,0.3-0.2,0.4
					c0,0.2,0,0.3,0.1,0.4c0.1,0.2,0.2,0.3,0.3,0.3c0.1,0,0.2,0,0.3-0.2c0.1-0.1,0.2-0.2,0.2-0.4C508.5,37.2,508.5,37,508.4,36.9z
					 M508.4,36.3c0.4,0,0.8,0.2,1.1,0.7c0.4,0.5,0.6,1.1,0.6,1.8c0.1,0.7,0,1.3-0.3,1.9c-0.2,0.5-0.6,0.8-1,0.9
					c-0.4,0-0.8-0.2-1.1-0.7c-0.3-0.5-0.5-1.1-0.6-1.8c-0.1-0.7,0-1.4,0.2-1.9C507.7,36.6,508,36.3,508.4,36.3z M508.7,40.6
					c0.1,0.2,0.2,0.3,0.4,0.3c0.2,0,0.3,0,0.4-0.2c0.1-0.1,0.2-0.3,0.3-0.5c0-0.2,0-0.4-0.1-0.6c-0.1-0.2-0.2-0.3-0.3-0.3
					c-0.1,0-0.3,0-0.4,0.1c-0.1,0.1-0.2,0.3-0.2,0.5C508.6,40.3,508.7,40.5,508.7,40.6z"/>
				<path id="XMLID_174_" class="st9" d="M508.4,36.9c0.1,0.1,0.1,0.3,0,0.5c0,0.2-0.1,0.3-0.2,0.4c-0.1,0.1-0.2,0.2-0.3,0.2
					c-0.1,0-0.2-0.1-0.3-0.3c-0.1-0.1-0.1-0.3-0.1-0.4c0-0.2,0.1-0.3,0.2-0.4c0.1-0.1,0.2-0.1,0.3-0.1
					C508.3,36.7,508.4,36.8,508.4,36.9z"/>
				<path id="XMLID_173_" class="st36" d="M508.7,40.6c-0.1-0.2-0.1-0.3,0-0.5c0-0.2,0.1-0.4,0.2-0.5c0.2-0.1,0.3-0.2,0.4-0.1
					c0.2,0,0.3,0.1,0.3,0.3c0.1,0.2,0.1,0.4,0.1,0.6c0,0.2-0.1,0.4-0.3,0.5c-0.1,0.1-0.3,0.2-0.4,0.2
					C509,40.9,508.8,40.8,508.7,40.6z"/>
			</g>
			<g id="XMLID_164_">
				<g id="XMLID_165_">
					<path id="XMLID_171_" class="st28" d="M502,26.2c0.1-0.1,0.1-0.3,0.2-0.4c2.2-3.9,5.7-6,10.3-6.5c3.2-0.2,5.9,0.4,8.1,1.9
						c0,0,0.1,0,0.1,0c0.3,0.2,0.7,0.5,1,0.8c-3.9-1.5-7.4-2-10.6-1.5C508,21,505,22.9,502,26.2z"/>
					<path id="XMLID_170_" class="st27" d="M521.8,22c0.9,0.8,1.8,1.8,2.6,2.9c1.3,2.7,1.6,5.4,0.9,8.1c2.1,12.4,0.8,22-4,28.7
						c2.5-9.1,2.7-18.8,0.6-29.2c-0.2-0.9-0.4-1.8-0.6-2.7c-0.1,1.1-0.2,1.9-0.5,2.6c-0.8,0-1.6,0-2.3,0l-1.8-6.1
						c0,1.8-0.2,3.8-0.7,6.1c-3,0.1-6.1,0.5-9.2,1.2c-0.6-0.7-1-1.5-1.2-2.5c0,0.9,0,1.8,0.1,2.8c0.4,14,2.6,23.6,6.8,28.9
						c-5.8-4-9.1-13.2-9.8-27.5c0,0,0-0.1,0-0.1c-1.5-3.1-1.6-6.1-0.5-8.8c2.9-3.3,6-5.2,9.2-5.7C514.4,20,518,20.5,521.8,22z"/>
					<path id="XMLID_166_" class="st24" d="M505.7,33.7c0-0.9-0.1-1.8-0.1-2.8c0.2,1,0.7,1.8,1.2,2.5
						C506.5,33.5,506,33.6,505.7,33.7z M520.8,32.3c0.3-0.7,0.5-1.6,0.5-2.6c0.2,0.9,0.4,1.8,0.6,2.7
						C521.5,32.4,521.2,32.3,520.8,32.3z M518.5,32.2c-0.8,0-1.7,0-2.5,0c0.5-2.3,0.7-4.3,0.7-6.1L518.5,32.2z"/>
				</g>
			</g>
			<g id="XMLID_102_">
				<g id="XMLID_161_">
					<path id="XMLID_163_" class="st25" d="M520.2,55.4l-0.7,1.1c0.5,0.8,1.1,1.5,1.7,2.1c0.5-0.2,0.8-0.4,0.8-0.8
						C521.4,57.1,520.8,56.3,520.2,55.4z"/>
					<path id="XMLID_162_" class="st26" d="M519.4,56.5l0.7-1.1c-0.1-0.2-0.3-0.4-0.4-0.6c-0.5,0.2-0.8,0.4-0.9,0.8
						C519,55.9,519.2,56.2,519.4,56.5z"/>
				</g>
				<g id="XMLID_158_">
					<path id="XMLID_160_" class="st37" d="M518.3,55.5c0.8-0.2,1.6-0.6,2.3-1.2l-1.8-3c-0.5,0.5-0.8,1.1-0.9,1.8L518.3,55.5z"/>
					<path id="XMLID_159_" class="st38" d="M520.7,54.4c-0.8,0.6-1.5,1-2.3,1.2l0.1,0.4c1-0.1,1.8-0.5,2.5-1.2L520.7,54.4z"/>
				</g>
				<path id="XMLID_157_" class="st25" d="M521.1,58.6c1.1,1.3,2.2,2.4,3.4,3.5c0.6-0.1,0.9-0.4,1.1-0.9c-1.1-1.2-2.3-2.3-3.6-3.3
					C521.5,57.9,521.2,58.1,521.1,58.6z"/>
				<g id="XMLID_154_">
					<path id="XMLID_156_" class="st25" d="M526.3,63.2c-0.2-0.2-0.2-0.4-0.2-0.5c0,0,0.1-0.1,0.2-0.1c0,0,0.1,0,0.1,0
						c0.2,0.1,0.3,0.2,0.5,0.4c0.1,0.1,0.2,0.3,0.4,0.5c0.1,0.4,0.2,0.7,0.3,0.9c0.1,0.1,0.1,0.2,0.2,0.3l0,0
						c0.1,0.1,0.3,0.1,0.5,0.1c0-0.1-0.1-0.2-0.1-0.2c-0.2-0.4-0.3-0.8-0.4-1.2c-0.2-0.4-0.4-0.8-0.7-1.2c-0.3-0.2-0.5-0.4-0.8-0.7
						c-0.3-0.2-0.7-0.5-1-0.7c-0.1-0.1-0.2-0.1-0.2-0.2l-1,0.6c0.4,0.7,0.8,1.3,1.4,1.9c0,0,0,0,0.1,0.1c0.1,0.2,0.3,0.3,0.5,0.4
						c0.1,0,0.1,0.1,0.2,0.2c0.1,0.2,0.2,0.3,0.2,0.4c0.2,0,0.3-0.1,0.3-0.4c0-0.2-0.1-0.4-0.2-0.5
						C526.5,63.4,526.4,63.3,526.3,63.2L526.3,63.2z"/>
					<path id="XMLID_155_" class="st39" d="M526.3,63.2c0-0.1-0.1-0.2,0-0.3c0,0,0,0,0,0c0.2,0,0.4,0.1,0.6,0.3
						c-0.1-0.2-0.3-0.3-0.5-0.4c0,0-0.1,0-0.1,0c-0.1,0-0.2,0-0.2,0.1C526.1,62.8,526.1,63,526.3,63.2z"/>
				</g>
				<g id="XMLID_151_">
					<path id="XMLID_153_" class="st25" d="M509.4,54.6c-0.8,0.4-1.7,0.7-2.5,0.9c-0.3-0.4-0.4-0.8-0.3-1.1c0.9-0.3,1.8-0.7,2.8-1.1
						L509.4,54.6z"/>
					<path id="XMLID_152_" class="st26" d="M509.3,53.3c0.2-0.1,0.5-0.2,0.7-0.3c0.4,0.4,0.5,0.8,0.4,1.1c-0.3,0.2-0.7,0.3-1,0.5
						L509.3,53.3z"/>
				</g>
				<g id="XMLID_148_">
					<path id="XMLID_150_" class="st37" d="M511.1,55.2c-0.6-0.6-1.1-1.3-1.4-2.1l3.1-1.7c0.6,0.7,0.5,1.4-0.1,2.1L511.1,55.2z"/>
					<path id="XMLID_149_" class="st38" d="M509.7,53.1c0.3,0.9,0.8,1.6,1.4,2.1l-0.3,0.3c-0.8-0.6-1.3-1.3-1.5-2.3L509.7,53.1z"/>
				</g>
				<path id="XMLID_147_" class="st25" d="M500.9,53.8c0-0.6,0.1-1.2,0.5-1.8c1.9,0.4,3.9,1.2,5.9,2.5c0.1,0.4-0.1,0.8-0.4,1
					l-0.6-0.2C504.5,55.1,502.7,54.6,500.9,53.8z"/>
				<path id="XMLID_146_" class="st40" d="M515.6,65.7c1.8-0.1,3.5-0.5,5-1.3c-3.3-0.4-6.6-0.4-9.9,0
					C512.1,65.1,513.7,65.5,515.6,65.7z"/>
				<g id="XMLID_143_">
					<path id="XMLID_145_" class="st25" d="M516.4,66.6c0.4,2,0.8,3.9,1.3,5.7c0.6,0.5,1.1,0.4,1.5-0.3c-0.3-2.1-0.5-4.3-0.7-6.7
						C517.7,65.6,517,66.1,516.4,66.6z"/>
					<path id="XMLID_144_" class="st26" d="M518.5,65.3c0-0.5-0.1-1-0.1-1.5c-0.8,0.2-1.6,0.5-2.3,0.8c0.1,0.7,0.2,1.3,0.3,2
						C517,66.1,517.7,65.6,518.5,65.3z"/>
				</g>
				<g id="XMLID_136_">
					<path id="XMLID_140_" class="st25" d="M518.9,72.7c0.2-0.3,0.2-0.5-0.1-0.8c0,0.6-0.2,0.8-0.7,0.7
						C518.3,72.9,518.6,72.9,518.9,72.7z M521.2,73.2c-0.4,0.6-0.9,1.1-1.6,1.4c-0.6-0.8-1.3-1.5-1.9-2.3c0.1-0.7,0.5-1,1.1-1
						C519.8,71.9,520.5,72.5,521.2,73.2z"/>
					<path id="XMLID_139_" class="st26" d="M518.9,72.7c-0.3,0.2-0.5,0.2-0.8-0.1c0.5,0.1,0.7-0.1,0.7-0.7
						C519,72.1,519,72.4,518.9,72.7z"/>
					<path id="XMLID_138_" class="st9" d="M520.5,75.6c0.6-0.4,1.2-0.9,1.6-1.4c1.3,1.7,2.6,3.5,3.8,5.3l0,0
						c-0.2,0.5-0.5,0.8-1.1,0.9l-0.1,0C523.3,78.9,521.9,77.3,520.5,75.6z"/>
					<path id="XMLID_137_" class="st41" d="M519.6,74.6c0.7-0.3,1.2-0.8,1.6-1.4c0.2,0.2,0.4,0.4,0.5,0.6c0.1,0.1,0.2,0.3,0.3,0.4
						c-0.4,0.6-1,1-1.6,1.4C520.2,75.3,519.9,75,519.6,74.6z"/>
				</g>
				<g id="XMLID_129_">
					<path id="XMLID_135_" class="st42" d="M526.2,82.1c-1.2,0.9-2.5,1.6-3.8,2.2c-0.2-0.8-0.1-1.4,0.2-2c0,0,0-0.1,0.1-0.1
						c0.7-0.7,1.4-1.1,2.2-1C525.4,81.3,525.8,81.6,526.2,82.1C526.2,82.1,526.2,82.1,526.2,82.1z"/>
					<path id="XMLID_134_" class="st43" d="M523.9,80.5c0-0.1-0.1-0.2-0.1-0.3c0-0.2,0.1-0.4,0.5-0.6c0.3-0.2,0.6-0.2,0.8-0.1
						c0.2,0.2,0.3,0.3,0.5,0.2c0.1-0.1,0-0.3-0.1-0.5c-0.1-0.1-0.1-0.2,0-0.2c0.5,0.4,0.9,0.8,1.3,1.2c0,0.5-0.1,1.1-0.5,1.8
						c-0.3-0.4-0.8-0.7-1.4-0.9c-0.7-0.1-1.5,0.3-2.2,1c0.3-0.4,0.7-0.8,1.3-1.1c0,0,0,0,0,0c0.4-0.4,0.9-0.6,1.4-0.6
						c0.1-0.2,0-0.4-0.2-0.6C524.5,79.9,524.1,80.1,523.9,80.5z"/>
					<path id="XMLID_131_" class="st44" d="M523.9,81.1c0.1-0.2,0.1-0.4,0-0.6c0.2-0.5,0.7-0.7,1.2-0.7c0.2,0.2,0.2,0.4,0.2,0.6
						C524.8,80.5,524.3,80.7,523.9,81.1z M526.2,82.1C526.2,82.1,526.2,82.1,526.2,82.1c0.3-0.7,0.5-1.2,0.5-1.8
						c0.3,0.3,0.5,0.6,0.7,1c-0.4,0.3-0.7,0.7-1,1.1C526.3,82.3,526.2,82.2,526.2,82.1z"/>
					<path id="XMLID_130_" class="st45" d="M522.3,84.3c1.4-0.6,2.6-1.3,3.8-2.2c0.1,0.1,0.1,0.2,0.2,0.3c0,0,0,0,0,0c0,0,0,0,0,0
						c-1.2,0.9-2.4,1.7-3.7,2.2L522.3,84.3z"/>
				</g>
				<g id="XMLID_122_">
					<path id="XMLID_126_" class="st25" d="M513.2,74.9c0.7,0.2,1.4,0.2,2.1-0.1c-0.1-1-0.3-1.9-0.6-2.9c-0.5-0.5-1-0.5-1.5,0
						C513.2,72.9,513.2,73.9,513.2,74.9z M514.3,72.3c0,0.3-0.1,0.5-0.4,0.6c-0.4,0-0.5-0.2-0.5-0.6C513.7,72.7,514,72.7,514.3,72.3
						z"/>
					<path id="XMLID_125_" class="st26" d="M514.3,72.3c-0.3,0.4-0.7,0.5-1,0.1c0,0.4,0.2,0.5,0.5,0.6
						C514.2,72.8,514.4,72.6,514.3,72.3z"/>
					<path id="XMLID_124_" class="st9" d="M515.3,76.2c-0.7,0.2-1.4,0.2-2.1,0c0,2.1,0.1,4.3,0.2,6.5l0,0c0.5,0.3,0.9,0.3,1.4,0h0
						C515.1,80.5,515.2,78.3,515.3,76.2z"/>
					<path id="XMLID_123_" class="st41" d="M515.3,74.8c-0.7,0.2-1.4,0.2-2.1,0.1c0,0.4,0,0.9,0,1.3c0.7,0.1,1.5,0.1,2.1,0
						c0-0.2,0-0.4,0-0.5C515.3,75.4,515.3,75.1,515.3,74.8z"/>
				</g>
				<g id="XMLID_115_">
					<path id="XMLID_121_" class="st42" d="M514.2,85.1c-1.5,0.1-3,0.1-4.4-0.2c0.3-0.7,0.7-1.3,1.2-1.6c0,0,0.1,0,0.1-0.1
						c1-0.2,1.8-0.1,2.4,0.3C513.9,84,514.2,84.5,514.2,85.1C514.2,85.1,514.2,85.1,514.2,85.1z"/>
					<path id="XMLID_120_" class="st43" d="M515.6,83.9c-0.3,0.4-0.7,0.8-1.4,1.2c0-0.6-0.3-1-0.7-1.5c-0.6-0.5-1.4-0.6-2.4-0.3
						c0.4-0.2,1-0.3,1.7-0.3c0,0,0,0,0,0c0.6-0.1,1.1,0,1.5,0.2c0.2-0.1,0.2-0.3,0.2-0.6c-0.5-0.3-0.9-0.3-1.4-0.1
						c0-0.1,0.1-0.2,0.1-0.3c0.1-0.2,0.4-0.3,0.7-0.3c0.3,0,0.6,0.2,0.7,0.4c0.1,0.3,0.1,0.4,0.2,0.4c0.1,0,0.2-0.2,0.2-0.5
						c0-0.1,0-0.2,0.1-0.2C515.4,82.7,515.5,83.3,515.6,83.9z"/>
					<path id="XMLID_117_" class="st44" d="M512.8,83c0.1-0.1,0.2-0.3,0.3-0.5c0.5-0.3,0.9-0.2,1.4,0.1c0.1,0.3,0,0.5-0.2,0.6
						C513.9,83,513.4,82.9,512.8,83z M514.2,85.1C514.2,85.1,514.2,85.1,514.2,85.1c0.6-0.4,1.1-0.8,1.4-1.2
						c0.1,0.4,0.1,0.8,0.1,1.2c-0.5,0.1-0.9,0.2-1.4,0.4C514.2,85.3,514.2,85.2,514.2,85.1z"/>
					<path id="XMLID_116_" class="st45" d="M509.8,84.9c1.4,0.2,2.9,0.3,4.4,0.2c0,0.1,0,0.2,0,0.3c0,0,0,0,0,0c0,0,0,0,0,0
						c-1.5,0.1-3,0.1-4.3-0.1L509.8,84.9z"/>
				</g>
				<g id="XMLID_112_">
					<path id="XMLID_114_" class="st25" d="M514.9,66.1c0.1,2,0,4-0.1,5.9c-0.4,0.6-0.9,0.6-1.5,0c-0.2-2.1-0.4-4.3-0.7-6.7
						C513.4,65.4,514.2,65.7,514.9,66.1z"/>
					<path id="XMLID_113_" class="st26" d="M514.9,66.1c-0.7-0.4-1.4-0.7-2.3-0.8c-0.1-0.5-0.1-1-0.2-1.5c0.9,0,1.7,0.1,2.4,0.3
						C514.8,64.8,514.8,65.5,514.9,66.1z"/>
				</g>
				<g id="XMLID_109_">
					<path id="XMLID_111_" class="st41" d="M513.1,65c0.7,0.2,1.5,0.2,2.4,0.3c1.7,0,3.4-0.3,5.1-1l-1.7-4.7c-1.7,0.6-3.3,0.7-5,0.5
						L513.1,65z"/>
					<path id="XMLID_110_" class="st38" d="M518.9,59.7l-0.2-0.4c-2.1-0.3-4.1-0.3-6.1,0l-1.9,5c0.7,0.3,1.5,0.5,2.4,0.7l0.8-4.8
						C515.6,60.5,517.2,60.3,518.9,59.7z"/>
				</g>
				<g id="XMLID_103_">
					<path id="XMLID_108_" class="st25" d="M514.8,51l1,2.5l1-2.5c-0.1,0-0.3,0-0.4,0h-1.2C515,50.9,514.9,51,514.8,51z"/>
					<path id="XMLID_107_" class="st46" d="M518.8,51.3c-0.8,1.3-1.8,2.3-3.1,3c-1.3-0.7-2.3-1.7-3-3l0.6,5.6l-0.8,2.6
						c1.9,0.7,4,0.7,6.2,0l-0.8-2.6L518.8,51.3z"/>
					<path id="XMLID_106_" class="st41" d="M515.8,54.3l1.5-3.4c-0.2,0-0.3,0-0.5,0l-0.1,0.1l-1,2.5L515.8,54.3z"/>
					<path id="XMLID_105_" class="st38" d="M515.8,53.5l-1-2.5l0-0.1c-0.2,0-0.3,0-0.5,0l1.5,3.4L515.8,53.5z"/>
					<path id="XMLID_104_" class="st47" d="M512.8,51.3c0.7,1.2,1.7,2.2,3,3c1.3-0.6,2.3-1.6,3.1-3c-0.5-0.2-1-0.3-1.5-0.4l-1.5,3.4
						l-1.5-3.4C513.8,51,513.3,51.2,512.8,51.3z"/>
				</g>
			</g>
			<path id="XMLID_101_" class="st48" d="M510.2,44c-0.4,0.3-0.8,0.4-1.3,0.5c-0.5,0.1-1,0-1.4-0.1c-0.4-0.1-0.6-0.4-0.7-0.7
				c0-0.3,0.1-0.6,0.5-0.8c0.4-0.2,0.8-0.4,1.3-0.5c0.5-0.1,1,0,1.4,0.1c0.4,0.2,0.6,0.4,0.7,0.7C510.7,43.4,510.6,43.7,510.2,44z"
				/>
			<path id="XMLID_100_" class="st48" d="M522.2,42.4c-0.4,0.3-0.8,0.4-1.3,0.5c-0.5,0.1-1,0-1.4-0.1c-0.4-0.1-0.6-0.4-0.7-0.7
				c0-0.3,0.1-0.6,0.5-0.8c0.4-0.2,0.8-0.4,1.3-0.5c0.5-0.1,1,0,1.4,0.1c0.4,0.2,0.6,0.4,0.7,0.7C522.7,41.9,522.6,42.2,522.2,42.4z
				"/>
		</g>
		<g id="XMLID_4_">
			<g id="XMLID_74_">
				<g id="XMLID_96_">
					<path id="XMLID_98_" class="st49" d="M497.5,55.5c-2.9-2.5-6.4-4.1-10.4-5c-4.1-0.2-7.9,0.6-11.3,2.2
						c-0.8-5.6-0.3-11.8,1.5-18.6c-0.6-1.2-0.8-2.8-0.6-4.7c0.1-0.3,0.1-0.6,0.2-0.8c0.7-2,2-3.8,4.1-5.3c2.7-1.7,5.9-2.4,9.8-1.9
						c3.9,0.6,6.9,2,9,4.3c1.6,2,2.5,4,2.6,6.1c0,0.3,0,0.6,0,0.9c-0.3,1.9-0.8,3.4-1.7,4.4C500.8,44.1,499.7,50.2,497.5,55.5z"/>
					<path id="XMLID_97_" class="st50" d="M497.5,55.5c2.2-5.2,3.3-11.4,3.2-18.3c0.9-1,1.5-2.5,1.7-4.4c0-0.3,0-0.6,0-0.9
						c-0.2-2.1-1-4.1-2.6-6.1c-2.1-2.3-5.1-3.8-9-4.3c-3.9-0.4-7.1,0.2-9.8,1.9c-2,1.5-3.4,3.3-4.1,5.3c-0.1,0.3-0.2,0.6-0.2,0.8
						c-0.2,1.9,0,3.5,0.6,4.7c-1.8,6.7-2.3,12.9-1.5,18.6c-3.9-8.8-4.1-16.8-0.5-24.3c0.9-1.8,1.9-3.6,3.2-5.3c0.9-1.1,2-2,3-2.7
						c2.8-1.9,6-2.6,9.7-2.1c3.7,0.5,6.7,2,8.9,4.5c0.9,1,1.6,2.1,2.3,3.4c0.8,2,1.4,4,1.8,5.9C505.6,40.2,503.4,48,497.5,55.5z"/>
				</g>
				<g id="XMLID_93_">
					<path id="XMLID_95_" class="st25" d="M486,50.4c0.6,0.4,1.3,0.5,2,0.3c-0.1,0.3-0.1,0.5-0.1,0.8c0,0.1,0,0.2,0,0.2l-2.1-0.3
						c0-0.1,0-0.1,0.1-0.2C485.9,50.9,486,50.6,486,50.4z"/>
					<path id="XMLID_94_" class="st26" d="M488,50.6c-0.7,0.2-1.4,0.1-2-0.3c0-0.4,0.1-0.8,0.1-1.1c0-0.2,0-0.4-0.1-0.6
						c0.9-0.3,1.7-0.2,2.3,0.4c-0.1,0.2-0.1,0.4-0.1,0.5C488.1,49.9,488.1,50.2,488,50.6z"/>
				</g>
				<g id="XMLID_90_">
					<path id="XMLID_92_" class="st25" d="M480,36.8c-0.2-0.9-0.5-1.4-1-1.5c-0.4-0.1-0.8,0-1.1,0.4c-0.3,0.3-0.5,0.7-0.5,1.2
						c0.2-0.3,0.4-0.5,0.6-0.7c0.3-0.2,0.6-0.2,0.8-0.1c0.6,0.2,0.9,1,1.1,2.3c0,0.1,0,0.1,0,0.2c0,0.9-0.1,1.7,0,2.5
						c-0.7,0-1.4-0.2-1.9-0.7c-0.9-0.8-1.3-2-1.2-3.7c0.2-1.4,0.8-2.2,1.9-2.4c0.8-0.2,1.3,0.2,1.5,1.1
						C480.1,35.9,480,36.3,480,36.8z"/>
					<path id="XMLID_91_" class="st26" d="M480,36.8c0,0.6-0.1,1.1-0.1,1.6c-0.2-1.3-0.5-2-1.1-2.3c-0.3-0.1-0.6-0.1-0.8,0.1
						c-0.2,0.1-0.4,0.4-0.6,0.7c0.1-0.5,0.2-0.9,0.5-1.2c0.3-0.4,0.7-0.5,1.1-0.4C479.5,35.4,479.8,35.9,480,36.8z"/>
				</g>
				<g id="XMLID_87_">
					<path id="XMLID_89_" class="st25" d="M497.1,40.8c0.5-1.2,1-1.8,1.7-1.9c0.3,0,0.6,0,0.8,0.3c0.2,0.2,0.3,0.5,0.4,0.8
						c0.1-0.5,0-0.9-0.2-1.3c-0.2-0.4-0.5-0.6-1-0.7c-0.5,0-1,0.4-1.4,1.2c0.1-0.4,0.1-0.9,0.2-1.3c0.4-0.8,1-1.1,1.8-0.7
						c1,0.5,1.4,1.4,1.2,2.8c-0.4,1.7-1.1,2.8-2.1,3.3c-0.7,0.3-1.3,0.4-2,0.2c0.2-0.8,0.4-1.6,0.6-2.5
						C497.1,40.9,497.1,40.8,497.1,40.8z"/>
					<path id="XMLID_88_" class="st26" d="M497.1,40.8c0.1-0.5,0.2-1.1,0.3-1.6c0.4-0.8,0.9-1.2,1.4-1.2c0.4,0,0.8,0.2,1,0.7
						c0.2,0.4,0.3,0.8,0.2,1.3c-0.1-0.3-0.2-0.6-0.4-0.8c-0.2-0.2-0.5-0.3-0.8-0.3C498.2,38.9,497.6,39.6,497.1,40.8z"/>
				</g>
				<g id="XMLID_84_">
					<path id="XMLID_86_" class="st25" d="M498.8,37c-0.6,2.1-1.3,4-2,5.7c-0.7,1.6-1,2.5-1.2,2.8c-0.3,0.7-0.8,1.3-1.4,1.9
						c-0.6,0.6-1.5,1.1-2.9,1.7c-1.5,0.6-2.8,0.9-4.1,1.1c-1.2-0.4-2.5-1.1-3.7-2.1c-1.2-0.9-2-1.7-2.4-2.3
						c-0.4-0.7-0.7-1.4-0.9-2.2c-0.1-0.3-0.2-1.3-0.4-3c-0.3-1.9-0.4-3.9-0.5-6.1c3.4-0.3,6.7-0.3,9.9,0.1l0,0
						C492.4,35.1,495.6,35.9,498.8,37z"/>
					<path id="XMLID_85_" class="st26" d="M498.8,37c-3.2-1.2-6.4-2-9.7-2.4l0,0c-3.3-0.4-6.6-0.5-9.9-0.1c0-1,0-2,0-3
						c3.6-0.9,7-1.1,10.5-0.6c3.4,0.4,6.8,1.5,10,3.2C499.3,35.1,499.1,36.1,498.8,37z"/>
				</g>
				<path id="XMLID_83_" class="st51" d="M478.5,33.5c-1.6-3.4-0.6-6.8,3.2-10c2.4-1.8,5.4-2.5,9-2.3c3.6,0.7,6.3,2.2,8.1,4.5
					c2.9,4,3.2,7.5,0.8,10.6c-0.1,0.3-0.2,0.5-0.3,0.8c-0.8,2.4-2,5-3.5,7.8c0.9-2.7,1.6-5.5,2.1-8.6c0-0.1,0-0.3,0.1-0.4
					c0-0.1,0-0.1,0-0.2c0,0,0,0,0,0c-0.2-0.1-0.5-0.2-0.7-0.3c-0.4-0.1-0.8-0.3-1.2-0.4l-0.4-0.1c-1.7-0.5-3.3-1-5-1.3
					c-0.6-0.1-1.1-0.2-1.7-0.2c-2.9-0.3-5.9-0.3-9,0c0,0.2-0.1,0.5-0.1,0.7c-0.3,3.1-0.3,6.2-0.1,9.1c-0.8-3.2-1.3-6.1-1.5-8.6
					C478.5,34.1,478.5,33.8,478.5,33.5z"/>
				<path id="XMLID_82_" class="st52" d="M481.2,33.7l0.3-0.3c1.8-0.6,3.7-0.3,5.6,0.8l0,0.7C485,33.5,483.1,33.1,481.2,33.7z"/>
				<path id="XMLID_81_" class="st52" d="M496.9,35.7l-0.2-0.4c-1.6-1-3.5-1.2-5.6-0.6l-0.1,0.7C493.2,34.5,495.2,34.7,496.9,35.7z"
					/>
				<path id="XMLID_80_" class="st26" d="M488.1,41.9l0.7,1c-0.6,0.3-1.1,0.2-1.6-0.2L488.1,41.9z"/>
				<path id="XMLID_79_" class="st53" d="M489,44.6l-0.1,0.4c-0.7,0.1-1.5,0-2.2-0.3l0.1-0.4C487.5,44.6,488.3,44.7,489,44.6z"/>
				<path id="XMLID_78_" class="st54" d="M485.9,38l-0.4,0.5c-1.2-0.7-2.5-0.9-3.9-0.5l-0.2-0.5C483,37,484.4,37.2,485.9,38z"/>
				<path id="XMLID_77_" class="st54" d="M491.3,38.7c1.6-0.4,3.1-0.2,4.4,0.6l-0.4,0.4c-1.2-0.7-2.5-0.8-3.8-0.4L491.3,38.7z"/>
				<path id="XMLID_76_" class="st48" d="M483.6,42.5c-0.4,0.2-0.9,0.2-1.4,0.1c-0.5-0.1-1-0.2-1.3-0.5c-0.4-0.2-0.5-0.5-0.5-0.8
					c0-0.3,0.3-0.5,0.7-0.7c0.4-0.1,0.9-0.2,1.4-0.1c0.5,0.1,1,0.2,1.3,0.5c0.4,0.3,0.5,0.5,0.5,0.8C484.2,42.1,484,42.4,483.6,42.5
					z"/>
				<path id="XMLID_75_" class="st48" d="M495,44c-0.4,0.2-0.9,0.2-1.4,0.1c-0.5-0.1-1-0.2-1.3-0.5c-0.4-0.2-0.5-0.5-0.5-0.8
					c0-0.3,0.3-0.5,0.7-0.7c0.4-0.1,0.9-0.2,1.4-0.1c0.5,0.1,1,0.2,1.3,0.5c0.4,0.3,0.5,0.5,0.5,0.8C495.7,43.6,495.5,43.8,495,44z"
					/>
			</g>
			<g id="XMLID_5_">
				<g id="XMLID_71_">
					<path id="XMLID_73_" class="st25" d="M482.5,55.4l0.7,1.1c-0.5,0.8-1.1,1.5-1.7,2.1c-0.5-0.2-0.8-0.4-0.8-0.8
						C481.3,57.1,482,56.3,482.5,55.4z"/>
					<path id="XMLID_72_" class="st26" d="M483.3,56.5l-0.7-1.1c0.1-0.2,0.3-0.4,0.4-0.6c0.5,0.2,0.8,0.4,0.9,0.8
						C483.7,55.9,483.5,56.2,483.3,56.5z"/>
				</g>
				<g id="XMLID_68_">
					<path id="XMLID_70_" class="st37" d="M484.4,55.5c-0.8-0.2-1.6-0.6-2.3-1.2l1.8-3c0.5,0.5,0.8,1.1,0.9,1.8L484.4,55.5z"/>
					<path id="XMLID_69_" class="st38" d="M482,54.4c0.8,0.6,1.5,1,2.3,1.2l-0.1,0.4c-1-0.1-1.8-0.5-2.5-1.2L482,54.4z"/>
				</g>
				<path id="XMLID_67_" class="st25" d="M481.6,58.6c-1.1,1.3-2.2,2.4-3.4,3.5c-0.6-0.1-0.9-0.4-1.1-0.9c1.1-1.2,2.3-2.3,3.6-3.3
					C481.2,57.9,481.5,58.1,481.6,58.6z"/>
				<g id="XMLID_64_">
					<path id="XMLID_66_" class="st25" d="M476.3,63.2c0.2-0.2,0.2-0.4,0.2-0.5c0,0-0.1-0.1-0.2,0c0,0-0.1,0-0.1,0
						c-0.2,0.1-0.3,0.2-0.5,0.4c-0.1,0.1-0.2,0.3-0.4,0.5c-0.1,0.4-0.2,0.7-0.3,0.9c-0.1,0.1-0.2,0.2-0.2,0.3v0
						c-0.1,0.1-0.3,0.1-0.5,0.1c0-0.1,0.1-0.2,0.1-0.2c0.2-0.3,0.3-0.7,0.4-1.2c0.1-0.4,0.4-0.8,0.7-1.1c0.3-0.2,0.5-0.5,0.8-0.7
						c0.3-0.2,0.6-0.5,1-0.7c0.1,0,0.1-0.1,0.2-0.1l1,0.6c-0.4,0.7-0.9,1.3-1.5,1.9c0,0-0.1,0-0.1,0.1c-0.2,0.2-0.3,0.3-0.5,0.4
						c-0.1,0.1-0.1,0.1-0.2,0.2c-0.1,0.2-0.2,0.3-0.2,0.4c-0.2,0-0.3-0.1-0.3-0.4c0-0.2,0.1-0.4,0.2-0.5
						C476.1,63.4,476.2,63.3,476.3,63.2L476.3,63.2z"/>
					<path id="XMLID_65_" class="st39" d="M476.3,63.2c0-0.1,0.1-0.2,0-0.4c0,0,0,0,0,0c-0.2,0-0.4,0.1-0.6,0.2
						c0.1-0.1,0.3-0.3,0.5-0.4c0,0,0.1,0,0.1,0c0.1,0,0.2,0,0.2,0C476.6,62.8,476.5,63,476.3,63.2z"/>
				</g>
				<g id="XMLID_61_">
					<path id="XMLID_63_" class="st25" d="M493.5,55l0.2-1.4c-0.2-0.2-0.4-0.3-0.6-0.4c1.1,0.8,2.4,1.4,3.7,1.9l0.2,1.4
						C495.9,56.4,494.8,55.9,493.5,55z"/>
					<path id="XMLID_62_" class="st26" d="M493,53.2c0.2,0.1,0.4,0.3,0.6,0.4l-0.2,1.4v0c0,0-0.1,0-0.1-0.1
						c-0.3-0.2-0.6-0.4-0.9-0.7C492.4,53.9,492.6,53.5,493,53.2z"/>
				</g>
				<g id="XMLID_58_">
					<path id="XMLID_60_" class="st37" d="M491.5,55.2l-1.5-1.8c-0.6-0.7-0.6-1.4-0.1-2.1l3.1,1.7C492.6,53.9,492.1,54.7,491.5,55.2
						z"/>
					<path id="XMLID_59_" class="st38" d="M491.5,55.2c0.6-0.6,1.1-1.3,1.4-2.2l0.4,0.2c-0.2,0.9-0.8,1.7-1.5,2.3L491.5,55.2z"/>
				</g>
				<path id="XMLID_57_" class="st25" d="M501.2,51.4c0.4,0.8,0.3,1.5-0.4,2.1c-1.2,1-2.4,2-3.8,2.9c-0.4-0.2-0.6-0.4-0.7-0.9
					C497.9,53.8,499.5,52.4,501.2,51.4z"/>
				<path id="XMLID_56_" class="st40" d="M487.1,65.7c-1.8-0.1-3.5-0.5-5-1.3c3.3-0.4,6.6-0.4,9.9,0
					C490.5,65.1,488.9,65.5,487.1,65.7z"/>
				<g id="XMLID_53_">
					<path id="XMLID_55_" class="st25" d="M486.3,66.6c-0.4,2-0.8,3.9-1.3,5.7c-0.6,0.5-1.1,0.4-1.5-0.3c0.3-2.1,0.5-4.3,0.7-6.7
						C485,65.6,485.7,66.1,486.3,66.6z"/>
					<path id="XMLID_54_" class="st26" d="M484.2,65.3c0-0.5,0.1-1,0.1-1.5c0.8,0.2,1.6,0.5,2.3,0.8c-0.1,0.7-0.2,1.3-0.3,2
						C485.7,66.1,485,65.6,484.2,65.3z"/>
				</g>
				<g id="XMLID_46_">
					<path id="XMLID_50_" class="st25" d="M484,72.8c-0.3-0.2-0.3-0.5-0.2-0.7c0.2,0.5,0.5,0.7,0.9,0.4
						C484.6,72.8,484.4,72.9,484,72.8z M482,74c0.5,0.5,1.2,0.8,1.9,0.9c0.4-0.9,0.7-1.8,1.1-2.7c-0.3-0.7-0.8-0.8-1.4-0.6
						C482.9,72.4,482.4,73.2,482,74z"/>
					<path id="XMLID_49_" class="st26" d="M484,72.8c0.3,0.1,0.6,0,0.7-0.3c-0.4,0.2-0.7,0.1-0.9-0.4
						C483.7,72.3,483.8,72.6,484,72.8z"/>
					<path id="XMLID_48_" class="st9" d="M483.4,76.1c-0.7-0.2-1.4-0.5-2-0.9c-0.8,2-1.5,4.1-2,6.2l0,0c0.3,0.4,0.7,0.6,1.3,0.5
						l0.1-0.1C481.7,80,482.6,78.1,483.4,76.1z"/>
					<path id="XMLID_47_" class="st41" d="M483.9,74.9c-0.8-0.1-1.4-0.4-1.9-0.9c-0.1,0.2-0.2,0.5-0.3,0.7c-0.1,0.2-0.1,0.3-0.2,0.5
						c0.6,0.4,1.2,0.7,2,0.9C483.6,75.7,483.7,75.3,483.9,74.9z"/>
				</g>
				<g id="XMLID_39_">
					<path id="XMLID_45_" class="st42" d="M479.9,84c1.4,0.5,2.9,0.8,4.3,0.9c-0.1-0.8-0.3-1.4-0.8-1.8c0,0-0.1-0.1-0.1-0.1
						c-0.9-0.5-1.7-0.6-2.4-0.3C480.5,83,480.1,83.4,479.9,84C479.9,84,479.9,84,479.9,84z"/>
					<path id="XMLID_44_" class="st43" d="M481.6,81.8c0-0.1,0-0.2,0-0.3c-0.1-0.2-0.3-0.4-0.6-0.4c-0.3-0.1-0.6,0-0.8,0.2
						c-0.1,0.2-0.2,0.4-0.4,0.4c-0.1-0.1-0.1-0.3,0-0.5c0-0.1,0-0.2-0.1-0.2c-0.3,0.5-0.6,1-0.8,1.6c0.1,0.5,0.5,1,1,1.5
						c0.2-0.5,0.5-0.9,1.1-1.2c0.7-0.3,1.5-0.2,2.4,0.3c-0.4-0.3-0.9-0.6-1.5-0.7c0,0,0,0,0,0c-0.5-0.2-1-0.3-1.5-0.2
						c-0.1-0.2-0.1-0.4,0-0.6C480.8,81.4,481.3,81.4,481.6,81.8z"/>
					<path id="XMLID_41_" class="st44" d="M481.8,82.3c-0.1-0.1-0.2-0.3-0.2-0.5c-0.4-0.4-0.8-0.4-1.3-0.3c-0.1,0.2-0.1,0.5,0,0.6
						C480.8,82,481.3,82.1,481.8,82.3z M479.9,84C479.9,84,479.9,84,479.9,84c-0.5-0.5-0.9-1-1-1.5c-0.1,0.4-0.3,0.7-0.4,1.1
						c0.4,0.2,0.9,0.4,1.3,0.7C479.9,84.2,479.9,84.1,479.9,84z"/>
					<path id="XMLID_40_" class="st45" d="M484.3,84.9c-1.5-0.1-2.9-0.4-4.3-0.9c0,0.1-0.1,0.2-0.1,0.3c0,0,0,0,0,0c0,0,0,0,0,0
						c1.4,0.5,2.8,0.8,4.2,1L484.3,84.9z"/>
				</g>
				<g id="XMLID_32_">
					<path id="XMLID_36_" class="st25" d="M489.5,74.9c-0.7,0.2-1.4,0.2-2.1-0.1c0.1-1,0.3-1.9,0.6-2.9c0.5-0.5,1-0.5,1.5,0
						C489.5,72.9,489.5,73.9,489.5,74.9z M488.3,72.3c0,0.3,0.1,0.5,0.5,0.6c0.3,0,0.5-0.2,0.5-0.6C489,72.7,488.6,72.7,488.3,72.3z
						"/>
					<path id="XMLID_35_" class="st26" d="M488.3,72.3c0.3,0.4,0.7,0.5,1,0.1c0,0.4-0.2,0.5-0.5,0.6
						C488.4,72.8,488.3,72.6,488.3,72.3z"/>
					<path id="XMLID_34_" class="st9" d="M487.3,76.2c0.7,0.2,1.4,0.2,2.2,0c0,2.1-0.1,4.3-0.2,6.5l0,0c-0.5,0.3-1,0.3-1.4,0h0
						C487.6,80.5,487.4,78.3,487.3,76.2z"/>
					<path id="XMLID_33_" class="st41" d="M487.3,74.8c0.7,0.2,1.4,0.2,2.1,0.1c0,0.4,0,0.9,0,1.3c-0.7,0.1-1.5,0.1-2.2,0
						c0-0.2,0-0.4,0-0.5C487.3,75.4,487.3,75.1,487.3,74.8z"/>
				</g>
				<g id="XMLID_25_">
					<path id="XMLID_31_" class="st42" d="M488.5,85.1c1.5,0.1,3,0.1,4.4-0.2c-0.3-0.7-0.7-1.3-1.2-1.6c0,0-0.1,0-0.1-0.1
						c-1-0.2-1.8-0.1-2.4,0.3C488.8,84,488.5,84.5,488.5,85.1C488.5,85.1,488.5,85.1,488.5,85.1z"/>
					<path id="XMLID_30_" class="st43" d="M487.1,83.9c0.3,0.4,0.7,0.8,1.4,1.2c0-0.6,0.3-1,0.7-1.5c0.6-0.5,1.4-0.6,2.4-0.3
						c-0.4-0.2-1-0.3-1.7-0.3c0,0,0,0,0,0c-0.6-0.1-1.1,0-1.5,0.2c-0.2-0.1-0.2-0.3-0.2-0.6c0.5-0.3,0.9-0.3,1.4-0.1
						c0-0.1-0.1-0.2-0.1-0.3c-0.1-0.2-0.4-0.3-0.7-0.3c-0.3,0-0.6,0.2-0.7,0.4c-0.1,0.3-0.1,0.4-0.2,0.4c-0.1,0-0.2-0.2-0.2-0.5
						c0-0.1,0-0.2-0.1-0.2C487.3,82.7,487.2,83.3,487.1,83.9z"/>
					<path id="XMLID_27_" class="st44" d="M489.9,83c-0.1-0.1-0.2-0.3-0.3-0.5c-0.5-0.3-0.9-0.2-1.4,0.1c-0.1,0.3,0,0.5,0.2,0.6
						C488.8,83,489.3,82.9,489.9,83z M488.5,85.1C488.5,85.1,488.5,85.1,488.5,85.1c-0.6-0.4-1.1-0.8-1.4-1.2c0,0.4-0.1,0.8-0.1,1.2
						c0.5,0.1,0.9,0.2,1.4,0.4C488.5,85.3,488.5,85.2,488.5,85.1z"/>
					<path id="XMLID_26_" class="st45" d="M492.9,84.9c-1.4,0.2-2.9,0.3-4.4,0.2c0,0.1,0,0.2,0,0.3c0,0,0,0,0,0c0,0,0,0,0,0
						c1.5,0.1,3,0.1,4.3-0.1L492.9,84.9z"/>
				</g>
				<g id="XMLID_22_">
					<path id="XMLID_24_" class="st25" d="M487.8,66.1c-0.1,2,0,4,0.1,5.9c0.4,0.6,0.9,0.6,1.5,0c0.2-2.1,0.4-4.3,0.7-6.7
						C489.3,65.4,488.5,65.7,487.8,66.1z"/>
					<path id="XMLID_23_" class="st26" d="M487.8,66.1c0.7-0.4,1.4-0.7,2.3-0.8c0.1-0.5,0.1-1,0.2-1.5c-0.9,0-1.7,0.1-2.4,0.3
						C487.9,64.8,487.9,65.5,487.8,66.1z"/>
				</g>
				<g id="XMLID_19_">
					<path id="XMLID_21_" class="st41" d="M489.5,65c-0.7,0.2-1.5,0.2-2.4,0.3c-1.7,0-3.4-0.3-5.1-1l1.7-4.7c1.7,0.6,3.3,0.7,5,0.5
						L489.5,65z"/>
					<path id="XMLID_20_" class="st38" d="M483.8,59.7l0.1-0.4c2.1-0.3,4.1-0.3,6.1,0l1.9,5c-0.7,0.3-1.5,0.5-2.4,0.7l-0.8-4.8
						C487.1,60.5,485.4,60.3,483.8,59.7z"/>
				</g>
				<g id="XMLID_13_">
					<path id="XMLID_18_" class="st25" d="M487.9,51l-1,2.5l-1-2.5c0.1,0,0.3,0,0.4,0h1.2C487.7,50.9,487.8,51,487.9,51z"/>
					<path id="XMLID_17_" class="st46" d="M483.9,51.3c0.8,1.3,1.8,2.3,3.1,3c1.3-0.7,2.3-1.7,3-3l-0.6,5.6l0.8,2.6
						c-1.9,0.7-4,0.7-6.2,0l0.8-2.6L483.9,51.3z"/>
					<path id="XMLID_16_" class="st41" d="M486.9,54.3l-1.5-3.4c0.2,0,0.3,0,0.5,0l0,0.1l1,2.5L486.9,54.3z"/>
					<path id="XMLID_15_" class="st38" d="M486.9,53.5l1-2.5l0-0.1c0.2,0,0.3,0,0.5,0l-1.5,3.4L486.9,53.5z"/>
					<path id="XMLID_14_" class="st47" d="M489.9,51.3c-0.7,1.2-1.7,2.2-3,3c-1.3-0.6-2.3-1.6-3.1-3c0.5-0.2,1-0.3,1.5-0.4l1.5,3.4
						l1.5-3.4C488.9,51,489.4,51.2,489.9,51.3z"/>
				</g>
				<path id="XMLID_12_" class="st26" d="M501.4,51.2c0.2,0.2,0.4,0.4,0.6,0.5c0.1-0.4,0.1-0.8,0.2-1.1c0-0.3-0.1-0.4-0.3-0.3
					C501.7,50.5,501.5,50.8,501.4,51.2z"/>
				<g id="XMLID_7_">
					<path id="XMLID_11_" class="st25" d="M498.8,52.3c0.1,0.1,0.2,0.2,0.3,0.3c0.1,0.1,0.1,0.2,0.2,0.3c-0.4-0.4-0.6-0.5-0.6-0.1
						c0,0,0,0,0.1,0.1l0.7,0.5c0.5,0.2,1,0.4,1.6,0.6c1-0.4,1.4-1,1.4-1.6c-0.1-0.6-0.3-1.3-0.7-1.9l-0.2-0.4
						c-0.2,0.1-0.3,0.2-0.3,0.4c0,0.1,0.1,0.1,0.1,0.2c0,0,0,0,0,0.1c0.1,0.2,0.1,0.4,0,0.6c0,0.1-0.1,0.1-0.3,0.1c0,0-0.1,0-0.1,0
						c-0.2,0-0.3-0.1-0.5-0.1c-0.4-0.1-0.8-0.3-1.1-0.6c-0.2-0.1-0.3-0.1-0.3,0l0,0c-0.2,0.2-0.2,0.3-0.1,0.4c0,0,0,0,0,0l0.6,0.4
						c-0.2,0-0.4-0.1-0.7-0.2c-0.2-0.2-0.3-0.1-0.2,0.3c0.1,0.1,0.2,0.3,0.3,0.4c0.1,0.1,0.2,0.3,0.3,0.4c-0.5-0.5-0.7-0.6-0.7-0.2
						C498.6,52.1,498.7,52.2,498.8,52.3z"/>
					<path id="XMLID_8_" class="st26" d="M498.6,52c0-0.4,0.3-0.3,0.7,0.2c-0.1-0.1-0.1-0.3-0.3-0.4c-0.1-0.1-0.2-0.2-0.3-0.4
						c-0.1-0.3,0-0.4,0.2-0.3c0.2,0.1,0.4,0.2,0.7,0.2l-0.6-0.4c0,0,0,0,0,0c-0.1-0.1-0.1-0.2,0.1-0.4l0,0c0.1-0.1,0.2,0,0.3,0
						c0.4,0.3,0.8,0.5,1.1,0.6c0.2,0,0.3,0.1,0.5,0.1c0,0,0.1,0,0.1,0c0.1,0,0.2,0,0.3-0.1c0.1-0.2,0.1-0.3,0-0.6c0,0,0,0,0-0.1
						c0-0.1-0.1-0.1-0.1-0.2c0-0.2,0-0.3,0.3-0.4c-0.1-0.1-0.2-0.2-0.3-0.4c0,0,0,0,0,0c0,0,0,0,0,0c-0.1-0.1-0.1-0.2-0.2-0.2
						c-0.1,0-0.1,0.1-0.1,0.1c0,0,0,0.1-0.1,0.1c-0.1,0.1-0.1,0.3,0,0.5c0,0.1,0.1,0.2,0.1,0.2c0,0,0,0.1,0,0.1
						c0.3,0.3,0.4,0.6,0.2,0.8c-0.2,0.1-0.4,0.1-0.8-0.1c-0.1,0-0.1-0.1-0.3-0.1l-0.7-0.4c0,0-0.1-0.1-0.1-0.1c-0.1,0-0.2,0-0.3,0
						l0,0c-0.1,0-0.1,0.1-0.2,0.2c-0.1,0.1-0.1,0.2,0,0.3c-0.1,0.1-0.2,0.2-0.2,0.3c0,0.1,0,0.2,0.2,0.4
						C498.5,51.6,498.5,51.8,498.6,52C498.5,52,498.5,52,498.6,52z M498.6,52.7c0-0.4,0.2-0.3,0.6,0.1c0-0.1-0.1-0.2-0.2-0.3
						c-0.1-0.1-0.2-0.2-0.3-0.3c-0.1,0-0.2,0.1-0.2,0.2C498.6,52.6,498.6,52.7,498.6,52.7z"/>
				</g>
				<path id="XMLID_6_" class="st25" d="M501.2,51.2c0.2-0.1,0.2-0.3,0.1-0.5c-0.1-0.2-0.3-0.2-0.5,0c0,0,0,0,0,0c0,0,0,0,0,0
					c-0.1,0-0.1,0-0.2,0.1c0,0,0-0.1-0.1-0.1c0,0,0,0,0,0c-0.1-0.1-0.1-0.1-0.2-0.1c-0.1,0-0.2,0-0.2,0.1c0,0,0-0.1,0-0.1
					c0,0,0,0,0,0c0-0.1,0-0.1-0.1-0.1c0,0,0,0,0,0c-0.1,0-0.1,0-0.2,0c-0.1,0-0.1,0.1-0.1,0.2c0,0.1,0,0.1,0,0.2
					c0,0,0.1,0.1,0.1,0.1c0.1,0,0.1,0,0.1,0c0,0.1,0,0.1,0.1,0.1c0.1,0,0.1,0.1,0.2,0.1c0.1,0,0.1,0,0.2,0c0,0,0,0.1,0,0.1
					c0,0.1,0.1,0.1,0.2,0.1c0.1,0,0.2,0,0.2,0c0,0,0.1,0,0.1-0.1C500.9,51.2,501,51.3,501.2,51.2z"/>
			</g>
		</g>
	</g>
</g>
</svg>
