<?xml version="1.0" encoding="utf-8"?>
<!-- Generator: Adobe Illustrator 19.0.0, SVG Export Plug-In . SVG Version: 6.00 Build 0)  -->
<svg version="1.1" id="图层_1" xmlns="http://www.w3.org/2000/svg" xmlns:xlink="http://www.w3.org/1999/xlink" x="0px" y="0px"
	 viewBox="392 71 1024 100" style="enable-background:new 392 71 1024 100;" xml:space="preserve">
<style type="text/css">
	.st0{fill:#081842;}
	.st1{fill:url(#SVGID_1_);}
	.st2{fill:url(#SVGID_2_);}
	.st3{fill:#183262;}
	.st4{fill:#0F2142;}
	.st5{fill:#726841;}
	.st6{fill:#8EBB42;}
	.st7{fill:#11264E;}
	.st8{fill:#0B1B33;}
	.st9{fill:#FFFFFF;}
	.st10{fill:#152E5B;}
	.st11{fill:#E17638;}
	.st12{fill:#EB9D3F;}
	.st13{fill:#5FAADB;}
	.st14{fill:#459A57;}
	.st15{fill:#7D848B;}
	.st16{fill:#802A7C;}
	.st17{fill:#DA423E;}
	.st18{fill:#FCB5A0;}
	.st19{fill:#F98E75;}
	.st20{fill:#E9DFDF;}
	.st21{fill:#351504;}
	.st22{fill:#1C1313;}
	.st23{fill:#432A2A;}
	.st24{fill:#4F2006;}
	.st25{fill:#5F2324;}
	.st26{fill:#BD4A4D;}
	.st27{fill:#F08F31;}
	.st28{fill:#51261B;}
	.st29{fill:#853825;}
	.st30{fill:#A66C35;}
	.st31{fill:#C7690E;}
	.st32{fill:#ECAC99;}
	.st33{fill:#E2846E;}
	.st34{fill:#E9E9E9;}
	.st35{fill:#744F2F;}
	.st36{fill:#D6D3D7;}
	.st37{fill:#BBAB9D;}
	.st38{fill:#0B658C;}
	.st39{fill:#CDCDCD;}
	.st40{fill:#37A6D7;}
	.st41{fill:#208CBB;}
	.st42{fill:#8DD2F0;}
	.st43{fill:#1B9ED7;}
	.st44{fill:#835934;}
	.st45{fill:#E6DFE7;}
	.st46{fill:#CBB8A8;}
	.st47{fill:#E2E2E2;}
	.st48{fill:url(#SVGID_3_);}
	.st49{fill:#FFCC01;}
	.st50{fill:#FFFF00;}
	.st51{fill:#509C60;}
	.st52{fill:#377945;}
	.st53{fill:#69B479;}
	.st54{fill:#276434;}
	.st55{fill:#5EA86E;}
	.st56{fill:#252224;}
	.st57{fill:#FFFDD4;}
	.st58{fill:#C8C395;}
	.st59{fill:#295432;}
	.st60{fill:#F6DBF3;}
	.st61{fill:url(#SVGID_4_);}
	.st62{fill:url(#SVGID_5_);}
	.st63{fill:url(#SVGID_6_);}
	.st64{fill:#F5C4F6;}
	.st65{fill:#F099F0;}
	.st66{fill:#DC6DD4;}
	.st67{fill:#F7CFFA;}
	.st68{fill:#F4BAF4;}
	.st69{fill:url(#SVGID_7_);}
</style>
<rect id="XMLID_1_" x="392" y="71" class="st0" width="1024" height="100"/>
<g>
	
		<linearGradient id="SVGID_1_" gradientUnits="userSpaceOnUse" x1="793.5375" y1="1110.569" x2="812.2554" y2="1110.569" gradientTransform="matrix(1.000000e-04 -1 -1 1.000000e-03 1681.2397 914.4946)">
		<stop  offset="0" style="stop-color:#183262"/>
		<stop  offset="4.705880e-02" style="stop-color:#323C56"/>
		<stop  offset="0.1059" style="stop-color:#4E464A"/>
		<stop  offset="0.1725" style="stop-color:#675041"/>
		<stop  offset="0.2471" style="stop-color:#7B573A"/>
		<stop  offset="0.3333" style="stop-color:#8B5D36"/>
		<stop  offset="0.4392" style="stop-color:#966233"/>
		<stop  offset="0.5922" style="stop-color:#9C6432"/>
		<stop  offset="1" style="stop-color:#9E6532"/>
	</linearGradient>
	<path class="st1" d="M588.7,122l-35.9-0.5c1.1-1.5,2.2-3,3.4-4.6c2.5-3.3,4.7-6,6.7-8.2c3.4-3.6,6.1-5.5,8.1-5.5
		c2.6,0,6.3,3.1,11.2,9.4C584.6,115.8,586.8,119,588.7,122z"/>
	
		<linearGradient id="SVGID_2_" gradientUnits="userSpaceOnUse" x1="793.9057" y1="1136.712" x2="820.581" y2="1136.712" gradientTransform="matrix(0 -1 -1 1.000000e-03 1680.7122 914.4946)">
		<stop  offset="0" style="stop-color:#183262"/>
		<stop  offset="3.921570e-03" style="stop-color:#193262"/>
		<stop  offset="5.490200e-02" style="stop-color:#384053"/>
		<stop  offset="0.1137" style="stop-color:#544C48"/>
		<stop  offset="0.1804" style="stop-color:#6D573F"/>
		<stop  offset="0.251" style="stop-color:#826039"/>
		<stop  offset="0.3373" style="stop-color:#916735"/>
		<stop  offset="0.4471" style="stop-color:#9C6C33"/>
		<stop  offset="0.5922" style="stop-color:#A36E32"/>
		<stop  offset="1" style="stop-color:#A46F32"/>
	</linearGradient>
	<path class="st2" d="M544.4,95c3.7,0,9,4.5,15.9,13.4c3.5,4.5,6.6,8.9,9.3,13.3l-51.2-0.7c1.5-2.1,3.2-4.3,4.9-6.7
		c3.5-4.8,6.7-8.6,9.5-11.6C537.7,97.6,541.5,95,544.4,95z"/>
	<path class="st3" d="M1304.5,118.4c39.8,0.7,77,1.7,111.5,2.9V157l-258.3,7L392,157.3v-38.6c109.4,1.7,222.8,3.1,340.3,4.1
		c235,1.9,372.6,1,413-2.8C1171.8,117.5,1224.9,117,1304.5,118.4z"/>
	<g>
		<path class="st4" d="M471.1,141.8c0,1.6-1.9,3-5.7,4.2c-3.8,1.2-8.4,1.8-13.7,1.8s-9.9-0.6-13.7-1.8c-3.8-1.1-5.7-2.5-5.7-4.2
			c0-1.6,1.9-3,5.7-4.2c3.8-1.2,8.3-1.8,13.7-1.8c5.4,0,9.9,0.6,13.7,1.8S471.1,140.2,471.1,141.8z"/>
		<g>
			<g>
				<path class="st5" d="M446,129c0.4,0.3,0.5,0.8,0.5,1.2v8c0,0.5-0.2,0.9-0.5,1.3c-0.4,0.3-0.8,0.5-1.3,0.5s-0.9-0.2-1.2-0.5
					c-0.4-0.4-0.6-0.8-0.6-1.3v-8c0-0.5,0.2-0.9,0.6-1.2c0.3-0.4,0.8-0.5,1.2-0.5S445.6,128.6,446,129z"/>
				<path class="st6" d="M452.8,125c0,2.3-0.8,4-2.3,5.2c-1.4,1.1-3.3,1.6-5.7,1.6c-2.4,0-4.2-0.5-5.6-1.6c-1.6-1.2-2.4-2.9-2.4-5.2
					c0-2.8,0.8-5.7,2.4-8.9c1.7-3.5,3.6-5.2,5.6-5.2s3.9,1.8,5.7,5.2C452,119.2,452.8,122.2,452.8,125z"/>
			</g>
			<g>
				<path class="st5" d="M457,141.8c0,0.3-0.1,0.5-0.3,0.7c-0.2,0.2-0.5,0.3-0.8,0.3s-0.5-0.1-0.7-0.3s-0.3-0.4-0.3-0.7v-4.4
					c0-0.3,0.1-0.5,0.3-0.7c0.2-0.2,0.4-0.3,0.7-0.3c0.3,0,0.5,0.1,0.8,0.3c0.2,0.2,0.3,0.4,0.3,0.7V141.8z"/>
				<path class="st6" d="M460.5,134.5c0,1.3-0.4,2.2-1.3,2.9c-0.8,0.6-1.8,0.9-3.2,0.9c-1.3,0-2.3-0.3-3.1-0.9
					c-0.9-0.6-1.3-1.6-1.3-2.9c0-1.5,0.4-3.2,1.3-5c0.9-1.9,2-2.9,3.1-2.9s2.2,1,3.2,2.9C460.1,131.3,460.5,132.9,460.5,134.5z"/>
			</g>
		</g>
	</g>
	<path class="st7" d="M524.3,143.2c0-1.9,4.5-3.6,13.6-4.9c9.1-1.4,20-2,32.9-2s23.8,0.7,32.9,2s13.6,3,13.6,4.9s-4.5,3.5-13.6,4.9
		c-9.1,1.3-20.1,2-32.9,2s-23.8-0.7-32.9-2C528.8,146.7,524.3,145.1,524.3,143.2z"/>
	<path class="st7" d="M1058.7,160.8c0,1.1-0.8,2-2.3,2.8c-1.6,0.7-3.5,1.1-5.7,1.1s-4-0.4-5.6-1.1c-1.5-0.8-2.3-1.7-2.3-2.8
		s0.8-2,2.3-2.8c1.6-0.8,3.4-1.1,5.6-1.1s4.1,0.4,5.7,1.1C1058,158.8,1058.7,159.7,1058.7,160.8z"/>
	<path class="st4" d="M1347.3,151.3c39.1-3,62-5.5,68.7-7.4v23.9H392V153c40.7-3.2,88.7-5.6,144.2-7.3
		c110.9-3.4,203.4-1.6,277.5,5.6c107.7,10.5,236.4,13.2,386.1,8C1253.3,157.4,1302.4,154.8,1347.3,151.3z"/>
	<path class="st8" d="M693,161c0,0.6-0.6,1.2-1.9,1.6c-1.3,0.4-2.8,0.6-4.6,0.6c-1.8,0-3.3-0.2-4.6-0.6c-1.3-0.4-1.9-1-1.9-1.6
		s0.6-1.2,1.9-1.6c1.3-0.4,2.8-0.7,4.6-0.7c1.8,0,3.3,0.2,4.6,0.7C692.4,159.9,693,160.4,693,161z"/>
	<path class="st9" d="M1349.5,109.7c0,1.3-0.6,2.4-1.8,3.3c-1.2,0.9-2.6,1.3-4.3,1.3c-1.7,0-3.1-0.4-4.3-1.3c-1.2-0.9-1.8-2-1.8-3.3
		s0.6-2.4,1.8-3.3c1.2-0.9,2.6-1.4,4.3-1.4c1.7,0,3.1,0.5,4.3,1.4C1348.9,107.2,1349.5,108.3,1349.5,109.7z"/>
	<path class="st9" d="M1353.5,105.6c0,1.3-0.6,2.4-1.8,3.4c-1.2,0.9-2.6,1.3-4.3,1.3c-1.7,0-3.1-0.5-4.3-1.3c-1.2-0.9-1.8-2-1.8-3.4
		c0-1.3,0.6-2.4,1.8-3.3c1.2-0.9,2.6-1.4,4.3-1.4c1.7,0,3.1,0.5,4.3,1.4C1353,103.2,1353.5,104.3,1353.5,105.6z"/>
	<path class="st9" d="M1354.5,111.7c0,1.3-0.6,2.4-1.8,3.3c-1.2,0.9-2.6,1.3-4.3,1.3c-1.7,0-3.1-0.4-4.3-1.3c-1.2-0.9-1.8-2-1.8-3.3
		s0.6-2.4,1.8-3.3c1.2-0.9,2.6-1.4,4.3-1.4c1.7,0,3.1,0.5,4.3,1.4C1354,109.2,1354.5,110.3,1354.5,111.7z"/>
	<path class="st9" d="M1360,108c0,1.3-0.6,2.4-1.8,3.3c-1.2,0.9-2.6,1.4-4.3,1.4c-1.7,0-3.1-0.5-4.3-1.4c-1.2-0.9-1.8-2-1.8-3.3
		s0.6-2.4,1.8-3.3c1.2-0.9,2.6-1.4,4.3-1.4c1.7,0,3.1,0.5,4.3,1.4C1359.4,105.5,1360,106.7,1360,108z"/>
	<path class="st9" d="M1363.3,111.3c0,1.3-0.6,2.4-1.8,3.4c-1.2,0.9-2.6,1.3-4.3,1.3c-1.7,0-3.1-0.5-4.3-1.3c-1.2-0.9-1.8-2-1.8-3.4
		c0-1.3,0.6-2.4,1.8-3.3c1.2-0.9,2.6-1.4,4.3-1.4c1.7,0,3.1,0.5,4.3,1.4S1363.3,110,1363.3,111.3z"/>
	<path class="st9" d="M1318,120.8c0,1-0.4,1.8-1.3,2.5s-2,1-3.2,1s-2.3-0.3-3.2-1c-0.9-0.7-1.3-1.5-1.3-2.5s0.5-1.8,1.3-2.5
		c0.9-0.7,1.9-1,3.2-1c1.3,0,2.3,0.3,3.2,1C1317.5,119,1318,119.8,1318,120.8z"/>
	<path class="st9" d="M1321,117.8c0,1-0.4,1.8-1.3,2.5s-2,1-3.2,1s-2.3-0.3-3.2-1c-0.9-0.7-1.3-1.5-1.3-2.5s0.5-1.8,1.3-2.5
		c0.9-0.7,1.9-1,3.2-1c1.3,0,2.3,0.3,3.2,1C1320.5,116,1321,116.8,1321,117.8z"/>
	<path class="st9" d="M1321.7,122.2c0,1-0.4,1.8-1.3,2.5s-2,1-3.2,1s-2.3-0.3-3.2-1c-0.9-0.7-1.3-1.5-1.3-2.5s0.5-1.8,1.3-2.5
		c0.9-0.7,1.9-1,3.2-1c1.3,0,2.3,0.3,3.2,1C1321.3,120.5,1321.7,121.3,1321.7,122.2z"/>
	<path class="st9" d="M1325.7,119.5c0,1-0.4,1.8-1.3,2.5s-2,1-3.2,1s-2.3-0.3-3.2-1c-0.9-0.7-1.3-1.5-1.3-2.5s0.5-1.8,1.3-2.5
		c0.9-0.7,1.9-1,3.2-1c1.3,0,2.3,0.3,3.2,1C1325.3,117.7,1325.7,118.5,1325.7,119.5z"/>
	<path class="st9" d="M1328.2,122c0,1-0.4,1.8-1.3,2.5s-2,1-3.2,1s-2.3-0.3-3.2-1c-0.9-0.7-1.3-1.5-1.3-2.5s0.5-1.8,1.3-2.5
		c0.9-0.7,1.9-1,3.2-1c1.3,0,2.3,0.3,3.2,1C1327.8,120.2,1328.2,121,1328.2,122z"/>
	<path class="st9" d="M613,112c0,1-0.4,1.8-1.3,2.5s-2,1-3.2,1c-1.2,0-2.3-0.3-3.2-1S604,113,604,112s0.4-1.8,1.3-2.5
		c0.9-0.7,2-1,3.2-1c1.3,0,2.3,0.3,3.2,1S613,111,613,112z"/>
	<path class="st9" d="M616,109c0,1-0.4,1.8-1.3,2.5s-2,1-3.2,1c-1.2,0-2.3-0.3-3.2-1S607,110,607,109s0.4-1.8,1.3-2.5
		c0.9-0.7,2-1,3.2-1c1.3,0,2.3,0.3,3.2,1S616,108,616,109z"/>
	<path class="st9" d="M616.8,113.5c0,1-0.4,1.8-1.3,2.5c-0.9,0.7-2,1-3.2,1c-1.2,0-2.3-0.3-3.2-1s-1.3-1.5-1.3-2.5s0.4-1.8,1.3-2.5
		s2-1,3.2-1c1.3,0,2.3,0.3,3.2,1C616.3,111.7,616.8,112.5,616.8,113.5z"/>
	<path class="st9" d="M620.8,110.8c0,1-0.4,1.8-1.3,2.5c-0.9,0.7-2,1-3.2,1c-1.2,0-2.3-0.3-3.2-1s-1.3-1.5-1.3-2.5s0.4-1.8,1.3-2.5
		s2-1,3.2-1c1.3,0,2.3,0.3,3.2,1C620.3,109,620.8,109.8,620.8,110.8z"/>
	<path class="st9" d="M623.3,113.2c0,1-0.4,1.8-1.3,2.5c-0.9,0.7-2,1-3.2,1c-1.2,0-2.3-0.3-3.2-1s-1.3-1.5-1.3-2.5s0.4-1.8,1.3-2.5
		s2-1,3.2-1c1.3,0,2.3,0.3,3.2,1C622.8,111.5,623.3,112.3,623.3,113.2z"/>
	<path class="st4" d="M1302.4,131.9c0,0.6-0.6,1.2-1.9,1.6c-1.3,0.4-2.8,0.7-4.6,0.7c-1.8,0-3.3-0.2-4.6-0.7s-1.9-1-1.9-1.6
		s0.6-1.1,1.9-1.6s2.8-0.7,4.6-0.7c1.8,0,3.3,0.2,4.6,0.7C1301.8,130.8,1302.4,131.3,1302.4,131.9z"/>
	<g>
		<path class="st5" d="M1297.4,123.7v6.7c0,0.4-0.2,0.8-0.5,1c-0.3,0.3-0.6,0.5-1,0.5s-0.8-0.2-1.1-0.5c-0.3-0.3-0.5-0.6-0.5-1v-6.7
			c0-0.4,0.2-0.8,0.5-1c0.3-0.3,0.7-0.5,1.1-0.5s0.8,0.1,1,0.5C1297.2,122.9,1297.4,123.3,1297.4,123.7z"/>
		<path class="st6" d="M1302.7,119.2c0,1.9-0.7,3.4-2,4.4c-1.2,0.9-2.7,1.3-4.7,1.3s-3.6-0.4-4.8-1.3c-1.3-1-2-2.5-2-4.4
			c0-2.3,0.7-4.8,2-7.5c1.5-2.9,3-4.4,4.8-4.4s3.3,1.5,4.7,4.4C1302,114.5,1302.7,117,1302.7,119.2z"/>
	</g>
	<path class="st10" d="M1252,126c0,1.2-1.4,2.3-4.1,3.2c-2.8,0.9-6.1,1.3-10,1.3s-7.2-0.4-10-1.3c-2.8-0.9-4.1-2-4.1-3.2
		c0-1.3,1.4-2.3,4.1-3.2c2.7-0.9,6-1.3,10-1.3c3.9,0,7.2,0.5,10,1.3C1250.7,123.7,1252,124.8,1252,126z"/>
	<path class="st7" d="M715.3,125.2c2.9,0,5.4,0.3,7.5,1s3.1,1.5,3.1,2.4s-1,1.7-3.1,2.4s-4.5,1-7.5,1s-5.4-0.3-7.5-1
		s-3.1-1.5-3.1-2.4c0-0.9,1-1.7,3.1-2.4C709.9,125.5,712.3,125.2,715.3,125.2z"/>
	<g>
		<path class="st11" d="M1132.5,109.8c-0.2-0.3-0.1-0.6,0.2-0.8l6-2c0.3-0.1,0.5,0,0.6,0.3l3,6.6c0.1,0.1,0.1,0.3,0,0.4
			c-0.1,0.2-0.2,0.3-0.4,0.3l-6.4,1.1c-0.2,0-0.4-0.1-0.5-0.2L1132.5,109.8z"/>
		<path class="st12" d="M1128.3,77.3c0.2-0.2,0.4-0.1,0.5,0.2l3.1,6.7l-4.2,1.5c-0.3,0.1-0.4,0.2-0.2,0.5l2,4.5l-6.4,3l-2.6-5.5
			c-0.1-0.3-0.3-0.3-0.6-0.2l-1.1,0.6l-1.9-4c-0.1-0.2-0.1-0.4,0.2-0.6L1128.3,77.3z"/>
		<path class="st13" d="M1137.8,82.1c0.3-0.1,0.5,0,0.7,0.3l4.5,9.8c0.1,0.3,0.1,0.5-0.2,0.6l-3.9,2.4l-1-2.2
			c-0.1-0.2-0.3-0.3-0.6-0.2l-5.5,2.5l-2.2-4.6l4-1.9c0.3-0.1,0.3-0.3,0.2-0.6l-1.8-4L1137.8,82.1z"/>
		<path class="st14" d="M1131.9,84.2l1.8,4c0.1,0.3,0,0.5-0.2,0.6l-4,1.9l-2-4.5c-0.1-0.3,0-0.5,0.2-0.5L1131.9,84.2z"/>
		<path class="st15" d="M1141.5,100.9c0.1,0.3,0.1,0.5-0.2,0.7l-7.3,5.4c-0.2,0.2-0.4,0.1-0.6-0.2l-4.4-9.7c-0.1-0.3,0-0.5,0.2-0.6
			l2.5-1.1l1.2,2.8c0.2,0.3,0.4,0.4,0.6,0.2l5.2-3.1L1141.5,100.9z"/>
		<path class="st16" d="M1137.2,92.8c0.3-0.1,0.5,0,0.6,0.2l1,2.2l-5.3,3.1c-0.2,0.1-0.4,0-0.6-0.2l-1.2-2.8L1137.2,92.8z"/>
		<path class="st17" d="M1113,92.2c-0.1-0.3,0-0.5,0.2-0.7l6.8-3.5c0.3-0.1,0.5-0.1,0.6,0.2l4.9,10.7c0.1,0.3,0,0.4-0.3,0.5
			l-7.4,2.3c-0.3,0.1-0.5,0-0.7-0.3L1113,92.2z"/>
	</g>
	<g>
		<path class="st4" d="M828.7,141c0,0.7-1.8,1.3-5.5,1.8c-3.6,0.5-8,0.7-13.2,0.7c-5.2,0-9.6-0.2-13.3-0.7c-3.6-0.5-5.4-1.1-5.4-1.8
			s1.8-1.3,5.4-1.8s8-0.7,13.3-0.7c5.2,0,9.5,0.2,13.2,0.7C826.8,139.7,828.7,140.3,828.7,141z"/>
		<g>
			<g>
				<g>
					<path class="st18" d="M814.1,108.7l-0.7,2.4c0.4,1,1.3,1.5,2.9,1.6c0-0.3,0.1-0.6,0.2-1c0.1-0.2,0.1-0.4,0.2-0.5
						c-0.6-0.2-1.1-0.5-1.5-0.9c-0.1-0.1-0.1-0.1-0.2-0.2C814.7,109.7,814.4,109.2,814.1,108.7z"/>
					<path class="st19" d="M814.1,108.7c0.3,0.5,0.6,0.9,1,1.3c0.1,0.1,0.1,0.1,0.2,0.2c0.4,0.4,0.9,0.7,1.5,0.9
						c0.3-0.5,0.7-1.1,1.2-1.8c0-0.4-0.1-0.8-0.2-1.1c-0.4-1.4-1.3-2.4-2.7-2.9L814.1,108.7z"/>
				</g>
				<g>
					<g>
						<path class="st18" d="M824.2,90.1l1.2,2.9l0.8,3.6c0-0.2,0.1-0.3,0.1-0.5c-0.2-2.2-0.8-4.3-1.8-6.2
							C824.4,90,824.3,90.1,824.2,90.1z M813.6,97.6l0.1,4.7c0.3,0.4,0.6,0.9,0.8,1.3c0.1,0.2,0.3,0.4,0.4,0.6c0,1.8,0.3,3.4,1,4.7
							c0.4,0.8,1,1.5,1.7,2.2c0.1,0.1,0.2,0.2,0.4,0.2c0.7,0.4,1.4,0.8,1.9,1l0.1,0.1c0.1,0,0.1,0,0.2,0.1c0.6,0.2,1.1,0.4,1.5,0.5
							c0.9,0.1,1.7-0.6,2.6-2c0.4-0.7,0.8-1.4,1.1-2c0.1-0.3,0.3-0.6,0.4-0.9c0.1-0.2,0.2-0.4,0.2-0.7c0.1-0.2,0.1-0.5,0.2-0.7
							l0.5-2c-0.3,0-0.5-0.2-0.7-0.4l1.7-0.9c-0.5-0.4-1-0.7-1.3-1.2c0,0-0.1-0.1-0.1-0.2c-0.1-0.1-0.1-0.2-0.2-0.3
							c-0.1-0.1-0.1-0.2-0.2-0.4c-0.2-0.5-0.3-1.1-0.2-2c0-0.2,0-0.5,0.1-0.7l-0.7-3.6l-0.4-0.6v2.4c-1.3-0.7-2.4-1.6-3.2-3
							c-0.6,0.1-1.1,0.3-1.7,0.5C817.5,95.2,815.5,96.2,813.6,97.6L813.6,97.6z"/>
						<path class="st19" d="M826.1,96.6l-0.8-3.6l-1.2-2.9c-4,1.2-7.5,3.4-10.7,6.5v1c0,0,0.1,0,0.1-0.1c1.8-1.3,3.8-2.3,6-3.1
							c0.5-0.2,1.1-0.4,1.7-0.5c0.9,1.3,1.9,2.3,3.2,3v-2.4l0.4,0.6l0.7,3.6c0.1-0.6,0.2-1.2,0.4-1.8
							C826.1,96.8,826.1,96.7,826.1,96.6z M827.7,103.3l-1.7,0.9c0.1,0.3,0.3,0.4,0.7,0.4C827,104.3,827.4,103.9,827.7,103.3z
							 M813.7,102.3l0.1,2.2c0.1,1,0.4,2,0.8,2.8c0.2,0.5,0.5,1.1,0.8,1.5c0.6,0.8,1.3,1.6,2.2,2.2c-0.7-0.6-1.2-1.3-1.7-2.2
							c-0.7-1.3-1-2.8-1-4.7c-0.1-0.2-0.2-0.4-0.4-0.6C814.2,103.2,814,102.7,813.7,102.3z"/>
					</g>
					<g>
						<g>
							<path class="st9" d="M821.3,99.4c1.3-0.1,2.5,0.1,3.5,0.6c0,0.5,0,1-0.1,1.5c0,0.5-0.1,0.9-0.2,1.4c-0.7-0.1-1.3-0.4-2-0.8
								c-0.2-0.2-0.5-0.4-0.7-0.6c-0.1-0.1-0.2-0.2-0.2-0.2l0,0c-0.2-0.3-0.3-0.8-0.3-1.3C821.4,99.7,821.3,99.5,821.3,99.4z"/>
							<path class="st20" d="M824.8,100c-1-0.4-2.2-0.6-3.5-0.6c0-0.3,0-0.6,0-0.9l0,0c1.1-0.3,2.3-0.3,3.5-0.2c0,0.2,0,0.5,0,0.7
								c0,0.3,0,0.5,0,0.8C824.8,99.9,824.8,99.9,824.8,100z"/>
							<path class="st21" d="M824.8,98.3c-1.2-0.1-2.4-0.1-3.5,0.2l0,0c0,0.3,0,0.6,0,0.9c0,0.2,0,0.3,0,0.5c0.1,0.5,0.2,1,0.3,1.3
								c-0.3-0.4-0.5-0.8-0.7-1.3c-0.1-0.5-0.2-1.1-0.2-1.8c1.4-0.4,2.7-0.5,4-0.3L824.8,98.3z"/>
						</g>
						<g>
							<path class="st22" d="M824.3,99c0-0.1,0.1-0.2,0.1-0.2c0.1,0,0.1,0,0.2,0.1c0.1,0.1,0.1,0.2,0.1,0.3c0,0.1,0,0.3,0,0.4
								s-0.1,0.2-0.1,0.2c-0.1,0-0.1,0-0.2-0.1c-0.1-0.1-0.1-0.2-0.2-0.3C824.2,99.2,824.2,99.1,824.3,99z M824.3,98.5
								c-0.2,0-0.3,0.2-0.4,0.5c-0.1,0.4-0.2,0.8-0.2,1.4c0,0.5,0.1,1,0.2,1.4s0.2,0.6,0.4,0.6c0.2,0,0.3-0.2,0.4-0.6
								s0.2-0.8,0.2-1.4c0-0.5,0-1-0.1-1.4C824.6,98.7,824.5,98.5,824.3,98.5z M824.3,100.8c0.1,0.1,0.2,0.2,0.2,0.4
								c0,0.2,0.1,0.3,0,0.5c0,0.1-0.1,0.2-0.2,0.2c-0.1,0-0.2,0-0.3-0.1s-0.2-0.2-0.2-0.4c0-0.2,0-0.3,0-0.5c0-0.1,0.1-0.2,0.2-0.2
								C824.1,100.7,824.2,100.7,824.3,100.8z"/>
							<path class="st23" d="M824.3,100.8c-0.1-0.1-0.2-0.1-0.3-0.1s-0.1,0.1-0.2,0.2c0,0.1,0,0.3,0,0.5c0.1,0.2,0.1,0.3,0.2,0.4
								c0.1,0.1,0.2,0.2,0.3,0.1c0.1,0,0.2-0.1,0.2-0.2s0-0.3,0-0.5C824.4,101,824.4,100.9,824.3,100.8z"/>
							<path class="st9" d="M824.3,99c0,0.1,0,0.2,0,0.4c0,0.1,0.1,0.2,0.2,0.3c0.1,0.1,0.1,0.1,0.2,0.1s0.1-0.1,0.1-0.2
								s0-0.2,0-0.4c0-0.1-0.1-0.3-0.1-0.3c-0.1-0.1-0.1-0.1-0.2-0.1C824.3,98.8,824.3,98.9,824.3,99z"/>
						</g>
						<path class="st24" d="M824.2,96.7L824.2,96.7c-0.1-0.1-0.1-0.1-0.2-0.1c-0.1-0.1-0.2-0.2-0.4-0.3c0,0,0,0,0-0.1
							c-0.7-0.4-1.4-0.8-2.3-1.1c-0.1,0-0.2-0.1-0.2-0.1c-0.1,0-0.2-0.1-0.3-0.1l-0.1,0.1c-0.5,0.5-0.8,1.1-1.2,1.8
							c0.2,0,0.4,0.1,0.6,0.2c1,0.2,2.1,0.6,3,1c0.2,0.1,0.4,0.2,0.6,0.3c0.3,0.2,0.7,0.4,1.1,0.6l0,0l0.9-1
							c-0.1-0.1-0.1-0.1-0.2-0.2c-0.1-0.1-0.2-0.2-0.3-0.3C824.9,97.2,824.6,96.9,824.2,96.7z"/>
						<g>
							<path class="st9" d="M825.9,106.8l-0.2,0.8c-0.8,0-1.7-0.4-2.8-1.1l0,0c0.3-0.5,0.7-0.8,0.9-0.8c0.1,0,0.2,0,0.2,0l0,0
								C824.7,106.2,825.3,106.7,825.9,106.8z M821.7,109.5c0.9,0.4,1.6,0.6,2.1,0.6c0.1,0,0.1,0,0.2,0h0.1c0.1,0,0.3,0,0.4-0.1
								l-0.4,0.7c-0.6,0.2-1.3,0.3-2,0.2c-0.3,0-0.5-0.2-0.5-0.5c0-0.1,0-0.1,0-0.2C821.7,110,821.7,109.7,821.7,109.5z"/>
							<path class="st25" d="M822.9,106.4c1.1,0.8,2,1.1,2.8,1.1l0.2-0.8c0.1,0,0.1,0,0.2,0c-0.4,1.4-0.9,2.7-1.7,3.8
								c-0.1,0-0.2,0.1-0.2,0.1l0.4-0.7c0,0,0-0.1-0.1-0.2c-0.5-0.9-1.2-1.6-2.2-2.1l0,0C822.4,107.3,822.6,106.9,822.9,106.4z"/>
							<path class="st26" d="M822.2,107.7L822.2,107.7c1,0.5,1.8,1.2,2.3,2.2c0.1,0.1,0.1,0.1,0.1,0.2c-0.1,0-0.3,0.1-0.4,0.1h-0.1
								c-0.1,0-0.1,0-0.2,0c-0.6,0-1.3-0.2-2.1-0.6C821.8,108.9,822,108.3,822.2,107.7z"/>
						</g>
					</g>
					<g>
						<g>
							<g>
								<path class="st27" d="M809,108.2c-0.6-0.2-1.1-0.6-1.4-1l0,0c0-0.1-0.1-0.2-0.1-0.2l-0.1-0.6c0.4,0.3,0.9,0.5,1.3,0.9l1.5,1
									l-1,0.1L809,108.2C809.1,108.3,809,108.3,809,108.2z"/>
								<path class="st28" d="M809,108.2c-0.3,1.1-0.6,2-1,2.8c-1,1-2.7,1.8-5.2,2.5c0-0.1,0-0.1,0-0.2l0,0c3-0.7,4.5-2.7,4.6-6
									c0.1,0,0.1,0,0.2,0C807.9,107.7,808.4,108,809,108.2z"/>
								<path class="st29" d="M802.8,113.2c0.2-1.4,0.8-2.8,1.7-4.3c0.9-0.8,1.8-1.4,2.9-1.7C807.4,110.6,805.8,112.6,802.8,113.2z"
									/>
							</g>
						</g>
						<g>
							<g>
								<path class="st29" d="M798.5,90.7c-0.8-2.1-1.3-4.7-1.5-7.8l0,0v-0.1v0.1l3.7,3.6l0,0l0,0c-1.1-3.8-1.4-7.7-1-11.8l0,0v-0.1
									l0,0v0.1c6.6,0.9,12.3,3.6,17,8c-0.3-1.9-1.1-3.9-2.3-5.9c3.5,2,6.5,4.7,9,8.3c0.1-1.1-0.3-2.5-1.1-4.2
									c1.5,1.8,2.5,3.7,3,5.9c-0.2-0.1-0.4-0.3-0.6-0.4c-0.6,0.5-1.1,1.1-1.4,1.8c-1.5,0.5-3.5,1.4-5.8,2.7h-0.1h-0.1
									c-1.1-0.4-2.3-1.3-3.5-2.8c0.4,1.4,1,2.6,1.9,3.7l-2.5,1.7c-0.7-0.3-1.3-0.8-1.8-1.6c0.3,1.1,0.6,1.9,1,2.3l-0.8,1.4
									l0.5-0.2c-2.2,2-4.1,4.4-5.8,7.2l0,0c-3.8-0.6-6.7-2.2-8.6-4.8l3.4,1.6h0.1c-1.2-1-2.3-2.4-3.2-4.1
									c-0.1-0.1-0.1-0.3-0.2-0.4l0,0c-0.9-1.8-1.5-4.1-1.9-6.7l0,0l0,0l0,0h0.1L798.5,90.7z M820.2,93.8l-2.9,4.2l-0.2,4l-2.6-4.5
									c0.7-0.7,1.5-1.3,2.4-1.8C817.9,95,819,94.4,820.2,93.8z M826.1,88c0.1,1.2,0.2,2.3,0.2,3.5c-0.3,0.1-0.6,0.1-0.9,0.2
									l-1-2.4c-0.5,0.1-1,0.2-1.5,0.3L826.1,88z M797.7,97.2L797.7,97.2L797.7,97.2L797.7,97.2z M822.4,80.8
									c-0.1-0.1-0.3-0.3-0.4-0.5C822.2,80.5,822.3,80.6,822.4,80.8L822.4,80.8z"/>
								<path class="st30" d="M823.5,85c-2.5-3.6-5.5-6.3-9-8.3c3.7,1.6,6.4,3.7,8.2,6.4l0,0l0,0L823.5,85z M815.2,80.2L815.2,80.2
									l1.6,2.4c-4.7-4.4-10.4-7.1-17-8v-0.1C807.8,75.5,812.9,77.4,815.2,80.2z M822.5,80.8c1.8,1.7,3,3.7,3.5,6
									c0,0.2,0,0.5,0,0.7c0-0.2-0.2-0.5-0.6-0.8C825,84.5,823.9,82.6,822.5,80.8L822.5,80.8z M797.1,82.9l2.6,1.8l0,0l1.1,1.8l0,0
									l0,0L797.1,82.9z M798.5,90.7l-2.4-2.6l1.4,1.2l0,0L798.5,90.7z M797.7,97.2l2.3,1.2l1.3,0.9l-3.4-1.6l0,0
									C797.8,97.6,797.8,97.4,797.7,97.2z"/>
								<path class="st28" d="M799.8,74.7c-0.4,4.1,0,8.1,1,11.8l-1.1-1.8l0,0l0,0c-0.4-2.2-0.5-4.4-0.4-6.8
									C799.5,77,799.6,75.9,799.8,74.7L799.8,74.7z M797.1,82.9c0.1,3.1,0.6,5.6,1.5,7.8l-1-1.4l0,0
									C796.7,87.4,796.5,85.2,797.1,82.9L797.1,82.9z M801.3,99.3l-1.3-0.9l-0.1-0.1c-0.9-0.8-1.8-1.8-2.7-2.9
									c0-0.1-0.1-0.2-0.1-0.2c-0.7-1.9-1.1-4.3-1.2-7.1l0,0c0.4,2.6,1,4.9,1.9,6.7l0,0c0.1,0.1,0.1,0.3,0.2,0.4
									C799.1,96.9,800.2,98.3,801.3,99.3L801.3,99.3z M797.7,97.2c0.1,0.2,0.2,0.4,0.3,0.5l0,0c2,2.6,4.8,4.2,8.6,4.8l0,0
									c1.7-2.9,3.6-5.3,5.8-7.2l-0.5,0.2l0.8-1.4c-0.4-0.4-0.8-1.2-1-2.3c0.5,0.8,1.1,1.3,1.8,1.6l2.5-1.7
									c-0.9-1.1-1.6-2.3-1.9-3.7c1.2,1.4,2.4,2.3,3.5,2.8h0.1h0.1c2.3-1.3,4.3-2.2,5.8-2.7c0.3-0.7,0.8-1.3,1.4-1.8
									c0.2,0.1,0.4,0.3,0.6,0.4c0.4,0.3,0.6,0.5,0.6,0.8c0,0.2,0,0.3,0,0.5l-3,1.6c0.5-0.1,1-0.2,1.5-0.3l1,2.4
									c-2.3,0.6-4,1.3-5.2,2.2c-1.2,0.6-2.3,1.2-3.4,1.9c-0.9,0.6-1.7,1.2-2.4,1.8c0.8,4.6,0.6,8.8-0.7,12.5l-0.7-0.2
									c-8.3-2.9-13.4-6.9-15.2-12l0,0l0,0C797.7,97.5,797.7,97.4,797.7,97.2L797.7,97.2z M815.2,80.2l-0.8-3.5h0.1
									c1.2,2,2,4,2.3,5.9L815.2,80.2L815.2,80.2z M823.5,85l-0.8-1.8l0,0l-0.8-2.9l0.1,0.1c0.1,0.2,0.3,0.3,0.4,0.5
									C823.3,82.5,823.7,84,823.5,85z"/>
							</g>
						</g>
					</g>
					<g>
						<g>
							<path class="st27" d="M805.3,105.7c3.5-6.7,8.6-11.2,15.5-13.5c0.1-1.2,0.4-2.2,0.9-3c-2.2,0.8-3.9,1.5-5,2.1
								c-1.2,0.6-2.1,1.2-2.9,1.7c-0.7,0.5-1.8,1.3-3.1,2.4l0,0c-3.1,3.1-5.2,6.3-6.4,9.6C804.5,105.2,804.9,105.4,805.3,105.7z"/>
							<path class="st31" d="M805.3,105.7c0.1,0,0.1,0,0.2,0.1c0.2,0.1,0.4,0.2,0.6,0.2c1.9-4.2,4.6-7.4,8.2-9.6
								c3.6-2.2,7.6-3.8,12-4.8c0.1-0.3,0.1-0.6,0.1-0.9c0-0.9-0.2-1.9-0.7-2.9c-1.3,0.4-2.6,0.8-4,1.3c-0.5,0.8-0.8,1.8-0.9,3
								C813.9,94.4,808.8,98.9,805.3,105.7z"/>
						</g>
						<g>
							<path class="st19" d="M815,102.4L815,102.4l-0.4-3.6c-0.7-0.7-1.3-0.9-1.9-0.8c-0.8,0.3-1.1,1-1,1.9c0.3-0.7,0.8-1,1.4-1
								c0.4,0,0.8,0.2,1.1,0.6c-0.7-0.1-1.2,0.1-1.5,0.6c-0.2,0.7-0.1,1.2,0.3,1.7C813.6,102.3,814.3,102.5,815,102.4z"/>
							<path class="st18" d="M814.6,98.8l-0.1-1c-0.9-0.8-1.8-0.9-2.6-0.1c-0.6,0.7-0.8,1.6-0.6,2.8c0,0.2,0.1,0.4,0.1,0.6
								c0.9,2.1,2.1,3.2,3.8,3.1l-0.2-1.8c-0.8,0.1-1.4-0.1-1.9-0.6c-0.4-0.5-0.6-1-0.3-1.7c0.3-0.5,0.8-0.7,1.5-0.6
								c-0.3-0.4-0.7-0.6-1.1-0.6c-0.6,0-1.1,0.3-1.4,1c-0.1-0.9,0.2-1.5,1-1.9C813.3,97.9,814,98.1,814.6,98.8z"/>
						</g>
						<g>
							<path class="st30" d="M831.3,92.1c0-0.5-0.1-1-0.2-1.4c-0.2-1.3-0.8-2.3-1.8-3.1c-1.1-0.8-2.5-1.1-4.2-1.1
								c-0.6,0.6-1.1,1.4-1.6,2.4c0.6-0.7,1.2-1.3,1.8-1.9C828.3,86.9,830.3,88.5,831.3,92.1z"/>
							<path class="st29" d="M821.6,91.6c0-0.2,0-0.3,0.1-0.4c0.5,1.9,1.1,3.6,2,5c0.2,0.2,0.4,0.3,0.6,0.5l-0.3-2.9l0.1,0.1
								l-0.2-1.6c2.1,2.1,3.2,4.3,3.3,6.6c1.5-1.5,2.2-2.9,2.1-4.2c0-1.2-0.3-2.1-0.6-2.8c0-0.1-0.1-0.1-0.1-0.2c0,0,0,0,0-0.1l0,0
								l-1-1.6c2.2,1.3,3.4,2.7,3.6,4.1c0.1-0.7,0.2-1.4,0.2-2c-1.1-3.6-3-5.2-5.9-5c-0.6,0.6-1.2,1.2-1.8,1.9h-1.4
								C821.8,89.7,821.6,90.6,821.6,91.6z"/>
							<path class="st28" d="M831.1,94.1c-0.2-1.4-1.4-2.8-3.6-4.1l1,1.6C829.6,92.1,830.5,92.9,831.1,94.1z M827.2,98.9
								c-0.1-2.4-1.2-4.6-3.3-6.6l0.2,1.6C825.4,95.7,826.4,97.4,827.2,98.9C827.1,98.9,827.2,98.9,827.2,98.9z M821.6,91.6
								c0,0.3,0.1,0.7,0.1,1.1c0.2,1.2,0.9,2.3,2,3.4c-0.9-1.4-1.6-3.1-2-5C821.7,91.2,821.7,91.4,821.6,91.6z"/>
						</g>
					</g>
				</g>
				<g>
					<g>
						<path class="st32" d="M809.2,127.5c0.4,0.7,0.9,1.2,1.5,1.5l-1.1,1.6c-0.8,0.2-1.2-0.1-1.5-0.8
							C808.4,129,808.8,128.2,809.2,127.5z"/>
						<path class="st33" d="M810.7,129c-0.6-0.3-1-0.8-1.5-1.5c0.1-0.2,0.2-0.3,0.3-0.5c0.3-0.5,0.6-1,0.9-1.6
							c0.9-0.1,1.6,0.3,2.1,1.1L810.7,129z"/>
					</g>
					<g>
						<path class="st32" d="M801,132.8c0.2,0.6,0.5,1.1,0.9,1.7c2.1-1.2,4.4-2.3,6.7-3.4c0,0,0,0,0.1,0l-0.1-0.1
							c-0.1-0.3,0-0.5,0.5-0.8c-0.1,0.3-0.2,0.6-0.1,0.8l0,0c0.2-0.1,0.4-0.2,0.5-0.2c0.1-0.6-0.2-1.1-0.7-1.5
							c-0.9,0-1.8,0.3-2.7,0.6C804.4,130.6,802.7,131.6,801,132.8z"/>
						<path class="st33" d="M809,130.9c-0.1-0.2,0-0.5,0.1-0.8c-0.4,0.3-0.6,0.6-0.5,0.8c0,0,0,0.1,0.1,0.1L809,130.9z"/>
						<path class="st34" d="M801.9,134.5c-0.4-0.6-0.7-1.1-0.9-1.7l-2.3,1.2c0.1,0.8,0.5,1.4,1.1,1.9l1.4-1
							C801.5,134.7,801.7,134.6,801.9,134.5z"/>
					</g>
					<g>
						<path class="st35" d="M797.3,134.4l2.6,4.4c0.5,0.6,1.1,1.3,1.8,1.9h0.8c0.1-0.4,0.1-0.7,0.1-1.1c-0.7-0.7-1.1-1.2-1.2-1.5
							c-0.2-0.4-0.2-0.6-0.2-0.6c-0.2,0-0.4,0.1-0.6,0.2c-0.2-0.1-0.2-0.2-0.2-0.4c0.2-0.1,0.5-0.2,0.7-0.3c0-0.1,0-0.1,0-0.2
							c-0.3,0-0.6,0.1-0.8,0.2c-0.2-0.1-0.2-0.3-0.1-0.4c0.3-0.1,0.6-0.1,0.9-0.1c0-0.1,0-0.1,0-0.2c-0.3,0-0.6,0-0.9,0.1
							c-0.1-0.2-0.2-0.3-0.1-0.4c0.3-0.1,0.6-0.1,1-0.1c0-0.1,0-0.1,0-0.2c-0.4-0.1-0.7-0.1-1,0c-0.1-0.1-0.1-0.2,0-0.3
							c0.4-0.1,0.7-0.1,1.1,0c0-0.2,0.1-0.3,0.2-0.5c-0.4-0.2-0.8-0.2-1.2,0h-0.1c-0.4,0.1-0.6,0.1-0.8-0.1
							c-0.1-0.2-0.2-0.4-0.1-0.6c0.1-0.3,0.3-0.5,0.5-0.7c0.1-0.1,0.2-0.2,0.2-0.4C798.7,133.5,797.9,133.9,797.3,134.4z"/>
						<path class="st36" d="M800.9,136c-0.3,0-0.7,0-1,0.1c-0.1,0.1-0.1,0.3,0.1,0.4c0.3-0.1,0.6-0.1,0.9-0.1
							C801,136.2,801,136.1,800.9,136z M801,135.8c0.1-0.1,0.1-0.2,0.1-0.3c-0.4-0.1-0.7-0.1-1.1,0c-0.1,0.1-0.1,0.2,0,0.3
							C800.3,135.7,800.6,135.7,801,135.8z M801,137.1c-0.3,0-0.5,0.1-0.7,0.3c0,0.2,0.1,0.3,0.2,0.4c0.3-0.1,0.5-0.2,0.6-0.2
							C801.2,137.4,801.2,137.2,801,137.1z M801,136.9c0.1-0.2,0-0.3-0.1-0.4c-0.3,0-0.6,0.1-0.9,0.1c-0.1,0.1,0,0.3,0.1,0.4
							C800.4,137,800.7,137,801,136.9z"/>
						<path class="st37" d="M797.3,134.4l-0.8,0.5l3.3,4.1c0.7,0.7,1.3,1.4,1.9,1.8h0.8c0-0.1,0.1-0.1,0.1-0.2h-0.8
							c-0.7-0.6-1.3-1.2-1.8-1.9L797.3,134.4z"/>
					</g>
					<path class="st38" d="M810.8,124.1c0.3,0.1,0.6,0.2,0.9,0.2c1.6,0.5,3,1.4,4.2,2.6l-1.6,2.9c-1-0.3-1.7-0.6-2.1-0.8
						c-0.4-0.2-0.7-0.3-1-0.5c-0.3-0.2-0.7-0.6-1.4-1.4c-0.2-0.3-0.4-0.5-0.5-0.6l1.2-3.2L810.8,124.1z"/>
					<g>
						<path class="st18" d="M819.9,126.1c0.2,0.8,0.2,1.6,0,2.4c1,0.4,2,0.7,3,0.9c0.7-0.3,0.9-0.9,0.6-1.6L819.9,126.1z"/>
						<path class="st19" d="M819.9,126.1l-0.9-0.4c-0.7,0.6-1,1.3-0.8,2.2c0.6,0.2,1.1,0.4,1.7,0.6
							C820.1,127.7,820.1,127,819.9,126.1z"/>
					</g>
					<g>
						<path class="st18" d="M818.5,135.8c0.5,0.3,1.1,0.5,1.8,0.7c0.9-2.3,1.8-4.6,2.9-7c0,0,0,0,0-0.1h-0.1
							c-0.3-0.1-0.3-0.4-0.2-0.9c0.1,0.3,0.3,0.5,0.5,0.7l0,0c0.1-0.2,0.2-0.4,0.2-0.5c-0.3-0.5-0.8-0.7-1.5-0.7
							c-0.7,0.6-1.2,1.4-1.7,2.3C819.7,131.9,819,133.8,818.5,135.8z"/>
						<path class="st9" d="M820.3,136.5c-0.7-0.2-1.3-0.4-1.8-0.7l-1,2.4c0.6,0.5,1.3,0.8,2.1,0.7l0.4-1.7
							C820.1,137,820.2,136.7,820.3,136.5z"/>
						<path class="st19" d="M823.3,129.2c-0.2-0.1-0.3-0.3-0.5-0.7c-0.1,0.5,0,0.8,0.2,0.9h0.1L823.3,129.2z"/>
					</g>
					<g>
						<g>
							<path class="st19" d="M818.8,116.6l0.2-1.4l-1.6-0.4c-0.5,0.3-0.6,0.7-0.4,1.2C817.6,116.2,818.2,116.4,818.8,116.6z"/>
							<path class="st32" d="M819,115.2l-0.2,1.4c0.7,0.2,1.4,0.5,2.2,0.7c0.2-0.5,0.3-1,0.2-1.4L819,115.2z"/>
						</g>
						<g>
							<path class="st39" d="M817.6,113.8c-0.4,1.1-0.9,2-1.6,2.8l-2.9-1.4c-0.5-0.4-0.7-1-0.6-1.7c0.4-0.6,1-0.8,1.8-0.7
								L817.6,113.8z"/>
							<path class="st38" d="M816,116.6c0.7-0.8,1.2-1.7,1.6-2.8l0.6,0.2c-0.4,1.3-0.9,2.3-1.5,2.9L816,116.6z"/>
						</g>
						<path class="st32" d="M820.8,117.2c1.9,0.3,3.7,0.4,5.4,0.4c0.3-0.7,0.2-1.4-0.2-1.9c-1.6-0.1-3.2,0-4.9,0.2
							C820.6,116.3,820.5,116.8,820.8,117.2z"/>
						<g>
							<path class="st19" d="M827.7,118c-0.4,0.1-0.6,0-0.6-0.2c0-0.1,0-0.1,0-0.2c0-0.2,0-0.4,0-0.7c0-0.1,0-0.3-0.1-0.5l0,0
								c0-0.2-0.1-0.4-0.3-0.5l0,0l-0.1-0.1c0.7-0.2,1.2,0.2,1.4,1.1c0,0,0,0,0,0.1c0.1,0.2,0.2,0.4,0.4,0.6
								c0.1,0.1,0.2,0.2,0.3,0.3l0,0c0.1,0.2,0.2,0.4,0.4,0.6l0,0c0,0,0,0.1,0.1,0.1c0,0,0,0,0,0.1v0.1c-0.1,0.1-0.2,0.2-0.4,0.1
								h-0.1c-0.3-0.1-0.5-0.3-0.5-0.7C828,118.1,827.9,118,827.7,118z M827.4,119.3l-0.1-0.2L827.4,119.3L827.4,119.3z
								 M825.6,118.2l0.3,1l0.5,0.7c0,0.1,0.1,0.1,0.2,0.1h0.6c0.1,0,0.1,0,0.2-0.1l0,0l0.5-0.7c0.1-0.1,0.1-0.2,0.1-0.2s0,0,0.1,0
								l0,0l0,0c0,0.1,0.1,0.1,0,0.2l0,0v0.1c-0.2,0.2-0.3,0.4-0.4,0.6c-0.1,0.1-0.2,0.2-0.3,0.2h-0.7c-0.1,0-0.2,0-0.2-0.1
								l-0.6-0.8c-0.1-0.2-0.1-0.4-0.2-0.6l0,0C825.7,118.4,825.6,118.3,825.6,118.2z M827,119.4l-0.1-0.3L827,119.4
								C827.1,119.4,827.1,119.4,827,119.4z M826.4,120.3l0.8,0.1c0.1,0,0.2,0,0.2-0.1l0.9-0.9l0,0c0.1-0.1,0-0.2-0.1-0.2
								c0,0,0.1,0,0.1,0.1v0.1c0,0,0,0.1-0.1,0.1l-0.9,1c-0.1,0.1-0.2,0.1-0.3,0l-0.2-0.1l0.5,0.2h0.1l1-1c0.1-0.1,0.1-0.2-0.1-0.2
								c0.1,0,0.1,0,0.1,0c0.1,0,0.1,0.1,0,0.2l-0.4,0.3l-0.6,0.6c0.1,0.1,0.3,0,0.5-0.1c0.2-0.1,0.4-0.2,0.6-0.3
								c0.2-0.1,0.2-0.1,0.2-0.3c0,0,0,0,0,0.1c0.1,0.1,0,0.2-0.1,0.2h-0.1c-0.2,0.1-0.5,0.2-0.7,0.4c-0.2,0.1-0.3,0.1-0.5-0.1l0,0
								c-0.1,0.1-0.1,0.1-0.2,0l-0.4-0.2L826.4,120.3z"/>
							<path class="st33" d="M827.6,119.1c-0.1,0-0.1,0.1-0.2,0.2l-0.1-0.2l0.1,0.2l-0.1,0.1h-0.1l-0.2-0.3l0.1,0.3
								c-0.1,0-0.2,0-0.2,0c0-0.1-0.1-0.3-0.2-0.4c0.1-0.2,0.1-0.5,0.1-0.8c0.2-0.1,0.3-0.3,0.4-0.5c0.1,0.2,0.3,0.3,0.6,0.2
								C827.6,118.2,827.6,118.6,827.6,119.1z"/>
							<path class="st32" d="M828,119c0.1,0,0,0.1-0.1,0.2l-0.5,0.7l0,0c-0.1,0-0.1,0.1-0.2,0.1h-0.6c-0.1,0-0.1,0-0.2-0.1l-0.5-0.7
								l-0.3-1c0-0.1-0.1-0.1-0.1-0.2c-0.1-0.3-0.2-0.7-0.2-1c0-0.1,0-0.1,0-0.2c0-0.2,0-0.3,0.1-0.5c0.1-0.5,0.4-0.7,0.8-0.7
								c0.2,0,0.3,0,0.4,0.1l0.1,0.1l0,0c0.1,0.1,0.2,0.3,0.3,0.5l0,0c0,0.2,0,0.3,0.1,0.5c0,0.3,0,0.5,0,0.7c0,0.1,0,0.1,0,0.2
								c-0.1,0.3-0.2,0.4-0.4,0.5c0,0.3,0,0.6-0.1,0.8c0.1,0.1,0.2,0.2,0.2,0.4c0.1,0,0.2,0,0.2,0h0.1h0.1l0.1-0.1c0,0,0,0,0.1-0.1
								s0.1-0.1,0.2-0.2C827.8,119,827.9,119,828,119L828,119L828,119z M826.4,120.3l-0.7-1l-0.1-0.7c0,0.2,0.1,0.4,0.2,0.6l0.6,0.8
								c0.1,0.1,0.1,0.1,0.2,0.1h0.7c0.1,0,0.2-0.1,0.3-0.2c0.1-0.2,0.3-0.4,0.4-0.6v-0.1l0,0c0.1,0,0.2,0,0.2,0
								c0.1,0,0.1,0.1,0.1,0.2l0,0l-0.9,0.9c-0.1,0.1-0.2,0.1-0.2,0.1L826.4,120.3z M828.4,120.1c0.1-0.1,0.2-0.1,0.3-0.1
								c0.2,0,0.3,0,0.4,0.1c0.1,0.1,0,0.2-0.2,0.3c-0.2,0.1-0.4,0.2-0.6,0.3c-0.2,0.1-0.4,0.2-0.5,0.1L828.4,120.1z M828.6,119.4
								c0.2,0,0.2,0.1,0.1,0.2l-1,1h-0.1l-0.5-0.2l0.2,0.1c0.1,0,0.3,0,0.3,0L828.6,119.4C828.5,119.5,828.6,119.5,828.6,119.4
								L828.6,119.4z"/>
						</g>
					</g>
					<g>
						<path class="st40" d="M812.9,122.6l3,0.5h0.1l3.4,2.5l0,0c-0.1,0.8-0.5,1.5-1,1.9l-4-1.5c-1.4-0.5-1.9-1.5-1.5-2.9
							C812.8,123,812.9,122.8,812.9,122.6z"/>
						<path class="st41" d="M819.4,125.7L819.4,125.7c-0.3,2.3-1.3,4-3,4.9l-2.9-1.7c-3.3-1.5-4.3-3.7-2.9-6.7l2.3,0.4
							c0,0.2-0.1,0.3-0.1,0.5c-0.4,1.4,0.1,2.4,1.5,2.9l4,1.5C818.9,127.1,819.2,126.5,819.4,125.7L819.4,125.7z"/>
					</g>
					<g>
						<g>
							<path class="st42" d="M816.5,112.9l-0.5,0.9c-0.4-0.5-0.9-0.9-1.3-1.2c-0.5-0.3-1-0.6-1.6-0.7l0.4-1c0.1,0.1,0.2,0.1,0.2,0.1
								c0.7,0.1,1.2,0.3,1.5,0.5c0.5,0.3,0.9,0.6,1.3,1V112.9z"/>
							<path class="st9" d="M816.7,114l-0.5,1.5h0.4c-0.4,1.2-0.6,2.4-0.7,3.6c0,0.3,0,0.5,0,0.8c0,0.1,0,0.2,0,0.3
								c0,1,0.1,1.9,0.2,2.9c-2,0.9-4.1,1.1-6.4,0.6l0.7-1.2c-0.1-1-0.2-1.7-0.2-2.2c-0.1-0.7,0-1.5,0-2.3c0.6-3.3,1.6-5.3,3-6
								c0.6,0.1,1.1,0.4,1.6,0.7c0.5,0.3,0.9,0.7,1.3,1.2l0.5-0.9L816.7,114z"/>
							<polygon class="st41" points="816.5,112.9 816.6,112.6 817.1,114 816.7,114 							"/>
							<path class="st43" d="M816.5,115.6h-0.4l0.5-1.5h0.4C816.9,114.5,816.7,115.1,816.5,115.6z"/>
						</g>
					</g>
					<g>
						<path class="st44" d="M817.1,139.7l5.1,1c0.8,0.1,1.7,0,2.6-0.1l0.6-0.6c-0.2-0.3-0.4-0.6-0.7-0.8c-0.9,0-1.6,0-2-0.1
							s-0.6-0.2-0.6-0.2c-0.1,0.1-0.2,0.3-0.3,0.6c-0.2,0-0.3,0-0.4-0.1c0-0.3,0.1-0.5,0.3-0.7c-0.1,0-0.1-0.1-0.2-0.1
							c-0.2,0.2-0.3,0.5-0.4,0.7c-0.2,0-0.3,0-0.4-0.2c0.1-0.3,0.3-0.5,0.5-0.7c-0.1,0-0.1-0.1-0.2-0.1c-0.2,0.2-0.4,0.5-0.5,0.8
							c-0.2,0-0.3-0.1-0.4-0.3c0.2-0.3,0.4-0.5,0.6-0.8c0-0.1-0.1-0.1-0.1-0.2c-0.3,0.2-0.5,0.5-0.7,0.8c-0.1,0-0.2-0.1-0.2-0.2
							c0.2-0.4,0.4-0.6,0.7-0.8c-0.1-0.1-0.2-0.3-0.2-0.4c-0.4,0.1-0.7,0.4-0.8,0.9v0.1c-0.2,0.3-0.4,0.5-0.6,0.5
							c-0.2,0-0.4-0.1-0.5-0.3c-0.1-0.3-0.2-0.5-0.2-0.8c0-0.2,0-0.3-0.2-0.4C817.4,137.9,817.1,138.8,817.1,139.7z"/>
						<path class="st45" d="M820.3,137.5c-0.3,0.2-0.6,0.5-0.7,0.8c0,0.2,0.1,0.2,0.2,0.2c0.1-0.3,0.4-0.6,0.7-0.8
							C820.5,137.7,820.5,137.6,820.3,137.5z M821,138.2c-0.1-0.1-0.2-0.2-0.3-0.3c-0.2,0.2-0.4,0.5-0.6,0.8c0,0.1,0.1,0.2,0.4,0.3
							C820.6,138.7,820.7,138.4,821,138.2z M821.6,138.6c-0.2,0.2-0.2,0.5-0.3,0.7c0.1,0.1,0.3,0.2,0.4,0.1c0.1-0.3,0.2-0.5,0.3-0.6
							C821.9,138.7,821.7,138.6,821.6,138.6z M821.4,138.5c-0.1-0.1-0.2-0.2-0.3-0.2c-0.2,0.2-0.4,0.5-0.5,0.7
							c0.1,0.1,0.2,0.2,0.4,0.2C821.1,139,821.2,138.8,821.4,138.5z"/>
						<path class="st46" d="M817.1,139.7l-0.2,1l5.3,0.3c1,0,1.9-0.1,2.7-0.2l0.6-0.6c0-0.1-0.1-0.1-0.1-0.2l-0.6,0.6
							c-0.9,0.1-1.8,0.2-2.6,0.1L817.1,139.7z"/>
					</g>
					<g>
						<g>
							<path class="st18" d="M818.4,113.4c0.1,0.4,0.2,0.9,0.1,1.4c0.8,0.1,1.5,0.2,2.2,0.2c0.1-0.5,0.1-1-0.1-1.4L818.4,113.4z"/>
							<path class="st19" d="M818.5,114.8c0.1-0.5,0-0.9-0.1-1.4l-1.7-0.1c-0.4,0.4-0.5,0.8-0.2,1.3
								C817.2,114.7,817.8,114.7,818.5,114.8z"/>
						</g>
						<g>
							<path class="st47" d="M816.2,115.6L816.2,115.6c0.4-0.9,0.6-2,0.6-3.1h-3.3c-0.8,0.1-1.4,0.5-1.5,1.2
								c0.1,0.7,0.4,1.2,1.1,1.4L816.2,115.6z"/>
							<path class="st41" d="M816.2,115.6l0.7,0.1c0.4-0.8,0.6-1.9,0.5-3.2h-0.6C816.8,113.6,816.6,114.6,816.2,115.6L816.2,115.6z"
								/>
						</g>
						<path class="st18" d="M820.3,115c1.9,0.3,3.7,0.4,5.4,0.4c0.3-0.7,0.2-1.4-0.2-2c-1.6-0.1-3.2,0-4.9,0.2
							C820.2,114,820.1,114.5,820.3,115z"/>
						<g>
							<path class="st18" d="M827.2,110.7L827.2,110.7L827.2,110.7c0,0.2,0.1,0.2,0.1,0.3l0,0c0,0.1,0,0.2,0,0.2l0,0
								c-0.1,0-0.2,0-0.3-0.1c0,0,0,0,0-0.1c-0.1-0.2-0.2-0.4-0.2-0.6l0,0c-0.1-0.2-0.2-0.4-0.4-0.3l0,0l0,0l-0.6,0.1l0,0l0.8,0.1
								c0,0,0,0,0.1,0c0.1,0.1,0.2,0.2,0.1,0.4l0,0c0,0,0,0,0,0.1v0.1c0,0.1,0,0.1,0,0.2s0,0.2,0,0.3l0,0c0,0.1-0.1,0.2-0.2,0.2l0,0
								c-0.2,0-0.3-0.1-0.3-0.3c0,0,0,0,0-0.1l0,0v-0.6c0,0,0,0,0,0.1s-0.1,0.1-0.1,0.2s0,0.1,0,0.1c-0.2,0-0.4-0.2-0.4-0.5
								c0,0.4,0.1,0.6,0.4,0.6c0,0.1,0,0.2,0,0.3c0,0.6,0.1,0.9,0.2,1.2l0,0l0,0l0,0l0.1,0.1c0,0,0,0.1,0.1,0.1
								c0.3,0.4,0.4,0.9,0.4,1.5c-0.1,0.3-0.2,0.6-0.3,0.8c-0.1,0.1-0.1,0.2-0.2,0.2c-0.1,0.1-0.3,0.1-0.5,0.2
								c-0.7-0.1-0.9-1-0.8-2.9c0-0.7,0.1-1.4,0.2-2.1c0-0.1,0.1-0.2,0.2-0.2l0.1-0.1l0.8-0.3c0.1,0,0.1,0,0.2,0
								c0.1,0,0.1,0,0.1,0.1l0,0v0.1c0,0.1,0.1,0.2,0.1,0.3C827.1,110.4,827.1,110.5,827.2,110.7z M827.9,110.9
								c-0.1,0-0.3,0-0.4-0.1l0,0c-0.2-0.2-0.4-0.5-0.5-0.9c0-0.1-0.1-0.1-0.2-0.1h0.1l0,0c0.1,0,0.2,0,0.2,0s0.1,0,0.1,0.1l0,0l0,0
								l0,0l0,0c0.1,0.1,0.2,0.3,0.3,0.4l0.1,0.1c0.1,0.1,0.2,0.2,0.4,0.3C828,110.7,828,110.7,827.9,110.9
								C828,110.8,828,110.8,827.9,110.9z M828.7,110c0,0.1-0.1,0.2-0.3,0.2h-0.1c0,0,0,0-0.1,0c0,0,0,0-0.1,0c0,0,0,0-0.1,0h-0.1
								c-0.3-0.1-0.5-0.3-0.6-0.5c-0.1-0.1-0.1-0.1-0.2,0l0,0c0,0,0,0,0.1-0.1l0,0c0.1-0.1,0.2-0.1,0.3,0l0,0
								c0.2,0.2,0.4,0.3,0.6,0.3c0.1,0,0.2,0.1,0.3,0.1C828.6,109.9,828.7,110,828.7,110z"/>
							<path class="st19" d="M828.7,110c0,0,0,0.1-0.1,0.2c0,0,0,0-0.1,0.1s-0.2,0.1-0.3,0.1c-0.2,0-0.4,0-0.6-0.1l-0.1-0.1
								c-0.1-0.1-0.2-0.3-0.3-0.4l0,0l0,0l0,0l0,0c0,0,0,0-0.1-0.1l0,0c0.1,0,0.1,0,0.2,0c0.2,0.3,0.4,0.4,0.6,0.5h0.1
								c0,0,0,0,0.1,0c0,0,0,0,0.1,0c0,0,0,0,0.1,0h0.1C828.5,110.2,828.6,110.1,828.7,110z M827.2,110.7c0-0.1-0.1-0.2-0.1-0.3
								c0-0.1-0.1-0.2-0.1-0.3V110l0,0c0-0.1-0.1-0.1-0.1-0.1l0,0c0.1,0,0.1,0,0.2,0.1c0.2,0.5,0.4,0.8,0.5,0.9l0,0
								c0.1,0.1,0.3,0.1,0.4,0.1c0,0,0,0-0.1,0c-0.2,0.1-0.4,0-0.6-0.1C827.3,110.7,827.2,110.7,827.2,110.7L827.2,110.7z
								 M826.7,111c0-0.1,0-0.1,0-0.2v-0.1c0,0,0,0,0-0.1l0,0c0-0.2,0-0.3-0.1-0.4c0,0,0,0-0.1,0l-0.8-0.1l0,0l0.6-0.1l0,0l0,0
								c0.2,0,0.3,0.1,0.4,0.3l0,0c0,0.2,0.1,0.4,0.2,0.6c0,0,0,0,0,0.1c0.1,0.1,0.2,0.1,0.3,0.1l0,0l-0.1,0.1l0,0
								C827,111.3,826.9,111.2,826.7,111z M826.7,111.4c0,0.2-0.1,0.3-0.3,0.2h-0.1c-0.1,0-0.2-0.1-0.2-0.2s-0.1-0.2,0-0.3
								c-0.3,0-0.4-0.2-0.4-0.6c0,0.3,0.2,0.5,0.4,0.5v-0.1c0-0.1,0-0.1,0.1-0.2c0,0,0,0,0-0.1v0.6l0,0c0,0,0,0,0,0.1
								s0.1,0.2,0.3,0.3l0,0C826.6,111.5,826.7,111.5,826.7,111.4z"/>
							<path class="st33" d="M826.1,111.4c0,0.1,0.1,0.1,0.2,0.2h0.1c0.2,0,0.3,0,0.3-0.2l0,0c0-0.1,0-0.2,0-0.3
								c0.1,0.1,0.3,0.2,0.4,0.2c0,0.3,0,0.5,0,0.7c0.1,0.2,0.1,0.4,0.1,0.6l0,0c0.1,0,0.2,0,0.3,0.1l0,0l0,0l0,0c0,0,0.1,0,0.1-0.1
								l0,0c0.1,0,0.1-0.1,0.2-0.1c0.1-0.1,0.1-0.1,0.2-0.2c0-0.1,0-0.3,0.1-0.4c0,0,0-0.1,0.1-0.1c0.2-0.4,0.4-0.5,0.6-0.4
								c0.1,0,0.1,0.2,0.1,0.4c0,0.1,0,0.2-0.1,0.3l0,0c0,0,0,0,0,0.1c-0.1,0.2-0.1,0.3-0.1,0.5c0,0.1-0.1,0.3-0.3,0.5
								c-0.1,0.1-0.1,0.1-0.2,0.2c-0.1,0.1-0.2,0.2-0.3,0.3c-0.1,0.6-0.4,1-0.7,1.3l0,0l0,0c0,0,0,0-0.1,0.1
								c-0.2,0.2-0.5,0.3-0.7,0.2c0.1-0.1,0.2-0.1,0.2-0.2c0.1-0.2,0.2-0.4,0.3-0.8c0.1-0.6,0-1.1-0.4-1.5c0,0,0-0.1-0.1-0.1
								l-0.1-0.1l0,0l0,0l0,0C826.2,112.3,826.1,111.9,826.1,111.4z"/>
						</g>
					</g>
				</g>
			</g>
		</g>
		<path class="st7" d="M1035.4,141.7c0,1.1-2,2-6.1,2.8c-4.1,0.7-9.1,1.1-15,1.1c-5.7,0-10.7-0.4-14.8-1.1c-4.1-0.8-6.1-1.7-6.1-2.8
			s2-2,6.1-2.8s9.1-1.2,14.8-1.2c5.8,0,10.8,0.4,15,1.2C1033.4,139.7,1035.4,140.6,1035.4,141.7z"/>
		<g>
			
				<linearGradient id="SVGID_3_" gradientUnits="userSpaceOnUse" x1="944.9315" y1="128.9" x2="785.8001" y2="128.9" gradientTransform="matrix(1 0 0 -1 0 244)">
				<stop  offset="0" style="stop-color:#FF9A00"/>
				<stop  offset="0.7373" style="stop-color:#FF5400;stop-opacity:0"/>
			</linearGradient>
			<path class="st48" d="M785.8,110v-1h158.7c0.1,0.1,0.1,0.2-0.1,0.2c-0.4,0.2-1.6,0.5-3.4,0.8H785.8z M785.8,111.3v-1.1H942l0,0
				c-0.2,0.2-1.1,0.6-2.6,1L785.8,111.3L785.8,111.3z M785.8,115.8v-1.5H939c1.4,0.5,1.7,0.8,1,1c-0.8,0.2-1.5,0.4-2.2,0.5H785.8z
				 M785.8,119.3V118h153.8c1.3,0.4,1.4,0.9,0.2,1.3H785.8z M785.8,117.7v-1.6H939c1.6,0.6,1.5,1.1-0.5,1.6H785.8z M785.8,113.8
				v-2.2H940c1.5,0.8,0.8,1.5-2,2.2H785.8z M785.8,120.7v-1.2h155.1c0.7,0.1,1.4,0.3,2.3,0.5c1.6,0.4,1.2,0.6-1.3,0.7H785.8z
				 M785.8,121.2v-0.4h159c0.2,0.1,0.2,0.2-0.2,0.4H785.8z"/>
			<path class="st49" d="M943.8,121.2c0,0-0.1,0-0.2,0h-0.3c-0.1,0-0.2,0-0.4,0c-0.1,0-0.1,0-0.2,0c2.1-0.3-0.8-0.4-8.9-0.5
				c0.8,0,1.6,0,2.3,0c2.1,0,3.8-0.1,4.9-0.2c2.9-0.3,0.2-0.7-8.2-1.1c2.5-0.2,4.2-0.4,5.2-0.7c1.5-0.4,0.5-0.7-3-0.8
				c-0.8,0-1.6-0.1-2.6-0.1c-0.4,0-0.7,0-1.1,0c2.4-0.2,4.3-0.4,5.5-0.7c2.5-0.5,0.7-0.9-5.5-1.2c2.7-0.1,4.8-0.2,6.1-0.4
				c2.8-0.4,0.7-0.9-6.2-1.6c2.9-0.3,5-0.6,6.4-1c2-0.6,0-1.1-6-1.4c2.4-0.2,4.3-0.4,5.7-0.7c2.1-0.4,1.2-0.6-2.7-0.7h-1.9
				c-0.2,0-0.4,0-0.6,0c3.1-0.1,5.6-0.2,7.4-0.4c2.5-0.3,1.8-0.5-2-0.6h6.5c1.8,0.1,3.3,0.6,4.6,1.8c1.4,1.2,2,2.6,2,4.3
				c0,1.7-0.7,3.1-2,4.3c-1.3,1.2-3,1.8-4.9,1.8C943.9,121.2,943.9,121.2,943.8,121.2L943.8,121.2L943.8,121.2z"/>
			<path class="st50" d="M941.4,119.5c-1.9-0.2-2.4-0.3-1.4-0.4l0.8-0.1c1.7-0.3,1.5-0.6-0.4-1c-0.1,0-0.2,0-0.4-0.1
				c-1.1-0.2-1.2-0.4-0.3-0.6c2.3-0.4,2.2-0.8-0.4-1.2c-1.4-0.3-1.4-0.5-0.1-0.6c0.8-0.2,1.3-0.3,1.5-0.5c0.2-0.1-0.3-0.4-1.5-0.7
				c-1.3-0.4-1.2-0.7,0.2-1c2.6-0.4,2.9-0.9,0.8-1.5c-1.3-0.4-1.5-0.6-0.4-0.8c0.5-0.1,1-0.3,1.6-0.4c1.8-0.3,2.2-0.5,1.1-0.6
				c0.7-0.3,1.5-0.5,2.4-0.5c1.6,0,2.9,0.5,4.1,1.6c1.1,1.1,1.7,2.4,1.7,3.9s-0.6,2.9-1.7,3.9c-1.1,1.1-2.5,1.6-4.1,1.6
				c-0.4,0-0.8,0-1.2-0.1C945.1,120.1,944.3,119.7,941.4,119.5z"/>
			<path class="st9" d="M945.9,119.4c0-0.1-0.4-0.2-1.1-0.2c-1.7-0.1-2.1-0.3-1.2-0.6c0.4-0.1,0.5-0.3,0.2-0.4
				c-0.2-0.1-0.5-0.2-0.9-0.3c-1.1-0.2-1.4-0.4-0.7-0.8c0.5-0.3,0.5-0.6-0.2-0.9c-1-0.3-1.2-0.5-0.7-0.7s0.8-0.4,0.9-0.5
				c0.1-0.1-0.1-0.3-0.7-0.6c-0.6-0.3-0.3-0.6,0.6-1c0.9-0.2,1-0.6,0.5-1c-0.7-0.5-0.3-0.9,1.2-0.9c0.5,0,0.8-0.1,1-0.1
				c0.5-0.1,0.6-0.2,0.2-0.4c-0.1,0-0.1-0.1-0.2-0.1c-0.2-0.1-0.2-0.1-0.1-0.2c0.1,0,0.2,0,0.3,0c0.7,0,1.3,0.1,2.1,0.2h0.1h0.1l0,0
				c0.7,0.2,1.3,0.6,1.8,1.1c0.8,0.8,1.3,1.9,1.3,3.1s-0.4,2.2-1.3,3.1c-0.2,0.2-0.4,0.4-0.6,0.5l0,0c-0.5,0.4-1.2,0.7-2.1,1
				C946,119.7,945.8,119.7,945.9,119.4L945.9,119.4z"/>
		</g>
		<path class="st50" d="M978.1,78.4l9.6,11l1.7-1.4l-7.8-12.6L978.1,78.4z M988.9,92.3c0.3,0.5,0.7,0.8,1.2,1s1,0.1,1.5-0.2
			c0.5-0.3,0.9-0.6,1-1.1c0.2-0.5,0.2-1.1-0.1-1.6c-0.3-0.5-0.7-0.8-1.2-1s-1.1-0.2-1.6,0.1c-0.5,0.3-0.8,0.7-1,1.2
			C988.6,91.4,988.6,91.9,988.9,92.3z"/>
		<g>
			<path class="st51" d="M1027.2,115.9c-0.5,1.3-1.2,3.1-2.2,5.5c-0.5,1.3-1.8,3.6-3.9,7.1c-2,3.3-3.1,5.2-3.2,5.7
				c-0.3,0.8-0.4,1.4-0.4,1.9c0,0.4,0.2,0.8,0.5,1.3c0.3,0.5,1.1,1.4,2.5,2.5l2,1.6c-0.6,0.3-1,0.5-1.3,0.6
				c-0.6,0.1-1.3,0.1-2.2-0.1c-0.9-0.2-1.8-0.8-2.7-1.7c-0.5-0.5-1-1.1-1.5-1.7c-0.7-0.9-1.3-1.2-2.1-0.8c-0.4,0.2-0.6,0.4-0.9,0.8
				l-0.8,1.1c-0.6,0.8-1.2,1.5-1.8,2.1s-1.6,0.8-3.1,0.7c-0.7-0.1-1.4-0.2-1.9-0.3c0.3,0,0.8-0.3,1.6-1c1-0.8,1.8-1.9,2.4-3.1
				c0.6-1.3-0.3-3.8-2.8-7.3c-0.4-0.5-1.4-2-3.2-4.3c-1.2-1.7-2.1-2.9-2.6-3.8c-1.6-2.8-2.9-5.9-3.9-9.4c-1.2-3.8-1.8-7.6-2-11.2
				c-0.2-4.1,0.2-7.8,1.4-11.1c1.3-3.7,3.3-6.7,6.2-9c4.6-3.6,9.4-4.9,14.3-3.7c2.1,0.5,4.1,1.4,6,2.8c1.8,1.2,3.3,2.7,4.6,4.5
				c3.9,5.3,5.1,12.4,3.5,21.3C1029.2,109.7,1028.4,112.7,1027.2,115.9z"/>
			<path class="st52" d="M1023.7,91.8c-0.1-2.2,0.8-3.1,2.6-2.5c0.6,0.2,1.2,0.5,1.8,0.9l0.8,0.6c0.8,1.8,1.3,4,1.4,6.6
				c0.1,1.9,0,4.3-0.3,7.3c-0.2,2.6-1,5.7-2.2,9.4c-1,3-2,5.5-2.9,7.3c-0.7,1.4-1.6,3.1-2.7,5.1c-1.6,2.9-2.7,4.9-3.6,6.2
				c-0.8,1.1-1,2.2-0.8,3.4c0.1,0.4,0.3,1,0.8,1.8c0.3,0.5,1,1.3,2.2,2.3l1.6,1.4c-2.2-0.5-4-1.4-5.4-2.9c-1.1-1.2-1.7-2.4-1.8-3.5
				c-0.1-1.3,0-3,0.4-4.8c0.6-2.8,1.7-5.8,3.4-8.9c2.4-4.6,3.9-10.2,4.5-16.7c0.2-2.3,0.3-4.7,0.3-7.3
				C1023.8,97.1,1023.8,95.3,1023.7,91.8z"/>
			<path class="st53" d="M998,93c0.4,0.3,0.5,0.9,0.5,1.6v2.5c0,2.1,0,4.1,0.1,6c0.2,6.3,0.8,10.7,1.7,13.5c0.9,2.7,2.3,6.4,4.4,11
				c1,2.3,1.9,4.3,2.8,6l-1.7-2.5c-1.2-1.8-2.1-3-2.5-3.5c-0.2-0.2-0.6-0.8-1.3-1.7c-0.7-1-1.4-2-2.1-3.1c-1.9-3.2-3.4-6.9-4.5-10.9
				c-1-3.7-1.5-7.4-1.5-11.1c0-2.9,0.2-5,0.6-6.2c0.2-0.4,0.5-0.8,0.9-1.2c0.4-0.4,0.9-0.6,1.4-0.7C997.3,92.6,997.7,92.7,998,93z"
				/>
			<path class="st54" d="M1013.4,137.5c-0.3,0-0.6,0.1-0.9,0.3c-0.4,0.3-0.7,0.7-1.1,1.3c-0.5,0.8-0.8,1.3-0.9,1.5
				c-0.6,0.7-1.2,1.2-2.1,1.5c-0.8,0.3-1.7,0.4-2.8,0.2c-0.5-0.1-1-0.2-1.3-0.3c1.9-0.1,3.3-0.4,4.1-0.8c0.7-0.3,1.4-1,2.2-2.1
				c0.6-0.8,1.3-1.3,2-1.5c0.2-0.1,0.4-0.1,0.6-0.1L1013.4,137.5z"/>
			<path class="st54" d="M1013.5,137.5c0.2,0,0.5,0.1,0.9,0.3c0.7,0.3,1.4,0.8,2,1.5c0.9,1,2,1.7,3.3,2.1c1.1,0.3,2,0.3,2.7,0
				c0,0-0.2,0.1-0.7,0.4c-0.6,0.3-1.4,0.3-2.3,0.2c-0.8-0.1-1.5-0.5-2.3-1.1c-0.5-0.4-1-0.9-1.7-1.6c-0.3-0.3-0.6-0.7-1-1.2
				C1014.2,137.9,1013.9,137.7,1013.5,137.5z"/>
			<path class="st55" d="M1007.2,131.9c1.3,2.3,2,3.8,2,4.6c0.1,0.9-0.2,1.8-0.8,2.7c-0.5,0.9-1.1,1.5-1.8,1.9
				c-0.4,0.2-0.9,0.4-1.5,0.6c-0.5,0.2-0.8,0.3-0.9,0.3c0.3-0.2,0.7-0.4,1.1-0.7c0.8-0.5,1.2-0.9,1.4-1.1c0.3-0.3,0.5-0.6,0.7-0.8
				c0.3-0.5,0.6-0.9,0.7-1.4c0.4-1.4,0-3-1.1-4.7c-0.5-1-1-1.9-1.4-2.9c-0.9-1.8-1.1-2.5-0.8-2.1
				C1005.4,128.8,1006.2,130.1,1007.2,131.9z"/>
			<path class="st52" d="M1020.5,117.2c-0.1,0.2-0.2,0.4-0.3,0.5c-0.2,0.1-0.3,0.1-0.5,0.1c-0.2-0.1-0.3-0.2-0.3-0.4
				c-0.1-0.2-0.1-0.4,0-0.6s0.2-0.4,0.4-0.5c0.2-0.1,0.3-0.1,0.5-0.1c0.2,0.1,0.3,0.2,0.3,0.4S1020.6,117,1020.5,117.2z"/>
			<path class="st52" d="M1001.5,108.2c0.1,0.1,0.2,0.2,0.2,0.4c0,0.2,0,0.3-0.1,0.5c-0.1,0.1-0.2,0.2-0.3,0.2s-0.3,0-0.4-0.1
				s-0.2-0.2-0.2-0.4c0-0.2,0-0.3,0.1-0.5c0.1-0.1,0.2-0.2,0.3-0.3C1001.3,108.1,1001.4,108.1,1001.5,108.2z"/>
			<path class="st54" d="M1019.2,128.4c0,0.2-0.2,0.3-0.4,0.5c-0.2,0.1-0.5,0.2-0.7,0.2c-0.2,0-0.3-0.1-0.3-0.2c0-0.1,0-0.2,0-0.5
				c0-0.2,0.1-0.4,0.2-0.5c0.1-0.1,0.3-0.2,0.5-0.2c0.2,0,0.3,0.1,0.5,0.2C1019.2,128,1019.2,128.2,1019.2,128.4z"/>
			<path class="st52" d="M1006.4,114.1c0,0.4-0.1,0.7-0.4,0.9c-0.2,0.2-0.6,0.4-0.9,0.4c-0.4,0-0.7-0.1-0.9-0.4
				c-0.2-0.2-0.4-0.6-0.4-0.9c0-0.4,0.1-0.7,0.4-0.9c0.2-0.2,0.6-0.4,0.9-0.4c0.4,0,0.7,0.1,0.9,0.4
				C1006.2,113.5,1006.4,113.7,1006.4,114.1z"/>
			<path class="st52" d="M1006.2,125.1c0.1,0.1,0.1,0.3,0,0.5s-0.2,0.3-0.3,0.3c-0.1,0.1-0.3,0.1-0.5,0c-0.2,0-0.3-0.1-0.3-0.3
				c-0.1-0.1-0.1-0.3,0-0.4c0.1-0.2,0.2-0.3,0.3-0.3c0.1-0.1,0.3-0.1,0.5,0C1006,124.9,1006.1,125,1006.2,125.1z"/>
			<path class="st52" d="M1015.5,121.7c0,0.4-0.1,0.8-0.4,1c-0.3,0.3-0.6,0.4-1.1,0.4c-0.4,0-0.8-0.1-1.1-0.4
				c-0.3-0.3-0.4-0.6-0.4-1s0.1-0.8,0.4-1c0.3-0.3,0.6-0.4,1.1-0.4c0.4,0,0.8,0.1,1.1,0.4C1015.3,120.9,1015.5,121.3,1015.5,121.7z"
				/>
			<path class="st51" d="M999.7,118c0.1,0.2,0.1,0.4,0,0.5c0,0.2-0.1,0.3-0.2,0.3s-0.2,0-0.4-0.1c-0.1-0.1-0.2-0.3-0.3-0.5
				s-0.1-0.4,0-0.5c0-0.2,0.1-0.3,0.2-0.3c0.1,0,0.2,0,0.4,0.1C999.5,117.7,999.6,117.8,999.7,118z"/>
			<path class="st53" d="M1022.4,103.5c-0.6,0.5-1.6,0.9-3,1.3c-1.6,0.4-3.2,0.7-5,0.9c-4.7,0.4-8.8-0.4-12.4-2.2
				c-0.3-0.1-0.5-0.4-0.5-0.6c0-0.3,0.1-0.4,0.3-0.4c1.8,0.8,4,1.3,6.6,1.7c5.3,0.8,10,0.2,14.2-1.7c0,0,0.1,0,0.1,0.1
				c0.1,0.1,0.1,0.1,0.1,0.2C1022.9,103,1022.8,103.2,1022.4,103.5z"/>
			<path class="st56" d="M1022.7,103c-0.7,0.4-1.7,0.8-3,1.2c-1.5,0.5-3.2,0.8-4.9,0.9c-4.6,0.4-8.9-0.3-12.9-2.1
				c-0.2-0.1-0.3-0.2-0.2-0.4c0-0.2,0.1-0.3,0.4-0.3c1.8,0.8,3.9,1.3,6.5,1.7c5.2,0.8,9.9,0.2,14.1-1.7c0.1,0,0.2,0,0.3,0.2
				C1023,102.7,1022.9,102.9,1022.7,103z"/>
			<path class="st52" d="M1014.6,103.8c1.3-0.1,3-0.4,5.2-0.9l2.9-0.7l-2.4,0.9c-2,0.6-3.9,1-5.8,1.1c-2.1,0.1-4.4,0-6.7-0.4
				c-2.4-0.4-4.3-0.9-5.8-1.6c0.1,0,0.2-0.1,0.3-0.1c0.2-0.1,0.4-0.1,0.6,0c0.5,0.2,1.1,0.4,1.7,0.6c1.1,0.3,2.4,0.6,3.9,0.8
				c0.8,0.1,1.7,0.2,2.8,0.3C1012.5,103.9,1013.6,103.9,1014.6,103.8z"/>
			<path class="st56" d="M1010.1,103.6c0.1-0.3,0.1-0.6,0.2-0.9v-0.3v0.6c0,0.4,0,0.7,0,0.9c0,0.2,0.1,0.3,0.3,0.4l0.3,0.1
				c-1.1-0.1-1.6-0.1-1.4-0.1c0.1,0,0.2-0.1,0.4-0.2C1010,103.9,1010.1,103.8,1010.1,103.6z"/>
			<path class="st56" d="M1012,104.4c0.2,0,0.4,0,0.5-0.1c0.4-0.1,0.6-0.2,0.6-0.3c0-0.2,0.1-0.6,0.1-1.1v-0.8l0.1,1.8
				c0,0.1,0.1,0.1,0.1,0.2c0.2,0.1,0.4,0.2,0.6,0.2C1013.3,104.4,1012.5,104.5,1012,104.4z"/>
			<path class="st56" d="M1004.9,103.5c0.2,0,0.4,0,0.6,0c0.4,0,0.7,0,0.7-0.1c0.1-0.1,0.2-0.4,0.4-0.9l0.3-0.7
				c-0.3,1.1-0.4,1.7-0.4,1.8c0,0.1,0.1,0.2,0.1,0.3c0.1,0.1,0.3,0.2,0.6,0.3c0.8,0.2,0.7,0.2-0.4,0
				C1006.2,103.9,1005.5,103.7,1004.9,103.5z"/>
			<path class="st56" d="M1002.8,102.7c0.4,0.1,0.6,0.1,0.6,0.1c0.1,0,0.2-0.3,0.3-0.6l0.3-0.6l-0.4,1.2v0.1
				c0.1,0.1,0.2,0.2,0.4,0.2C1003.5,103.1,1003.1,102.9,1002.8,102.7z"/>
			<path class="st54" d="M1005.9,103.5c-0.1,0-0.1,0-0.2,0l-0.9-0.2c0.1,0,0.3,0,0.4,0c0.3,0,0.5,0,0.6,0c0.1-0.1,0.4-0.4,0.6-0.8
				l0.4-0.7l-0.3,0.7c-0.2,0.5-0.3,0.8-0.4,0.9C1006.2,103.5,1006.1,103.5,1005.9,103.5z"/>
			<path class="st54" d="M1010.3,102.4l-0.1,0.5c-0.1,0.4-0.1,0.7-0.2,1c-0.1,0.2-0.2,0.3-0.4,0.3c-0.1,0-0.2,0-0.3,0
				c0.2,0,0.4-0.3,0.7-0.9L1010.3,102.4z"/>
			<path class="st54" d="M1013.3,102.2l-0.2,1.9c0,0.1-0.1,0.2-0.4,0.3c-0.1,0-0.2,0-0.3,0c0.2,0,0.4-0.4,0.6-1.1L1013.3,102.2z"/>
			<path class="st54" d="M1003.4,102.8c-0.1,0-0.2,0-0.5,0c0.2-0.1,0.5-0.3,0.8-0.6l0.4-0.5C1003.7,102.3,1003.5,102.7,1003.4,102.8
				z"/>
			<path class="st56" d="M1014.3,105.1h1.5l-0.3,0.2c-0.2,0.2-0.3,0.3-0.3,0.5c0,0.3,0,0.8,0,1.6c-0.1-0.8-0.2-1.3-0.2-1.6
				c0-0.2-0.1-0.3-0.2-0.4C1014.6,105.2,1014.5,105.1,1014.3,105.1z"/>
			<path class="st56" d="M1020.5,104l-0.2,0.2c-0.1,0.2-0.2,0.4-0.2,0.5l0.3,1.6c-0.1-0.2-0.1-0.4-0.2-0.6c-0.2-0.4-0.3-0.7-0.4-0.9
				c-0.1-0.1-0.2-0.3-0.3-0.4c-0.2-0.1-0.3-0.2-0.5-0.1L1020.5,104z"/>
			<path class="st56" d="M1008.7,105l1.7,0.1l-0.4,0.2c-0.2,0.2-0.4,0.3-0.4,0.5l-0.1,1.5v-1.5l-0.2-0.3
				C1009.1,105.2,1008.9,105,1008.7,105z"/>
			<path class="st56" d="M1003.6,103.7c0,0,0.5,0.2,1.6,0.5h-0.3c-0.2,0.1-0.4,0.1-0.5,0.2c-0.1,0.2-0.3,0.6-0.5,1.3l0.3-1.4
				l-0.1-0.3C1004,103.9,1003.8,103.8,1003.6,103.7z"/>
			<path class="st56" d="M1016.9,103.9c0.1-0.8,0-1.6-0.2-2.4l0.4,0.9c0.3,0.7,0.5,1.4,0.5,2c0,0.1-0.1,0.2-0.4,0.3
				c-0.1,0.1-0.3,0.1-0.4,0.1C1016.9,104.6,1016.9,104.3,1016.9,103.9z"/>
			<g>
				<path class="st56" d="M1020.4,100.8c0.4,0.9,0.6,1.6,0.6,2.3c0,0.2-0.2,0.4-0.6,0.6c0-0.4,0-0.9-0.1-1.4c-0.1-1.1-0.3-2-0.6-2.6
					L1020.4,100.8z"/>
				<g>
					<path class="st57" d="M1019.3,101.6c0.2-1.4,0.4-2,0.4-1.9c0.5,1.2,0.7,2.2,0.7,3.1c0,0.4,0,0.7-0.1,0.9
						c-0.1,0.2-0.7,0.3-1.6,0.6c-0.9,0.2-1.2,0.3-0.9,0.1C1018.5,104,1019,103.1,1019.3,101.6z"/>
					<path class="st58" d="M1019.9,101.7l-0.1-2c0.5,1.2,0.7,2.2,0.7,3.1c0,0.6,0,0.9-0.1,1c-0.2,0.1-0.4,0.2-0.6,0.3
						C1019.9,103.9,1020,103.1,1019.9,101.7z"/>
				</g>
			</g>
			<g>
				<path class="st57" d="M1017.1,104.6c-0.1,0.1-0.6,0.3-1.3,0.3c-0.8,0.1-1.1,0-0.9-0.1c0.6-0.4,1-1.1,1.4-2.1
					c0.3-0.9,0.4-1.4,0.4-1.3c0.4,1.2,0.5,2.1,0.5,2.7C1017.2,104.4,1017.2,104.6,1017.1,104.6z"/>
				<path class="st58" d="M1017.1,102.8c0.1,0.6,0.2,1,0.2,1.3s0,0.4-0.1,0.5c0,0-0.1,0.1-0.2,0.1c-0.2,0.1-0.4,0.1-0.7,0.2
					c0.2-0.1,0.4-0.7,0.4-1.8v-1.6C1016.9,101.8,1017,102.2,1017.1,102.8z"/>
			</g>
			<path class="st54" d="M1028.4,90.4c0.1-0.1,0.2,0,0.4,0.2l0.2,0.3c0.8,1.8,1.3,4,1.4,6.6c0.1,1.9,0,4.3-0.3,7.3
				c-0.2,2.6-1,5.7-2.2,9.4c-1,3-2,5.5-2.9,7.3c-0.7,1.4-1.6,3.1-2.7,5.1c-1.6,2.9-2.7,4.9-3.6,6.2c-0.8,1.1-1,2.2-0.8,3.4
				c0.1,0.4,0.3,1,0.8,1.8c0.3,0.5,1,1.3,2.2,2.3l1.6,1.4c-2.1-0.6-3.7-1.6-4.8-3c-0.9-1.1-1.3-2.3-1.2-3.3c0.1-0.8,0.3-1.6,0.6-2.3
				c0.2-0.6,0.6-1.3,1.2-2.2c1.8-3,3.2-5.5,4.1-7.4c2.8-5.8,4.5-11.6,5.2-17.6c0.2-2.1,0.4-4.3,0.4-6.7c0-0.2,0-1.9-0.1-5
				C1027.9,91.8,1028.1,90.5,1028.4,90.4z"/>
			<path class="st54" d="M1025.9,113.3c-0.1,0.3-0.2,0.5-0.4,0.7c-0.2,0.2-0.4,0.2-0.7,0.2c-0.2,0-0.4-0.2-0.6-0.4
				c-0.1-0.2-0.2-0.5-0.1-0.8s0.2-0.5,0.4-0.7c0.2-0.2,0.4-0.2,0.7-0.2c0.2,0,0.4,0.2,0.6,0.4C1025.9,112.7,1025.9,113,1025.9,113.3
				z"/>
			<path class="st59" d="M1025.1,117.8c0.1-0.1,0.2-0.2,0.3-0.2c0.1,0,0.2,0.1,0.3,0.3c0.1,0.2,0.1,0.3,0,0.5c0,0.2-0.1,0.4-0.2,0.5
				s-0.2,0.2-0.3,0.2c-0.1,0-0.2-0.1-0.3-0.3c-0.1-0.2-0.1-0.3,0-0.5C1024.9,118.1,1025,117.9,1025.1,117.8z"/>
			<path class="st60" d="M997.1,97.3c0.1,0,0.3,0.1,0.5,0.3c0.5,0.4,1,0.9,1.6,1.3c0.9,0.6,1.5,0.8,1.9,0.8c0,0,0,0,0,0.1v0.1h-0.3
				c-0.2,0-0.4-0.1-0.7-0.2c-0.4-0.2-1.5-1-3.2-2.4C997,97.4,997,97.3,997.1,97.3z"/>
			<path class="st59" d="M1028.7,96.3l-0.2,1.1c-0.2,0.9-0.3,1.9-0.6,2.7c-0.7,2.8-1.5,4.9-2.6,6.1l2.5-12.3L1028.7,96.3z"/>
			<path class="st59" d="M1004.5,90.1c-0.6-3.5-1.4-4.6-2.3-3.1c-0.9,1.4-1.3,4-1.2,7.8c0,0.7,0,1.9,0.1,3.6c0.1,1,0,1.5,0,1.5
				c-0.8,0-1.6-0.4-2.3-1.1c-0.2-0.2-0.4-0.4-0.6-0.6s-0.3-0.2-0.5-0.1c-0.7,0.5-1.3,2.9-1.8,7.3c-0.2,2.2-0.4,4.4-0.5,6.5
				c-2.5-9.7-2.1-17.8,1.3-24.2c1.2-2.2,2.6-4.1,4.4-5.6c1.3-1.1,2.5-1.9,3.5-2.2c1.1-0.3,1.6,2.3,1.5,8c0,1.9-0.2,3.9-0.3,5.8
				c-0.2,1.8-0.3,2.6-0.3,2.5c0,0-0.1-0.7-0.3-2.1C1004.8,92.4,1004.7,91.1,1004.5,90.1z"/>
			<path class="st59" d="M1007.2,86.7c0.8,0,1.3,0.3,1.4,1.1c0.1,0.6,0,1.1-0.2,1.4c-0.9,1.3-1.6,3-2.3,5c-0.2,0.5-0.3,1-0.5,1.6
				c-0.1,0.3-0.2,0.5-0.2,0.3c-0.2-1.5,0.1-3.5,0.8-6.1c0.2-0.8,0.5-1.6,0.8-2.4L1007.2,86.7z"/>
			<path class="st59" d="M1012.1,89c0.1-0.2,0.2-0.3,0.4-0.4c0.2-0.1,0.4-0.1,0.5,0c0.5,0.2,0.6,0.5,0.3,1.1
				c-0.3,0.5-0.8,2.2-1.5,5.3c-0.4,1.5-0.7,3-1,4.4C1010.7,96,1011.1,92.5,1012.1,89z"/>
			<path class="st59" d="M1015.6,83.7l0.3,1.3c0.2,1.1,0.4,2.1,0.5,3.2c0.3,3.3-0.1,5.8-1.3,7.5c0,0.1-0.1-4.1-0.1-12.5h0.6V83.7z"
				/>
			<path class="st59" d="M1022.5,87.2c0.3-0.5,0.6,0.8,1,3.8s0.2,6.1-0.6,9.3c-0.4,1.6-0.8,2.9-1.3,3.9c0.9-2.9,1.3-6.4,1.1-10.3
				c-0.1-1.2-0.2-2.5-0.3-3.7l-0.2-1.4C1022.3,88,1022.4,87.4,1022.5,87.2z"/>
			
				<linearGradient id="SVGID_4_" gradientUnits="userSpaceOnUse" x1="-11032.8047" y1="15969.8848" x2="-10816.6797" y2="15969.8848" gradientTransform="matrix(0.1705 0 0 -0.1705 2874.8794 2820.8894)">
				<stop  offset="0" style="stop-color:#F3B3F0"/>
				<stop  offset="1" style="stop-color:#F09ADF"/>
			</linearGradient>
			<path class="st61" d="M1023,89.8c-0.3-1-0.4-1.2-0.4-0.7c0.5,3.3,0.5,6.9,0,10.7c-0.2,1.3-0.4,2.4-0.6,3.4
				c-0.2,0.9-0.3,1.2-0.3,1c-0.8-6.3-2.1-11.5-4.1-15.6c-0.6-1.4-1.2-2.4-1.8-3c-0.2-0.2-0.4-0.4-0.5-0.4s-0.1,0.1,0,0.3
				c0.8,2.5,1,5.1,0.6,7.7c-0.1,0.9-0.3,1.6-0.6,2.1c-0.2,0.5-0.3,0.5-0.4,0.1c-0.1-1.1-0.4-2.5-0.9-4.2c-0.6-2-1.2-2.6-1.6-2
				c-0.7,1-1.1,3.1-1.3,6.2c-0.1,0.8-0.1,1.7-0.2,2.9c-0.1,0.8-0.2,1.1-0.3,0.9c-1.5-1.6-2.3-4.1-2.4-7.2c0-0.8,0-1.8,0.1-2.9
				c0.1-0.7,0-1.1,0-1c-1.1,1-1.9,2.6-2.4,5c-0.1,0.4-0.2,1.1-0.3,2.1c-0.1,0.6-0.2,0.8-0.2,0.8c-1.4-1-2.4-3.2-2.9-6.6
				c0-0.2-0.1-1.2-0.3-3.1c-0.1-0.8-0.2-1-0.3-0.8c-1.3,2.2-1.8,5.2-1.4,9.1c0.1,1.1,0.2,2.3,0.5,3.6c0.2,1,0.2,1.5,0.2,1.5
				c-0.4,0.2-1.2-0.1-2.4-1.1c-0.3-0.2-0.7-0.6-1.2-1c-0.3-0.3-0.5-0.4-0.6-0.3c-0.9,1.4-1.4,4.3-1.5,8.8c0,1.1,0,2.5,0,4.2
				c0,1,0,1.5,0,1.3c-0.7-2.6-1.1-5.4-1.4-8.3l-0.2-3.6c0.1-3.6,0.6-6.8,1.5-9.4c1.3-3.8,3.5-6.9,6.5-9.2c2.6-1.9,5.3-3.1,8.2-3.4
				c2.6-0.3,5.2,0,7.9,1c2.4,0.9,4.6,2.3,6.5,4.2c1.9,1.8,3.2,3.8,4.1,6c1.1,2.8,1.8,5.2,2.1,7.3c0.3,2.1,0.2,4.8-0.1,8.1
				c-0.2,2.7-1,5.9-2.3,9.7c-0.4,1.3-0.9,2.4-1.3,3.4c-0.4,0.9-0.5,1.2-0.5,1c0.8-3.8,1.4-7,1.7-9.6c0.6-4.7,0.5-9.4-0.1-13.9
				c0,0-0.1,0.6-0.2,1.8c-0.2,1.6-0.4,3.1-0.7,4.5c-0.3,1.2-0.6,2.4-1,3.6c-0.4,1.1-0.5,1.5-0.5,1.3c0.1-3.7-0.4-7.8-1.5-12.5
				C1023.6,92.1,1023.3,90.8,1023,89.8z"/>
			
				<linearGradient id="SVGID_5_" gradientUnits="userSpaceOnUse" x1="-14391.54" y1="-11595.1191" x2="-14360.9404" y2="-11595.1191" gradientTransform="matrix(0 0.1705 0.1705 2.000000e-04 2989.2678 2533.9482)">
				<stop  offset="0" style="stop-color:#F7CFFC"/>
				<stop  offset="1" style="stop-color:#F3B3F0"/>
			</linearGradient>
			<path class="st62" d="M1022.9,81.6l1.4,1.3c-6.4,2.2-12.3,2.8-17.8,1.7c-1.7-0.3-3.2-0.8-4.6-1.5c-0.7-0.3-1.2-0.6-1.6-0.9
				c3-2.8,6.4-4.3,10.3-4.5c3.2-0.2,6.2,0.4,9.1,1.7C1020.6,79.9,1021.7,80.6,1022.9,81.6z"/>
			
				<linearGradient id="SVGID_6_" gradientUnits="userSpaceOnUse" x1="-12090.2295" y1="-14054.374" x2="-11958.2344" y2="-14054.374" gradientTransform="matrix(-2.970000e-02 0.1679 0.1679 2.970000e-02 3025.5618 2522.4805)">
				<stop  offset="0" style="stop-color:#F3B3F0"/>
				<stop  offset="1" style="stop-color:#EE7AAC"/>
			</linearGradient>
			<path class="st63" d="M1027.6,110.1c0.8-6.4,0.9-11.4,0.3-15.1c-0.8-5.6-3.5-10.2-8-13.7c-1.4-1.1-2.8-2-4.4-2.7
				c-0.8-0.4-1.4-0.6-1.8-0.8c3.7,0.4,7.1,1.9,10,4.5c3.4,3.2,5.6,7.5,6.6,13c0.8,4.7,0.4,10-1.3,15.8c-0.8,2.9-1.7,5.4-2.7,7.4
				C1026.8,116.1,1027.2,113.2,1027.6,110.1z"/>
			<path class="st64" d="M1004.5,80.7c-3.2,2.4-5.3,5.3-6.4,8.6c-1,3.1-1.8,6.1-2.1,9c-0.2,1.2-0.3,3-0.4,5.3
				c-0.1,1.6-0.1,4.3-0.1,8.3c-0.6-1.8-1-4-1.3-6.6c-0.6-5.2-0.4-9.7,0.8-13.7c1.2-4.2,3.2-7.5,6-9.8c2.3-2,5-3.3,8.1-3.8l-1.3,0.6
				C1006.5,79.2,1005.5,79.9,1004.5,80.7z"/>
			<path class="st65" d="M1009.2,97.4c-0.5-1.3-0.8-2.5-0.9-3.8c0.1,0.1,0.3,0.3,0.5,0.4c0.4,0.3,0.8,0.4,1.1,0.4
				c0.3,0,0.6-0.1,0.9-0.2l0.3-0.2c-0.2,3-0.3,4.5-0.3,4.6c0,0.3,0,0.5,0,0.6c0,0.2-0.2,0.3-0.4,0.2
				C1010.1,99.1,1009.7,98.5,1009.2,97.4z"/>
			<path class="st66" d="M1012.7,89.1c-0.5,0.3-1,1.5-1.3,3.4c0,0.1-0.1,1.3-0.4,3.6c0,0.2-0.1,0.8-0.1,1.8c0,0.8-0.1,1.2-0.1,1.4
				c-0.1,0.1-0.1,0.2-0.2,0.1l-0.1-0.1c0.1-0.4,0.2-1.1,0.2-1.9c0-0.9,0.1-2.1,0.2-3.7c0.2-1.9,0.4-3,0.7-3.6c0.3-0.5,0.5-0.8,0.8-1
				L1012.7,89.1z"/>
			<path class="st65" d="M1006.1,92.8c0,0-0.1,0.4-0.3,1.4c-0.2,0.9-0.3,1.5-0.4,1.8c0,0.1,0,0.1-0.1,0.2L1005,96
				c-0.3-0.2-0.5-0.5-0.7-0.8c-0.8-1.1-1.3-2.5-1.6-4.2c0.2,0.4,0.5,0.8,0.9,1.1C1004.3,92.7,1005.2,93,1006.1,92.8z"/>
			<path class="st66" d="M1007.7,88.7l0.3-0.2c-0.2,0.2-0.4,0.6-0.7,1.1c-0.6,1-1,2.1-1.3,3.3c-0.2,0.8-0.4,1.8-0.6,3.2h-0.3
				c0.1-0.7,0.2-1.4,0.4-2.1c0.3-1.5,0.6-2.5,0.8-3C1006.8,89.9,1007.2,89.1,1007.7,88.7z"/>
			<path class="st67" d="M1001.9,85.5C1001.9,85.5,1002,85.5,1001.9,85.5c0.1,0.1,0.2,0.2,0.2,0.3c0,0.1,0.2,1.1,0.5,3
				c0.3,2,0.6,3.3,0.8,3.8c0.3,0.9,0.8,1.8,1.3,2.4c0.5,0.5,0.7,0.8,0.7,0.8v0.1c0,0.1,0,0.1-0.1,0.1c0,0-0.1-0.1-0.4-0.3
				c-0.2-0.2-0.4-0.3-0.5-0.5c-0.8-1-1.3-2.3-1.7-3.9c-0.2-1-0.4-2.2-0.6-3.9L1001.9,85.5z"/>
			<path class="st65" d="M1015,92.9c0.5,0,0.8-0.3,1-1c0.2-0.8,0.1-0.3-0.2,1.5c-0.2,1.2-0.4,1.9-0.7,2.2c-0.1,0.1-0.1,0.1-0.2,0.1
				v-0.1l-0.6-2.9C1014.5,92.9,1014.8,92.9,1015,92.9z"/>
			<path class="st66" d="M1015.3,86.5l-0.2-1.3c0.2,0.5,0.4,1.2,0.6,2.3c0.3,1.4,0.4,2.6,0.3,3.8c-0.1,1.1-0.2,2.1-0.4,2.9
				c-0.2,0.7-0.3,1.2-0.5,1.4c-0.1,0.1-0.1,0.1-0.2,0.1c0,0,0,0,0-0.1c0.2-0.5,0.3-1.1,0.5-1.9c0.3-1.5,0.4-3.1,0.2-4.6
				C1015.6,88.4,1015.5,87.5,1015.3,86.5z"/>
			<path class="st67" d="M1012.7,89.1c0.1,0,0.2,0,0.3,0c0.2,0.1,0.5,0.3,0.6,0.6c0.2,0.3,0.4,0.9,0.7,1.9c0.2,0.8,0.4,1.4,0.4,1.8
				c0,0.1,0.1,0.5,0.2,1.2c0.1,0.7,0.2,1,0.2,1.1c-0.1,0.1-0.2,0.2-0.2,0c-0.2-0.7-0.3-1.5-0.5-2.2c-0.3-1.5-0.5-2.4-0.7-2.7
				c-0.1-0.2-0.2-0.5-0.4-1C1013.1,89.4,1012.9,89.2,1012.7,89.1z"/>
			<path class="st65" d="M1022.9,96.6c-0.2,3.4-0.6,6-1.2,7.8c-0.2-1.5-0.4-2.5-0.4-3c-0.1-0.6-0.4-2.1-0.9-4.4l-0.8-3.3
				c0.4,0.2,0.9,0.3,1.4,0.3c1,0,1.7-0.6,2-1.7c0-0.1,0.1,0.3,0.1,1.1C1023,94.4,1022.9,95.4,1022.9,96.6z"/>
			<path class="st66" d="M1022.5,88.9c0.1,0.5,0.3,1.4,0.3,2.8c0.1,1.4,0.1,2.7,0.1,3.9c-0.1,2.1-0.3,4.1-0.6,6
				c-0.2,1.3-0.4,2.2-0.6,2.7l-0.1-0.4c0.4-1.9,0.6-3.2,0.7-3.8c0.1-0.5,0.2-1.6,0.3-3.2c0.1-1.3,0.1-2.4,0.1-3.1
				c0-0.4,0-1.2-0.1-2.3c-0.1-1.1-0.2-1.8-0.2-2S1022.4,89.1,1022.5,88.9L1022.5,88.9z"/>
			<path class="st67" d="M1015.4,85.1c0.1,0,0.3,0.1,0.4,0.2c0.5,0.4,0.8,0.9,1.2,1.3c0.8,1.2,1.6,2.9,2.4,5.1
				c1.1,3,1.7,5.8,2.1,8.1c0.2,1.1,0.3,2.6,0.4,4.4l-0.1,0.1c-0.2-1.4-0.4-3-0.8-4.9c-0.8-3.8-1.7-6.9-2.8-9.4
				C1017,87.1,1016,85.5,1015.4,85.1C1015.3,85.1,1015.3,85.1,1015.4,85.1z"/>
			<path class="st65" d="M1024,93.8c0.5,0.3,1.1,0.6,1.7,0.9c1.2,0.5,1.9,0.6,2.2,0.2l-0.2,2.3c-0.2,1.8-0.5,3.6-1,5.3
				c-0.3,1-0.6,2-0.9,2.9c-0.3,0.8-0.4,1.1-0.4,1c0.1-2-0.1-4.7-0.6-8L1024,93.8z"/>
			<path class="st67" d="M1022.8,89c0.6,0.6,1.3,2.9,2.1,6.7c0.4,1.9,0.6,3.8,0.8,5.6c0.2,2,0.1,3.6-0.1,4.6
				c-0.1,0.3-0.1,0.4-0.1,0.3c0.1-0.5,0-1.9-0.2-4.2c-0.2-2-0.3-3.2-0.4-3.7c-0.3-1.6-0.6-3.3-1-5c-0.5-2.3-1-3.7-1.3-4.5
				C1022.6,88.8,1022.7,88.8,1022.8,89z"/>
			<path class="st66" d="M1027.9,95c-0.2,2.3-0.4,4-0.7,5.2c-0.1,0.3-0.3,1.1-0.6,2.6c-0.3,1.1-0.7,2.3-1.2,3.5v-0.6
				c0.7-2.5,1.2-4.1,1.3-4.9c0.1-0.5,0.3-1.7,0.6-3.8l0.4-2.9l0.1,0.4C1027.9,94.8,1027.9,94.9,1027.9,95z"/>
			<path class="st67" d="M1008.4,88.2L1008.4,88.2c0.1,0.1,0.1,0.3,0.1,0.5c0,0.3,0,1,0,2.1c0,1.2,0,2,0.1,2.3
				c0,0.5,0.2,1.2,0.4,2.1c0.3,1.1,0.6,2,1,2.6c0.3,0.5,0.5,0.8,0.7,1.2c0.1,0.2,0.2,0.3,0.2,0.3c0,0.1,0,0.1-0.1,0.1
				c0,0.1-0.1,0.1-0.2,0.1s-0.2-0.1-0.4-0.3c-0.2-0.2-0.4-0.4-0.5-0.6c-0.8-1.4-1.3-2.9-1.4-4.4c-0.1-1.3-0.1-2.6-0.1-4L1008.4,88.2
				z"/>
			<path class="st65" d="M1000.3,91.8l0.1,1.3c0,1,0.1,2,0.2,2.8c0.1,1.4,0.2,2.7,0.4,4c-0.4,0.1-1.2-0.2-2.4-1.1
				c-0.6-0.4-1.1-0.9-1.6-1.4c1.1,0.3,2-0.6,2.7-2.6c0.2-0.6,0.4-1.3,0.5-2.1L1000.3,91.8z"/>
			<path class="st66" d="M1000.4,89.3c0.3-1.8,0.8-3.1,1.6-3.8l-0.6,1.3c-0.4,1.1-0.7,2.2-0.8,3.3c-0.1,1.4-0.1,3,0,4.8
				c0.1,0.8,0.2,1.8,0.3,3.1c0,0.3,0.1,0.7,0.2,1.2c0.1,0.3,0.1,0.5,0.1,0.6c0,0-0.1,0.1-0.2,0.1c-0.1,0-0.1,0-0.2,0
				c0,0-0.2-1-0.4-2.9c-0.2-2-0.3-3.4-0.3-4C1000.1,91.4,1000.2,90.2,1000.4,89.3z"/>
			<path class="st66" d="M996.9,97.5c0,0-0.2,0.4-0.5,1c-0.4,0.9-0.6,2.1-0.8,3.4c-0.1,0.9-0.1,1.8-0.2,3c0,0.6,0,1.5,0,2.8
				c0,1.6,0,3.1,0,4.3c-0.3-1.1-0.4-3.2-0.3-6.3c0.1-2.7,0.2-4.4,0.3-5.2c0.3-1.5,0.6-2.4,0.9-2.8c0.1-0.1,0.2-0.2,0.3-0.2
				L996.9,97.5z"/>
			<path class="st68" d="M995.5,97.6c0.2,0.1,0.5,0.1,0.7,0.1l0.3-0.1c-0.8,1.7-1.3,4.5-1.3,8.6c0,2,0,3.9,0.2,5.6
				c-0.5-2.4-0.9-4.3-1.2-5.9c-0.4-2.4-0.5-5.1-0.4-8c0.1-0.9,0.1-1.8,0.3-2.6l0.1-1C994.3,96.1,994.7,97.2,995.5,97.6z"/>
			
				<linearGradient id="SVGID_7_" gradientUnits="userSpaceOnUse" x1="-10842.251" y1="15917.5342" x2="-10816.4512" y2="15917.5342" gradientTransform="matrix(0.1705 0 0 -0.1705 2874.8794 2820.8894)">
				<stop  offset="0" style="stop-color:#F3B3F0"/>
				<stop  offset="1" style="stop-color:#EF8BBA"/>
			</linearGradient>
			<path class="st69" d="M1030.7,99.1c0.1,2.7-0.2,5.5-0.7,8.2c-0.6,2.8-1.3,5.5-2.3,8.2c-0.5,1.3-0.9,2.4-1.3,3.2
				c0.5-2.5,1-5.4,1.3-8.6c0.8-6.4,0.9-11.4,0.3-14.9c0.3,0.4,0.7,0.7,1.1,0.9c0.7,0.5,1.2,0.4,1.4-0.2l0.1,0.9
				C1030.6,97.5,1030.6,98.3,1030.7,99.1z"/>
			<path class="st68" d="M1027.8,94.1l0.3,0.7c0.2,0.7,0.3,1.8,0.4,3.1c0.1,2.3,0.1,4,0,5.2c0,2-0.2,3.8-0.4,5.3
				c-0.2,1.5-0.8,4.9-1.8,10.2c0.9-6,1.4-9.7,1.6-11.1c0.3-3.3,0.4-6.2,0.3-8.7C1028.2,98.6,1028,97.1,1027.8,94.1z"/>
		</g>
	</g>
</g>
</svg>
