
<svg xmlns="http://www.w3.org/2000/svg" version="1.1" xmlns:xlink="http://www.w3.org/1999/xlink" preserveAspectRatio="none" x="0px" y="0px" width="30px" height="30px" viewBox="0 0 30 30">
<defs>
<g id="Layer0_0_FILL">
<path fill="#FFFFFF" fill-opacity="0.6980392156862745" stroke="none" d="
M 997.65 382.45
Q 997.65 377.45 992.65 377.45
L 972.65 377.45
Q 967.65 377.45 967.65 382.45
L 967.65 402.45
Q 967.65 407.45 972.65 407.45
L 992.65 407.45
Q 997.65 407.45 997.65 402.45
L 997.65 382.45
M 984.85 379.45
L 989.95 379.45 989.95 385.2 987.2 383.8 984.85 385 984.85 379.45
M 972.65 379.45
L 974.55 379.45 974.55 405.45 972.65 405.45
Q 969.65 405.45 969.65 402.45
L 969.65 382.45
Q 969.65 379.45 972.65 379.45
M 982.85 388.25
L 987.2 386.05 991.95 388.5 991.95 379.45 992.65 379.45
Q 995.65 379.45 995.65 382.45
L 995.65 402.45
Q 995.65 405.45 992.65 405.45
L 976.55 405.45 976.55 379.45 982.85 379.45 982.85 388.25 Z"/>
</g>
</defs>

<g transform="matrix( 1, 0, 0, 1, -967.65,-377.45) ">
<use xlink:href="#Layer0_0_FILL"/>
</g>
</svg>
