<?xml version="1.0" encoding="utf-8"?>
<!-- Generator: Adobe Illustrator 18.0.0, SVG Export Plug-In . SVG Version: 6.00 Build 0)  -->
<!DOCTYPE svg PUBLIC "-//W3C//DTD SVG 1.1//EN" "http://www.w3.org/Graphics/SVG/1.1/DTD/svg11.dtd">
<svg version="1.1" id="图层_1" xmlns="http://www.w3.org/2000/svg" xmlns:xlink="http://www.w3.org/1999/xlink" x="0px" y="0px"
	 viewBox="0 0 40 40" enable-background="new 0 0 40 40" xml:space="preserve">
<g>
	<circle fill="#062C68" cx="20.1" cy="20" r="18.9"/>
	<path fill="#00C1F9" d="M0.2,20C0.2,9,9.2,0.1,20.1,0.1S40,9,40,20s-8.9,19.9-19.9,19.9S0.2,31,0.2,20z M2.2,20
		c0,9.9,8,17.9,17.9,17.9S38,29.9,38,20S30,2.1,20.1,2.1S2.2,10.1,2.2,20z"/>
</g>
<path fill="#00C1F9" d="M14.8,18.9l7-7c0.4-0.4,1-0.4,1.4,0s0.4,1,0,1.4l-6.3,6.3l6.3,6.3c0.4,0.4,0.4,1,0,1.4s-1,0.4-1.4,0l-7-7
	C14.4,19.9,14.4,19.3,14.8,18.9z"/>
</svg>
