
<svg xmlns="http://www.w3.org/2000/svg" version="1.1" xmlns:xlink="http://www.w3.org/1999/xlink" preserveAspectRatio="none" x="0px" y="0px" width="25px" height="20px" viewBox="0 0 25 20">
<defs>
<g id="Layer0_0_FILL">
<path fill="#00F6FF" stroke="none" d="
M 688.1 629.75
Q 688.1 629.15 687.75 628.8
L 679.05 620.1
Q 678.7 619.75 678.15 619.75 677.6 619.75 677.25 620.1 676.9 620.5 676.9 621 676.9 621.55 677.25 621.9
L 685.05 629.75 677.25 637.55
Q 676.9 637.95 676.9 638.45 676.9 639 677.25 639.35 677.6 639.75 678.15 639.75 678.7 639.75 679.05 639.35
L 687.75 630.65
Q 688.1 630.3 688.1 629.75
M 664.4 639.75
Q 664.95 639.75 665.3 639.35
L 674 630.65
Q 674.35 630.3 674.35 629.75 674.35 629.15 674 628.8
L 665.3 620.1
Q 664.95 619.75 664.4 619.75 663.9 619.75 663.5 620.1 663.15 620.5 663.15 621 663.15 621.55 663.5 621.9
L 671.3 629.75 663.5 637.55
Q 663.15 637.95 663.15 638.45 663.15 639 663.5 639.35 663.9 639.75 664.4 639.75 Z"/>
</g>
</defs>

<g transform="matrix( 1, 0, 0, 1, -663.1,-619.75) ">
<use xlink:href="#Layer0_0_FILL"/>
</g>
</svg>
