
<svg xmlns="http://www.w3.org/2000/svg" version="1.1" xmlns:xlink="http://www.w3.org/1999/xlink" preserveAspectRatio="none" x="0px" y="0px" width="30px" height="30px" viewBox="0 0 30 30">
<defs>
<path id="Layer0_0_MEMBER_0_MEMBER_0_1_STROKES" stroke="#FFD400" stroke-width="2" stroke-linejoin="round" stroke-linecap="round" fill="none" d="
M 10.618435668945311 23.194003295898437
L 6.618450927734374 28.24386901855469"/>

<path id="Layer0_0_MEMBER_0_MEMBER_1_1_STROKES" stroke="#FFD400" stroke-width="2" stroke-linejoin="round" stroke-linecap="round" fill="none" d="
M 19.381564331054687 23.194003295898437
L 23.381549072265628 28.24386901855469"/>

<path id="Layer0_0_MEMBER_1_MEMBER_0_1_STROKES" stroke="#FFD400" stroke-width="2" stroke-linejoin="round" stroke-linecap="square" fill="none" d="
M -14 -12.95
L 14 -12.95"/>

<path id="Layer0_0_MEMBER_1_MEMBER_1_1_STROKES" stroke="#FFD400" stroke-width="2" stroke-linejoin="round" stroke-linecap="round" fill="none" d="
M 11.9 -12.95
Q 12 -12.35 12 -11.65
L 12 4.35
Q 12 8.35 8 8.35
L -8 8.35
Q -12 8.35 -12 4.35
L -12 -11.65
Q -12 -12.35 -11.85 -12.95"/>

<path id="Layer0_0_MEMBER_2_MEMBER_0_1_STROKES" stroke="#FFD400" stroke-width="2" stroke-linejoin="round" stroke-linecap="square" fill="none" d="
M 7.977560424804693 9.1
L 21.97750244140625 9.1"/>

<path id="Layer0_0_MEMBER_2_MEMBER_1_1_STROKES" stroke="#FFD400" stroke-width="2" stroke-linejoin="round" stroke-linecap="square" fill="none" d="
M 7.9876014709472685 14.35
L 15.987472534179684 14.35"/>
</defs>

<g transform="matrix( 0.84210205078125, 0, 0, 0.841644287109375, 14.45,17.05) ">
<use xlink:href="#Layer0_0_MEMBER_0_MEMBER_0_1_STROKES" transform="matrix( 1.1875, 0, 0, 1.1881561279296875, -17.15,-20.25) "/>
</g>

<g transform="matrix( -0.84210205078125, 0, 0, 0.841644287109375, 15.55,17.05) ">
<use xlink:href="#Layer0_0_MEMBER_0_MEMBER_1_1_STROKES" transform="matrix( -1.1875, 0, 0, 1.1881561279296875, 18.45,-20.25) "/>
</g>

<g transform="matrix( 1, 0, 0, 1, 15,14.75) ">
<use xlink:href="#Layer0_0_MEMBER_1_MEMBER_0_1_STROKES"/>
</g>

<g transform="matrix( 1, 0, 0, 1, 15,14.75) ">
<use xlink:href="#Layer0_0_MEMBER_1_MEMBER_1_1_STROKES"/>
</g>

<g transform="matrix( 0.95562744140625, 0, 0, 1, 69.95,12.95) ">
<use xlink:href="#Layer0_0_MEMBER_2_MEMBER_0_1_STROKES" transform="matrix( 1.0464324951171875, 0, 0, 1, -73.2,-12.95) "/>
</g>

<g transform="matrix( 0.5460662841796875, 0, 0, 1, 43.4,18.2) ">
<use xlink:href="#Layer0_0_MEMBER_2_MEMBER_1_1_STROKES" transform="matrix( 1.8312835693359375, 0, 0, 1, -79.5,-18.2) "/>
</g>
</svg>
