
<svg xmlns="http://www.w3.org/2000/svg" version="1.1" xmlns:xlink="http://www.w3.org/1999/xlink" preserveAspectRatio="none" x="0px" y="0px" width="30px" height="30px" viewBox="0 0 30 30">
<defs>
<g id="Layer0_0_FILL">
<path fill="#FFFFFF" fill-opacity="0.6980392156862745" stroke="none" d="
M 997.6 305.5
L 997.6 303.5 967.6 303.5 967.6 305.5 969.65 305.5
Q 969.6 305.65 969.6 305.8
L 969.6 321.8
Q 969.6 326.8 974.6 326.8
L 976.2 326.8 973.45 330.35
Q 973.15 330.65 973.2 331.1 973.25 331.5 973.6 331.75 973.9 332 974.35 331.95 974.75 331.9 975 331.6
L 978.7 326.8 986.55 326.8 990.25 331.6
Q 990.45 331.9 990.9 331.95 991.3 332 991.65 331.75 991.95 331.5 992 331.1 992.05 330.65 991.8 330.35
L 989.05 326.8 990.6 326.8
Q 995.6 326.8 995.6 321.8
L 995.6 305.8
Q 995.6 305.65 995.55 305.5
L 997.6 305.5
M 993.65 305.5
Q 993.6 305.65 993.6 305.8
L 993.6 321.8
Q 993.6 324.8 990.6 324.8
L 987.15 324.8
Q 987.05 324.8 987 324.8
L 978.2 324.8
Q 978.15 324.8 978.1 324.8
L 974.6 324.8
Q 971.6 324.8 971.6 321.8
L 971.6 305.8
Q 971.6 305.65 971.55 305.5
L 993.65 305.5
M 990.6 312.8
L 990.6 310.8 974.6 310.8 974.6 312.8 990.6 312.8
M 984.6 316.05
L 974.6 316.05 974.6 318.05 984.6 318.05 984.6 316.05 Z"/>
</g>
</defs>

<g transform="matrix( 1, 0, 0, 1, -967.6,-302.7) ">
<use xlink:href="#Layer0_0_FILL"/>
</g>
</svg>
