<?xml version="1.0" encoding="utf-8"?>
<!-- Generator: Adobe Illustrator 18.0.0, SVG Export Plug-In . SVG Version: 6.00 Build 0)  -->
<!DOCTYPE svg PUBLIC "-//W3C//DTD SVG 1.1//EN" "http://www.w3.org/Graphics/SVG/1.1/DTD/svg11.dtd">
<svg version="1.1" id="图层_1" xmlns="http://www.w3.org/2000/svg" xmlns:xlink="http://www.w3.org/1999/xlink" x="0px" y="0px"
	 viewBox="0 0 40 40" enable-background="new 0 0 40 40" xml:space="preserve">
<g>
	<circle fill="#062C68" cx="20.1" cy="20" r="18.9"/>
	<path fill="#00C1F9" d="M20.1,39.9C9.2,39.9,0.2,31,0.2,20S9.2,0.1,20.1,0.1S40,9,40,20S31.1,39.9,20.1,39.9z M20.1,2.1
		c-9.9,0-17.9,8-17.9,17.9s8,17.9,17.9,17.9S38,29.9,38,20S30,2.1,20.1,2.1z"/>
</g>
<path fill="#00C1F9" d="M25.5,20.3L25.5,20.3c-0.4,0.4-1,0.4-1.4,0l-7-7c-0.4-0.4-0.4-1,0-1.4l0,0c0.4-0.4,1-0.4,1.4,0l7,7
	C25.9,19.3,25.9,19.9,25.5,20.3z"/>
<path fill="#00C1F9" d="M17,27.3L17,27.3c-0.4-0.4-0.4-1,0-1.4l7-7c0.4-0.4,1-0.4,1.4,0l0,0c0.4,0.4,0.4,1,0,1.4l-7,7
	C18.1,27.7,17.4,27.7,17,27.3z"/>
</svg>
