
<svg xmlns="http://www.w3.org/2000/svg" version="1.1" xmlns:xlink="http://www.w3.org/1999/xlink" preserveAspectRatio="none" x="0px" y="0px" width="30px" height="30px" viewBox="0 0 30 30">
<defs>
<path id="Layer0_0_1_STROKES" stroke="#FFD400" stroke-width="2" stroke-linejoin="miter" stroke-linecap="round" stroke-miterlimit="3" fill="none" d="
M 77 16.95
L 85.25 16.95
Q 88.9 17.05 89 20.7
L 89 28.95 85.25 28.95
Q 85.15 28.95 85 28.95
L 80.75 28.95
Q 77.1 28.85 77 25.2
L 77 16.95 Z
M 80.75 0.95
L 89 0.95 89 4.7
Q 89 4.8 89 4.95
L 89 9.2
Q 88.9 12.85 85.25 12.95
L 77 12.95 77 4.7
Q 77.1 1.05 80.75 0.95 Z
M 61 0.95
L 69.25 0.95
Q 72.9 1.05 73 4.7
L 73 12.95 64.75 12.95
Q 61.1 12.85 61 9.2
L 61 0.95 Z
M 61 28.95
L 61 20.7
Q 61.1 17.05 64.75 16.95
L 73 16.95 73 25.2
Q 72.9 28.85 69.25 28.95
L 61 28.95 Z"/>
</defs>

<g transform="matrix( 1, 0, 0, 1, -60,0.05) ">
<use xlink:href="#Layer0_0_1_STROKES"/>
</g>
</svg>
