
<svg xmlns="http://www.w3.org/2000/svg" version="1.1" xmlns:xlink="http://www.w3.org/1999/xlink" preserveAspectRatio="none" x="0px" y="0px" width="30px" height="30px" viewBox="0 0 30 30">
<defs>
<g id="Layer0_0_FILL">
<path fill="#FFFFFF" fill-opacity="0.6980392156862745" stroke="none" d="
M 997.6 467.3
L 997.5 467.3
Q 996.95703125 463.6630859375 992.85 463.55
L 984.6 463.55
Q 984.1892578125 463.553515625 983.9 463.85 983.603515625 464.1392578125 983.6 464.55
L 983.6 472.8
Q 983.72734375 477.42265625 988.3 477.55
L 992.6 477.55
Q 992.75 477.55 992.85 477.55
L 997.6 477.55 997.6 467.3
M 992.85 465.55
Q 995.527734375 465.6353515625 995.6 468.3
L 995.6 475.55 988.35 475.55
Q 985.672265625 475.46484375 985.6 472.75
L 985.6 465.55 992.85 465.55
M 997.6 456.8
L 997.6 452.55
Q 997.6 452.41875 997.6 452.3
L 997.6 447.55 988.3 447.55
Q 983.726953125 447.68984375 983.6 452.25
L 983.6 460.55
Q 983.603515625 460.9607421875 983.9 461.25 984.1892578125 461.546484375 984.6 461.55
L 992.85 461.55
Q 997.47265625 461.42265625 997.6 456.8
M 995.6 449.55
L 995.6 452.3
Q 995.6 452.41875 995.6 452.55
L 995.6 456.8
Q 995.5146484375 459.477734375 992.8 459.55
L 985.6 459.55 985.6 452.3
Q 985.684765625 449.634765625 988.35 449.55
L 995.6 449.55
M 967.6 447.55
L 967.6 456.85
Q 967.73984375 461.423046875 972.3 461.55
L 980.6 461.55
Q 981.0107421875 461.546484375 981.3 461.25 981.596484375 460.9607421875 981.6 460.55
L 981.6 452.25
Q 981.473046875 447.68984375 976.9 447.55
L 967.6 447.55
M 969.6 456.8
L 969.6 449.55 976.85 449.55
Q 979.527734375 449.6353515625 979.6 452.3
L 979.6 459.55 972.35 459.55
Q 969.684765625 459.465234375 969.6 456.8
M 967.6 468.25
L 967.6 477.55 976.9 477.55
Q 981.473046875 477.41015625 981.6 472.8
L 981.6 464.55
Q 981.596484375 464.1392578125 981.3 463.85 981.0107421875 463.553515625 980.6 463.55
L 972.3 463.55
Q 967.73984375 463.676953125 967.6 468.25
M 969.6 475.55
L 969.6 468.3
Q 969.68515625 465.622265625 972.35 465.55
L 979.6 465.55 979.6 472.8
Q 979.515234375 475.465234375 976.85 475.55
L 969.6 475.55 Z"/>
</g>
</defs>

<g transform="matrix( 1, 0, 0, 1, -967.6,-447.55) ">
<use xlink:href="#Layer0_0_FILL"/>
</g>
</svg>
