
<svg xmlns="http://www.w3.org/2000/svg" version="1.1" xmlns:xlink="http://www.w3.org/1999/xlink" preserveAspectRatio="none" x="0px" y="0px" width="25px" height="25px" viewBox="0 0 25 25">
<defs>
<filter id="Filter_1" x="-20%" y="-20%" width="140%" height="140%" color-interpolation-filters="sRGB">
<feColorMatrix in="SourceGraphic" type="matrix" values="1 0 0 0 0 0 1 0 0 0 0 0 1 0 0 0 0 0 0.1 0" result="result1"/>
</filter>

<g id="Layer0_0_FILL">
<path fill="#FFF100" stroke="none" d="
M 12.3 19.3
Q 11.15 19.4 11.1 20.5 11.15 21.6 12.3 21.6 13.4 21.6 13.5 20.5 13.4 19.4 12.3 19.3
M 12.85 11.7
Q 11.75 12 11.45 12.25 11.25 12.45 11.25 13.3
L 11.25 15.95
Q 11.25 17.05 12.3 17.05 13.3 17.05 13.3 15.95
L 13.3 13.55
Q 17.2 12.75 17.25 8.95 16.9 4.9 12.3 4.6 8.1 4.95 7.65 8.2 7.65 9.2 8.7 9.3 9.25 9.3 9.6 8.5 10.25 6.55 12.3 6.55 14.85 6.75 15.05 9.15 15.05 11.25 12.85 11.7 Z"/>
</g>

<g id="flash0_ai____1__Path__0_Layer0_0_FILL">
<path fill="#FFF100" stroke="none" d="
M 22.95 11.4
Q 22.95 6.7 19.6 3.35 16.2 0 11.45 0 6.7 0 3.35 3.35 0 6.7 0 11.4 0 16.1 3.35 19.45 6.7 22.8 11.45 22.8 16.2 22.8 19.6 19.45 22.95 16.15 22.95 11.4 Z"/>
</g>

<path id="Layer0_1_1_STROKES" stroke="#FFF500" stroke-width="1" stroke-linejoin="miter" stroke-linecap="butt" stroke-miterlimit="10" fill="none" d="
M 23.5 11.95
Q 23.5 16.7 20.15 20 16.75 23.35 12 23.35 7.25 23.35 3.9 20 0.55 16.65 0.55 11.95 0.55 7.25 3.9 3.9 7.25 0.55 12 0.55 16.75 0.55 20.15 3.9 23.5 7.25 23.5 11.95 Z"/>
</defs>

<g transform="matrix( 1, 0, 0, 1, 0,0) ">
<use xlink:href="#Layer0_0_FILL"/>
</g>

<g transform="matrix( 1, 0, 0, 1, 0.2,0.7) ">
<use xlink:href="#Layer0_1_1_STROKES"/>
</g>

<g transform="matrix( 1, 0, 0, 1, 0.75,1.25) ">
<g transform="matrix( 1, 0, 0, 1, 0,0) ">
<use filter="url(#Filter_1)" xlink:href="#flash0_ai____1__Path__0_Layer0_0_FILL"/>
</g>
</g>
</svg>
